<svg width="554" height="427" viewBox="0 0 554 427" fill="none" xmlns="http://www.w3.org/2000/svg">
    <path
        d="M225 418C225 418.555 225.682 419 226.531 419H552.469C553.318 419 554 418.555 554 418C554 417.445 553.318 417 552.469 417H226.531C225.682 417 225 417.445 225 418Z"
        fill="#323232" />
    <path
        d="M458.705 79.2378C459.341 93.0773 469.948 103.51 483.765 104.323C498.705 105.202 512.022 95.601 508.824 79.2378C505.264 61.0158 497.343 56.8251 483.765 54.1528C467.852 51.0211 458.017 64.2846 458.705 79.2378Z"
        fill="#2F2E41" />
    <path
        d="M408.152 176.288C408.949 176.764 409.841 177.058 410.764 177.151C411.687 177.245 412.62 177.134 413.496 176.827C414.372 176.521 415.17 176.026 415.834 175.377C416.498 174.728 417.012 173.941 417.34 173.072L446.646 178.766L475.307 167.019L467.991 155.301L446.623 166.025L413.235 164.665C411.74 164.211 410.13 164.322 408.711 164.976C407.292 165.631 406.162 166.784 405.536 168.216C404.909 169.649 404.829 171.262 405.311 172.75C405.794 174.238 406.804 175.497 408.152 176.288Z"
        fill="#FFB6B6" />
    <path
        d="M498.27 152.496C498.27 152.496 500.237 155.215 493.771 158.163C488.595 160.523 460.792 175.583 452.995 176.839C452.917 177.944 452.474 178.992 451.735 179.817C450.997 180.643 450.005 181.199 448.916 181.398L444.514 165.569C446.497 162.42 448.7 163.567 449.803 164.525L458.36 157.777L481.909 142.907L496.883 150.506L498.27 152.496Z"
        fill="#F2F2F2" />
    <path
        d="M457.451 117.493L468.397 115.626L488.48 124.815L499.757 280.97L464.343 264.575C458.635 261.933 452.176 261.404 446.115 263.083C445.07 263.372 443.971 263.396 442.915 263.154C441.859 262.911 440.88 262.41 440.065 261.694C439.251 260.979 438.628 260.071 438.252 259.054C437.875 258.037 437.757 256.943 437.909 255.869L457.451 117.493Z"
        fill="#F2F2F2" />
    <path d="M490.284 402.996H481.689L477.599 369.812H490.284V402.996Z" fill="#FFB6B6" />
    <path
        d="M494.82 417.903H488.657L487.557 412.078L484.739 417.903H468.392C467.608 417.903 466.845 417.652 466.214 417.188C465.583 416.723 465.117 416.068 464.883 415.319C464.65 414.571 464.662 413.767 464.918 413.025C465.173 412.284 465.659 411.643 466.304 411.198L479.358 402.173V396.284L493.089 397.105L494.82 417.903Z"
        fill="#2F2E41" />
    <path d="M533.116 384.689L526.183 389.773L503.291 365.426L513.523 357.921L533.116 384.689Z"
        fill="#FFB6B6" />
    <path
        d="M545.577 394.03L540.605 397.677L536.279 393.629L537.445 399.994L524.259 409.666C523.627 410.13 522.863 410.379 522.08 410.377C521.296 410.376 520.533 410.124 519.903 409.658C519.273 409.191 518.808 408.536 518.576 407.787C518.345 407.037 518.358 406.234 518.615 405.493L523.817 390.489L520.34 385.739L531.9 378.277L545.577 394.03Z"
        fill="#2F2E41" />
    <path
        d="M458.792 250.875C459.268 257.484 467.287 281.604 467.287 281.604L468.722 296.191L472.807 337.75L477.224 382.665C483.827 394.474 495.154 386.428 495.154 386.428V378.902C495.154 378.902 496.038 372.111 496.927 363.5C498.243 350.838 499.577 334.238 498.174 329.46C498.312 328.813 498.417 328.16 498.487 327.503C499.928 316.315 503.436 266.158 498.424 260.796C505.989 253.252 510.586 243.234 511.374 232.575C511.487 231.026 511.581 229.402 511.637 227.715C512.02 217.054 504.746 204.561 501.902 200.121C501.212 199.043 501.585 197.262 501.585 197.262L459.929 213.805L459.037 215.022V220.208L458.792 250.875Z"
        fill="#35323E" />
    <path
        d="M468.722 296.192L472.807 337.752L496.927 363.501L508.229 375.567C520.653 380.898 524.737 367.609 524.737 367.609L520.158 361.645C520.158 361.645 507.302 339.476 498.487 327.504C496.05 324.199 493.92 321.666 492.46 320.6C489.165 318.204 479.21 305.185 469.862 292.467L468.722 296.192Z"
        fill="#35323E" />
    <path
        d="M512.553 198.833C512.509 199.756 512.319 200.667 511.99 201.53C511.952 201.637 511.914 201.737 511.871 201.844C511.098 203.693 509.725 205.229 507.974 206.202C507.458 206.493 506.915 206.73 506.351 206.911L501.471 207.695L459.502 214.411L457.816 209.338L460.993 201.386L458.888 194.55L458.601 154.74C453.774 145.239 452.803 136.298 458.411 128.313V128.263L466.036 116.09L471.111 108.396L487.387 107.875L489.699 113.745L494.266 116.479C504.39 122.537 508.036 133.631 507.817 145.44C504.328 158.967 506.896 174.005 509.496 190.129L511.62 194.381C512.308 195.76 512.63 197.294 512.553 198.833Z"
        fill="#8DCFF8" />
    <path opacity="0.2"
        d="M512.553 198.833C512.509 199.756 512.319 200.666 511.989 201.53L507.974 206.202C507.458 206.492 506.914 206.73 506.351 206.91L501.47 207.694L508.531 194.406L493.013 160.396L512.553 198.833Z"
        fill="black" />
    <path
        d="M474.367 119.374L489.699 113.744L509.782 122.933L508.825 187.104C514.784 192.027 515.984 199.125 511.701 208.728L519.446 266.959C519.604 268.153 519.44 269.368 518.969 270.477C518.499 271.586 517.74 272.548 516.771 273.262C515.802 273.977 514.659 274.418 513.462 274.539C512.265 274.66 511.057 274.458 509.964 273.952L494.685 266.879C483.141 261.534 470.076 260.464 457.817 263.859L474.367 119.374Z"
        fill="#F2F2F2" />
    <path
        d="M499.079 87.9704C498.365 93.1819 495.613 97.8966 491.429 101.079C487.244 104.26 481.969 105.649 476.762 104.94C471.555 104.231 466.842 101.481 463.66 97.2953C460.477 93.1097 459.084 87.8305 459.788 82.6176L459.826 82.3359C460.648 77.193 463.456 72.5796 467.645 69.4906C471.834 66.4016 477.068 65.0848 482.218 65.8241C487.369 66.5634 492.022 69.2996 495.175 73.4425C498.328 77.5854 499.728 82.8029 499.072 87.9696L499.079 87.9704Z"
        fill="#FFB8B8" />
    <path
        d="M452.44 80.4918C456.755 81.5719 461.269 81.5719 465.584 80.4918C465.841 79.2022 466.311 77.9645 466.975 76.8294C467.059 78.0832 467.33 79.3175 467.777 80.4918C471.396 83.0035 479.594 81.6339 487.524 80.4918V60.4237H472.488C459.76 59.2819 450.522 68.0898 452.44 80.4918Z"
        fill="#2F2E41" />
    <path
        d="M490.42 50.4026C491.564 48.8078 493.821 48.1119 495.847 48.2926C497.829 48.5611 499.722 49.2896 501.373 50.4202C504.198 52.1624 506.743 54.3237 508.92 56.8303C510.798 59.0021 512.392 62.0115 510.92 64.5358C509.691 66.6422 506.691 67.4566 504.2 66.988C501.71 66.5194 499.628 65.0561 497.7 63.5681C495.773 62.0802 493.849 60.4951 491.469 59.7007L493.388 59.5492C492.083 58.3636 490.994 56.9606 490.168 55.4024C489.771 54.6194 489.585 53.746 489.629 52.8689C489.674 51.9917 489.946 51.1415 490.42 50.4026Z"
        fill="#2F2E41" />
    <path
        d="M471.861 63.5586H487.992C492.354 63.5586 496.537 65.2931 499.622 68.3806C502.706 71.468 504.439 75.6555 504.439 80.0218C504.438 86.3812 502.069 92.5118 497.794 97.2158C493.519 101.92 487.645 104.859 481.32 105.459L486.897 89.2708L476.13 105.576H471.861C486.422 93.4138 482.338 78.8909 471.861 63.5586Z"
        fill="#2F2E41" />
    <path
        d="M489.801 137.768C489.801 137.768 493.155 137.818 491.644 144.768C490.435 150.331 485.848 181.641 482.187 188.645C483.025 189.369 483.598 190.352 483.817 191.438C484.035 192.524 483.887 193.652 483.394 194.644L468.092 188.702C466.758 185.227 468.994 184.146 470.421 183.835L470.141 172.935L472.335 145.15L487.378 137.689L489.801 137.768Z"
        fill="#F2F2F2" />
    <path
        d="M454.908 224.276C455.766 223.921 456.535 223.383 457.162 222.698C457.789 222.013 458.259 221.199 458.538 220.313C458.817 219.427 458.898 218.491 458.776 217.57C458.654 216.649 458.332 215.766 457.833 214.983L479.93 194.89L487.681 164.874L473.924 163.729L469.718 187.282L448.648 213.243C447.39 214.17 446.515 215.527 446.19 217.057C445.864 218.587 446.111 220.183 446.882 221.543C447.654 222.903 448.897 223.932 450.376 224.436C451.855 224.94 453.468 224.883 454.908 224.276Z"
        fill="#FFB6B6" />
    <path
        d="M324.45 299.126H10.5495C7.75262 299.123 5.07118 298.009 3.09346 296.028C1.11575 294.047 0.00324361 291.362 0 288.56V32.5659C0.00324771 29.7647 1.11575 27.0791 3.09346 25.0983C5.07118 23.1175 7.75262 22.0033 10.5495 22H324.45C327.247 22.0032 329.929 23.1175 331.907 25.0983C333.884 27.0791 334.997 29.7647 335 32.5659V288.56C334.997 291.362 333.884 294.047 331.907 296.028C329.929 298.009 327.247 299.123 324.45 299.126Z"
        fill="white" fill-opacity="0.2" />
    <path
        d="M17.6594 29.5186C14.9652 29.5217 12.3823 30.595 10.4772 32.5031C8.57216 34.4112 7.50059 36.9982 7.49756 39.6966V281.432C7.50075 284.13 8.57239 286.717 10.4774 288.625C12.3825 290.533 14.9653 291.606 17.6594 291.609H232.512C257.693 291.581 281.834 281.549 299.639 263.716C317.445 245.883 327.461 221.704 327.489 196.485V39.6966C327.486 36.9982 326.414 34.4112 324.509 32.5031C322.604 30.595 320.021 29.5217 317.327 29.5186L17.6594 29.5186Z"
        fill="#1E2636" />
    <line x1="7.10107" y1="57.1973" x2="326.576" y2="57.1972" stroke="#DEDEDE" stroke-opacity="0.3" />
    <line x1="42.0908" y1="291.979" x2="42.0908" y2="57.6975" stroke="#DEDEDE" stroke-opacity="0.3" />
    <line x1="150.561" y1="291.979" x2="150.561" y2="57.6975" stroke="#DEDEDE" stroke-opacity="0.3" />
    <rect x="14.8247" y="66.6016" width="17.9355" height="17.9355" rx="4" fill="#CBCBCB"
        fill-opacity="0.3" />
    <rect x="51" y="67" width="91" height="44.5521" rx="4" fill="#2D384F" />
    <rect x="159" y="67" width="160" height="148" rx="4" fill="#2D384F" />
    <rect x="39.1177" y="35.3823" width="106.03" height="14.4118" rx="4" fill="#525763" />
    <rect x="264.561" y="35.3823" width="54.5591" height="14.4118" rx="4" fill="#525763" />
    <rect x="14.8247" y="113.685" width="17.9355" height="17.9355" rx="4" fill="#CBCBCB"
        fill-opacity="0.3" />
    <path fill-rule="evenodd" clip-rule="evenodd"
        d="M22.2335 49.8494C26.2577 49.8494 29.5198 46.5872 29.5198 42.5631C29.5198 38.539 26.2577 35.2769 22.2335 35.2769C18.2094 35.2769 14.9473 38.539 14.9473 42.5631C14.9473 46.5872 18.2094 49.8494 22.2335 49.8494ZM21.4313 46.6114C24.114 46.6114 26.2888 44.4366 26.2888 41.7539C26.2888 39.0712 24.114 36.8964 21.4313 36.8964C18.7486 36.8964 16.5738 39.0712 16.5738 41.7539C16.5738 44.4366 18.7486 46.6114 21.4313 46.6114Z"
        fill="url(#paint0_linear_42119_3052)" />
    <path
        d="M122.568 91.767V91.4773C122.574 90.483 122.662 89.6903 122.832 89.0994C123.009 88.5085 123.264 88.0312 123.599 87.6676C123.935 87.304 124.338 86.9744 124.81 86.679C125.162 86.4517 125.477 86.2159 125.756 85.9716C126.034 85.7273 126.256 85.4574 126.42 85.1619C126.585 84.8608 126.668 84.5256 126.668 84.1562C126.668 83.7642 126.574 83.4205 126.386 83.125C126.199 82.8295 125.946 82.6023 125.628 82.4432C125.315 82.2841 124.969 82.2045 124.588 82.2045C124.219 82.2045 123.869 82.2869 123.54 82.4517C123.21 82.6108 122.94 82.8494 122.73 83.1676C122.52 83.4801 122.406 83.8693 122.389 84.3352H118.912C118.94 83.1989 119.213 82.2614 119.73 81.5227C120.247 80.7784 120.932 80.2244 121.784 79.8608C122.636 79.4915 123.577 79.3068 124.605 79.3068C125.736 79.3068 126.736 79.4943 127.605 79.8693C128.474 80.2386 129.156 80.7756 129.651 81.4801C130.145 82.1847 130.392 83.0341 130.392 84.0284C130.392 84.6932 130.281 85.2841 130.06 85.8011C129.844 86.3125 129.54 86.767 129.148 87.1648C128.756 87.5568 128.293 87.9119 127.759 88.2301C127.31 88.4972 126.94 88.7756 126.651 89.0653C126.366 89.3551 126.153 89.6903 126.011 90.071C125.875 90.4517 125.804 90.9205 125.798 91.4773V91.767H122.568ZM124.256 97.2216C123.688 97.2216 123.202 97.0227 122.798 96.625C122.401 96.2216 122.205 95.7386 122.21 95.1761C122.205 94.6193 122.401 94.142 122.798 93.7443C123.202 93.3466 123.688 93.1477 124.256 93.1477C124.795 93.1477 125.27 93.3466 125.679 93.7443C126.088 94.142 126.295 94.6193 126.301 95.1761C126.295 95.5511 126.196 95.8949 126.003 96.2074C125.815 96.5142 125.568 96.7614 125.261 96.9489C124.955 97.1307 124.619 97.2216 124.256 97.2216Z"
        fill="#1E2636" />
    <path
        d="M172.526 97H168.571L174.597 79.5455H179.352L185.369 97H181.415L177.043 83.5341H176.906L172.526 97ZM172.278 90.1392H181.619V93.0199H172.278V90.1392ZM192.841 79.5455V97H189.15V79.5455H192.841ZM199.611 94.9716C199.048 94.9716 198.565 94.7727 198.162 94.375C197.764 93.9773 197.565 93.4943 197.565 92.9261C197.565 92.3693 197.764 91.892 198.162 91.4943C198.565 91.0966 199.048 90.8977 199.611 90.8977C200.156 90.8977 200.633 91.0966 201.043 91.4943C201.452 91.892 201.656 92.3693 201.656 92.9261C201.656 93.3011 201.56 93.6449 201.366 93.9574C201.179 94.2642 200.932 94.5114 200.625 94.6989C200.318 94.8807 199.98 94.9716 199.611 94.9716ZM199.611 86.4062C199.048 86.4062 198.565 86.2074 198.162 85.8097C197.764 85.4119 197.565 84.929 197.565 84.3608C197.565 83.804 197.764 83.3295 198.162 82.9375C198.565 82.5398 199.048 82.3409 199.611 82.3409C200.156 82.3409 200.633 82.5398 201.043 82.9375C201.452 83.3295 201.656 83.804 201.656 84.3608C201.656 84.7415 201.56 85.0881 201.366 85.4006C201.179 85.7074 200.932 85.9517 200.625 86.1335C200.318 86.3153 199.98 86.4062 199.611 86.4062Z"
        fill="#1E2636" />
    <path
        d="M225.844 191.236C229.965 193.9 234.731 195.394 239.635 195.559C239.547 195.767 239.449 195.97 239.34 196.167C238.769 197.221 237.963 198.128 236.983 198.818C235.824 199.635 234.462 200.117 233.047 200.212C231.632 200.307 230.218 200.012 228.96 199.359C227.701 198.705 226.646 197.719 225.909 196.507C225.173 195.295 224.784 193.904 224.784 192.486V191.236H225.844Z"
        fill="#525763" />
    <path
        d="M254.767 191.603V192.486C254.768 194.207 254.195 195.879 253.14 197.238C252.084 198.596 250.606 199.565 248.939 199.99C247.271 200.415 245.51 200.272 243.933 199.585C242.356 198.897 241.053 197.703 240.229 196.192C240.116 195.99 240.013 195.782 239.922 195.569C240.149 195.575 240.372 195.578 240.598 195.578C245.597 195.584 250.501 194.208 254.767 191.603Z"
        fill="#525763" />
    <path
        d="M265.2 98.1426C264.967 98.1085 264.732 98.0868 264.496 98.0713C267.174 104.243 267.36 111.212 265.014 117.518C265.25 117.49 265.482 117.453 265.715 117.41C267.986 116.97 270.027 115.738 271.475 113.934C272.923 112.13 273.684 109.87 273.622 107.558C273.56 105.245 272.68 103.03 271.138 101.306C269.595 99.5817 267.491 98.4608 265.2 98.1426Z"
        fill="#525763" />
    <path
        d="M216.703 98.0713C216.467 98.0868 216.231 98.1085 215.999 98.1426C213.708 98.4607 211.603 99.5817 210.061 101.306C208.519 103.03 207.639 105.245 207.577 107.558C207.515 109.87 208.276 112.13 209.724 113.934C211.172 115.738 213.213 116.97 215.484 117.41C215.717 117.453 215.949 117.49 216.185 117.518C213.839 111.212 214.025 104.243 216.703 98.0713Z"
        fill="#525763" />
    <path
        d="M265.2 98.143C262.645 92.0401 257.913 87.1046 251.923 84.2956C245.933 81.4865 239.112 81.0043 232.786 82.9428C226.461 84.8813 221.081 89.1019 217.693 94.7848C214.306 100.468 213.151 107.207 214.454 113.693C215.757 120.18 219.425 125.95 224.745 129.884C230.065 133.817 236.657 135.633 243.24 134.978C249.824 134.323 255.929 131.244 260.369 126.339C264.81 121.435 267.269 115.055 267.268 108.439C267.267 104.904 266.564 101.404 265.2 98.143ZM265.014 117.519C262.745 123.616 258.276 128.644 252.487 131.613C246.697 134.581 240.006 135.275 233.731 133.558C227.455 131.84 222.05 127.836 218.578 122.334C215.107 116.831 213.821 110.228 214.974 103.825C216.126 97.4216 219.634 91.6816 224.806 87.7347C229.978 83.7877 236.44 81.9197 242.921 82.4983C249.401 83.0769 255.43 86.0602 259.822 90.861C264.213 95.6618 266.648 101.932 266.648 108.439C266.647 111.538 266.094 114.613 265.014 117.519Z"
        fill="#525763" />
    <path
        d="M254.244 102.392H226.954C225.515 102.392 224.135 102.963 223.117 103.981C222.099 104.999 221.527 106.379 221.527 107.818C221.527 109.258 222.099 110.638 223.117 111.656C224.135 112.674 225.515 113.245 226.954 113.245H254.244C255.683 113.245 257.063 112.674 258.081 111.656C259.099 110.638 259.671 109.258 259.671 107.818C259.671 106.379 259.099 104.999 258.081 103.981C257.063 102.963 255.683 102.392 254.244 102.392Z"
        fill="#5FCAE7" />
    <path
        d="M240.601 140.378C233.31 140.381 226.31 143.237 221.098 148.335C215.886 153.433 212.876 160.368 212.712 167.657C212.547 174.946 215.241 182.009 220.218 187.337C225.195 192.665 232.058 195.834 239.341 196.166C239.636 196.182 239.934 196.191 240.232 196.191C240.356 196.197 240.476 196.197 240.601 196.197C248.003 196.197 255.102 193.257 260.336 188.023C265.57 182.789 268.51 175.69 268.51 168.288C268.51 160.885 265.57 153.787 260.336 148.552C255.102 143.318 248.003 140.378 240.601 140.378ZM254.769 191.601C250.503 194.207 245.6 195.583 240.601 195.577C240.374 195.577 240.151 195.574 239.924 195.568C239.828 195.568 239.732 195.565 239.636 195.558C233.083 195.331 226.831 192.752 222.022 188.295C217.213 183.837 214.169 177.798 213.446 171.281C212.723 164.764 214.369 158.204 218.084 152.801C221.798 147.397 227.333 143.511 233.677 141.852C240.021 140.194 246.75 140.873 252.634 143.767C258.518 146.66 263.164 151.574 265.724 157.611C268.283 163.648 268.585 170.405 266.574 176.645C264.562 182.886 260.372 188.195 254.769 191.601Z"
        fill="#525763" />
    <path
        d="M260.188 161.416H247.991C247.141 161.416 246.326 161.078 245.725 160.477C245.124 159.876 244.786 159.061 244.786 158.211C244.786 157.361 245.124 156.546 245.725 155.945C246.326 155.344 247.141 155.007 247.991 155.007H260.188C261.038 155.007 261.853 155.344 262.454 155.945C263.055 156.546 263.393 157.361 263.393 158.211C263.393 159.061 263.055 159.876 262.454 160.477C261.853 161.078 261.038 161.416 260.188 161.416Z"
        fill="#525763" />
    <path
        d="M248.803 159.838C249.701 159.838 250.429 159.11 250.429 158.211C250.429 157.313 249.701 156.585 248.803 156.585C247.905 156.585 247.177 157.313 247.177 158.211C247.177 159.11 247.905 159.838 248.803 159.838Z"
        fill="#F2F2F2" />
    <path
        d="M254.089 159.838C254.987 159.838 255.716 159.11 255.716 158.211C255.716 157.313 254.987 156.585 254.089 156.585C253.191 156.585 252.463 157.313 252.463 158.211C252.463 159.11 253.191 159.838 254.089 159.838Z"
        fill="#F2F2F2" />
    <path
        d="M259.374 159.838C260.273 159.838 261.001 159.11 261.001 158.211C261.001 157.313 260.273 156.585 259.374 156.585C258.476 156.585 257.748 157.313 257.748 158.211C257.748 159.11 258.476 159.838 259.374 159.838Z"
        fill="#5FCAE7" />
    <path
        d="M312.072 392.132C313.21 392.983 314.015 394.156 314.957 395.19C317.525 398.013 320.027 400.895 322.559 403.75C323.263 404.543 324.949 403.793 325.725 404.51C326.8 405.502 328.761 406.378 330.296 406.616C331.746 406.841 333.051 407.718 334.49 408.1C338.646 409.206 341.086 410.114 345.472 409.489C346.957 409.278 348.435 410.613 349.952 410.846C349.51 413.833 349.116 416.827 348.611 419.804C348.15 422.519 346.098 424.315 343.326 424.514C339.505 424.789 335.684 425.046 331.86 425.263C329.976 425.37 328.379 424.704 327.168 423.212C326.072 421.861 325.055 420.434 323.864 419.173C321.948 417.142 321.593 414.809 322.02 412.166C322.34 410.187 322.237 410.105 320.218 410.291C317.911 410.504 316.154 409.685 314.789 407.845C313.901 406.648 312.947 405.5 312.005 404.343C311.051 403.172 310.682 401.815 310.871 400.356C311.225 397.608 311.667 394.872 312.072 392.132Z"
        fill="#5ECAE7" />
    <path
        d="M373.849 409.745C377.619 409.593 381.388 409.45 385.158 409.286C388.223 409.152 391.286 408.935 394.353 408.866C396.641 408.814 399.091 407.354 401.386 407.624C400.817 411.886 399.845 417.207 399.078 421.435C398.69 423.57 396.828 425.174 394.584 425.354C391.225 425.625 387.859 425.797 384.501 426.062C382.946 426.183 381.621 425.704 380.474 424.72C378.587 423.102 376.723 421.456 374.874 419.794C373.357 418.431 372.788 416.717 373.107 414.699C373.367 413.049 373.603 411.397 373.849 409.745Z"
        fill="#5ECAE7" />
    <path
        d="M442.579 312.777C441.779 314.518 441.399 316.393 440.92 318.226C440.268 320.718 439.544 323.187 438.828 325.659C438.024 328.435 437.173 331.196 436.342 333.964C435.492 336.799 435.183 339.716 434.344 342.554C433.553 345.225 432.794 347.905 432 350.574C430.865 354.391 429.697 358.199 428.569 362.017C427.47 365.736 426.417 369.468 425.319 373.187C424.351 376.465 422.79 379.646 421.816 382.923C421.022 385.592 420.241 388.266 419.483 390.945C419.256 391.745 418.826 392.428 418.435 393.141C418.213 393.548 417.772 393.928 418.153 394.484C418.265 394.648 418.195 394.858 418.022 394.942C416.639 395.619 416.342 397.149 415.447 398.212C413.118 400.978 410.306 402.642 406.58 402.654C403.307 403.612 399.926 403.936 396.683 404.035C391.643 404.188 386.71 403.63 381.729 403.393C377.358 403.532 372.988 403.696 368.616 403.836C363.224 404.008 357.663 405.262 352.27 405.426C349.45 405.513 346.598 405.015 343.815 404.733C341.213 404.47 338.646 403.751 336.891 401.321C336.175 400.329 334.793 399.041 334.708 397.869C334.66 397.214 334.377 396.737 334.383 396.435C334.39 396.112 335.076 395.616 335.092 395.018C335.143 393.149 335.188 391.264 335.475 389.422C335.831 387.141 335.971 384.841 336.23 382.555C336.721 378.234 337.63 373.981 338.113 369.656C338.422 366.881 338.675 364.097 338.955 361.318C339.387 357.025 339.796 352.73 340.261 348.44C340.554 345.734 340.808 343.022 341.078 340.313C341.518 335.878 341.956 331.444 342.445 327.013C342.739 324.344 342.965 321.665 343.24 318.991C343.685 314.664 344.098 310.334 344.565 306.008C344.864 303.231 345.118 300.448 345.403 297.669C345.707 294.714 346.017 291.759 346.317 288.803C346.592 286.095 346.866 283.385 347.128 280.675C347.534 276.45 347.442 272.201 347.868 267.979C348.163 265.058 348.033 261.964 348.302 259.042C348.816 253.47 348.853 247.683 351.237 242.58C351.601 240.48 352.241 238.455 353.45 236.665C354.403 235.251 355.867 234.602 357.46 234.27C360.35 233.669 363.187 233.862 366.006 234.822C367.637 235.378 369.359 235.665 371.037 236.085C373.808 236.779 376.098 236.728 378.871 237.416C380.652 237.858 382.446 238.253 384.227 238.699C386.86 239.358 389.486 240.051 392.118 240.717C393.794 241.142 395.479 241.537 397.157 241.957C399.927 242.651 402.695 243.361 405.467 244.05C407.214 244.485 408.971 244.88 410.718 245.317C413.386 245.985 416.523 247.445 419.191 248.114C420.937 248.552 422.694 248.951 424.44 249.389C427.142 250.067 429.825 250.831 432.545 251.426C434.375 251.826 436.182 252.311 438 252.753C440.673 253.401 443.327 254.128 446 254.774C447.578 255.156 449.17 255.471 450.725 255.954C453.288 256.75 455.42 259.254 455.596 261.899C455.745 264.147 456.468 267.074 456.038 269.293C455.183 272.292 455.029 274.676 454.174 277.676C452.443 283.743 449.721 290.082 448.158 296.197C447.216 298.681 446.468 300.922 445.869 303.505C444.781 306.555 443.3 309.621 442.579 312.777Z"
        fill="#5FCAE7" />
    <path
        d="M301.747 343.665C301.391 345.778 301.334 347.668 302.206 349.473C302.525 350.133 303.058 350.561 303.795 350.518C304.568 350.472 304.663 349.746 304.784 349.19C305.13 347.599 305.393 345.984 305.271 344.35C305.173 343.052 305.132 341.717 304.509 340.53C303.982 339.525 303.441 339.522 302.805 340.468C302.116 341.494 301.815 342.65 301.747 343.665ZM321.004 358.994C320.982 359.135 320.885 359.554 320.86 359.978C320.75 361.874 320.886 363.738 321.81 365.452C322.249 366.266 322.907 367.008 323.869 366.884C324.76 366.77 324.98 365.849 325.276 365.067C325.926 363.355 325.876 361.582 325.785 359.826C325.696 358.101 325.562 356.338 324.581 354.819C323.87 353.717 323.292 353.73 322.456 354.77C321.528 355.923 321.212 357.292 321.004 358.994ZM339.662 243.505C339.139 245.65 338.758 249.56 338.465 252.412C338.08 256.173 337.371 260.15 337.011 263.914C336.665 267.537 336.319 271.161 335.993 274.785C335.664 278.446 335.313 282.105 334.973 285.764C334.62 289.564 334.257 293.364 333.888 297.163C333.652 299.59 333.442 302.019 333.212 304.447C332.865 308.105 332.544 311.766 332.189 315.425C331.834 319.082 331.497 322.743 331.165 326.402C330.829 330.098 330.456 333.79 330.125 337.485C329.793 341.182 329.427 344.874 329.084 348.568C328.749 352.193 328.404 355.816 328.074 359.441C327.733 363.172 327.368 366.9 327.02 370.63C326.671 374.359 327.179 378.097 326.812 381.825C326.573 384.252 326.689 386.286 326.447 388.712C326.294 390.245 325.86 392.212 325.523 393.807C325.251 395.09 325.194 396.385 324.667 397.6C324.002 399.134 321.788 399.497 320.622 398.263C318.972 396.517 316.971 396.085 315.353 394.308C313.213 391.957 311.014 389.871 308.875 387.518C306.45 384.851 304.451 380.587 302.087 377.868C301.276 376.935 301.416 375.579 301.045 374.439C300.255 372.005 299.742 369.5 299.475 366.969C299.311 365.408 298.985 363.705 299.036 362.121C299.127 359.268 298.835 356.196 298.939 353.344C299.017 351.194 299.414 348.863 299.492 346.713C299.573 344.495 300.257 342.779 300.341 340.561C300.424 338.375 300.546 336.192 300.638 334.007C300.725 331.929 300.798 329.85 300.873 327.771C300.954 325.517 301.033 323.263 301.107 321.009C301.2 318.157 301.275 315.304 301.379 312.451C301.457 310.302 301.582 308.153 301.662 306.004C301.762 303.256 301.83 300.508 301.926 297.761C302.003 295.577 302.111 293.394 302.189 291.209C302.289 288.356 302.363 285.503 302.467 282.651C302.546 280.501 302.66 278.353 302.746 276.203C302.829 274.16 302.897 272.116 302.97 270.072C303.053 267.784 303.133 265.494 303.216 263.206C303.292 261.126 303.376 259.048 303.447 256.969C303.539 254.258 303.45 248.308 303.849 245.643C304.28 242.764 304.725 243.057 305.84 240.317C306.056 239.784 306.444 239.576 306.945 239.437C314.318 235.538 316.014 236.342 323.524 234.252C325.503 233.701 333.211 231.354 335.192 230.811C337.085 230.291 339.594 232.927 339.839 235.21C340.162 238.211 340.224 239.899 339.662 243.505Z"
        fill="#5FCAE7" />
    <path
        d="M339.023 244.74C341.604 236.086 339.187 228.17 329.472 233.162C319.99 237.343 303.198 234.993 303.778 248.841C302.448 279.384 301.649 310 300.341 340.558C297.56 369.013 298.964 378.546 320.626 398.259C329.069 402.682 325.335 365.637 328.076 359.44C331.828 321.31 334.859 282.764 339.023 244.74ZM445.494 303.491C446.785 289.11 464.03 266.954 450.729 255.952C419.641 249.488 388.753 237.889 357.46 234.266C343.906 244.852 350.905 272.614 346.312 288.8C342.189 324.234 339.905 361.532 334.921 396.054C336.622 409.912 357.698 402.834 368.616 403.836C383.576 401.166 403.089 407.756 415.448 398.215C428.942 369.083 434.584 334.437 445.494 303.491ZM373.848 409.745C352.898 410.079 327.599 416.716 314.957 395.19C292.419 377.951 299.236 349.739 299.428 324.895C303.766 300.263 292.612 249.236 310.45 232.896C342.382 218.737 362.226 221.294 394.652 232.072C419.506 242.629 472.549 237.068 454.675 278.021C445.433 309.262 436.101 340.477 426.856 371.716C419.471 407.641 408.358 410.474 373.848 409.745Z"
        fill="#79D0E7" />
    <path
        d="M321.005 358.995C321.212 357.291 321.529 355.923 322.457 354.769C323.293 353.73 323.871 353.717 324.582 354.819C325.563 356.338 325.697 358.101 325.786 359.826C325.878 361.582 325.927 363.356 325.278 365.067C324.981 365.849 324.761 366.77 323.87 366.884C322.908 367.007 322.25 366.265 321.811 365.451C320.887 363.739 320.75 361.874 320.86 359.978C320.885 359.554 320.983 359.136 321.005 358.995Z"
        fill="#1A8DC5" />
    <path
        d="M301.747 343.665C301.815 342.65 302.116 341.494 302.805 340.468C303.441 339.522 303.982 339.525 304.509 340.53C305.132 341.717 305.173 343.052 305.271 344.35C305.393 345.984 305.13 347.599 304.784 349.19C304.663 349.746 304.568 350.472 303.795 350.518C303.058 350.561 302.525 350.133 302.206 349.473C301.334 347.668 301.391 345.778 301.747 343.665Z"
        fill="#1783BD" />
    <path fill-rule="evenodd" clip-rule="evenodd"
        d="M298.895 347.614C298.003 353.698 298.774 359.148 300.643 359.739C302.498 360.326 304.847 355.302 305.885 348.449C306.923 341.597 306.128 336.196 304.137 336.324C302.145 336.451 299.794 341.48 298.895 347.614ZM296.32 349.1C295.049 357.872 296.225 366.026 298.938 367.262C301.651 368.497 305.149 361.05 306.727 350.674C308.306 340.298 307.131 332.144 304.093 332.514C301.055 332.884 297.597 340.282 296.32 349.1Z"
        fill="#0B639E" />
    <path fill-rule="evenodd" clip-rule="evenodd"
        d="M300.653 359.686C298.798 359.101 298.004 353.696 298.904 347.563C299.796 341.478 302.147 336.449 304.139 336.322C306.13 336.194 306.925 341.595 305.887 348.447C304.842 355.242 302.508 360.271 300.653 359.686ZM300.53 360.504C298.549 359.85 297.702 354.075 298.652 347.582C299.604 341.09 302.121 335.667 304.26 335.504C306.4 335.341 307.247 341.111 306.131 348.476C305.023 355.787 302.513 361.157 300.53 360.504Z"
        fill="#0B639E" />
    <path fill-rule="evenodd" clip-rule="evenodd"
        d="M299.066 366.4C296.518 365.281 295.366 357.387 296.562 349.136C297.759 340.886 301.165 333.632 303.988 333.323C306.811 333.013 307.957 340.955 306.493 350.582C305.029 360.21 301.615 367.52 299.066 366.4ZM298.938 367.262C296.225 366.026 295.042 357.918 296.32 349.1C297.59 340.328 301.071 332.882 304.109 332.512C307.147 332.142 308.315 340.244 306.727 350.674C305.149 361.05 301.651 368.497 298.938 367.262Z"
        fill="#0B639E" />
    <path
        d="M379.594 290.412C389.671 296.007 402.281 292.545 407.759 282.679C413.238 272.812 409.512 260.278 399.435 254.683C389.359 249.087 376.749 252.549 371.27 262.415C365.791 272.282 369.518 284.816 379.594 290.412Z"
        fill="#BEDEE7" />
    <path
        d="M385.191 279.798C389.39 282.13 394.683 280.616 397.015 276.418C399.346 272.219 397.833 266.926 393.634 264.594C389.436 262.263 384.142 263.776 381.811 267.975C379.48 272.173 380.993 277.467 385.191 279.798Z"
        fill="#AC9D9D" />
    <path
        d="M387.934 271.587C389.686 275.978 388.375 280.637 385.572 284.282C382.418 288.236 377.958 290.937 372.993 291.899C367.305 293.169 361.391 292.876 355.609 292.73C350.324 292.544 345.032 292.749 339.777 293.342C319.546 295.814 300.373 304.684 284.897 317.869C269.447 331.031 257.303 348.966 252.467 368.814C250.074 378.634 249.701 390.456 256.736 398.557C262.343 405.015 272.852 408.697 280.451 403.441C288.615 397.796 288.109 386.073 283.346 378.376C277.172 368.397 264.446 366.116 253.578 366.711C241.614 367.367 230.041 371.415 218.007 371.275C212.551 371.283 207.164 370.061 202.245 367.699C197.777 365.443 193.787 362.345 190.494 358.575C183.681 350.72 179.497 340.929 178.53 330.576C177.397 318.764 180.583 306.826 185.802 296.296C197.48 272.737 218.48 256.293 237.583 239.039C247.653 230.122 256.92 220.338 265.278 209.8C273.574 199.151 280.783 187.697 286.795 175.61C292.103 164.918 297.128 153.445 297.814 141.369C298.418 130.75 294.829 119.791 286.44 112.873C282.685 109.705 278.04 107.782 273.145 107.368C271.474 107.236 271.54 109.845 273.203 109.977C283.572 110.797 291.311 119.899 294.037 129.386C297.221 140.464 294.006 152.428 289.785 162.77C279.639 187.201 264.656 209.327 245.737 227.818C227.423 245.848 205.973 260.959 191.131 282.261C184.358 291.982 178.982 302.934 176.789 314.644C174.727 325.014 175.693 335.759 179.571 345.595C183.275 354.762 189.488 363.056 197.964 368.303C207.479 374.192 218.467 374.595 229.267 373.01C240.833 371.312 252.557 367.802 264.325 369.784C269.69 370.688 275.208 372.784 278.964 376.867C282.165 380.41 284.019 384.964 284.204 389.735C284.357 394.17 282.786 398.737 278.978 401.296C275.397 403.701 270.97 403.784 266.976 402.436C262.76 400.983 259.178 398.115 256.839 394.318C254.127 389.845 253.335 384.425 253.532 379.273C253.926 368.999 257.863 358.695 262.599 349.678C267.247 340.883 273.177 332.828 280.196 325.779C294.316 311.476 312.282 301.576 331.917 297.281C336.844 296.232 341.85 295.589 346.883 295.358C352.373 295.109 357.857 295.519 363.347 295.456C368.749 295.394 374.345 294.842 379.309 292.56C383.55 290.596 387.061 287.34 389.336 283.258C390.422 281.402 391.085 279.329 391.276 277.188C391.468 275.046 391.183 272.889 390.442 270.87C389.825 269.324 387.312 270.027 387.934 271.587Z"
        fill="#525763" />
    <path
        d="M23.261 106.548C27.8234 106.548 31.522 102.843 31.522 98.2738C31.522 93.7043 27.8234 90 23.261 90C18.6986 90 15 93.7043 15 98.2738C15 102.843 18.6986 106.548 23.261 106.548Z"
        fill="#D8BD14" />
    <path d="M23 97L23 341L115 341" stroke="#D8BD14" />
    <rect x="82" y="332" width="143" height="18" rx="9" fill="#D8BD14" />
    <path
        d="M92.0689 344V337.455H93.4528V340.155H96.2621V337.455H97.6428V344H96.2621V341.296H93.4528V344H92.0689ZM99.4137 344V337.455H103.824V338.596H100.798V340.155H103.597V341.296H100.798V342.859H103.837V344H99.4137ZM105.554 344V337.455H106.938V342.859H109.744V344H105.554ZM111.291 337.455H112.998L114.8 341.852H114.877L116.679 337.455H118.386V344H117.044V339.74H116.989L115.296 343.968H114.381L112.688 339.724H112.633V344H111.291V337.455ZM128.644 339.746H127.245C127.219 339.565 127.167 339.404 127.088 339.263C127.009 339.121 126.908 338.999 126.784 338.899C126.661 338.799 126.518 338.722 126.356 338.669C126.196 338.616 126.023 338.589 125.835 338.589C125.496 338.589 125.201 338.673 124.95 338.842C124.698 339.008 124.504 339.251 124.365 339.57C124.227 339.888 124.157 340.273 124.157 340.727C124.157 341.194 124.227 341.586 124.365 341.903C124.506 342.221 124.702 342.461 124.953 342.623C125.205 342.784 125.495 342.865 125.826 342.865C126.011 342.865 126.182 342.841 126.34 342.792C126.5 342.743 126.642 342.672 126.765 342.578C126.889 342.482 126.991 342.366 127.072 342.229C127.155 342.093 127.213 341.937 127.245 341.763L128.644 341.769C128.608 342.07 128.518 342.359 128.373 342.638C128.23 342.915 128.037 343.164 127.794 343.383C127.554 343.6 127.266 343.773 126.931 343.901C126.599 344.027 126.223 344.089 125.803 344.089C125.219 344.089 124.697 343.957 124.237 343.693C123.779 343.429 123.417 343.047 123.151 342.546C122.886 342.045 122.754 341.439 122.754 340.727C122.754 340.013 122.888 339.406 123.157 338.906C123.425 338.405 123.79 338.023 124.25 337.761C124.71 337.497 125.228 337.365 125.803 337.365C126.182 337.365 126.534 337.418 126.858 337.525C127.184 337.631 127.473 337.787 127.724 337.991C127.975 338.194 128.18 338.442 128.338 338.736C128.497 339.03 128.6 339.367 128.644 339.746ZM130.267 344V337.455H131.651V340.155H134.46V337.455H135.841V344H134.46V341.296H131.651V344H130.267ZM138.74 344H137.257L139.517 337.455H141.3L143.556 344H142.073L140.434 338.95H140.383L138.74 344ZM138.647 341.427H142.15V342.507H138.647V341.427ZM144.974 344V337.455H147.557C148.051 337.455 148.473 337.543 148.822 337.72C149.174 337.895 149.441 338.143 149.624 338.464C149.81 338.784 149.902 339.16 149.902 339.593C149.902 340.027 149.809 340.401 149.621 340.714C149.434 341.026 149.162 341.264 148.806 341.43C148.452 341.597 148.024 341.68 147.521 341.68H145.792V340.567H147.298C147.562 340.567 147.781 340.531 147.956 340.459C148.131 340.386 148.261 340.278 148.346 340.133C148.433 339.988 148.477 339.808 148.477 339.593C148.477 339.375 148.433 339.192 148.346 339.043C148.261 338.894 148.13 338.781 147.953 338.704C147.778 338.625 147.558 338.586 147.291 338.586H146.358V344H144.974ZM148.509 341.021L150.136 344H148.608L147.016 341.021H148.509ZM151.261 338.596V337.455H156.637V338.596H154.633V344H153.265V338.596H151.261ZM160.865 344V337.455H165.276V338.596H162.249V340.155H165.049V341.296H162.249V342.859H165.288V344H160.865ZM168.303 337.455L169.623 339.685H169.675L171.001 337.455H172.564L170.566 340.727L172.608 344H171.017L169.675 341.766H169.623L168.281 344H166.696L168.744 340.727L166.734 337.455H168.303ZM174.069 344V337.455H176.652C177.148 337.455 177.571 337.549 177.921 337.739C178.27 337.926 178.536 338.187 178.72 338.522C178.905 338.854 178.998 339.238 178.998 339.673C178.998 340.107 178.904 340.491 178.716 340.823C178.529 341.156 178.257 341.414 177.901 341.6C177.548 341.785 177.12 341.878 176.617 341.878H174.971V340.769H176.393C176.659 340.769 176.879 340.723 177.051 340.631C177.226 340.538 177.356 340.409 177.441 340.245C177.529 340.078 177.572 339.888 177.572 339.673C177.572 339.455 177.529 339.266 177.441 339.104C177.356 338.94 177.226 338.813 177.051 338.723C176.877 338.632 176.655 338.586 176.387 338.586H175.453V344H174.069ZM180.527 344V337.455H181.91V342.859H184.717V344H180.527ZM192.023 340.727C192.023 341.441 191.888 342.048 191.617 342.549C191.349 343.05 190.982 343.432 190.518 343.696C190.055 343.958 189.535 344.089 188.958 344.089C188.376 344.089 187.854 343.957 187.392 343.693C186.93 343.429 186.564 343.047 186.296 342.546C186.027 342.045 185.893 341.439 185.893 340.727C185.893 340.013 186.027 339.406 186.296 338.906C186.564 338.405 186.93 338.023 187.392 337.761C187.854 337.497 188.376 337.365 188.958 337.365C189.535 337.365 190.055 337.497 190.518 337.761C190.982 338.023 191.349 338.405 191.617 338.906C191.888 339.406 192.023 340.013 192.023 340.727ZM190.62 340.727C190.62 340.265 190.551 339.875 190.412 339.558C190.276 339.24 190.083 338.999 189.834 338.835C189.584 338.671 189.293 338.589 188.958 338.589C188.624 338.589 188.332 338.671 188.082 338.835C187.833 338.999 187.639 339.24 187.501 339.558C187.364 339.875 187.296 340.265 187.296 340.727C187.296 341.19 187.364 341.58 187.501 341.897C187.639 342.214 187.833 342.455 188.082 342.619C188.332 342.783 188.624 342.865 188.958 342.865C189.293 342.865 189.584 342.783 189.834 342.619C190.083 342.455 190.276 342.214 190.412 341.897C190.551 341.58 190.62 341.19 190.62 340.727ZM193.678 344V337.455H196.261C196.755 337.455 197.177 337.543 197.526 337.72C197.878 337.895 198.145 338.143 198.328 338.464C198.514 338.784 198.606 339.16 198.606 339.593C198.606 340.027 198.513 340.401 198.325 340.714C198.138 341.026 197.866 341.264 197.51 341.43C197.157 341.597 196.728 341.68 196.225 341.68H194.496V340.567H196.002C196.266 340.567 196.485 340.531 196.66 340.459C196.835 340.386 196.965 340.278 197.05 340.133C197.137 339.988 197.181 339.808 197.181 339.593C197.181 339.375 197.137 339.192 197.05 339.043C196.965 338.894 196.834 338.781 196.657 338.704C196.482 338.625 196.262 338.586 195.995 338.586H195.062V344H193.678ZM197.213 341.021L198.84 344H197.312L195.72 341.021H197.213ZM200.214 344V337.455H204.625V338.596H201.598V340.155H204.398V341.296H201.598V342.859H204.638V344H200.214ZM206.355 344V337.455H208.938C209.432 337.455 209.854 337.543 210.203 337.72C210.555 337.895 210.822 338.143 211.005 338.464C211.191 338.784 211.283 339.16 211.283 339.593C211.283 340.027 211.19 340.401 211.002 340.714C210.815 341.026 210.543 341.264 210.187 341.43C209.834 341.597 209.405 341.68 208.902 341.68H207.173V340.567H208.679C208.943 340.567 209.162 340.531 209.337 340.459C209.512 340.386 209.642 340.278 209.727 340.133C209.814 339.988 209.858 339.808 209.858 339.593C209.858 339.375 209.814 339.192 209.727 339.043C209.642 338.894 209.511 338.781 209.334 338.704C209.159 338.625 208.939 338.586 208.672 338.586H207.739V344H206.355ZM209.89 341.021L211.517 344H209.989L208.397 341.021H209.89ZM214.493 337.455L214.368 342.038H213.198L213.07 337.455H214.493ZM213.783 344.083C213.572 344.083 213.391 344.009 213.24 343.859C213.089 343.708 213.014 343.527 213.016 343.316C213.014 343.107 213.089 342.928 213.24 342.779C213.391 342.63 213.572 342.555 213.783 342.555C213.986 342.555 214.163 342.63 214.317 342.779C214.47 342.928 214.548 343.107 214.55 343.316C214.548 343.457 214.511 343.586 214.438 343.703C214.368 343.818 214.275 343.911 214.16 343.981C214.045 344.049 213.919 344.083 213.783 344.083Z"
        fill="#141414" />
    <path
        d="M296.261 94.5477C300.823 94.5477 304.522 90.8434 304.522 86.2738C304.522 81.7043 300.823 78 296.261 78C291.699 78 288 81.7043 288 86.2738C288 90.8434 291.699 94.5477 296.261 94.5477Z"
        fill="#D8BD14" />
    <rect x="394" width="34" height="18" rx="9" fill="#D8BD14" />
    <path
        d="M405.697 12H404.214L406.474 5.45455H408.257L410.513 12H409.031L407.391 6.95028H407.34L405.697 12ZM405.604 9.4272H409.107V10.5075H405.604V9.4272ZM413.315 5.45455V12H411.931V5.45455H413.315ZM416.685 5.45455L416.56 10.0376H415.391L415.263 5.45455H416.685ZM415.975 12.0831C415.765 12.0831 415.583 12.0085 415.432 11.8594C415.281 11.7081 415.206 11.527 415.208 11.3161C415.206 11.1072 415.281 10.9283 415.432 10.7791C415.583 10.63 415.765 10.5554 415.975 10.5554C416.178 10.5554 416.356 10.63 416.509 10.7791C416.663 10.9283 416.74 11.1072 416.743 11.3161C416.74 11.4567 416.703 11.5856 416.631 11.7028C416.56 11.8178 416.468 11.9105 416.353 11.9808C416.238 12.049 416.112 12.0831 415.975 12.0831Z"
        fill="#141414" />
    <path d="M296 86L296 9L394 9" stroke="#D8BD14" />
    <defs>
        <linearGradient id="paint0_linear_42119_3052" x1="17.6189" y1="36.9284" x2="26.7025"
            y2="47.8335" gradientUnits="userSpaceOnUse">
            <stop stop-color="#3C9AE8" />
            <stop offset="1" stop-color="#84E2D8" />
        </linearGradient>
    </defs>
</svg>