<svg width="554" height="438" viewBox="0 0 554 438" fill="none" xmlns="http://www.w3.org/2000/svg">
  <path
    d="M310 423C310 423.555 310.506 424 311.136 424H552.864C553.494 424 554 423.555 554 423C554 422.445 553.494 422 552.864 422H311.136C310.506 422 310 422.445 310 423Z"
    fill="#323232"
  />
  <path
    d="M205.324 343.206H6.67612C4.90613 343.203 3.20922 342.498 1.95765 341.245C0.706084 339.991 0.00205267 338.292 0 336.519V174.517C0.00205526 172.744 0.706085 171.044 1.95765 169.791C3.20922 168.537 4.90614 167.832 6.67612 167.83H205.324C207.094 167.832 208.791 168.537 210.042 169.791C211.294 171.044 211.998 172.744 212 174.517V336.519C211.998 338.292 211.294 339.991 210.042 341.245C208.791 342.498 207.094 343.203 205.324 343.206Z"
    fill="white"
    fill-opacity="0.2"
  />
  <path
    d="M11.1754 172.588C9.47042 172.59 7.83584 173.269 6.63026 174.477C5.42468 175.684 4.74655 177.321 4.74463 179.029V332.008C4.74665 333.715 5.42482 335.352 6.63039 336.56C7.83597 337.767 9.4705 338.446 11.1754 338.448H147.142C163.077 338.43 178.355 332.082 189.623 320.797C200.89 309.511 207.229 294.21 207.247 278.25V179.029C207.245 177.321 206.567 175.684 205.361 174.477C204.155 173.269 202.521 172.59 200.816 172.588L11.1754 172.588Z"
    fill="#1E2636"
  />
  <line x1="4.49414" y1="189.92" x2="206.67" y2="189.92" stroke="#DEDEDE" stroke-opacity="0.3" />
  <line x1="26.4531" y1="338.684" x2="26.4531" y2="190.422" stroke="#DEDEDE" stroke-opacity="0.3" />
  <line x1="83.0771" y1="338.684" x2="83.0771" y2="190.422" stroke="#DEDEDE" stroke-opacity="0.3" />
  <rect x="9.38184" y="196.055" width="11.3502" height="11.3502" rx="4" fill="#CBCBCB" fill-opacity="0.3" />
  <rect x="24.7554" y="176.299" width="67.0996" height="9.12033" rx="4" fill="#525763" />
  <rect x="167.423" y="176.299" width="34.527" height="9.12033" rx="4" fill="#525763" />
  <rect x="9.38184" y="226.702" width="11.3502" height="11.3502" rx="4" fill="#CBCBCB" fill-opacity="0.3" />
  <rect x="9.38184" y="211.377" width="11.3502" height="11.3502" rx="4" fill="#CBCBCB" fill-opacity="0.3" />
  <path
    fill-rule="evenodd"
    clip-rule="evenodd"
    d="M14.07 185.453C16.6166 185.453 18.681 183.389 18.681 180.842C18.681 178.296 16.6166 176.231 14.07 176.231C11.5234 176.231 9.45898 178.296 9.45898 180.842C9.45898 183.389 11.5234 185.453 14.07 185.453ZM13.5624 183.405C15.2601 183.405 16.6364 182.028 16.6364 180.331C16.6364 178.633 15.2601 177.257 13.5624 177.257C11.8646 177.257 10.4883 178.633 10.4883 180.331C10.4883 182.028 11.8646 183.405 13.5624 183.405Z"
    fill="url(#paint0_linear_42209_3152)"
  />
  <path
    opacity="0.6"
    d="M62.3419 211.787H37.0868C36.7734 211.787 36.4729 211.444 36.2513 210.833C36.0298 210.222 35.9053 209.394 35.9053 208.53C35.9053 207.666 36.0298 206.837 36.2513 206.226C36.4729 205.616 36.7734 205.272 37.0868 205.272H62.3419C62.6553 205.272 62.9558 205.616 63.1774 206.226C63.3989 206.837 63.5234 207.666 63.5234 208.53C63.5234 209.394 63.3989 210.222 63.1774 210.833C62.9558 211.444 62.6553 211.787 62.3419 211.787V211.787Z"
    fill="#374560"
  />
  <path
    opacity="0.6"
    d="M66.5884 223.855H36.9888C36.6812 223.854 36.3864 223.51 36.169 222.9C35.9517 222.289 35.8296 221.461 35.8296 220.598C35.8296 219.735 35.9517 218.907 36.169 218.296C36.3864 217.686 36.6812 217.342 36.9888 217.341H66.5884C66.741 217.34 66.8921 217.424 67.0331 217.587C67.1741 217.751 67.3023 217.991 67.4102 218.293C67.5182 218.596 67.6038 218.955 67.6623 219.351C67.7207 219.746 67.7508 220.17 67.7508 220.598C67.7508 221.026 67.7207 221.45 67.6623 221.846C67.6038 222.241 67.5182 222.6 67.4102 222.903C67.3023 223.205 67.1741 223.445 67.0331 223.609C66.8921 223.772 66.741 223.856 66.5884 223.855V223.855Z"
    fill="#374560"
  />
  <path
    opacity="0.6"
    d="M55.7327 235.756H36.7914C36.5564 235.756 36.331 235.413 36.1648 234.802C35.9986 234.191 35.9053 233.362 35.9053 232.498C35.9053 231.635 35.9986 230.806 36.1648 230.195C36.331 229.584 36.5564 229.241 36.7914 229.241H55.7327C55.9678 229.241 56.1932 229.584 56.3593 230.195C56.5255 230.806 56.6189 231.635 56.6189 232.498C56.6189 233.362 56.5255 234.191 56.3593 234.802C56.1932 235.413 55.9678 235.756 55.7327 235.756V235.756Z"
    fill="#374560"
  />
  <path
    opacity="0.6"
    d="M66.5096 259.806H37.0587C36.7526 259.804 36.4593 259.461 36.243 258.85C36.0267 258.239 35.9053 257.411 35.9053 256.548C35.9053 255.685 36.0267 254.857 36.243 254.247C36.4593 253.636 36.7526 253.292 37.0587 253.291H66.5096C66.6614 253.29 66.8118 253.374 66.9521 253.538C67.0924 253.701 67.2199 253.941 67.3273 254.243C67.4347 254.546 67.5199 254.905 67.5781 255.301C67.6362 255.696 67.6661 256.12 67.6661 256.548C67.6661 256.976 67.6362 257.4 67.5781 257.796C67.5199 258.191 67.4347 258.551 67.3273 258.853C67.2199 259.156 67.0924 259.395 66.9521 259.559C66.8118 259.722 66.6614 259.806 66.5096 259.806V259.806Z"
    fill="#374560"
  />
  <path
    opacity="0.6"
    d="M66.5096 247.454H37.0587C36.7526 247.453 36.4593 247.109 36.243 246.498C36.0267 245.888 35.9053 245.06 35.9053 244.197C35.9053 243.334 36.0267 242.506 36.243 241.895C36.4593 241.284 36.7526 240.941 37.0587 240.939H66.5096C66.6614 240.939 66.8118 241.023 66.9521 241.186C67.0924 241.35 67.2199 241.589 67.3273 241.892C67.4347 242.194 67.5199 242.554 67.5781 242.949C67.6362 243.345 67.6661 243.769 67.6661 244.197C67.6661 244.625 67.6362 245.049 67.5781 245.444C67.5199 245.84 67.4347 246.199 67.3273 246.502C67.2199 246.804 67.0924 247.044 66.9521 247.207C66.8118 247.371 66.6614 247.455 66.5096 247.454V247.454Z"
    fill="#12E0A2"
  />
  <path
    d="M440.163 265.117C440.354 264.307 440.721 263.548 441.237 262.895C441.753 262.242 442.406 261.71 443.15 261.336C443.894 260.962 444.711 260.756 445.543 260.733C446.375 260.709 447.202 260.868 447.967 261.199L461.647 246.284L464.203 256.485L450.819 269.084C450.179 270.331 449.104 271.3 447.797 271.807C446.49 272.315 445.042 272.325 443.728 271.836C442.414 271.346 441.325 270.392 440.668 269.154C440.011 267.915 439.831 266.479 440.162 265.117L440.163 265.117Z"
    fill="#FEB8B8"
  />
  <path d="M469.545 413.897H461.187L457.21 381.655H469.55L469.545 413.897Z" fill="#FEB8B8" />
  <path
    d="M471.677 411.168H455.214C452.432 411.168 449.764 412.273 447.796 414.241C445.829 416.208 444.723 418.876 444.723 421.658V422H471.675L471.677 411.168Z"
    fill="#1E2636"
  />
  <path d="M517.547 405.617L509.733 408.583L494.573 379.851L506.107 375.474L517.547 405.617Z" fill="#FEB8B8" />
  <path
    d="M518.573 402.308L503.183 408.149C500.582 409.137 498.48 411.117 497.339 413.654C496.197 416.192 496.111 419.079 497.098 421.68L497.221 421.998L522.42 412.434L518.573 402.308Z"
    fill="#1E2636"
  />
  <path
    d="M490.031 306.653L496.958 343.928C496.958 343.928 515.76 396.375 514.441 397.694C513.121 399.014 494.979 403.632 495.968 400.663C496.958 397.695 474.198 353.164 474.198 353.164L490.031 306.653Z"
    fill="#1E2636"
  />
  <path
    d="M461.94 238.917C461.94 238.917 447.957 257.196 449.789 258.195C451.622 259.193 458.72 264.479 458.72 264.479L465.942 244.659L461.94 238.917Z"
    fill="#E4E4E4"
  />
  <path
    d="M458.035 257.367C458.035 257.367 455.726 274.52 456.716 278.148C457.705 281.777 457.045 384.692 456.386 386.342C455.727 387.991 453.746 393.598 454.737 396.237C455.728 398.876 469.25 405.473 471.23 403.164C473.209 400.855 487.724 316.742 487.724 316.742C487.724 316.742 508.175 265.943 503.557 260.996C498.939 256.049 458.035 257.367 458.035 257.367Z"
    fill="#1E2636"
  />
  <path
    d="M487.711 147.13C496.638 147.13 503.874 139.893 503.874 130.967C503.874 122.04 496.638 114.804 487.711 114.804C478.784 114.804 471.548 122.04 471.548 130.967C471.548 139.893 478.784 147.13 487.711 147.13Z"
    fill="#FEB8B8"
  />
  <path
    d="M470.822 167.495C471.229 164.878 472.531 162.483 474.505 160.718L477.452 151.708H494.771L499.597 159.281C504.815 161.529 508.683 165.093 508.83 169.295C509.628 172.085 506.19 260.666 505.202 263.964C504.911 264.924 500.965 265.437 495.418 265.665C490.331 265.873 483.903 265.843 477.731 265.702C467.512 265.464 457.986 264.916 456.383 264.623C452.757 263.964 470.463 169.577 470.822 167.495Z"
    fill="#E4E4E4"
  />
  <path
    d="M486.134 284.96C486.835 284.511 487.43 283.915 487.876 283.212C488.322 282.509 488.609 281.717 488.716 280.891C488.823 280.066 488.747 279.227 488.495 278.433C488.242 277.64 487.819 276.911 487.255 276.299L496.813 258.461L486.34 259.417L478.869 276.21C477.903 277.226 477.343 278.561 477.296 279.963C477.249 281.364 477.718 282.734 478.614 283.813C479.509 284.892 480.77 285.604 482.156 285.816C483.542 286.027 484.958 285.722 486.134 284.959L486.134 284.96Z"
    fill="#FEB8B8"
  />
  <path
    d="M487.723 157.751C487.723 157.751 472.549 164.018 478.157 179.853C483.764 195.687 490.032 214.488 490.032 214.488C490.032 214.488 482.115 257.04 482.115 258.691C482.115 260.343 477.167 269.247 479.146 270.896C481.125 272.546 494.319 275.844 494.649 274.195C495.66 270.395 496.871 266.651 498.277 262.98C498.937 261.66 514.44 220.428 512.459 216.799C511.003 214.129 509.725 189.663 509.151 176.931C509.019 173.298 507.943 169.761 506.028 166.67C504.114 163.579 501.428 161.04 498.235 159.302C495.163 157.668 491.582 156.786 487.723 157.751Z"
    fill="#E4E4E4"
  />
  <path
    d="M493.932 138.19C492.704 137.624 491.282 137.507 489.954 137.155C485.206 135.895 482.025 131.207 483.041 126.964C483.228 126.424 483.312 125.855 483.29 125.284C483.113 124.027 481.64 123.216 480.229 122.929C478.818 122.641 477.315 122.683 475.966 122.219C474.99 121.874 474.125 121.271 473.462 120.475C472.799 119.68 472.363 118.72 472.199 117.697C471.99 115.71 472.497 113.714 473.628 112.067L474.138 113.349C474.895 112.802 475.474 112.045 475.804 111.172C476.358 111.239 476.887 111.441 477.343 111.762C477.8 112.082 478.169 112.511 478.42 113.009C479.238 113.431 479.356 111.7 480.262 111.444C480.654 111.401 481.051 111.487 481.39 111.69C483.212 112.432 485.328 111.797 487.284 111.386C490.679 110.677 494.184 110.673 497.58 111.376C499.829 111.844 502.056 112.66 503.665 114.111C504.9 115.323 505.869 116.778 506.512 118.384C508.238 122.179 509.378 126.286 508.808 130.339C508.29 133.74 506.689 136.883 504.243 139.302C502.94 140.614 498.687 145.19 496.355 144.411C493.422 143.428 497.384 139.785 493.932 138.19Z"
    fill="#1E2636"
  />
  <path
    d="M363.829 413.355C364.398 413.781 364.801 414.367 365.272 414.884C366.556 416.296 367.807 417.737 369.074 419.165C369.426 419.561 370.269 419.186 370.657 419.545C371.194 420.041 372.175 420.479 372.942 420.598C373.668 420.71 374.321 421.149 375.04 421.34C377.118 421.893 378.338 422.347 380.532 422.035C381.274 421.929 382.014 422.597 382.773 422.713C382.551 424.207 382.354 425.705 382.102 427.193C381.871 428.551 380.845 429.449 379.459 429.549C377.548 429.686 375.637 429.815 373.725 429.923C372.783 429.976 371.984 429.644 371.378 428.898C370.83 428.222 370.322 427.508 369.726 426.877C368.768 425.862 368.591 424.695 368.804 423.373C368.964 422.384 368.912 422.343 367.903 422.436C366.749 422.542 365.87 422.133 365.188 421.213C364.744 420.614 364.266 420.04 363.795 419.461C363.318 418.876 363.134 418.197 363.228 417.467C363.405 416.093 363.627 414.725 363.829 413.355Z"
    fill="#5ECAE7"
  />
  <path
    d="M394.723 422.162C396.609 422.086 398.494 422.014 400.379 421.932C401.912 421.865 403.443 421.757 404.977 421.722C406.121 421.696 407.347 420.966 408.494 421.101C408.21 423.232 407.723 425.893 407.34 428.008C407.146 429.075 406.215 429.878 405.092 429.968C403.413 430.103 401.73 430.189 400.05 430.322C399.273 430.382 398.61 430.143 398.036 429.651C397.092 428.841 396.16 428.019 395.236 427.187C394.477 426.505 394.193 425.648 394.352 424.639C394.482 423.814 394.6 422.988 394.723 422.162Z"
    fill="#5ECAE7"
  />
  <path
    d="M429.094 373.67C428.694 374.54 428.504 375.478 428.264 376.395C427.939 377.641 427.576 378.876 427.218 380.112C426.817 381.5 426.391 382.881 425.975 384.265C425.55 385.683 425.396 387.142 424.976 388.561C424.581 389.896 424.201 391.237 423.804 392.572C423.236 394.48 422.652 396.384 422.088 398.294C421.538 400.154 421.012 402.02 420.463 403.88C419.979 405.519 419.198 407.11 418.711 408.749C418.314 410.083 417.923 411.421 417.544 412.761C417.431 413.16 417.216 413.502 417.02 413.859C416.909 414.062 416.688 414.252 416.879 414.53C416.935 414.612 416.9 414.717 416.813 414.759C416.122 415.098 415.973 415.863 415.526 416.394C414.361 417.778 412.955 418.61 411.091 418.616C409.455 419.095 407.764 419.257 406.142 419.306C403.622 419.383 401.155 419.104 398.664 418.985C396.478 419.055 394.293 419.137 392.107 419.207C389.41 419.293 386.629 419.92 383.932 420.002C382.522 420.046 381.095 419.797 379.704 419.656C378.402 419.524 377.119 419.164 376.241 417.949C375.883 417.453 375.192 416.809 375.149 416.223C375.126 415.895 374.984 415.657 374.987 415.506C374.991 415.344 375.333 415.096 375.342 414.797C375.367 413.863 375.389 412.92 375.533 411.999C375.711 410.858 375.781 409.708 375.911 408.565C376.156 406.404 376.611 404.277 376.852 402.114C377.007 400.727 377.134 399.334 377.273 397.944C377.489 395.798 377.694 393.65 377.927 391.504C378.073 390.151 378.2 388.795 378.335 387.44C378.555 385.222 378.774 383.005 379.019 380.789C379.166 379.454 379.279 378.114 379.416 376.777C379.639 374.613 379.845 372.448 380.079 370.285C380.229 368.896 380.355 367.504 380.498 366.115C380.65 364.637 380.805 363.159 380.955 361.681C381.093 360.326 381.23 358.971 381.36 357.616C381.564 355.503 381.518 353.379 381.731 351.267C381.878 349.806 381.813 348.259 381.948 346.798C382.205 344.011 382.223 341.117 383.415 338.565C383.597 337.515 383.918 336.502 384.522 335.607C384.999 334.9 385.731 334.576 386.527 334.41C387.973 334.109 389.391 334.205 390.801 334.686C391.617 334.964 392.478 335.107 393.317 335.317C394.703 335.664 395.848 335.639 397.235 335.983C398.126 336.204 399.023 336.401 399.913 336.624C401.23 336.954 402.543 337.301 403.859 337.634C404.698 337.846 405.54 338.044 406.379 338.254C407.765 338.601 409.149 338.956 410.535 339.301C411.409 339.518 412.287 339.715 413.161 339.934C414.495 340.268 416.064 340.998 417.398 341.333C418.272 341.552 419.15 341.752 420.023 341.97C421.375 342.309 422.716 342.692 424.076 342.989C424.992 343.189 425.895 343.432 426.805 343.652C428.141 343.977 429.468 344.34 430.805 344.663C431.594 344.854 432.39 345.012 433.168 345.254C434.45 345.652 435.516 346.904 435.604 348.226C435.678 349.351 436.04 350.815 435.825 351.924C435.397 353.424 435.321 354.616 434.893 356.116C434.027 359.15 432.666 362.32 431.884 365.378C431.413 366.62 431.039 367.741 430.739 369.033C430.195 370.558 429.455 372.091 429.094 373.67Z"
    fill="#5FCAE7"
  />
  <path
    d="M358.666 389.116C358.488 390.173 358.459 391.118 358.895 392.02C359.055 392.351 359.322 392.565 359.69 392.543C360.076 392.52 360.124 392.157 360.185 391.879C360.358 391.083 360.489 390.276 360.428 389.458C360.379 388.809 360.359 388.142 360.047 387.548C359.783 387.046 359.513 387.044 359.195 387.518C358.85 388.03 358.7 388.608 358.666 389.116ZM368.296 396.782C368.285 396.853 368.236 397.062 368.224 397.274C368.169 398.222 368.237 399.155 368.699 400.011C368.919 400.418 369.248 400.789 369.729 400.728C370.174 400.671 370.284 400.21 370.433 399.819C370.757 398.963 370.733 398.076 370.687 397.198C370.642 396.335 370.575 395.454 370.085 394.694C369.729 394.143 369.44 394.149 369.022 394.669C368.558 395.246 368.4 395.931 368.296 396.782ZM377.627 339.028C377.365 340.1 377.174 342.055 377.028 343.482C376.835 345.363 376.481 347.351 376.301 349.234C376.128 351.046 375.955 352.858 375.792 354.67C375.627 356.501 375.452 358.331 375.282 360.161C375.105 362.061 374.924 363.961 374.739 365.861C374.621 367.075 374.516 368.29 374.401 369.504C374.228 371.333 374.067 373.164 373.889 374.993C373.712 376.823 373.544 378.653 373.377 380.483C373.209 382.331 373.023 384.178 372.857 386.026C372.691 387.874 372.508 389.721 372.337 391.568C372.169 393.381 371.997 395.193 371.831 397.005C371.661 398.871 371.478 400.735 371.304 402.601C371.13 404.466 371.384 406.335 371.201 408.2C371.081 409.413 371.139 410.43 371.018 411.644C370.942 412.41 370.725 413.394 370.556 414.191C370.42 414.833 370.392 415.481 370.128 416.088C369.795 416.855 368.688 417.037 368.105 416.42C367.28 415.547 366.279 415.331 365.47 414.442C364.4 413.266 363.3 412.223 362.231 411.046C361.018 409.713 360.018 407.58 358.836 406.22C358.43 405.754 358.5 405.076 358.315 404.506C357.92 403.288 357.663 402.036 357.53 400.77C357.448 399.989 357.285 399.138 357.31 398.346C357.356 396.919 357.209 395.383 357.262 393.956C357.301 392.881 357.499 391.716 357.538 390.641C357.579 389.531 357.921 388.673 357.963 387.564C358.004 386.471 358.065 385.379 358.111 384.286C358.155 383.247 358.191 382.207 358.229 381.168C358.269 380.041 358.309 378.914 358.346 377.786C358.392 376.36 358.43 374.933 358.482 373.507C358.521 372.432 358.583 371.357 358.623 370.282C358.673 368.908 358.707 367.534 358.755 366.16C358.794 365.068 358.848 363.976 358.887 362.883C358.937 361.457 358.974 360.03 359.026 358.604C359.065 357.529 359.122 356.454 359.166 355.379C359.207 354.358 359.241 353.336 359.278 352.313C359.319 351.169 359.359 350.024 359.401 348.88C359.438 347.84 359.48 346.8 359.516 345.761C359.562 344.405 359.518 341.43 359.717 340.097C359.933 338.657 360.155 338.804 360.713 337.433C360.821 337.167 361.015 337.063 361.265 336.993C364.952 335.044 365.801 335.445 369.556 334.4C370.546 334.125 374.4 332.951 375.391 332.679C376.338 332.42 377.593 333.737 377.715 334.879C377.876 336.38 377.908 337.224 377.627 339.028Z"
    fill="#5FCAE7"
  />
  <path
    d="M377.307 339.645C378.598 335.318 377.389 331.359 372.531 333.855C367.789 335.946 359.392 334.771 359.682 341.696C359.017 356.971 358.617 372.281 357.963 387.563C356.572 401.792 357.274 406.56 368.107 416.418C372.329 418.63 370.462 400.104 371.833 397.005C373.709 377.937 375.225 358.661 377.307 339.645ZM430.551 369.026C431.197 361.834 439.821 350.754 433.17 345.252C417.623 342.02 402.176 336.219 386.527 334.408C379.749 339.701 383.249 353.585 380.952 361.679C378.89 379.399 377.748 398.051 375.255 415.316C376.106 422.245 386.646 418.705 392.106 419.206C399.587 417.871 409.346 421.167 415.526 416.396C422.274 401.828 425.096 384.501 430.551 369.026V369.026ZM394.723 422.162C384.246 422.329 371.594 425.648 365.272 414.883C354.001 406.262 357.41 392.154 357.506 379.73C359.676 367.411 354.098 341.894 363.018 333.722C378.987 326.641 388.911 327.92 405.126 333.31C417.555 338.59 444.081 335.809 435.143 356.289C430.521 371.912 425.854 387.522 421.231 403.144C417.538 421.11 411.981 422.527 394.723 422.162"
    fill="#79D0E7"
  />
  <path
    d="M368.297 396.782C368.4 395.931 368.559 395.246 369.023 394.669C369.441 394.15 369.73 394.143 370.085 394.694C370.576 395.454 370.643 396.335 370.688 397.198C370.733 398.076 370.758 398.963 370.433 399.819C370.285 400.21 370.175 400.671 369.729 400.728C369.248 400.789 368.919 400.418 368.7 400.011C368.238 399.155 368.17 398.223 368.225 397.274C368.237 397.062 368.286 396.853 368.297 396.782Z"
    fill="#1A8DC5"
  />
  <path
    d="M358.666 389.116C358.7 388.608 358.851 388.03 359.195 387.517C359.513 387.044 359.783 387.045 360.047 387.548C360.359 388.142 360.379 388.809 360.428 389.458C360.489 390.275 360.358 391.083 360.185 391.879C360.124 392.157 360.077 392.52 359.69 392.543C359.322 392.564 359.055 392.35 358.896 392.02C358.459 391.118 358.488 390.172 358.666 389.116Z"
    fill="#1783BD"
  />
  <path
    fill-rule="evenodd"
    clip-rule="evenodd"
    d="M357.24 391.09C356.794 394.133 357.179 396.858 358.114 397.154C359.042 397.447 360.216 394.935 360.735 391.508C361.255 388.081 360.857 385.381 359.861 385.444C358.865 385.508 357.69 388.023 357.24 391.09ZM355.952 391.833C355.317 396.22 355.905 400.298 357.262 400.916C358.618 401.534 360.367 397.809 361.157 392.621C361.946 387.432 361.358 383.354 359.839 383.539C358.32 383.724 356.591 387.423 355.952 391.833"
    fill="#0B639E"
  />
  <path
    fill-rule="evenodd"
    clip-rule="evenodd"
    d="M358.119 397.128C357.191 396.836 356.794 394.133 357.244 391.066C357.69 388.023 358.866 385.508 359.862 385.444C360.858 385.381 361.255 388.081 360.736 391.508C360.214 394.906 359.046 397.421 358.119 397.128ZM358.058 397.537C357.067 397.21 356.643 394.322 357.118 391.075C357.594 387.829 358.853 385.117 359.923 385.035C360.993 384.954 361.417 387.839 360.858 391.523C360.304 395.179 359.049 397.864 358.058 397.537Z"
    fill="#0B639E"
  />
  <path
    fill-rule="evenodd"
    clip-rule="evenodd"
    d="M357.326 400.485C356.051 399.925 355.475 395.978 356.073 391.852C356.672 387.726 358.375 384.098 359.787 383.943C361.199 383.789 361.772 387.76 361.04 392.575C360.308 397.389 358.6 401.045 357.326 400.485ZM357.262 400.916C355.905 400.298 355.313 396.243 355.952 391.833C356.587 387.447 358.328 383.723 359.847 383.538C361.366 383.353 361.95 387.404 361.157 392.621C360.367 397.809 358.618 401.534 357.262 400.916"
    fill="#0B639E"
  />
  <path
    d="M305.661 8.08947C308.403 6.76906 311.597 6.76906 314.339 8.08947L382.281 40.8085C385.023 42.1289 387.014 44.6261 387.691 47.593L404.471 121.112C405.149 124.079 404.438 127.193 402.54 129.572L355.523 188.53C353.626 190.909 350.748 192.295 347.705 192.295H272.295C269.252 192.295 266.374 190.909 264.477 188.53L217.46 129.572C215.562 127.193 214.851 124.079 215.529 121.112L232.309 47.593C232.986 44.6261 234.977 42.1289 237.719 40.8085L305.661 8.08947Z"
    stroke="#333333"
    stroke-width="6"
  />
  <path
    d="M232 45.0053C176.359 45.0053 150.483 45.0053 144.5 45.0053C136.087 44.8137 119.26 49.7182 119.26 70.8686C119.26 92.0191 119.26 109.76 119.26 139.263C119.821 144.627 116.343 154.206 102.433 154.206C88.5224 154.206 75.3226 154.206 70.4615 154.206C65.9744 153.44 57 155.126 57 168"
    stroke="#5FCAE7"
    stroke-opacity="0.5"
    stroke-width="1.5"
    stroke-dasharray="2 4"
  />
  <path
    d="M212 304.996C256.513 304.996 277.213 304.996 282 304.996C288.731 305.154 302.192 301.087 302.192 283.548C302.192 266.009 302.192 272.297 302.192 247.831C301.743 243.382 301.525 235.439 312.654 235.439C323.782 235.439 339.342 235.439 343.231 235.439C354 235.439 352 223.5 352 203"
    stroke="#5FCAE7"
    stroke-opacity="0.5"
    stroke-width="1.5"
    stroke-dasharray="2 4"
  />
  <circle cx="234.5" cy="44.5" r="7.5" fill="#1E2636" />
  <circle cx="309.5" cy="7.5" r="7.5" fill="#1E2636" />
  <circle cx="385.5" cy="44.5" r="7.5" fill="#1E2636" />
  <circle cx="269.5" cy="192.5" r="7.5" fill="#1E2636" />
  <circle cx="351.5" cy="192.5" r="7.5" fill="#1E2636" />
  <circle cx="216.5" cy="124.5" r="7.5" fill="#1E2636" />
  <circle cx="403.5" cy="124.5" r="7.5" fill="#1E2636" />
  <path
    d="M295.656 87.6938L295.729 87.7612L295.062 88.422C294.579 88.8984 294.105 89.3838 293.64 89.8782C292.747 90.8355 291.954 91.9097 291.877 92.2153H296.001C296.094 92.2198 296.188 92.2021 296.274 92.1638C296.36 92.1256 296.435 92.0677 296.494 91.9951C299.753 88.4405 304.283 86.2892 309.119 85.9994C311.917 85.8225 314.72 86.2699 317.321 87.309C319.922 88.3483 322.256 89.9525 324.149 92.004C324.195 92.068 324.255 92.1205 324.325 92.1572C324.396 92.1939 324.473 92.2137 324.552 92.2153L327.249 92.2108H328.585C328.657 92.2028 328.728 92.1893 328.798 92.1703C327.827 90.752 326.694 89.449 325.422 88.287L325.481 88.2287C326.788 87.2039 327.894 85.9502 328.744 84.5297C329.356 83.5724 329.818 82.5252 330.103 81.4285C330.213 81.0031 330.247 80.562 330.203 80.1251C330.144 79.5318 329.813 79.033 329.016 79.1274C328.857 79.1448 328.7 79.1794 328.549 79.2308C328.002 79.4274 327.495 79.7213 327.054 80.0982C325.156 81.6555 323.713 83.6884 322.876 85.9859L322.812 86.1208L322.785 86.1703C322.54 86.0353 322.296 85.8915 322.06 85.7522C321.507 85.4376 320.973 85.1229 320.411 84.8443C319.595 84.4398 318.761 84.0802 317.905 83.7657C316.462 83.2534 314.971 82.8816 313.455 82.6555C313.179 82.6106 312.902 82.5656 312.626 82.5117C313.217 80.3366 313.276 78.0531 312.798 75.8509C312.669 75.2074 312.444 74.5866 312.132 74.0081C311.966 73.6642 311.711 73.3697 311.393 73.1542C311.243 73.0522 311.065 72.9985 310.882 73C310.7 73.0018 310.523 73.0586 310.374 73.1631C310.224 73.2642 310.088 73.3852 309.97 73.5227C309.662 73.902 309.427 74.3349 309.277 74.7991C308.969 75.6845 308.779 76.606 308.711 77.5408C308.556 79.1578 308.684 80.7891 309.087 82.3634L309.105 82.4668C305.474 82.6657 301.946 83.7393 298.828 85.595L298.787 85.5635C298.775 85.5548 298.764 85.5442 298.756 85.532C298.092 83.9359 297.14 82.4736 295.946 81.2173C295.316 80.4925 294.557 79.8879 293.708 79.433C293.477 79.3135 293.234 79.22 292.983 79.1542C292.181 78.9611 291.632 79.3746 291.578 80.1881L291.573 80.2915V80.3634C291.542 80.9926 291.7 81.5859 291.909 82.1701C292.661 84.2555 293.898 86.0174 295.497 87.5455L295.656 87.6938ZM325.422 119.717C326.551 118.683 327.57 117.537 328.458 116.301L328.44 116.225H327.108C326.202 116.225 325.296 116.229 324.389 116.216C324.247 116.21 324.106 116.234 323.974 116.288C323.843 116.341 323.725 116.423 323.628 116.526C319.323 120.697 314.176 122.495 308.199 121.919C305.998 121.694 303.858 121.063 301.891 120.059C300.032 119.132 298.343 117.903 296.893 116.423C296.835 116.356 296.762 116.303 296.681 116.268C296.599 116.233 296.511 116.217 296.422 116.22L293.631 116.225H292.421C292.324 116.224 292.227 116.232 292.131 116.247C293.173 117.699 294.383 119.02 295.742 120.189C295.73 120.217 295.715 120.245 295.697 120.27L295.584 120.373L295.52 120.436C294.081 121.772 292.936 123.39 292.158 125.187C291.894 125.759 291.71 126.364 291.61 126.985C291.519 127.425 291.551 127.882 291.7 128.306C291.755 128.45 291.847 128.577 291.966 128.675C292.085 128.774 292.228 128.84 292.38 128.868C292.661 128.913 292.946 128.886 293.209 128.778C293.768 128.582 294.285 128.287 294.736 127.906C296.44 126.499 297.786 124.715 298.656 122.692L298.746 122.495L298.796 122.387C301.911 124.249 305.437 125.329 309.069 125.533L309.082 125.578C309.091 125.6 309.096 125.614 309.091 125.623C308.856 126.477 308.718 127.354 308.679 128.239C308.607 129.353 308.665 130.472 308.851 131.569C308.996 132.378 309.196 133.169 309.585 133.893C309.721 134.149 309.889 134.387 310.084 134.603C310.573 135.133 311.176 135.129 311.683 134.612C311.799 134.5 311.898 134.373 311.978 134.234C312.177 133.879 312.354 133.515 312.508 133.138C312.825 132.225 313.016 131.272 313.07 130.306C313.212 128.708 313.071 127.097 312.653 125.546L312.635 125.447C313.849 125.313 315.05 125.088 316.228 124.773C317.384 124.45 318.517 124.041 319.613 123.546C320.713 123.037 321.773 122.448 322.785 121.785L322.826 121.883L322.876 122.018C323.709 124.319 325.155 126.351 327.058 127.897C327.421 128.185 327.806 128.427 328.223 128.63C328.495 128.76 328.78 128.845 329.084 128.881C329.304 128.92 329.53 128.877 329.72 128.761C329.911 128.645 330.052 128.464 330.117 128.252C330.167 128.101 330.197 127.944 330.207 127.785C330.246 127.168 330.152 126.551 329.931 125.973C329.097 123.602 327.618 121.505 325.658 119.915L325.422 119.717ZM322.903 97.4019L323.229 97.4065C323.469 97.4109 323.705 97.4198 323.936 97.3974C324.317 97.3614 324.589 97.4964 324.865 97.7525C326.07 98.8536 327.285 99.9458 328.499 101.033L329.695 102.112C329.745 102.157 329.804 102.202 329.863 102.261L329.963 102.346L330.053 102.265L330.235 102.108L335.219 97.6042C335.288 97.5342 335.37 97.4795 335.462 97.4439C335.553 97.4082 335.651 97.3924 335.749 97.3974C336.166 97.4134 336.583 97.415 337 97.4019V110.661C335.832 110.73 334.661 110.733 333.493 110.67V103.955L333.425 103.923L329.967 107.052L326.483 103.937L326.415 103.959V110.697H322.935C322.871 110.472 322.844 98.1569 322.907 97.4019H322.903ZM294.251 97.4154H290.794V102.117C289.36 102.181 287.923 102.175 286.489 102.099V97.4244H283V110.67C283.29 110.737 286.244 110.733 286.507 110.652V105.654H290.794V108.993C290.794 109.56 290.789 110.13 290.803 110.701H294.265C294.337 110.377 294.324 97.6356 294.251 97.4154ZM298.398 110.692V97.4604C298.601 97.3974 306.205 97.3705 306.703 97.4378V100.256L306.635 100.265H306.599C306.521 100.273 306.442 100.277 306.364 100.278H301.923V102.476H306.155V105.398H301.959C301.883 106.22 301.873 107.046 301.927 107.87L302.032 107.874C302.109 107.883 302.186 107.888 302.267 107.888H306.703V110.697L298.398 110.692ZM310.682 97.4154C310.619 97.6626 310.605 110.342 310.668 110.697H318.97V107.227H314.506L314.266 107.213L314.13 107.204V97.4198L310.682 97.4154Z"
    fill="#407786"
  />
  <path
    d="M251.261 110.548C255.823 110.548 259.522 106.843 259.522 102.274C259.522 97.7043 255.823 94 251.261 94C246.699 94 243 97.7043 243 102.274C243 106.843 246.699 110.548 251.261 110.548Z"
    fill="#D8BD14"
  />
  <path d="M251 101L251 73L195 73" stroke="#D8BD14" />
  <rect x="27" y="64" width="168" height="18" rx="9" fill="#D8BD14" />
  <path
    d="M38.0689 76V69.4545H39.4528V72.1552H42.2621V69.4545H43.6428V76H42.2621V73.2962H39.4528V76H38.0689ZM45.4137 76V69.4545H49.8242V70.5955H46.7976V72.1552H49.5973V73.2962H46.7976V74.859H49.837V76H45.4137ZM51.5545 76V69.4545H52.9384V74.859H55.7445V76H51.5545ZM57.2909 69.4545H58.9976L60.8002 73.8523H60.8769L62.6794 69.4545H64.3861V76H63.0438V71.7397H62.9894L61.2955 75.968H60.3815L58.6876 71.7237H58.6333V76H57.2909V69.4545ZM68.8693 76V69.4545H71.4517C71.946 69.4545 72.3679 69.543 72.7173 69.7198C73.0689 69.8945 73.3363 70.1428 73.5195 70.4645C73.7049 70.7841 73.7975 71.1602 73.7975 71.5927C73.7975 72.0273 73.7038 72.4013 73.5163 72.7145C73.3288 73.0256 73.0571 73.2642 72.7013 73.4304C72.3476 73.5966 71.9194 73.6797 71.4165 73.6797H69.6875V72.5675H71.1928C71.457 72.5675 71.6765 72.5312 71.8512 72.4588C72.0259 72.3864 72.1559 72.2777 72.2411 72.1328C72.3284 71.9879 72.3721 71.8079 72.3721 71.5927C72.3721 71.3754 72.3284 71.1921 72.2411 71.043C72.1559 70.8938 72.0248 70.7809 71.848 70.7042C71.6733 70.6254 71.4527 70.5859 71.1864 70.5859H70.2532V76H68.8693ZM72.4041 73.0213L74.0309 76H72.5032L70.9115 73.0213H72.4041ZM75.4055 76V69.4545H79.816V70.5955H76.7894V72.1552H79.5891V73.2962H76.7894V74.859H79.8288V76H75.4055ZM81.5463 76V69.4545H82.9302V74.859H85.7363V76H81.5463ZM87.2827 76V69.4545H91.6932V70.5955H88.6666V72.1552H91.4663V73.2962H88.6666V74.859H91.706V76H87.2827ZM94.5517 76H93.0687L95.3283 69.4545H97.1117L99.3681 76H97.8851L96.2455 70.9503H96.1944L94.5517 76ZM94.459 73.4272H97.9618V74.5075H94.459V73.4272ZM104.187 71.337C104.162 71.0792 104.052 70.8789 103.858 70.7362C103.664 70.5934 103.401 70.522 103.069 70.522C102.843 70.522 102.652 70.554 102.497 70.6179C102.341 70.6797 102.222 70.766 102.139 70.8768C102.058 70.9876 102.017 71.1133 102.017 71.2539C102.013 71.3711 102.037 71.4734 102.091 71.5607C102.146 71.6481 102.222 71.7237 102.318 71.7876C102.413 71.8494 102.524 71.9038 102.65 71.9506C102.776 71.9954 102.91 72.0337 103.053 72.0657L103.641 72.2063C103.926 72.2702 104.188 72.3555 104.427 72.462C104.666 72.5685 104.872 72.6996 105.047 72.8551C105.222 73.0107 105.357 73.1939 105.453 73.4048C105.551 73.6158 105.601 73.8576 105.603 74.1303C105.601 74.5309 105.499 74.8782 105.296 75.1722C105.096 75.4641 104.806 75.6911 104.427 75.853C104.05 76.0128 103.595 76.0927 103.062 76.0927C102.534 76.0927 102.074 76.0117 101.682 75.8498C101.292 75.6879 100.987 75.4482 100.768 75.1307C100.55 74.8111 100.436 74.4158 100.426 73.945H101.765C101.78 74.1644 101.842 74.3477 101.953 74.4947C102.066 74.6396 102.216 74.7493 102.404 74.8239C102.594 74.8963 102.808 74.9325 103.046 74.9325C103.281 74.9325 103.484 74.8984 103.657 74.8303C103.831 74.7621 103.967 74.6673 104.063 74.5458C104.158 74.4244 104.206 74.2848 104.206 74.1271C104.206 73.9801 104.163 73.8565 104.075 73.7564C103.99 73.6562 103.864 73.571 103.698 73.5007C103.534 73.4304 103.333 73.3665 103.094 73.3089L102.381 73.13C101.83 72.9957 101.394 72.7859 101.074 72.5004C100.755 72.2148 100.596 71.8303 100.598 71.3466C100.596 70.9503 100.701 70.604 100.915 70.3079C101.13 70.0117 101.425 69.7805 101.8 69.6143C102.175 69.4482 102.601 69.3651 103.078 69.3651C103.564 69.3651 103.988 69.4482 104.35 69.6143C104.715 69.7805 104.998 70.0117 105.2 70.3079C105.403 70.604 105.507 70.9471 105.514 71.337H104.187ZM107.164 76V69.4545H111.574V70.5955H108.548V72.1552H111.348V73.2962H108.548V74.859H111.587V76H107.164ZM116.855 71.337C116.83 71.0792 116.72 70.8789 116.526 70.7362C116.332 70.5934 116.069 70.522 115.737 70.522C115.511 70.522 115.32 70.554 115.165 70.6179C115.009 70.6797 114.89 70.766 114.807 70.8768C114.726 70.9876 114.685 71.1133 114.685 71.2539C114.681 71.3711 114.706 71.4734 114.759 71.5607C114.814 71.6481 114.89 71.7237 114.986 71.7876C115.082 71.8494 115.192 71.9038 115.318 71.9506C115.444 71.9954 115.578 72.0337 115.721 72.0657L116.309 72.2063C116.594 72.2702 116.857 72.3555 117.095 72.462C117.334 72.5685 117.54 72.6996 117.715 72.8551C117.89 73.0107 118.025 73.1939 118.121 73.4048C118.219 73.6158 118.269 73.8576 118.271 74.1303C118.269 74.5309 118.167 74.8782 117.964 75.1722C117.764 75.4641 117.474 75.6911 117.095 75.853C116.718 76.0128 116.263 76.0927 115.73 76.0927C115.202 76.0927 114.742 76.0117 114.35 75.8498C113.96 75.6879 113.655 75.4482 113.436 75.1307C113.218 74.8111 113.104 74.4158 113.094 73.945H114.433C114.448 74.1644 114.511 74.3477 114.621 74.4947C114.734 74.6396 114.885 74.7493 115.072 74.8239C115.262 74.8963 115.476 74.9325 115.714 74.9325C115.949 74.9325 116.152 74.8984 116.325 74.8303C116.5 74.7621 116.635 74.6673 116.731 74.5458C116.827 74.4244 116.875 74.2848 116.875 74.1271C116.875 73.9801 116.831 73.8565 116.744 73.7564C116.658 73.6562 116.533 73.571 116.366 73.5007C116.202 73.4304 116.001 73.3665 115.762 73.3089L115.05 73.13C114.498 72.9957 114.062 72.7859 113.743 72.5004C113.423 72.2148 113.264 71.8303 113.266 71.3466C113.264 70.9503 113.37 70.604 113.583 70.3079C113.798 70.0117 114.093 69.7805 114.468 69.6143C114.843 69.4482 115.269 69.3651 115.746 69.3651C116.232 69.3651 116.656 69.4482 117.018 69.6143C117.383 69.7805 117.666 70.0117 117.869 70.3079C118.071 70.604 118.175 70.9471 118.182 71.337H116.855ZM123.929 69.4545V76H122.545V69.4545H123.929ZM131.172 69.4545V76H129.977L127.129 71.8803H127.081V76H125.698V69.4545H126.912L129.737 73.571H129.795V69.4545H131.172ZM141.434 71.7461H140.034C140.009 71.565 139.956 71.4041 139.878 71.2635C139.799 71.1207 139.697 70.9993 139.574 70.8991C139.45 70.799 139.308 70.7223 139.146 70.669C138.986 70.6158 138.812 70.5891 138.625 70.5891C138.286 70.5891 137.991 70.6733 137.739 70.8416C137.488 71.0078 137.293 71.2507 137.155 71.5703C137.016 71.8878 136.947 72.2734 136.947 72.7273C136.947 73.1939 137.016 73.5859 137.155 73.9034C137.295 74.2209 137.491 74.4606 137.743 74.6225C137.994 74.7844 138.285 74.8654 138.615 74.8654C138.8 74.8654 138.972 74.8409 139.13 74.7919C139.289 74.7429 139.431 74.6715 139.555 74.5778C139.678 74.4819 139.781 74.3658 139.862 74.2294C139.945 74.093 140.002 73.9375 140.034 73.7628L141.434 73.7692C141.398 74.0696 141.307 74.3594 141.162 74.6385C141.02 74.9155 140.827 75.1637 140.584 75.3832C140.343 75.6005 140.055 75.7731 139.721 75.9009C139.389 76.0266 139.012 76.0895 138.593 76.0895C138.009 76.0895 137.487 75.9574 137.027 75.6932C136.569 75.429 136.206 75.0465 135.94 74.5458C135.676 74.0451 135.544 73.4389 135.544 72.7273C135.544 72.0135 135.678 71.4062 135.946 70.9055C136.215 70.4048 136.579 70.0234 137.039 69.7614C137.5 69.4972 138.017 69.3651 138.593 69.3651C138.972 69.3651 139.324 69.4183 139.647 69.5249C139.973 69.6314 140.262 69.7869 140.514 69.9915C140.765 70.1939 140.969 70.4421 141.127 70.7362C141.287 71.0302 141.389 71.3668 141.434 71.7461ZM143.056 76V69.4545H144.44V74.859H147.246V76H143.056ZM152.836 69.4545H154.22V73.7053C154.22 74.1825 154.106 74.6001 153.878 74.9581C153.652 75.3161 153.335 75.5952 152.928 75.7955C152.521 75.9936 152.047 76.0927 151.506 76.0927C150.963 76.0927 150.488 75.9936 150.081 75.7955C149.674 75.5952 149.357 75.3161 149.132 74.9581C148.906 74.6001 148.793 74.1825 148.793 73.7053V69.4545H150.177V73.587C150.177 73.8363 150.231 74.0579 150.34 74.2518C150.45 74.4457 150.606 74.598 150.806 74.7088C151.007 74.8196 151.24 74.875 151.506 74.875C151.775 74.875 152.008 74.8196 152.206 74.7088C152.406 74.598 152.561 74.4457 152.67 74.2518C152.78 74.0579 152.836 73.8363 152.836 73.587V69.4545ZM159.539 71.337C159.513 71.0792 159.404 70.8789 159.21 70.7362C159.016 70.5934 158.753 70.522 158.42 70.522C158.195 70.522 158.004 70.554 157.848 70.6179C157.693 70.6797 157.573 70.766 157.49 70.8768C157.409 70.9876 157.369 71.1133 157.369 71.2539C157.365 71.3711 157.389 71.4734 157.442 71.5607C157.498 71.6481 157.573 71.7237 157.669 71.7876C157.765 71.8494 157.876 71.9038 158.002 71.9506C158.127 71.9954 158.262 72.0337 158.404 72.0657L158.992 72.2063C159.278 72.2702 159.54 72.3555 159.779 72.462C160.017 72.5685 160.224 72.6996 160.399 72.8551C160.573 73.0107 160.709 73.1939 160.805 73.4048C160.903 73.6158 160.953 73.8576 160.955 74.1303C160.953 74.5309 160.85 74.8782 160.648 75.1722C160.448 75.4641 160.158 75.6911 159.779 75.853C159.402 76.0128 158.947 76.0927 158.414 76.0927C157.886 76.0927 157.425 76.0117 157.033 75.8498C156.643 75.6879 156.339 75.4482 156.119 75.1307C155.902 74.8111 155.788 74.4158 155.777 73.945H157.116C157.131 74.1644 157.194 74.3477 157.305 74.4947C157.418 74.6396 157.568 74.7493 157.756 74.8239C157.945 74.8963 158.159 74.9325 158.398 74.9325C158.632 74.9325 158.836 74.8984 159.008 74.8303C159.183 74.7621 159.318 74.6673 159.414 74.5458C159.51 74.4244 159.558 74.2848 159.558 74.1271C159.558 73.9801 159.515 73.8565 159.427 73.7564C159.342 73.6562 159.216 73.571 159.05 73.5007C158.886 73.4304 158.685 73.3665 158.446 73.3089L157.733 73.13C157.181 72.9957 156.746 72.7859 156.426 72.5004C156.106 72.2148 155.948 71.8303 155.95 71.3466C155.948 70.9503 156.053 70.604 156.266 70.3079C156.481 70.0117 156.777 69.7805 157.152 69.6143C157.527 69.4482 157.953 69.3651 158.43 69.3651C158.916 69.3651 159.34 69.4482 159.702 69.6143C160.066 69.7805 160.35 70.0117 160.552 70.3079C160.755 70.604 160.859 70.9471 160.865 71.337H159.539ZM162.266 70.5955V69.4545H167.642V70.5955H165.638V76H164.27V70.5955H162.266ZM169.157 76V69.4545H173.568V70.5955H170.541V72.1552H173.341V73.2962H170.541V74.859H173.581V76H169.157ZM175.298 76V69.4545H177.881C178.375 69.4545 178.797 69.543 179.146 69.7198C179.498 69.8945 179.765 70.1428 179.948 70.4645C180.134 70.7841 180.226 71.1602 180.226 71.5927C180.226 72.0273 180.133 72.4013 179.945 72.7145C179.758 73.0256 179.486 73.2642 179.13 73.4304C178.776 73.5966 178.348 73.6797 177.845 73.6797H176.116V72.5675H177.622C177.886 72.5675 178.105 72.5312 178.28 72.4588C178.455 72.3864 178.585 72.2777 178.67 72.1328C178.757 71.9879 178.801 71.8079 178.801 71.5927C178.801 71.3754 178.757 71.1921 178.67 71.043C178.585 70.8938 178.454 70.7809 178.277 70.7042C178.102 70.6254 177.882 70.5859 177.615 70.5859H176.682V76H175.298ZM178.833 73.0213L180.46 76H178.932L177.34 73.0213H178.833ZM183.436 69.4545L183.311 74.0376H182.141L182.013 69.4545H183.436ZM182.726 76.0831C182.515 76.0831 182.334 76.0085 182.183 75.8594C182.031 75.7081 181.957 75.527 181.959 75.3161C181.957 75.1072 182.031 74.9283 182.183 74.7791C182.334 74.63 182.515 74.5554 182.726 74.5554C182.929 74.5554 183.106 74.63 183.26 74.7791C183.413 74.9283 183.491 75.1072 183.493 75.3161C183.491 75.4567 183.454 75.5856 183.381 75.7028C183.311 75.8178 183.218 75.9105 183.103 75.9808C182.988 76.049 182.862 76.0831 182.726 76.0831Z"
    fill="#141414"
  />
  <path
    d="M68 231C64.1344 231 61 234.134 61 238C61 241.866 64.1344 245 68 245C71.8656 245 75 241.866 75 238C75 234.134 71.8656 231 68 231ZM71.0234 235.714L67.7328 240.277C67.6868 240.341 67.6262 240.393 67.5559 240.429C67.4857 240.465 67.4079 240.484 67.3289 240.484C67.2499 240.484 67.1721 240.465 67.1019 240.429C67.0316 240.393 66.971 240.341 66.925 240.277L64.9766 237.577C64.9172 237.494 64.9766 237.378 65.0781 237.378H65.8109C65.9703 237.378 66.1219 237.455 66.2156 237.586L67.3281 239.13L69.7844 235.723C69.8781 235.594 70.0281 235.516 70.1891 235.516H70.9219C71.0234 235.516 71.0828 235.631 71.0234 235.714V235.714Z"
    fill="#179677"
  />
  <path
    d="M52.261 267.548C56.8234 267.548 60.522 263.843 60.522 259.274C60.522 254.704 56.8234 251 52.261 251C47.6986 251 44 254.704 44 259.274C44 263.843 47.6986 267.548 52.261 267.548Z"
    fill="#D8BD14"
  />
  <rect x="170" y="381" width="129" height="18" rx="9" fill="#D8BD14" />
  <path
    d="M180.751 386.455L182.333 391.428H182.394L183.979 386.455H185.513L183.257 393H181.474L179.214 386.455H180.751ZM187.189 393H185.706L187.966 386.455H189.749L192.006 393H190.523L188.883 387.95H188.832L187.189 393ZM187.097 390.427H190.6V391.507H187.097V390.427ZM193.424 393V386.455H194.807V391.859H197.614V393H193.424ZM200.544 386.455V393H199.16V386.455H200.544ZM204.633 393H202.313V386.455H204.652C205.31 386.455 205.877 386.586 206.352 386.848C206.827 387.108 207.193 387.482 207.449 387.969C207.706 388.457 207.835 389.041 207.835 389.721C207.835 390.403 207.706 390.989 207.449 391.479C207.193 391.969 206.825 392.345 206.346 392.607C205.869 392.869 205.298 393 204.633 393ZM203.696 391.814H204.575C204.984 391.814 205.329 391.742 205.608 391.597C205.889 391.45 206.1 391.223 206.24 390.916C206.383 390.607 206.455 390.209 206.455 389.721C206.455 389.237 206.383 388.842 206.24 388.535C206.1 388.228 205.89 388.002 205.611 387.858C205.332 387.713 204.988 387.64 204.579 387.64H203.696V391.814ZM210.249 393H208.766L211.026 386.455H212.809L215.066 393H213.583L211.943 387.95H211.892L210.249 393ZM210.157 390.427H213.66V391.507H210.157V390.427ZM215.435 387.596V386.455H220.81V387.596H218.806V393H217.438V387.596H215.435ZM223.709 386.455V393H222.326V386.455H223.709ZM231.493 389.727C231.493 390.441 231.358 391.048 231.087 391.549C230.819 392.05 230.452 392.432 229.988 392.696C229.525 392.958 229.005 393.089 228.428 393.089C227.846 393.089 227.324 392.957 226.862 392.693C226.4 392.429 226.034 392.047 225.766 391.546C225.497 391.045 225.363 390.439 225.363 389.727C225.363 389.013 225.497 388.406 225.766 387.906C226.034 387.405 226.4 387.023 226.862 386.761C227.324 386.497 227.846 386.365 228.428 386.365C229.005 386.365 229.525 386.497 229.988 386.761C230.452 387.023 230.819 387.405 231.087 387.906C231.358 388.406 231.493 389.013 231.493 389.727ZM230.09 389.727C230.09 389.265 230.021 388.875 229.882 388.558C229.746 388.24 229.553 387.999 229.304 387.835C229.054 387.671 228.762 387.589 228.428 387.589C228.093 387.589 227.802 387.671 227.552 387.835C227.303 387.999 227.109 388.24 226.971 388.558C226.834 388.875 226.766 389.265 226.766 389.727C226.766 390.19 226.834 390.58 226.971 390.897C227.109 391.214 227.303 391.455 227.552 391.619C227.802 391.783 228.093 391.865 228.428 391.865C228.762 391.865 229.054 391.783 229.304 391.619C229.553 391.455 229.746 391.214 229.882 390.897C230.021 390.58 230.09 390.19 230.09 389.727ZM238.623 386.455V393H237.428L234.58 388.88H234.532V393H233.148V386.455H234.363L237.188 390.571H237.245V386.455H238.623ZM243.109 393V386.455H245.692C246.188 386.455 246.611 386.549 246.96 386.739C247.31 386.926 247.576 387.187 247.759 387.522C247.945 387.854 248.038 388.238 248.038 388.673C248.038 389.107 247.944 389.491 247.756 389.823C247.569 390.156 247.297 390.414 246.941 390.6C246.588 390.785 246.159 390.878 245.656 390.878H244.011V389.769H245.433C245.699 389.769 245.919 389.723 246.091 389.631C246.266 389.538 246.396 389.409 246.481 389.245C246.568 389.078 246.612 388.888 246.612 388.673C246.612 388.455 246.568 388.266 246.481 388.104C246.396 387.94 246.266 387.813 246.091 387.723C245.916 387.632 245.695 387.586 245.426 387.586H244.493V393H243.109ZM249.566 393V386.455H250.95V391.859H253.756V393H249.566ZM259.346 386.455H260.73V390.705C260.73 391.183 260.616 391.6 260.388 391.958C260.162 392.316 259.845 392.595 259.438 392.795C259.032 392.994 258.557 393.093 258.016 393.093C257.473 393.093 256.998 392.994 256.591 392.795C256.184 392.595 255.867 392.316 255.642 391.958C255.416 391.6 255.303 391.183 255.303 390.705V386.455H256.687V390.587C256.687 390.836 256.741 391.058 256.85 391.252C256.961 391.446 257.116 391.598 257.316 391.709C257.517 391.82 257.75 391.875 258.016 391.875C258.285 391.875 258.518 391.82 258.716 391.709C258.916 391.598 259.071 391.446 259.18 391.252C259.29 391.058 259.346 390.836 259.346 390.587V386.455ZM266.838 388.57C266.794 388.415 266.731 388.277 266.65 388.158C266.569 388.037 266.47 387.934 266.353 387.851C266.238 387.766 266.106 387.701 265.956 387.656C265.809 387.612 265.646 387.589 265.467 387.589C265.133 387.589 264.839 387.672 264.585 387.838C264.334 388.005 264.138 388.246 263.997 388.564C263.857 388.879 263.786 389.265 263.786 389.721C263.786 390.177 263.856 390.565 263.994 390.884C264.132 391.204 264.329 391.448 264.582 391.616C264.836 391.782 265.135 391.865 265.48 391.865C265.793 391.865 266.061 391.81 266.282 391.699C266.506 391.586 266.677 391.428 266.794 391.223C266.913 391.018 266.973 390.777 266.973 390.498L267.254 390.539H265.566V389.497H268.305V390.322C268.305 390.897 268.184 391.391 267.941 391.805C267.698 392.216 267.364 392.533 266.938 392.757C266.511 392.979 266.023 393.089 265.474 393.089C264.86 393.089 264.321 392.954 263.857 392.684C263.392 392.411 263.03 392.024 262.77 391.523C262.512 391.021 262.383 390.424 262.383 389.734C262.383 389.203 262.46 388.73 262.613 388.315C262.769 387.897 262.986 387.543 263.265 387.254C263.544 386.964 263.869 386.743 264.24 386.592C264.611 386.441 265.012 386.365 265.445 386.365C265.816 386.365 266.161 386.419 266.481 386.528C266.8 386.635 267.083 386.786 267.331 386.982C267.58 387.178 267.783 387.411 267.941 387.682C268.099 387.95 268.2 388.246 268.245 388.57H266.838ZM271.359 386.455V393H269.975V386.455H271.359ZM278.602 386.455V393H277.407L274.559 388.88H274.511V393H273.127V386.455H274.342L277.167 390.571H277.225V386.455H278.602ZM283.926 388.337C283.901 388.079 283.791 387.879 283.597 387.736C283.403 387.593 283.14 387.522 282.808 387.522C282.582 387.522 282.391 387.554 282.236 387.618C282.08 387.68 281.961 387.766 281.878 387.877C281.797 387.988 281.756 388.113 281.756 388.254C281.752 388.371 281.776 388.473 281.83 388.561C281.885 388.648 281.961 388.724 282.057 388.788C282.153 388.849 282.263 388.904 282.389 388.951C282.515 388.995 282.649 389.034 282.792 389.066L283.38 389.206C283.665 389.27 283.927 389.355 284.166 389.462C284.405 389.569 284.611 389.7 284.786 389.855C284.961 390.011 285.096 390.194 285.192 390.405C285.29 390.616 285.34 390.858 285.342 391.13C285.34 391.531 285.238 391.878 285.035 392.172C284.835 392.464 284.545 392.691 284.166 392.853C283.789 393.013 283.334 393.093 282.801 393.093C282.273 393.093 281.813 393.012 281.421 392.85C281.031 392.688 280.726 392.448 280.507 392.131C280.289 391.811 280.175 391.416 280.165 390.945H281.504C281.519 391.164 281.582 391.348 281.692 391.495C281.805 391.64 281.955 391.749 282.143 391.824C282.333 391.896 282.547 391.933 282.785 391.933C283.02 391.933 283.223 391.898 283.396 391.83C283.571 391.762 283.706 391.667 283.802 391.546C283.898 391.424 283.946 391.285 283.946 391.127C283.946 390.98 283.902 390.857 283.814 390.756C283.729 390.656 283.604 390.571 283.437 390.501C283.273 390.43 283.072 390.366 282.833 390.309L282.121 390.13C281.569 389.996 281.133 389.786 280.813 389.5C280.494 389.215 280.335 388.83 280.337 388.347C280.335 387.95 280.441 387.604 280.654 387.308C280.869 387.012 281.164 386.781 281.539 386.614C281.914 386.448 282.34 386.365 282.817 386.365C283.303 386.365 283.727 386.448 284.089 386.614C284.454 386.781 284.737 387.012 284.939 387.308C285.142 387.604 285.246 387.947 285.253 388.337H283.926ZM288.504 386.455L288.38 391.038H287.21L287.082 386.455H288.504ZM287.795 393.083C287.584 393.083 287.403 393.009 287.251 392.859C287.1 392.708 287.026 392.527 287.028 392.316C287.026 392.107 287.1 391.928 287.251 391.779C287.403 391.63 287.584 391.555 287.795 391.555C287.997 391.555 288.175 391.63 288.328 391.779C288.482 391.928 288.56 392.107 288.562 392.316C288.56 392.457 288.522 392.586 288.45 392.703C288.38 392.818 288.287 392.911 288.172 392.981C288.057 393.049 287.931 393.083 287.795 393.083Z"
    fill="#141414"
  />
  <path d="M52 264L52 390L170 390" stroke="#D8BD14" />
  <defs>
    <linearGradient
      id="paint0_linear_42209_3152"
      x1="11.1497"
      y1="177.277"
      x2="16.8981"
      y2="184.178"
      gradientUnits="userSpaceOnUse"
    >
      <stop stop-color="#3C9AE8" />
      <stop offset="1" stop-color="#84E2D8" />
    </linearGradient>
  </defs>
</svg>
