<svg width="554" height="433" viewBox="0 0 554 433" fill="none" xmlns="http://www.w3.org/2000/svg">
  <path
    d="M310 418C310 418.555 310.506 419 311.136 419H552.864C553.494 419 554 418.555 554 418C554 417.445 553.494 417 552.864 417H311.136C310.506 417 310 417.445 310 418Z"
    fill="#323232"
  />
  <path
    d="M315.179 338.207H10.2481C7.53107 338.204 4.92626 337.121 3.00506 335.197C1.08386 333.273 0.00315092 330.664 0 327.943V79.264C0.0031549 76.5428 1.08386 73.9339 3.00506 72.0097C4.92626 70.0855 7.53107 69.0032 10.2481 69H315.179C317.896 69.0032 320.5 70.0855 322.422 72.0097C324.343 73.9339 325.424 76.5428 325.427 79.264V327.943C325.424 330.664 324.343 333.273 322.422 335.197C320.5 337.121 317.896 338.204 315.179 338.207Z"
    fill="white"
    fill-opacity="0.2"
  />
  <path
    d="M17.1546 76.3037C14.5374 76.3068 12.0283 77.3494 10.1777 79.203C8.3271 81.0565 7.28615 83.5696 7.2832 86.1909V321.018C7.2863 323.639 8.32731 326.152 10.1779 328.006C12.0285 329.859 14.5376 330.901 17.1546 330.904H225.868C250.329 330.877 273.78 321.132 291.077 303.809C308.373 286.485 318.103 262.997 318.13 238.498V86.1909C318.127 83.5696 317.086 81.0565 315.236 79.203C313.385 77.3494 310.876 76.3068 308.259 76.3037L17.1546 76.3037Z"
    fill="#1E2636"
  />
  <line x1="6.89844" y1="103.177" x2="317.244" y2="103.177" stroke="#DEDEDE" stroke-opacity="0.3" />
  <line x1="40.874" y1="331.265" x2="40.874" y2="103.678" stroke="#DEDEDE" stroke-opacity="0.3" />
  <line x1="120.118" y1="331.265" x2="120.118" y2="103.678" stroke="#DEDEDE" stroke-opacity="0.3" />
  <rect x="14.4009" y="112.327" width="17.4229" height="17.4229" rx="4" fill="#CBCBCB" fill-opacity="0.3" />
  <rect x="38" y="82" width="103" height="14" rx="4" fill="#525763" />
  <rect x="257" y="82" width="53" height="14" rx="4" fill="#525763" />
  <rect x="14.4009" y="158.064" width="17.4229" height="17.4229" rx="4" fill="#CBCBCB" fill-opacity="0.3" />
  <path
    fill-rule="evenodd"
    clip-rule="evenodd"
    d="M21.5981 96.0536C25.5072 96.0536 28.6761 92.8846 28.6761 88.9755C28.6761 85.0664 25.5072 81.8975 21.5981 81.8975C17.689 81.8975 14.52 85.0664 14.52 88.9755C14.52 92.8846 17.689 96.0536 21.5981 96.0536ZM20.8186 92.9077C23.4246 92.9077 25.5373 90.7951 25.5373 88.189C25.5373 85.5829 23.4246 83.4703 20.8186 83.4703C18.2125 83.4703 16.0999 85.5829 16.0999 88.189C16.0999 90.7951 18.2125 92.9077 20.8186 92.9077Z"
    fill="url(#paint0_linear_42109_3260)"
  />
  <path
    opacity="0.6"
    d="M95.6968 136.475H56.9294C56.4484 136.475 55.9871 135.948 55.6469 135.011C55.3068 134.073 55.1157 132.801 55.1157 131.475C55.1157 130.149 55.3068 128.877 55.6469 127.94C55.9871 127.002 56.4484 126.475 56.9294 126.475H95.6968C96.1778 126.475 96.6391 127.002 96.9792 127.94C97.3194 128.877 97.5104 130.149 97.5104 131.475C97.5104 132.801 97.3194 134.073 96.9792 135.011C96.6391 135.948 96.1778 136.475 95.6968 136.475V136.475Z"
    fill="#374560"
  />
  <path
    opacity="0.6"
    d="M102.216 155H56.7794C56.3073 154.998 55.8547 154.471 55.521 153.533C55.1874 152.596 55 151.325 55 150C55 148.675 55.1874 147.404 55.521 146.467C55.8547 145.529 56.3073 145.002 56.7794 145H102.216C102.45 144.999 102.682 145.128 102.898 145.379C103.115 145.63 103.312 145.998 103.477 146.462C103.643 146.926 103.774 147.478 103.864 148.085C103.954 148.692 104 149.343 104 150C104 150.657 103.954 151.308 103.864 151.915C103.774 152.522 103.643 153.074 103.477 153.538C103.312 154.002 103.115 154.37 102.898 154.621C102.682 154.872 102.45 155.001 102.216 155V155Z"
    fill="#374560"
  />
  <path
    opacity="0.6"
    d="M85.5515 173.269H56.476C56.1152 173.269 55.7692 172.742 55.5141 171.804C55.259 170.866 55.1157 169.595 55.1157 168.269C55.1157 166.942 55.259 165.671 55.5141 164.733C55.7692 163.795 56.1152 163.269 56.476 163.269H85.5515C85.9123 163.269 86.2583 163.795 86.5134 164.733C86.7685 165.671 86.9118 166.942 86.9118 168.269C86.9118 169.595 86.7685 170.866 86.5134 171.804C86.2583 172.742 85.9123 173.269 85.5515 173.269V173.269Z"
    fill="#374560"
  />
  <path
    opacity="0.6"
    d="M102.094 210.185H56.8862C56.4164 210.183 55.9661 209.655 55.6341 208.718C55.3022 207.78 55.1157 206.509 55.1157 205.185C55.1157 203.86 55.3022 202.589 55.6341 201.651C55.9661 200.714 56.4164 200.186 56.8862 200.185H102.094C102.327 200.184 102.558 200.312 102.774 200.563C102.989 200.814 103.185 201.182 103.35 201.647C103.514 202.111 103.645 202.663 103.734 203.27C103.824 203.877 103.87 204.527 103.87 205.185C103.87 205.842 103.824 206.492 103.734 207.1C103.645 207.707 103.514 208.258 103.35 208.722C103.185 209.187 102.989 209.555 102.774 209.806C102.558 210.057 102.327 210.185 102.094 210.185V210.185Z"
    fill="#374560"
  />
  <path
    opacity="0.6"
    d="M102.094 191.224H56.8862C56.4164 191.222 55.9661 190.695 55.6341 189.757C55.3022 188.82 55.1157 187.549 55.1157 186.224C55.1157 184.899 55.3022 183.628 55.6341 182.691C55.9661 181.753 56.4164 181.226 56.8862 181.224H102.094C102.327 181.223 102.558 181.352 102.774 181.603C102.989 181.854 103.185 182.222 103.35 182.686C103.514 183.151 103.645 183.702 103.734 184.309C103.824 184.916 103.87 185.567 103.87 186.224C103.87 186.881 103.824 187.532 103.734 188.139C103.645 188.746 103.514 189.298 103.35 189.762C103.185 190.226 102.989 190.595 102.774 190.845C102.558 191.096 102.327 191.225 102.094 191.224V191.224Z"
    fill="#374560"
  />
  <path
    d="M440.163 260.118C440.354 259.308 440.721 258.549 441.237 257.896C441.753 257.243 442.406 256.711 443.15 256.337C443.894 255.963 444.711 255.757 445.543 255.734C446.375 255.71 447.202 255.869 447.967 256.199L461.647 241.285L464.203 251.486L450.819 264.085C450.179 265.332 449.104 266.301 447.797 266.808C446.49 267.316 445.042 267.326 443.728 266.836C442.414 266.347 441.325 265.393 440.668 264.155C440.011 262.916 439.831 261.48 440.162 260.118L440.163 260.118Z"
    fill="#FEB8B8"
  />
  <path d="M469.545 408.898H461.187L457.21 376.656H469.55L469.545 408.898Z" fill="#FEB8B8" />
  <path
    d="M471.677 406.168H455.214C452.432 406.169 449.764 407.274 447.796 409.241C445.829 411.208 444.723 413.877 444.723 416.659V417H471.675L471.677 406.168Z"
    fill="#1E2636"
  />
  <path d="M517.547 400.617L509.733 403.584L494.573 374.851L506.107 370.474L517.547 400.617Z" fill="#FEB8B8" />
  <path
    d="M518.573 397.309L503.183 403.15C500.582 404.138 498.48 406.118 497.339 408.655C496.197 411.193 496.111 414.08 497.098 416.681L497.221 416.999L522.42 407.435L518.573 397.309Z"
    fill="#1E2636"
  />
  <path
    d="M490.031 301.653L496.958 338.928C496.958 338.928 515.76 391.375 514.441 392.694C513.121 394.014 494.979 398.632 495.968 395.663C496.958 392.695 474.198 348.164 474.198 348.164L490.031 301.653Z"
    fill="#1E2636"
  />
  <path
    d="M461.94 233.918C461.94 233.918 447.957 252.197 449.789 253.196C451.622 254.194 458.72 259.48 458.72 259.48L465.942 239.659L461.94 233.918Z"
    fill="#E4E4E4"
  />
  <path
    d="M458.035 252.368C458.035 252.368 455.726 269.521 456.716 273.149C457.705 276.777 457.045 379.693 456.386 381.342C455.727 382.991 453.746 388.599 454.737 391.237C455.728 393.876 469.25 400.473 471.23 398.164C473.209 395.855 487.724 311.742 487.724 311.742C487.724 311.742 508.175 260.944 503.557 255.997C498.939 251.05 458.035 252.368 458.035 252.368Z"
    fill="#1E2636"
  />
  <path
    d="M487.711 142.13C496.638 142.13 503.874 134.893 503.874 125.967C503.874 117.04 496.638 109.804 487.711 109.804C478.784 109.804 471.548 117.04 471.548 125.967C471.548 134.893 478.784 142.13 487.711 142.13Z"
    fill="#FEB8B8"
  />
  <path
    d="M470.822 162.496C471.229 159.879 472.531 157.484 474.505 155.718L477.452 146.709H494.771L499.597 154.282C504.815 156.53 508.683 160.094 508.83 164.296C509.628 167.086 506.19 255.666 505.202 258.965C504.911 259.925 500.965 260.438 495.418 260.666C490.331 260.874 483.903 260.844 477.731 260.703C467.512 260.465 457.986 259.917 456.383 259.624C452.757 258.965 470.463 164.578 470.822 162.496Z"
    fill="#E4E4E4"
  />
  <path
    d="M486.134 279.961C486.835 279.512 487.43 278.916 487.876 278.213C488.322 277.51 488.609 276.718 488.716 275.892C488.823 275.067 488.747 274.227 488.495 273.434C488.242 272.641 487.819 271.912 487.255 271.3L496.813 253.462L486.34 254.418L478.869 271.211C477.903 272.227 477.343 273.562 477.296 274.964C477.249 276.365 477.718 277.735 478.614 278.814C479.509 279.893 480.77 280.605 482.156 280.817C483.542 281.028 484.958 280.723 486.134 279.96L486.134 279.961Z"
    fill="#FEB8B8"
  />
  <path
    d="M487.723 152.751C487.723 152.751 472.549 159.018 478.157 174.853C483.764 190.687 490.032 209.488 490.032 209.488C490.032 209.488 482.115 252.04 482.115 253.691C482.115 255.343 477.167 264.247 479.146 265.896C481.125 267.546 494.319 270.844 494.649 269.195C495.66 265.395 496.871 261.651 498.277 257.98C498.937 256.66 514.44 215.428 512.459 211.799C511.003 209.129 509.725 184.663 509.151 171.931C509.019 168.298 507.943 164.761 506.028 161.67C504.114 158.579 501.428 156.04 498.235 154.302C495.163 152.668 491.582 151.786 487.723 152.751Z"
    fill="#E4E4E4"
  />
  <path
    d="M493.932 133.191C492.704 132.625 491.282 132.508 489.954 132.156C485.206 130.896 482.025 126.207 483.041 121.964C483.228 121.425 483.312 120.855 483.29 120.285C483.113 119.028 481.64 118.217 480.229 117.929C478.818 117.641 477.315 117.683 475.966 117.22C474.99 116.874 474.125 116.272 473.462 115.476C472.799 114.68 472.363 113.72 472.199 112.698C471.99 110.711 472.497 108.714 473.628 107.067L474.138 108.349C474.895 107.802 475.474 107.046 475.804 106.173C476.358 106.239 476.887 106.442 477.343 106.762C477.8 107.083 478.169 107.511 478.42 108.01C479.238 108.431 479.356 106.7 480.262 106.445C480.654 106.401 481.051 106.487 481.39 106.69C483.212 107.433 485.328 106.798 487.284 106.386C490.679 105.677 494.184 105.674 497.58 106.376C499.829 106.844 502.056 107.661 503.665 109.111C504.9 110.323 505.869 111.778 506.512 113.384C508.238 117.179 509.378 121.286 508.808 125.339C508.29 128.74 506.689 131.884 504.243 134.303C502.94 135.615 498.687 140.191 496.355 139.411C493.422 138.429 497.384 134.785 493.932 133.191Z"
    fill="#1E2636"
  />
  <path
    d="M363.829 408.355C364.398 408.781 364.801 409.367 365.272 409.885C366.556 411.296 367.807 412.738 369.074 414.165C369.426 414.562 370.269 414.187 370.657 414.545C371.194 415.041 372.175 415.479 372.942 415.598C373.668 415.711 374.321 416.15 375.04 416.341C377.118 416.894 378.338 417.348 380.532 417.035C381.274 416.93 382.014 417.597 382.773 417.714C382.551 419.208 382.354 420.705 382.102 422.194C381.871 423.551 380.845 424.449 379.459 424.549C377.548 424.687 375.637 424.815 373.725 424.924C372.783 424.977 371.984 424.644 371.378 423.898C370.83 423.222 370.322 422.509 369.726 421.878C368.768 420.862 368.591 419.696 368.804 418.374C368.964 417.384 368.912 417.343 367.903 417.436C366.749 417.543 365.87 417.133 365.188 416.213C364.744 415.615 364.266 415.04 363.795 414.462C363.318 413.876 363.134 413.198 363.228 412.468C363.405 411.094 363.627 409.726 363.829 408.355Z"
    fill="#5ECAE7"
  />
  <path
    d="M394.723 417.162C396.609 417.086 398.494 417.014 400.379 416.932C401.912 416.865 403.443 416.757 404.977 416.722C406.121 416.696 407.347 415.966 408.494 416.101C408.21 418.232 407.723 420.893 407.34 423.008C407.146 424.075 406.215 424.878 405.092 424.968C403.413 425.103 401.73 425.189 400.05 425.322C399.273 425.382 398.61 425.143 398.036 424.651C397.092 423.841 396.16 423.019 395.236 422.187C394.477 421.505 394.193 420.648 394.352 419.639C394.482 418.814 394.6 417.988 394.723 417.162Z"
    fill="#5ECAE7"
  />
  <path
    d="M429.094 368.67C428.694 369.541 428.504 370.479 428.264 371.395C427.939 372.642 427.576 373.876 427.218 375.113C426.817 376.5 426.391 377.881 425.975 379.266C425.55 380.683 425.396 382.142 424.976 383.561C424.581 384.897 424.201 386.237 423.804 387.572C423.236 389.481 422.652 391.385 422.088 393.294C421.538 395.154 421.012 397.02 420.463 398.88C419.979 400.52 419.198 402.111 418.711 403.749C418.314 405.084 417.923 406.421 417.544 407.761C417.431 408.161 417.216 408.502 417.02 408.859C416.909 409.063 416.688 409.253 416.879 409.531C416.935 409.613 416.9 409.718 416.813 409.76C416.122 410.098 415.973 410.863 415.526 411.395C414.361 412.779 412.955 413.611 411.091 413.616C409.455 414.096 407.764 414.258 406.142 414.307C403.622 414.383 401.155 414.105 398.664 413.986C396.478 414.055 394.293 414.138 392.107 414.207C389.41 414.293 386.629 414.92 383.932 415.003C382.522 415.046 381.095 414.797 379.704 414.656C378.402 414.524 377.119 414.165 376.241 412.95C375.883 412.454 375.192 411.81 375.149 411.223C375.126 410.896 374.984 410.658 374.987 410.506C374.991 410.345 375.333 410.097 375.342 409.798C375.367 408.863 375.389 407.92 375.533 406.999C375.711 405.859 375.781 404.708 375.911 403.565C376.156 401.404 376.611 399.277 376.852 397.115C377.007 395.727 377.134 394.335 377.273 392.945C377.489 390.798 377.694 388.65 377.927 386.505C378.073 385.152 378.2 383.796 378.335 382.441C378.555 380.223 378.774 378.005 379.019 375.789C379.166 374.455 379.279 373.115 379.416 371.778C379.639 369.614 379.845 367.448 380.079 365.285C380.229 363.897 380.355 362.505 380.498 361.115C380.65 359.637 380.805 358.159 380.955 356.681C381.093 355.327 381.23 353.972 381.36 352.617C381.564 350.504 381.518 348.379 381.731 346.267C381.878 344.807 381.813 343.259 381.948 341.798C382.205 339.012 382.223 336.118 383.415 333.566C383.597 332.516 383.918 331.503 384.522 330.608C384.999 329.901 385.731 329.576 386.527 329.41C387.973 329.109 389.391 329.206 390.801 329.686C391.617 329.964 392.478 330.108 393.317 330.318C394.703 330.665 395.848 330.639 397.235 330.983C398.126 331.204 399.023 331.402 399.913 331.625C401.23 331.955 402.543 332.301 403.859 332.634C404.698 332.847 405.54 333.044 406.379 333.254C407.765 333.601 409.149 333.956 410.535 334.301C411.409 334.518 412.287 334.716 413.161 334.935C414.495 335.269 416.064 335.998 417.398 336.333C418.272 336.552 419.15 336.752 420.023 336.971C421.375 337.31 422.716 337.692 424.076 337.99C424.992 338.189 425.895 338.432 426.805 338.653C428.141 338.977 429.468 339.341 430.805 339.664C431.594 339.855 432.39 340.012 433.168 340.254C434.45 340.652 435.516 341.904 435.604 343.227C435.678 344.351 436.04 345.815 435.825 346.925C435.397 348.424 435.321 349.617 434.893 351.117C434.027 354.151 432.666 357.321 431.884 360.379C431.413 361.621 431.039 362.742 430.739 364.033C430.195 365.559 429.455 367.092 429.094 368.67Z"
    fill="#5FCAE7"
  />
  <path
    d="M358.666 384.116C358.488 385.172 358.459 386.117 358.895 387.02C359.055 387.35 359.322 387.564 359.69 387.542C360.076 387.52 360.124 387.157 360.185 386.879C360.358 386.083 360.489 385.275 360.428 384.458C360.379 383.809 360.359 383.142 360.047 382.548C359.783 382.045 359.513 382.044 359.195 382.517C358.85 383.03 358.7 383.608 358.666 384.116ZM368.296 391.782C368.285 391.852 368.236 392.062 368.224 392.274C368.169 393.222 368.237 394.154 368.699 395.011C368.919 395.418 369.248 395.789 369.729 395.727C370.174 395.67 370.284 395.209 370.433 394.818C370.757 393.963 370.733 393.075 370.687 392.197C370.642 391.335 370.575 390.453 370.085 389.693C369.729 389.143 369.44 389.149 369.022 389.669C368.558 390.246 368.4 390.93 368.296 391.782ZM377.627 334.027C377.365 335.1 377.174 337.055 377.028 338.481C376.835 340.362 376.481 342.351 376.301 344.234C376.128 346.045 375.955 347.857 375.792 349.67C375.627 351.501 375.452 353.33 375.282 355.16C375.105 357.061 374.924 358.961 374.739 360.861C374.621 362.074 374.516 363.289 374.401 364.503C374.228 366.333 374.067 368.164 373.889 369.993C373.712 371.822 373.544 373.653 373.377 375.483C373.209 377.331 373.023 379.177 372.857 381.025C372.691 382.874 372.508 384.72 372.337 386.568C372.169 388.38 371.997 390.192 371.831 392.005C371.661 393.871 371.478 395.735 371.304 397.6C371.13 399.465 371.384 401.335 371.201 403.199C371.081 404.412 371.139 405.43 371.018 406.643C370.942 407.41 370.725 408.393 370.556 409.191C370.42 409.832 370.392 410.48 370.128 411.088C369.795 411.855 368.688 412.036 368.105 411.419C367.28 410.546 366.279 410.33 365.47 409.441C364.4 408.266 363.3 407.222 362.231 406.046C361.018 404.712 360.018 402.58 358.836 401.22C358.43 400.753 358.5 400.075 358.315 399.505C357.92 398.288 357.663 397.035 357.53 395.77C357.448 394.989 357.285 394.137 357.31 393.345C357.356 391.919 357.209 390.382 357.262 388.956C357.301 387.881 357.499 386.715 357.538 385.64C357.579 384.531 357.921 383.673 357.963 382.563C358.004 381.47 358.065 380.379 358.111 379.286C358.155 378.247 358.191 377.207 358.229 376.167C358.269 375.04 358.309 373.913 358.346 372.786C358.392 371.359 358.43 369.932 358.482 368.506C358.521 367.431 358.583 366.357 358.623 365.282C358.673 363.908 358.707 362.534 358.755 361.16C358.794 360.067 358.848 358.976 358.887 357.883C358.937 356.457 358.974 355.03 359.026 353.603C359.065 352.528 359.122 351.454 359.166 350.379C359.207 349.357 359.241 348.335 359.278 347.313C359.319 346.168 359.359 345.023 359.401 343.879C359.438 342.839 359.48 341.8 359.516 340.76C359.562 339.404 359.518 336.429 359.717 335.096C359.933 333.657 360.155 333.803 360.713 332.433C360.821 332.166 361.015 332.062 361.265 331.993C364.952 330.043 365.801 330.445 369.556 329.4C370.546 329.124 374.4 327.951 375.391 327.679C376.338 327.419 377.593 328.737 377.715 329.879C377.876 331.38 377.908 332.224 377.627 334.027Z"
    fill="#5FCAE7"
  />
  <path
    d="M377.307 334.646C378.598 330.318 377.389 326.36 372.531 328.856C367.789 330.947 359.392 329.771 359.682 336.697C359.017 351.971 358.617 367.282 357.963 382.563C356.572 396.793 357.274 401.56 368.107 411.418C372.329 413.63 370.462 395.105 371.833 392.006C373.709 372.937 375.225 353.661 377.307 334.646ZM430.551 364.026C431.197 356.835 439.821 345.755 433.17 340.253C417.623 337.02 402.176 331.22 386.527 329.408C379.749 334.702 383.249 348.585 380.952 356.679C378.89 374.4 377.748 393.052 375.255 410.316C376.106 417.246 386.646 413.706 392.106 414.207C399.587 412.872 409.346 416.168 415.526 411.396C422.274 396.828 425.096 379.502 430.551 364.026V364.026ZM394.723 417.162C384.246 417.33 371.594 420.648 365.272 409.884C354.001 401.263 357.41 387.154 357.506 374.73C359.676 362.412 354.098 336.894 363.018 328.723C378.987 321.642 388.911 322.921 405.126 328.311C417.555 333.59 444.081 330.809 435.143 351.289C430.521 366.913 425.854 382.522 421.231 398.145C417.538 416.11 411.981 417.527 394.723 417.162"
    fill="#79D0E7"
  />
  <path
    d="M368.297 391.782C368.4 390.931 368.559 390.246 369.023 389.669C369.441 389.15 369.73 389.143 370.085 389.694C370.576 390.454 370.643 391.335 370.688 392.198C370.733 393.076 370.758 393.963 370.433 394.819C370.285 395.21 370.175 395.671 369.729 395.728C369.248 395.789 368.919 395.418 368.7 395.011C368.238 394.155 368.17 393.223 368.225 392.274C368.237 392.062 368.286 391.853 368.297 391.782Z"
    fill="#1A8DC5"
  />
  <path
    d="M358.666 384.116C358.7 383.608 358.851 383.03 359.195 382.517C359.513 382.044 359.783 382.045 360.047 382.548C360.359 383.142 360.379 383.809 360.428 384.458C360.489 385.275 360.358 386.083 360.185 386.879C360.124 387.157 360.077 387.52 359.69 387.543C359.322 387.564 359.055 387.35 358.896 387.02C358.459 386.118 358.488 385.172 358.666 384.116Z"
    fill="#1783BD"
  />
  <path
    fill-rule="evenodd"
    clip-rule="evenodd"
    d="M357.24 386.09C356.794 389.133 357.179 391.858 358.114 392.154C359.042 392.447 360.216 389.935 360.735 386.508C361.255 383.081 360.857 380.381 359.861 380.444C358.865 380.508 357.69 383.023 357.24 386.09ZM355.952 386.833C355.317 391.22 355.905 395.298 357.262 395.916C358.618 396.534 360.367 392.809 361.157 387.621C361.946 382.432 361.358 378.354 359.839 378.539C358.32 378.724 356.591 382.423 355.952 386.833"
    fill="#0B639E"
  />
  <path
    fill-rule="evenodd"
    clip-rule="evenodd"
    d="M358.119 392.128C357.191 391.836 356.794 389.133 357.244 386.066C357.69 383.023 358.866 380.508 359.862 380.444C360.858 380.381 361.255 383.081 360.736 386.508C360.214 389.906 359.046 392.421 358.119 392.128ZM358.058 392.537C357.067 392.21 356.643 389.322 357.118 386.075C357.594 382.829 358.853 380.117 359.923 380.035C360.993 379.954 361.417 382.839 360.858 386.523C360.304 390.179 359.049 392.864 358.058 392.537Z"
    fill="#0B639E"
  />
  <path
    fill-rule="evenodd"
    clip-rule="evenodd"
    d="M357.326 395.485C356.051 394.925 355.475 390.978 356.073 386.852C356.672 382.726 358.375 379.098 359.787 378.943C361.199 378.789 361.772 382.76 361.04 387.575C360.308 392.389 358.6 396.045 357.326 395.485ZM357.262 395.916C355.905 395.298 355.313 391.243 355.952 386.833C356.587 382.447 358.328 378.723 359.847 378.538C361.366 378.353 361.95 382.404 361.157 387.621C360.367 392.809 358.618 396.534 357.262 395.916"
    fill="#0B639E"
  />
  <path
    d="M323.803 264.533C323.006 264.535 322.224 264.317 321.543 263.902C320.863 263.486 320.311 262.89 319.95 262.18C316.87 256.159 312.618 250.814 307.444 246.458C302.271 242.102 296.279 238.824 289.821 236.816C287.177 236.014 284.478 235.403 281.746 234.988L281.189 234.903L309.923 145.065L310.409 145.082C366.233 160.251 398.171 204.99 406.631 218.341C406.953 218.852 407.165 219.424 407.252 220.021C407.34 220.618 407.301 221.227 407.138 221.809C406.976 222.39 406.693 222.931 406.308 223.396C405.924 223.862 405.446 224.241 404.905 224.51L325.742 264.074C325.14 264.376 324.476 264.533 323.803 264.533Z"
    fill="#525763"
  />
  <path
    d="M275.585 281.618C279.828 281.618 283.268 278.178 283.268 273.935C283.268 269.692 279.828 266.252 275.585 266.252C271.342 266.252 267.902 269.692 267.902 273.935C267.902 278.178 271.342 281.618 275.585 281.618Z"
    fill="#3F3D56"
  />
  <path
    d="M224.026 264.42C223.323 264.42 222.631 264.247 222.009 263.917L143.305 222.396C142.783 222.121 142.323 221.741 141.953 221.281C141.583 220.821 141.312 220.29 141.155 219.721C140.998 219.152 140.96 218.557 141.042 217.972C141.124 217.388 141.325 216.826 141.633 216.322C152.146 199.471 165.459 184.539 180.999 172.17C208.179 150.628 239.095 139.821 272.884 140.002C285.557 140.058 298.169 141.766 310.4 145.081L310.885 145.212L282.144 235.046L281.739 234.985C279.151 234.594 276.54 234.363 273.923 234.292C244.68 233.466 232.007 253.38 227.915 261.978C227.668 262.5 227.318 262.966 226.885 263.347C226.453 263.728 225.947 264.018 225.398 264.197C224.956 264.344 224.493 264.42 224.026 264.42Z"
    fill="#5273E0"
  />
  <path
    d="M310.283 145.545L289.962 236.357C287.295 235.547 284.574 234.931 281.818 234.513L310.274 145.545H310.283Z"
    fill="#3F3D56"
  />
  <path
    d="M276.261 167.548C280.823 167.548 284.522 163.843 284.522 159.274C284.522 154.704 280.823 151 276.261 151C271.699 151 268 154.704 268 159.274C268 163.843 271.699 167.548 276.261 167.548Z"
    fill="#D8BD14"
  />
  <rect x="367" width="100" height="18" rx="9" fill="#D8BD14" />
  <path
    d="M377.569 12V5.45455H380.151C380.648 5.45455 381.071 5.54936 381.42 5.73899C381.77 5.92649 382.036 6.1875 382.219 6.52202C382.404 6.8544 382.497 7.23793 382.497 7.67259C382.497 8.10724 382.403 8.49077 382.216 8.82315C382.028 9.15554 381.757 9.41442 381.401 9.59979C381.047 9.78516 380.619 9.87784 380.116 9.87784H378.47V8.76882H379.892C380.159 8.76882 380.378 8.72301 380.551 8.63139C380.725 8.53764 380.855 8.40874 380.941 8.24467C381.028 8.07848 381.072 7.88778 381.072 7.67259C381.072 7.45526 381.028 7.26562 380.941 7.10369C380.855 6.93963 380.725 6.81285 380.551 6.72337C380.376 6.63175 380.154 6.58594 379.886 6.58594H378.953V12H377.569ZM384.026 12V5.45455H388.437V6.59553H385.41V8.15518H388.21V9.29616H385.41V10.859H388.449V12H384.026ZM390.167 12V5.45455H392.749C393.243 5.45455 393.665 5.54297 394.015 5.71982C394.366 5.89453 394.634 6.14276 394.817 6.46449C395.002 6.78409 395.095 7.16016 395.095 7.59268C395.095 8.02734 395.001 8.40128 394.814 8.71449C394.626 9.02557 394.355 9.2642 393.999 9.4304C393.645 9.59659 393.217 9.67969 392.714 9.67969H390.985V8.56747H392.49C392.754 8.56747 392.974 8.53125 393.149 8.45881C393.323 8.38636 393.453 8.2777 393.539 8.13281C393.626 7.98793 393.67 7.80788 393.67 7.59268C393.67 7.37535 393.626 7.19212 393.539 7.04297C393.453 6.89382 393.322 6.78089 393.145 6.70419C392.971 6.62536 392.75 6.58594 392.484 6.58594H391.551V12H390.167ZM393.702 9.02131L395.328 12H393.801L392.209 9.02131H393.702ZM396.703 12V5.45455H401.037V6.59553H398.087V8.15518H400.749V9.29616H398.087V12H396.703ZM408.613 8.72727C408.613 9.44105 408.477 10.0483 408.207 10.549C407.938 11.0497 407.572 11.4322 407.107 11.6964C406.645 11.9585 406.125 12.0895 405.548 12.0895C404.966 12.0895 404.444 11.9574 403.982 11.6932C403.519 11.429 403.154 11.0465 402.885 10.5458C402.617 10.0451 402.483 9.43892 402.483 8.72727C402.483 8.01349 402.617 7.40625 402.885 6.90554C403.154 6.40483 403.519 6.02344 403.982 5.76136C404.444 5.49716 404.966 5.36506 405.548 5.36506C406.125 5.36506 406.645 5.49716 407.107 5.76136C407.572 6.02344 407.938 6.40483 408.207 6.90554C408.477 7.40625 408.613 8.01349 408.613 8.72727ZM407.21 8.72727C407.21 8.26491 407.14 7.875 407.002 7.55753C406.865 7.24006 406.673 6.99929 406.423 6.83523C406.174 6.67116 405.882 6.58913 405.548 6.58913C405.213 6.58913 404.921 6.67116 404.672 6.83523C404.423 6.99929 404.229 7.24006 404.09 7.55753C403.954 7.875 403.886 8.26491 403.886 8.72727C403.886 9.18963 403.954 9.57955 404.09 9.89702C404.229 10.2145 404.423 10.4553 404.672 10.6193C404.921 10.7834 405.213 10.8654 405.548 10.8654C405.882 10.8654 406.174 10.7834 406.423 10.6193C406.673 10.4553 406.865 10.2145 407.002 9.89702C407.14 9.57955 407.21 9.18963 407.21 8.72727ZM410.268 12V5.45455H412.85C413.344 5.45455 413.766 5.54297 414.116 5.71982C414.467 5.89453 414.735 6.14276 414.918 6.46449C415.103 6.78409 415.196 7.16016 415.196 7.59268C415.196 8.02734 415.102 8.40128 414.915 8.71449C414.727 9.02557 414.456 9.2642 414.1 9.4304C413.746 9.59659 413.318 9.67969 412.815 9.67969H411.086V8.56747H412.591C412.855 8.56747 413.075 8.53125 413.25 8.45881C413.424 8.38636 413.554 8.2777 413.64 8.13281C413.727 7.98793 413.771 7.80788 413.771 7.59268C413.771 7.37535 413.727 7.19212 413.64 7.04297C413.554 6.89382 413.423 6.78089 413.246 6.70419C413.072 6.62536 412.851 6.58594 412.585 6.58594H411.652V12H410.268ZM413.803 9.02131L415.429 12H413.902L412.31 9.02131H413.803ZM416.804 5.45455H418.511L420.313 9.85227H420.39L422.192 5.45455H423.899V12H422.557V7.7397H422.502L420.809 11.968H419.895L418.201 7.72372H418.146V12H416.804V5.45455ZM426.798 12H425.315L427.574 5.45455H429.358L431.614 12H430.131L428.491 6.95028H428.44L426.798 12ZM426.705 9.4272H430.208V10.5075H426.705V9.4272ZM438.507 5.45455V12H437.311L434.464 7.88033H434.416V12H433.032V5.45455H434.246L437.072 9.57102H437.129V5.45455H438.507ZM446.055 7.74609H444.655C444.63 7.56499 444.577 7.40412 444.499 7.26349C444.42 7.12074 444.319 6.99929 444.195 6.89915C444.071 6.79901 443.929 6.7223 443.767 6.66903C443.607 6.61577 443.433 6.58913 443.246 6.58913C442.907 6.58913 442.612 6.6733 442.361 6.84162C442.109 7.00781 441.914 7.25071 441.776 7.57031C441.637 7.88778 441.568 8.27344 441.568 8.72727C441.568 9.19389 441.637 9.58594 441.776 9.90341C441.916 10.2209 442.112 10.4606 442.364 10.6225C442.615 10.7844 442.906 10.8654 443.236 10.8654C443.422 10.8654 443.593 10.8409 443.751 10.7919C443.911 10.7429 444.052 10.6715 444.176 10.5778C444.299 10.4819 444.402 10.3658 444.483 10.2294C444.566 10.093 444.623 9.9375 444.655 9.76278L446.055 9.76918C446.019 10.0696 445.928 10.3594 445.783 10.6385C445.641 10.9155 445.448 11.1637 445.205 11.3832C444.964 11.6005 444.677 11.7731 444.342 11.9009C444.01 12.0266 443.634 12.0895 443.214 12.0895C442.63 12.0895 442.108 11.9574 441.648 11.6932C441.19 11.429 440.827 11.0465 440.561 10.5458C440.297 10.0451 440.165 9.43892 440.165 8.72727C440.165 8.01349 440.299 7.40625 440.568 6.90554C440.836 6.40483 441.2 6.02344 441.661 5.76136C442.121 5.49716 442.639 5.36506 443.214 5.36506C443.593 5.36506 443.945 5.41832 444.269 5.52486C444.595 5.63139 444.883 5.78693 445.135 5.99148C445.386 6.19389 445.591 6.44212 445.748 6.73615C445.908 7.03018 446.01 7.36683 446.055 7.74609ZM447.677 12V5.45455H452.088V6.59553H449.061V8.15518H451.861V9.29616H449.061V10.859H452.101V12H447.677ZM455.419 5.45455L455.295 10.0376H454.125L453.997 5.45455H455.419ZM454.71 12.0831C454.499 12.0831 454.318 12.0085 454.167 11.8594C454.015 11.7081 453.941 11.527 453.943 11.3161C453.941 11.1072 454.015 10.9283 454.167 10.7791C454.318 10.63 454.499 10.5554 454.71 10.5554C454.912 10.5554 455.09 10.63 455.244 10.7791C455.397 10.9283 455.475 11.1072 455.477 11.3161C455.475 11.4567 455.438 11.5856 455.365 11.7028C455.295 11.8178 455.202 11.9105 455.087 11.9808C454.972 12.049 454.846 12.0831 454.71 12.0831Z"
    fill="#141414"
  />
  <path d="M276 152L276 9.00001L368 9.00001" stroke="#D8BD14" />
  <path
    d="M162.261 147.548C166.823 147.548 170.522 143.843 170.522 139.274C170.522 134.704 166.823 131 162.261 131C157.699 131 154 134.704 154 139.274C154 143.843 157.699 147.548 162.261 147.548Z"
    fill="#D8BD14"
  />
  <rect x="67" y="38" width="60" height="18" rx="9" fill="#D8BD14" />
  <path
    d="M77.5689 50V43.4545H81.9794V44.5955H78.9528V46.1552H81.7525V47.2962H78.9528V48.859H81.9922V50H77.5689ZM86.0299 50H83.7096V43.4545H86.0491C86.7075 43.4545 87.2743 43.5856 87.7494 43.8477C88.2245 44.1076 88.59 44.4815 88.8456 44.9695C89.1035 45.4574 89.2324 46.0412 89.2324 46.7209C89.2324 47.4027 89.1035 47.9886 88.8456 48.4787C88.59 48.9687 88.2224 49.3448 87.743 49.6069C87.2657 49.869 86.6947 50 86.0299 50ZM85.0935 48.8143H85.9724C86.3815 48.8143 86.7256 48.7418 87.0047 48.5969C87.286 48.4499 87.4969 48.223 87.6375 47.9162C87.7803 47.6072 87.8517 47.2088 87.8517 46.7209C87.8517 46.2372 87.7803 45.842 87.6375 45.5352C87.4969 45.2283 87.287 45.0025 87.0079 44.8576C86.7288 44.7127 86.3847 44.6403 85.9756 44.6403H85.0935V48.8143ZM92.2714 43.4545V50H90.8875V43.4545H92.2714ZM93.7907 44.5955V43.4545H99.1664V44.5955H97.1625V50H95.7946V44.5955H93.7907ZM106.398 46.7273C106.398 47.4411 106.262 48.0483 105.992 48.549C105.723 49.0497 105.357 49.4322 104.892 49.6964C104.43 49.9585 103.91 50.0895 103.333 50.0895C102.751 50.0895 102.229 49.9574 101.767 49.6932C101.304 49.429 100.939 49.0465 100.67 48.5458C100.402 48.0451 100.268 47.4389 100.268 46.7273C100.268 46.0135 100.402 45.4062 100.67 44.9055C100.939 44.4048 101.304 44.0234 101.767 43.7614C102.229 43.4972 102.751 43.3651 103.333 43.3651C103.91 43.3651 104.43 43.4972 104.892 43.7614C105.357 44.0234 105.723 44.4048 105.992 44.9055C106.262 45.4062 106.398 46.0135 106.398 46.7273ZM104.995 46.7273C104.995 46.2649 104.925 45.875 104.787 45.5575C104.651 45.2401 104.458 44.9993 104.208 44.8352C103.959 44.6712 103.667 44.5891 103.333 44.5891C102.998 44.5891 102.706 44.6712 102.457 44.8352C102.208 44.9993 102.014 45.2401 101.875 45.5575C101.739 45.875 101.671 46.2649 101.671 46.7273C101.671 47.1896 101.739 47.5795 101.875 47.897C102.014 48.2145 102.208 48.4553 102.457 48.6193C102.706 48.7834 102.998 48.8654 103.333 48.8654C103.667 48.8654 103.959 48.7834 104.208 48.6193C104.458 48.4553 104.651 48.2145 104.787 47.897C104.925 47.5795 104.995 47.1896 104.995 46.7273ZM108.053 50V43.4545H110.635C111.13 43.4545 111.551 43.543 111.901 43.7198C112.252 43.8945 112.52 44.1428 112.703 44.4645C112.888 44.7841 112.981 45.1602 112.981 45.5927C112.981 46.0273 112.887 46.4013 112.7 46.7145C112.512 47.0256 112.241 47.2642 111.885 47.4304C111.531 47.5966 111.103 47.6797 110.6 47.6797H108.871V46.5675H110.376C110.641 46.5675 110.86 46.5312 111.035 46.4588C111.209 46.3864 111.339 46.2777 111.425 46.1328C111.512 45.9879 111.556 45.8079 111.556 45.5927C111.556 45.3754 111.512 45.1921 111.425 45.043C111.339 44.8938 111.208 44.7809 111.032 44.7042C110.857 44.6254 110.636 44.5859 110.37 44.5859H109.437V50H108.053ZM111.588 47.0213L113.214 50H111.687L110.095 47.0213H111.588ZM116.19 43.4545L116.066 48.0376H114.896L114.768 43.4545H116.19ZM115.481 50.0831C115.27 50.0831 115.089 50.0085 114.937 49.8594C114.786 49.7081 114.712 49.527 114.714 49.3161C114.712 49.1072 114.786 48.9283 114.937 48.7791C115.089 48.63 115.27 48.5554 115.481 48.5554C115.683 48.5554 115.861 48.63 116.015 48.7791C116.168 48.9283 116.246 49.1072 116.248 49.3161C116.246 49.4567 116.208 49.5856 116.136 49.7028C116.066 49.8178 115.973 49.9105 115.858 49.9808C115.743 50.049 115.617 50.0831 115.481 50.0831Z"
    fill="#141414"
  />
  <path d="M162 133L162 47L126 47" stroke="#D8BD14" />
  <path
    d="M23.261 151.548C27.8234 151.548 31.522 147.843 31.522 143.274C31.522 138.704 27.8234 135 23.261 135C18.6986 135 15 138.704 15 143.274C15 147.843 18.6986 151.548 23.261 151.548Z"
    fill="#D8BD14"
  />
  <path d="M23 142L23 386L115 386" stroke="#D8BD14" />
  <rect x="82" y="377" width="143" height="18" rx="9" fill="#D8BD14" />
  <path
    d="M99.8441 384.746H98.4442C98.4187 384.565 98.3665 384.404 98.2876 384.263C98.2088 384.121 98.1076 383.999 97.984 383.899C97.8604 383.799 97.7177 383.722 97.5558 383.669C97.396 383.616 97.2223 383.589 97.0348 383.589C96.696 383.589 96.4009 383.673 96.1495 383.842C95.8981 384.008 95.7031 384.251 95.5646 384.57C95.4261 384.888 95.3569 385.273 95.3569 385.727C95.3569 386.194 95.4261 386.586 95.5646 386.903C95.7053 387.221 95.9013 387.461 96.1527 387.623C96.4041 387.784 96.695 387.865 97.0252 387.865C97.2106 387.865 97.3821 387.841 97.5398 387.792C97.6996 387.743 97.8413 387.672 97.9648 387.578C98.0884 387.482 98.1907 387.366 98.2717 387.229C98.3548 387.093 98.4123 386.937 98.4442 386.763L99.8441 386.769C99.8079 387.07 99.7173 387.359 99.5724 387.638C99.4297 387.915 99.2369 388.164 98.994 388.383C98.7532 388.6 98.4656 388.773 98.131 388.901C97.7987 389.027 97.4226 389.089 97.0028 389.089C96.419 389.089 95.897 388.957 95.4368 388.693C94.9787 388.429 94.6165 388.047 94.3501 387.546C94.0859 387.045 93.9538 386.439 93.9538 385.727C93.9538 385.013 94.0881 384.406 94.3565 383.906C94.625 383.405 94.9893 383.023 95.4496 382.761C95.9098 382.497 96.4276 382.365 97.0028 382.365C97.3821 382.365 97.7337 382.418 98.0575 382.525C98.3835 382.631 98.6722 382.787 98.9237 382.991C99.1751 383.194 99.3796 383.442 99.5373 383.736C99.6971 384.03 99.7994 384.367 99.8441 384.746ZM101.466 389V382.455H102.85V387.859H105.656V389H101.466ZM111.246 382.455H112.63V386.705C112.63 387.183 112.516 387.6 112.288 387.958C112.062 388.316 111.746 388.595 111.339 388.795C110.932 388.994 110.458 389.093 109.916 389.093C109.373 389.093 108.898 388.994 108.491 388.795C108.084 388.595 107.768 388.316 107.542 387.958C107.316 387.6 107.203 387.183 107.203 386.705V382.455H108.587V386.587C108.587 386.836 108.641 387.058 108.75 387.252C108.861 387.446 109.016 387.598 109.216 387.709C109.417 387.82 109.65 387.875 109.916 387.875C110.185 387.875 110.418 387.82 110.616 387.709C110.817 387.598 110.971 387.446 111.08 387.252C111.19 387.058 111.246 386.836 111.246 386.587V382.455ZM117.949 384.337C117.924 384.079 117.814 383.879 117.62 383.736C117.426 383.593 117.163 383.522 116.831 383.522C116.605 383.522 116.414 383.554 116.258 383.618C116.103 383.68 115.984 383.766 115.9 383.877C115.82 383.988 115.779 384.113 115.779 384.254C115.775 384.371 115.799 384.473 115.853 384.561C115.908 384.648 115.984 384.724 116.079 384.788C116.175 384.849 116.286 384.904 116.412 384.951C116.538 384.995 116.672 385.034 116.815 385.066L117.403 385.206C117.688 385.27 117.95 385.355 118.189 385.462C118.427 385.569 118.634 385.7 118.809 385.855C118.984 386.011 119.119 386.194 119.215 386.405C119.313 386.616 119.363 386.858 119.365 387.13C119.363 387.531 119.261 387.878 119.058 388.172C118.858 388.464 118.568 388.691 118.189 388.853C117.812 389.013 117.357 389.093 116.824 389.093C116.296 389.093 115.835 389.012 115.443 388.85C115.054 388.688 114.749 388.448 114.529 388.131C114.312 387.811 114.198 387.416 114.187 386.945H115.527C115.541 387.164 115.604 387.348 115.715 387.495C115.828 387.64 115.978 387.749 116.166 387.824C116.355 387.896 116.57 387.933 116.808 387.933C117.043 387.933 117.246 387.898 117.419 387.83C117.593 387.762 117.729 387.667 117.824 387.546C117.92 387.424 117.968 387.285 117.968 387.127C117.968 386.98 117.925 386.857 117.837 386.756C117.752 386.656 117.626 386.571 117.46 386.501C117.296 386.43 117.095 386.366 116.856 386.309L116.143 386.13C115.592 385.996 115.156 385.786 114.836 385.5C114.517 385.215 114.358 384.83 114.36 384.347C114.358 383.95 114.463 383.604 114.676 383.308C114.892 383.012 115.187 382.781 115.562 382.614C115.937 382.448 116.363 382.365 116.84 382.365C117.326 382.365 117.75 382.448 118.112 382.614C118.476 382.781 118.76 383.012 118.962 383.308C119.165 383.604 119.269 383.947 119.275 384.337H117.949ZM120.677 383.596V382.455H126.052V383.596H124.048V389H122.68V383.596H120.677ZM127.568 389V382.455H131.978V383.596H128.951V385.155H131.751V386.296H128.951V387.859H131.991V389H127.568ZM133.708 389V382.455H136.291C136.785 382.455 137.207 382.543 137.556 382.72C137.908 382.895 138.175 383.143 138.358 383.464C138.544 383.784 138.637 384.16 138.637 384.593C138.637 385.027 138.543 385.401 138.355 385.714C138.168 386.026 137.896 386.264 137.54 386.43C137.187 386.597 136.758 386.68 136.255 386.68H134.526V385.567H136.032C136.296 385.567 136.515 385.531 136.69 385.459C136.865 385.386 136.995 385.278 137.08 385.133C137.167 384.988 137.211 384.808 137.211 384.593C137.211 384.375 137.167 384.192 137.08 384.043C136.995 383.894 136.864 383.781 136.687 383.704C136.512 383.625 136.292 383.586 136.025 383.586H135.092V389H133.708ZM137.243 386.021L138.87 389H137.342L135.751 386.021H137.243ZM148.733 384.746H147.333C147.307 384.565 147.255 384.404 147.176 384.263C147.097 384.121 146.996 383.999 146.873 383.899C146.749 383.799 146.606 383.722 146.444 383.669C146.285 383.616 146.111 383.589 145.923 383.589C145.585 383.589 145.29 383.673 145.038 383.842C144.787 384.008 144.592 384.251 144.453 384.57C144.315 384.888 144.246 385.273 144.246 385.727C144.246 386.194 144.315 386.586 144.453 386.903C144.594 387.221 144.79 387.461 145.041 387.623C145.293 387.784 145.584 387.865 145.914 387.865C146.099 387.865 146.271 387.841 146.428 387.792C146.588 387.743 146.73 387.672 146.853 387.578C146.977 387.482 147.079 387.366 147.16 387.229C147.243 387.093 147.301 386.937 147.333 386.763L148.733 386.769C148.697 387.07 148.606 387.359 148.461 387.638C148.318 387.915 148.125 388.164 147.883 388.383C147.642 388.6 147.354 388.773 147.02 388.901C146.687 389.027 146.311 389.089 145.891 389.089C145.308 389.089 144.786 388.957 144.325 388.693C143.867 388.429 143.505 388.047 143.239 387.546C142.975 387.045 142.842 386.439 142.842 385.727C142.842 385.013 142.977 384.406 143.245 383.906C143.514 383.405 143.878 383.023 144.338 382.761C144.798 382.497 145.316 382.365 145.891 382.365C146.271 382.365 146.622 382.418 146.946 382.525C147.272 382.631 147.561 382.787 147.812 382.991C148.064 383.194 148.268 383.442 148.426 383.736C148.586 384.03 148.688 384.367 148.733 384.746ZM156.37 385.727C156.37 386.441 156.235 387.048 155.964 387.549C155.696 388.05 155.329 388.432 154.865 388.696C154.402 388.958 153.882 389.089 153.305 389.089C152.723 389.089 152.201 388.957 151.739 388.693C151.277 388.429 150.911 388.047 150.643 387.546C150.374 387.045 150.24 386.439 150.24 385.727C150.24 385.013 150.374 384.406 150.643 383.906C150.911 383.405 151.277 383.023 151.739 382.761C152.201 382.497 152.723 382.365 153.305 382.365C153.882 382.365 154.402 382.497 154.865 382.761C155.329 383.023 155.696 383.405 155.964 383.906C156.235 384.406 156.37 385.013 156.37 385.727ZM154.967 385.727C154.967 385.265 154.898 384.875 154.759 384.558C154.623 384.24 154.43 383.999 154.181 383.835C153.931 383.671 153.64 383.589 153.305 383.589C152.971 383.589 152.679 383.671 152.429 383.835C152.18 383.999 151.986 384.24 151.848 384.558C151.711 384.875 151.643 385.265 151.643 385.727C151.643 386.19 151.711 386.58 151.848 386.897C151.986 387.214 152.18 387.455 152.429 387.619C152.679 387.783 152.971 387.865 153.305 387.865C153.64 387.865 153.931 387.783 154.181 387.619C154.43 387.455 154.623 387.214 154.759 386.897C154.898 386.58 154.967 386.19 154.967 385.727ZM163.5 382.455V389H162.305L159.457 384.88H159.409V389H158.025V382.455H159.24L162.065 386.571H162.122V382.455H163.5ZM170.748 382.455V389H169.553L166.705 384.88H166.657V389H165.273V382.455H166.488L169.313 386.571H169.371V382.455H170.748ZM172.521 389V382.455H176.932V383.596H173.905V385.155H176.705V386.296H173.905V387.859H176.945V389H172.521ZM184.437 384.746H183.038C183.012 384.565 182.96 384.404 182.881 384.263C182.802 384.121 182.701 383.999 182.577 383.899C182.454 383.799 182.311 383.722 182.149 383.669C181.989 383.616 181.816 383.589 181.628 383.589C181.289 383.589 180.994 383.673 180.743 383.842C180.491 384.008 180.296 384.251 180.158 384.57C180.019 384.888 179.95 385.273 179.95 385.727C179.95 386.194 180.019 386.586 180.158 386.903C180.299 387.221 180.495 387.461 180.746 387.623C180.997 387.784 181.288 387.865 181.619 387.865C181.804 387.865 181.975 387.841 182.133 387.792C182.293 387.743 182.435 387.672 182.558 387.578C182.682 387.482 182.784 387.366 182.865 387.229C182.948 387.093 183.006 386.937 183.038 386.763L184.437 386.769C184.401 387.07 184.311 387.359 184.166 387.638C184.023 387.915 183.83 388.164 183.587 388.383C183.347 388.6 183.059 388.773 182.724 388.901C182.392 389.027 182.016 389.089 181.596 389.089C181.012 389.089 180.49 388.957 180.03 388.693C179.572 388.429 179.21 388.047 178.943 387.546C178.679 387.045 178.547 386.439 178.547 385.727C178.547 385.013 178.681 384.406 178.95 383.906C179.218 383.405 179.583 383.023 180.043 382.761C180.503 382.497 181.021 382.365 181.596 382.365C181.975 382.365 182.327 382.418 182.651 382.525C182.977 382.631 183.266 382.787 183.517 382.991C183.768 383.194 183.973 383.442 184.131 383.736C184.29 384.03 184.393 384.367 184.437 384.746ZM185.811 383.596V382.455H191.186V383.596H189.182V389H187.814V383.596H185.811ZM194.085 382.455V389H192.702V382.455H194.085ZM201.869 385.727C201.869 386.441 201.734 387.048 201.463 387.549C201.195 388.05 200.828 388.432 200.364 388.696C199.901 388.958 199.381 389.089 198.804 389.089C198.222 389.089 197.7 388.957 197.238 388.693C196.775 388.429 196.41 388.047 196.142 387.546C195.873 387.045 195.739 386.439 195.739 385.727C195.739 385.013 195.873 384.406 196.142 383.906C196.41 383.405 196.775 383.023 197.238 382.761C197.7 382.497 198.222 382.365 198.804 382.365C199.381 382.365 199.901 382.497 200.364 382.761C200.828 383.023 201.195 383.405 201.463 383.906C201.734 384.406 201.869 385.013 201.869 385.727ZM200.466 385.727C200.466 385.265 200.397 384.875 200.258 384.558C200.122 384.24 199.929 383.999 199.68 383.835C199.43 383.671 199.138 383.589 198.804 383.589C198.469 383.589 198.177 383.671 197.928 383.835C197.679 383.999 197.485 384.24 197.347 384.558C197.21 384.875 197.142 385.265 197.142 385.727C197.142 386.19 197.21 386.58 197.347 386.897C197.485 387.214 197.679 387.455 197.928 387.619C198.177 387.783 198.469 387.865 198.804 387.865C199.138 387.865 199.43 387.783 199.68 387.619C199.929 387.455 200.122 387.214 200.258 386.897C200.397 386.58 200.466 386.19 200.466 385.727ZM208.999 382.455V389H207.803L204.956 384.88H204.908V389H203.524V382.455H204.738L207.564 386.571H207.621V382.455H208.999ZM212.373 382.455L212.249 387.038H211.079L210.951 382.455H212.373ZM211.664 389.083C211.453 389.083 211.272 389.009 211.121 388.859C210.969 388.708 210.895 388.527 210.897 388.316C210.895 388.107 210.969 387.928 211.121 387.779C211.272 387.63 211.453 387.555 211.664 387.555C211.866 387.555 212.044 387.63 212.198 387.779C212.351 387.928 212.429 388.107 212.431 388.316C212.429 388.457 212.391 388.586 212.319 388.703C212.249 388.818 212.156 388.911 212.041 388.981C211.926 389.049 211.8 389.083 211.664 389.083Z"
    fill="#141414"
  />
  <defs>
    <linearGradient
      id="paint0_linear_42109_3260"
      x1="17.1153"
      y1="83.5018"
      x2="25.9393"
      y2="94.0953"
      gradientUnits="userSpaceOnUse"
    >
      <stop stop-color="#3C9AE8" />
      <stop offset="1" stop-color="#84E2D8" />
    </linearGradient>
  </defs>
</svg>
