<svg width="520" height="385" viewBox="0 0 520 385" fill="none" xmlns="http://www.w3.org/2000/svg">
<g clip-path="url(#clip0_41127_2726)">
<path d="M369.1 282.375H89.0732C86.5781 282.372 84.186 281.378 82.4217 279.611C80.6575 277.844 79.665 275.448 79.6621 272.949V44.58C79.665 42.0811 80.6575 39.6853 82.4217 37.9182C84.186 36.1512 86.5781 35.1572 89.0732 35.1543H369.1C371.595 35.1572 373.987 36.1512 375.752 37.9182C377.516 39.6853 378.509 42.0811 378.511 44.58V272.949C378.509 275.448 377.516 277.844 375.752 279.611C373.987 281.378 371.595 282.372 369.1 282.375Z" fill="#272727"/>
<path d="M95.4222 41.8633C93.0187 41.8661 90.7145 42.8237 89.015 44.5258C87.3156 46.228 86.3596 48.5358 86.3569 50.943V266.592C86.3598 268.999 87.3158 271.307 89.0152 273.009C90.7147 274.711 93.0188 275.668 95.4222 275.671H287.09C309.553 275.646 331.089 266.697 346.973 250.788C362.857 234.879 371.792 213.31 371.817 190.812V50.943C371.815 48.5358 370.859 46.228 369.159 44.5258C367.46 42.8237 365.156 41.8662 362.752 41.8634L95.4222 41.8633Z" fill="#020202"/>
<path d="M493.835 354.176C493.052 353.179 491.989 352.439 490.782 352.053C489.576 351.667 488.281 351.651 487.066 352.009L486.8 352.088L484.416 361.41C484.059 360.02 483.295 356.884 482.813 353.814L482.771 353.56L482.535 353.664C480.042 354.768 477.699 356.182 475.561 357.874C471.774 360.917 468.693 364.75 466.533 369.106C464.374 373.462 463.187 378.236 463.056 383.098L463.052 383.277L463.048 383.389L463.363 383.277L470.137 380.852C473.136 381.117 476.157 380.707 478.978 379.654C481.798 378.6 484.349 376.929 486.443 374.762C489.18 371.871 491.057 368.153 492.872 364.554C493.403 363.506 493.947 362.425 494.504 361.385C495.125 360.254 495.393 358.963 495.274 357.678C495.155 356.393 494.653 355.173 493.835 354.176V354.176Z" fill="#272727"/>
<path d="M402.443 377.638H395.743L392.556 351.756H402.444L402.443 377.638Z" fill="#FFB6B6"/>
<path d="M402.263 375.446L395.11 372.532L394.905 372.448L390.955 375.446C388.725 375.447 386.587 376.334 385.01 377.914C383.433 379.493 382.547 381.635 382.547 383.868V384.142H404.148V375.446H402.263Z" fill="#2F2E41"/>
<path d="M450.235 377.638H443.536L440.349 351.756H450.237L450.235 377.638Z" fill="#FFB6B6"/>
<path d="M450.057 375.446L442.904 372.532L442.699 372.448L438.749 375.446C436.519 375.447 434.381 376.334 432.804 377.914C431.227 379.493 430.341 381.635 430.341 383.868V384.142H451.942V375.446H450.057Z" fill="#2F2E41"/>
<path d="M434.423 223.082C434.423 223.082 442.826 231.838 442.826 239.033C442.826 246.227 440.726 256.106 442.826 258.268C444.927 260.43 447.553 263.06 444.402 266.216C441.251 269.372 439.675 270.95 441.776 273.054C443.877 275.158 442.826 311.98 442.826 311.98L453.856 361.425H439.96L422.343 311.979L417.617 270.95L402.33 310.401L404.018 361.85L389.491 361.425L383.479 306.719C383.479 306.719 392.407 254.681 390.831 253.347C389.256 252.013 390.831 249.321 390.831 249.321L395.033 229.395L434.423 223.082Z" fill="#594214"/>
<path d="M392.351 232.082L390.775 243.521C390.775 243.521 393.927 246.911 395.502 246.487C397.078 246.063 402.855 243.597 402.855 243.597C402.855 243.597 409.683 247.334 413.359 247.758C417.035 248.182 436.468 245.64 436.993 244.369C437.518 243.098 443.623 238.122 443.623 238.122L441.195 223.608L392.351 232.082Z" fill="#E6E6E6"/>
<path d="M443.522 192.063C443.522 192.063 442.188 203.094 443.238 204.109C444.289 205.119 442.188 211.51 440.087 215.718C437.986 219.926 441.663 220.452 441.663 223.608C441.663 226.764 443.238 238.337 443.238 238.337C443.238 238.337 426.957 239.389 424.331 236.759C421.705 234.129 417.503 236.233 411.726 242.019C405.949 247.805 393.402 243.071 390.776 240.441C388.15 237.811 392.819 228.343 394.394 226.507C395.97 224.671 392.877 226.796 391.301 220.978C389.725 215.161 392.819 215.718 395.445 213.088C398.071 210.458 395.445 205.724 393.344 200.99C391.243 196.255 392.819 161.012 392.819 152.596C392.819 144.18 404.373 143.128 404.373 143.128L408.948 137.368L412.309 133.133L418.895 132.87L419.068 132.865L425.439 132.607L428.533 136.216L435.36 144.18L443.238 145.758C449.541 147.862 447.965 161.012 447.965 161.012L443.522 192.063Z" fill="#AA9514"/>
<path d="M418.57 130.588C426.026 130.588 432.07 124.535 432.07 117.067C432.07 109.599 426.026 103.545 418.57 103.545C411.114 103.545 405.069 109.599 405.069 117.067C405.069 124.535 411.114 130.588 418.57 130.588Z" fill="#FFB6B6"/>
<path d="M434.224 112.518C430.51 110.237 430.986 104.274 427.408 102.191C425.63 101.165 423.63 100.583 421.58 100.497C419.529 100.411 417.488 100.822 415.63 101.696C413.11 100.616 410.091 101.478 408.075 103.428C406.059 105.378 404.967 108.254 404.646 111.147C404.413 114.053 404.622 116.978 405.264 119.822C405.464 118.68 405.664 117.537 405.864 116.394L416.507 114.065C415.565 114.912 414.623 115.76 413.681 116.608C418.501 117.707 423.558 116.915 427.814 114.394C432.447 116.475 431.607 121.147 427.54 127.347C429.116 129.977 438.455 115.117 434.224 112.518Z" fill="#2F2E41"/>
<path d="M428.533 136.216C428.503 136.24 428.471 136.263 428.439 136.284C427.326 136.949 426.052 137.294 424.757 137.283C423.061 137.425 421.378 136.896 420.067 135.811C419.379 135.158 416.642 136.536 414.846 137.299C412.962 138.081 410.85 138.106 408.948 137.368L412.31 133.133L417.849 131.903H419.232L425.44 132.607L428.533 136.216Z" fill="#E6E6E6"/>
<path d="M519.181 384.787L331.256 385C331.148 385.001 331.041 384.98 330.941 384.939C330.841 384.898 330.75 384.838 330.673 384.761C330.596 384.685 330.535 384.595 330.493 384.495C330.451 384.395 330.429 384.288 330.429 384.18C330.428 384.071 330.449 383.964 330.49 383.864C330.531 383.763 330.591 383.672 330.667 383.595C330.743 383.518 330.833 383.457 330.933 383.415C331.033 383.373 331.14 383.351 331.248 383.351H331.256L519.181 383.138C519.399 383.139 519.607 383.226 519.761 383.381C519.914 383.535 520 383.744 520 383.962C520 384.18 519.914 384.39 519.761 384.544C519.607 384.699 519.399 384.786 519.181 384.787V384.787Z" fill="#272727"/>
<path d="M437.908 242.055C440.508 241.575 442.226 239.075 441.747 236.472C441.267 233.868 438.771 232.147 436.172 232.627C433.572 233.107 431.854 235.607 432.333 238.211C432.812 240.814 435.308 242.536 437.908 242.055Z" fill="#D1D3D4"/>
<path d="M445.383 239.86C446.002 239.495 446.533 239 446.94 238.408C447.346 237.815 447.618 237.141 447.737 236.432C447.855 235.724 447.817 234.997 447.624 234.305C447.432 233.613 447.091 232.971 446.624 232.425L462.049 205.428L452.999 205.921L439.404 232.082C438.541 232.928 438.017 234.062 437.932 235.269C437.847 236.476 438.208 237.672 438.945 238.631C439.682 239.589 440.744 240.244 441.931 240.471C443.118 240.697 444.346 240.48 445.384 239.86H445.383Z" fill="#FFB8B8"/>
<path d="M428.01 145.232C428.01 145.232 444.347 139.971 448.548 152.596C452.75 165.22 466.875 199.412 466.875 199.412L451.7 230.447L444.872 223.082L452.169 201.516L431.161 169.954L428.01 145.232Z" fill="#AA9514"/>
<path d="M452.219 227.277C451.728 226.444 451.104 225.696 450.372 225.063L445.16 220.039L444.87 220.686C444.335 221.529 443.985 222.475 443.841 223.463C443.698 224.451 443.764 225.458 444.036 226.419C444.308 227.379 444.78 228.271 445.421 229.036C446.061 229.801 446.856 230.422 447.752 230.858C448.518 231.261 449.381 231.439 450.243 231.374C450.672 231.336 451.087 231.198 451.452 230.969C451.818 230.74 452.124 230.428 452.346 230.058C452.549 229.618 452.643 229.136 452.621 228.652C452.599 228.168 452.462 227.697 452.219 227.277V227.277Z" fill="#E6E6E6"/>
<line x1="86" y1="66.5" x2="371" y2="66.5" stroke="#343434"/>
<line x1="111.5" y1="276" x2="111.5" y2="67" stroke="#343434"/>
<line x1="198.5" y1="276" x2="198.5" y2="67" stroke="#343434"/>
<line x1="288.5" y1="276" x2="288.5" y2="67" stroke="#343434"/>
<path fill-rule="evenodd" clip-rule="evenodd" d="M100.5 60C104.09 60 107 57.0899 107 53.5C107 49.9101 104.09 47 100.5 47C96.9102 47 94 49.9101 94 53.5C94 57.0899 96.9102 60 100.5 60ZM99.7777 57.1111C102.171 57.1111 104.111 55.171 104.111 52.7778C104.111 50.3845 102.171 48.4444 99.7777 48.4444C97.3845 48.4444 95.4444 50.3845 95.4444 52.7778C95.4444 55.171 97.3845 57.1111 99.7777 57.1111Z" fill="url(#paint0_linear_41127_2726)"/>
<rect x="91" y="74" width="16" height="16" rx="4" fill="#272727"/>
<rect x="120" y="74" width="70" height="34" rx="4" fill="#272727"/>
<rect x="120" y="114" width="70" height="34" rx="4" fill="#272727"/>
<rect x="208" y="74" width="70" height="126" rx="4" fill="#272727"/>
<rect x="208" y="206" width="70" height="18" rx="4" fill="#272727"/>
<rect x="176" y="47" width="138" height="13" rx="4" fill="#272727"/>
<rect x="120" y="154" width="70" height="34" rx="4" fill="#272727"/>
<rect x="91" y="95" width="16" height="16" rx="4" fill="#272727"/>
<rect x="91" y="116" width="16" height="16" rx="4" fill="#272727"/>
<path d="M165.6 180.156C170.162 180.156 173.861 176.452 173.861 171.882C173.861 167.312 170.162 163.608 165.6 163.608C161.037 163.608 157.339 167.312 157.339 171.882C157.339 176.452 161.037 180.156 165.6 180.156Z" fill="#13A8A8"/>
<path d="M247.261 58.5477C251.823 58.5477 255.522 54.8434 255.522 50.2738C255.522 45.7043 251.823 42 247.261 42C242.699 42 239 45.7043 239 50.2738C239 54.8434 242.699 58.5477 247.261 58.5477Z" fill="#13A8A8"/>
<path d="M331 9C331 4.02944 335.029 0 340 0H400C404.971 0 409 4.02944 409 9V9C409 13.9706 404.971 18 400 18H340C335.029 18 331 13.9706 331 9V9Z" fill="#13A8A8"/>
<path d="M344.963 12.1626C346.492 12.1626 347.578 11.2573 347.714 9.93018L347.718 9.88184H346.426L346.417 9.91699C346.277 10.5938 345.728 11.0376 344.967 11.0376C343.965 11.0376 343.346 10.1938 343.346 8.83154V8.82275C343.346 7.46045 343.965 6.62109 344.963 6.62109C345.719 6.62109 346.286 7.10449 346.422 7.81641V7.84717H347.714V7.79443C347.591 6.4541 346.466 5.49609 344.963 5.49609C343.122 5.49609 341.988 6.76611 341.988 8.82275V8.83154C341.988 10.8882 343.126 12.1626 344.963 12.1626ZM349.57 12H353.718V10.9058H350.897V5.65869H349.57V12ZM358.093 12.1626C359.727 12.1626 360.747 11.2178 360.747 9.81152V5.65869H359.42V9.69287C359.42 10.5146 358.945 11.0376 358.093 11.0376C357.24 11.0376 356.761 10.5146 356.761 9.69287V5.65869H355.434V9.81152C355.434 11.2222 356.467 12.1626 358.093 12.1626ZM365.182 12.1626C366.765 12.1626 367.74 11.3672 367.74 10.1104V10.106C367.74 9.11719 367.156 8.58105 365.815 8.3042L365.143 8.16797C364.396 8.01416 364.088 7.76807 364.088 7.35498V7.35059C364.088 6.87598 364.523 6.57715 365.178 6.57275C365.846 6.57275 366.286 6.88916 366.36 7.3418L366.369 7.39453H367.617L367.613 7.3374C367.529 6.27832 366.659 5.49609 365.178 5.49609C363.772 5.49609 362.761 6.27393 362.761 7.45166V7.45605C362.761 8.41846 363.328 9.03369 364.646 9.30176L365.314 9.43799C366.101 9.60059 366.413 9.8335 366.413 10.251V10.2554C366.413 10.7432 365.925 11.0815 365.218 11.0815C364.475 11.0815 363.961 10.7607 363.912 10.2861L363.908 10.2422H362.629L362.634 10.3125C362.708 11.4375 363.666 12.1626 365.182 12.1626ZM371.165 12H372.492V6.75293H374.395V5.65869H369.262V6.75293H371.165V12ZM376.198 12H380.4V10.9058H377.525V9.30176H380.237V8.28223H377.525V6.75293H380.4V5.65869H376.198V12ZM382.427 12H383.754V9.67969H384.84L386.022 12H387.525L386.189 9.48193C386.914 9.19629 387.336 8.49756 387.336 7.68457V7.67578C387.336 6.42773 386.509 5.65869 385.068 5.65869H382.427V12ZM383.754 8.71289V6.6958H384.905C385.569 6.6958 385.978 7.09131 385.978 7.70215V7.71094C385.978 8.33496 385.587 8.71289 384.923 8.71289H383.754ZM391.574 12.1626C393.156 12.1626 394.131 11.3672 394.131 10.1104V10.106C394.131 9.11719 393.547 8.58105 392.206 8.3042L391.534 8.16797C390.787 8.01416 390.479 7.76807 390.479 7.35498V7.35059C390.479 6.87598 390.914 6.57715 391.569 6.57275C392.237 6.57275 392.677 6.88916 392.751 7.3418L392.76 7.39453H394.008L394.004 7.3374C393.92 6.27832 393.05 5.49609 391.569 5.49609C390.163 5.49609 389.152 6.27393 389.152 7.45166V7.45605C389.152 8.41846 389.719 9.03369 391.037 9.30176L391.705 9.43799C392.492 9.60059 392.804 9.8335 392.804 10.251V10.2554C392.804 10.7432 392.316 11.0815 391.609 11.0815C390.866 11.0815 390.352 10.7607 390.304 10.2861L390.299 10.2422H389.02L389.025 10.3125C389.099 11.4375 390.057 12.1626 391.574 12.1626ZM396.264 9.9082H397.437L397.556 5.6543H396.15L396.264 9.9082ZM396.853 12.1274C397.35 12.1274 397.653 11.8462 397.653 11.3936C397.653 10.9365 397.35 10.6553 396.853 10.6553C396.361 10.6553 396.053 10.9365 396.053 11.3936C396.053 11.8462 396.361 12.1274 396.853 12.1274Z" fill="#141414"/>
<path d="M211 317C211 312.029 215.029 308 220 308H312C316.971 308 321 312.029 321 317V317C321 321.971 316.971 326 312 326H220C215.029 326 211 321.971 211 317V317Z" fill="#13A8A8"/>
<path d="M222.537 320.163C224.119 320.163 225.094 319.367 225.094 318.11V318.106C225.094 317.117 224.51 316.581 223.169 316.304L222.497 316.168C221.75 316.014 221.442 315.768 221.442 315.355V315.351C221.442 314.876 221.877 314.577 222.532 314.573C223.2 314.573 223.64 314.889 223.714 315.342L223.723 315.395H224.971L224.967 315.337C224.883 314.278 224.013 313.496 222.532 313.496C221.126 313.496 220.115 314.274 220.115 315.452V315.456C220.115 316.418 220.682 317.034 222 317.302L222.668 317.438C223.455 317.601 223.767 317.833 223.767 318.251V318.255C223.767 318.743 223.279 319.082 222.572 319.082C221.829 319.082 221.315 318.761 221.267 318.286L221.262 318.242H219.983L219.988 318.312C220.062 319.438 221.021 320.163 222.537 320.163ZM226.981 320H231.182V318.906H228.308V317.302H231.02V316.282H228.308V314.753H231.182V313.659H226.981V320ZM232.757 320H234.15L234.62 318.462H236.857L237.327 320H238.725L236.519 313.659H234.959L232.757 320ZM235.701 314.924H235.781L236.554 317.469H234.924L235.701 314.924ZM240.432 320H244.58V318.906H241.759V313.659H240.432V320ZM246.414 320H250.615V318.906H247.741V317.302H250.453V316.282H247.741V314.753H250.615V313.659H246.414V320ZM252.643 320H255.139C257.037 320 258.114 318.84 258.114 316.792V316.783C258.114 314.797 257.024 313.659 255.139 313.659H252.643V320ZM253.97 318.906V314.753H254.928C256.079 314.753 256.76 315.5 256.76 316.805V316.814C256.76 318.167 256.101 318.906 254.928 318.906H253.97ZM265.223 320.163C266.805 320.163 267.781 319.367 267.781 318.11V318.106C267.781 317.117 267.196 316.581 265.856 316.304L265.183 316.168C264.436 316.014 264.129 315.768 264.129 315.355V315.351C264.129 314.876 264.564 314.577 265.219 314.573C265.887 314.573 266.326 314.889 266.401 315.342L266.41 315.395H267.658L267.653 315.337C267.57 314.278 266.7 313.496 265.219 313.496C263.812 313.496 262.802 314.274 262.802 315.452V315.456C262.802 316.418 263.368 317.034 264.687 317.302L265.355 317.438C266.141 317.601 266.453 317.833 266.453 318.251V318.255C266.453 318.743 265.966 319.082 265.258 319.082C264.515 319.082 264.001 318.761 263.953 318.286L263.949 318.242H262.67L262.674 318.312C262.749 319.438 263.707 320.163 265.223 320.163ZM269.667 320H273.869V318.906H270.995V317.302H273.706V316.282H270.995V314.753H273.869V313.659H269.667V320ZM278.59 320.163C280.119 320.163 281.205 319.257 281.341 317.93L281.345 317.882H280.053L280.045 317.917C279.904 318.594 279.355 319.038 278.594 319.038C277.592 319.038 276.973 318.194 276.973 316.832V316.823C276.973 315.46 277.592 314.621 278.59 314.621C279.346 314.621 279.913 315.104 280.049 315.816V315.847H281.341V315.794C281.218 314.454 280.093 313.496 278.59 313.496C276.749 313.496 275.615 314.766 275.615 316.823V316.832C275.615 318.888 276.753 320.163 278.59 320.163ZM283.197 320H284.524V317.68H285.61L286.792 320H288.295L286.959 317.482C287.684 317.196 288.106 316.498 288.106 315.685V315.676C288.106 314.428 287.279 313.659 285.838 313.659H283.197V320ZM284.524 316.713V314.696H285.675C286.339 314.696 286.748 315.091 286.748 315.702V315.711C286.748 316.335 286.357 316.713 285.693 316.713H284.524ZM290.076 320H294.277V318.906H291.403V317.302H294.115V316.282H291.403V314.753H294.277V313.659H290.076V320ZM297.843 320H299.17V314.753H301.073V313.659H295.94V314.753H297.843V320ZM305.144 320.163C306.726 320.163 307.701 319.367 307.701 318.11V318.106C307.701 317.117 307.117 316.581 305.776 316.304L305.104 316.168C304.357 316.014 304.049 315.768 304.049 315.355V315.351C304.049 314.876 304.484 314.577 305.139 314.573C305.807 314.573 306.247 314.889 306.321 315.342L306.33 315.395H307.578L307.574 315.337C307.49 314.278 306.62 313.496 305.139 313.496C303.733 313.496 302.722 314.274 302.722 315.452V315.456C302.722 316.418 303.289 317.034 304.607 317.302L305.275 317.438C306.062 317.601 306.374 317.833 306.374 318.251V318.255C306.374 318.743 305.886 319.082 305.179 319.082C304.436 319.082 303.922 318.761 303.874 318.286L303.869 318.242H302.59L302.595 318.312C302.669 319.438 303.628 320.163 305.144 320.163ZM309.834 317.908H311.007L311.126 313.654H309.72L309.834 317.908ZM310.423 320.127C310.92 320.127 311.223 319.846 311.223 319.394C311.223 318.937 310.92 318.655 310.423 318.655C309.931 318.655 309.623 318.937 309.623 319.394C309.623 319.846 309.931 320.127 310.423 320.127Z" fill="#141414"/>
<path d="M166 176V236H91" stroke="#13A8A8"/>
<path d="M266 308L266 219L242 219" stroke="#13A8A8"/>
<path d="M247 47L247 10L331 10" stroke="#13A8A8"/>
<path d="M1 237C1 232.029 5.02944 228 10 228H91C95.9706 228 100 232.029 100 237V237C100 241.971 95.9706 246 91 246H10C5.02943 246 1 241.971 1 237V237Z" fill="#13A8A8"/>
<path d="M10.269 240H11.5962V237.328H14.4526V240H15.7798V233.659H14.4526V236.234H11.5962V233.659H10.269V240ZM17.9479 240H22.149V238.906H19.275V237.302H21.9864V236.282H19.275V234.753H22.149V233.659H17.9479V240ZM24.1765 240H28.3249V238.906H25.5037V233.659H24.1765V240ZM30.159 240H31.3412V235.685H31.4291L33.055 240H33.8856L35.5116 235.685H35.5995V240H36.7816V233.659H35.2611L33.5121 238.299H33.433L31.6796 233.659H30.159V240ZM41.9044 240H43.2315V238H44.5191C45.8551 238 46.7472 237.139 46.7472 235.834V235.825C46.7472 234.52 45.8551 233.659 44.5191 233.659H41.9044V240ZM44.1939 234.709C44.9542 234.709 45.4024 235.109 45.4024 235.83V235.838C45.4024 236.559 44.9542 236.963 44.1939 236.963H43.2315V234.709H44.1939ZM48.5988 240H49.926V237.68H51.0114L52.1936 240H53.6965L52.3606 237.482C53.0857 237.196 53.5075 236.498 53.5075 235.685V235.676C53.5075 234.428 52.6814 233.659 51.24 233.659H48.5988V240ZM49.926 236.713V234.696H51.0774C51.7409 234.696 52.1496 235.091 52.1496 235.702V235.711C52.1496 236.335 51.7585 236.713 51.0949 236.713H49.926ZM55.4779 240H59.679V238.906H56.805V237.302H59.5164V236.282H56.805V234.753H59.679V233.659H55.4779V240ZM63.3676 240H65.0024L67.1162 233.659H65.622L64.2246 238.523H64.1455L62.7436 233.659H61.2539L63.3676 240ZM68.8316 240H70.1588V233.659H68.8316V240ZM72.3269 240H76.528V238.906H73.654V237.302H76.3654V236.282H73.654V234.753H76.528V233.659H72.3269V240ZM79.8519 240H81.1043L82.2908 235.729H82.3612L83.5609 240H84.8045L86.4876 233.659H85.1165L84.1365 238.189H84.0662L82.8885 233.659H81.7679L80.6121 238.189H80.5418L79.553 233.659H78.1732L79.8519 240ZM88.5195 237.908H89.6928L89.8115 233.654H88.4052L88.5195 237.908ZM89.1083 240.127C89.6049 240.127 89.9081 239.846 89.9081 239.394C89.9081 238.937 89.6049 238.655 89.1083 238.655C88.6161 238.655 88.3085 238.937 88.3085 239.394C88.3085 239.846 88.6161 240.127 89.1083 240.127Z" fill="#141414"/>
<path d="M320.851 116.46C320.987 117.165 321.276 117.833 321.697 118.414C322.119 118.996 322.662 119.478 323.29 119.827C323.917 120.176 324.613 120.382 325.329 120.432C326.045 120.482 326.763 120.375 327.433 120.117L347.677 143.704L350.24 134.997L330.17 113.417C329.662 112.319 328.771 111.445 327.663 110.961C326.556 110.478 325.31 110.418 324.161 110.793C323.012 111.168 322.041 111.952 321.431 112.996C320.821 114.041 320.615 115.273 320.851 116.46L320.851 116.46Z" fill="#FFB8B8"/>
<path d="M417.971 161.002C417.971 161.002 420.828 149.725 407.664 146.492C394.5 143.259 356.871 139.105 356.871 139.105L337.855 118.894L331.411 128.267L352.729 154.8L403.241 165.191L417.971 161.002Z" fill="#AA9514"/>
<path d="M334.544 127.576C335.134 126.81 335.596 125.952 335.912 125.037L338.639 118.326L337.931 118.296C336.951 118.112 335.944 118.136 334.974 118.369C334.005 118.602 333.096 119.037 332.306 119.646C331.516 120.255 330.864 121.025 330.392 121.904C329.92 122.783 329.639 123.753 329.567 124.748C329.477 125.61 329.632 126.479 330.012 127.256C330.206 127.642 330.488 127.976 330.836 128.231C331.183 128.486 331.586 128.655 332.012 128.725C332.495 128.751 332.977 128.66 333.417 128.46C333.858 128.26 334.244 127.957 334.544 127.576V127.576Z" fill="#E6E6E6"/>
<path d="M243.261 227.548C247.823 227.548 251.522 223.843 251.522 219.274C251.522 214.704 247.823 211 243.261 211C238.699 211 235 214.704 235 219.274C235 223.843 238.699 227.548 243.261 227.548Z" fill="#13A8A8"/>
<path d="M132.282 166C132.282 166.696 132.558 167.364 133.05 167.856C133.543 168.348 134.21 168.625 134.907 168.625C135.603 168.625 136.271 168.348 136.763 167.856C137.255 167.364 137.532 166.696 137.532 166C137.532 165.304 137.255 164.636 136.763 164.144C136.271 163.652 135.603 163.375 134.907 163.375C134.21 163.375 133.543 163.652 133.05 164.144C132.558 164.636 132.282 165.304 132.282 166V166ZM145.083 165.395C142.861 160.715 139.503 158.359 135 158.359C130.496 158.359 127.139 160.715 124.918 165.398C124.828 165.586 124.782 165.792 124.782 166.001C124.782 166.21 124.828 166.416 124.918 166.605C127.139 171.285 130.498 173.641 135 173.641C139.505 173.641 142.861 171.285 145.083 166.602C145.264 166.223 145.264 165.782 145.083 165.395V165.395ZM134.907 170.125C132.629 170.125 130.782 168.278 130.782 166C130.782 163.722 132.629 161.875 134.907 161.875C137.185 161.875 139.032 163.722 139.032 166C139.032 168.278 137.185 170.125 134.907 170.125Z" fill="black" fill-opacity="0.85"/>
<path d="M132.282 126C132.282 126.696 132.558 127.364 133.05 127.856C133.543 128.348 134.21 128.625 134.907 128.625C135.603 128.625 136.271 128.348 136.763 127.856C137.255 127.364 137.532 126.696 137.532 126C137.532 125.304 137.255 124.636 136.763 124.144C136.271 123.652 135.603 123.375 134.907 123.375C134.21 123.375 133.543 123.652 133.05 124.144C132.558 124.636 132.282 125.304 132.282 126V126ZM145.083 125.395C142.861 120.715 139.503 118.359 135 118.359C130.496 118.359 127.139 120.715 124.918 125.398C124.828 125.586 124.782 125.792 124.782 126.001C124.782 126.21 124.828 126.416 124.918 126.605C127.139 131.285 130.498 133.641 135 133.641C139.505 133.641 142.861 131.285 145.083 126.602C145.264 126.223 145.264 125.782 145.083 125.395V125.395ZM134.907 130.125C132.629 130.125 130.782 128.278 130.782 126C130.782 123.722 132.629 121.875 134.907 121.875C137.185 121.875 139.032 123.722 139.032 126C139.032 128.278 137.185 130.125 134.907 130.125Z" fill="black" fill-opacity="0.85"/>
<path d="M132.282 87C132.282 87.6962 132.558 88.3639 133.05 88.8562C133.543 89.3484 134.21 89.625 134.907 89.625C135.603 89.625 136.271 89.3484 136.763 88.8562C137.255 88.3639 137.532 87.6962 137.532 87C137.532 86.3038 137.255 85.6361 136.763 85.1438C136.271 84.6516 135.603 84.375 134.907 84.375C134.21 84.375 133.543 84.6516 133.05 85.1438C132.558 85.6361 132.282 86.3038 132.282 87V87ZM145.083 86.3953C142.861 81.7148 139.503 79.3594 135 79.3594C130.496 79.3594 127.139 81.7148 124.918 86.3977C124.828 86.5864 124.782 86.7925 124.782 87.0012C124.782 87.2099 124.828 87.416 124.918 87.6047C127.139 92.2852 130.498 94.6406 135 94.6406C139.505 94.6406 142.861 92.2852 145.083 87.6023C145.264 87.2227 145.264 86.782 145.083 86.3953V86.3953ZM134.907 91.125C132.629 91.125 130.782 89.2781 130.782 87C130.782 84.7219 132.629 82.875 134.907 82.875C137.185 82.875 139.032 84.7219 139.032 87C139.032 89.2781 137.185 91.125 134.907 91.125Z" fill="black" fill-opacity="0.85"/>
</g>
<defs>
<linearGradient id="paint0_linear_41127_2726" x1="96.3833" y1="48.4733" x2="104.487" y2="58.2017" gradientUnits="userSpaceOnUse">
<stop stop-color="#3C9AE8"/>
<stop offset="1" stop-color="#84E2D8"/>
</linearGradient>
<clipPath id="clip0_41127_2726">
<rect width="520" height="385" fill="white"/>
</clipPath>
</defs>
</svg>
