<svg width="700" height="416" viewBox="0 0 408 243" fill="none" xmlns="http://www.w3.org/2000/svg">
  <path
    d="M86.8275 38.9128C86.0374 37.0829 84.8383 35.4595 83.3227 34.168C81.8072 32.8764 80.0159 31.9512 78.0869 31.4639C73.8043 30.3473 67.5334 32.0482 64.3138 34.4904C58.4245 38.9577 56.9873 54.3045 61.0335 59.1543C61.8383 59.1219 64.6153 59.0979 65.4299 59.0747L66.5822 56.1516V59.0459C72.9399 58.8963 79.559 58.99 86.1816 59.0868C86.7752 55.6531 88.1892 42.2158 86.8275 38.9128Z"
    fill="#2F2E41"
  />
  <path d="M85.748 223.97L91.5467 223.97L94.3057 201.55L85.7471 201.55L85.748 223.97Z" fill="#ED909E" />
  <path d="M34.985 220.356L40.5967 221.822L48.9082 200.824L40.626 198.661L34.985 220.356Z" fill="#ED909E" />
  <path
    d="M77.9741 55.4531C72.9016 55.4531 68.7896 51.3313 68.7896 46.2468C68.7896 41.1623 72.9016 37.0405 77.9741 37.0405C83.0466 37.0405 87.1587 41.1623 87.1587 46.2468C87.1587 51.3313 83.0466 55.4531 77.9741 55.4531Z"
    fill="#ED909E"
  />
  <path
    d="M84.2847 34.2579C82.52 33.1795 80.4986 32.5962 78.4319 32.5689C76.3652 32.5416 74.3292 33.0713 72.5367 34.1027C70.7442 35.1341 69.261 36.6293 68.2423 38.4319C67.2236 40.2345 66.7067 42.2783 66.7458 44.3497C71.7523 45.6323 77.0876 46.1688 82.7413 44.6586L84.0337 41.4881L84.7957 44.661C86.5254 45.8806 88.1949 45.8784 89.8041 44.6544C89.8723 42.5888 89.3985 40.5416 88.4299 38.7171C87.4613 36.8927 86.032 35.3551 84.2847 34.2579Z"
    fill="#2F2E41"
  />
  <path
    d="M83.1542 235.007H87.269L88.0035 231.113L89.8846 235.007H100.798C101.321 235.007 101.831 234.84 102.252 234.529C102.673 234.218 102.985 233.781 103.14 233.28C103.296 232.779 103.288 232.242 103.117 231.746C102.947 231.251 102.623 230.823 102.192 230.525L93.4769 224.491V220.555L84.31 221.103L83.1542 235.007Z"
    fill="#2F2E41"
  />
  <path
    d="M29.1894 230.247L33.1712 231.287L34.8618 227.705L35.7022 231.949L46.2628 234.708C46.769 234.84 47.3041 234.807 47.7901 234.613C48.276 234.418 48.6873 234.074 48.9639 233.629C49.2405 233.184 49.368 232.662 49.3277 232.139C49.2873 231.616 49.0813 231.12 48.7397 230.723L41.8245 222.681L42.8152 218.871L33.8067 217.084L29.1894 230.247Z"
    fill="#2F2E41"
  />
  <path
    d="M35.6964 206.256C39.2454 193.032 43.1917 180.099 52.6942 171.238L55.3102 132.757C51.6312 125.908 61.1837 107.832 61.1837 107.832L64.5206 102.962L87.6511 106.986V106.986C93.0646 121.786 95.7038 125.435 95.3931 153.226C95.0823 181.016 94.3266 209.882 94.3266 209.882H94.6611C95.2163 209.882 95.7487 210.103 96.1413 210.496C96.5338 210.89 96.7544 211.423 96.7544 211.98C96.7544 212.536 96.5338 213.07 96.1413 213.463C95.7487 213.857 95.2163 214.078 94.6611 214.078H84.1948C83.6396 214.078 83.1072 213.857 82.7146 213.463C82.3221 213.07 82.1015 212.536 82.1015 211.98C82.1015 211.423 82.3221 210.89 82.7146 210.496C83.1072 210.103 83.6396 209.882 84.1948 209.882H84.4647C78.3213 192.572 77.2239 165.949 76.9511 137.805L68.2147 173.373L47.1021 206.122C47.6407 206.164 48.142 206.413 48.5008 206.818C48.8596 207.223 49.048 207.751 49.0263 208.292C49.0046 208.833 48.7746 209.345 48.3845 209.719C47.9945 210.094 47.4748 210.303 46.9347 210.301H36.4683C35.9816 210.302 35.5098 210.132 35.1345 209.821C34.7592 209.51 34.5038 209.078 34.4123 208.599C34.3208 208.12 34.3991 207.624 34.6335 207.196C34.8679 206.768 35.2438 206.436 35.6964 206.256Z"
    fill="#2F2E41"
  />
  <path
    d="M58.791 111.419H58.791C58.878 111.077 59.0708 110.771 59.342 110.545C59.6131 110.319 59.9486 110.185 60.3003 110.163C63.1484 107.265 65.2824 81.5488 63.042 79.7715L63.0454 79.7397L63.7129 65.4476C63.7371 64.9285 63.9513 64.4366 64.3144 64.0658C64.6776 63.695 65.1643 63.4713 65.6816 63.4374L69.207 63.2064C69.2553 63.2048 69.3012 63.1843 69.3348 63.1495C69.3685 63.1146 69.3873 63.068 69.3873 63.0195C69.3873 62.6293 69.464 62.2429 69.6129 61.8823C69.7619 61.5218 69.9803 61.1942 70.2556 60.9182C70.5309 60.6423 70.8577 60.4234 71.2174 60.2741C71.5771 60.1247 71.9626 60.0479 72.3519 60.0479H82.7894C83.4655 60.0481 84.1182 60.2957 84.625 60.7441C85.1319 61.1926 85.4581 61.811 85.5423 62.4834C85.5469 62.5297 85.5688 62.5725 85.6036 62.6033C85.6384 62.6342 85.6835 62.6507 85.7299 62.6496L85.7311 62.6496C86.9171 62.6251 88.0726 63.0276 88.9878 63.784C89.9031 64.5404 90.5175 65.6006 90.7196 66.7723C92.1465 75.0943 91.4726 92.4619 90.0587 102.962C89.5665 106.618 93.3238 113.635 93.51 116.694C93.5284 116.989 93.4886 117.286 93.3926 117.566C93.2967 117.846 93.1465 118.104 92.9508 118.326C93.367 118.446 93.7204 118.724 93.9365 119.1C94.1525 119.477 94.2143 119.922 94.1089 120.344H94.1089C94.0003 120.775 93.7251 121.146 93.3439 121.374C92.9626 121.603 92.5064 121.67 92.0758 121.561L60.0055 113.457C59.5748 113.348 59.2049 113.073 58.9772 112.69C58.7494 112.308 58.6824 111.851 58.791 111.419Z"
    fill="#D8BD14"
  />
  <path
    d="M127.772 76.1698C127.215 75.952 126.618 75.8591 126.022 75.8977C125.426 75.9363 124.845 76.1054 124.321 76.3932C123.798 76.6809 123.343 77.0803 122.99 77.5632C122.637 78.0461 122.393 78.6008 122.277 79.1881L90.0511 86.1351L95.0334 91.8155L125.771 84.0987C126.768 84.229 127.779 83.9881 128.61 83.4216C129.442 82.8551 130.038 82.0024 130.285 81.025C130.531 80.0477 130.412 79.0137 129.949 78.1188C129.485 77.224 128.711 76.5305 127.772 76.1698V76.1698Z"
    fill="#9E616A"
  />
  <path
    d="M85.3536 93.9681C90.3291 96.5785 120.385 86.366 121.698 85.9176L122.032 85.8036L115.851 80.1083L92.0712 83.5988L91.3506 69.6425C91.2691 68.1025 90.7147 66.6254 89.7633 65.4135C88.8118 64.2016 87.5098 63.3141 86.0357 62.8727C84.7301 62.4836 83.3431 62.4607 82.0255 62.8066C80.7078 63.1525 79.5101 63.854 78.5624 64.8347C77.6148 65.8154 76.9537 67.0378 76.6509 68.3689C76.348 69.7001 76.4152 71.0889 76.845 72.3845L82.7293 90.1193C83.1825 91.4808 83.9569 92.7125 84.9867 93.7098C85.0961 93.8129 85.2197 93.8999 85.3536 93.9681Z"
    fill="#D8BD14"
  />
  <path
    d="M112.833 234.73H298.855L298.902 234.583L298.948 234.436C299.556 232.498 300.112 230.533 300.612 228.556C301.113 226.578 301.558 224.588 301.944 222.599C302.469 219.898 302.889 217.169 303.203 214.431C303.517 211.694 303.724 208.947 303.823 206.21C303.995 201.358 303.188 196.522 301.452 191.991C299.715 187.459 297.084 183.325 293.717 179.837C290.349 176.348 286.313 173.577 281.852 171.689C277.391 169.8 272.595 168.833 267.752 168.846H140.41C135.346 168.837 130.337 169.899 125.71 171.96C121.083 174.022 116.941 177.039 113.555 180.813C110.168 184.587 107.614 189.034 106.057 193.864C104.501 198.695 103.978 203.799 104.522 208.846V208.846C104.885 212.109 105.494 215.34 106.344 218.51C107.223 221.79 108.333 225.003 109.664 228.126C110.118 229.19 110.6 230.256 111.11 231.324C111.62 232.391 112.155 233.452 112.715 234.508L112.774 234.619L112.833 234.73Z"
    fill="#272727"
  />
  <path
    d="M139.041 182.065H272.591C275.534 182.065 278.356 180.893 280.436 178.808C282.517 176.722 283.686 173.894 283.686 170.944C283.686 167.995 282.517 165.166 280.436 163.081C278.356 160.995 275.534 159.824 272.591 159.824H139.041C136.099 159.824 133.277 160.995 131.196 163.081C129.115 165.166 127.947 167.995 127.947 170.944C127.947 173.894 129.115 176.722 131.196 178.808C133.277 180.893 136.099 182.065 139.041 182.065Z"
    fill="#5273E0"
  />
  <path
    d="M137.357 174.374H273.296L273.388 174.081C275.491 167.393 276.69 160.453 276.952 153.446C277.072 149.891 276.477 146.349 275.202 143.029C273.927 139.71 271.998 136.681 269.531 134.125C267.063 131.569 264.107 129.537 260.839 128.151C257.571 126.764 254.058 126.051 250.51 126.055H157.554C153.842 126.051 150.172 126.831 146.781 128.343C143.39 129.856 140.355 132.067 137.873 134.833C135.391 137.6 133.518 140.859 132.377 144.399C131.235 147.938 130.85 151.68 131.246 155.379C131.931 161.643 133.947 167.959 137.238 174.152L137.357 174.374Z"
    fill="#272727"
  />
  <path
    d="M155.787 140.1H254.171C257.113 140.1 259.935 138.929 262.016 136.843C264.096 134.758 265.265 131.929 265.265 128.98C265.265 126.031 264.096 123.202 262.016 121.117C259.935 119.031 257.113 117.859 254.171 117.859H155.787C152.845 117.859 150.023 119.031 147.942 121.117C145.862 123.202 144.693 126.031 144.693 128.98C144.693 131.929 145.862 134.758 147.942 136.843C150.023 138.929 152.845 140.1 155.787 140.1Z"
    fill="#5273E0"
  />
  <path
    d="M149.236 100.986C151.298 98.6818 153.821 96.8388 156.64 95.5765C159.46 94.3141 162.513 93.6607 165.601 93.6587H242.461C245.405 93.6558 248.319 94.247 251.029 95.397C253.74 96.5471 256.192 98.2325 258.238 100.353C260.285 102.473 261.885 104.984 262.943 107.738C264 110.491 264.494 113.43 264.395 116.378C264.179 122.179 263.187 127.925 261.447 133.462L261.355 133.756H148.859L148.742 133.533C146.114 128.714 144.43 123.435 143.781 117.981C143.449 114.923 143.763 111.829 144.703 108.901C145.643 105.973 147.187 103.276 149.236 100.986Z"
    fill="#272727"
  />
  <path
    d="M167.004 93.6587H239.606C240.146 95.3275 240.284 97.1005 240.009 98.8329C239.734 100.565 239.054 102.208 238.025 103.627C236.996 105.046 235.646 106.2 234.087 106.996C232.527 107.792 230.802 108.208 229.052 108.208H177.558C175.808 108.208 174.083 107.792 172.523 106.996C170.964 106.2 169.614 105.046 168.585 103.627C167.556 102.208 166.876 100.565 166.601 98.8329C166.326 97.1005 166.464 95.3275 167.004 93.6587Z"
    fill="#5273E0"
  />
  <path
    d="M110.049 227.962C110.953 230.085 111.965 232.201 113.084 234.311H298.548C299.763 230.439 300.759 226.503 301.533 222.519C301.187 222.25 300.787 222.058 300.361 221.958C299.935 221.858 299.492 221.852 299.063 221.94C298.179 222.22 297.415 222.791 296.894 223.56C295.332 225.591 294.679 228.163 294.064 230.656C293.407 229.187 292.724 227.68 291.577 226.547C291.121 226.073 290.571 225.699 289.963 225.448C289.355 225.197 288.701 225.076 288.044 225.091C287.579 224.258 286.916 223.553 286.114 223.039C284.988 222.368 283.451 222.275 282.425 223.085C281.737 223.708 281.278 224.545 281.123 225.461C280.55 227.962 281.027 230.572 281.504 233.098C280.294 232.032 279.047 230.949 277.536 230.4C276.851 230.149 276.123 230.042 275.396 230.085C275.254 228.689 274.886 227.326 274.308 226.048C273.818 224.823 272.972 223.775 271.88 223.039C270.753 222.368 269.217 222.275 268.191 223.085C267.503 223.708 267.044 224.545 266.889 225.461C266.316 227.962 266.793 230.572 267.27 233.098C266.06 232.032 264.813 230.949 263.301 230.4C262.617 230.149 261.889 230.042 261.162 230.085C261.02 228.689 260.652 227.326 260.073 226.048C259.584 224.823 258.738 223.775 257.645 223.039C256.519 222.368 254.983 222.275 253.957 223.085C253.269 223.708 252.81 224.545 252.655 225.461C252.081 227.962 252.559 230.572 253.036 233.098C251.826 232.032 250.578 230.949 249.067 230.4C248.383 230.149 247.655 230.042 246.928 230.085C246.786 228.689 246.418 227.326 245.839 226.048C245.35 224.823 244.504 223.775 243.411 223.039C242.285 222.368 240.748 222.275 239.723 223.085C239.034 223.708 238.576 224.545 238.421 225.461C237.847 227.962 238.324 230.572 238.802 233.098C237.592 232.032 236.344 230.949 234.833 230.4C234.149 230.149 233.421 230.042 232.694 230.085C232.551 228.689 232.184 227.326 231.605 226.048C231.116 224.823 230.269 223.775 229.177 223.039C228.051 222.368 226.514 222.275 225.489 223.085C224.8 223.708 224.341 224.545 224.187 225.461C223.613 227.962 224.09 230.572 224.568 233.098C223.358 232.032 222.11 230.949 220.599 230.4C219.915 230.149 219.186 230.042 218.459 230.085C218.317 228.689 217.949 227.326 217.371 226.048C216.881 224.823 216.035 223.775 214.943 223.039C213.817 222.368 212.28 222.275 211.254 223.085C210.566 223.708 210.107 224.545 209.952 225.461C209.379 227.962 209.856 230.572 210.333 233.098C209.123 232.032 207.876 230.949 206.364 230.4C205.68 230.149 204.952 230.042 204.225 230.085C204.083 228.689 203.715 227.326 203.137 226.048C202.647 224.823 201.801 223.775 200.708 223.039C199.582 222.368 198.046 222.275 197.02 223.085C196.332 223.708 195.873 224.545 195.718 225.461C195.145 227.962 195.622 230.572 196.099 233.098C194.889 232.032 193.642 230.949 192.13 230.4C191.446 230.149 190.718 230.042 189.991 230.085C189.849 228.689 189.481 227.326 188.902 226.048C188.413 224.823 187.567 223.775 186.474 223.039C185.348 222.368 183.812 222.275 182.786 223.085C182.098 223.708 181.639 224.545 181.484 225.461C180.91 227.962 181.388 230.572 181.865 233.098C180.655 232.032 179.407 230.949 177.896 230.4C177.212 230.149 176.484 230.042 175.757 230.085C175.614 228.689 175.247 227.326 174.668 226.048C174.179 224.823 173.333 223.775 172.24 223.039C171.114 222.368 169.577 222.275 168.552 223.085C167.863 223.708 167.405 224.545 167.25 225.461C166.676 227.962 167.153 230.572 167.631 233.098C166.421 232.032 165.173 230.949 163.662 230.4C162.978 230.149 162.25 230.042 161.523 230.085C161.38 228.689 161.013 227.326 160.434 226.048C159.945 224.823 159.098 223.775 158.006 223.039C156.88 222.368 155.343 222.275 154.318 223.085C153.629 223.708 153.17 224.545 153.016 225.461C152.442 227.962 152.919 230.572 153.396 233.098C152.187 232.032 150.939 230.949 149.428 230.4C148.744 230.149 148.015 230.042 147.288 230.085C147.146 228.689 146.778 227.326 146.2 226.048C145.71 224.823 144.864 223.775 143.772 223.039C142.645 222.368 141.109 222.275 140.083 223.085C139.395 223.708 138.936 224.545 138.781 225.461C138.208 227.962 138.685 230.572 139.162 233.098C137.952 232.032 136.705 230.949 135.193 230.4C134.509 230.149 133.781 230.042 133.054 230.085C132.912 228.689 132.544 227.326 131.966 226.048C131.476 224.823 130.63 223.775 129.537 223.039C128.411 222.368 126.875 222.275 125.849 223.085C125.161 223.708 124.702 224.545 124.547 225.461C123.974 227.962 124.451 230.572 124.928 233.098C123.718 232.032 122.471 230.949 120.959 230.4C120.275 230.149 119.547 230.042 118.82 230.085C118.678 228.689 118.31 227.326 117.731 226.048C117.242 224.823 116.396 223.775 115.303 223.039C114.177 222.368 112.641 222.275 111.615 223.085C110.927 223.708 110.468 224.545 110.313 225.461C110.131 226.282 110.043 227.121 110.049 227.962Z"
    fill="#3F3D56"
  />
  <path
    d="M261.554 107.309C258.616 106.01 255.074 106.502 252.452 108.295C249.69 110.184 248.405 113.509 248.741 116.79C248.927 118.672 249.688 120.451 250.92 121.884L250.476 121.7C251.844 121.683 252.593 120.079 252.385 118.868C252.103 117.227 250.234 116.379 248.749 116.255C246.727 116.088 244.783 116.967 242.96 117.725C241.003 118.545 238.998 119.247 236.957 119.825C232.806 120.987 228.527 121.626 224.218 121.729C222.094 121.78 219.969 121.697 217.855 121.48C215.924 121.281 213.944 121.035 212.132 120.298C210.3 119.553 208.718 118.328 207.936 116.466C207.55 115.642 207.394 114.728 207.484 113.822C207.574 112.916 207.907 112.051 208.447 111.319C208.525 111.242 208.621 111.187 208.727 111.159C208.833 111.131 208.944 111.13 209.05 111.158C209.156 111.187 209.253 111.242 209.331 111.318C209.409 111.395 209.466 111.491 209.496 111.597C209.786 113.033 209.774 114.515 209.461 115.946C209.148 117.378 208.54 118.728 207.677 119.912C206.76 121.174 205.571 122.213 204.198 122.951C202.826 123.689 201.305 124.107 199.748 124.175C196.195 124.367 192.72 122.987 189.634 121.352C186.409 119.643 183.467 117.454 180.189 115.84C177.026 114.283 173.382 113.136 169.864 114.07C167.059 114.815 164.095 117.27 165.02 120.497C165.378 121.744 166.375 122.794 167.73 122.79C168.88 122.786 170.206 122.058 170.345 120.811C170.512 119.318 169.084 118.145 167.815 117.704C165.996 117.073 163.967 117.546 162.106 117.704C159.052 117.978 156.004 117.114 153.544 115.277C151.173 113.547 149.445 111.073 148.634 108.248C148.443 107.528 148.32 106.792 148.264 106.049C148.2 105.241 149.456 105.246 149.52 106.049C149.675 107.564 150.128 109.033 150.853 110.371C151.578 111.709 152.561 112.89 153.744 113.845C154.922 114.83 156.281 115.574 157.745 116.033C159.335 116.489 161.002 116.612 162.642 116.395C164.529 116.202 166.557 115.856 168.379 116.575C169.775 117.126 171.122 118.219 171.504 119.735C172.249 122.684 168.881 124.822 166.3 123.777C163.403 122.604 162.956 118.688 164.499 116.289C166.353 113.406 170.053 112.285 173.321 112.499C181.087 113.009 186.721 119.247 193.728 121.844C197.035 123.069 200.853 123.543 204.015 121.645C205.295 120.847 206.366 119.754 207.138 118.456C207.911 117.158 208.362 115.694 208.454 114.186C208.497 113.43 208.44 112.672 208.285 111.931L209.335 112.209C208.552 113.224 208.585 114.609 209.002 115.765C209.509 117.058 210.479 118.116 211.724 118.729C213.091 119.4 214.564 119.83 216.076 120.002C217.753 120.246 219.442 120.395 221.135 120.45C227.949 120.7 234.743 119.569 241.11 117.122C243.979 116.018 247.019 114.313 250.178 115.253C252.559 115.961 254.384 118.244 253.389 120.766C253.207 121.293 252.895 121.765 252.483 122.139C252.071 122.514 251.572 122.778 251.031 122.908C250.745 122.994 250.438 122.982 250.159 122.873C249.904 122.673 249.688 122.428 249.523 122.15C249.1 121.595 248.74 120.995 248.448 120.362C247.336 117.937 247.13 115.193 247.868 112.628C249.617 106.675 256.618 103.759 262.188 106.222C262.926 106.548 262.287 107.633 261.554 107.309L261.554 107.309Z"
    fill="#3F3D56"
  />
  <path
    d="M275.29 144.813C273.492 149.154 270.754 153.041 267.275 156.193C263.795 159.344 259.66 161.681 255.169 163.035C253.639 163.501 252.07 163.827 250.481 164.01C248.968 164.174 247.308 164.078 246.055 163.116C244.251 161.73 244.289 157.768 247.147 157.798C248.559 157.812 249.741 159.109 249.917 160.456C250.122 162.029 249.147 163.498 247.978 164.448C245.414 166.533 241.896 166.79 238.771 166.137C235.181 165.388 232.035 163.354 228.887 161.571C225.283 159.53 221 157.481 216.761 158.574C213.546 159.403 210.614 162.786 211.662 166.24L210.74 165.863C212.135 165.229 212.474 163.476 211.926 162.135C211.24 160.456 209.235 159.829 207.571 159.83C205.377 159.832 203.351 160.852 201.404 161.752C199.612 162.597 197.75 163.285 195.84 163.807C188.305 165.771 180.325 165.061 173.252 161.799C171.516 161.011 169.864 160.05 168.321 158.93C167.099 158.027 165.689 156.448 166.673 154.863C166.854 154.554 167.108 154.295 167.413 154.107C167.717 153.92 168.063 153.811 168.42 153.789C169.279 153.785 169.656 154.383 169.925 155.113C170.455 156.668 170.461 158.354 169.941 159.912C168.851 163.364 165.945 165.747 162.499 166.617C158.688 167.579 154.584 166.923 150.899 165.735C143.853 163.439 137.783 158.832 133.669 152.656C133.155 151.881 132.679 151.081 132.236 150.263C131.85 149.551 132.934 148.914 133.32 149.627C136.7 155.803 142.032 160.678 148.478 163.484C154.393 166.059 164.186 167.955 168.055 161.117C168.856 159.769 169.195 158.195 169.019 156.636C168.949 156.142 168.791 154.713 168.069 155.18C167.251 155.708 167.695 156.64 168.216 157.198C169.389 158.454 171.162 159.337 172.673 160.118C174.294 160.953 175.984 161.643 177.726 162.181C184.78 164.387 192.377 164.091 199.239 161.342C202.881 159.847 207.037 157.194 210.984 159.387C211.699 159.766 212.302 160.328 212.731 161.016C213.159 161.703 213.399 162.493 213.425 163.303C213.468 164.79 212.769 166.317 211.373 166.95C211.29 166.997 211.197 167.024 211.102 167.03C211.006 167.036 210.911 167.02 210.822 166.984C210.734 166.948 210.655 166.892 210.59 166.821C210.526 166.75 210.478 166.666 210.451 166.574C209.665 163.986 210.753 161.278 212.659 159.473C214.901 157.351 217.953 156.744 220.946 157.158C227.743 158.098 232.671 163.686 239.325 164.968C242.195 165.521 245.737 165.21 247.802 162.885C248.724 161.847 249.245 159.743 247.52 159.132C246.255 158.683 245.859 160.187 246.141 161.112C247.013 163.972 251.83 162.619 253.829 162.101C256.578 161.383 259.21 160.274 261.646 158.808C267.218 155.494 271.578 150.47 274.079 144.478C274.38 143.738 275.596 144.062 275.29 144.813H275.29Z"
    fill="#3F3D56"
  />
  <path
    d="M302.15 198.208C292.521 196.389 280.683 194.557 273.461 202.94C272.029 204.568 271.039 206.539 270.587 208.662C270.396 209.616 270.156 210.675 271.123 211.265C271.495 211.481 271.916 211.598 272.346 211.607C272.775 211.616 273.2 211.516 273.581 211.317C275.691 210.143 274.515 207.023 272.928 206C270.766 204.608 267.984 205.203 265.765 206.109C263.358 207.092 261.08 208.349 258.644 209.276C256.342 210.151 253.981 210.863 251.579 211.407C246.604 212.537 241.495 212.965 236.402 212.679C231.463 212.453 226.584 211.491 221.928 209.825C220.146 209.159 218.291 208.196 217.206 206.568C216.707 205.844 216.451 204.98 216.476 204.1C216.5 203.221 216.804 202.372 217.342 201.678C217.909 200.915 218.724 200.375 219.647 200.153C220.569 199.93 221.54 200.04 222.391 200.462C223.177 200.887 223.816 201.542 224.224 202.34C224.558 202.997 224.994 204.297 224.567 204.989C224.351 205.34 223.82 205.48 223.473 205.651C222.892 205.937 222.306 206.212 221.715 206.478C220.682 206.944 219.636 207.38 218.578 207.789C216.262 208.68 213.893 209.427 211.485 210.026C202.011 212.374 192.124 212.496 182.595 210.385C180.225 209.858 177.89 209.188 175.601 208.379C173.437 207.612 171.153 206.793 169.164 205.632C167.595 204.717 165.757 203.146 165.904 201.133C165.964 200.398 166.307 199.715 166.861 199.229C167.415 198.743 168.136 198.493 168.871 198.532C169.626 198.534 170.366 198.747 171.007 199.147C171.648 199.546 172.165 200.117 172.501 200.795C173.353 202.732 172.501 204.939 171.257 206.486C168.572 209.827 163.991 211.026 159.882 210.985C155.12 210.938 150.605 209.43 146.188 207.791C141.241 205.954 136.078 203.916 130.704 204.242C125.861 204.535 121.298 207.407 116.38 206.811C112.112 206.293 109.607 202.869 108.499 198.971C107.999 197.071 107.657 195.132 107.476 193.174C107.387 192.37 108.643 192.377 108.732 193.174C109.159 197.001 109.808 201.854 113.184 204.284C117.277 207.231 122.608 204.634 126.898 203.587C131.848 202.379 136.706 203.203 141.477 204.77C146.178 206.313 150.703 208.423 155.598 209.304C159.851 210.069 164.558 209.984 168.267 207.5C170.09 206.28 172.263 203.88 171.425 201.477C170.946 200.104 168.451 198.98 167.437 200.421C165.945 202.543 169.696 204.553 171.138 205.218C173.344 206.232 175.613 207.105 177.93 207.831C193.093 212.573 209.499 211.246 223.708 204.128L223.397 204.671C223.639 202.497 221.435 200.458 219.332 201.601C217.329 202.69 217.342 205.082 218.837 206.581C220.309 208.058 222.42 208.715 224.363 209.301C226.507 209.946 228.69 210.452 230.899 210.816C240.175 212.331 249.686 211.36 258.467 208.002C262.4 206.491 266.473 203.423 270.882 203.994C272.64 204.222 274.341 205.077 275.255 206.653C276.06 208.041 276.234 209.866 275.377 211.272C274.011 213.516 269.224 213.413 269.142 210.265C269.047 206.68 271.304 203.1 273.826 200.751C281.678 193.434 292.881 195.18 302.483 196.994C303.277 197.144 302.941 198.357 302.15 198.208L302.15 198.208Z"
    fill="#3F3D56"
  />
  <path
    d="M200.965 70.7197C196.85 70.027 195.086 65.1297 196.053 61.5236C196.681 59.1789 198.156 57.1666 199.795 55.4027C201.697 53.356 203.807 51.487 205.834 49.5625C208.312 47.2094 210.79 44.8563 213.268 42.5031C213.374 42.4018 213.504 42.3292 213.647 42.2923C213.789 42.2554 213.939 42.2554 214.081 42.2925C214.223 42.3296 214.354 42.4024 214.459 42.5038C214.564 42.6053 214.641 42.7319 214.682 42.8714C215.754 49.7603 214.073 56.7907 209.993 62.4809C208.951 63.9023 207.777 65.2253 206.487 66.433C205.228 67.6265 203.879 68.8147 203.097 70.3849L200.821 72.0311C200.896 71.5898 201.009 71.1556 201.159 70.7331C201.094 70.7351 201.029 70.7306 200.965 70.7197Z"
    fill="#F3CC62"
  />
  <path
    d="M200.904 70.1108H202.402C201.615 71.9278 201.937 74.6922 202.046 76.6616C202.168 78.8632 202.336 81.0625 202.482 83.2621C202.813 88.2084 203.143 93.1547 203.473 98.101C203.546 99.1918 202.048 99.1865 201.975 98.101L201.097 84.942C200.947 82.7021 200.798 80.4623 200.648 78.2225C200.527 75.5153 200.613 72.8013 200.904 70.1108Z"
    fill="#3F3D56"
  />
  <path
    d="M201.049 70.4299C200.656 69.341 200.516 68.1857 200.638 67.0417C200.759 65.8977 201.14 64.7913 201.755 63.7969C201.884 63.6051 202.088 63.4679 202.323 63.4141C202.557 63.3603 202.805 63.3943 203.014 63.5087C203.223 63.6232 203.376 63.8092 203.441 64.0276C203.506 64.246 203.479 64.4796 203.364 64.6793C202.871 65.4713 202.57 66.355 202.48 67.2683C202.39 68.1815 202.515 69.1021 202.845 69.9652C202.911 70.1886 202.879 70.4273 202.757 70.6287C202.635 70.8301 202.432 70.9778 202.194 71.0394C201.956 71.101 201.702 71.0714 201.487 70.9571C201.273 70.8428 201.115 70.6532 201.049 70.4299H201.049Z"
    fill="#3F3D56"
  />
  <path
    d="M188.684 147.544C188.994 146.358 190.177 145.357 191.38 145.576C192.346 145.752 193.059 146.64 193.326 147.588C193.533 148.553 193.561 149.548 193.406 150.523C194.484 149.386 195.606 148.218 197.05 147.611C197.558 147.361 198.135 147.29 198.689 147.41C199.065 147.548 199.393 147.793 199.631 148.117C199.869 148.44 200.007 148.826 200.027 149.227C200.053 150.033 199.836 150.828 199.405 151.509C198.803 152.551 197.976 153.446 196.985 154.127C195.994 154.809 194.863 155.26 193.676 155.448L194.065 154.939C192.089 154.248 190.424 152.872 189.372 151.059C188.761 149.998 188.374 148.729 188.684 147.544Z"
    fill="#5273E0"
  />
  <path
    d="M245.621 197.061C245.931 195.876 247.114 194.875 248.317 195.094C249.283 195.27 249.996 196.158 250.263 197.105C250.47 198.07 250.498 199.065 250.343 200.04C251.421 198.903 252.543 197.735 253.987 197.129C254.495 196.879 255.072 196.808 255.626 196.928C256.002 197.065 256.33 197.311 256.568 197.634C256.806 197.957 256.944 198.343 256.964 198.745C256.99 199.55 256.773 200.345 256.342 201.026C255.74 202.069 254.913 202.963 253.922 203.645C252.931 204.326 251.8 204.778 250.613 204.966L251.002 204.457C249.026 203.766 247.361 202.39 246.309 200.577C245.698 199.515 245.311 198.246 245.621 197.061Z"
    fill="#5273E0"
  />
  <path
    d="M235.573 123.204C235.883 122.018 237.066 121.017 238.269 121.236C239.235 121.412 239.948 122.3 240.215 123.248C240.423 124.213 240.45 125.208 240.295 126.183C241.373 125.046 242.496 123.878 243.939 123.272C244.447 123.021 245.025 122.95 245.578 123.07C245.954 123.208 246.282 123.454 246.52 123.777C246.758 124.1 246.896 124.486 246.916 124.887C246.942 125.693 246.725 126.488 246.294 127.169C245.692 128.211 244.865 129.106 243.874 129.787C242.883 130.469 241.753 130.92 240.565 131.108L240.954 130.599C238.978 129.909 237.314 128.532 236.261 126.719C235.65 125.658 235.263 124.389 235.573 123.204Z"
    fill="#5273E0"
  />
  <path
    d="M147.085 53.8729C148.121 58.4343 148.613 63.6056 145.85 67.6876C144.676 69.4387 142.953 70.7473 140.953 71.4063C138.929 72.0079 136.795 72.1393 134.712 71.7906C130 71.1362 125.813 68.6759 121.178 67.7207C119.133 67.2992 116.963 67.1599 114.994 67.9711C113.519 68.579 111.965 69.801 111.958 71.5443C111.951 73.3344 113.502 74.5225 115.045 75.0729C117.103 75.8073 119.242 75.5231 121.377 75.4305C123.677 75.3308 126.021 75.5392 127.931 76.9508C129.574 78.2361 130.834 79.9484 131.574 81.9014C132.535 84.2372 132.924 86.7484 133.538 89.1855C134.087 91.3765 134.863 93.5039 135.854 95.5328C137.799 99.5095 140.525 103.051 143.869 105.946C145.518 107.369 147.522 108.818 149.774 108.949C151.511 109.049 153.623 108.317 154.293 106.554C154.542 105.792 154.517 104.967 154.224 104.222C153.931 103.477 153.387 102.857 152.687 102.471C151.198 101.718 149.576 102.792 149.096 104.266C148.97 104.606 148.925 104.971 148.967 105.332C149.008 105.692 149.134 106.037 149.335 106.339C149.786 107.014 148.698 107.645 148.25 106.975C147.209 105.418 147.753 103.326 149.028 102.079C149.65 101.443 150.482 101.056 151.368 100.99C152.253 100.924 153.133 101.183 153.842 101.719C154.579 102.282 155.136 103.047 155.445 103.923C155.754 104.798 155.801 105.744 155.581 106.646C155.045 108.583 153.146 109.815 151.25 110.121C148.908 110.498 146.654 109.575 144.763 108.242C142.867 106.87 141.142 105.273 139.627 103.486C136.547 99.9356 134.231 95.7856 132.825 91.2962C131.443 86.8558 131.342 80.99 127.235 77.9912C125.121 76.4482 122.531 76.6193 120.053 76.7609C117.865 76.886 115.731 76.8633 113.724 75.8705C112.067 75.0508 110.73 73.5378 110.702 71.6101C110.674 69.6642 112.052 68.0994 113.676 67.2128C117.967 64.8707 123.119 66.7596 127.334 68.3244C131.572 69.8979 136.412 71.7448 140.916 70.0889C142.995 69.2791 144.669 67.676 145.571 65.6311C146.661 63.3124 146.817 60.6816 146.565 58.1652C146.416 56.833 146.185 55.5113 145.874 54.2076C145.695 53.4188 146.906 53.082 147.085 53.8729V53.8729Z"
    fill="#3F3D56"
  />
  <path
    d="M133.246 28.8568C135.417 36.209 138.689 43.1788 142.949 49.5218C144.003 51.0806 145.11 52.5997 146.271 54.0793C147.173 52.4157 148.266 50.866 149.527 49.4624C153.954 44.5263 159.888 41.2973 165.647 38.061C171.406 34.8247 177.252 31.3508 181.321 26.103C183.146 23.7406 184.454 21.01 185.155 18.0938C186.077 14.1375 185.726 10.0104 183.45 6.7073C180.143 1.90478 173.55 0.212397 167.945 1.60045C162.332 2.98851 157.635 6.94483 153.991 11.4876C155.183 5.90564 149.381 0.516727 143.768 1.00663C138.156 1.50395 133.656 6.47719 132.163 11.9849C130.663 17.4851 131.636 23.3788 133.246 28.8568Z"
    fill="#56BDD9"
  />
  <g opacity="0.2">
    <path
      d="M142.955 49.6838C144.019 51.239 145.137 52.7546 146.309 54.2306C147.22 52.5709 148.324 51.0249 149.597 49.6246C154.066 44.7001 160.058 41.4788 165.872 38.2502C171.686 35.0215 177.589 31.5558 181.697 26.3203C183.54 23.9636 184.86 21.2394 185.568 18.3301C172.498 20.1463 160.488 26.5327 151.658 36.3618C148.123 40.3522 145.191 44.8406 142.955 49.6838Z"
      fill="#122E35"
    />
  </g>
  <path
    d="M68.1311 112.283C67.534 112.266 66.9476 112.119 66.4134 111.851C65.8791 111.583 65.41 111.201 65.039 110.732C64.668 110.263 64.4041 109.718 64.2661 109.135C64.128 108.552 64.119 107.947 64.2398 107.36L52.1892 99.6577L58.983 96.3662L69.3636 104.198C70.3329 104.466 71.1703 105.082 71.717 105.928C72.2637 106.775 72.4817 107.792 72.3298 108.789C72.1779 109.785 71.6665 110.691 70.8927 111.335C70.1188 111.979 69.1362 112.316 68.1311 112.283L68.1311 112.283Z"
    fill="#9E616A"
  />
  <path
    d="M65.6746 74.8005C65.6746 74.8005 72.748 69.067 69.941 64.999C67.134 60.9311 59.966 65.3607 59.966 65.3607L39.1007 89.1345C39.1007 89.1345 61.2647 109.3 60.5773 106.305C59.8899 103.31 65.0312 100.969 65.0312 100.969L55.1405 89.8186L57.31 88.7644L56.4248 88.254L57.3557 86.0678L65.6746 74.8005Z"
    fill="#D8BD14"
  />
  <path
    d="M0.871429 234.9C0.871185 234.964 0.8862 235.028 0.915558 235.088C0.944916 235.147 0.988007 235.201 1.04245 235.247C1.09689 235.292 1.16156 235.328 1.23273 235.353C1.30392 235.377 1.38019 235.39 1.45715 235.39L112.221 235.402L119.959 235.406L125.063 235.41H130.709L133.79 235.414L142.345 235.418L276.947 235.476L277.971 235.48L338.179 235.496H339.173L390.423 235.513H391.417L407.414 235.517C407.57 235.517 407.719 235.465 407.828 235.374C407.938 235.282 408 235.157 408 235.028C408 234.898 407.938 234.773 407.828 234.681C407.719 234.59 407.57 234.538 407.414 234.538L391.25 234.534H390.256L339.021 234.518H338.026L278.286 234.501H277.267L226.362 234.485H225.692L143.28 234.444L134.74 234.439L130.832 234.435L124.654 234.431H119.378L111.064 234.427L1.45712 234.411C1.38016 234.41 1.30386 234.423 1.2327 234.448C1.16153 234.472 1.09689 234.508 1.04245 234.554C0.988007 234.599 0.944885 234.653 0.915527 234.713C0.886169 234.772 0.871185 234.836 0.871429 234.9Z"
    fill="#272727"
  />
  <path
    d="M59.2106 35.1719C60.1181 33.7768 61.1189 32.3025 62.6597 31.6792C64.2005 31.0558 66.3856 31.8012 66.595 33.4534C66.7516 34.6884 65.8114 35.7492 65.1037 36.7723C64.3959 37.7953 63.9358 39.3395 64.8603 40.1709L65.3803 40.4398C64.8832 41.0835 64.2424 41.6015 63.5094 41.9521C62.7764 42.3027 61.9716 42.4761 61.1596 42.4585C59.5434 42.356 57.9856 41.1536 57.7131 39.5535C57.4473 37.9933 58.3481 36.4977 59.2106 35.1719Z"
    fill="#2F2E41"
  />
  <path
    d="M149.193 24.492C148.762 24.7043 148.364 24.7482 147.998 24.624C147.638 24.4967 147.349 24.2119 147.13 23.7694C147.021 23.5482 146.895 23.2687 146.751 22.931C146.606 22.5933 146.45 22.2168 146.283 21.8014C146.115 21.386 145.945 20.9572 145.771 20.515C145.595 20.0668 145.421 19.6246 145.251 19.1884C145.077 18.7461 144.913 18.3293 144.757 17.9379C144.598 17.5404 144.454 17.1878 144.325 16.88C144.195 16.5722 144.088 16.3316 144.002 16.1582C143.905 15.9609 143.815 15.8307 143.731 15.7676C143.648 15.7045 143.526 15.6904 143.365 15.7253C143.228 15.7633 143.09 15.8386 142.952 15.9511C142.818 16.0547 142.687 16.1598 142.561 16.2664C142.439 16.3641 142.325 16.4276 142.22 16.4568C142.051 16.4589 141.911 16.4313 141.801 16.374C141.688 16.3108 141.599 16.2134 141.534 16.0818C141.428 15.8666 141.428 15.5953 141.534 15.2679C141.637 14.9345 141.806 14.5911 142.041 14.2376C142.278 13.8752 142.541 13.5487 142.829 13.2581C143.116 12.9676 143.392 12.7574 143.655 12.6277C144.008 12.4537 144.345 12.4213 144.666 12.5305C144.985 12.6336 145.282 12.8365 145.557 13.1392C145.839 13.4389 146.102 13.7922 146.347 14.199C146.593 14.6059 146.82 15.0215 147.029 15.4461C147.147 15.6853 147.272 15.9543 147.405 16.2532C147.543 16.5491 147.686 16.8689 147.833 17.2126C147.984 17.5474 148.132 17.894 148.279 18.2526C148.426 18.6112 148.573 18.9773 148.72 19.3508C148.87 19.7154 149.014 20.0754 149.153 20.431C149.288 20.7806 149.417 21.1182 149.541 21.4439C149.661 21.7636 149.77 22.0593 149.867 22.3312C150.01 22.8776 150.032 23.3235 149.935 23.6688C149.841 24.0201 149.593 24.2945 149.193 24.492ZM149.567 38.7238C149.357 38.8273 149.159 38.8523 148.973 38.799C148.789 38.7495 148.658 38.6451 148.58 38.4857C148.493 38.3108 148.477 38.1257 148.53 37.9302C148.59 37.7368 148.703 37.5407 148.871 37.342C149.008 37.1296 149.142 36.9065 149.273 36.6728C149.41 36.441 149.527 36.2139 149.626 35.9916C149.729 35.7712 149.803 35.573 149.847 35.3969C149.89 35.2208 149.889 35.0861 149.843 34.9928C149.803 34.9112 149.7 34.8486 149.533 34.805C149.367 34.7615 149.114 34.7339 148.775 34.7223C148.498 34.7092 148.211 34.6669 147.915 34.5955C147.617 34.5201 147.325 34.4226 147.039 34.3028C146.753 34.183 146.484 34.0449 146.233 33.8884C145.986 33.7301 145.766 33.5583 145.573 33.3731C145.384 33.186 145.239 32.9895 145.138 32.7835C145.057 32.6203 145.022 32.4563 145.033 32.2916C145.045 32.1212 145.098 31.9674 145.189 31.8303C145.285 31.6913 145.415 31.5816 145.578 31.5011C145.831 31.3765 146.072 31.3275 146.303 31.354C146.533 31.3804 146.785 31.4952 147.059 31.6983C147.418 32.0239 147.772 32.3156 148.121 32.5734C148.475 32.8292 148.8 33.0287 149.098 33.1718C149.262 33.2503 149.421 33.3073 149.573 33.3431C149.726 33.3788 149.838 33.3794 149.908 33.3449C150.017 33.2913 150.095 33.19 150.142 33.041C150.189 32.8921 150.212 32.743 150.211 32.5937C150.246 32.2044 150.245 31.7945 150.207 31.3641C150.166 30.9298 150.128 30.4993 150.092 30.0728C150.099 29.8131 150.144 29.5808 150.226 29.3758C150.309 29.1709 150.451 29.0186 150.653 28.9189C150.96 28.7675 151.212 28.7399 151.41 28.8359C151.611 28.9301 151.772 29.1015 151.895 29.3503C152.01 29.5835 152.097 29.862 152.155 30.186C152.215 30.5042 152.252 30.8483 152.265 31.2186C152.283 31.5869 152.281 31.9599 152.259 32.3377C152.242 32.7136 152.208 33.0758 152.157 33.4243C152.109 33.7671 152.052 34.073 151.986 34.342C151.877 34.7871 151.742 35.2379 151.581 35.6943C151.425 36.1528 151.246 36.5839 151.044 36.9878C150.844 37.3956 150.621 37.75 150.373 38.051C150.127 38.3558 149.858 38.5801 149.567 38.7238ZM158.103 32.1522C157.439 32.4799 156.812 32.6634 156.222 32.7028C155.633 32.7422 155.101 32.6181 154.626 32.3305C154.154 32.0411 153.76 31.5738 153.441 30.9286C153.177 30.3923 153.036 29.8799 153.017 29.3914C152.996 28.899 153.077 28.4412 153.26 28.0178C153.445 27.5886 153.711 27.2034 154.06 26.8624C154.407 26.5174 154.816 26.229 155.286 25.9971C155.604 25.84 155.928 25.7216 156.256 25.642C156.582 25.5586 156.893 25.5284 157.189 25.5513C157.49 25.5724 157.759 25.6572 157.996 25.8058C158.238 25.9525 158.433 26.1774 158.582 26.4806C158.726 26.7721 158.785 27.0427 158.758 27.2926C158.735 27.5405 158.649 27.7716 158.498 27.9859C158.352 28.1983 158.161 28.3987 157.925 28.5874C157.694 28.774 157.445 28.9548 157.178 29.1297C157.036 29.2432 156.857 29.3701 156.641 29.5104C156.429 29.6488 156.218 29.7794 156.008 29.9022C155.798 30.0251 155.629 30.1181 155.501 30.1814C155.384 30.2389 155.31 30.2947 155.279 30.3487C155.25 30.397 155.255 30.462 155.295 30.5436C155.336 30.6252 155.407 30.7109 155.509 30.8006C155.611 30.8903 155.73 30.9646 155.865 31.0235C156.117 31.1315 156.364 31.1668 156.606 31.1294C156.847 31.0881 157.122 30.9908 157.433 30.8375C157.721 30.6957 157.975 30.5246 158.195 30.3243C158.417 30.1182 158.622 29.9226 158.811 29.7376C159.002 29.5468 159.197 29.4026 159.395 29.3048C159.586 29.2109 159.753 29.1741 159.899 29.1943C160.046 29.2086 160.17 29.3188 160.272 29.5248C160.362 29.7075 160.371 29.913 160.3 30.1413C160.231 30.3637 160.095 30.5926 159.893 30.8279C159.695 31.0652 159.443 31.2983 159.136 31.5272C158.828 31.7561 158.484 31.9644 158.103 32.1522ZM156.019 28.9837C156.291 28.8496 156.534 28.6959 156.748 28.5227C156.961 28.3455 157.111 28.1555 157.199 27.9525C157.286 27.7456 157.273 27.5295 157.162 27.304C157.028 27.032 156.83 26.8807 156.569 26.8502C156.311 26.8177 156.01 26.8868 155.664 27.0573C155.458 27.1589 155.276 27.2945 155.118 27.4642C154.958 27.6299 154.832 27.8153 154.74 28.0202C154.646 28.2212 154.592 28.4263 154.579 28.6356C154.57 28.8429 154.611 29.0379 154.701 29.2205C154.751 29.3216 154.826 29.3763 154.927 29.3846C155.028 29.3929 155.165 29.3636 155.34 29.2968C155.517 29.2241 155.743 29.1198 156.019 28.9837ZM164.293 29.3323C163.97 29.4914 163.646 29.6126 163.32 29.6961C163 29.7815 162.688 29.8118 162.386 29.7868C162.09 29.7639 161.82 29.6722 161.577 29.512C161.333 29.3517 161.132 29.1103 160.973 28.7877C160.799 28.434 160.743 28.0994 160.804 27.7839C160.864 27.4644 161.012 27.1668 161.248 26.891C161.486 26.6094 161.78 26.3484 162.131 26.1081C162.481 25.8678 162.858 25.648 163.262 25.4487C163.379 25.3913 163.499 25.3367 163.623 25.2851C163.748 25.2334 163.862 25.1866 163.967 25.1445C164.076 25.1006 164.165 25.0613 164.235 25.0269C164.329 24.9809 164.385 24.9337 164.405 24.8854C164.422 24.8331 164.412 24.7681 164.374 24.6904C164.313 24.566 164.242 24.4629 164.163 24.3811C164.084 24.2993 163.998 24.2358 163.903 24.1907C163.808 24.1456 163.707 24.116 163.598 24.1018C163.422 24.0776 163.225 24.0949 163.008 24.1537C162.792 24.2068 162.572 24.2889 162.346 24.4001C162.074 24.5342 161.84 24.686 161.643 24.8554C161.449 25.0191 161.271 25.1789 161.112 25.335C160.954 25.4853 160.789 25.6026 160.618 25.6869C160.366 25.8115 160.149 25.8674 159.969 25.8548C159.787 25.8383 159.651 25.7387 159.561 25.556C159.473 25.3773 159.463 25.1815 159.532 24.9687C159.601 24.7559 159.731 24.5396 159.923 24.3197C160.112 24.0959 160.35 23.8793 160.638 23.6696C160.926 23.46 161.245 23.2689 161.595 23.0965C162.298 22.7496 162.93 22.5419 163.491 22.4733C164.055 22.4028 164.555 22.4996 164.989 22.7636C165.422 23.0238 165.8 23.4823 166.124 24.1391C166.212 24.3179 166.28 24.4801 166.328 24.6257C166.373 24.7674 166.41 24.8946 166.436 25.0071C166.461 25.1158 166.481 25.2118 166.498 25.2953C166.515 25.3787 166.539 25.4515 166.57 25.5137C166.62 25.6147 166.7 25.6937 166.81 25.7505C166.92 25.8073 167.043 25.8603 167.178 25.9095C167.313 25.9587 167.44 26.0195 167.558 26.0919C167.676 26.1642 167.766 26.2645 167.829 26.3928C167.925 26.5871 167.93 26.7586 167.844 26.9074C167.764 27.0581 167.646 27.1718 167.49 27.2484C167.354 27.3155 167.223 27.3293 167.098 27.2899C166.978 27.2524 166.864 27.212 166.755 27.1688C166.651 27.1236 166.554 27.1231 166.465 27.1671C166.41 27.194 166.357 27.2421 166.304 27.3116C166.253 27.3753 166.196 27.4641 166.131 27.5781C166.057 27.7211 165.952 27.891 165.817 28.0879C165.684 28.2887 165.497 28.497 165.256 28.7127C165.018 28.9265 164.697 29.133 164.293 29.3323ZM163.933 28.1763C164.139 28.0747 164.326 27.944 164.493 27.7841C164.661 27.6241 164.795 27.4495 164.894 27.2601C164.996 27.065 165.056 26.8667 165.072 26.6652C165.089 26.4638 165.052 26.2717 164.962 26.089C164.903 25.9685 164.819 25.9012 164.71 25.887C164.604 25.8671 164.461 25.8915 164.282 25.9602C164.104 26.029 163.877 26.1314 163.601 26.2675C163.325 26.4035 163.079 26.5611 162.862 26.7401C162.644 26.9152 162.492 27.1063 162.406 27.3131C162.323 27.5181 162.339 27.7352 162.452 27.9645C162.536 28.1356 162.651 28.2554 162.796 28.324C162.944 28.3907 163.114 28.4111 163.304 28.385C163.498 28.357 163.708 28.2874 163.933 28.1763ZM170.233 25.8526C170.093 25.9216 169.957 25.9596 169.826 25.9666C169.694 25.9737 169.565 25.9574 169.439 25.918C169.317 25.8766 169.194 25.8168 169.068 25.7386C168.918 25.6292 168.762 25.4956 168.602 25.3377C168.446 25.178 168.295 25.0037 168.149 24.8149C168.003 24.6261 167.866 24.4325 167.739 24.2341C167.612 24.0357 167.503 23.8433 167.411 23.6567C167.095 23.0154 166.954 22.411 166.988 21.8433C167.02 21.2718 167.212 20.7545 167.564 20.2913C167.919 19.8263 168.417 19.4356 169.058 19.1194C169.342 18.9796 169.627 18.8658 169.912 18.7783C170.197 18.6907 170.467 18.6399 170.721 18.6258C170.973 18.6078 171.192 18.6352 171.378 18.7079C171.565 18.7749 171.701 18.8939 171.785 19.0649C171.862 19.2203 171.891 19.3581 171.873 19.4781C171.855 19.5982 171.804 19.7006 171.72 19.7854C171.637 19.8702 171.54 19.9395 171.431 19.9931C171.237 20.0889 171.021 20.1594 170.782 20.2046C170.547 20.2479 170.273 20.3471 169.958 20.5023C169.515 20.7208 169.246 21.0226 169.15 21.4077C169.057 21.787 169.128 22.2157 169.364 22.6938C169.45 22.8687 169.542 23.0358 169.64 23.1953C169.736 23.3509 169.833 23.4987 169.932 23.6388C170.033 23.7769 170.129 23.9063 170.217 24.027C170.31 24.1457 170.389 24.2537 170.457 24.351C170.524 24.4483 170.577 24.5358 170.615 24.6135C170.759 24.905 170.798 25.1513 170.733 25.3525C170.672 25.5518 170.505 25.7185 170.233 25.8526Z"
    fill="#141414"
  />
  <path
    d="M329.526 218.771C330.095 219.197 330.498 219.783 330.969 220.3C332.253 221.712 333.504 223.153 334.77 224.581C335.122 224.977 335.966 224.602 336.354 224.961C336.891 225.457 337.872 225.895 338.639 226.014C339.365 226.127 340.017 226.565 340.737 226.756C342.815 227.309 344.035 227.763 346.229 227.451C346.971 227.345 347.71 228.013 348.469 228.129C348.248 229.623 348.051 231.121 347.799 232.609C347.568 233.967 346.542 234.865 345.155 234.965C343.245 235.102 341.334 235.231 339.422 235.339C338.48 235.392 337.681 235.06 337.075 234.314C336.527 233.638 336.018 232.924 335.423 232.293C334.465 231.278 334.287 230.111 334.501 228.789C334.661 227.8 334.609 227.759 333.6 227.852C332.446 227.958 331.567 227.549 330.885 226.629C330.441 226.03 329.963 225.456 329.492 224.877C329.015 224.292 328.831 223.613 328.925 222.883C329.102 221.509 329.323 220.141 329.526 218.771Z"
    fill="#5ECAE7"
  />
  <path
    d="M360.42 227.578C362.305 227.502 364.19 227.43 366.075 227.348C367.608 227.281 369.14 227.172 370.674 227.138C371.818 227.112 373.043 226.382 374.191 226.517C373.906 228.648 373.42 231.309 373.037 233.423C372.843 234.491 371.911 235.293 370.789 235.383C369.11 235.519 367.426 235.605 365.747 235.737C364.969 235.798 364.307 235.558 363.733 235.066C362.789 234.257 361.857 233.434 360.933 232.603C360.174 231.921 359.89 231.064 360.049 230.055C360.179 229.23 360.297 228.404 360.42 227.578Z"
    fill="#5ECAE7"
  />
  <path
    d="M394.791 179.086C394.391 179.956 394.201 180.894 393.961 181.811C393.636 183.057 393.273 184.292 392.915 185.528C392.513 186.916 392.087 188.297 391.672 189.681C391.247 191.099 391.093 192.558 390.673 193.977C390.277 195.312 389.898 196.653 389.501 197.988C388.933 199.896 388.349 201.8 387.785 203.71C387.235 205.57 386.708 207.436 386.159 209.296C385.675 210.935 384.895 212.526 384.408 214.165C384.011 215.499 383.62 216.837 383.241 218.177C383.128 218.576 382.912 218.918 382.717 219.275C382.606 219.478 382.385 219.668 382.576 219.946C382.632 220.028 382.597 220.133 382.51 220.175C381.819 220.514 381.67 221.279 381.222 221.81C380.058 223.194 378.652 224.026 376.788 224.032C375.152 224.511 373.461 224.673 371.839 224.722C369.319 224.799 366.852 224.52 364.361 224.401C362.175 224.471 359.989 224.553 357.803 224.623C355.107 224.709 352.326 225.336 349.629 225.418C348.219 225.462 346.792 225.213 345.401 225.072C344.099 224.94 342.815 224.58 341.938 223.365C341.58 222.869 340.889 222.225 340.846 221.639C340.822 221.311 340.681 221.073 340.684 220.922C340.687 220.76 341.03 220.512 341.038 220.213C341.064 219.279 341.086 218.336 341.23 217.415C341.408 216.274 341.478 215.124 341.608 213.981C341.853 211.82 342.308 209.693 342.549 207.53C342.704 206.143 342.83 204.75 342.97 203.36C343.186 201.214 343.391 199.066 343.623 196.92C343.77 195.567 343.897 194.211 344.032 192.856C344.252 190.638 344.471 188.421 344.715 186.205C344.863 184.87 344.975 183.53 345.113 182.193C345.336 180.029 345.542 177.864 345.776 175.701C345.925 174.312 346.052 172.92 346.195 171.531C346.347 170.053 346.502 168.575 346.652 167.097C346.789 165.742 346.926 164.387 347.057 163.032C347.26 160.919 347.215 158.795 347.427 156.683C347.575 155.222 347.51 153.675 347.645 152.214C347.901 149.427 347.92 146.533 349.112 143.981C349.294 142.931 349.615 141.918 350.219 141.023C350.696 140.316 351.428 139.992 352.224 139.826C353.669 139.525 355.088 139.621 356.498 140.102C357.314 140.38 358.175 140.523 359.014 140.733C360.4 141.08 361.545 141.055 362.931 141.399C363.822 141.62 364.719 141.817 365.61 142.04C366.927 142.37 368.24 142.717 369.556 143.05C370.395 143.262 371.237 143.46 372.076 143.67C373.462 144.017 374.845 144.372 376.232 144.717C377.106 144.934 377.984 145.132 378.858 145.35C380.192 145.684 381.761 146.414 383.095 146.749C383.968 146.968 384.847 147.168 385.72 147.386C387.071 147.725 388.413 148.108 389.773 148.405C390.688 148.605 391.592 148.848 392.501 149.068C393.838 149.393 395.165 149.756 396.502 150.079C397.291 150.27 398.087 150.428 398.865 150.67C400.146 151.068 401.213 152.32 401.301 153.642C401.375 154.767 401.737 156.231 401.522 157.34C401.094 158.84 401.017 160.032 400.589 161.532C399.724 164.566 398.362 167.736 397.581 170.794C397.11 172.036 396.736 173.157 396.436 174.449C395.892 175.974 395.152 177.507 394.791 179.086Z"
    fill="#5FCAE7"
  />
  <path
    d="M324.362 194.531C324.185 195.588 324.156 196.533 324.592 197.435C324.751 197.766 325.018 197.98 325.387 197.958C325.773 197.935 325.821 197.572 325.881 197.294C326.054 196.498 326.186 195.691 326.125 194.873C326.076 194.225 326.056 193.557 325.744 192.963C325.48 192.461 325.21 192.459 324.892 192.933C324.547 193.445 324.397 194.024 324.362 194.531ZM333.993 202.197C333.982 202.268 333.933 202.477 333.921 202.689C333.866 203.637 333.934 204.57 334.396 205.426C334.615 205.833 334.944 206.205 335.425 206.143C335.871 206.086 335.981 205.625 336.129 205.234C336.454 204.378 336.429 203.491 336.384 202.613C336.339 201.75 336.272 200.869 335.781 200.109C335.426 199.558 335.137 199.564 334.719 200.084C334.255 200.661 334.097 201.346 333.993 202.197ZM343.324 144.443C343.062 145.515 342.871 147.47 342.725 148.897C342.532 150.778 342.178 152.766 341.998 154.649C341.825 156.461 341.651 158.273 341.489 160.085C341.324 161.916 341.148 163.746 340.979 165.576C340.802 167.476 340.621 169.376 340.436 171.276C340.318 172.49 340.213 173.705 340.098 174.919C339.924 176.748 339.764 178.579 339.586 180.409C339.409 182.238 339.24 184.068 339.074 185.898C338.906 187.746 338.72 189.593 338.554 191.441C338.388 193.289 338.205 195.136 338.034 196.983C337.866 198.796 337.693 200.608 337.528 202.42C337.358 204.286 337.175 206.15 337.001 208.016C336.827 209.881 337.081 211.75 336.897 213.615C336.778 214.828 336.836 215.845 336.715 217.059C336.638 217.825 336.421 218.809 336.252 219.607C336.117 220.248 336.088 220.896 335.824 221.503C335.492 222.27 334.385 222.452 333.802 221.835C332.977 220.962 331.976 220.746 331.167 219.857C330.097 218.681 328.997 217.638 327.927 216.461C326.715 215.128 325.715 212.995 324.533 211.635C324.127 211.169 324.197 210.491 324.012 209.921C323.617 208.704 323.36 207.451 323.227 206.185C323.144 205.405 322.981 204.553 323.007 203.761C323.052 202.334 322.906 200.798 322.958 199.371C322.997 198.296 323.196 197.131 323.235 196.056C323.275 194.946 323.618 194.088 323.66 192.979C323.701 191.886 323.762 190.794 323.808 189.701C323.852 188.662 323.888 187.622 323.926 186.583C323.966 185.456 324.006 184.329 324.042 183.201C324.089 181.775 324.127 180.348 324.178 178.922C324.218 177.847 324.28 176.772 324.32 175.697C324.37 174.323 324.404 172.949 324.452 171.575C324.491 170.483 324.545 169.391 324.583 168.298C324.634 166.872 324.671 165.445 324.723 164.019C324.762 162.944 324.819 161.869 324.862 160.795C324.903 159.773 324.938 158.751 324.974 157.729C325.016 156.584 325.056 155.439 325.097 154.295C325.135 153.255 325.177 152.215 325.213 151.176C325.259 149.82 325.214 146.845 325.414 145.512C325.629 144.072 325.852 144.219 326.409 142.848C326.518 142.582 326.712 142.478 326.962 142.408C330.649 140.459 331.497 140.86 335.253 139.815C336.243 139.54 340.097 138.366 341.088 138.095C342.035 137.835 343.289 139.153 343.412 140.294C343.573 141.795 343.604 142.639 343.324 144.443Z"
    fill="#5FCAE7"
  />
  <path
    d="M343.004 145.061C344.294 140.734 343.086 136.775 338.227 139.271C333.486 141.362 325.088 140.187 325.378 147.112C324.713 162.387 324.313 177.697 323.66 192.979C322.269 207.208 322.971 211.976 333.804 221.834C338.026 224.046 336.159 205.52 337.53 202.421C339.406 183.353 340.921 164.077 343.004 145.061ZM396.248 174.442C396.894 167.25 405.518 156.17 398.866 150.668C383.319 147.436 367.873 141.635 352.224 139.824C345.446 145.117 348.946 159.001 346.649 167.095C344.587 184.815 343.445 203.467 340.952 220.732C341.803 227.661 352.343 224.121 357.803 224.622C365.284 223.287 375.042 226.583 381.223 221.812C387.971 207.244 390.793 189.917 396.248 174.442ZM360.419 227.578C349.943 227.745 337.291 231.064 330.969 220.299C319.698 211.678 323.107 197.57 323.203 185.146C325.372 172.827 319.794 147.31 328.715 139.138C344.684 132.057 354.607 133.336 370.823 138.726C383.252 144.006 409.778 141.225 400.84 161.705C396.218 177.328 391.551 192.938 386.928 208.56C383.235 226.526 377.677 227.943 360.419 227.578Z"
    fill="#79D0E7"
  />
  <path
    d="M333.993 202.198C334.097 201.346 334.255 200.662 334.72 200.085C335.138 199.565 335.427 199.559 335.782 200.11C336.273 200.87 336.34 201.751 336.385 202.614C336.43 203.492 336.455 204.379 336.13 205.235C335.982 205.626 335.872 206.086 335.426 206.143C334.945 206.205 334.616 205.834 334.397 205.427C333.934 204.57 333.866 203.638 333.921 202.69C333.934 202.478 333.983 202.268 333.993 202.198Z"
    fill="#1A8DC5"
  />
  <path
    d="M324.363 194.531C324.397 194.024 324.547 193.445 324.892 192.933C325.21 192.46 325.48 192.461 325.744 192.964C326.056 193.557 326.076 194.225 326.125 194.874C326.186 195.691 326.055 196.499 325.882 197.294C325.821 197.572 325.773 197.936 325.387 197.958C325.019 197.98 324.752 197.766 324.592 197.436C324.156 196.533 324.185 195.588 324.363 194.531Z"
    fill="#1783BD"
  />
  <path
    fill-rule="evenodd"
    clip-rule="evenodd"
    d="M322.937 196.506C322.49 199.549 322.876 202.274 323.811 202.569C324.738 202.863 325.913 200.35 326.432 196.923C326.951 193.497 326.554 190.796 325.558 190.86C324.562 190.923 323.386 193.438 322.937 196.506ZM321.649 197.249C321.013 201.636 321.602 205.713 322.958 206.331C324.315 206.949 326.064 203.225 326.854 198.036C327.643 192.847 327.055 188.77 325.536 188.955C324.017 189.14 322.288 192.839 321.649 197.249Z"
    fill="#0B639E"
  />
  <path
    fill-rule="evenodd"
    clip-rule="evenodd"
    d="M323.815 202.544C322.888 202.251 322.491 199.549 322.941 196.481C323.387 193.438 324.563 190.923 325.559 190.86C326.555 190.796 326.952 193.497 326.433 196.923C325.911 200.322 324.743 202.836 323.815 202.544ZM323.754 202.953C322.763 202.626 322.34 199.738 322.815 196.491C323.291 193.244 324.55 190.532 325.62 190.451C326.69 190.369 327.113 193.255 326.555 196.938C326.001 200.594 324.746 203.28 323.754 202.953Z"
    fill="#0B639E"
  />
  <path
    fill-rule="evenodd"
    clip-rule="evenodd"
    d="M323.022 205.901C321.748 205.341 321.172 201.393 321.77 197.267C322.368 193.141 324.072 189.514 325.484 189.359C326.896 189.204 327.468 193.176 326.736 197.99C326.004 202.805 324.297 206.461 323.022 205.901ZM322.958 206.331C321.602 205.713 321.01 201.659 321.649 197.249C322.284 192.862 324.025 189.139 325.544 188.954C327.063 188.769 327.647 192.82 326.854 198.036C326.064 203.225 324.315 206.949 322.958 206.331Z"
    fill="#0B639E"
  />
</svg>
