<svg width="349" height="251" viewBox="0 0 349 251" fill="none" xmlns="http://www.w3.org/2000/svg">
<circle cx="174.5" cy="115.5" r="99.5" fill="#1F1F1F"/>
<circle cx="64.5" cy="16.5" r="16.5" fill="#643131"/>
<path d="M234.653 168.291H114.61C113.673 168.29 112.775 167.917 112.112 167.253C111.449 166.589 111.077 165.689 111.075 164.75V66.8514C111.077 65.9124 111.449 65.0124 112.112 64.3486C112.775 63.6849 113.673 63.3116 114.61 63.3105H234.653C235.59 63.3116 236.489 63.6849 237.151 64.3486C237.814 65.0124 238.187 65.9126 238.188 66.8517V164.75C238.187 165.689 237.814 166.589 237.151 167.253C236.489 167.917 235.59 168.29 234.653 168.291Z" stroke="#6A6A6A"/>
<path d="M114.939 67.1812C115.574 66.5453 116.435 66.1876 117.332 66.1865L231.932 66.1865C231.932 66.1865 231.932 66.1865 231.932 66.1865C232.83 66.1877 233.691 66.5453 234.326 67.1812C234.961 67.8172 235.318 68.6797 235.319 69.5794V129.538C235.308 139.051 231.53 148.17 224.815 154.897C218.099 161.623 208.994 165.406 199.497 165.417H117.332C116.435 165.416 115.574 165.058 114.939 164.422C114.304 163.786 113.947 162.924 113.946 162.024V69.5792C113.947 68.6795 114.304 67.8171 114.939 67.1812Z" stroke="#6A6A6A"/>
<line x1="113.293" y1="75.9623" x2="235.468" y2="75.9623" stroke="#6A6A6A"/>
<line x1="123.938" y1="166.058" x2="123.938" y2="76.4623" stroke="#6A6A6A"/>
<line x1="161.234" y1="166.058" x2="161.234" y2="76.4623" stroke="#6A6A6A"/>
<line x1="199.816" y1="166.058" x2="199.816" y2="76.4623" stroke="#6A6A6A"/>
<rect x="115.936" y="79.9631" width="5.85899" height="5.85899" rx="2.9295" stroke="#6A6A6A"/>
<rect x="128.368" y="79.9631" width="29.0081" height="13.5754" rx="1.5" stroke="#6A6A6A"/>
<rect x="165.663" y="79.9631" width="30.2942" height="82.1653" rx="1.5" stroke="#6A6A6A"/>
<rect x="128.368" y="97.1106" width="29.0081" height="13.5754" rx="1.5" stroke="#6A6A6A"/>
<rect x="204.674" y="79.9631" width="26.8647" height="40.154" rx="1.5" stroke="#6A6A6A"/>
<rect x="152.599" y="68.9001" width="58.0911" height="3.79117" rx="1.5" stroke="#6A6A6A"/>
<rect x="128.368" y="114.258" width="29.0081" height="13.5754" rx="1.5" stroke="#6A6A6A"/>
<rect x="115.936" y="88.9656" width="5.85899" height="5.85899" rx="2.9295" stroke="#6A6A6A"/>
<rect x="115.936" y="97.968" width="5.85899" height="5.85899" rx="2.9295" stroke="#6A6A6A"/>
<line x1="110.576" y1="142.753" y2="142.753" stroke="#6A6A6A"/>
<line x1="348.904" y1="142.753" x2="238.328" y2="142.753" stroke="#6A6A6A"/>
<line x1="220.707" y1="234.034" x2="226.916" y2="240.243" stroke="#E84749" stroke-width="2"/>
<line x1="275.592" y1="235.449" x2="269.383" y2="241.658" stroke="#E84749" stroke-width="2"/>
<line x1="233.77" y1="227.869" x2="237.385" y2="235.871" stroke="#E84749" stroke-width="2"/>
<line x1="263.88" y1="228.284" x2="260.176" y2="236.245" stroke="#E84749" stroke-width="2"/>
<path d="M224 105C237.333 105.242 248 111.526 248 128.93C248 146.333 248 202.895 248 229" stroke="#E84749" stroke-width="1.5" stroke-dasharray="6 3"/>
<path d="M252.521 249.849H245.301H238.896C239.245 249.849 239.152 250.501 238.313 249.383C237.475 248.265 238.546 246.355 238.896 246.006C241.031 242.745 245.72 235.758 247.397 233.894C249.074 232.031 250.891 233.506 251.589 234.477C253.491 236.418 257.598 240.695 258.81 242.279C260.021 243.863 258.926 245.424 258.227 246.006L252.521 249.849Z" fill="#31D1E7"/>
<circle cx="243.706" cy="245.927" r="2.21266" fill="black"/>
<line x1="289" y1="250.5" x2="187" y2="250.5" stroke="#6A6A6A"/>
<path d="M280.723 226.032L282.739 223.931C283.159 223.494 283.448 223.051 283.607 222.603C283.766 222.15 283.797 221.714 283.7 221.296C283.603 220.873 283.377 220.491 283.021 220.15L283.013 220.142C282.754 219.893 282.46 219.728 282.132 219.646C281.807 219.562 281.477 219.562 281.142 219.646C280.809 219.727 280.503 219.894 280.224 220.146L280.148 220.073C280.317 219.834 280.419 219.572 280.455 219.287C280.49 219.002 280.461 218.722 280.367 218.448C280.276 218.171 280.123 217.929 279.909 217.724L279.9 217.716C279.587 217.415 279.245 217.233 278.874 217.169C278.502 217.1 278.12 217.148 277.729 217.313C277.337 217.473 276.95 217.752 276.569 218.149L274.622 220.179L275.569 221.088L277.204 219.384C277.496 219.079 277.792 218.911 278.093 218.88C278.393 218.844 278.667 218.944 278.915 219.182L278.924 219.19C279.175 219.431 279.281 219.709 279.244 220.025C279.206 220.341 279.022 220.671 278.692 221.015L277.159 222.613L278 223.42L279.676 221.674C279.916 221.423 280.153 221.244 280.386 221.137C280.618 221.024 280.841 220.987 281.055 221.024C281.271 221.058 281.473 221.165 281.662 221.347L281.671 221.355C281.961 221.633 282.089 221.943 282.055 222.283C282.023 222.621 281.83 222.975 281.476 223.344L279.772 225.12L280.723 226.032ZM280.111 226.671L281.336 225.394L275.235 219.54L274.009 220.817L280.111 226.671ZM285.868 220.669L287.154 219.329L283.703 213.151L284.06 212.779L282.842 211.611L281.799 212.698L285.868 220.669ZM285.476 218.116L288.782 214.67L287.526 214.066L284.82 216.887L285.476 218.116ZM290.087 216.272L291.377 214.927L283.239 211.197L282.558 211.907L283.776 213.075L290.087 216.272ZM292.786 213.458L293.959 212.236L290.056 208.492L290.668 207.854L289.356 208.316L296.733 209.344L297.747 208.287L291.646 202.434L290.474 203.656L294.359 207.384L293.751 208.018L295.059 207.56L287.707 206.54L286.685 207.605L292.786 213.458ZM302.29 203.865C302.823 203.31 303.176 202.728 303.348 202.119C303.523 201.508 303.519 200.903 303.335 200.304C303.152 199.706 302.791 199.148 302.252 198.632L301.478 197.889L299.02 200.452L299.95 201.344L301.216 200.025L301.326 200.139C301.575 200.393 301.736 200.673 301.812 200.978C301.887 201.283 301.876 201.594 301.777 201.911C301.679 202.228 301.496 202.526 301.228 202.805C300.906 203.141 300.542 203.349 300.135 203.429C299.725 203.507 299.295 203.46 298.847 203.29C298.396 203.117 297.95 202.82 297.511 202.398L297.502 202.39C297.071 201.976 296.761 201.554 296.573 201.124C296.381 200.692 296.315 200.276 296.373 199.877C296.431 199.472 296.616 199.106 296.93 198.779C297.274 198.421 297.649 198.2 298.056 198.114C298.463 198.028 298.859 198.089 299.245 198.296L299.295 198.328L300.512 197.06L300.462 197.028C299.999 196.698 299.498 196.506 298.958 196.454C298.421 196.399 297.884 196.479 297.347 196.695C296.81 196.91 296.31 197.259 295.848 197.741C295.282 198.33 294.923 198.968 294.768 199.653C294.611 200.336 294.659 201.026 294.911 201.722C295.16 202.416 295.612 203.077 296.266 203.704L296.274 203.712C296.936 204.348 297.621 204.777 298.327 205C299.034 205.223 299.726 205.24 300.404 205.052C301.083 204.864 301.712 204.468 302.29 203.865ZM304.536 197.182L305.619 196.053L301.636 192.012L300.338 193.365L304.536 197.182ZM307.215 198.664C307.445 198.424 307.561 198.176 307.564 197.919C307.57 197.659 307.464 197.425 307.247 197.217C307.024 197.003 306.785 196.906 306.528 196.925C306.272 196.939 306.028 197.065 305.799 197.305C305.571 197.542 305.455 197.79 305.449 198.05C305.441 198.307 305.548 198.542 305.771 198.756C305.988 198.964 306.226 199.06 306.485 199.044C306.745 199.027 306.988 198.901 307.215 198.664Z" fill="#E84749"/>
</svg>
