<svg width="564" height="424" viewBox="0 0 564 424" fill="none" xmlns="http://www.w3.org/2000/svg">
  <path
    d="M225.692 217H146.308C145.431 216.999 144.59 216.675 143.97 216.098C143.35 215.522 143.001 214.741 143 213.925V137.075C143.001 136.259 143.35 135.478 143.97 134.902C144.59 134.325 145.431 134.001 146.308 134H225.692C226.569 134.001 227.41 134.325 228.03 134.902C228.65 135.478 228.999 136.259 229 137.075V213.925C228.999 214.741 228.65 215.522 228.03 216.098C227.41 216.675 226.569 216.999 225.692 217ZM146.308 135.23C145.781 135.23 145.277 135.425 144.905 135.771C144.533 136.117 144.324 136.586 144.323 137.075V213.925C144.324 214.414 144.533 214.883 144.905 215.229C145.277 215.575 145.781 215.77 146.308 215.77H225.692C226.219 215.77 226.723 215.575 227.095 215.229C227.467 214.883 227.676 214.414 227.677 213.925V137.075C227.676 136.586 227.467 136.117 227.095 135.771C226.723 135.425 226.219 135.23 225.692 135.23H146.308Z"
    fill="#3F3D56"
  />
  <path
    d="M138.222 88.0556C148.701 79.9213 160.944 74.3744 173.959 71.8639C187.078 69.3584 200.605 70.0551 213.399 73.8951C219.83 75.8143 226.009 78.4977 231.804 81.8881C237.709 85.3478 243.044 89.6066 248.178 94.1159C253.378 98.6838 258.408 103.455 263.836 107.756C279.335 120.172 298.576 126.956 318.418 127C320.057 127.003 321.695 126.957 323.332 126.864C324.22 126.815 324.225 125.425 323.332 125.474C303.107 126.591 283.134 120.542 266.91 108.386C261.283 104.169 256.146 99.3476 250.901 94.6753C245.816 90.1454 240.594 85.739 234.825 82.0996C220.714 73.1895 204.298 68.6412 187.624 69.0221C170.95 69.403 154.758 74.6963 141.066 84.2416C139.764 85.1488 138.493 86.0969 137.242 87.0729C136.538 87.6217 137.526 88.5988 138.222 88.0556Z"
    fill="#3F3D56"
  />
  <path
    d="M137 95C140.866 95 144 91.6421 144 87.5C144 83.3579 140.866 80 137 80C133.134 80 130 83.3579 130 87.5C130 91.6421 133.134 95 137 95Z"
    fill="#3F3D56"
  />
  <path
    d="M445.503 143H326.497C325.835 142.999 325.2 142.582 324.732 141.84C324.264 141.098 324.001 140.093 324 139.044V40.956C324.001 39.9072 324.264 38.9017 324.732 38.1601C325.2 37.4184 325.835 37.0012 326.497 37H445.503C446.165 37.0012 446.8 37.4184 447.268 38.16C447.736 38.9017 447.999 39.9071 448 40.956V139.044C447.999 140.093 447.736 141.098 447.268 141.84C446.8 142.582 446.165 142.999 445.503 143ZM326.497 38.5824C326.1 38.5831 325.719 38.8334 325.438 39.2784C325.157 39.7234 324.999 40.3267 324.999 40.956V139.044C324.999 139.673 325.157 140.277 325.438 140.722C325.719 141.167 326.1 141.417 326.497 141.418H445.503C445.9 141.417 446.281 141.167 446.562 140.722C446.843 140.277 447.001 139.673 447.001 139.044V40.956C447.001 40.3267 446.843 39.7234 446.562 39.2784C446.281 38.8334 445.9 38.5831 445.503 38.5824H326.497Z"
    fill="#3F3D56"
  />
  <path
    d="M339.313 117C338.038 117 337 117.897 337 119C337 120.103 338.038 121 339.313 121H432.687C433.962 121 435 120.103 435 119C435 117.897 433.962 117 432.687 117H339.313Z"
    fill="#E6E6E6"
  />
  <path
    d="M339.313 127C338.038 127 337 127.897 337 129C337 130.103 338.038 131 339.313 131H432.687C433.962 131 435 130.103 435 129C435 127.897 433.962 127 432.687 127H339.313Z"
    fill="#E6E6E6"
  />
  <path
    d="M118.261 112.959C118.261 112.959 120.47 77.4456 131.94 85.5152C143.41 93.5848 126.931 116.253 126.931 116.253L118.261 112.959Z"
    fill="#FFB9B9"
  />
  <path
    d="M79.401 220.322C79.401 220.322 104.307 246.796 90.3726 248.616C76.438 250.436 70.9565 223.676 70.9565 223.676L79.401 220.322Z"
    fill="#FFB9B9"
  />
  <path
    d="M47.8783 92.7429C50.9103 93.539 53.639 95.2112 55.7216 97.5494C57.8043 99.8877 59.1481 102.788 59.5843 105.886L67.2684 160.456L78.0407 203.987C78.0407 203.987 83.4268 208.823 81.2724 211.51C79.1179 214.197 83.9654 225.483 83.9654 225.483L70.5001 229.782C70.5001 229.782 68.8842 218.497 66.1912 217.959C63.8245 217.487 37.3304 146.87 30.9442 129.763C30.0637 127.404 29.5654 126.062 29.5654 126.062C29.5654 126.062 30.6427 90.0558 47.8783 92.7429Z"
    fill="#575A89"
  />
  <path
    d="M49.9971 376.426L57.8575 390.835C63.9446 404.278 58.5354 406.72 43.6106 400.056L40.2085 383.042L49.9971 376.426Z"
    fill="#FFB9B9"
  />
  <path
    d="M54.1578 394.918C54.1578 394.918 58.1536 388.478 59.5989 389.556C61.0441 390.634 67.0052 395.305 67.0052 395.305L74.7699 402.666C74.7699 402.666 101.003 405.412 84.3339 414.51C67.6647 423.608 58.4528 416.064 58.4528 416.064C58.4528 416.064 35.1059 417.266 35.4825 410.818C35.8591 404.371 43.3887 394.17 43.3887 394.17C43.3887 394.17 52.8784 400.468 54.1578 394.918Z"
    fill="#1E2636"
  />
  <path
    d="M13.0088 211.108L20.6739 304.355C20.6739 304.355 20.9294 360.098 29.1054 370.887C37.2815 381.676 37.537 387.07 37.537 387.07L54.4001 378.336C54.4001 378.336 45.713 363.783 47.5015 361.555C48.604 360.142 49.3886 358.506 49.8011 356.758L45.202 299.218L53.8891 199.035L13.0088 211.108Z"
    fill="#1E2636"
  />
  <path d="M34.2957 376.138L27.0579 395.348L10.6436 388.456L19.3033 374.061L34.2957 376.138Z" fill="#FFB9B9" />
  <path
    d="M22.8543 388.638C22.8543 388.638 28.9669 384.854 29.731 386.367C30.4951 387.881 33.5514 394.314 33.5514 394.314L36.9897 403.775C36.9897 403.775 58.0017 417.02 40.046 417.777C22.0903 418.534 17.5058 408.316 17.5058 408.316C17.5058 408.316 -2.74212 399.612 0.314194 394.314C3.37051 389.016 14.0675 383.521 14.0675 383.521C14.0675 383.521 19.416 392.801 22.8543 388.638Z"
    fill="#1E2636"
  />
  <path
    d="M78.6479 212.243L82.7827 297.882C82.7827 297.882 45.0531 375.317 40.9184 377.368C39.6863 378 38.5942 378.869 37.7065 379.926C36.8188 380.983 36.1535 382.206 35.7499 383.522L13.0088 377.881L23.3457 361.471L46.0868 306.6C46.0868 306.6 49.7047 305.062 50.7384 299.934C51.7721 294.806 53.8395 294.806 48.671 293.78C43.5026 292.754 43.5026 287.626 43.5026 287.626L26.4467 209.679L78.6479 212.243Z"
    fill="#1E2636"
  />
  <path
    d="M80.7525 60.0293C82.5684 48.8392 74.9691 38.2957 63.7789 36.4798C52.5888 34.6638 42.0453 42.2632 40.2294 53.4533C38.4135 64.6434 46.0128 75.1869 57.203 77.0028C68.3931 78.8188 78.9366 71.2194 80.7525 60.0293Z"
    fill="#FFB9B9"
  />
  <path
    d="M41.6821 58.3047C41.6821 58.3047 40.0928 83.401 37.9739 85.8614C35.8549 88.3218 60.2234 87.8297 60.2234 87.8297C60.2234 87.8297 58.6342 66.6701 60.2234 64.7018C61.8127 62.7335 41.6821 58.3047 41.6821 58.3047Z"
    fill="#FFB9B9"
  />
  <path
    d="M80.4175 216.774C80.4175 216.774 21.5759 211.663 10.6436 216.774C10.6436 216.774 14.6681 202.116 13.6282 200.585C12.8719 199.464 14.9584 157.71 14.3034 133.625C13.932 120.034 10.7381 106.761 20.0228 96.6707C23.183 93.2432 26.7078 90.3659 30.4285 88.9604C30.4285 88.9604 29.3886 79.2479 34.5948 78.7374C34.5948 78.7374 54.3865 76.6888 61.6725 82.8279C64.0021 84.777 65.4674 90.7172 65.6227 95.8354C62.0168 113.245 63.2931 132.564 66.6018 152.606C66.8044 153.878 67.0272 155.158 67.2501 156.437C70.7614 176.313 76.0688 196.806 80.4175 216.774Z"
    fill="#E4E4E4"
  />
  <path
    d="M49.1548 62.1435C50.9253 62.041 52.6541 62.6217 54.4124 62.8482C60.703 63.6587 67.2472 59.2289 68.6361 53.2201C68.7474 52.4199 68.9932 51.6429 69.3636 50.9199C70.3318 49.386 72.5367 49.0935 74.3543 49.4462C76.1719 49.7989 77.8948 50.6245 79.7459 50.7187C82.604 50.8643 85.3479 49.1567 86.8711 46.8054C88.3105 44.3796 88.9226 41.5742 88.6199 38.7905L87.2497 40.186C86.693 39.043 86.478 37.7712 86.6293 36.5155C85.9033 36.3279 85.1397 36.3242 84.4118 36.505C83.6839 36.6857 83.016 37.0448 82.472 37.5478C81.2639 37.6726 82.1757 35.3732 81.2781 34.5785C80.8416 34.3183 80.3213 34.2238 79.8173 34.3133C77.2471 34.3374 75.168 32.4297 73.1426 30.8939C69.6334 28.239 65.5298 26.4225 61.1633 25.5913C58.2611 25.042 55.1749 24.9537 52.4225 26.0025C50.2007 26.9704 48.1954 28.3507 46.5198 30.0658C42.2107 34.0868 38.3949 38.8112 36.6022 44.3455C35.1448 48.8785 35.1036 53.7288 36.4836 58.2846C37.2059 60.6505 39.3829 68.7532 42.57 68.9418C46.5746 69.1789 44.1702 62.4321 49.1548 62.1435Z"
    fill="#1E2636"
  />
  <path
    d="M58.2354 94.9648L65.6494 95.7651C65.6494 95.7651 72.9273 109.993 72.3987 112.96C71.8702 115.928 70.7192 114.126 73.9949 118.874C77.2705 123.622 86.5655 135.895 87.7166 137.696C88.8676 139.498 120.247 115.374 118.296 108.146C118.296 108.146 128.206 115.31 132.452 116.263C132.452 116.263 100.113 158.999 95.6069 164.468C91.1004 169.937 87.4735 168.814 81.2804 165.571C75.0873 162.328 43.7563 129.984 43.7563 129.984L58.2354 94.9648Z"
    fill="#E4E4E4"
  />
  <path
    opacity="0.1"
    d="M67.4085 156.461L41.3911 131.334L47.9751 129.261L66.7582 152.68C66.9615 153.936 67.185 155.198 67.4085 156.461Z"
    fill="black"
  />
  <path
    d="M438.153 378.273C439.1 378.981 439.769 379.957 440.553 380.818C442.689 383.166 444.771 385.564 446.878 387.939C447.463 388.599 448.866 387.975 449.512 388.571C450.406 389.397 452.038 390.126 453.315 390.324C454.522 390.511 455.608 391.241 456.805 391.559C460.262 392.479 462.292 393.234 465.941 392.714C467.177 392.538 468.406 393.649 469.669 393.843C469.301 396.328 468.974 398.82 468.553 401.296C468.17 403.555 466.462 405.049 464.156 405.215C460.977 405.444 457.798 405.658 454.616 405.838C453.049 405.927 451.72 405.373 450.713 404.132C449.8 403.008 448.954 401.821 447.963 400.771C446.369 399.082 446.074 397.14 446.429 394.941C446.696 393.295 446.61 393.227 444.93 393.382C443.01 393.559 441.549 392.878 440.413 391.347C439.674 390.351 438.88 389.395 438.096 388.433C437.303 387.459 436.996 386.329 437.153 385.115C437.448 382.829 437.815 380.553 438.153 378.273Z"
    fill="#5ECAE7"
  />
  <path
    d="M489.553 392.926C492.689 392.799 495.825 392.68 498.961 392.543C501.512 392.432 504.06 392.252 506.612 392.194C508.515 392.151 510.554 390.936 512.463 391.161C511.99 394.707 511.181 399.134 510.543 402.652C510.22 404.428 508.671 405.762 506.804 405.912C504.01 406.138 501.209 406.281 498.415 406.501C497.121 406.602 496.019 406.203 495.064 405.385C493.494 404.039 491.943 402.669 490.405 401.286C489.143 400.152 488.67 398.726 488.935 397.047C489.151 395.675 489.347 394.3 489.553 392.926Z"
    fill="#5ECAE7"
  />
  <path
    d="M546.737 312.247C546.071 313.696 545.755 315.256 545.356 316.782C544.814 318.855 544.211 320.909 543.616 322.966C542.947 325.275 542.239 327.573 541.548 329.876C540.84 332.234 540.583 334.661 539.885 337.023C539.227 339.244 538.595 341.474 537.935 343.695C536.99 346.871 536.019 350.039 535.08 353.216C534.166 356.31 533.289 359.415 532.376 362.509C531.571 365.237 530.272 367.884 529.462 370.609C528.801 372.83 528.151 375.055 527.52 377.284C527.332 377.95 526.974 378.518 526.649 379.111C526.464 379.45 526.097 379.766 526.414 380.228C526.507 380.365 526.449 380.54 526.305 380.61C525.154 381.173 524.907 382.445 524.162 383.33C522.224 385.632 519.886 387.016 516.785 387.026C514.062 387.823 511.249 388.093 508.551 388.175C504.357 388.302 500.253 387.838 496.109 387.64C492.472 387.756 488.836 387.893 485.199 388.009C480.713 388.152 476.086 389.196 471.599 389.332C469.253 389.404 466.879 388.99 464.564 388.756C462.399 388.537 460.263 387.938 458.803 385.917C458.208 385.092 457.058 384.02 456.987 383.045C456.947 382.5 456.711 382.103 456.717 381.852C456.723 381.583 457.293 381.17 457.307 380.673C457.349 379.118 457.386 377.549 457.625 376.017C457.921 374.119 458.038 372.206 458.254 370.303C458.662 366.708 459.419 363.17 459.82 359.572C460.077 357.263 460.288 354.947 460.521 352.634C460.88 349.062 461.22 345.489 461.607 341.919C461.851 339.668 462.062 337.412 462.287 335.158C462.653 331.468 463.018 327.779 463.424 324.092C463.669 321.871 463.857 319.642 464.086 317.418C464.456 313.817 464.799 310.215 465.188 306.616C465.437 304.306 465.648 301.99 465.886 299.678C466.138 297.219 466.396 294.76 466.646 292.301C466.875 290.048 467.103 287.793 467.32 285.539C467.658 282.024 467.582 278.488 467.936 274.975C468.181 272.545 468.074 269.971 468.298 267.54C468.725 262.904 468.756 258.089 470.739 253.843C471.042 252.096 471.575 250.411 472.58 248.922C473.374 247.746 474.591 247.206 475.917 246.929C478.321 246.429 480.682 246.589 483.027 247.388C484.384 247.851 485.817 248.09 487.213 248.439C489.518 249.017 491.424 248.974 493.731 249.546C495.213 249.914 496.705 250.243 498.187 250.614C500.378 251.163 502.563 251.739 504.752 252.293C506.147 252.647 507.549 252.976 508.945 253.325C511.25 253.902 513.553 254.493 515.859 255.067C517.313 255.428 518.775 255.757 520.228 256.121C522.448 256.677 525.058 257.891 527.278 258.447C528.731 258.812 530.192 259.144 531.645 259.508C533.893 260.072 536.125 260.708 538.388 261.203C539.911 261.536 541.414 261.94 542.927 262.307C545.151 262.847 547.359 263.451 549.583 263.989C550.896 264.306 552.221 264.569 553.514 264.971C555.646 265.633 557.421 267.716 557.567 269.917C557.691 271.787 558.292 274.223 557.935 276.069C557.223 278.564 557.095 280.548 556.383 283.043C554.944 288.091 552.679 293.365 551.379 298.453C550.595 300.519 549.973 302.384 549.474 304.533C548.569 307.071 547.337 309.622 546.737 312.247Z"
    fill="#5FCAE7"
  />
  <path
    d="M429.562 337.947C429.266 339.705 429.219 341.277 429.945 342.779C430.21 343.328 430.654 343.685 431.267 343.648C431.909 343.611 431.989 343.006 432.089 342.544C432.377 341.22 432.596 339.876 432.494 338.517C432.413 337.437 432.379 336.326 431.861 335.339C431.422 334.502 430.972 334.5 430.443 335.287C429.87 336.14 429.619 337.102 429.562 337.947ZM445.584 350.701C445.567 350.819 445.485 351.167 445.465 351.52C445.374 353.097 445.486 354.648 446.255 356.074C446.621 356.751 447.168 357.368 447.968 357.266C448.71 357.171 448.893 356.404 449.139 355.754C449.679 354.33 449.639 352.854 449.563 351.393C449.488 349.958 449.377 348.491 448.56 347.227C447.969 346.31 447.488 346.321 446.793 347.186C446.02 348.146 445.757 349.284 445.584 350.701ZM461.109 254.613C460.673 256.398 460.356 259.65 460.113 262.024C459.792 265.153 459.202 268.462 458.903 271.594C458.615 274.608 458.327 277.623 458.056 280.639C457.782 283.685 457.49 286.728 457.207 289.773C456.914 292.935 456.612 296.096 456.304 299.257C456.108 301.276 455.933 303.297 455.742 305.317C455.453 308.361 455.186 311.407 454.89 314.451C454.595 317.494 454.315 320.539 454.038 323.584C453.759 326.659 453.449 329.731 453.173 332.805C452.897 335.881 452.593 338.953 452.308 342.027C452.029 345.042 451.741 348.057 451.467 351.072C451.184 354.177 450.879 357.278 450.59 360.382C450.3 363.485 450.723 366.595 450.417 369.697C450.218 371.715 450.315 373.408 450.113 375.427C449.986 376.702 449.625 378.338 449.344 379.666C449.118 380.733 449.071 381.81 448.632 382.822C448.079 384.097 446.237 384.399 445.267 383.373C443.894 381.92 442.229 381.561 440.883 380.082C439.102 378.126 437.273 376.39 435.493 374.433C433.476 372.214 431.813 368.666 429.845 366.404C429.17 365.628 429.287 364.5 428.979 363.551C428.322 361.526 427.894 359.442 427.673 357.336C427.536 356.037 427.265 354.62 427.307 353.303C427.383 350.929 427.14 348.373 427.226 346C427.291 344.211 427.622 342.272 427.687 340.483C427.754 338.638 428.323 337.21 428.393 335.364C428.462 333.546 428.563 331.73 428.64 329.912C428.712 328.183 428.773 326.453 428.836 324.723C428.903 322.848 428.969 320.973 429.03 319.097C429.107 316.724 429.17 314.35 429.256 311.977C429.321 310.189 429.426 308.401 429.492 306.612C429.575 304.327 429.632 302.04 429.712 299.755C429.776 297.937 429.866 296.121 429.93 294.303C430.013 291.93 430.075 289.556 430.162 287.183C430.227 285.394 430.322 283.607 430.394 281.818C430.462 280.118 430.519 278.418 430.58 276.717C430.649 274.813 430.716 272.908 430.785 271.004C430.848 269.274 430.918 267.545 430.977 265.815C431.054 263.559 430.98 258.609 431.312 256.392C431.67 253.997 432.041 254.241 432.968 251.96C433.148 251.517 433.471 251.344 433.888 251.228C440.022 247.985 441.433 248.653 447.681 246.914C449.328 246.456 455.741 244.504 457.389 244.052C458.964 243.619 461.052 245.812 461.256 247.711C461.524 250.208 461.576 251.613 461.109 254.613Z"
    fill="#5FCAE7"
  />
  <path
    d="M460.576 255.641C462.724 248.441 460.713 241.854 452.63 246.007C444.741 249.486 430.77 247.531 431.253 259.052C430.146 284.465 429.481 309.937 428.393 335.362C426.079 359.036 427.248 366.968 445.27 383.369C452.295 387.049 449.188 356.228 451.469 351.072C454.59 319.347 457.112 287.277 460.576 255.641ZM549.161 304.521C550.235 292.557 564.584 274.123 553.517 264.969C527.651 259.591 501.952 249.94 475.916 246.926C464.639 255.733 470.463 278.832 466.641 292.298C463.211 321.78 461.31 352.812 457.163 381.535C458.579 393.065 476.114 387.175 485.198 388.009C497.645 385.787 513.88 391.271 524.162 383.332C535.39 359.095 540.084 330.269 549.161 304.521ZM489.552 392.926C472.121 393.204 451.072 398.725 440.554 380.816C421.802 366.473 427.474 343 427.633 322.33C431.243 301.836 421.963 259.381 436.803 245.786C463.372 234.005 479.882 236.133 506.86 245.1C527.539 253.884 571.671 249.257 556.8 283.331C549.11 309.323 541.346 335.294 533.654 361.286C527.51 391.175 518.264 393.532 489.552 392.926Z"
    fill="#79D0E7"
  />
  <path
    d="M445.585 350.7C445.758 349.283 446.021 348.145 446.794 347.185C447.489 346.32 447.97 346.309 448.561 347.226C449.377 348.49 449.489 349.957 449.563 351.392C449.639 352.853 449.68 354.329 449.14 355.753C448.893 356.403 448.711 357.169 447.969 357.264C447.169 357.367 446.621 356.749 446.256 356.072C445.487 354.647 445.374 353.096 445.465 351.518C445.486 351.166 445.567 350.818 445.585 350.7Z"
    fill="#1A8DC5"
  />
  <path
    d="M429.563 337.946C429.62 337.101 429.87 336.139 430.443 335.286C430.972 334.499 431.422 334.501 431.861 335.338C432.379 336.325 432.413 337.436 432.494 338.516C432.596 339.875 432.377 341.219 432.09 342.543C431.989 343.005 431.909 343.61 431.267 343.647C430.654 343.684 430.21 343.327 429.945 342.778C429.219 341.276 429.267 339.704 429.563 337.946Z"
    fill="#1783BD"
  />
  <path
    fill-rule="evenodd"
    clip-rule="evenodd"
    d="M427.19 341.23C426.448 346.293 427.089 350.827 428.644 351.319C430.188 351.807 432.142 347.627 433.006 341.925C433.87 336.224 433.208 331.731 431.551 331.837C429.894 331.943 427.938 336.127 427.19 341.23ZM425.048 342.467C423.99 349.765 424.969 356.55 427.226 357.578C429.484 358.605 432.393 352.409 433.707 343.777C435.02 335.144 434.042 328.36 431.515 328.668C428.987 328.975 426.11 335.13 425.048 342.467Z"
    fill="#0B639E"
  />
  <path
    fill-rule="evenodd"
    clip-rule="evenodd"
    d="M428.652 351.277C427.109 350.79 426.449 346.294 427.197 341.191C427.94 336.128 429.895 331.944 431.553 331.838C433.21 331.732 433.871 336.225 433.007 341.926C432.138 347.58 430.196 351.764 428.652 351.277ZM428.551 351.957C426.902 351.414 426.197 346.609 426.988 341.207C427.78 335.805 429.874 331.293 431.654 331.157C433.434 331.022 434.139 335.823 433.211 341.951C432.288 348.033 430.2 352.501 428.551 351.957Z"
    fill="#0B639E"
  />
  <path
    fill-rule="evenodd"
    clip-rule="evenodd"
    d="M427.333 356.861C425.213 355.93 424.254 349.362 425.249 342.497C426.245 335.633 429.079 329.598 431.428 329.34C433.777 329.082 434.73 335.691 433.512 343.7C432.294 351.71 429.453 357.793 427.333 356.861ZM427.226 357.578C424.969 356.55 423.985 349.804 425.047 342.467C426.105 335.168 429.001 328.974 431.528 328.666C434.056 328.358 435.027 335.098 433.707 343.777C432.393 352.409 429.484 358.605 427.226 357.578Z"
    fill="#0B639E"
  />
  <path
    d="M443.5 275C447.642 275 451 271.866 451 268C451 264.134 447.642 261 443.5 261C439.358 261 436 264.134 436 268C436 271.866 439.358 275 443.5 275Z"
    fill="#3F3D56"
  />
  <path
    d="M394.596 272.525C398.317 270.114 402.472 272.216 405.979 274.439C407.785 275.583 409.572 276.805 411.441 277.709C413.014 278.467 414.624 279.037 416.257 279.414C419.535 280.164 422.868 280.194 426.151 279.504C429.451 278.817 432.667 277.42 435.699 275.357C438.714 273.315 441.501 270.593 443.963 267.286C444.276 266.864 444.583 266.432 444.884 265.99C445.242 265.465 444.692 264.644 444.334 265.168C441.964 268.619 439.243 271.488 436.272 273.669C433.314 275.842 430.159 277.356 426.907 278.164C423.644 278.986 420.317 279.071 417.037 278.418C415.401 278.088 413.785 277.563 412.205 276.849C410.39 275.967 408.609 274.934 406.871 273.755C403.331 271.484 399.398 269.26 395.509 270.826C395.063 271.01 394.627 271.243 394.204 271.522C393.746 271.819 394.141 272.82 394.596 272.525Z"
    fill="#3F3D56"
  />
  <path
    d="M389.389 352H222.439C220.952 351.999 219.526 351.406 218.474 350.353C217.422 349.299 216.83 347.871 216.829 346.381V210.229C216.83 208.739 217.422 207.311 218.474 206.257C219.526 205.204 220.952 204.611 222.439 204.609H389.389C390.877 204.611 392.303 205.204 393.355 206.257C394.407 207.311 394.998 208.739 395 210.229V346.381C394.998 347.871 394.407 349.299 393.355 350.353C392.303 351.406 390.877 351.999 389.389 352Z"
    fill="white"
    fill-opacity="0.2"
  />
  <path
    d="M226.221 208.607C224.788 208.609 223.414 209.18 222.401 210.195C221.388 211.21 220.818 212.586 220.816 214.021V342.589C220.818 344.024 221.388 345.4 222.401 346.414C223.414 347.429 224.788 348 226.221 348.002H340.492C353.884 347.986 366.724 342.651 376.194 333.167C385.663 323.682 390.99 310.822 391.005 297.409V214.021C391.004 212.586 390.434 211.21 389.421 210.195C388.408 209.18 387.034 208.609 385.601 208.607L226.221 208.607Z"
    fill="#1E2636"
  />
  <line x1="220.605" y1="223.096" x2="390.52" y2="223.096" stroke="#DEDEDE" stroke-opacity="0.3" />
  <line x1="238.981" y1="348.2" x2="238.981" y2="223.596" stroke="#DEDEDE" stroke-opacity="0.3" />
  <line x1="291.687" y1="348.2" x2="291.687" y2="223.596" stroke="#DEDEDE" stroke-opacity="0.3" />
  <rect x="224.714" y="228.33" width="9.53906" height="9.53906" rx="4" fill="#CBCBCB" fill-opacity="0.3" />
  <rect x="237.634" y="211.728" width="56.3926" height="7.66501" rx="3.83251" fill="#525763" />
  <rect x="357.537" y="211.728" width="29.0176" height="7.66501" rx="3.83251" fill="#525763" />
  <rect x="224.714" y="254.088" width="9.53906" height="9.53906" rx="4" fill="#CBCBCB" fill-opacity="0.3" />
  <rect x="224.714" y="241.207" width="9.53906" height="9.53906" rx="4" fill="#CBCBCB" fill-opacity="0.3" />
  <path
    fill-rule="evenodd"
    clip-rule="evenodd"
    d="M228.653 219.421C230.793 219.421 232.528 217.686 232.528 215.546C232.528 213.406 230.793 211.671 228.653 211.671C226.513 211.671 224.778 213.406 224.778 215.546C224.778 217.686 226.513 219.421 228.653 219.421ZM228.226 217.7C229.653 217.7 230.81 216.543 230.81 215.116C230.81 213.69 229.653 212.533 228.226 212.533C226.8 212.533 225.643 213.69 225.643 215.116C225.643 216.543 226.8 217.7 228.226 217.7Z"
    fill="url(#paint0_linear_42313_901)"
  />
  <path
    opacity="0.6"
    d="M269.223 241.553H247.997C247.734 241.553 247.481 241.265 247.295 240.751C247.109 240.238 247.004 239.542 247.004 238.816C247.004 238.09 247.109 237.393 247.295 236.88C247.481 236.367 247.734 236.078 247.997 236.078H269.223C269.486 236.078 269.738 236.367 269.925 236.88C270.111 237.393 270.216 238.09 270.216 238.816C270.216 239.542 270.111 240.238 269.925 240.751C269.738 241.265 269.486 241.553 269.223 241.553V241.553Z"
    fill="#374560"
  />
  <path
    opacity="0.6"
    d="M272.791 251.696H247.915C247.656 251.695 247.408 251.406 247.226 250.893C247.043 250.379 246.94 249.684 246.94 248.958C246.94 248.233 247.043 247.537 247.226 247.024C247.408 246.511 247.656 246.222 247.915 246.221H272.791C272.919 246.22 273.046 246.291 273.165 246.428C273.283 246.565 273.391 246.767 273.482 247.021C273.573 247.275 273.644 247.577 273.694 247.91C273.743 248.242 273.768 248.598 273.768 248.958C273.768 249.318 273.743 249.674 273.694 250.007C273.644 250.339 273.573 250.641 273.482 250.895C273.391 251.149 273.283 251.351 273.165 251.488C273.046 251.626 272.919 251.696 272.791 251.696V251.696Z"
    fill="#374560"
  />
  <path
    opacity="0.6"
    d="M263.668 261.697H247.749C247.552 261.697 247.362 261.408 247.223 260.895C247.083 260.382 247.004 259.685 247.004 258.959C247.004 258.233 247.083 257.537 247.223 257.023C247.362 256.51 247.552 256.222 247.749 256.222H263.668C263.866 256.222 264.055 256.51 264.195 257.023C264.334 257.537 264.413 258.233 264.413 258.959C264.413 259.685 264.334 260.382 264.195 260.895C264.055 261.408 263.866 261.697 263.668 261.697V261.697Z"
    fill="#374560"
  />
  <path
    opacity="0.6"
    d="M272.725 281.909H247.974C247.717 281.908 247.47 281.619 247.288 281.105C247.106 280.592 247.004 279.896 247.004 279.171C247.004 278.446 247.106 277.75 247.288 277.237C247.47 276.723 247.717 276.435 247.974 276.434H272.725C272.853 276.433 272.979 276.504 273.097 276.641C273.215 276.778 273.322 276.98 273.412 277.234C273.503 277.488 273.574 277.79 273.623 278.123C273.672 278.455 273.697 278.811 273.697 279.171C273.697 279.531 273.672 279.887 273.623 280.22C273.574 280.552 273.503 280.854 273.412 281.108C273.322 281.362 273.215 281.564 273.097 281.701C272.979 281.839 272.853 281.909 272.725 281.909V281.909Z"
    fill="#374560"
  />
  <path
    opacity="0.6"
    d="M272.725 271.527H247.974C247.717 271.526 247.47 271.237 247.288 270.724C247.106 270.21 247.004 269.515 247.004 268.789C247.004 268.064 247.106 267.368 247.288 266.855C247.47 266.342 247.717 266.053 247.974 266.052H272.725C272.853 266.051 272.979 266.122 273.097 266.259C273.215 266.396 273.322 266.598 273.412 266.852C273.503 267.106 273.574 267.408 273.623 267.741C273.672 268.073 273.697 268.429 273.697 268.789C273.697 269.149 273.672 269.505 273.623 269.838C273.574 270.17 273.503 270.472 273.412 270.726C273.322 270.981 273.215 271.182 273.097 271.319C272.979 271.457 272.853 271.527 272.725 271.527V271.527Z"
    fill="#12E0A2"
  />
  <path
    d="M201.8 150.019H169.919C166.655 149.842 163.451 150.926 161.007 153.034C158.564 155.142 157.079 158.103 156.877 161.27V178.146C157.079 181.313 158.564 184.274 161.007 186.382C163.451 188.49 166.655 189.574 169.919 189.397H201.8C205.064 189.574 208.268 188.49 210.712 186.382C213.155 184.274 214.64 181.313 214.842 178.146V161.27C214.64 158.103 213.155 155.142 210.712 153.034C208.268 150.926 205.064 149.842 201.8 150.019Z"
    stroke="#DBDBDB"
    stroke-width="2"
    stroke-linecap="round"
    stroke-linejoin="round"
  />
  <path d="M187.019 189.415V201.008" stroke="#DBDBDB" stroke-width="2" stroke-linecap="round" stroke-linejoin="round" />
  <path d="M196.293 201.009H175.426" stroke="#DBDBDB" stroke-width="2" stroke-linecap="round" stroke-linejoin="round" />
  <path
    d="M277 254.062C273.134 254.062 270 257.393 270 261.5C270 265.607 273.134 268.938 277 268.938C280.866 268.938 284 265.607 284 261.5C284 257.393 280.866 254.062 277 254.062ZM280.023 259.071L276.733 263.919C276.687 263.987 276.626 264.043 276.556 264.081C276.486 264.119 276.408 264.139 276.329 264.139C276.25 264.139 276.172 264.119 276.102 264.081C276.032 264.043 275.971 263.987 275.925 263.919L273.977 261.05C273.917 260.962 273.977 260.839 274.078 260.839H274.811C274.97 260.839 275.122 260.921 275.216 261.06L276.328 262.7L278.784 259.081C278.878 258.943 279.028 258.86 279.189 258.86H279.922C280.023 258.86 280.083 258.983 280.023 259.071V259.071Z"
    fill="#179677"
  />
  <path
    d="M388.261 46.5477C392.823 46.5477 396.522 42.8434 396.522 38.2738C396.522 33.7043 392.823 30 388.261 30C383.699 30 380 33.7043 380 38.2738C380 42.8434 383.699 46.5477 388.261 46.5477Z"
    fill="#D8BD14"
  />
  <path d="M388 37L388 9L332 8.99999" stroke="#D8BD14" />
  <rect x="127" width="205" height="18" rx="9" fill="#D8BD14" />
  <path
    d="M139.251 5.45455L140.833 10.4276H140.894L142.479 5.45455H144.013L141.757 12H139.974L137.714 5.45455H139.251ZM146.815 5.45455V12H145.431V5.45455H146.815ZM152.135 7.337C152.109 7.07919 151.999 6.87891 151.805 6.73615C151.611 6.59339 151.348 6.52202 151.016 6.52202C150.79 6.52202 150.599 6.55398 150.444 6.6179C150.288 6.67969 150.169 6.76598 150.086 6.87678C150.005 6.98757 149.964 7.11328 149.964 7.25391C149.96 7.37109 149.985 7.47337 150.038 7.56072C150.093 7.64808 150.169 7.72372 150.265 7.78764C150.361 7.84943 150.472 7.90376 150.597 7.95064C150.723 7.99538 150.857 8.03374 151 8.0657L151.588 8.20632C151.874 8.27024 152.136 8.35547 152.374 8.462C152.613 8.56854 152.82 8.69957 152.994 8.85511C153.169 9.01065 153.304 9.19389 153.4 9.40483C153.498 9.61577 153.548 9.8576 153.55 10.1303C153.548 10.5309 153.446 10.8782 153.244 11.1722C153.043 11.4641 152.754 11.6911 152.374 11.853C151.997 12.0128 151.542 12.0927 151.01 12.0927C150.481 12.0927 150.021 12.0117 149.629 11.8498C149.239 11.6879 148.934 11.4482 148.715 11.1307C148.497 10.8111 148.383 10.4158 148.373 9.94496H149.712C149.727 10.1644 149.79 10.3477 149.901 10.4947C150.013 10.6396 150.164 10.7493 150.351 10.8239C150.541 10.8963 150.755 10.9325 150.994 10.9325C151.228 10.9325 151.431 10.8984 151.604 10.8303C151.779 10.7621 151.914 10.6673 152.01 10.5458C152.106 10.4244 152.154 10.2848 152.154 10.1271C152.154 9.98011 152.11 9.85653 152.023 9.75639C151.937 9.65625 151.812 9.57102 151.646 9.50071C151.482 9.4304 151.28 9.36648 151.042 9.30895L150.329 9.12997C149.777 8.99574 149.341 8.78587 149.022 8.50036C148.702 8.21484 148.543 7.83026 148.545 7.34659C148.543 6.95028 148.649 6.60405 148.862 6.30788C149.077 6.01172 149.372 5.78054 149.747 5.61435C150.122 5.44815 150.548 5.36506 151.026 5.36506C151.511 5.36506 151.935 5.44815 152.298 5.61435C152.662 5.78054 152.945 6.01172 153.148 6.30788C153.35 6.60405 153.455 6.94709 153.461 7.337H152.135ZM159.154 5.45455H160.538V9.70526C160.538 10.1825 160.424 10.6001 160.196 10.9581C159.97 11.3161 159.654 11.5952 159.247 11.7955C158.84 11.9936 158.366 12.0927 157.825 12.0927C157.281 12.0927 156.806 11.9936 156.399 11.7955C155.992 11.5952 155.676 11.3161 155.45 10.9581C155.224 10.6001 155.111 10.1825 155.111 9.70526V5.45455H156.495V9.587C156.495 9.83629 156.549 10.0579 156.658 10.2518C156.769 10.4457 156.924 10.598 157.125 10.7088C157.325 10.8196 157.558 10.875 157.825 10.875C158.093 10.875 158.326 10.8196 158.525 10.7088C158.725 10.598 158.879 10.4457 158.988 10.2518C159.099 10.0579 159.154 9.83629 159.154 9.587V5.45455ZM163.435 12H161.952L164.211 5.45455H165.995L168.251 12H166.768L165.129 6.95028H165.078L163.435 12ZM163.342 9.4272H166.845V10.5075H163.342V9.4272ZM169.669 12V5.45455H171.053V10.859H173.859V12H169.669ZM181.669 7.337C181.644 7.07919 181.534 6.87891 181.34 6.73615C181.146 6.59339 180.883 6.52202 180.551 6.52202C180.325 6.52202 180.134 6.55398 179.979 6.6179C179.823 6.67969 179.704 6.76598 179.621 6.87678C179.54 6.98757 179.499 7.11328 179.499 7.25391C179.495 7.37109 179.519 7.47337 179.573 7.56072C179.628 7.64808 179.704 7.72372 179.8 7.78764C179.896 7.84943 180.006 7.90376 180.132 7.95064C180.258 7.99538 180.392 8.03374 180.535 8.0657L181.123 8.20632C181.408 8.27024 181.67 8.35547 181.909 8.462C182.148 8.56854 182.354 8.69957 182.529 8.85511C182.704 9.01065 182.839 9.19389 182.935 9.40483C183.033 9.61577 183.083 9.8576 183.085 10.1303C183.083 10.5309 182.981 10.8782 182.778 11.1722C182.578 11.4641 182.288 11.6911 181.909 11.853C181.532 12.0128 181.077 12.0927 180.544 12.0927C180.016 12.0927 179.556 12.0117 179.164 11.8498C178.774 11.6879 178.469 11.4482 178.25 11.1307C178.032 10.8111 177.918 10.4158 177.908 9.94496H179.247C179.262 10.1644 179.325 10.3477 179.435 10.4947C179.548 10.6396 179.698 10.7493 179.886 10.8239C180.076 10.8963 180.29 10.9325 180.528 10.9325C180.763 10.9325 180.966 10.8984 181.139 10.8303C181.313 10.7621 181.449 10.6673 181.545 10.5458C181.641 10.4244 181.688 10.2848 181.688 10.1271C181.688 9.98011 181.645 9.85653 181.557 9.75639C181.472 9.65625 181.347 9.57102 181.18 9.50071C181.016 9.4304 180.815 9.36648 180.576 9.30895L179.864 9.12997C179.312 8.99574 178.876 8.78587 178.556 8.50036C178.237 8.21484 178.078 7.83026 178.08 7.34659C178.078 6.95028 178.184 6.60405 178.397 6.30788C178.612 6.01172 178.907 5.78054 179.282 5.61435C179.657 5.44815 180.083 5.36506 180.56 5.36506C181.046 5.36506 181.47 5.44815 181.832 5.61435C182.197 5.78054 182.48 6.01172 182.682 6.30788C182.885 6.60405 182.989 6.94709 182.996 7.337H181.669ZM184.397 6.59553V5.45455H189.772V6.59553H187.769V12H186.401V6.59553H184.397ZM195.331 5.45455H196.715V9.70526C196.715 10.1825 196.601 10.6001 196.373 10.9581C196.147 11.3161 195.83 11.5952 195.423 11.7955C195.016 11.9936 194.542 12.0927 194.001 12.0927C193.458 12.0927 192.983 11.9936 192.576 11.7955C192.169 11.5952 191.852 11.3161 191.626 10.9581C191.401 10.6001 191.288 10.1825 191.288 9.70526V5.45455H192.672V9.587C192.672 9.83629 192.726 10.0579 192.835 10.2518C192.945 10.4457 193.101 10.598 193.301 10.7088C193.501 10.8196 193.735 10.875 194.001 10.875C194.27 10.875 194.503 10.8196 194.701 10.7088C194.901 10.598 195.056 10.4457 195.164 10.2518C195.275 10.0579 195.331 9.83629 195.331 9.587V5.45455ZM200.803 12H198.483V5.45455H200.823C201.481 5.45455 202.048 5.58558 202.523 5.84766C202.998 6.1076 203.363 6.48153 203.619 6.96946C203.877 7.45739 204.006 8.04119 204.006 8.72088C204.006 9.4027 203.877 9.98864 203.619 10.4787C203.363 10.9687 202.996 11.3448 202.517 11.6069C202.039 11.869 201.468 12 200.803 12ZM199.867 10.8143H200.746C201.155 10.8143 201.499 10.7418 201.778 10.5969C202.059 10.4499 202.27 10.223 202.411 9.91619C202.554 9.60724 202.625 9.20881 202.625 8.72088C202.625 8.23722 202.554 7.84197 202.411 7.53516C202.27 7.22834 202.061 7.00249 201.781 6.8576C201.502 6.71271 201.158 6.64027 200.749 6.64027H199.867V10.8143ZM207.045 5.45455V12H205.661V5.45455H207.045ZM214.828 8.72727C214.828 9.44105 214.693 10.0483 214.422 10.549C214.154 11.0497 213.788 11.4322 213.323 11.6964C212.861 11.9585 212.341 12.0895 211.763 12.0895C211.182 12.0895 210.66 11.9574 210.197 11.6932C209.735 11.429 209.37 11.0465 209.101 10.5458C208.833 10.0451 208.698 9.43892 208.698 8.72727C208.698 8.01349 208.833 7.40625 209.101 6.90554C209.37 6.40483 209.735 6.02344 210.197 5.76136C210.66 5.49716 211.182 5.36506 211.763 5.36506C212.341 5.36506 212.861 5.49716 213.323 5.76136C213.788 6.02344 214.154 6.40483 214.422 6.90554C214.693 7.40625 214.828 8.01349 214.828 8.72727ZM213.425 8.72727C213.425 8.26491 213.356 7.875 213.218 7.55753C213.081 7.24006 212.888 6.99929 212.639 6.83523C212.39 6.67116 212.098 6.58913 211.763 6.58913C211.429 6.58913 211.137 6.67116 210.888 6.83523C210.638 6.99929 210.444 7.24006 210.306 7.55753C210.17 7.875 210.101 8.26491 210.101 8.72727C210.101 9.18963 210.17 9.57955 210.306 9.89702C210.444 10.2145 210.638 10.4553 210.888 10.6193C211.137 10.7834 211.429 10.8654 211.763 10.8654C212.098 10.8654 212.39 10.7834 212.639 10.6193C212.888 10.4553 213.081 10.2145 213.218 9.89702C213.356 9.57955 213.425 9.18963 213.425 8.72727ZM224.972 7.74609H223.572C223.546 7.56499 223.494 7.40412 223.415 7.26349C223.336 7.12074 223.235 6.99929 223.112 6.89915C222.988 6.79901 222.845 6.7223 222.683 6.66903C222.524 6.61577 222.35 6.58913 222.162 6.58913C221.824 6.58913 221.529 6.6733 221.277 6.84162C221.026 7.00781 220.831 7.25071 220.692 7.57031C220.554 7.88778 220.485 8.27344 220.485 8.72727C220.485 9.19389 220.554 9.58594 220.692 9.90341C220.833 10.2209 221.029 10.4606 221.28 10.6225C221.532 10.7844 221.823 10.8654 222.153 10.8654C222.338 10.8654 222.51 10.8409 222.667 10.7919C222.827 10.7429 222.969 10.6715 223.092 10.5778C223.216 10.4819 223.318 10.3658 223.399 10.2294C223.482 10.093 223.54 9.9375 223.572 9.76278L224.972 9.76918C224.936 10.0696 224.845 10.3594 224.7 10.6385C224.557 10.9155 224.364 11.1637 224.122 11.3832C223.881 11.6005 223.593 11.7731 223.259 11.9009C222.926 12.0266 222.55 12.0895 222.13 12.0895C221.547 12.0895 221.025 11.9574 220.564 11.6932C220.106 11.429 219.744 11.0465 219.478 10.5458C219.214 10.0451 219.081 9.43892 219.081 8.72727C219.081 8.01349 219.216 7.40625 219.484 6.90554C219.753 6.40483 220.117 6.02344 220.577 5.76136C221.037 5.49716 221.555 5.36506 222.13 5.36506C222.51 5.36506 222.861 5.41832 223.185 5.52486C223.511 5.63139 223.8 5.78693 224.051 5.99148C224.303 6.19389 224.507 6.44212 224.665 6.73615C224.825 7.03018 224.927 7.36683 224.972 7.74609ZM232.609 8.72727C232.609 9.44105 232.474 10.0483 232.203 10.549C231.935 11.0497 231.568 11.4322 231.104 11.6964C230.641 11.9585 230.121 12.0895 229.544 12.0895C228.962 12.0895 228.44 11.9574 227.978 11.6932C227.516 11.429 227.15 11.0465 226.882 10.5458C226.613 10.0451 226.479 9.43892 226.479 8.72727C226.479 8.01349 226.613 7.40625 226.882 6.90554C227.15 6.40483 227.516 6.02344 227.978 5.76136C228.44 5.49716 228.962 5.36506 229.544 5.36506C230.121 5.36506 230.641 5.49716 231.104 5.76136C231.568 6.02344 231.935 6.40483 232.203 6.90554C232.474 7.40625 232.609 8.01349 232.609 8.72727ZM231.206 8.72727C231.206 8.26491 231.137 7.875 230.998 7.55753C230.862 7.24006 230.669 6.99929 230.42 6.83523C230.17 6.67116 229.879 6.58913 229.544 6.58913C229.209 6.58913 228.918 6.67116 228.668 6.83523C228.419 6.99929 228.225 7.24006 228.087 7.55753C227.95 7.875 227.882 8.26491 227.882 8.72727C227.882 9.18963 227.95 9.57955 228.087 9.89702C228.225 10.2145 228.419 10.4553 228.668 10.6193C228.918 10.7834 229.209 10.8654 229.544 10.8654C229.879 10.8654 230.17 10.7834 230.42 10.6193C230.669 10.4553 230.862 10.2145 230.998 9.89702C231.137 9.57955 231.206 9.18963 231.206 8.72727ZM236.584 12H234.264V5.45455H236.604C237.262 5.45455 237.829 5.58558 238.304 5.84766C238.779 6.1076 239.144 6.48153 239.4 6.96946C239.658 7.45739 239.787 8.04119 239.787 8.72088C239.787 9.4027 239.658 9.98864 239.4 10.4787C239.144 10.9687 238.777 11.3448 238.298 11.6069C237.82 11.869 237.249 12 236.584 12ZM235.648 10.8143H236.527C236.936 10.8143 237.28 10.7418 237.559 10.5969C237.84 10.4499 238.051 10.223 238.192 9.91619C238.335 9.60724 238.406 9.20881 238.406 8.72088C238.406 8.23722 238.335 7.84197 238.192 7.53516C238.051 7.22834 237.842 7.00249 237.562 6.8576C237.283 6.71271 236.939 6.64027 236.53 6.64027H235.648V10.8143ZM241.442 12V5.45455H245.852V6.59553H242.826V8.15518H245.626V9.29616H242.826V10.859H245.865V12H241.442ZM251.68 5.45455V12H250.296V5.45455H251.68ZM258.923 5.45455V12H257.728L254.88 7.88033H254.832V12H253.448V5.45455H254.663L257.488 9.57102H257.545V5.45455H258.923ZM260.447 6.59553V5.45455H265.823V6.59553H263.819V12H262.451V6.59553H260.447ZM267.338 12V5.45455H271.749V6.59553H268.722V8.15518H271.522V9.29616H268.722V10.859H271.761V12H267.338ZM277.819 7.57031C277.774 7.41477 277.711 7.27734 277.63 7.15803C277.549 7.03658 277.45 6.9343 277.333 6.85121C277.218 6.76598 277.086 6.70099 276.937 6.65625C276.79 6.61151 276.627 6.58913 276.448 6.58913C276.113 6.58913 275.819 6.67223 275.566 6.83842C275.314 7.00462 275.118 7.24645 274.978 7.56392C274.837 7.87926 274.767 8.26491 274.767 8.72088C274.767 9.17685 274.836 9.56463 274.975 9.88423C275.113 10.2038 275.309 10.4478 275.563 10.6161C275.816 10.7823 276.116 10.8654 276.461 10.8654C276.774 10.8654 277.041 10.81 277.263 10.6992C277.487 10.5863 277.657 10.4276 277.774 10.223C277.894 10.0185 277.953 9.77663 277.953 9.49751L278.235 9.53906H276.547V8.49716H279.286V9.32173C279.286 9.89702 279.165 10.3913 278.922 10.8047C278.679 11.2159 278.344 11.5334 277.918 11.7571C277.492 11.9787 277.004 12.0895 276.454 12.0895C275.841 12.0895 275.302 11.9542 274.837 11.6836C274.373 11.4109 274.01 11.0241 273.75 10.5234C273.493 10.0206 273.364 9.42401 273.364 8.73366C273.364 8.20312 273.44 7.73011 273.594 7.31463C273.749 6.89702 273.967 6.54332 274.246 6.25355C274.525 5.96378 274.85 5.74325 275.221 5.59197C275.591 5.4407 275.993 5.36506 276.426 5.36506C276.796 5.36506 277.141 5.41939 277.461 5.52805C277.781 5.63459 278.064 5.78587 278.311 5.98189C278.56 6.17791 278.764 6.41122 278.922 6.68182C279.079 6.95028 279.181 7.24645 279.225 7.57031H277.819ZM280.955 12V5.45455H283.538C284.032 5.45455 284.454 5.54297 284.804 5.71982C285.155 5.89453 285.422 6.14276 285.606 6.46449C285.791 6.78409 285.884 7.16016 285.884 7.59268C285.884 8.02734 285.79 8.40128 285.603 8.71449C285.415 9.02557 285.143 9.2642 284.788 9.4304C284.434 9.59659 284.006 9.67969 283.503 9.67969H281.774V8.56747H283.279C283.543 8.56747 283.763 8.53125 283.937 8.45881C284.112 8.38636 284.242 8.2777 284.327 8.13281C284.415 7.98793 284.458 7.80788 284.458 7.59268C284.458 7.37535 284.415 7.19212 284.327 7.04297C284.242 6.89382 284.111 6.78089 283.934 6.70419C283.759 6.62536 283.539 6.58594 283.273 6.58594H282.339V12H280.955ZM284.49 9.02131L286.117 12H284.589L282.998 9.02131H284.49ZM288.62 12H287.137L289.397 5.45455H291.18L293.436 12H291.953L290.314 6.95028H290.263L288.62 12ZM288.527 9.4272H292.03V10.5075H288.527V9.4272ZM293.805 6.59553V5.45455H299.181V6.59553H297.177V12H295.809V6.59553H293.805ZM302.08 5.45455V12H300.696V5.45455H302.08ZM309.863 8.72727C309.863 9.44105 309.728 10.0483 309.458 10.549C309.189 11.0497 308.823 11.4322 308.358 11.6964C307.896 11.9585 307.376 12.0895 306.798 12.0895C306.217 12.0895 305.695 11.9574 305.232 11.6932C304.77 11.429 304.405 11.0465 304.136 10.5458C303.868 10.0451 303.733 9.43892 303.733 8.72727C303.733 8.01349 303.868 7.40625 304.136 6.90554C304.405 6.40483 304.77 6.02344 305.232 5.76136C305.695 5.49716 306.217 5.36506 306.798 5.36506C307.376 5.36506 307.896 5.49716 308.358 5.76136C308.823 6.02344 309.189 6.40483 309.458 6.90554C309.728 7.40625 309.863 8.01349 309.863 8.72727ZM308.46 8.72727C308.46 8.26491 308.391 7.875 308.253 7.55753C308.116 7.24006 307.923 6.99929 307.674 6.83523C307.425 6.67116 307.133 6.58913 306.798 6.58913C306.464 6.58913 306.172 6.67116 305.923 6.83523C305.673 6.99929 305.48 7.24006 305.341 7.55753C305.205 7.875 305.137 8.26491 305.137 8.72727C305.137 9.18963 305.205 9.57955 305.341 9.89702C305.48 10.2145 305.673 10.4553 305.923 10.6193C306.172 10.7834 306.464 10.8654 306.798 10.8654C307.133 10.8654 307.425 10.7834 307.674 10.6193C307.923 10.4553 308.116 10.2145 308.253 9.89702C308.391 9.57955 308.46 9.18963 308.46 8.72727ZM316.993 5.45455V12H315.798L312.95 7.88033H312.902V12H311.519V5.45455H312.733L315.558 9.57102H315.616V5.45455H316.993ZM320.368 5.45455L320.243 10.0376H319.074L318.946 5.45455H320.368ZM319.658 12.0831C319.447 12.0831 319.266 12.0085 319.115 11.8594C318.964 11.7081 318.889 11.527 318.891 11.3161C318.889 11.1072 318.964 10.9283 319.115 10.7791C319.266 10.63 319.447 10.5554 319.658 10.5554C319.861 10.5554 320.039 10.63 320.192 10.7791C320.346 10.9283 320.423 11.1072 320.425 11.3161C320.423 11.4567 320.386 11.5856 320.314 11.7028C320.243 11.8178 320.151 11.9105 320.036 11.9808C319.921 12.049 319.795 12.0831 319.658 12.0831Z"
    fill="#141414"
  />
  <path
    d="M383.375 98.8L372.128 103.375L353.637 85.075L342.009 94.225L337.625 91.7469V69.2531L342.009 66.9656L353.637 76.1156L372.128 57.625L383.375 62.2V98.8ZM359.928 80.5L371.938 90.0312V70.9688L359.928 80.5ZM342.009 87.5531L349.062 80.5L342.2 73.4469L342.009 87.5531Z"
    fill="#5273E0"
  />
  <path
    d="M164.261 224.548C168.823 224.548 172.522 220.843 172.522 216.274C172.522 211.704 168.823 208 164.261 208C159.699 208 156 211.704 156 216.274C156 220.843 159.699 224.548 164.261 224.548Z"
    fill="#D8BD14"
  />
  <rect x="231" y="406" width="183" height="18" rx="9" fill="#D8BD14" />
  <path
    d="M242.069 411.455H243.776L245.578 415.852H245.655L247.457 411.455H249.164V418H247.822V413.74H247.767L246.074 417.968H245.159L243.466 413.724H243.411V418H242.069V411.455ZM256.949 414.727C256.949 415.441 256.814 416.048 256.543 416.549C256.275 417.05 255.908 417.432 255.444 417.696C254.981 417.958 254.462 418.089 253.884 418.089C253.302 418.089 252.78 417.957 252.318 417.693C251.856 417.429 251.49 417.047 251.222 416.546C250.953 416.045 250.819 415.439 250.819 414.727C250.819 414.013 250.953 413.406 251.222 412.906C251.49 412.405 251.856 412.023 252.318 411.761C252.78 411.497 253.302 411.365 253.884 411.365C254.462 411.365 254.981 411.497 255.444 411.761C255.908 412.023 256.275 412.405 256.543 412.906C256.814 413.406 256.949 414.013 256.949 414.727ZM255.546 414.727C255.546 414.265 255.477 413.875 255.338 413.558C255.202 413.24 255.009 412.999 254.76 412.835C254.511 412.671 254.219 412.589 253.884 412.589C253.55 412.589 253.258 412.671 253.008 412.835C252.759 412.999 252.565 413.24 252.427 413.558C252.29 413.875 252.222 414.265 252.222 414.727C252.222 415.19 252.29 415.58 252.427 415.897C252.565 416.214 252.759 416.455 253.008 416.619C253.258 416.783 253.55 416.865 253.884 416.865C254.219 416.865 254.511 416.783 254.76 416.619C255.009 416.455 255.202 416.214 255.338 415.897C255.477 415.58 255.546 415.19 255.546 414.727ZM264.079 411.455V418H262.884L260.036 413.88H259.988V418H258.604V411.455H259.819L262.644 415.571H262.702V411.455H264.079ZM271.867 414.727C271.867 415.441 271.732 416.048 271.461 416.549C271.193 417.05 270.827 417.432 270.362 417.696C269.9 417.958 269.38 418.089 268.802 418.089C268.221 418.089 267.699 417.957 267.236 417.693C266.774 417.429 266.409 417.047 266.14 416.546C265.872 416.045 265.737 415.439 265.737 414.727C265.737 414.013 265.872 413.406 266.14 412.906C266.409 412.405 266.774 412.023 267.236 411.761C267.699 411.497 268.221 411.365 268.802 411.365C269.38 411.365 269.9 411.497 270.362 411.761C270.827 412.023 271.193 412.405 271.461 412.906C271.732 413.406 271.867 414.013 271.867 414.727ZM270.464 414.727C270.464 414.265 270.395 413.875 270.257 413.558C270.12 413.24 269.927 412.999 269.678 412.835C269.429 412.671 269.137 412.589 268.802 412.589C268.468 412.589 268.176 412.671 267.927 412.835C267.677 412.999 267.483 413.24 267.345 413.558C267.209 413.875 267.14 414.265 267.14 414.727C267.14 415.19 267.209 415.58 267.345 415.897C267.483 416.214 267.677 416.455 267.927 416.619C268.176 416.783 268.468 416.865 268.802 416.865C269.137 416.865 269.429 416.783 269.678 416.619C269.927 416.455 270.12 416.214 270.257 415.897C270.395 415.58 270.464 415.19 270.464 414.727ZM273.522 418V411.455H274.906V414.341H274.993L277.348 411.455H279.007L276.578 414.385L279.036 418H277.38L275.587 415.309L274.906 416.14V418H273.522ZM280.358 418V411.455H281.741V416.859H284.548V418H280.358ZM286.094 418V411.455H290.505V412.596H287.478V414.155H290.278V415.296H287.478V416.859H290.517V418H286.094ZM300.723 413.746H299.323C299.298 413.565 299.245 413.404 299.167 413.263C299.088 413.121 298.986 412.999 298.863 412.899C298.739 412.799 298.597 412.722 298.435 412.669C298.275 412.616 298.101 412.589 297.914 412.589C297.575 412.589 297.28 412.673 297.028 412.842C296.777 413.008 296.582 413.251 296.443 413.57C296.305 413.888 296.236 414.273 296.236 414.727C296.236 415.194 296.305 415.586 296.443 415.903C296.584 416.221 296.78 416.461 297.032 416.623C297.283 416.784 297.574 416.865 297.904 416.865C298.089 416.865 298.261 416.841 298.419 416.792C298.578 416.743 298.72 416.672 298.844 416.578C298.967 416.482 299.07 416.366 299.151 416.229C299.234 416.093 299.291 415.937 299.323 415.763L300.723 415.769C300.687 416.07 300.596 416.359 300.451 416.638C300.309 416.915 300.116 417.164 299.873 417.383C299.632 417.6 299.344 417.773 299.01 417.901C298.678 418.027 298.301 418.089 297.882 418.089C297.298 418.089 296.776 417.957 296.316 417.693C295.858 417.429 295.495 417.047 295.229 416.546C294.965 416.045 294.833 415.439 294.833 414.727C294.833 414.013 294.967 413.406 295.235 412.906C295.504 412.405 295.868 412.023 296.328 411.761C296.789 411.497 297.306 411.365 297.882 411.365C298.261 411.365 298.613 411.418 298.936 411.525C299.262 411.631 299.551 411.787 299.803 411.991C300.054 412.194 300.258 412.442 300.416 412.736C300.576 413.03 300.678 413.367 300.723 413.746ZM302.345 418V411.455H303.729V416.859H306.535V418H302.345ZM313.842 414.727C313.842 415.441 313.707 416.048 313.436 416.549C313.167 417.05 312.801 417.432 312.336 417.696C311.874 417.958 311.354 418.089 310.777 418.089C310.195 418.089 309.673 417.957 309.211 417.693C308.748 417.429 308.383 417.047 308.115 416.546C307.846 416.045 307.712 415.439 307.712 414.727C307.712 414.013 307.846 413.406 308.115 412.906C308.383 412.405 308.748 412.023 309.211 411.761C309.673 411.497 310.195 411.365 310.777 411.365C311.354 411.365 311.874 411.497 312.336 411.761C312.801 412.023 313.167 412.405 313.436 412.906C313.707 413.406 313.842 414.013 313.842 414.727ZM312.439 414.727C312.439 414.265 312.37 413.875 312.231 413.558C312.095 413.24 311.902 412.999 311.653 412.835C311.403 412.671 311.111 412.589 310.777 412.589C310.442 412.589 310.15 412.671 309.901 412.835C309.652 412.999 309.458 413.24 309.319 413.558C309.183 413.875 309.115 414.265 309.115 414.727C309.115 415.19 309.183 415.58 309.319 415.897C309.458 416.214 309.652 416.455 309.901 416.619C310.15 416.783 310.442 416.865 310.777 416.865C311.111 416.865 311.403 416.783 311.653 416.619C311.902 416.455 312.095 416.214 312.231 415.897C312.37 415.58 312.439 415.19 312.439 414.727ZM319.54 411.455H320.924V415.705C320.924 416.183 320.81 416.6 320.582 416.958C320.356 417.316 320.04 417.595 319.633 417.795C319.226 417.994 318.752 418.093 318.21 418.093C317.667 418.093 317.192 417.994 316.785 417.795C316.378 417.595 316.062 417.316 315.836 416.958C315.61 416.6 315.497 416.183 315.497 415.705V411.455H316.881V415.587C316.881 415.836 316.935 416.058 317.044 416.252C317.155 416.446 317.31 416.598 317.51 416.709C317.711 416.82 317.944 416.875 318.21 416.875C318.479 416.875 318.712 416.82 318.91 416.709C319.111 416.598 319.265 416.446 319.374 416.252C319.485 416.058 319.54 415.836 319.54 415.587V411.455ZM325.013 418H322.692V411.455H325.032C325.69 411.455 326.257 411.586 326.732 411.848C327.207 412.108 327.573 412.482 327.828 412.969C328.086 413.457 328.215 414.041 328.215 414.721C328.215 415.403 328.086 415.989 327.828 416.479C327.573 416.969 327.205 417.345 326.726 417.607C326.248 417.869 325.677 418 325.013 418ZM324.076 416.814H324.955C325.364 416.814 325.708 416.742 325.987 416.597C326.269 416.45 326.48 416.223 326.62 415.916C326.763 415.607 326.834 415.209 326.834 414.721C326.834 414.237 326.763 413.842 326.62 413.535C326.48 413.228 326.27 413.002 325.991 412.858C325.712 412.713 325.367 412.64 324.958 412.64H324.076V416.814ZM333.967 411.455V418H332.583V411.455H333.967ZM341.21 411.455V418H340.015L337.168 413.88H337.12V418H335.736V411.455H336.95L339.775 415.571H339.833V411.455H341.21ZM342.735 412.596V411.455H348.11V412.596H346.106V418H344.738V412.596H342.735ZM349.626 418V411.455H354.036V412.596H351.009V414.155H353.809V415.296H351.009V416.859H354.049V418H349.626ZM360.107 413.57C360.062 413.415 359.999 413.277 359.918 413.158C359.837 413.037 359.738 412.934 359.621 412.851C359.506 412.766 359.374 412.701 359.224 412.656C359.077 412.612 358.914 412.589 358.735 412.589C358.401 412.589 358.107 412.672 357.853 412.838C357.602 413.005 357.406 413.246 357.265 413.564C357.125 413.879 357.054 414.265 357.054 414.721C357.054 415.177 357.124 415.565 357.262 415.884C357.401 416.204 357.597 416.448 357.85 416.616C358.104 416.782 358.403 416.865 358.748 416.865C359.061 416.865 359.329 416.81 359.55 416.699C359.774 416.586 359.945 416.428 360.062 416.223C360.181 416.018 360.241 415.777 360.241 415.498L360.522 415.539H358.834V414.497H361.573V415.322C361.573 415.897 361.452 416.391 361.209 416.805C360.966 417.216 360.632 417.533 360.206 417.757C359.779 417.979 359.292 418.089 358.742 418.089C358.128 418.089 357.589 417.954 357.125 417.684C356.66 417.411 356.298 417.024 356.038 416.523C355.78 416.021 355.651 415.424 355.651 414.734C355.651 414.203 355.728 413.73 355.881 413.315C356.037 412.897 356.254 412.543 356.533 412.254C356.812 411.964 357.137 411.743 357.508 411.592C357.879 411.441 358.281 411.365 358.713 411.365C359.084 411.365 359.429 411.419 359.749 411.528C360.068 411.635 360.352 411.786 360.599 411.982C360.848 412.178 361.051 412.411 361.209 412.682C361.367 412.95 361.468 413.246 361.513 413.57H360.107ZM363.243 418V411.455H365.825C366.32 411.455 366.742 411.543 367.091 411.72C367.443 411.895 367.71 412.143 367.893 412.464C368.079 412.784 368.171 413.16 368.171 413.593C368.171 414.027 368.078 414.401 367.89 414.714C367.703 415.026 367.431 415.264 367.075 415.43C366.721 415.597 366.293 415.68 365.79 415.68H364.061V414.567H365.567C365.831 414.567 366.05 414.531 366.225 414.459C366.4 414.386 366.53 414.278 366.615 414.133C366.702 413.988 366.746 413.808 366.746 413.593C366.746 413.375 366.702 413.192 366.615 413.043C366.53 412.894 366.399 412.781 366.222 412.704C366.047 412.625 365.826 412.586 365.56 412.586H364.627V418H363.243ZM366.778 415.021L368.405 418H366.877L365.285 415.021H366.778ZM370.907 418H369.424L371.684 411.455H373.467L375.724 418H374.241L372.601 412.95H372.55L370.907 418ZM370.815 415.427H374.318V416.507H370.815V415.427ZM376.093 412.596V411.455H381.468V412.596H379.464V418H378.096V412.596H376.093ZM384.367 411.455V418H382.984V411.455H384.367ZM392.151 414.727C392.151 415.441 392.016 416.048 391.745 416.549C391.477 417.05 391.11 417.432 390.646 417.696C390.183 417.958 389.663 418.089 389.086 418.089C388.504 418.089 387.982 417.957 387.52 417.693C387.058 417.429 386.692 417.047 386.424 416.546C386.155 416.045 386.021 415.439 386.021 414.727C386.021 414.013 386.155 413.406 386.424 412.906C386.692 412.405 387.058 412.023 387.52 411.761C387.982 411.497 388.504 411.365 389.086 411.365C389.663 411.365 390.183 411.497 390.646 411.761C391.11 412.023 391.477 412.405 391.745 412.906C392.016 413.406 392.151 414.013 392.151 414.727ZM390.748 414.727C390.748 414.265 390.679 413.875 390.54 413.558C390.404 413.24 390.211 412.999 389.962 412.835C389.712 412.671 389.42 412.589 389.086 412.589C388.751 412.589 388.46 412.671 388.21 412.835C387.961 412.999 387.767 413.24 387.629 413.558C387.492 413.875 387.424 414.265 387.424 414.727C387.424 415.19 387.492 415.58 387.629 415.897C387.767 416.214 387.961 416.455 388.21 416.619C388.46 416.783 388.751 416.865 389.086 416.865C389.42 416.865 389.712 416.783 389.962 416.619C390.211 416.455 390.404 416.214 390.54 415.897C390.679 415.58 390.748 415.19 390.748 414.727ZM399.281 411.455V418H398.086L395.238 413.88H395.19V418H393.806V411.455H395.021L397.846 415.571H397.903V411.455H399.281ZM402.655 411.455L402.531 416.038H401.361L401.233 411.455H402.655ZM401.946 418.083C401.735 418.083 401.554 418.009 401.403 417.859C401.251 417.708 401.177 417.527 401.179 417.316C401.177 417.107 401.251 416.928 401.403 416.779C401.554 416.63 401.735 416.555 401.946 416.555C402.148 416.555 402.326 416.63 402.48 416.779C402.633 416.928 402.711 417.107 402.713 417.316C402.711 417.457 402.674 417.586 402.601 417.703C402.531 417.818 402.438 417.911 402.323 417.981C402.208 418.049 402.082 418.083 401.946 418.083Z"
    fill="#141414"
  />
  <path d="M164 224L164 415L233 415" stroke="#D8BD14" />
  <path
    fill-rule="evenodd"
    clip-rule="evenodd"
    d="M188.062 181.083C189.286 181.083 190.483 180.716 191.5 180.029C192.518 179.342 193.311 178.365 193.779 177.223C194.247 176.08 194.37 174.823 194.131 173.61C193.892 172.397 193.303 171.282 192.438 170.408C191.572 169.533 190.47 168.938 189.27 168.696C188.069 168.455 186.825 168.579 185.695 169.052C184.564 169.525 183.598 170.327 182.918 171.355C182.238 172.384 181.875 173.593 181.875 174.829C181.875 176.488 182.527 178.079 183.687 179.251C184.848 180.424 186.421 181.083 188.062 181.083ZM187.374 178.303C188.19 178.303 188.988 178.059 189.666 177.6C190.345 177.142 190.873 176.491 191.185 175.729C191.498 174.968 191.579 174.129 191.42 173.321C191.261 172.512 190.868 171.769 190.291 171.186C189.714 170.603 188.979 170.206 188.179 170.045C187.379 169.884 186.55 169.967 185.796 170.283C185.042 170.598 184.398 171.132 183.945 171.818C183.491 172.504 183.249 173.31 183.249 174.134C183.25 175.239 183.685 176.299 184.459 177.08C185.232 177.861 186.281 178.3 187.374 178.3V178.303Z"
    fill="#DBDBDB"
  />
  <path
    d="M178.667 175.316C176.493 174.25 175 172.037 175 169.48C175 166.499 177.2 163.745 180.5 163.212C181.535 160.761 183.985 158.952 186.842 158.952C190.503 158.952 193.494 161.779 193.7 165.342C195.642 166.188 197 168.264 197 170.512"
    stroke="#DBDBDB"
    stroke-linecap="round"
    stroke-linejoin="round"
  />
  <defs>
    <linearGradient
      id="paint0_linear_42313_901"
      x1="226.199"
      y1="212.549"
      x2="231.03"
      y2="218.349"
      gradientUnits="userSpaceOnUse"
    >
      <stop stop-color="#3C9AE8" />
      <stop offset="1" stop-color="#84E2D8" />
    </linearGradient>
  </defs>
</svg>
