<?xml version="1.0" encoding="utf-8"?>
<!-- Generator: Adobe Illustrator 23.0.5, SVG Export Plug-In . SVG Version: 6.00 Build 0)  -->
<svg version="1.1" id="TESTKUBE_logos" xmlns="http://www.w3.org/2000/svg" xmlns:xlink="http://www.w3.org/1999/xlink" x="0px"
	 y="0px" viewBox="0 0 139.3 139.3" style="enable-background:new 0 0 139.3 139.3;" xml:space="preserve">
<style type="text/css">
	.st0{fill-rule:evenodd;clip-rule:evenodd;fill:url(#SVGID_1_);}
	.st1{fill-rule:evenodd;clip-rule:evenodd;fill:url(#SVGID_2_);}
	.st2{fill-rule:evenodd;clip-rule:evenodd;fill:url(#SVGID_3_);}
</style>
<g id="Ring_10_">
	
		<linearGradient id="SVGID_1_" gradientUnits="userSpaceOnUse" x1="-3375.9915" y1="549.4796" x2="-3333.0615" y2="600.6461" gradientTransform="matrix(0 1 -1 0 645.3895 3423.6118)">
		<stop  offset="0" style="stop-color:#3085D4"/>
		<stop  offset="1" style="stop-color:#69C5C3"/>
	</linearGradient>
	<path class="st0" d="M35.4,69.7c0,18.9,15.4,34.3,34.3,34.3s34.3-15.4,34.3-34.3S88.6,35.4,69.6,35.4S35.4,50.7,35.4,69.7
		L35.4,69.7z M50.6,65.9c0,12.6,10.2,22.9,22.9,22.9c12.6,0,22.9-10.2,22.9-22.9S86.1,43,73.5,43c0,0,0,0,0,0
		C60.9,43,50.6,53.2,50.6,65.9z"/>
	
		<radialGradient id="SVGID_2_" cx="-1495.1559" cy="100.1872" r="0.956" gradientTransform="matrix(19.12 -18.48 18.48 19.12 26813.2598 -29479.3691)" gradientUnits="userSpaceOnUse">
		<stop  offset="0" style="stop-color:#3085D4"/>
		<stop  offset="0.17" style="stop-color:#3085D4"/>
		<stop  offset="0.39" style="stop-color:#69C5C3"/>
		<stop  offset="0.5" style="stop-color:#6AA2D6"/>
		<stop  offset="0.6" style="stop-color:#69C5C3"/>
		<stop  offset="0.86" style="stop-color:#3085D4"/>
	</radialGradient>
	<path class="st1" d="M73.5,90.3C60,90.3,49,79.4,49,65.9c0-13.5,11-24.5,24.5-24.5S98,52.3,98,65.9v0C98,79.4,87,90.3,73.5,90.3z
		 M73.5,88.7c-12.6,0-22.9-10.2-22.9-22.9C50.6,53.2,60.9,43,73.5,43s22.9,10.2,22.9,22.9v0C96.3,78.5,86.1,88.7,73.5,88.7z"/>
	
		<radialGradient id="SVGID_3_" cx="-1498.9137" cy="121.2876" r="0.956" gradientTransform="matrix(21.86 -29.41 29.04 21.58 29313.25 -46629.5391)" gradientUnits="userSpaceOnUse">
		<stop  offset="3.000000e-02" style="stop-color:#6AA2D6"/>
		<stop  offset="8.000000e-02" style="stop-color:#6AA2D6"/>
		<stop  offset="0.21" style="stop-color:#6AA2D6"/>
		<stop  offset="0.42" style="stop-color:#69C5C3"/>
		<stop  offset="0.51" style="stop-color:#69C5C3"/>
		<stop  offset="0.61" style="stop-color:#69C5C3"/>
		<stop  offset="0.97" style="stop-color:#6AA2D6"/>
	</radialGradient>
	<path class="st2" d="M69.7,104c-18.9,0-34.3-15.3-34.3-34.3c0-18.9,15.3-34.3,34.3-34.3S104,50.7,104,69.7c0,0,0,0,0,0
		C104,88.6,88.6,104,69.7,104C69.7,104,69.7,104,69.7,104z M69.7,102.3C52,102.3,37,87.4,37,69.7S52,37,69.7,37s32.7,15,32.7,32.6
		S87.4,102.3,69.7,102.3z"/>
</g>
</svg>
