<svg width="102" height="24" viewBox="0 0 102 24" fill="none" xmlns="http://www.w3.org/2000/svg">
<path d="M3.39059 15.1965C3.99184 15.1965 4.52839 15.0557 5.00026 14.7741C5.47213 14.4849 5.84505 14.0968 6.11904 13.6097C6.39303 13.115 6.53002 12.5632 6.53002 11.9543C6.53002 11.3455 6.39303 10.7975 6.11904 10.3104C5.84505 9.81571 5.47213 9.42756 5.00026 9.14596C4.52839 8.85676 3.99564 8.71215 3.402 8.71215C2.59527 8.71215 1.95977 8.96711 1.49551 9.47703V6.41751H0V15.0595H1.40418V14.3631C1.63251 14.6295 1.91791 14.835 2.26039 14.9796C2.61049 15.1242 2.98722 15.1965 3.39059 15.1965ZM3.21935 13.8266C2.89208 13.8266 2.59527 13.7467 2.32889 13.5868C2.07012 13.427 1.86463 13.2063 1.71242 12.9247C1.56781 12.6431 1.49551 12.3196 1.49551 11.9543C1.49551 11.589 1.56781 11.2656 1.71242 10.984C1.86463 10.7024 2.07012 10.4817 2.32889 10.3218C2.59527 10.162 2.89208 10.0821 3.21935 10.0821C3.56183 10.0821 3.86245 10.1658 4.12122 10.3332C4.3876 10.4931 4.59689 10.7138 4.74911 10.9954C4.90132 11.277 4.97743 11.5966 4.97743 11.9543C4.97743 12.312 4.90132 12.6355 4.74911 12.9247C4.59689 13.2063 4.3876 13.427 4.12122 13.5868C3.86245 13.7467 3.56183 13.8266 3.21935 13.8266Z" fill="#DBDBDB"/>
<path d="M8.19802 17.5825C8.78405 17.5825 9.27114 17.415 9.65929 17.0802C10.055 16.7529 10.3709 16.2887 10.6068 15.6874L13.3124 8.84914H11.6914L10.0931 13.1302L8.48343 8.84914H6.87375L9.32822 15.0595L9.19123 15.3906C9.06945 15.6493 8.92866 15.8586 8.76883 16.0185C8.61661 16.1783 8.36927 16.2582 8.02678 16.2582C7.90501 16.2582 7.77563 16.2468 7.63863 16.224C7.50164 16.2087 7.37987 16.1859 7.27332 16.1555V17.4112C7.4027 17.4721 7.54731 17.514 7.70713 17.5368C7.86696 17.5673 8.03059 17.5825 8.19802 17.5825Z" fill="#DBDBDB"/>
<path d="M16.06 15.0595H17.6126V12.6735L18.7542 11.315L21.0374 15.0595H22.864L19.8159 10.0478L22.7612 6.5545H20.8091L17.6126 10.3332V6.5545H16.06V15.0595Z" fill="#DBDBDB"/>
<path d="M25.7832 15.1965C26.1714 15.1965 26.5139 15.1242 26.8107 14.9796C27.1151 14.8274 27.3548 14.6067 27.5299 14.3175V15.0595H28.9455V8.84914H27.45V12.4909C27.45 12.9019 27.332 13.2291 27.0961 13.4727C26.8601 13.7086 26.5595 13.8266 26.1942 13.8266C25.8213 13.8266 25.5168 13.7086 25.2809 13.4727C25.0526 13.2367 24.9384 12.9209 24.9384 12.5251V8.84914H23.4429V12.6507C23.4429 13.4118 23.6484 14.0283 24.0594 14.5001C24.478 14.9644 25.0526 15.1965 25.7832 15.1965Z" fill="#DBDBDB"/>
<path d="M33.6121 15.1965C34.2133 15.1965 34.7499 15.0557 35.2218 14.7741C35.6936 14.4849 36.0666 14.0968 36.3405 13.6097C36.6145 13.115 36.7515 12.5632 36.7515 11.9543C36.7515 11.3455 36.6145 10.7975 36.3405 10.3104C36.0666 9.81571 35.6936 9.42756 35.2218 9.14596C34.7499 8.85676 34.2172 8.71215 33.6235 8.71215C32.8168 8.71215 32.1813 8.96711 31.717 9.47703V6.41751H30.2215V15.0595H31.6257V14.3631C31.854 14.6295 32.1394 14.835 32.4819 14.9796C32.832 15.1242 33.2087 15.1965 33.6121 15.1965ZM33.4409 13.8266C33.1136 13.8266 32.8168 13.7467 32.5504 13.5868C32.2916 13.427 32.0861 13.2063 31.9339 12.9247C31.7893 12.6431 31.717 12.3196 31.717 11.9543C31.717 11.589 31.7893 11.2656 31.9339 10.984C32.0861 10.7024 32.2916 10.4817 32.5504 10.3218C32.8168 10.162 33.1136 10.0821 33.4409 10.0821C33.7833 10.0821 34.084 10.1658 34.3427 10.3332C34.6091 10.4931 34.8184 10.7138 34.9706 10.9954C35.1228 11.277 35.1989 11.5966 35.1989 11.9543C35.1989 12.312 35.1228 12.6355 34.9706 12.9247C34.8184 13.2063 34.6091 13.427 34.3427 13.5868C34.084 13.7467 33.7833 13.8266 33.4409 13.8266Z" fill="#DBDBDB"/>
<path d="M40.7229 15.1965C41.3546 15.1965 41.9064 15.0557 42.3783 14.7741C42.8577 14.4849 43.1926 14.1196 43.3829 13.6782L42.1728 13.0845C42.0358 13.3205 41.8455 13.5145 41.602 13.6667C41.366 13.8114 41.0768 13.8837 40.7343 13.8837C40.2853 13.8837 39.9086 13.7467 39.6041 13.4727C39.2997 13.1987 39.1247 12.8334 39.079 12.3767H43.5541C43.5846 12.293 43.6036 12.1979 43.6112 12.0913C43.6264 11.9772 43.634 11.863 43.634 11.7488C43.634 11.1933 43.5161 10.6871 43.2801 10.2305C43.0442 9.77385 42.7017 9.40853 42.2527 9.13455C41.8036 8.85295 41.2557 8.71215 40.6088 8.71215C40.0303 8.71215 39.5052 8.85295 39.0333 9.13455C38.5691 9.41615 38.1999 9.80049 37.926 10.2876C37.6596 10.7671 37.5264 11.3188 37.5264 11.9429C37.5264 12.5442 37.6596 13.0921 37.926 13.5868C38.1923 14.0815 38.5653 14.4735 39.0447 14.7627C39.5242 15.0519 40.0836 15.1965 40.7229 15.1965ZM40.6088 9.94509C41.0045 9.94509 41.3318 10.0669 41.5905 10.3104C41.8569 10.5463 42.0053 10.8546 42.0358 11.2351H39.1132C39.197 10.8241 39.372 10.5083 39.6384 10.2876C39.9124 10.0593 40.2358 9.94509 40.6088 9.94509Z" fill="#DBDBDB"/>
<path d="M47.0167 15.1965C47.4885 15.1965 47.8995 15.1166 48.2496 14.9568C48.5997 14.7969 48.8737 14.5762 49.0716 14.2946C49.2695 14.0054 49.3684 13.6744 49.3684 13.3014C49.3684 12.8676 49.2314 12.4947 48.9574 12.1827C48.6834 11.8706 48.2877 11.6423 47.7701 11.4977L46.7769 11.2009C46.5638 11.14 46.3888 11.0601 46.2518 10.9611C46.1148 10.8622 46.0463 10.7252 46.0463 10.5501C46.0463 10.3675 46.1186 10.2191 46.2632 10.1049C46.4078 9.99076 46.6057 9.93368 46.8568 9.93368C47.1689 9.93368 47.4505 10.0174 47.7016 10.1848C47.9604 10.3523 48.1393 10.5768 48.2382 10.8584L49.3798 10.3218C49.1895 9.81952 48.8699 9.42756 48.4209 9.14596C47.9718 8.85676 47.4543 8.71215 46.8683 8.71215C46.4192 8.71215 46.0197 8.79206 45.6696 8.95189C45.3271 9.11172 45.0569 9.33623 44.859 9.62544C44.6688 9.90704 44.5736 10.2381 44.5736 10.6186C44.5736 11.0448 44.7068 11.414 44.9732 11.726C45.2472 12.038 45.6467 12.2702 46.1719 12.4224L47.1879 12.7078C47.3858 12.7611 47.5532 12.841 47.6902 12.9475C47.8348 13.0465 47.9071 13.1835 47.9071 13.3585C47.9071 13.564 47.8234 13.7276 47.656 13.8494C47.4962 13.9636 47.2831 14.0206 47.0167 14.0206C46.6666 14.0206 46.3507 13.9217 46.0691 13.7238C45.7875 13.5259 45.563 13.252 45.3956 12.9019L44.2768 13.4384C44.4595 13.9712 44.7943 14.3974 45.2814 14.717C45.7761 15.0367 46.3545 15.1965 47.0167 15.1965Z" fill="#DBDBDB"/>
<path d="M50.4035 15.0595H51.899V11.4178C51.899 11.0144 52.017 10.6909 52.2529 10.4474C52.4889 10.2039 52.7895 10.0821 53.1548 10.0821C53.5201 10.0821 53.8207 10.2039 54.0567 10.4474C54.2926 10.6833 54.4106 11.0068 54.4106 11.4178V15.0595H55.9061V11.0639C55.9061 10.5996 55.8071 10.1924 55.6093 9.84235C55.4114 9.48464 55.1336 9.20685 54.7759 9.00897C54.4258 8.81109 54.0224 8.71215 53.5658 8.71215C53.2081 8.71215 52.8846 8.77684 52.5954 8.90623C52.3062 9.028 52.0741 9.21446 51.899 9.46562V6.41751H50.4035V15.0595Z" fill="#DBDBDB"/>
<path d="M60.0932 15.1965C60.6945 15.1965 61.2424 15.0595 61.7371 14.7855C62.2318 14.5039 62.6276 14.1196 62.9244 13.6325C63.2212 13.1378 63.3696 12.5784 63.3696 11.9543C63.3696 11.3302 63.2212 10.7747 62.9244 10.2876C62.6352 9.80049 62.2432 9.41615 61.7486 9.13455C61.2539 8.85295 60.7021 8.71215 60.0932 8.71215C59.4767 8.71215 58.9212 8.85295 58.4265 9.13455C57.9318 9.41615 57.536 9.80049 57.2392 10.2876C56.95 10.7747 56.8054 11.3302 56.8054 11.9543C56.8054 12.5784 56.95 13.134 57.2392 13.6211C57.536 14.1082 57.9318 14.4925 58.4265 14.7741C58.9288 15.0557 59.4844 15.1965 60.0932 15.1965ZM60.0932 13.8266C59.7583 13.8266 59.4577 13.7467 59.1913 13.5868C58.9326 13.427 58.7271 13.2063 58.5749 12.9247C58.4303 12.6355 58.358 12.312 58.358 11.9543C58.358 11.5966 58.4303 11.277 58.5749 10.9954C58.7271 10.7138 58.9326 10.4931 59.1913 10.3332C59.4577 10.1658 59.7583 10.0821 60.0932 10.0821C60.4281 10.0821 60.7211 10.1658 60.9723 10.3332C61.231 10.4931 61.4327 10.7138 61.5773 10.9954C61.7295 11.277 61.8056 11.5966 61.8056 11.9543C61.8056 12.312 61.7295 12.6355 61.5773 12.9247C61.4327 13.2063 61.231 13.427 60.9723 13.5868C60.7211 13.7467 60.4281 13.8266 60.0932 13.8266Z" fill="#DBDBDB"/>
<path d="M64.3896 17.3427H65.8851V14.4659C66.1134 14.7018 66.3912 14.8845 66.7185 15.0139C67.0458 15.1356 67.3997 15.1965 67.7802 15.1965C68.3814 15.1965 68.918 15.0557 69.3899 14.7741C69.8617 14.4849 70.2347 14.0968 70.5086 13.6097C70.7826 13.115 70.9196 12.5632 70.9196 11.9543C70.9196 11.3455 70.7826 10.7975 70.5086 10.3104C70.2347 9.81571 69.8617 9.42756 69.3899 9.14596C68.918 8.85676 68.3852 8.71215 67.7916 8.71215C67.3654 8.71215 66.9811 8.78826 66.6386 8.94047C66.2961 9.09269 66.0145 9.30579 65.7938 9.57978V8.84914H64.3896V17.3427ZM67.6089 13.8266C67.2817 13.8266 66.9849 13.7467 66.7185 13.5868C66.4597 13.427 66.2542 13.2063 66.102 12.9247C65.9574 12.6431 65.8851 12.3196 65.8851 11.9543C65.8851 11.589 65.9574 11.2656 66.102 10.984C66.2542 10.7024 66.4597 10.4817 66.7185 10.3218C66.9849 10.162 67.2817 10.0821 67.6089 10.0821C67.9514 10.0821 68.2521 10.1658 68.5108 10.3332C68.7772 10.4931 68.9865 10.7138 69.1387 10.9954C69.2909 11.277 69.367 11.5966 69.367 11.9543C69.367 12.312 69.2909 12.6355 69.1387 12.9247C68.9865 13.2063 68.7772 13.427 68.5108 13.5868C68.2521 13.7467 67.9514 13.8266 67.6089 13.8266Z" fill="#DBDBDB"/>
<path d="M98.2019 3.6208L101.823 10.1079L95.1026 6.72015L91.7148 0L98.2019 3.6208Z" fill="#5A5A5A"/>
<path d="M95.1026 6.72012L100.041 16.3804L89.9143 11.9084L85.4423 1.78201L95.1026 6.72012Z" fill="#5A5A5A"/>
<path d="M85.4459 1.77838L89.9142 11.9084L81.1609 20.6617L77.858 9.83245L85.4459 1.77838Z" fill="white"/>
<path d="M91.7148 0L95.1 6.72268L88.5641 3.37899L91.7148 0Z" fill="white"/>
<path d="M101.823 10.1079L95.1 6.72269L100.095 11.7177L101.823 10.1079Z" fill="#303030"/>
<path d="M100.095 11.7177L95.1 6.72269L98.4426 13.2496L100.095 11.7177Z" fill="#1F1F1F"/>
<path d="M89.9143 11.9084L100.045 16.377L91.9554 24L81.1259 20.6969L89.9143 11.9084Z" fill="#303030"/>
</svg>
