<svg width="562" height="424" viewBox="0 0 562 424" fill="none" xmlns="http://www.w3.org/2000/svg">
<path d="M297.128 254.686H9.66115C7.09977 254.683 4.64413 253.663 2.83296 251.849C1.02179 250.035 0.00297047 247.576 0 245.01V10.5731C0.00297422 8.00777 1.02179 5.54833 2.83296 3.73434C4.64413 1.92035 7.09977 0.899951 9.66115 0.896973H297.128C299.69 0.899948 302.145 1.92035 303.957 3.73434C305.768 5.54833 306.787 8.00777 306.79 10.5731V245.01C306.787 247.576 305.768 250.035 303.957 251.849C302.145 253.663 299.69 254.683 297.128 254.686Z" fill="#272727" fill-opacity="0.5"/>
<path d="M16.1787 7.78418C13.7114 7.78705 11.3459 8.77001 9.60129 10.5174C7.85667 12.2648 6.87534 14.634 6.87256 17.1051V238.484C6.87548 240.955 7.85687 243.324 9.60149 245.071C11.3461 246.818 13.7115 247.801 16.1787 247.804H212.939C235.999 247.778 258.107 238.591 274.413 222.26C290.719 205.929 299.891 183.786 299.917 160.69V17.1051C299.915 14.634 298.933 12.2648 297.189 10.5174C295.444 8.77001 293.079 7.78707 290.611 7.7842L16.1787 7.78418Z" fill="#020202" fill-opacity="0.66"/>
<line x1="6.50635" y1="33.0886" x2="299.079" y2="33.0886" stroke="#343434"/>
<line x1="38.5" y1="248.143" x2="38.5" y2="33.5896" stroke="#343434"/>
<line x1="113.217" y1="248.143" x2="113.217" y2="33.5896" stroke="#343434"/>
<rect x="13.5732" y="41.7419" width="16.4251" height="16.4251" rx="4" fill="#272727"/>
<rect x="98.8975" y="13.0574" width="141.667" height="13.3454" rx="4" fill="#272727"/>
<rect x="13.5732" y="63.2998" width="16.4251" height="16.4251" rx="4" fill="#272727"/>
<rect x="13.5732" y="84.8579" width="16.4251" height="16.4251" rx="4" fill="#272727"/>
<path fill-rule="evenodd" clip-rule="evenodd" d="M20.3646 26.4028C24.0498 26.4028 27.0373 23.4153 27.0373 19.7301C27.0373 16.0448 24.0498 13.0574 20.3646 13.0574C16.6794 13.0574 13.6919 16.0448 13.6919 19.7301C13.6919 23.4153 16.6794 26.4028 20.3646 26.4028ZM19.6234 23.4373C22.0802 23.4373 24.0719 21.4456 24.0719 18.9888C24.0719 16.532 22.0802 14.5403 19.6234 14.5403C17.1666 14.5403 15.1749 16.532 15.1749 18.9888C15.1749 21.4456 17.1666 23.4373 19.6234 23.4373Z" fill="url(#paint0_linear_41410_2862)"/>
<path opacity="0.6" d="M291.415 67.0245H193.591C192.377 67.0245 191.213 66.5423 190.355 65.684C189.497 64.8257 189.015 63.6617 189.015 62.4479C189.015 61.2341 189.497 60.0701 190.355 59.2118C191.213 58.3535 192.377 57.8713 193.591 57.8713H291.415C292.629 57.8713 293.793 58.3535 294.651 59.2118C295.51 60.0701 295.992 61.2341 295.992 62.4479C295.992 63.6617 295.51 64.8257 294.651 65.684C293.793 66.5423 292.629 67.0245 291.415 67.0245Z" fill="#5273E0"/>
<path opacity="0.6" d="M310.293 82.4703H193.59C192.378 82.4686 191.215 81.9857 190.358 81.1276C189.501 80.2695 189.02 79.1064 189.02 77.8937C189.02 76.681 189.501 75.5178 190.358 74.6597C191.215 73.8017 192.378 73.3188 193.59 73.3171H310.293C310.894 73.3163 311.49 73.4341 312.046 73.6637C312.602 73.8934 313.107 74.2303 313.533 74.6554C313.959 75.0805 314.296 75.5852 314.527 76.1409C314.757 76.6965 314.876 77.2922 314.876 77.8937C314.876 78.4952 314.757 79.0908 314.527 79.6465C314.296 80.2022 313.959 80.707 313.533 81.132C313.107 81.5571 312.602 81.8941 312.046 82.1237C311.49 82.3533 310.894 82.4711 310.293 82.4703Z" fill="#5273E0"/>
<path opacity="0.6" d="M90.142 66.6634H52.997C52.5362 66.6634 52.0942 66.2048 51.7683 65.3886C51.4424 64.5724 51.2593 63.4654 51.2593 62.3112C51.2593 61.1569 51.4424 60.0499 51.7683 59.2337C52.0942 58.4175 52.5362 57.959 52.997 57.959H90.142C90.6029 57.959 91.0449 58.4175 91.3708 59.2337C91.6967 60.0499 91.8797 61.1569 91.8797 62.3112C91.8797 63.4654 91.6967 64.5724 91.3708 65.3886C91.0449 66.2048 90.6029 66.6634 90.142 66.6634Z" fill="#33BCB7"/>
<path opacity="0.6" d="M96.9242 82.138H52.9802C52.5236 82.1364 52.0859 81.6772 51.7632 80.8612C51.4405 80.0451 51.2593 78.939 51.2593 77.7858C51.2593 76.6325 51.4405 75.5264 51.7632 74.7104C52.0859 73.8944 52.5236 73.4352 52.9802 73.4336H96.9242C97.1507 73.4328 97.375 73.5448 97.5844 73.7632C97.7937 73.9816 97.984 74.302 98.1443 74.7062C98.3045 75.1105 98.4317 75.5905 98.5184 76.1189C98.6052 76.6473 98.6498 77.2137 98.6498 77.7858C98.6498 78.3578 98.6052 78.9242 98.5184 79.4526C98.4317 79.9811 98.3045 80.4611 98.1443 80.8653C97.984 81.2695 97.7937 81.59 97.5844 81.8084C97.375 82.0268 97.1507 82.1387 96.9242 82.138Z" fill="#33BCB7"/>
<path opacity="0.6" d="M80.8842 97.6126H52.5833C52.2321 97.6126 51.8954 97.1541 51.6471 96.3379C51.3988 95.5217 51.2593 94.4147 51.2593 93.2604C51.2593 92.1061 51.3988 90.9991 51.6471 90.1829C51.8954 89.3667 52.2321 88.9082 52.5833 88.9082H80.8842C81.2353 88.9082 81.5721 89.3667 81.8204 90.1829C82.0687 90.9991 82.2082 92.1061 82.2082 93.2604C82.2082 94.4147 82.0687 95.5217 81.8204 96.3379C81.5721 97.1541 81.2353 97.6126 80.8842 97.6126Z" fill="#33BCB7"/>
<path opacity="0.6" d="M96.9242 128.561H52.9802C52.5236 128.56 52.0859 128.101 51.7632 127.285C51.4405 126.468 51.2593 125.362 51.2593 124.209C51.2593 123.056 51.4405 121.95 51.7632 121.134C52.0859 120.318 52.5236 119.858 52.9802 119.857H96.9242C97.1507 119.856 97.375 119.968 97.5844 120.187C97.7937 120.405 97.984 120.725 98.1443 121.13C98.3045 121.534 98.4317 122.014 98.5184 122.542C98.6052 123.071 98.6498 123.637 98.6498 124.209C98.6498 124.781 98.6052 125.348 98.5184 125.876C98.4317 126.404 98.3045 126.884 98.1443 127.289C97.984 127.693 97.7937 128.013 97.5844 128.232C97.375 128.45 97.1507 128.562 96.9242 128.561Z" fill="#33BCB7"/>
<path opacity="0.6" d="M80.8842 144.036H52.5833C52.2321 144.036 51.8954 143.577 51.6471 142.761C51.3988 141.945 51.2593 140.838 51.2593 139.683C51.2593 138.529 51.3988 137.422 51.6471 136.606C51.8954 135.79 52.2321 135.331 52.5833 135.331H80.8842C81.2353 135.331 81.5721 135.79 81.8204 136.606C82.0687 137.422 82.2082 138.529 82.2082 139.683C82.2082 140.838 82.0687 141.945 81.8204 142.761C81.5721 143.577 81.2353 144.036 80.8842 144.036Z" fill="#33BCB7"/>
<path opacity="0.6" d="M96.9242 113.087H52.9802C52.5236 113.085 52.0859 112.626 51.7632 111.81C51.4405 110.994 51.2593 109.888 51.2593 108.735C51.2593 107.581 51.4405 106.475 51.7632 105.659C52.0859 104.843 52.5236 104.384 52.9802 104.383H96.9242C97.1507 104.382 97.375 104.494 97.5844 104.712C97.7937 104.931 97.984 105.251 98.1443 105.655C98.3045 106.059 98.4317 106.539 98.5184 107.068C98.6052 107.596 98.6498 108.163 98.6498 108.735C98.6498 109.307 98.6052 109.873 98.5184 110.402C98.4317 110.93 98.3045 111.41 98.1443 111.814C97.984 112.219 97.7937 112.539 97.5844 112.757C97.375 112.976 97.1507 113.088 96.9242 113.087Z" fill="#33BCB7"/>
<path opacity="0.6" d="M291.415 127.089H193.594C192.381 127.089 191.217 127.571 190.358 128.429C189.5 129.288 189.018 130.452 189.018 131.665C189.018 132.879 189.5 134.043 190.358 134.901C191.217 135.759 192.381 136.242 193.594 136.242H291.415C292.629 136.242 293.793 135.759 294.651 134.901C295.509 134.043 295.992 132.879 295.992 131.665C295.992 130.452 295.509 129.288 294.651 128.429C293.793 127.571 292.629 127.089 291.415 127.089Z" fill="#ACACAC"/>
<path opacity="0.6" d="M310.295 142.538H193.594C192.381 142.538 191.217 143.02 190.358 143.878C189.5 144.736 189.018 145.9 189.018 147.114C189.018 148.328 189.5 149.492 190.358 150.35C191.217 151.208 192.381 151.69 193.594 151.69H310.295C311.509 151.69 312.673 151.208 313.531 150.35C314.389 149.492 314.871 148.328 314.871 147.114C314.871 145.9 314.389 144.736 313.531 143.878C312.673 143.02 311.509 142.538 310.295 142.538Z" fill="#ACACAC"/>
<path opacity="0.6" d="M291.415 205.465H193.591C192.377 205.465 191.213 204.983 190.355 204.125C189.497 203.267 189.015 202.103 189.015 200.889C189.015 199.675 189.497 198.511 190.355 197.653C191.213 196.794 192.377 196.312 193.591 196.312H291.415C292.629 196.312 293.793 196.794 294.651 197.653C295.51 198.511 295.992 199.675 295.992 200.889C295.992 202.103 295.51 203.267 294.651 204.125C293.793 204.983 292.629 205.465 291.415 205.465Z" fill="#ACACAC"/>
<path opacity="0.6" d="M310.293 220.911H193.59C192.378 220.91 191.215 220.427 190.358 219.569C189.501 218.711 189.02 217.548 189.02 216.335C189.02 215.122 189.501 213.959 190.358 213.101C191.215 212.243 192.378 211.76 193.59 211.758H310.293C310.894 211.757 311.49 211.875 312.046 212.105C312.602 212.335 313.107 212.672 313.533 213.097C313.959 213.522 314.296 214.026 314.527 214.582C314.757 215.138 314.876 215.733 314.876 216.335C314.876 216.936 314.757 217.532 314.527 218.088C314.296 218.643 313.959 219.148 313.533 219.573C313.107 219.998 312.602 220.335 312.046 220.565C311.49 220.794 310.894 220.912 310.293 220.911Z" fill="#ACACAC"/>
<path d="M152.854 86.3464C161.788 86.3464 169.03 79.1043 169.03 70.1708C169.03 61.2372 161.788 53.9951 152.854 53.9951C143.921 53.9951 136.679 61.2372 136.679 70.1708C136.679 79.1043 143.921 86.3464 152.854 86.3464Z" fill="#5273E0"/>
<path d="M151.252 76.3412C150.888 76.3418 150.533 76.2241 150.242 76.0057L150.224 75.9922L146.423 73.0842C146.246 72.9494 146.098 72.7811 145.986 72.589C145.875 72.3968 145.802 72.1845 145.773 71.9643C145.744 71.7441 145.758 71.5203 145.815 71.3056C145.873 71.091 145.972 70.8897 146.107 70.7134C146.242 70.5371 146.411 70.3892 146.603 70.2782C146.796 70.1671 147.008 70.0951 147.228 70.0662C147.449 70.0374 147.672 70.0522 147.887 70.11C148.101 70.1677 148.302 70.2672 148.478 70.4028L150.941 72.291L156.759 64.7001C156.894 64.5241 157.062 64.3764 157.254 64.2654C157.446 64.1544 157.658 64.0824 157.878 64.0534C158.098 64.0243 158.322 64.0389 158.536 64.0962C158.75 64.1535 158.951 64.2524 159.127 64.3873L159.127 64.3877L159.091 64.4378L159.128 64.3877C159.483 64.6606 159.716 65.0632 159.774 65.5071C159.833 65.9511 159.713 66.4001 159.441 66.7557L152.597 75.6803C152.438 75.886 152.235 76.0524 152.002 76.1666C151.769 76.2809 151.513 76.3399 151.253 76.3392L151.252 76.3412Z" fill="white"/>
<path d="M170.693 139.39C170.693 141.514 170.276 143.618 169.463 145.581C168.651 147.544 167.46 149.328 165.958 150.83C164.456 152.333 162.673 153.525 160.71 154.338C158.748 155.152 156.644 155.571 154.52 155.571C154.381 155.574 154.242 155.568 154.103 155.554C150.923 155.473 147.837 154.455 145.232 152.628C142.627 150.802 140.618 148.247 139.458 145.285C138.297 142.323 138.036 139.084 138.707 135.974C139.378 132.864 140.951 130.021 143.23 127.8C145.509 125.58 148.392 124.081 151.518 123.491C154.644 122.901 157.875 123.246 160.807 124.483C163.738 125.72 166.239 127.794 167.998 130.445C169.756 133.097 170.694 136.208 170.693 139.39Z" fill="#7D7D7D"/>
<path d="M170.692 139.39C170.693 141.514 170.275 143.618 169.463 145.581C168.651 147.544 167.46 149.328 165.958 150.83C164.456 152.333 162.673 153.525 160.71 154.338C158.748 155.152 156.644 155.571 154.519 155.571C154.38 155.574 154.241 155.568 154.103 155.554C152.013 150.342 151.208 144.704 151.754 139.115C152.301 133.526 154.183 128.15 157.243 123.441C161.005 124.086 164.419 126.041 166.88 128.959C169.341 131.878 170.692 135.572 170.692 139.39Z" fill="#5273E0"/>
<path d="M189.015 131.67C189.017 130.455 189.5 129.292 190.359 128.433C191.217 127.575 192.381 127.091 193.595 127.089H217.971C219.395 129.985 220.407 133.066 220.978 136.242H193.595C192.382 136.241 191.218 135.76 190.359 134.903C189.501 134.046 189.017 132.883 189.015 131.67Z" fill="#5273E0"/>
<path d="M221.543 142.538C221.545 145.629 221.136 148.707 220.327 151.69H193.594C192.381 151.69 191.217 151.208 190.358 150.35C189.5 149.492 189.018 148.328 189.018 147.114C189.018 145.9 189.5 144.736 190.358 143.878C191.217 143.02 192.381 142.538 193.594 142.538H221.543Z" fill="#5273E0"/>
<path d="M281.856 198.983C281.166 200.114 280.055 200.925 278.767 201.237C277.479 201.549 276.12 201.337 274.988 200.647L216.688 165.086C216.128 164.744 215.641 164.295 215.254 163.765C214.867 163.235 214.588 162.634 214.434 161.996C214.279 161.359 214.252 160.697 214.353 160.048C214.455 159.4 214.683 158.778 215.024 158.218C215.366 157.658 215.815 157.17 216.345 156.783C216.875 156.397 217.476 156.118 218.114 155.963C218.751 155.809 219.413 155.782 220.062 155.883C220.71 155.984 221.332 156.212 221.892 156.554L280.193 192.115C281.324 192.805 282.135 193.916 282.447 195.204C282.759 196.492 282.546 197.851 281.856 198.983Z" fill="#ACACAC"/>
<path d="M223.556 163.422C219.439 170.172 213.413 175.549 206.24 178.874C199.067 182.199 191.069 183.322 183.257 182.101C175.446 180.88 168.172 177.371 162.355 172.016C156.538 166.661 152.44 159.702 150.578 152.018C148.717 144.334 149.176 136.271 151.897 128.848C154.618 121.424 159.479 114.975 165.866 110.314C172.253 105.654 179.878 102.992 187.777 102.666C195.677 102.339 203.496 104.362 210.245 108.479C219.287 114.008 225.766 122.898 228.262 133.198C230.757 143.498 229.065 154.368 223.556 163.422ZM163.834 126.994C160.746 132.056 159.229 137.92 159.474 143.845C159.719 149.769 161.715 155.488 165.211 160.278C168.706 165.068 173.543 168.714 179.11 170.755C184.678 172.796 190.725 173.14 196.488 171.744C202.251 170.348 207.471 167.274 211.487 162.911C215.503 158.549 218.135 153.093 219.05 147.235C219.966 141.376 219.124 135.378 216.63 129.998C214.136 124.618 210.103 120.098 205.041 117.011C198.251 112.879 190.098 111.61 182.373 113.482C174.648 115.353 167.981 120.213 163.834 126.994Z" fill="#ACACAC"/>
<path d="M351.634 149.015C362.931 149.015 372.089 139.858 372.089 128.561C372.089 117.264 362.931 108.106 351.634 108.106C340.337 108.106 331.18 117.264 331.18 128.561C331.18 139.858 340.337 149.015 351.634 149.015Z" fill="#A0616A"/>
<path d="M350.312 243.231C349.918 242.002 349.788 240.703 349.93 239.42C350.072 238.137 350.484 236.899 351.139 235.786C351.793 234.673 352.675 233.711 353.727 232.963C354.779 232.215 355.977 231.698 357.243 231.445C357.644 231.367 358.05 231.317 358.459 231.296L380.005 196.715L360.323 178.005C359.571 177.29 358.968 176.433 358.549 175.484C358.13 174.535 357.904 173.512 357.882 172.474C357.86 171.437 358.045 170.406 358.424 169.44C358.803 168.474 359.37 167.593 360.092 166.848C360.813 166.102 361.676 165.507 362.629 165.097C363.582 164.686 364.606 164.469 365.644 164.457C366.681 164.445 367.711 164.638 368.673 165.026C369.636 165.415 370.511 165.989 371.25 166.718L398.424 193.512L398.479 193.579C399.319 194.858 399.725 196.374 399.636 197.902C399.547 199.43 398.967 200.888 397.984 202.061L367.795 237.765C367.885 238.052 367.96 238.342 368.019 238.636C368.272 239.902 368.254 241.208 367.967 242.466C367.68 243.725 367.13 244.908 366.354 245.94C365.577 246.971 364.592 247.827 363.461 248.45C362.331 249.074 361.082 249.452 359.796 249.56C359.536 249.582 359.277 249.594 359.019 249.594C357.083 249.586 355.198 248.966 353.635 247.823C352.071 246.681 350.908 245.073 350.312 243.231Z" fill="#A0616A"/>
<path d="M317.945 413.236L307.735 413.236L302.878 373.854L317.947 373.855L317.945 413.236Z" fill="#A0616A"/>
<path d="M320.549 423.133L287.628 423.131V422.715C287.628 421.032 287.96 419.366 288.604 417.811C289.248 416.257 290.192 414.844 291.381 413.654C292.571 412.464 293.984 411.521 295.539 410.877C297.093 410.233 298.76 409.901 300.442 409.901H300.443L320.55 409.902L320.549 423.133Z" fill="#144848"/>
<path d="M419.427 399.12L410.655 404.344L386.333 372.992L399.28 365.283L419.427 399.12Z" fill="#A0616A"/>
<path d="M426.728 406.291L398.441 423.133L398.228 422.776C397.367 421.33 396.799 419.729 396.557 418.063C396.315 416.398 396.403 414.702 396.817 413.07C397.231 411.439 397.961 409.906 398.968 408.557C399.974 407.208 401.236 406.071 402.682 405.21L402.683 405.21L419.959 394.923L426.728 406.291Z" fill="#144848"/>
<path d="M301.59 395.893C294.751 315.356 290.682 240.538 315.685 210.017L315.878 209.78L357.956 226.612L358.025 226.762C358.167 227.071 372.161 257.853 368.897 278.558L379.276 326.301L413.117 382.966C413.39 383.422 413.562 383.931 413.623 384.459C413.684 384.986 413.632 385.521 413.47 386.027C413.309 386.533 413.041 387 412.686 387.395C412.331 387.79 411.896 388.105 411.409 388.319L396.703 394.789C395.873 395.15 394.941 395.201 394.077 394.931C393.213 394.661 392.475 394.088 391.999 393.319L355.185 333.29L334.392 287.248C334.279 286.998 334.087 286.792 333.846 286.662C333.604 286.532 333.326 286.486 333.056 286.529C332.785 286.573 332.536 286.704 332.347 286.903C332.158 287.102 332.04 287.358 332.011 287.63L320.485 395.975C320.389 396.896 319.955 397.748 319.266 398.367C318.578 398.986 317.685 399.328 316.759 399.327H305.326C304.388 399.321 303.485 398.966 302.795 398.331C302.104 397.697 301.675 396.827 301.59 395.893Z" fill="#138585"/>
<path d="M315.827 210.655L315.626 210.559L315.595 210.339C314.023 199.337 315.884 187.114 321.125 174.008C323.708 167.593 328.51 162.32 334.655 159.149C340.801 155.979 347.88 155.121 354.605 156.733C358.479 157.687 362.112 159.436 365.274 161.868C368.437 164.3 371.06 167.362 372.977 170.86C374.87 174.323 376.023 178.141 376.363 182.073C376.703 186.004 376.223 189.963 374.953 193.7C368.346 213.021 359.775 231.099 359.689 231.279L359.509 231.656L315.827 210.655Z" fill="#ACACAC"/>
<path d="M269.918 183.253C270.931 182.453 272.102 181.876 273.353 181.56C274.605 181.244 275.909 181.197 277.18 181.42C278.452 181.643 279.662 182.133 280.731 182.856C281.8 183.58 282.704 184.521 283.384 185.618C283.598 185.966 283.787 186.329 283.95 186.704L323.886 194.776L334.519 169.789C334.926 168.834 335.517 167.969 336.259 167.244C337.002 166.519 337.88 165.949 338.844 165.565C339.809 165.182 340.839 164.993 341.877 165.01C342.914 165.027 343.938 165.25 344.889 165.665C345.84 166.079 346.699 166.679 347.417 167.428C348.135 168.177 348.698 169.06 349.073 170.028C349.447 170.995 349.626 172.028 349.6 173.065C349.573 174.102 349.342 175.124 348.918 176.071L333.336 210.907L333.293 210.982C332.389 212.217 331.111 213.128 329.649 213.58C328.187 214.031 326.618 213.999 325.175 213.488L281.159 197.714C280.923 197.899 280.676 198.071 280.422 198.23C279.325 198.91 278.096 199.35 276.816 199.522C275.537 199.694 274.236 199.593 272.998 199.227C271.76 198.861 270.613 198.238 269.633 197.397C268.653 196.557 267.862 195.52 267.31 194.352C267.198 194.117 267.097 193.878 267.007 193.637C266.336 191.82 266.256 189.838 266.779 187.973C267.302 186.108 268.4 184.456 269.918 183.253Z" fill="#A0616A"/>
<path d="M425.528 150.466C423.557 146.975 420.687 143.777 416.892 142.487C411.991 140.82 406.685 142.595 401.646 143.779C397.764 144.692 393.708 145.251 389.795 144.481C385.882 143.71 382.108 141.433 380.327 137.865C377.708 132.615 379.915 126.355 379.755 120.49C379.673 117.298 378.868 114.166 377.399 111.33C375.931 108.494 373.838 106.029 371.278 104.119C368.718 102.21 365.758 100.907 362.621 100.307C359.485 99.7084 356.253 99.8293 353.169 100.661C348.345 99.2685 343.976 99.1397 340.992 102.849C337.237 102.849 333.636 104.34 330.981 106.995C328.326 109.651 326.834 113.252 326.834 117.006H340.371C339.73 120.458 340.463 124.024 342.415 126.943C344.805 130.454 348.961 132.993 349.76 137.164C350.536 141.206 347.788 145.042 344.906 147.98C342.024 150.918 338.681 153.829 337.781 157.845C337.229 160.894 337.856 164.039 339.533 166.644C341.207 169.217 343.284 171.505 345.684 173.419C356.498 182.684 369.35 189.259 383.191 192.607C392.938 194.954 403.6 195.562 412.648 191.245C416.268 189.518 419.494 187.065 422.126 184.039C424.758 181.013 426.739 177.478 427.947 173.653C429.155 169.829 429.563 165.797 429.147 161.808C428.731 157.819 427.499 153.958 425.528 150.466Z" fill="#262626"/>
<path opacity="0.2" d="M428.584 424H270.351C270.13 424 269.919 423.912 269.762 423.756C269.606 423.599 269.519 423.388 269.519 423.167C269.519 422.946 269.606 422.734 269.762 422.578C269.919 422.422 270.13 422.334 270.351 422.334H428.584C428.805 422.334 429.016 422.422 429.173 422.578C429.329 422.734 429.417 422.946 429.417 423.167C429.417 423.388 429.329 423.599 429.173 423.756C429.016 423.912 428.805 424 428.584 424Z" fill="#ACACAC"/>
<path d="M229.261 248.548C233.823 248.548 237.522 244.843 237.522 240.274C237.522 235.704 233.823 232 229.261 232C224.699 232 221 235.704 221 240.274C221 244.843 224.699 248.548 229.261 248.548Z" fill="#D8BD14"/>
<path d="M229 244.392V304.392H154" stroke="#D8BD14"/>
<path d="M36 306C36 301.029 40.0294 297 45 297H171C175.971 297 180 301.029 180 306V306C180 310.971 175.971 315 171 315H45C40.0294 315 36 310.971 36 306V306Z" fill="#D8BD14"/>
<path d="M52.1197 304.337C52.0941 304.079 51.9844 303.879 51.7905 303.736C51.5966 303.593 51.3335 303.522 51.0011 303.522C50.7752 303.522 50.5845 303.554 50.429 303.618C50.2734 303.68 50.1541 303.766 50.071 303.877C49.9901 303.988 49.9496 304.113 49.9496 304.254C49.9453 304.371 49.9698 304.473 50.0231 304.561C50.0785 304.648 50.1541 304.724 50.25 304.788C50.3459 304.849 50.4567 304.904 50.5824 304.951C50.7081 304.995 50.8423 305.034 50.9851 305.066L51.5732 305.206C51.8587 305.27 52.1207 305.355 52.3594 305.462C52.598 305.569 52.8047 305.7 52.9794 305.855C53.1541 306.011 53.2894 306.194 53.3853 306.405C53.4833 306.616 53.5334 306.858 53.5355 307.13C53.5334 307.531 53.4311 307.878 53.2287 308.172C53.0284 308.464 52.7386 308.691 52.3594 308.853C51.9822 309.013 51.5273 309.093 50.9947 309.093C50.4663 309.093 50.006 309.012 49.614 308.85C49.2241 308.688 48.9194 308.448 48.6999 308.131C48.4826 307.811 48.3686 307.416 48.358 306.945H49.6971C49.712 307.164 49.7749 307.348 49.8857 307.495C49.9986 307.64 50.1488 307.749 50.3363 307.824C50.5259 307.896 50.7401 307.933 50.9787 307.933C51.2131 307.933 51.4165 307.898 51.5891 307.83C51.7638 307.762 51.8991 307.667 51.995 307.546C52.0909 307.424 52.1388 307.285 52.1388 307.127C52.1388 306.98 52.0952 306.857 52.0078 306.756C51.9226 306.656 51.7969 306.571 51.6307 306.501C51.4666 306.43 51.2653 306.366 51.0266 306.309L50.3139 306.13C49.7621 305.996 49.3263 305.786 49.0067 305.5C48.6871 305.215 48.5284 304.83 48.5305 304.347C48.5284 303.95 48.6339 303.604 48.8469 303.308C49.0621 303.012 49.3572 302.781 49.7322 302.614C50.1072 302.448 50.5334 302.365 51.0107 302.365C51.4964 302.365 51.9205 302.448 52.2827 302.614C52.647 302.781 52.9304 303.012 53.1328 303.308C53.3352 303.604 53.4396 303.947 53.446 304.337H52.1197ZM55.0964 309V302.455H59.5069V303.596H56.4802V305.155H59.2799V306.296H56.4802V307.859H59.5196V309H55.0964ZM62.3653 309H60.8823L63.1419 302.455H64.9253L67.1817 309H65.6987L64.0592 303.95H64.008L62.3653 309ZM62.2726 306.427H65.7754V307.507H62.2726V306.427ZM68.5995 309V302.455H71.1819C71.6762 302.455 72.0981 302.543 72.4475 302.72C72.7991 302.895 73.0665 303.143 73.2497 303.464C73.4351 303.784 73.5278 304.16 73.5278 304.593C73.5278 305.027 73.434 305.401 73.2465 305.714C73.059 306.026 72.7874 306.264 72.4315 306.43C72.0779 306.597 71.6496 306.68 71.1467 306.68H69.4177V305.567H70.923C71.1872 305.567 71.4067 305.531 71.5814 305.459C71.7561 305.386 71.8861 305.278 71.9713 305.133C72.0587 304.988 72.1024 304.808 72.1024 304.593C72.1024 304.375 72.0587 304.192 71.9713 304.043C71.8861 303.894 71.7551 303.781 71.5782 303.704C71.4035 303.625 71.183 303.586 70.9166 303.586H69.9834V309H68.5995ZM72.1343 306.021L73.7611 309H72.2334L70.6418 306.021H72.1343ZM80.911 304.746H79.5111C79.4856 304.565 79.4334 304.404 79.3545 304.263C79.2757 304.121 79.1745 303.999 79.0509 303.899C78.9273 303.799 78.7846 303.722 78.6226 303.669C78.4628 303.616 78.2892 303.589 78.1017 303.589C77.7629 303.589 77.4678 303.673 77.2164 303.842C76.965 304.008 76.77 304.251 76.6315 304.57C76.493 304.888 76.4238 305.273 76.4238 305.727C76.4238 306.194 76.493 306.586 76.6315 306.903C76.7721 307.221 76.9682 307.461 77.2196 307.623C77.471 307.784 77.7618 307.865 78.0921 307.865C78.2775 307.865 78.449 307.841 78.6066 307.792C78.7664 307.743 78.9081 307.672 79.0317 307.578C79.1553 307.482 79.2576 307.366 79.3385 307.229C79.4216 307.093 79.4792 306.937 79.5111 306.763L80.911 306.769C80.8748 307.07 80.7842 307.359 80.6393 307.638C80.4966 307.915 80.3037 308.164 80.0608 308.383C79.8201 308.6 79.5324 308.773 79.1979 308.901C78.8655 309.027 78.4895 309.089 78.0697 309.089C77.4859 309.089 76.9639 308.957 76.5037 308.693C76.0456 308.429 75.6834 308.047 75.417 307.546C75.1528 307.045 75.0207 306.439 75.0207 305.727C75.0207 305.013 75.1549 304.406 75.4234 303.906C75.6919 303.405 76.0562 303.023 76.5164 302.761C76.9767 302.497 77.4944 302.365 78.0697 302.365C78.449 302.365 78.8005 302.418 79.1244 302.525C79.4504 302.631 79.7391 302.787 79.9905 302.991C80.2419 303.194 80.4465 303.442 80.6042 303.736C80.764 304.03 80.8662 304.367 80.911 304.746ZM82.5333 309V302.455H83.9172V305.155H86.7265V302.455H88.1072V309H86.7265V306.296H83.9172V309H82.5333ZM93.7194 309H92.2364L94.496 302.455H96.2794L98.5358 309H97.0528L95.4133 303.95H95.3621L93.7194 309ZM93.6267 306.427H97.1295V307.507H93.6267V306.427ZM105.428 302.455V309H104.233L101.385 304.88H101.337V309H99.9536V302.455H101.168L103.993 306.571H104.051V302.455H105.428ZM109.522 309H107.202V302.455H109.541C110.2 302.455 110.766 302.586 111.242 302.848C111.717 303.108 112.082 303.482 112.338 303.969C112.596 304.457 112.725 305.041 112.725 305.721C112.725 306.403 112.596 306.989 112.338 307.479C112.082 307.969 111.715 308.345 111.235 308.607C110.758 308.869 110.187 309 109.522 309ZM108.586 307.814H109.465C109.874 307.814 110.218 307.742 110.497 307.597C110.778 307.45 110.989 307.223 111.13 306.916C111.272 306.607 111.344 306.209 111.344 305.721C111.344 305.237 111.272 304.842 111.13 304.535C110.989 304.228 110.779 304.002 110.5 303.858C110.221 303.713 109.877 303.64 109.468 303.64H108.586V307.814ZM119.806 309V302.455H122.388C122.882 302.455 123.304 302.543 123.654 302.72C124.005 302.895 124.273 303.143 124.456 303.464C124.641 303.784 124.734 304.16 124.734 304.593C124.734 305.027 124.64 305.401 124.453 305.714C124.265 306.026 123.994 306.264 123.638 306.43C123.284 306.597 122.856 306.68 122.353 306.68H120.624V305.567H122.129C122.393 305.567 122.613 305.531 122.788 305.459C122.962 305.386 123.092 305.278 123.177 305.133C123.265 304.988 123.308 304.808 123.308 304.593C123.308 304.375 123.265 304.192 123.177 304.043C123.092 303.894 122.961 303.781 122.784 303.704C122.61 303.625 122.389 303.586 122.123 303.586H121.19V309H119.806ZM123.34 306.021L124.967 309H123.44L121.848 306.021H123.34ZM126.342 309V302.455H130.752V303.596H127.726V305.155H130.525V306.296H127.726V307.859H130.765V309H126.342ZM132.483 309V302.455H135.065C135.561 302.455 135.984 302.549 136.334 302.739C136.683 302.926 136.95 303.187 137.133 303.522C137.318 303.854 137.411 304.238 137.411 304.673C137.411 305.107 137.317 305.491 137.13 305.823C136.942 306.156 136.67 306.414 136.315 306.6C135.961 306.785 135.533 306.878 135.03 306.878H133.384V305.769H134.806C135.072 305.769 135.292 305.723 135.465 305.631C135.639 305.538 135.769 305.409 135.854 305.245C135.942 305.078 135.985 304.888 135.985 304.673C135.985 304.455 135.942 304.266 135.854 304.104C135.769 303.94 135.639 303.813 135.465 303.723C135.29 303.632 135.068 303.586 134.8 303.586H133.867V309H132.483ZM138.94 309V302.455H140.324V307.859H143.13V309H138.94ZM145.971 309H144.488L146.748 302.455H148.531L150.788 309H149.305L147.665 303.95H147.614L145.971 309ZM145.879 306.427H149.382V307.507H145.879V306.427ZM157.673 304.746H156.273C156.248 304.565 156.196 304.404 156.117 304.263C156.038 304.121 155.937 303.999 155.813 303.899C155.69 303.799 155.547 303.722 155.385 303.669C155.225 303.616 155.051 303.589 154.864 303.589C154.525 303.589 154.23 303.673 153.979 303.842C153.727 304.008 153.532 304.251 153.394 304.57C153.255 304.888 153.186 305.273 153.186 305.727C153.186 306.194 153.255 306.586 153.394 306.903C153.534 307.221 153.73 307.461 153.982 307.623C154.233 307.784 154.524 307.865 154.854 307.865C155.04 307.865 155.211 307.841 155.369 307.792C155.529 307.743 155.67 307.672 155.794 307.578C155.918 307.482 156.02 307.366 156.101 307.229C156.184 307.093 156.241 306.937 156.273 306.763L157.673 306.769C157.637 307.07 157.546 307.359 157.402 307.638C157.259 307.915 157.066 308.164 156.823 308.383C156.582 308.6 156.295 308.773 155.96 308.901C155.628 309.027 155.252 309.089 154.832 309.089C154.248 309.089 153.726 308.957 153.266 308.693C152.808 308.429 152.446 308.047 152.179 307.546C151.915 307.045 151.783 306.439 151.783 305.727C151.783 305.013 151.917 304.406 152.186 303.906C152.454 303.405 152.818 303.023 153.279 302.761C153.739 302.497 154.257 302.365 154.832 302.365C155.211 302.365 155.563 302.418 155.887 302.525C156.213 302.631 156.501 302.787 156.753 302.991C157.004 303.194 157.209 303.442 157.366 303.736C157.526 304.03 157.629 304.367 157.673 304.746ZM159.296 309V302.455H163.706V303.596H160.679V305.155H163.479V306.296H160.679V307.859H163.719V309H159.296ZM167.038 302.455L166.913 307.038H165.743L165.615 302.455H167.038ZM166.328 309.083C166.117 309.083 165.936 309.009 165.785 308.859C165.633 308.708 165.559 308.527 165.561 308.316C165.559 308.107 165.633 307.928 165.785 307.779C165.936 307.63 166.117 307.555 166.328 307.555C166.53 307.555 166.708 307.63 166.862 307.779C167.015 307.928 167.093 308.107 167.095 308.316C167.093 308.457 167.056 308.586 166.983 308.703C166.913 308.818 166.82 308.911 166.705 308.981C166.59 309.049 166.464 309.083 166.328 309.083Z" fill="#141414"/>
<path d="M452 29V140L306 6L558 29H452Z" fill="#D9D9D9" fill-opacity="0.15" stroke="black"/>
<g filter="url(#filter0_d_41410_2862)">
<mask id="path-47-inside-1_41410_2862" fill="white">
<path d="M452 29H558V139.077H452V29Z"/>
</mask>
<path d="M452 29H558V139.077H452V29Z" fill="#141414"/>
<path d="M452 30H558V28H452V30Z" fill="#262626" mask="url(#path-47-inside-1_41410_2862)"/>
</g>
<rect x="463.1" y="41.7307" width="18.5692" height="18.5692" rx="3.5" fill="#FAFAB5" stroke="#5A5A5A"/>
<rect x="528.331" y="42.5461" width="18.5692" height="18.5692" rx="3.5" fill="#E87040" stroke="#5A5A5A"/>
<rect x="495.715" y="41.7307" width="18.5692" height="18.5692" rx="3.5" fill="#49AA19" stroke="#5A5A5A"/>
<rect x="463.1" y="75.1616" width="18.5692" height="18.5692" rx="3.5" fill="#F37FB7" stroke="#5A5A5A"/>
<rect x="528.331" y="75.9768" width="18.5692" height="18.5692" rx="3.5" fill="#C9E75D" stroke="#5A5A5A"/>
<rect x="495.715" y="75.1616" width="18.5692" height="18.5692" rx="3.5" fill="#8DCFF8" stroke="#5A5A5A"/>
<rect x="463.1" y="108.592" width="18.5692" height="18.5692" rx="3.5" fill="#E84749" stroke="#5A5A5A"/>
<rect x="528.331" y="109.408" width="18.5692" height="18.5692" rx="3.5" fill="#AB7AE0" stroke="#5A5A5A"/>
<rect x="495.715" y="108.592" width="18.5692" height="18.5692" rx="3.5" fill="#E0529C" stroke="#5A5A5A"/>
<path d="M391 240C391 235.029 395.029 231 400 231H541C545.971 231 550 235.029 550 240V240C550 244.971 545.971 249 541 249H400C395.029 249 391 244.971 391 240V240Z" fill="#D8BD14"/>
<path d="M408.344 238.746H406.944C406.919 238.565 406.866 238.404 406.788 238.263C406.709 238.121 406.608 237.999 406.484 237.899C406.36 237.799 406.218 237.722 406.056 237.669C405.896 237.616 405.722 237.589 405.535 237.589C405.196 237.589 404.901 237.673 404.65 237.842C404.398 238.008 404.203 238.251 404.065 238.57C403.926 238.888 403.857 239.273 403.857 239.727C403.857 240.194 403.926 240.586 404.065 240.903C404.205 241.221 404.401 241.461 404.653 241.623C404.904 241.784 405.195 241.865 405.525 241.865C405.711 241.865 405.882 241.841 406.04 241.792C406.2 241.743 406.341 241.672 406.465 241.578C406.588 241.482 406.691 241.366 406.772 241.229C406.855 241.093 406.912 240.937 406.944 240.763L408.344 240.769C408.308 241.07 408.217 241.359 408.072 241.638C407.93 241.915 407.737 242.164 407.494 242.383C407.253 242.6 406.966 242.773 406.631 242.901C406.299 243.027 405.923 243.089 405.503 243.089C404.919 243.089 404.397 242.957 403.937 242.693C403.479 242.429 403.116 242.047 402.85 241.546C402.586 241.045 402.454 240.439 402.454 239.727C402.454 239.013 402.588 238.406 402.857 237.906C403.125 237.405 403.489 237.023 403.95 236.761C404.41 236.497 404.928 236.365 405.503 236.365C405.882 236.365 406.234 236.418 406.558 236.525C406.884 236.631 407.172 236.787 407.424 236.991C407.675 237.194 407.88 237.442 408.037 237.736C408.197 238.03 408.299 238.367 408.344 238.746ZM409.966 243V236.455H411.35V241.859H414.156V243H409.966ZM419.746 236.455H421.13V240.705C421.13 241.183 421.016 241.6 420.788 241.958C420.562 242.316 420.246 242.595 419.839 242.795C419.432 242.994 418.958 243.093 418.416 243.093C417.873 243.093 417.398 242.994 416.991 242.795C416.584 242.595 416.268 242.316 416.042 241.958C415.816 241.6 415.703 241.183 415.703 240.705V236.455H417.087V240.587C417.087 240.836 417.141 241.058 417.25 241.252C417.361 241.446 417.516 241.598 417.716 241.709C417.917 241.82 418.15 241.875 418.416 241.875C418.685 241.875 418.918 241.82 419.116 241.709C419.317 241.598 419.471 241.446 419.58 241.252C419.69 241.058 419.746 240.836 419.746 240.587V236.455ZM426.449 238.337C426.424 238.079 426.314 237.879 426.12 237.736C425.926 237.593 425.663 237.522 425.331 237.522C425.105 237.522 424.914 237.554 424.758 237.618C424.603 237.68 424.484 237.766 424.4 237.877C424.32 237.988 424.279 238.113 424.279 238.254C424.275 238.371 424.299 238.473 424.353 238.561C424.408 238.648 424.484 238.724 424.579 238.788C424.675 238.849 424.786 238.904 424.912 238.951C425.038 238.995 425.172 239.034 425.315 239.066L425.903 239.206C426.188 239.27 426.45 239.355 426.689 239.462C426.927 239.569 427.134 239.7 427.309 239.855C427.484 240.011 427.619 240.194 427.715 240.405C427.813 240.616 427.863 240.858 427.865 241.13C427.863 241.531 427.761 241.878 427.558 242.172C427.358 242.464 427.068 242.691 426.689 242.853C426.312 243.013 425.857 243.093 425.324 243.093C424.796 243.093 424.335 243.012 423.943 242.85C423.554 242.688 423.249 242.448 423.029 242.131C422.812 241.811 422.698 241.416 422.687 240.945H424.027C424.041 241.164 424.104 241.348 424.215 241.495C424.328 241.64 424.478 241.749 424.666 241.824C424.855 241.896 425.07 241.933 425.308 241.933C425.543 241.933 425.746 241.898 425.919 241.83C426.093 241.762 426.229 241.667 426.324 241.546C426.42 241.424 426.468 241.285 426.468 241.127C426.468 240.98 426.425 240.857 426.337 240.756C426.252 240.656 426.126 240.571 425.96 240.501C425.796 240.43 425.595 240.366 425.356 240.309L424.643 240.13C424.092 239.996 423.656 239.786 423.336 239.5C423.017 239.215 422.858 238.83 422.86 238.347C422.858 237.95 422.963 237.604 423.176 237.308C423.392 237.012 423.687 236.781 424.062 236.614C424.437 236.448 424.863 236.365 425.34 236.365C425.826 236.365 426.25 236.448 426.612 236.614C426.976 236.781 427.26 237.012 427.462 237.308C427.665 237.604 427.769 237.947 427.775 238.337H426.449ZM429.177 237.596V236.455H434.552V237.596H432.548V243H431.18V237.596H429.177ZM436.068 243V236.455H440.478V237.596H437.451V239.155H440.251V240.296H437.451V241.859H440.491V243H436.068ZM442.208 243V236.455H444.791C445.285 236.455 445.707 236.543 446.056 236.72C446.408 236.895 446.675 237.143 446.858 237.464C447.044 237.784 447.137 238.16 447.137 238.593C447.137 239.027 447.043 239.401 446.855 239.714C446.668 240.026 446.396 240.264 446.04 240.43C445.687 240.597 445.258 240.68 444.755 240.68H443.026V239.567H444.532C444.796 239.567 445.015 239.531 445.19 239.459C445.365 239.386 445.495 239.278 445.58 239.133C445.667 238.988 445.711 238.808 445.711 238.593C445.711 238.375 445.667 238.192 445.58 238.043C445.495 237.894 445.364 237.781 445.187 237.704C445.012 237.625 444.792 237.586 444.525 237.586H443.592V243H442.208ZM445.743 240.021L447.37 243H445.842L444.251 240.021H445.743ZM457.233 238.746H455.833C455.807 238.565 455.755 238.404 455.676 238.263C455.597 238.121 455.496 237.999 455.373 237.899C455.249 237.799 455.106 237.722 454.944 237.669C454.785 237.616 454.611 237.589 454.423 237.589C454.085 237.589 453.79 237.673 453.538 237.842C453.287 238.008 453.092 238.251 452.953 238.57C452.815 238.888 452.746 239.273 452.746 239.727C452.746 240.194 452.815 240.586 452.953 240.903C453.094 241.221 453.29 241.461 453.541 241.623C453.793 241.784 454.084 241.865 454.414 241.865C454.599 241.865 454.771 241.841 454.928 241.792C455.088 241.743 455.23 241.672 455.353 241.578C455.477 241.482 455.579 241.366 455.66 241.229C455.743 241.093 455.801 240.937 455.833 240.763L457.233 240.769C457.197 241.07 457.106 241.359 456.961 241.638C456.818 241.915 456.625 242.164 456.383 242.383C456.142 242.6 455.854 242.773 455.52 242.901C455.187 243.027 454.811 243.089 454.391 243.089C453.808 243.089 453.286 242.957 452.825 242.693C452.367 242.429 452.005 242.047 451.739 241.546C451.475 241.045 451.342 240.439 451.342 239.727C451.342 239.013 451.477 238.406 451.745 237.906C452.014 237.405 452.378 237.023 452.838 236.761C453.298 236.497 453.816 236.365 454.391 236.365C454.771 236.365 455.122 236.418 455.446 236.525C455.772 236.631 456.061 236.787 456.312 236.991C456.564 237.194 456.768 237.442 456.926 237.736C457.086 238.03 457.188 238.367 457.233 238.746ZM462.898 236.455H464.282V240.705C464.282 241.183 464.168 241.6 463.94 241.958C463.714 242.316 463.398 242.595 462.991 242.795C462.584 242.994 462.11 243.093 461.569 243.093C461.025 243.093 460.55 242.994 460.143 242.795C459.736 242.595 459.42 242.316 459.194 241.958C458.968 241.6 458.855 241.183 458.855 240.705V236.455H460.239V240.587C460.239 240.836 460.293 241.058 460.402 241.252C460.513 241.446 460.668 241.598 460.869 241.709C461.069 241.82 461.302 241.875 461.569 241.875C461.837 241.875 462.07 241.82 462.268 241.709C462.469 241.598 462.623 241.446 462.732 241.252C462.843 241.058 462.898 240.836 462.898 240.587V236.455ZM469.601 238.337C469.576 238.079 469.466 237.879 469.272 237.736C469.078 237.593 468.815 237.522 468.483 237.522C468.257 237.522 468.066 237.554 467.911 237.618C467.755 237.68 467.636 237.766 467.553 237.877C467.472 237.988 467.431 238.113 467.431 238.254C467.427 238.371 467.451 238.473 467.505 238.561C467.56 238.648 467.636 238.724 467.732 238.788C467.828 238.849 467.938 238.904 468.064 238.951C468.19 238.995 468.324 239.034 468.467 239.066L469.055 239.206C469.34 239.27 469.602 239.355 469.841 239.462C470.08 239.569 470.286 239.7 470.461 239.855C470.636 240.011 470.771 240.194 470.867 240.405C470.965 240.616 471.015 240.858 471.017 241.13C471.015 241.531 470.913 241.878 470.71 242.172C470.51 242.464 470.22 242.691 469.841 242.853C469.464 243.013 469.009 243.093 468.476 243.093C467.948 243.093 467.488 243.012 467.096 242.85C466.706 242.688 466.401 242.448 466.182 242.131C465.964 241.811 465.85 241.416 465.84 240.945H467.179C467.194 241.164 467.256 241.348 467.367 241.495C467.48 241.64 467.63 241.749 467.818 241.824C468.008 241.896 468.222 241.933 468.46 241.933C468.695 241.933 468.898 241.898 469.071 241.83C469.245 241.762 469.381 241.667 469.477 241.546C469.573 241.424 469.62 241.285 469.62 241.127C469.62 240.98 469.577 240.857 469.489 240.756C469.404 240.656 469.279 240.571 469.112 240.501C468.948 240.43 468.747 240.366 468.508 240.309L467.796 240.13C467.244 239.996 466.808 239.786 466.488 239.5C466.169 239.215 466.01 238.83 466.012 238.347C466.01 237.95 466.116 237.604 466.329 237.308C466.544 237.012 466.839 236.781 467.214 236.614C467.589 236.448 468.015 236.365 468.492 236.365C468.978 236.365 469.402 236.448 469.764 236.614C470.129 236.781 470.412 237.012 470.614 237.308C470.817 237.604 470.921 237.947 470.928 238.337H469.601ZM472.329 237.596V236.455H477.704V237.596H475.701V243H474.333V237.596H472.329ZM484.936 239.727C484.936 240.441 484.8 241.048 484.53 241.549C484.261 242.05 483.895 242.432 483.43 242.696C482.968 242.958 482.448 243.089 481.871 243.089C481.289 243.089 480.767 242.957 480.305 242.693C479.842 242.429 479.477 242.047 479.209 241.546C478.94 241.045 478.806 240.439 478.806 239.727C478.806 239.013 478.94 238.406 479.209 237.906C479.477 237.405 479.842 237.023 480.305 236.761C480.767 236.497 481.289 236.365 481.871 236.365C482.448 236.365 482.968 236.497 483.43 236.761C483.895 237.023 484.261 237.405 484.53 237.906C484.8 238.406 484.936 239.013 484.936 239.727ZM483.533 239.727C483.533 239.265 483.463 238.875 483.325 238.558C483.189 238.24 482.996 237.999 482.747 237.835C482.497 237.671 482.205 237.589 481.871 237.589C481.536 237.589 481.244 237.671 480.995 237.835C480.746 237.999 480.552 238.24 480.413 238.558C480.277 238.875 480.209 239.265 480.209 239.727C480.209 240.19 480.277 240.58 480.413 240.897C480.552 241.214 480.746 241.455 480.995 241.619C481.244 241.783 481.536 241.865 481.871 241.865C482.205 241.865 482.497 241.783 482.747 241.619C482.996 241.455 483.189 241.214 483.325 240.897C483.463 240.58 483.533 240.19 483.533 239.727ZM486.591 236.455H488.298L490.1 240.852H490.177L491.979 236.455H493.686V243H492.344V238.74H492.289L490.596 242.968H489.681L487.988 238.724H487.933V243H486.591V236.455ZM496.84 236.455V243H495.456V236.455H496.84ZM498.538 243V242.179L501.805 237.596H498.532V236.455H503.543V237.276L500.274 241.859H503.55V243H498.538ZM506.37 243H504.887L507.146 236.455H508.93L511.186 243H509.703L508.064 237.95H508.013L506.37 243ZM506.277 240.427H509.78V241.507H506.277V240.427ZM511.555 237.596V236.455H516.931V237.596H514.927V243H513.559V237.596H511.555ZM519.83 236.455V243H518.446V236.455H519.83ZM527.613 239.727C527.613 240.441 527.478 241.048 527.207 241.549C526.939 242.05 526.573 242.432 526.108 242.696C525.646 242.958 525.126 243.089 524.548 243.089C523.967 243.089 523.445 242.957 522.982 242.693C522.52 242.429 522.155 242.047 521.886 241.546C521.618 241.045 521.483 240.439 521.483 239.727C521.483 239.013 521.618 238.406 521.886 237.906C522.155 237.405 522.52 237.023 522.982 236.761C523.445 236.497 523.967 236.365 524.548 236.365C525.126 236.365 525.646 236.497 526.108 236.761C526.573 237.023 526.939 237.405 527.207 237.906C527.478 238.406 527.613 239.013 527.613 239.727ZM526.21 239.727C526.21 239.265 526.141 238.875 526.003 238.558C525.866 238.24 525.673 237.999 525.424 237.835C525.175 237.671 524.883 237.589 524.548 237.589C524.214 237.589 523.922 237.671 523.673 237.835C523.423 237.999 523.23 238.24 523.091 238.558C522.955 238.875 522.886 239.265 522.886 239.727C522.886 240.19 522.955 240.58 523.091 240.897C523.23 241.214 523.423 241.455 523.673 241.619C523.922 241.783 524.214 241.865 524.548 241.865C524.883 241.865 525.175 241.783 525.424 241.619C525.673 241.455 525.866 241.214 526.003 240.897C526.141 240.58 526.21 240.19 526.21 239.727ZM534.743 236.455V243H533.548L530.7 238.88H530.652V243H529.268V236.455H530.483L533.308 240.571H533.366V236.455H534.743ZM538.118 236.455L537.993 241.038H536.823L536.696 236.455H538.118ZM537.408 243.083C537.197 243.083 537.016 243.009 536.865 242.859C536.714 242.708 536.639 242.527 536.641 242.316C536.639 242.107 536.714 241.928 536.865 241.779C537.016 241.63 537.197 241.555 537.408 241.555C537.611 241.555 537.789 241.63 537.942 241.779C538.095 241.928 538.173 242.107 538.175 242.316C538.173 242.457 538.136 242.586 538.064 242.703C537.993 242.818 537.901 242.911 537.785 242.981C537.67 243.049 537.545 243.083 537.408 243.083Z" fill="#141414"/>
<path d="M470 231L470 186.5L470 142L504 142" stroke="#D8BD14"/>
<path d="M504.261 149.548C508.823 149.548 512.522 145.843 512.522 141.274C512.522 136.704 508.823 133 504.261 133C499.699 133 496 136.704 496 141.274C496 145.843 499.699 149.548 504.261 149.548Z" fill="#D8BD14"/>
<path d="M107.261 421.548C111.823 421.548 115.522 417.843 115.522 413.274C115.522 408.704 111.823 405 107.261 405C102.699 405 99 408.704 99 413.274C99 417.843 102.699 421.548 107.261 421.548Z" fill="#D8BD14"/>
<path d="M191 373C191 368.029 195.029 364 200 364H255C259.971 364 264 368.029 264 373V373C264 377.971 259.971 382 255 382H200C195.029 382 191 377.971 191 373V373Z" fill="#D8BD14"/>
<path d="M200.697 376H199.214L201.474 369.455H203.257L205.513 376H204.031L202.391 370.95H202.34L200.697 376ZM200.604 373.427H204.107V374.507H200.604V373.427ZM212.406 369.455V376H211.211L208.363 371.88H208.315V376H206.931V369.455H208.146L210.971 373.571H211.029V369.455H212.406ZM216.5 376H214.179V369.455H216.519C217.177 369.455 217.744 369.586 218.219 369.848C218.694 370.108 219.06 370.482 219.315 370.969C219.573 371.457 219.702 372.041 219.702 372.721C219.702 373.403 219.573 373.989 219.315 374.479C219.06 374.969 218.692 375.345 218.213 375.607C217.736 375.869 217.165 376 216.5 376ZM215.563 374.814H216.442C216.851 374.814 217.195 374.742 217.475 374.597C217.756 374.45 217.967 374.223 218.107 373.916C218.25 373.607 218.322 373.209 218.322 372.721C218.322 372.237 218.25 371.842 218.107 371.535C217.967 371.228 217.757 371.002 217.478 370.858C217.199 370.713 216.855 370.64 216.445 370.64H215.563V374.814ZM224.07 369.455H225.777L227.58 373.852H227.656L229.459 369.455H231.166V376H229.823V371.74H229.769L228.075 375.968H227.161L225.467 371.724H225.413V376H224.07V369.455ZM238.951 372.727C238.951 373.441 238.815 374.048 238.545 374.549C238.276 375.05 237.91 375.432 237.445 375.696C236.983 375.958 236.463 376.089 235.886 376.089C235.304 376.089 234.782 375.957 234.32 375.693C233.857 375.429 233.492 375.047 233.223 374.546C232.955 374.045 232.821 373.439 232.821 372.727C232.821 372.013 232.955 371.406 233.223 370.906C233.492 370.405 233.857 370.023 234.32 369.761C234.782 369.497 235.304 369.365 235.886 369.365C236.463 369.365 236.983 369.497 237.445 369.761C237.91 370.023 238.276 370.405 238.545 370.906C238.815 371.406 238.951 372.013 238.951 372.727ZM237.548 372.727C237.548 372.265 237.478 371.875 237.34 371.558C237.203 371.24 237.011 370.999 236.761 370.835C236.512 370.671 236.22 370.589 235.886 370.589C235.551 370.589 235.259 370.671 235.01 370.835C234.761 370.999 234.567 371.24 234.428 371.558C234.292 371.875 234.224 372.265 234.224 372.727C234.224 373.19 234.292 373.58 234.428 373.897C234.567 374.214 234.761 374.455 235.01 374.619C235.259 374.783 235.551 374.865 235.886 374.865C236.22 374.865 236.512 374.783 236.761 374.619C237.011 374.455 237.203 374.214 237.34 373.897C237.478 373.58 237.548 373.19 237.548 372.727ZM240.606 376V369.455H243.188C243.682 369.455 244.104 369.543 244.454 369.72C244.805 369.895 245.073 370.143 245.256 370.464C245.441 370.784 245.534 371.16 245.534 371.593C245.534 372.027 245.44 372.401 245.253 372.714C245.065 373.026 244.794 373.264 244.438 373.43C244.084 373.597 243.656 373.68 243.153 373.68H241.424V372.567H242.929C243.193 372.567 243.413 372.531 243.588 372.459C243.762 372.386 243.892 372.278 243.978 372.133C244.065 371.988 244.109 371.808 244.109 371.593C244.109 371.375 244.065 371.192 243.978 371.043C243.892 370.894 243.761 370.781 243.584 370.704C243.41 370.625 243.189 370.586 242.923 370.586H241.99V376H240.606ZM244.141 373.021L245.767 376H244.24L242.648 373.021H244.141ZM247.142 376V369.455H251.552V370.596H248.526V372.155H251.326V373.296H248.526V374.859H251.565V376H247.142ZM254.884 369.455L254.759 374.038H253.59L253.462 369.455H254.884ZM254.174 376.083C253.963 376.083 253.782 376.009 253.631 375.859C253.48 375.708 253.405 375.527 253.407 375.316C253.405 375.107 253.48 374.928 253.631 374.779C253.782 374.63 253.963 374.555 254.174 374.555C254.377 374.555 254.555 374.63 254.708 374.779C254.862 374.928 254.939 375.107 254.941 375.316C254.939 375.457 254.902 375.586 254.83 375.703C254.759 375.818 254.667 375.911 254.552 375.981C254.436 376.049 254.311 376.083 254.174 376.083Z" fill="#141414"/>
<path d="M107 410L107 373L191 373" stroke="#D8BD14"/>
<defs>
<filter id="filter0_d_41410_2862" x="448" y="29" width="114" height="118.077" filterUnits="userSpaceOnUse" color-interpolation-filters="sRGB">
<feFlood flood-opacity="0" result="BackgroundImageFix"/>
<feColorMatrix in="SourceAlpha" type="matrix" values="0 0 0 0 0 0 0 0 0 0 0 0 0 0 0 0 0 0 127 0" result="hardAlpha"/>
<feOffset dy="4"/>
<feGaussianBlur stdDeviation="2"/>
<feComposite in2="hardAlpha" operator="out"/>
<feColorMatrix type="matrix" values="0 0 0 0 0 0 0 0 0 0 0 0 0 0 0 0 0 0 0.25 0"/>
<feBlend mode="normal" in2="BackgroundImageFix" result="effect1_dropShadow_41410_2862"/>
<feBlend mode="normal" in="SourceGraphic" in2="effect1_dropShadow_41410_2862" result="shape"/>
</filter>
<linearGradient id="paint0_linear_41410_2862" x1="16.1386" y1="14.5699" x2="24.4572" y2="24.5567" gradientUnits="userSpaceOnUse">
<stop stop-color="#3C9AE8"/>
<stop offset="1" stop-color="#84E2D8"/>
</linearGradient>
</defs>
</svg>
