<svg width="558" height="433" viewBox="0 0 558 433" fill="none" xmlns="http://www.w3.org/2000/svg">
  <path
    d="M338 101.905V231.029C338 240.314 330.473 247.842 321.187 247.842H192.063C182.777 247.842 175.25 240.314 175.25 231.029V101.905C175.25 92.6192 182.777 85.0918 192.063 85.0918H321.187C330.473 85.0918 338 92.6192 338 101.905ZM321.187 246.147C329.536 246.147 336.305 239.378 336.305 231.029V167.929C336.305 123.115 299.976 86.7871 255.163 86.7871H192.063C183.714 86.7871 176.945 93.5555 176.945 101.905V231.029C176.945 239.378 183.714 246.147 192.063 246.147H321.187V246.147Z"
    fill="#383838"
  />
  <path
    d="M336.133 166.467C336.133 122.555 300.536 86.9585 256.625 86.9585C212.714 86.9585 177.117 122.555 177.117 166.467C177.117 210.378 225.262 266.147 256.625 239.193C287.988 212.24 336.133 210.378 336.133 166.467Z"
    fill="#1E1E1E"
  />
  <g opacity="0.1">
    <path
      d="M257.457 115.118C231.133 115.108 209.812 136.418 209.812 162.721C209.812 183.52 223.15 201.2 241.725 207.694C244.226 208.322 243.843 206.544 243.843 205.331V197.081C229.398 198.774 228.813 189.215 227.844 187.618C225.886 184.276 221.255 183.424 222.639 181.827C225.928 180.135 229.281 182.253 233.167 187.991C235.977 192.153 241.459 191.45 244.237 190.758C244.844 188.257 246.142 186.021 247.931 184.286C232.964 181.604 226.727 172.471 226.727 161.613C226.727 156.344 228.462 151.501 231.868 147.595C229.696 141.155 232.07 135.641 232.39 134.821C238.574 134.268 245.003 139.249 245.504 139.643C249.016 138.696 253.029 138.196 257.521 138.196C262.035 138.196 266.058 138.717 269.603 139.675C270.806 138.76 276.767 134.481 282.515 135.002C282.823 135.822 285.144 141.208 283.1 147.563C286.549 151.48 288.305 156.366 288.305 161.645C288.305 172.524 282.025 181.668 267.016 184.308C268.302 185.572 269.322 187.08 270.019 188.743C270.715 190.406 271.073 192.191 271.072 193.994V205.969C271.157 206.927 271.072 207.875 272.668 207.875C291.52 201.52 305.092 183.712 305.092 162.731C305.092 136.418 283.76 115.118 257.457 115.118V115.118Z"
      fill="white"
    />
  </g>
  <path
    d="M262.559 76.6152V166.467C262.559 174.413 256.095 180.877 248.149 180.877H158.297C150.351 180.877 143.887 174.413 143.887 166.467V76.6152C143.887 68.6693 150.351 62.2051 158.297 62.2051H248.149C256.095 62.2051 262.559 68.6693 262.559 76.6152ZM248.149 179.182C255.171 179.182 260.864 173.489 260.864 166.467V121.167C260.864 89.5396 235.225 63.9004 203.597 63.9004H158.297C151.275 63.9004 145.583 69.593 145.583 76.6152V166.467C145.583 173.489 151.275 179.182 158.297 179.182H248.149Z"
    fill="#555454"
  />
  <path
    d="M260.971 121.541C260.971 89.6476 235.116 63.793 203.223 63.793C171.33 63.793 145.475 89.6476 145.475 121.541C145.475 153.434 188.408 199.056 203.223 170.812C220.176 138.494 260.971 153.434 260.971 121.541Z"
    fill="#383838"
  />
  <g opacity="0.1">
    <path
      d="M202.469 86.8838C183.39 86.8761 167.938 102.321 167.938 121.385C167.938 136.459 177.604 149.274 191.067 153.98C192.88 154.435 192.602 153.147 192.602 152.267V146.288C182.133 147.515 181.708 140.587 181.006 139.43C179.587 137.007 176.231 136.39 177.234 135.233C179.618 134.006 182.048 135.541 184.864 139.7C186.901 142.716 190.874 142.207 192.887 141.705C193.327 139.892 194.268 138.272 195.564 137.015C184.717 135.071 180.196 128.451 180.196 120.582C180.196 116.763 181.454 113.253 183.923 110.422C182.349 105.754 184.069 101.758 184.301 101.164C188.783 100.763 193.443 104.373 193.805 104.659C196.351 103.972 199.26 103.61 202.515 103.61C205.787 103.61 208.703 103.988 211.272 104.682C212.144 104.018 216.464 100.917 220.63 101.295C220.854 101.889 222.535 105.793 221.054 110.399C223.554 113.238 224.827 116.779 224.827 120.605C224.827 128.49 220.275 135.117 209.397 137.03C210.329 137.947 211.069 139.039 211.573 140.245C212.078 141.45 212.337 142.744 212.336 144.051V152.73C212.398 153.424 212.336 154.111 213.494 154.111C227.157 149.505 236.993 136.598 236.993 121.392C236.993 102.321 221.533 86.8838 202.469 86.8838V86.8838Z"
      fill="white"
    />
  </g>
  <path
    d="M199.832 63.0527V108.826C199.832 116.772 193.368 123.236 185.422 123.236H139.648C131.702 123.236 125.238 116.772 125.238 108.826V63.0527C125.238 55.1068 131.702 48.6426 139.648 48.6426H185.422C193.368 48.6426 199.832 55.1068 199.832 63.0527ZM185.422 121.541C192.444 121.541 198.137 115.848 198.137 108.826V87.508C198.137 66.9795 181.495 50.3379 160.967 50.3379H139.648C132.626 50.3379 126.934 56.0305 126.934 63.0527V108.826C126.934 115.848 132.626 121.541 139.648 121.541H185.422Z"
    fill="#3F3D56"
  />
  <path
    d="M198.523 85.9395C198.523 66.064 182.411 49.9517 162.535 49.9517C142.66 49.9517 126.547 66.064 126.547 85.9395C126.547 105.815 154.276 133.224 162.535 115.146C173.555 91.0254 198.523 105.815 198.523 85.9395V85.9395Z"
    fill="#8761BE"
  />
  <path d="M40.688 150.76L41.3492 178.752L81.0227 177.66L73.0054 146.678L40.688 150.76Z" fill="#FFB6B6" />
  <path
    d="M118.3 113.245L112.264 127.832L103.449 125.547L110.38 110.351C110.231 109.863 110.15 109.345 110.15 108.809C110.15 105.89 112.516 103.524 115.434 103.524C118.353 103.524 120.719 105.89 120.719 108.809C120.719 110.67 119.754 112.303 118.3 113.245V113.245Z"
    fill="#FFB6B6"
  />
  <path
    d="M24.5468 216.16L23.8169 200.39L32.7677 198.716L32.9461 215.417C33.2879 215.795 33.5813 216.229 33.8091 216.715C35.0485 219.357 33.9112 222.504 31.269 223.743C28.6268 224.983 25.4801 223.845 24.2408 221.203C23.4504 219.518 23.63 217.63 24.5467 216.16H24.5468Z"
    fill="#FFB6B6"
  />
  <path d="M88.2725 401.765L95.8985 401.922L100.149 371.93L88.8953 371.697L88.2725 401.765Z" fill="#FFB6B6" />
  <path
    d="M112.339 414.599C112.298 416.481 110.742 417.975 108.859 417.939L93.6982 417.624L91.2015 412.168L90.0694 417.545L84.3486 417.431L86.3547 398.191L88.3484 398.117L96.4807 397.794L99.1043 397.695L98.9912 403.152L110.926 411.765C111.834 412.421 112.362 413.48 112.339 414.599L112.339 414.599Z"
    fill="#2F2E41"
  />
  <path d="M36.9541 401.765L44.5802 401.922L48.831 371.93L37.5769 371.697L36.9541 401.765Z" fill="#FFB6B6" />
  <path
    d="M61.0199 414.599C60.9791 416.481 59.4227 417.975 57.5405 417.939L42.3794 417.624L39.8826 412.168L38.7505 417.545L33.0298 417.431L35.0359 398.191L37.0295 398.117L45.1619 397.794L47.7854 397.695L47.6724 403.152L59.6076 411.765C60.5152 412.421 61.0431 413.48 61.0199 414.599L61.0199 414.599Z"
    fill="#2F2E41"
  />
  <path
    d="M30.4347 110.521C17.463 118.667 20.6523 146.995 21.2656 161.376C21.6902 171.333 21.1846 181.461 22.5709 191.308C23.2722 196.289 23.2404 201.252 23.276 206.318C23.2994 209.645 23.7291 208.791 26.6257 208.508C28.3724 208.337 32.1968 209.055 33.6388 208.05C35.5944 206.687 35.0663 201.882 35.4589 199.944C35.9104 197.716 36.5226 195.607 37.2049 193.432C39.1351 187.279 40.6 180.502 40.6883 174.023C40.8169 164.58 40.8781 155.042 40.4687 145.629C40.253 140.67 39.845 135.553 38.9356 130.681C38.5607 128.673 37.8458 126.81 36.9413 124.974C35.5888 122.228 34.9541 122.245 31.872 121.886"
    fill="#8761BE"
  />
  <path
    d="M80.5869 171.171L38.5991 170.005L40.9318 173.504L35.619 178.752C35.619 178.752 16.4389 204.995 22.2705 228.904C28.1022 252.814 24.819 394.167 24.819 394.167L59.0099 390.441L55.2193 247.857L83.2112 301.508L75.0721 388.485L104.205 388.4L113.536 294.51L80.5869 171.171H80.5869Z"
    fill="#2F2E41"
  />
  <path
    d="M68.4602 101.279C65.7854 96.9226 66.7883 94.5548 61.1696 93.327C57.7184 92.5728 53.6755 91.7909 50.1085 92.0216C46.3172 92.2668 44.8439 94.6175 42.8068 97.6697C40.4083 101.263 38.8118 103.276 35.2433 105.773C20.1517 116.337 30.0395 134.325 25.8924 149.292C25.0042 152.498 23.6659 155.593 22.8186 158.805C25.6778 147.967 26.2649 178.47 21.2261 167.64C23.0622 171.587 28.2402 168.69 30.4309 167.078C34.5111 164.077 38.0657 162.894 43.2677 162.177C51.3145 161.068 56.987 166.671 64.4993 167.971C72.5821 169.369 79.7177 166.74 83.6836 159.225C89.1811 148.809 87.1577 138.199 82.6765 127.72C80.4936 122.616 78.2624 117.795 76.3054 112.587C74.4201 107.569 71.3195 105.124 68.1296 100.948"
    fill="#8761BE"
  />
  <path
    d="M65.8148 104.254C62.6349 106.798 60.6626 112.573 59.9683 116.383C59.0708 121.307 59.1518 126.824 59.6924 131.794C60.2298 136.733 61.3241 141.525 61.8479 146.482C62.3693 151.416 66.5961 152.332 67.7572 157.175C68.9445 162.128 67.137 169.257 72.262 169.5C77.3625 169.742 81.3858 168.142 85.8159 165.693C96.4112 159.836 108.078 152.026 113.244 141.43C114.623 138.601 119.387 131.978 120.825 129.183C122.228 126.457 121.102 121.597 119.076 119.269C116.237 116.009 107.949 115.313 105.246 112.008C103.577 114.406 105.32 119.807 104.502 122.762C103.558 126.174 90.5491 140.077 86.4184 139.097C83.8898 138.497 84.5476 128.241 83.5026 126.267C82.0317 123.49 82.8355 115.481 81.17 112.855C79.1831 109.721 81.6689 108.762 78.3824 106.734C75.2369 104.793 69.5044 103.589 65.8148 103.813"
    fill="#8761BE"
  />
  <path
    d="M59.9018 89.0776C70.193 89.0776 78.5356 80.735 78.5356 70.4438C78.5356 60.1527 70.193 51.8101 59.9018 51.8101C49.6107 51.8101 41.2681 60.1527 41.2681 70.4438C41.2681 80.735 49.6107 89.0776 59.9018 89.0776Z"
    fill="#FFB6B6"
  />
  <path
    d="M85.1303 65.2638C86.3883 56.2305 82.7205 53.4669 76.9821 52.6483C65.6284 46.7479 63.0278 48.2311 59.4282 48.8715L58.1055 48.5869C54.0463 47.7136 50.0113 48.0861 46.4011 49.4509C38.7863 52.3221 33.7839 59.6029 33.2301 67.7216C32.8491 73.3184 29.4785 78.0333 26.2338 82.5785C23.5205 86.3731 25.5957 91.699 30.1509 92.6791L42.0778 95.2452C43.1102 93.9403 43.9352 92.5728 44.8706 90.8593C45.2396 92.3882 45.2805 94.1388 45.088 95.8929C49.309 97.9953 53.9171 98.8653 58.805 98.8442C59.5912 97.7964 60.2956 96.6297 60.2026 95.3152C60.4739 96.6323 60.8061 97.9445 60.8632 99.287C63.9378 97.3071 66.4793 97.8887 68.5085 100.932C73.6337 96.6841 74.0351 86.951 67.9429 84.5129C62.7888 82.4503 70.919 68.011 76.4626 67.7165C76.4983 67.7146 77.9747 73.2974 78.0272 73.1924C78.8095 71.6279 78.4517 70.7703 79.387 69.0568C79.6942 70.3457 79.7774 71.7892 79.676 73.2587C80.9967 72.9702 82.3342 72.5481 83.6841 71.9855C85.2496 69.8593 85.8549 67.6317 85.1303 65.2638H85.1303Z"
    fill="#2F2E41"
  />
  <path
    d="M0 418.07C0 418.586 0.414627 419 0.930949 419H199.072C199.589 419 200.003 418.586 200.003 418.07C200.003 417.553 199.589 417.139 199.072 417.139H0.930949C0.414627 417.139 0 417.553 0 418.07Z"
    fill="#323232"
  />
  <path
    d="M441 418C441 418.555 441.243 419 441.545 419H557.455C557.757 419 558 418.555 558 418C558 417.445 557.757 417 557.455 417H441.545C441.243 417 441 417.445 441 418Z"
    fill="#323232"
  />
  <circle cx="162" cy="85" r="24" fill="#D9D9D9" fill-opacity="0.6" />
  <path
    d="M162.525 66.5566C151.909 66.5523 143.311 75.1465 143.311 85.7539C143.311 94.1419 148.689 101.272 156.18 103.891C157.189 104.144 157.035 103.427 157.035 102.938V99.6109C151.209 100.293 150.973 96.4386 150.582 95.7947C149.793 94.4467 147.925 94.1033 148.483 93.4594C149.81 92.7768 151.162 93.6311 152.729 95.9449C153.862 97.6234 156.073 97.34 157.193 97.061C157.438 96.0522 157.962 95.1507 158.683 94.451C152.647 93.3692 150.132 89.686 150.132 85.3074C150.132 83.1825 150.831 81.2293 152.205 79.6539C151.329 77.0567 152.287 74.8331 152.415 74.5025C154.91 74.2793 157.502 76.2883 157.704 76.4472C159.121 76.0651 160.739 75.8634 162.551 75.8634C164.371 75.8634 165.994 76.0737 167.423 76.46C167.908 76.0909 170.312 74.3652 172.63 74.5755C172.755 74.9061 173.69 77.0782 172.866 79.641C174.257 81.2207 174.965 83.1911 174.965 85.3203C174.965 89.7075 172.433 93.395 166.38 94.4596C166.898 94.9694 167.31 95.5775 167.591 96.2482C167.872 96.9189 168.016 97.6389 168.015 98.366V103.195C168.05 103.582 168.015 103.964 168.659 103.964C176.262 101.401 181.735 94.2192 181.735 85.7582C181.735 75.1465 173.132 66.5566 162.525 66.5566V66.5566Z"
    fill="#854ECA"
    fill-opacity="0.5"
  />
  <path
    d="M162.261 57.5477C166.823 57.5477 170.522 53.8434 170.522 49.2738C170.522 44.7043 166.823 41 162.261 41C157.699 41 154 44.7043 154 49.2738C154 53.8434 157.699 57.5477 162.261 57.5477Z"
    fill="#D8BD14"
  />
  <rect x="319" width="94" height="18" rx="9" fill="#D8BD14" />
  <path
    d="M334.409 7.57031C334.364 7.41477 334.301 7.27734 334.221 7.15803C334.14 7.03658 334.04 6.9343 333.923 6.85121C333.808 6.76598 333.676 6.70099 333.527 6.65625C333.38 6.61151 333.217 6.58913 333.038 6.58913C332.703 6.58913 332.409 6.67223 332.156 6.83842C331.904 7.00462 331.708 7.24645 331.568 7.56392C331.427 7.87926 331.357 8.26491 331.357 8.72088C331.357 9.17685 331.426 9.56463 331.565 9.88423C331.703 10.2038 331.899 10.4478 332.153 10.6161C332.406 10.7823 332.706 10.8654 333.051 10.8654C333.364 10.8654 333.631 10.81 333.853 10.6992C334.077 10.5863 334.247 10.4276 334.364 10.223C334.484 10.0185 334.543 9.77663 334.543 9.49751L334.825 9.53906H333.137V8.49716H335.876V9.32173C335.876 9.89702 335.755 10.3913 335.512 10.8047C335.269 11.2159 334.934 11.5334 334.508 11.7571C334.082 11.9787 333.594 12.0895 333.044 12.0895C332.431 12.0895 331.892 11.9542 331.427 11.6836C330.963 11.4109 330.6 11.0241 330.341 10.5234C330.083 10.0206 329.954 9.42401 329.954 8.73366C329.954 8.20312 330.031 7.73011 330.184 7.31463C330.339 6.89702 330.557 6.54332 330.836 6.25355C331.115 5.96378 331.44 5.74325 331.811 5.59197C332.181 5.4407 332.583 5.36506 333.016 5.36506C333.386 5.36506 333.732 5.41939 334.051 5.52805C334.371 5.63459 334.654 5.78587 334.901 5.98189C335.151 6.17791 335.354 6.41122 335.512 6.68182C335.669 6.95028 335.771 7.24645 335.815 7.57031H334.409ZM338.929 5.45455V12H337.546V5.45455H338.929ZM340.449 6.59553V5.45455H345.824V6.59553H343.821V12H342.453V6.59553H340.449ZM355.828 7.74609H354.428C354.403 7.56499 354.35 7.40412 354.272 7.26349C354.193 7.12074 354.091 6.99929 353.968 6.89915C353.844 6.79901 353.702 6.7223 353.54 6.66903C353.38 6.61577 353.206 6.58913 353.019 6.58913C352.68 6.58913 352.385 6.6733 352.133 6.84162C351.882 7.00781 351.687 7.25071 351.548 7.57031C351.41 7.88778 351.341 8.27344 351.341 8.72727C351.341 9.19389 351.41 9.58594 351.548 9.90341C351.689 10.2209 351.885 10.4606 352.137 10.6225C352.388 10.7844 352.679 10.8654 353.009 10.8654C353.194 10.8654 353.366 10.8409 353.524 10.7919C353.683 10.7429 353.825 10.6715 353.949 10.5778C354.072 10.4819 354.175 10.3658 354.256 10.2294C354.339 10.093 354.396 9.9375 354.428 9.76278L355.828 9.76918C355.792 10.0696 355.701 10.3594 355.556 10.6385C355.414 10.9155 355.221 11.1637 354.978 11.3832C354.737 11.6005 354.449 11.7731 354.115 11.9009C353.783 12.0266 353.406 12.0895 352.987 12.0895C352.403 12.0895 351.881 11.9574 351.421 11.6932C350.963 11.429 350.6 11.0465 350.334 10.5458C350.07 10.0451 349.938 9.43892 349.938 8.72727C349.938 8.01349 350.072 7.40625 350.34 6.90554C350.609 6.40483 350.973 6.02344 351.433 5.76136C351.894 5.49716 352.411 5.36506 352.987 5.36506C353.366 5.36506 353.718 5.41832 354.041 5.52486C354.367 5.63139 354.656 5.78693 354.908 5.99148C355.159 6.19389 355.363 6.44212 355.521 6.73615C355.681 7.03018 355.783 7.36683 355.828 7.74609ZM363.465 8.72727C363.465 9.44105 363.33 10.0483 363.059 10.549C362.791 11.0497 362.424 11.4322 361.96 11.6964C361.498 11.9585 360.978 12.0895 360.4 12.0895C359.819 12.0895 359.297 11.9574 358.834 11.6932C358.372 11.429 358.006 11.0465 357.738 10.5458C357.47 10.0451 357.335 9.43892 357.335 8.72727C357.335 8.01349 357.47 7.40625 357.738 6.90554C358.006 6.40483 358.372 6.02344 358.834 5.76136C359.297 5.49716 359.819 5.36506 360.4 5.36506C360.978 5.36506 361.498 5.49716 361.96 5.76136C362.424 6.02344 362.791 6.40483 363.059 6.90554C363.33 7.40625 363.465 8.01349 363.465 8.72727ZM362.062 8.72727C362.062 8.26491 361.993 7.875 361.854 7.55753C361.718 7.24006 361.525 6.99929 361.276 6.83523C361.027 6.67116 360.735 6.58913 360.4 6.58913C360.066 6.58913 359.774 6.67116 359.525 6.83523C359.275 6.99929 359.081 7.24006 358.943 7.55753C358.807 7.875 358.738 8.26491 358.738 8.72727C358.738 9.18963 358.807 9.57955 358.943 9.89702C359.081 10.2145 359.275 10.4553 359.525 10.6193C359.774 10.7834 360.066 10.8654 360.4 10.8654C360.735 10.8654 361.027 10.7834 361.276 10.6193C361.525 10.4553 361.718 10.2145 361.854 9.89702C361.993 9.57955 362.062 9.18963 362.062 8.72727ZM365.12 5.45455H366.827L368.63 9.85227H368.706L370.509 5.45455H372.216V12H370.873V7.7397H370.819L369.125 11.968H368.211L366.517 7.72372H366.463V12H365.12V5.45455ZM373.986 12V5.45455H376.568C377.065 5.45455 377.488 5.54936 377.837 5.73899C378.186 5.92649 378.453 6.1875 378.636 6.52202C378.821 6.8544 378.914 7.23793 378.914 7.67259C378.914 8.10724 378.82 8.49077 378.633 8.82315C378.445 9.15554 378.174 9.41442 377.818 9.59979C377.464 9.78516 377.036 9.87784 376.533 9.87784H374.887V8.76882H376.309C376.576 8.76882 376.795 8.72301 376.968 8.63139C377.142 8.53764 377.272 8.40874 377.358 8.24467C377.445 8.07848 377.489 7.88778 377.489 7.67259C377.489 7.45526 377.445 7.26562 377.358 7.10369C377.272 6.93963 377.142 6.81285 376.968 6.72337C376.793 6.63175 376.571 6.58594 376.303 6.58594H375.37V12H373.986ZM380.815 12H379.332L381.592 5.45455H383.375L385.632 12H384.149L382.509 6.95028H382.458L380.815 12ZM380.723 9.4272H384.225V10.5075H380.723V9.4272ZM387.049 12V5.45455H389.632C390.126 5.45455 390.548 5.54297 390.897 5.71982C391.249 5.89453 391.516 6.14276 391.7 6.46449C391.885 6.78409 391.978 7.16016 391.978 7.59268C391.978 8.02734 391.884 8.40128 391.696 8.71449C391.509 9.02557 391.237 9.2642 390.881 9.4304C390.528 9.59659 390.1 9.67969 389.597 9.67969H387.868V8.56747H389.373C389.637 8.56747 389.857 8.53125 390.031 8.45881C390.206 8.38636 390.336 8.2777 390.421 8.13281C390.509 7.98793 390.552 7.80788 390.552 7.59268C390.552 7.37535 390.509 7.19212 390.421 7.04297C390.336 6.89382 390.205 6.78089 390.028 6.70419C389.853 6.62536 389.633 6.58594 389.367 6.58594H388.433V12H387.049ZM390.584 9.02131L392.211 12H390.683L389.092 9.02131H390.584ZM393.586 12V5.45455H397.996V6.59553H394.97V8.15518H397.769V9.29616H394.97V10.859H398.009V12H393.586ZM401.328 5.45455L401.203 10.0376H400.033L399.905 5.45455H401.328ZM400.618 12.0831C400.407 12.0831 400.226 12.0085 400.075 11.8594C399.924 11.7081 399.849 11.527 399.851 11.3161C399.849 11.1072 399.924 10.9283 400.075 10.7791C400.226 10.63 400.407 10.5554 400.618 10.5554C400.821 10.5554 400.998 10.63 401.152 10.7791C401.305 10.9283 401.383 11.1072 401.385 11.3161C401.383 11.4567 401.346 11.5856 401.273 11.7028C401.203 11.8178 401.11 11.9105 400.995 11.9808C400.88 12.049 400.754 12.0831 400.618 12.0831Z"
    fill="#141414"
  />
  <path d="M162 46L162 9L319 9.00001" stroke="#D8BD14" />
  <rect x="164" y="378" width="124" height="18" rx="9" fill="#D8BD14" />
  <path
    d="M179.344 385.746H177.944C177.919 385.565 177.866 385.404 177.788 385.263C177.709 385.121 177.608 384.999 177.484 384.899C177.36 384.799 177.218 384.722 177.056 384.669C176.896 384.616 176.722 384.589 176.535 384.589C176.196 384.589 175.901 384.673 175.65 384.842C175.398 385.008 175.203 385.251 175.065 385.57C174.926 385.888 174.857 386.273 174.857 386.727C174.857 387.194 174.926 387.586 175.065 387.903C175.205 388.221 175.401 388.461 175.653 388.623C175.904 388.784 176.195 388.865 176.525 388.865C176.711 388.865 176.882 388.841 177.04 388.792C177.2 388.743 177.341 388.672 177.465 388.578C177.588 388.482 177.691 388.366 177.772 388.229C177.855 388.093 177.912 387.937 177.944 387.763L179.344 387.769C179.308 388.07 179.217 388.359 179.072 388.638C178.93 388.915 178.737 389.164 178.494 389.383C178.253 389.6 177.966 389.773 177.631 389.901C177.299 390.027 176.923 390.089 176.503 390.089C175.919 390.089 175.397 389.957 174.937 389.693C174.479 389.429 174.116 389.047 173.85 388.546C173.586 388.045 173.454 387.439 173.454 386.727C173.454 386.013 173.588 385.406 173.857 384.906C174.125 384.405 174.489 384.023 174.95 383.761C175.41 383.497 175.928 383.365 176.503 383.365C176.882 383.365 177.234 383.418 177.558 383.525C177.884 383.631 178.172 383.787 178.424 383.991C178.675 384.194 178.88 384.442 179.037 384.736C179.197 385.03 179.299 385.367 179.344 385.746ZM186.981 386.727C186.981 387.441 186.846 388.048 186.575 388.549C186.307 389.05 185.941 389.432 185.476 389.696C185.014 389.958 184.494 390.089 183.916 390.089C183.335 390.089 182.813 389.957 182.35 389.693C181.888 389.429 181.523 389.047 181.254 388.546C180.986 388.045 180.851 387.439 180.851 386.727C180.851 386.013 180.986 385.406 181.254 384.906C181.523 384.405 181.888 384.023 182.35 383.761C182.813 383.497 183.335 383.365 183.916 383.365C184.494 383.365 185.014 383.497 185.476 383.761C185.941 384.023 186.307 384.405 186.575 384.906C186.846 385.406 186.981 386.013 186.981 386.727ZM185.578 386.727C185.578 386.265 185.509 385.875 185.371 385.558C185.234 385.24 185.041 384.999 184.792 384.835C184.543 384.671 184.251 384.589 183.916 384.589C183.582 384.589 183.29 384.671 183.041 384.835C182.791 384.999 182.598 385.24 182.459 385.558C182.323 385.875 182.254 386.265 182.254 386.727C182.254 387.19 182.323 387.58 182.459 387.897C182.598 388.214 182.791 388.455 183.041 388.619C183.29 388.783 183.582 388.865 183.916 388.865C184.251 388.865 184.543 388.783 184.792 388.619C185.041 388.455 185.234 388.214 185.371 387.897C185.509 387.58 185.578 387.19 185.578 386.727ZM188.637 383.455H190.343L192.146 387.852H192.222L194.025 383.455H195.732V390H194.389V385.74H194.335L192.641 389.968H191.727L190.033 385.724H189.979V390H188.637V383.455ZM197.502 383.455H199.209L201.011 387.852H201.088L202.89 383.455H204.597V390H203.255V385.74H203.2L201.506 389.968H200.592L198.899 385.724H198.844V390H197.502V383.455ZM207.495 390H206.012L208.272 383.455H210.055L212.312 390H210.829L209.189 384.95H209.138L207.495 390ZM207.403 387.427H210.906V388.507H207.403V387.427ZM219.204 383.455V390H218.009L215.161 385.88H215.114V390H213.73V383.455H214.944L217.769 387.571H217.827V383.455H219.204ZM223.298 390H220.978V383.455H223.317C223.976 383.455 224.542 383.586 225.018 383.848C225.493 384.108 225.858 384.482 226.114 384.969C226.372 385.457 226.501 386.041 226.501 386.721C226.501 387.403 226.372 387.989 226.114 388.479C225.858 388.969 225.491 389.345 225.011 389.607C224.534 389.869 223.963 390 223.298 390ZM222.362 388.814H223.241C223.65 388.814 223.994 388.742 224.273 388.597C224.554 388.45 224.765 388.223 224.906 387.916C225.048 387.607 225.12 387.209 225.12 386.721C225.12 386.237 225.048 385.842 224.906 385.535C224.765 385.228 224.555 385.002 224.276 384.858C223.997 384.713 223.653 384.64 223.244 384.64H222.362V388.814ZM230.869 390V383.455H233.451C233.947 383.455 234.37 383.549 234.72 383.739C235.069 383.926 235.336 384.187 235.519 384.522C235.704 384.854 235.797 385.238 235.797 385.673C235.797 386.107 235.703 386.491 235.516 386.823C235.328 387.156 235.057 387.414 234.701 387.6C234.347 387.785 233.919 387.878 233.416 387.878H231.77V386.769H233.192C233.459 386.769 233.678 386.723 233.851 386.631C234.025 386.538 234.155 386.409 234.24 386.245C234.328 386.078 234.371 385.888 234.371 385.673C234.371 385.455 234.328 385.266 234.24 385.104C234.155 384.94 234.025 384.813 233.851 384.723C233.676 384.632 233.454 384.586 233.186 384.586H232.253V390H230.869ZM237.326 390V383.455H239.908C240.403 383.455 240.824 383.543 241.174 383.72C241.525 383.895 241.793 384.143 241.976 384.464C242.161 384.784 242.254 385.16 242.254 385.593C242.254 386.027 242.16 386.401 241.973 386.714C241.785 387.026 241.514 387.264 241.158 387.43C240.804 387.597 240.376 387.68 239.873 387.68H238.144V386.567H239.649C239.914 386.567 240.133 386.531 240.308 386.459C240.482 386.386 240.612 386.278 240.698 386.133C240.785 385.988 240.829 385.808 240.829 385.593C240.829 385.375 240.785 385.192 240.698 385.043C240.612 384.894 240.481 384.781 240.304 384.704C240.13 384.625 239.909 384.586 239.643 384.586H238.71V390H237.326ZM240.861 387.021L242.487 390H240.96L239.368 387.021H240.861ZM243.862 390V383.455H248.273V384.596H245.246V386.155H248.046V387.296H245.246V388.859H248.285V390H243.862ZM251.185 383.455L252.767 388.428H252.828L254.413 383.455H255.947L253.691 390H251.908L249.648 383.455H251.185ZM258.749 383.455V390H257.365V383.455H258.749ZM260.518 390V383.455H264.928V384.596H261.902V386.155H264.701V387.296H261.902V388.859H264.941V390H260.518ZM268.132 390L266.259 383.455H267.771L268.854 388.002H268.908L270.104 383.455H271.398L272.59 388.012H272.648L273.731 383.455H275.243L273.37 390H272.021L270.775 385.721H270.724L269.481 390H268.132ZM278.215 383.455L278.09 388.038H276.92L276.793 383.455H278.215ZM277.505 390.083C277.294 390.083 277.113 390.009 276.962 389.859C276.811 389.708 276.736 389.527 276.738 389.316C276.736 389.107 276.811 388.928 276.962 388.779C277.113 388.63 277.294 388.555 277.505 388.555C277.708 388.555 277.886 388.63 278.039 388.779C278.192 388.928 278.27 389.107 278.272 389.316C278.27 389.457 278.233 389.586 278.16 389.703C278.09 389.818 277.997 389.911 277.882 389.981C277.767 390.049 277.642 390.083 277.505 390.083Z"
    fill="#141414"
  />
  <path
    d="M450.825 358H273.626C272.417 357.999 271.257 357.518 270.402 356.663C269.546 355.807 269.065 354.648 269.064 353.438V244.174C269.065 243.287 269.417 242.438 270.044 241.811C270.671 241.185 271.52 240.832 272.406 240.831H451.988C452.889 240.832 453.753 241.191 454.391 241.828C455.028 242.466 455.387 243.33 455.388 244.231V353.438C455.386 354.648 454.905 355.807 454.05 356.663C453.195 357.518 452.035 357.999 450.825 358V358Z"
    fill="#383838"
  />
  <path
    d="M445.096 352.24H279.951C277.531 352.24 275.561 350.395 275.561 348.129V252.98C275.561 251.299 277.02 249.931 278.814 249.931H446.179C448.003 249.931 449.487 251.321 449.487 253.03V348.129C449.487 350.395 447.517 352.24 445.096 352.24Z"
    fill="#1E1E1E"
  />
  <path
    d="M455.324 244.742H269V242.419C269.002 241.205 269.485 240.042 270.343 239.184C271.202 238.326 272.365 237.844 273.579 237.843H450.745C451.959 237.844 453.123 238.326 453.981 239.184C454.84 240.042 455.323 241.205 455.324 242.419V244.742Z"
    fill="#8761BE"
  />
  <path
    d="M277.322 242.484C277.976 242.484 278.506 241.953 278.506 241.299C278.506 240.645 277.976 240.115 277.322 240.115C276.667 240.115 276.137 240.645 276.137 241.299C276.137 241.953 276.667 242.484 277.322 242.484Z"
    fill="#472B2B"
  />
  <path
    d="M281.818 242.484C282.472 242.484 283.002 241.953 283.002 241.299C283.002 240.645 282.472 240.115 281.818 240.115C281.164 240.115 280.633 240.645 280.633 241.299C280.633 241.953 281.164 242.484 281.818 242.484Z"
    fill="#472B2B"
  />
  <path
    d="M286.313 242.484C286.967 242.484 287.498 241.953 287.498 241.299C287.498 240.645 286.967 240.115 286.313 240.115C285.659 240.115 285.129 240.645 285.129 241.299C285.129 241.953 285.659 242.484 286.313 242.484Z"
    fill="#472B2B"
  />
  <path
    d="M380.56 331.812H336.221C335.56 331.812 334.926 331.549 334.459 331.082C333.992 330.615 333.729 329.981 333.729 329.32C333.729 328.659 333.992 328.025 334.459 327.557C334.926 327.09 335.56 326.827 336.221 326.827H380.56C380.887 326.827 381.212 326.892 381.514 327.017C381.816 327.142 382.091 327.326 382.322 327.557C382.554 327.789 382.738 328.063 382.863 328.366C382.988 328.668 383.052 328.992 383.052 329.32C383.052 329.647 382.988 329.971 382.863 330.273C382.738 330.576 382.554 330.851 382.322 331.082C382.091 331.313 381.816 331.497 381.514 331.622C381.212 331.747 380.887 331.812 380.56 331.812V331.812Z"
    fill="#7B7B7B"
  />
  <path
    d="M435.655 331.812H391.317C390.656 331.812 390.022 331.549 389.554 331.082C389.087 330.615 388.824 329.981 388.824 329.32C388.824 328.659 389.087 328.025 389.554 327.557C390.022 327.09 390.656 326.827 391.317 326.827H435.655C435.983 326.827 436.307 326.892 436.609 327.017C436.912 327.142 437.186 327.326 437.418 327.557C437.649 327.789 437.833 328.063 437.958 328.366C438.083 328.668 438.148 328.992 438.148 329.32C438.148 329.647 438.083 329.971 437.958 330.273C437.833 330.576 437.649 330.851 437.418 331.082C437.186 331.313 436.912 331.497 436.609 331.622C436.307 331.747 435.983 331.812 435.655 331.812V331.812Z"
    fill="#7B7B7B"
  />
  <path
    d="M435.655 341.257H358.521C357.86 341.257 357.226 340.994 356.759 340.527C356.291 340.059 356.029 339.425 356.029 338.764C356.029 338.103 356.291 337.469 356.759 337.002C357.226 336.535 357.86 336.272 358.521 336.272H435.655C435.982 336.272 436.307 336.336 436.61 336.461C436.912 336.586 437.187 336.769 437.419 337.001C437.651 337.232 437.835 337.507 437.96 337.81C438.086 338.112 438.15 338.437 438.15 338.764C438.15 339.092 438.086 339.416 437.96 339.719C437.835 340.021 437.651 340.296 437.419 340.528C437.187 340.759 436.912 340.943 436.61 341.068C436.307 341.193 435.982 341.257 435.655 341.257Z"
    fill="#7B7B7B"
  />
  <path
    d="M380.56 322.236H336.221C335.56 322.236 334.926 321.973 334.459 321.506C333.992 321.038 333.729 320.404 333.729 319.743C333.729 319.082 333.992 318.448 334.459 317.981C334.926 317.514 335.56 317.251 336.221 317.251H380.56C381.221 317.251 381.855 317.514 382.322 317.981C382.79 318.448 383.052 319.082 383.052 319.743C383.052 320.404 382.79 321.038 382.322 321.506C381.855 321.973 381.221 322.236 380.56 322.236Z"
    fill="#7B7B7B"
  />
  <path
    d="M404.96 322.367H392.366C391.705 322.367 391.071 322.104 390.604 321.637C390.137 321.169 389.874 320.535 389.874 319.874C389.874 319.213 390.137 318.579 390.604 318.112C391.071 317.644 391.705 317.382 392.366 317.382H404.96C405.621 317.382 406.255 317.644 406.722 318.112C407.189 318.579 407.452 319.213 407.452 319.874C407.452 320.535 407.189 321.169 406.722 321.637C406.255 322.104 405.621 322.367 404.96 322.367V322.367Z"
    fill="#7B7B7B"
  />
  <path
    d="M348.815 341.257H336.221C335.56 341.257 334.926 340.994 334.459 340.527C333.992 340.059 333.729 339.425 333.729 338.764C333.729 338.103 333.992 337.469 334.459 337.002C334.926 336.535 335.56 336.272 336.221 336.272H348.815C349.142 336.272 349.467 336.336 349.769 336.461C350.072 336.586 350.347 336.769 350.579 337.001C350.811 337.232 350.995 337.507 351.12 337.81C351.246 338.112 351.31 338.437 351.31 338.764C351.31 339.092 351.246 339.416 351.12 339.719C350.995 340.021 350.811 340.296 350.579 340.528C350.347 340.759 350.072 340.943 349.769 341.068C349.467 341.193 349.142 341.257 348.815 341.257Z"
    fill="#7B7B7B"
  />
  <path
    d="M298.257 340.238C297.722 340.239 297.208 340.026 296.828 339.645L287.35 330.158C287.164 329.971 287.016 329.75 286.915 329.505C286.814 329.261 286.762 328.998 286.762 328.733C286.762 328.468 286.814 328.206 286.915 327.961C287.016 327.716 287.164 327.495 287.35 327.308L296.789 317.86C297.183 317.468 297.712 317.249 298.264 317.251C298.815 317.253 299.343 317.475 299.734 317.869C300.125 318.266 300.345 318.805 300.345 319.366C300.345 319.928 300.126 320.466 299.734 320.864L292.72 327.974C292.501 328.196 292.379 328.497 292.379 328.81C292.379 329.124 292.501 329.425 292.72 329.647L299.696 336.718C299.981 337.007 300.175 337.374 300.254 337.774C300.333 338.174 300.292 338.589 300.138 338.966C299.984 339.343 299.723 339.665 299.388 339.891C299.053 340.118 298.66 340.238 298.257 340.238V340.238Z"
    fill="#8761BE"
  />
  <path
    d="M312.883 340.238C312.48 340.238 312.087 340.118 311.752 339.891C311.417 339.665 311.156 339.343 311.002 338.966C310.848 338.589 310.808 338.174 310.886 337.774C310.965 337.374 311.159 337.007 311.444 336.718L318.42 329.647C318.638 329.425 318.761 329.124 318.761 328.81C318.761 328.497 318.638 328.196 318.42 327.974L311.406 320.864C311.212 320.667 311.058 320.434 310.953 320.177C310.848 319.92 310.794 319.644 310.794 319.366C310.794 319.088 310.848 318.813 310.953 318.556C311.058 318.299 311.212 318.066 311.406 317.869V317.869C311.797 317.475 312.325 317.253 312.876 317.251C313.428 317.249 313.957 317.468 314.351 317.86L323.79 327.308C323.976 327.495 324.123 327.716 324.224 327.961C324.325 328.206 324.377 328.468 324.377 328.733C324.377 328.998 324.325 329.261 324.224 329.505C324.123 329.75 323.976 329.971 323.79 330.158L314.312 339.645C313.932 340.026 313.418 340.239 312.883 340.238Z"
    fill="#8761BE"
  />
  <path
    d="M359.261 366.548C363.823 366.548 367.522 362.843 367.522 358.274C367.522 353.704 363.823 350 359.261 350C354.699 350 351 353.704 351 358.274C351 362.843 354.699 366.548 359.261 366.548Z"
    fill="#D8BD14"
  />
  <path d="M359 360V387H287" stroke="#D8BD14" />
  <path
    d="M477.829 408.355C478.398 408.781 478.801 409.367 479.272 409.885C480.556 411.296 481.807 412.738 483.074 414.165C483.426 414.562 484.269 414.187 484.657 414.545C485.194 415.041 486.175 415.479 486.942 415.598C487.668 415.711 488.321 416.15 489.04 416.341C491.118 416.894 492.338 417.348 494.532 417.035C495.274 416.93 496.014 417.597 496.773 417.714C496.551 419.208 496.354 420.705 496.102 422.194C495.871 423.551 494.845 424.449 493.459 424.549C491.548 424.687 489.637 424.815 487.725 424.924C486.783 424.977 485.984 424.644 485.378 423.898C484.83 423.222 484.322 422.509 483.726 421.878C482.768 420.862 482.591 419.696 482.804 418.374C482.964 417.384 482.912 417.343 481.903 417.436C480.749 417.543 479.87 417.133 479.188 416.213C478.744 415.615 478.266 415.04 477.795 414.462C477.318 413.876 477.134 413.198 477.228 412.468C477.405 411.094 477.627 409.726 477.829 408.355Z"
    fill="#5ECAE7"
  />
  <path
    d="M508.723 417.162C510.609 417.086 512.494 417.014 514.379 416.932C515.912 416.865 517.443 416.757 518.977 416.722C520.121 416.696 521.347 415.966 522.494 416.101C522.21 418.232 521.723 420.893 521.34 423.008C521.146 424.075 520.215 424.878 519.092 424.968C517.413 425.103 515.73 425.189 514.05 425.322C513.273 425.382 512.61 425.143 512.036 424.651C511.092 423.841 510.16 423.019 509.236 422.187C508.477 421.505 508.193 420.648 508.352 419.639C508.482 418.814 508.6 417.988 508.723 417.162Z"
    fill="#5ECAE7"
  />
  <path
    d="M543.094 368.67C542.694 369.541 542.504 370.479 542.264 371.395C541.939 372.642 541.576 373.876 541.218 375.113C540.817 376.5 540.391 377.881 539.975 379.266C539.55 380.683 539.396 382.142 538.976 383.561C538.581 384.897 538.201 386.237 537.804 387.572C537.236 389.481 536.652 391.385 536.088 393.294C535.538 395.154 535.012 397.02 534.463 398.88C533.979 400.52 533.198 402.111 532.711 403.749C532.314 405.084 531.923 406.421 531.544 407.761C531.431 408.161 531.216 408.502 531.02 408.859C530.909 409.063 530.688 409.253 530.879 409.531C530.935 409.613 530.9 409.718 530.813 409.76C530.122 410.098 529.973 410.863 529.526 411.395C528.361 412.779 526.955 413.611 525.091 413.616C523.455 414.096 521.764 414.258 520.142 414.307C517.622 414.383 515.155 414.105 512.664 413.986C510.478 414.055 508.293 414.138 506.107 414.207C503.41 414.293 500.629 414.92 497.932 415.003C496.522 415.046 495.095 414.797 493.704 414.656C492.402 414.524 491.119 414.165 490.241 412.95C489.883 412.454 489.192 411.81 489.149 411.223C489.126 410.896 488.984 410.658 488.987 410.506C488.991 410.345 489.333 410.097 489.342 409.798C489.367 408.863 489.389 407.92 489.533 406.999C489.711 405.859 489.781 404.708 489.911 403.565C490.156 401.404 490.611 399.277 490.852 397.115C491.007 395.727 491.134 394.335 491.273 392.945C491.489 390.798 491.694 388.65 491.927 386.505C492.073 385.152 492.2 383.796 492.335 382.441C492.555 380.223 492.774 378.005 493.019 375.789C493.166 374.455 493.279 373.115 493.416 371.778C493.639 369.614 493.845 367.448 494.079 365.285C494.229 363.897 494.355 362.505 494.498 361.115C494.65 359.637 494.805 358.159 494.955 356.681C495.093 355.327 495.23 353.972 495.36 352.617C495.564 350.504 495.518 348.379 495.731 346.267C495.878 344.807 495.813 343.259 495.948 341.798C496.205 339.012 496.223 336.118 497.415 333.566C497.597 332.516 497.918 331.503 498.522 330.608C498.999 329.901 499.731 329.576 500.527 329.41C501.973 329.109 503.391 329.206 504.801 329.686C505.617 329.964 506.478 330.108 507.317 330.318C508.703 330.665 509.848 330.639 511.235 330.983C512.126 331.204 513.023 331.402 513.913 331.625C515.23 331.955 516.543 332.301 517.859 332.634C518.698 332.847 519.54 333.044 520.379 333.254C521.765 333.601 523.149 333.956 524.535 334.301C525.409 334.518 526.287 334.716 527.161 334.935C528.495 335.269 530.064 335.998 531.398 336.333C532.272 336.552 533.15 336.752 534.023 336.971C535.375 337.31 536.716 337.692 538.076 337.99C538.992 338.189 539.895 338.432 540.805 338.653C542.141 338.977 543.468 339.341 544.805 339.664C545.594 339.855 546.39 340.012 547.168 340.254C548.45 340.652 549.516 341.904 549.604 343.227C549.678 344.351 550.04 345.815 549.825 346.925C549.397 348.424 549.321 349.617 548.893 351.117C548.027 354.151 546.666 357.321 545.884 360.379C545.413 361.621 545.039 362.742 544.739 364.033C544.195 365.559 543.455 367.092 543.094 368.67Z"
    fill="#5FCAE7"
  />
  <path
    d="M472.666 384.116C472.488 385.172 472.459 386.117 472.895 387.02C473.055 387.35 473.322 387.564 473.69 387.542C474.076 387.52 474.124 387.157 474.185 386.879C474.358 386.083 474.489 385.275 474.428 384.458C474.379 383.809 474.359 383.142 474.047 382.548C473.783 382.045 473.513 382.044 473.195 382.517C472.85 383.03 472.7 383.608 472.666 384.116ZM482.296 391.782C482.285 391.852 482.236 392.062 482.224 392.274C482.169 393.222 482.237 394.154 482.699 395.011C482.919 395.418 483.248 395.789 483.729 395.727C484.174 395.67 484.284 395.209 484.433 394.818C484.757 393.963 484.733 393.075 484.687 392.197C484.642 391.335 484.575 390.453 484.085 389.693C483.729 389.143 483.44 389.149 483.022 389.669C482.558 390.246 482.4 390.93 482.296 391.782ZM491.627 334.027C491.365 335.1 491.174 337.055 491.028 338.481C490.835 340.362 490.481 342.351 490.301 344.234C490.128 346.045 489.955 347.857 489.792 349.67C489.627 351.501 489.452 353.33 489.282 355.16C489.105 357.061 488.924 358.961 488.739 360.861C488.621 362.074 488.516 363.289 488.401 364.503C488.228 366.333 488.067 368.164 487.889 369.993C487.712 371.822 487.544 373.653 487.377 375.483C487.209 377.331 487.023 379.177 486.857 381.025C486.691 382.874 486.508 384.72 486.337 386.568C486.169 388.38 485.997 390.192 485.831 392.005C485.661 393.871 485.478 395.735 485.304 397.6C485.13 399.465 485.384 401.335 485.201 403.199C485.081 404.412 485.139 405.43 485.018 406.643C484.942 407.41 484.725 408.393 484.556 409.191C484.42 409.832 484.392 410.48 484.128 411.088C483.795 411.855 482.688 412.036 482.105 411.419C481.28 410.546 480.279 410.33 479.47 409.441C478.4 408.266 477.3 407.222 476.231 406.046C475.018 404.712 474.018 402.58 472.836 401.22C472.43 400.753 472.5 400.075 472.315 399.505C471.92 398.288 471.663 397.035 471.53 395.77C471.448 394.989 471.285 394.137 471.31 393.345C471.356 391.919 471.209 390.382 471.262 388.956C471.301 387.881 471.499 386.715 471.538 385.64C471.579 384.531 471.921 383.673 471.963 382.563C472.004 381.47 472.065 380.379 472.111 379.286C472.155 378.247 472.191 377.207 472.229 376.167C472.269 375.04 472.309 373.913 472.346 372.786C472.392 371.359 472.43 369.932 472.482 368.506C472.521 367.431 472.583 366.357 472.623 365.282C472.673 363.908 472.707 362.534 472.755 361.16C472.794 360.067 472.848 358.976 472.887 357.883C472.937 356.457 472.974 355.03 473.026 353.603C473.065 352.528 473.122 351.454 473.166 350.379C473.207 349.357 473.241 348.335 473.278 347.313C473.319 346.168 473.359 345.023 473.401 343.879C473.438 342.839 473.48 341.8 473.516 340.76C473.562 339.404 473.518 336.429 473.717 335.096C473.933 333.657 474.155 333.803 474.713 332.433C474.821 332.166 475.015 332.062 475.265 331.993C478.952 330.043 479.801 330.445 483.556 329.4C484.546 329.124 488.4 327.951 489.391 327.679C490.338 327.419 491.593 328.737 491.715 329.879C491.876 331.38 491.908 332.224 491.627 334.027Z"
    fill="#5FCAE7"
  />
  <path
    d="M491.307 334.646C492.598 330.318 491.389 326.36 486.531 328.856C481.789 330.947 473.392 329.771 473.682 336.697C473.017 351.971 472.617 367.282 471.963 382.563C470.572 396.793 471.274 401.56 482.107 411.418C486.329 413.63 484.462 395.105 485.833 392.006C487.709 372.937 489.225 353.661 491.307 334.646ZM544.551 364.026C545.197 356.835 553.821 345.755 547.17 340.253C531.623 337.02 516.176 331.22 500.527 329.408C493.749 334.702 497.249 348.585 494.952 356.679C492.89 374.4 491.748 393.052 489.255 410.316C490.106 417.246 500.646 413.706 506.106 414.207C513.587 412.872 523.346 416.168 529.526 411.396C536.274 396.828 539.096 379.502 544.551 364.026V364.026ZM508.723 417.162C498.246 417.33 485.594 420.648 479.272 409.884C468.001 401.263 471.41 387.154 471.506 374.73C473.676 362.412 468.098 336.894 477.018 328.723C492.987 321.642 502.911 322.921 519.126 328.311C531.555 333.59 558.081 330.809 549.143 351.289C544.521 366.913 539.854 382.522 535.231 398.145C531.538 416.11 525.981 417.527 508.723 417.162"
    fill="#79D0E7"
  />
  <path
    d="M482.297 391.782C482.4 390.931 482.559 390.246 483.023 389.669C483.441 389.15 483.73 389.143 484.085 389.694C484.576 390.454 484.643 391.335 484.688 392.198C484.733 393.076 484.758 393.963 484.433 394.819C484.285 395.21 484.175 395.671 483.729 395.728C483.248 395.789 482.919 395.418 482.7 395.011C482.238 394.155 482.17 393.223 482.225 392.274C482.237 392.062 482.286 391.853 482.297 391.782Z"
    fill="#1A8DC5"
  />
  <path
    d="M472.666 384.116C472.7 383.608 472.851 383.03 473.195 382.517C473.513 382.044 473.783 382.045 474.047 382.548C474.359 383.142 474.379 383.809 474.428 384.458C474.489 385.275 474.358 386.083 474.185 386.879C474.124 387.157 474.077 387.52 473.69 387.543C473.322 387.564 473.055 387.35 472.896 387.02C472.459 386.118 472.488 385.172 472.666 384.116Z"
    fill="#1783BD"
  />
  <path
    fill-rule="evenodd"
    clip-rule="evenodd"
    d="M471.24 386.09C470.794 389.133 471.179 391.858 472.114 392.154C473.042 392.447 474.216 389.935 474.735 386.508C475.255 383.081 474.857 380.381 473.861 380.444C472.865 380.508 471.69 383.023 471.24 386.09ZM469.952 386.833C469.317 391.22 469.905 395.298 471.262 395.916C472.618 396.534 474.367 392.809 475.157 387.621C475.946 382.432 475.358 378.354 473.839 378.539C472.32 378.724 470.591 382.423 469.952 386.833"
    fill="#0B639E"
  />
  <path
    fill-rule="evenodd"
    clip-rule="evenodd"
    d="M472.119 392.128C471.191 391.836 470.794 389.133 471.244 386.066C471.69 383.023 472.866 380.508 473.862 380.444C474.858 380.381 475.255 383.081 474.736 386.508C474.214 389.906 473.046 392.421 472.119 392.128ZM472.058 392.537C471.067 392.21 470.643 389.322 471.118 386.075C471.594 382.829 472.853 380.117 473.923 380.035C474.993 379.954 475.417 382.839 474.858 386.523C474.304 390.179 473.049 392.864 472.058 392.537Z"
    fill="#0B639E"
  />
  <path
    fill-rule="evenodd"
    clip-rule="evenodd"
    d="M471.326 395.485C470.051 394.925 469.475 390.978 470.073 386.852C470.672 382.726 472.375 379.098 473.787 378.943C475.199 378.789 475.772 382.76 475.04 387.575C474.308 392.389 472.6 396.045 471.326 395.485ZM471.262 395.916C469.905 395.298 469.313 391.243 469.952 386.833C470.587 382.447 472.328 378.723 473.847 378.538C475.366 378.353 475.95 382.404 475.157 387.621C474.367 392.809 472.618 396.534 471.262 395.916"
    fill="#0B639E"
  />
</svg>
