<svg width="71" height="67" viewBox="0 0 71 67" fill="none" xmlns="http://www.w3.org/2000/svg">
    <circle cx="27.7358" cy="38.3023" r="27.7358" fill="white" fill-opacity="0.07" />
    <circle cx="61.4169" cy="8.58491" r="8.58491" fill="white" fill-opacity="0.07" />
    <g clip-path="url(#clip0_2945_12591)">
        <path
            d="M28.8651 30.8427L24.5205 35.1873C24.1816 35.5261 24.1816 36.0739 24.5205 36.4127C24.6895 36.5817 24.9114 36.6667 25.1332 36.6667C25.3551 36.6667 25.577 36.5817 25.746 36.4127L30.0906 32.0681C30.4294 31.7293 30.4294 31.1815 30.0906 30.8427C29.7517 30.5038 29.2031 30.5047 28.8651 30.8427Z"
            fill="#9777A8" fill-opacity="0.5" />
        <path
            d="M37.0013 30.8427C36.6625 30.5038 36.1147 30.5038 35.7759 30.8427C35.437 31.1815 35.437 31.7293 35.7759 32.0681L40.9975 37.2898C41.1665 37.4588 41.3884 37.5438 41.6103 37.5438C41.8321 37.5438 42.054 37.4588 42.223 37.2898C42.5619 36.951 42.5619 36.4032 42.223 36.0643L37.0013 30.8427Z"
            fill="#9777A8" fill-opacity="0.5" />
        <path
            d="M56.9461 28.2539C56.6072 27.9151 56.0595 27.9151 55.7206 28.2539L47.054 36.9206C46.7151 37.2595 46.7151 37.8072 47.054 38.1461C47.223 38.3151 47.4448 38.4 47.6667 38.4C47.8886 38.4 48.1104 38.3151 48.2794 38.1461L56.9461 29.4794C57.285 29.1405 57.285 28.5928 56.9461 28.2539Z"
            fill="#9777A8" fill-opacity="0.5" />
        <path
            d="M15.6001 54C15.1208 54 14.7334 53.6126 14.7334 53.1333V2.86667C14.7334 2.3874 15.1208 2 15.6001 2C16.0793 2 16.4667 2.3874 16.4667 2.86667V53.1333C16.4667 53.6126 16.0793 54 15.6001 54Z"
            fill="#7D7D7D" fill-opacity="0.4" />
        <path
            d="M64.1333 52.2667H13.8667C13.3874 52.2667 13 51.8793 13 51.4C13 50.9207 13.3874 50.5333 13.8667 50.5333H64.1333C64.6126 50.5333 65 50.9207 65 51.4C65 51.8793 64.6126 52.2667 64.1333 52.2667Z"
            fill="#7D7D7D" fill-opacity="0.4" />
        <path
            d="M20.8 27.1333H19.0666C18.5874 27.1333 18.2 26.7459 18.2 26.2667C18.2 25.7874 18.5874 25.4 19.0666 25.4H20.8C21.2792 25.4 21.6666 25.7874 21.6666 26.2667C21.6666 26.7459 21.2792 27.1333 20.8 27.1333Z"
            fill="#BDC3C7" fill-opacity="0.3" />
        <path
            d="M20.8 23.6667H19.0666C18.5874 23.6667 18.2 23.2793 18.2 22.8C18.2 22.3207 18.5874 21.9333 19.0666 21.9333H20.8C21.2792 21.9333 21.6666 22.3207 21.6666 22.8C21.6666 23.2793 21.2792 23.6667 20.8 23.6667Z"
            fill="#BDC3C7" fill-opacity="0.3" />
        <path
            d="M20.8 20.2H19.0666C18.5874 20.2 18.2 19.8126 18.2 19.3333C18.2 18.8541 18.5874 18.4667 19.0666 18.4667H20.8C21.2792 18.4667 21.6666 18.8541 21.6666 19.3333C21.6666 19.8126 21.2792 20.2 20.8 20.2Z"
            fill="#BDC3C7" fill-opacity="0.3" />
        <path
            d="M20.8 16.7333H19.0666C18.5874 16.7333 18.2 16.3459 18.2 15.8667C18.2 15.3874 18.5874 15 19.0666 15H20.8C21.2792 15 21.6666 15.3874 21.6666 15.8667C21.6666 16.3459 21.2792 16.7333 20.8 16.7333Z"
            fill="#BDC3C7" fill-opacity="0.3" />
        <path
            d="M20.8 13.2667H19.0666C18.5874 13.2667 18.2 12.8793 18.2 12.4C18.2 11.9207 18.5874 11.5333 19.0666 11.5333H20.8C21.2792 11.5333 21.6666 11.9207 21.6666 12.4C21.6666 12.8793 21.2792 13.2667 20.8 13.2667Z"
            fill="#BDC3C7" fill-opacity="0.3" />
        <path
            d="M20.8 9.80001H19.0666C18.5874 9.80001 18.2 9.41261 18.2 8.93335C18.2 8.45408 18.5874 8.06668 19.0666 8.06668H20.8C21.2792 8.06668 21.6666 8.45408 21.6666 8.93335C21.6666 9.41261 21.2792 9.80001 20.8 9.80001Z"
            fill="#BDC3C7" fill-opacity="0.3" />
        <path
            d="M20.8 6.33334H19.0666C18.5874 6.33334 18.2 5.94594 18.2 5.46667C18.2 4.98741 18.5874 4.60001 19.0666 4.60001H20.8C21.2792 4.60001 21.6666 4.98741 21.6666 5.46667C21.6666 5.94594 21.2792 6.33334 20.8 6.33334Z"
            fill="#BDC3C7" fill-opacity="0.3" />
        <path
            d="M26.3771 39.2563C26.3771 41.3734 24.6609 43.0896 22.5438 43.0896C20.4267 43.0896 18.7104 41.3734 18.7104 39.2563C18.7104 37.1392 20.4267 35.4229 22.5438 35.4229C24.6609 35.4229 26.3771 37.1392 26.3771 39.2563Z"
            fill="#F29C1F" fill-opacity="0.4" stroke="#7D7D7D" />
        <path
            d="M36.7668 28.8667C36.7668 30.9837 35.0505 32.7 32.9334 32.7C30.8163 32.7 29.1001 30.9837 29.1001 28.8667C29.1001 26.7496 30.8163 25.0333 32.9334 25.0333C35.0505 25.0333 36.7668 26.7496 36.7668 28.8667Z"
            fill="#71C285" fill-opacity="0.4" stroke="#7D7D7D" />
        <path
            d="M63.6332 26.2667C63.6332 28.3837 61.917 30.1 59.7999 30.1C57.6828 30.1 55.9666 28.3837 55.9666 26.2667C55.9666 24.1496 57.6828 22.4333 59.7999 22.4333C61.917 22.4333 63.6332 24.1496 63.6332 26.2667Z"
            fill="#71C285" fill-opacity="0.4" stroke="#7D7D7D" />
        <path
            d="M48.0334 40.1333C48.0334 42.2504 46.3171 43.9667 44.2 43.9667C42.0829 43.9667 40.3667 42.2504 40.3667 40.1333C40.3667 38.0162 42.0829 36.3 44.2 36.3C46.3171 36.3 48.0334 38.0162 48.0334 40.1333Z"
            fill="#F29C1F" fill-opacity="0.4" stroke="#7D7D7D" />
    </g>
    <defs>
        <clipPath id="clip0_2945_12591">
            <rect width="52" height="52" fill="white" transform="translate(13 2)" />
        </clipPath>
    </defs>
</svg>