<svg width="70" height="67" viewBox="0 0 70 67" fill="none" xmlns="http://www.w3.org/2000/svg">
  <circle cx="27.7358" cy="38.3023" r="27.7358" fill="white" fill-opacity="0.07" />
  <circle cx="61.4169" cy="8.58491" r="8.58491" fill="white" fill-opacity="0.07" />
  <path
    d="M60.542 32.3671L60.5422 32.3671C61.3942 32.4053 62.1336 32.9684 62.3973 33.7796L62.3973 33.7796C62.661 34.5905 62.3937 35.4809 61.7272 36.0125L61.7271 36.0125L51.7649 43.962L51.5071 44.1677L51.5947 44.4856L54.981 56.7735C54.981 56.7735 54.981 56.7736 54.981 56.7736C55.2076 57.5963 54.9013 58.4728 54.2114 58.9735C53.5205 59.4748 52.5922 59.4957 51.8796 59.026L41.2409 52.0079L40.9656 51.8263L40.6903 52.0079L30.0515 59.0259C29.3389 59.4957 28.4107 59.4748 27.7199 58.9736C27.0296 58.4719 26.7235 57.596 26.9497 56.7733L30.3366 44.4857L30.4242 44.1677L30.1664 43.962L20.2041 36.0125L20.204 36.0124C19.5376 35.481 19.2703 34.5906 19.5339 33.7796C19.7977 32.9684 20.537 32.4053 21.3891 32.3671L21.3893 32.3671L34.121 31.7917L34.4505 31.7768L34.5665 31.468L39.0494 19.5361L39.0494 19.5361C39.3491 18.7382 40.1129 18.209 40.9656 18.209C41.8183 18.209 42.5821 18.7382 42.8818 19.5361L42.8818 19.5361L47.3648 31.468L47.4808 31.7768L47.8103 31.7917L60.542 32.3671Z"
    fill="#F8E222"
    fill-opacity="0.2"
    stroke="#7D7D7D"
  />
  <path
    d="M23.9688 15.7055L24.0851 15.9413L24.3453 15.9791L29.5507 16.7356C29.5509 16.7356 29.5511 16.7357 29.5513 16.7357C29.6415 16.7494 29.6959 16.8303 29.6837 16.9092L29.6837 16.9092L29.6829 16.9147C29.6783 16.9472 29.6629 16.9783 29.6376 17.0033C29.6374 17.0034 29.6373 17.0035 29.6372 17.0036L25.8708 20.6757L25.6826 20.8592L25.7271 21.1183L26.6171 26.3047L26.6172 26.3051C26.6316 26.3886 26.5756 26.4693 26.4897 26.4841L26.489 26.4843C26.4547 26.4902 26.4201 26.4842 26.3933 26.4699L26.391 26.4687L21.7337 24.02L21.501 23.8977L21.2683 24.02L16.611 26.4687L16.6102 26.4691C16.5846 26.4826 16.5557 26.4887 16.5267 26.4867C16.4978 26.4846 16.47 26.4745 16.4466 26.4574C16.4231 26.4404 16.4049 26.4171 16.3939 26.3902C16.383 26.3633 16.3799 26.3339 16.3848 26.3054L16.3849 26.3047L17.275 21.1183L17.3194 20.8592L17.1312 20.6757L13.3639 17.0027L13.3639 17.0027C13.334 16.9736 13.317 16.9339 13.3164 16.8922C13.3159 16.8508 13.3317 16.8109 13.3603 16.7811C13.3853 16.7559 13.4162 16.7406 13.4486 16.736L13.4498 16.7358L18.6567 15.9791L18.9169 15.9413L19.0332 15.7055L21.3597 10.989C21.3598 10.9888 21.3599 10.9885 21.3601 10.9882C21.4 10.9094 21.4954 10.8791 21.5709 10.9164L21.5715 10.9167C21.6017 10.9315 21.6261 10.956 21.641 10.9862L21.6412 10.9866L23.9688 15.7055Z"
    fill="#D9D9D9"
    fill-opacity="0.16"
    stroke="#7D7D7D"
  />
</svg>