<svg width="70" height="67" viewBox="0 0 70 67" fill="none" xmlns="http://www.w3.org/2000/svg">
    <circle cx="27.7358" cy="38.3019" r="27.7358" fill="white" fill-opacity="0.07" />
    <circle cx="61.415" cy="8.58491" r="8.58491" fill="white" fill-opacity="0.07" />
    <path fill-rule="evenodd" clip-rule="evenodd"
        d="M39.2993 61.0312C43.4396 61.0312 47.4869 59.78 50.9294 57.4359C54.3719 55.0919 57.055 51.7601 58.6394 47.8621C60.2238 43.964 60.6384 39.6747 59.8306 35.5366C59.0229 31.3984 57.0292 27.5973 54.1016 24.6138C51.174 21.6304 47.4439 19.5986 43.3832 18.7755C39.3225 17.9524 35.1135 18.3748 31.2884 19.9895C27.4633 21.6041 24.1939 24.3384 21.8937 27.8465C19.5935 31.3547 18.3657 35.4792 18.3657 39.6984C18.3657 45.3562 20.5712 50.7823 24.497 54.7829C28.4228 58.7836 33.7474 61.0312 39.2993 61.0312ZM36.9715 51.548C39.7317 51.548 42.4298 50.7139 44.7249 49.1512C47.0199 47.5885 48.8086 45.3673 49.8649 42.7686C50.9212 40.1699 51.1975 37.3104 50.659 34.5516C50.1205 31.7929 48.7914 29.2588 46.8397 27.2698C44.8879 25.2808 42.4012 23.9263 39.6941 23.3776C36.987 22.8288 34.1809 23.1105 31.6309 24.1869C29.0808 25.2633 26.9012 27.0862 25.3677 29.4249C23.8342 31.7637 23.0158 34.5134 23.0158 37.3262C23.0187 41.0961 24.4904 44.7105 27.1073 47.3752C29.7241 50.0398 33.2721 51.5366 36.9715 51.5366V51.548Z"
        fill="#84AAE2" fill-opacity="0.5" />
    <path
        d="M17.6312 11.707C17.2442 11.3196 16.7842 11.0127 16.2779 10.8041C15.7715 10.5955 15.2288 10.4894 14.6812 10.4918C14.1336 10.4897 13.591 10.596 13.0847 10.8046C12.5784 11.0132 12.1184 11.3199 11.7312 11.707C11.3439 12.0942 11.0371 12.5542 10.8285 13.0605C10.6199 13.5668 10.5137 14.1095 10.5159 14.6571C10.5132 15.2047 10.6192 15.7475 10.8278 16.2539C11.0364 16.7603 11.3435 17.2203 11.7312 17.6071L14.7876 20.6635L20.6876 14.7634L17.6312 11.707Z"
        fill="#595959" fill-opacity="0.5" />
    <path
        d="M38.2878 36.1549L35.2314 33.0955C35.1345 32.9983 35.0662 32.8763 35.0341 32.7429C35.0019 32.6094 35.0071 32.4697 35.0492 32.339C35.285 31.609 35.3145 30.8279 35.1344 30.0821C34.9542 29.3364 34.5715 28.6549 34.0284 28.113L31.6768 25.7614H19.8706L28.1222 34.013C28.6686 34.5512 29.3512 34.9304 30.0969 35.1097C30.8426 35.289 31.623 35.2617 32.3543 35.0308C32.4288 35.0062 32.5068 34.9939 32.5852 34.9944C32.6834 34.9943 32.7806 35.0136 32.8713 35.0511C32.962 35.0887 33.0444 35.1437 33.1139 35.2131L36.1733 38.2725C36.4572 38.5509 36.839 38.7068 37.2366 38.7068C37.6342 38.7068 38.016 38.5509 38.3 38.2725C38.4403 38.1333 38.5517 37.9676 38.6277 37.7851C38.7038 37.6026 38.7429 37.4069 38.7429 37.2092C38.7429 37.0115 38.7038 36.8157 38.6277 36.6332C38.5517 36.4507 38.4403 36.285 38.3 36.1458"
        fill="#84AAE2" />
    <path
        d="M36.1731 38.2695L33.1168 35.2101C33.0474 35.1407 32.9649 35.0856 32.8742 35.0481C32.7835 35.0106 32.6863 34.9913 32.5881 34.9913C32.5097 34.9909 32.4317 35.0032 32.3573 35.0278C31.6259 35.2587 30.8455 35.286 30.0998 35.1067C29.3542 34.9273 28.6715 34.5482 28.1251 34.01L19.8705 25.7584H31.6737L34.0252 28.1099C34.5715 28.6505 34.9574 29.3318 35.1403 30.0782C35.3232 30.8247 35.2958 31.6072 35.0612 32.339C35.0192 32.4697 35.014 32.6094 35.0461 32.7429C35.0783 32.8763 35.1466 32.9983 35.2435 33.0955L38.3029 36.1549C38.4433 36.2942 38.5546 36.4598 38.6307 36.6423C38.7067 36.8248 38.7458 37.0206 38.7458 37.2183C38.7458 37.416 38.7067 37.6117 38.6307 37.7942C38.5546 37.9767 38.4433 38.1424 38.3029 38.2816C38.0189 38.56 37.6372 38.7159 37.2395 38.7159C36.8419 38.7159 36.4601 38.56 36.1762 38.2816L36.1731 38.2695ZM15.845 21.7329L21.745 15.8298L30.1819 24.2667H18.3818L15.845 21.7329ZM11.7313 17.6192C11.3436 17.2324 11.0365 16.7724 10.8279 16.266C10.6193 15.7596 10.5133 15.2169 10.5161 14.6692C10.5138 14.1216 10.62 13.579 10.8286 13.0726C11.0372 12.5663 11.344 12.1063 11.7313 11.7191C12.1185 11.332 12.5786 11.0253 13.0849 10.8167C13.5912 10.6081 14.1338 10.5018 14.6813 10.5039C15.229 10.5015 15.7716 10.6077 16.278 10.8162C16.7843 11.0248 17.2443 11.3317 17.6314 11.7191L20.6877 14.7755L14.7877 20.6695L11.7313 17.6192ZM39.345 39.3328C39.9045 38.7713 40.2187 38.011 40.2187 37.2183C40.2187 36.4256 39.9045 35.6652 39.345 35.1037L36.5924 32.3512C36.8129 31.4122 36.7891 30.4325 36.5232 29.5054C36.2572 28.5783 35.7581 27.7349 35.0733 27.0557L22.7901 14.7725L23.8383 13.7213C23.9077 13.6519 23.9629 13.5695 24.0004 13.4788C24.038 13.3881 24.0574 13.2908 24.0574 13.1926C24.0574 13.0945 24.038 12.9973 24.0004 12.9065C23.9629 12.8158 23.9077 12.7334 23.8383 12.664C23.6983 12.5247 23.5087 12.4465 23.3112 12.4465C23.1136 12.4465 22.9241 12.5247 22.7841 12.664L21.7329 13.7152L18.6765 10.6588C18.1513 10.1312 17.5267 9.71301 16.8389 9.42828C16.1511 9.14355 15.4136 8.99799 14.6692 9.00002C13.9248 8.99799 13.1873 9.14355 12.4995 9.42828C11.8117 9.71301 11.1871 10.1312 10.6619 10.6588C10.1336 11.1837 9.71472 11.8081 9.42945 12.496C9.14419 13.1839 8.99823 13.9215 9.00002 14.6661C8.99789 15.4109 9.14369 16.1486 9.42898 16.8365C9.71426 17.5244 10.1333 18.1488 10.6619 18.6735L13.7304 21.7329L12.8402 22.623C12.7007 22.7636 12.6224 22.9536 12.6224 23.1517C12.6224 23.3497 12.7007 23.5398 12.8402 23.6803C12.9097 23.7497 12.9921 23.8047 13.0828 23.8423C13.1735 23.8798 13.2707 23.8991 13.3689 23.8991C13.467 23.8991 13.5642 23.8798 13.6549 23.8423C13.7457 23.8047 13.8281 23.7497 13.8975 23.6803L14.7877 22.7901L27.0709 35.0733C27.5951 35.6006 28.2186 36.0187 28.9054 36.3034C29.5922 36.5882 30.3286 36.7339 31.0721 36.7322C31.5078 36.7325 31.9421 36.6826 32.3664 36.5833L35.1189 39.3359C35.3975 39.6157 35.729 39.8372 36.0942 39.9874C36.4594 40.1377 36.8508 40.2136 37.2456 40.2108C37.6405 40.2138 38.032 40.1379 38.3971 39.9877C38.7623 39.8374 39.0938 39.6158 39.3723 39.3359"
        fill="#7D7D7D" />
</svg>