<svg width="71" height="67" viewBox="0 0 71 67" fill="none" xmlns="http://www.w3.org/2000/svg">
<circle cx="27.7358" cy="38.3023" r="27.7358" fill="white" fill-opacity="0.07"/>
<circle cx="61.4169" cy="8.58491" r="8.58491" fill="white" fill-opacity="0.07"/>
<mask id="path-3-outside-1_431_6602" maskUnits="userSpaceOnUse" x="13.0469" y="3.33319" width="51" height="59" fill="black">
<rect fill="white" x="13.0469" y="3.33319" width="51" height="59"/>
<path d="M25.5202 17.763L25.5859 17.8247L24.982 18.4285C24.5437 18.864 24.1137 19.3077 23.6922 19.7595C22.8829 20.6344 22.164 21.6162 22.0942 21.8956H25.8324C25.9176 21.8996 26.0025 21.8835 26.0803 21.8485C26.1581 21.8135 26.2266 21.7607 26.2801 21.6943C29.2347 18.4455 33.3413 16.4792 37.7247 16.2144C40.2617 16.0526 42.8026 16.4616 45.1607 17.4114C47.5188 18.3612 49.6339 19.8275 51.3505 21.7025C51.3922 21.761 51.4469 21.8089 51.5104 21.8424C51.5739 21.8759 51.6443 21.8941 51.7161 21.8956L54.1603 21.8915H55.3721C55.4373 21.8841 55.5019 21.8718 55.5652 21.8545C54.6843 20.5581 53.6575 19.3673 52.5048 18.3053L52.5582 18.2519C53.7425 17.3153 54.745 16.1694 55.5159 14.8711C56.0705 13.9961 56.4895 13.039 56.7483 12.0367C56.8476 11.6479 56.8782 11.2447 56.8386 10.8454C56.7852 10.3031 56.4854 9.84716 55.7624 9.93342C55.6183 9.9494 55.4764 9.98108 55.3393 10.0279C54.843 10.2077 54.3836 10.4763 53.9837 10.8207C52.2632 12.244 50.9554 14.1022 50.1962 16.202L50.1387 16.3253L50.114 16.3705C49.8922 16.2472 49.6704 16.1158 49.4568 15.9884C48.9556 15.7009 48.4709 15.4133 47.9615 15.1586C47.2221 14.7889 46.4663 14.4603 45.6899 14.1728C44.3813 13.7045 43.0303 13.3647 41.6559 13.1581C41.4053 13.117 41.1548 13.076 40.9042 13.0267C41.4398 11.0387 41.4933 8.95159 41.0603 6.93878C40.9428 6.35076 40.7393 5.78326 40.4564 5.25455C40.3055 4.94017 40.0746 4.671 39.7868 4.47406C39.6504 4.3809 39.4886 4.33175 39.3234 4.33322C39.1582 4.33469 38.9974 4.3867 38.8626 4.48227C38.7263 4.57465 38.6033 4.68522 38.497 4.8109C38.2171 5.15757 38.004 5.55314 37.8685 5.97754C37.5891 6.78679 37.4166 7.62891 37.355 8.48334C37.2149 9.96128 37.3303 11.4523 37.6959 12.8911L37.7124 12.9856C34.4206 13.1674 31.2228 14.1487 28.3957 15.8447L28.3587 15.8159C28.3476 15.808 28.3378 15.7983 28.33 15.7872C27.7286 14.3283 26.8654 12.9918 25.7831 11.8436C25.2114 11.1811 24.5237 10.6285 23.7538 10.2128C23.5449 10.1035 23.3245 10.0181 23.0965 9.95807C22.3694 9.78143 21.8724 10.1594 21.8231 10.9029L21.819 10.9974V11.0631C21.7902 11.6382 21.934 12.1804 22.123 12.7145C22.8049 14.6205 23.9263 16.2308 25.3764 17.6275L25.5202 17.763ZM52.5048 47.0317C53.5277 46.0869 54.452 45.0393 55.2571 43.9097L55.2407 43.8398H54.033C53.2114 43.8398 52.3898 43.844 51.5682 43.8316C51.4395 43.8259 51.3111 43.8483 51.1919 43.8973C51.0728 43.9462 50.9657 44.0206 50.8781 44.1151C46.9756 47.9272 42.3091 49.5703 36.8908 49.0445C34.8954 48.8389 32.956 48.2621 31.1726 47.3439C29.4874 46.4968 27.9559 45.3735 26.6416 44.0206C26.589 43.9595 26.5232 43.9112 26.4492 43.8792C26.3752 43.8471 26.295 43.8323 26.2144 43.8357L23.684 43.8398H22.5872C22.4991 43.8393 22.4112 43.8462 22.3242 43.8604C23.2691 45.1872 24.3659 46.3949 25.5982 47.463C25.587 47.4889 25.5732 47.5137 25.5571 47.5369L25.4545 47.6314L25.3969 47.6889C24.092 48.9102 23.0541 50.3886 22.3489 52.031C22.1099 52.5538 21.9427 53.1065 21.8518 53.6741C21.7699 54.0767 21.7983 54.494 21.934 54.8818C21.9839 55.0131 22.0669 55.1294 22.1748 55.2193C22.2827 55.3093 22.412 55.3699 22.5502 55.3953C22.8049 55.4364 23.0637 55.4117 23.3019 55.3131C23.8082 55.1343 24.2774 54.8642 24.6863 54.5162C26.2308 53.2305 27.4509 51.5996 28.2396 49.7511L28.3218 49.5703L28.3669 49.4717C31.1908 51.1741 34.3875 52.1611 37.6795 52.3473L37.6918 52.3883C37.7 52.4089 37.7041 52.4212 37.7 52.4294C37.4868 53.2099 37.3614 54.0118 37.3262 54.8202C37.2605 55.839 37.3139 56.8618 37.4823 57.8641C37.6138 58.6036 37.7945 59.3265 38.1478 59.9879C38.271 60.2221 38.423 60.4398 38.5997 60.637C39.0433 61.1217 39.5897 61.1176 40.0497 60.6452C40.1547 60.5434 40.2446 60.4272 40.3168 60.3001C40.4975 59.9756 40.6577 59.6429 40.7974 59.2978C41.0849 58.4639 41.2575 57.593 41.3068 56.7098C41.4358 55.2488 41.3079 53.7765 40.9288 52.3596L40.9124 52.2692C42.0133 52.146 43.1019 51.9406 44.1699 51.653C45.2175 51.3573 46.2444 50.9834 47.2385 50.5316C48.2354 50.0663 49.1965 49.5281 50.114 48.9213L50.151 49.0117L50.1962 49.1349C50.9521 51.2381 52.2625 53.0949 53.9878 54.508C54.3164 54.7709 54.6656 54.9927 55.0435 55.1776C55.29 55.2967 55.5488 55.3748 55.824 55.4076C56.0234 55.4425 56.2287 55.4033 56.4012 55.2974C56.5737 55.1915 56.7015 55.0261 56.7606 54.8325C56.806 54.6942 56.8336 54.5506 56.8428 54.4053C56.8775 53.842 56.7921 53.2777 56.5922 52.7498C55.8359 50.5823 54.4953 48.666 52.7184 47.2124L52.5048 47.0317ZM50.2208 26.6361L50.5166 26.6402C50.7343 26.6443 50.9479 26.6525 51.1574 26.6319C51.5025 26.5991 51.749 26.7223 51.9996 26.9565C53.0923 27.9629 54.1932 28.9611 55.2941 29.9552L56.3786 30.9411C56.4237 30.9822 56.4771 31.0233 56.5306 31.0767L56.6209 31.1547L56.7031 31.0808L56.8674 30.937L61.3861 26.8209C61.4481 26.757 61.523 26.707 61.6059 26.6744C61.6888 26.6418 61.7777 26.6273 61.8667 26.6319C62.2444 26.6465 62.6226 26.6479 63.0005 26.6361V38.7543C61.9416 38.8174 60.8801 38.8201 59.821 38.7625V32.6253L59.7593 32.5966L56.625 35.4557L53.4661 32.6089L53.4045 32.6294V38.7872H50.2496C50.1921 38.5818 50.1674 27.3262 50.225 26.6361H50.2208ZM24.2467 26.6484H21.1124V30.9452C19.8121 31.0042 18.5097 30.9987 17.2099 30.9288V26.6566H14.0469V38.7625C14.3098 38.8241 16.9881 38.82 17.2264 38.7461V34.1781H21.1124V37.2303C21.1124 37.7479 21.1083 38.2696 21.1206 38.7913H24.2591C24.3248 38.4955 24.3125 26.8497 24.2467 26.6484ZM28.0054 38.7831V26.6895C28.1903 26.632 35.0833 26.6073 35.5352 26.6689V29.2446L35.4736 29.2528H35.4407C35.3697 29.2601 35.2984 29.2642 35.2271 29.2651H31.2014V31.2738H35.0381V33.944H31.2342C31.1654 34.6952 31.1558 35.4506 31.2055 36.2033L31.3 36.2074C31.3698 36.2156 31.4396 36.2197 31.5136 36.2197H35.5352V38.7872L28.0054 38.7831ZM39.1419 26.6484C39.0844 26.8743 39.0721 38.4626 39.1296 38.7872H46.6552V35.6159H42.609L42.3912 35.6036L42.268 35.5953V26.6525L39.1419 26.6484Z"/>
</mask>
<path d="M25.5202 17.763L25.5859 17.8247L24.982 18.4285C24.5437 18.864 24.1137 19.3077 23.6922 19.7595C22.8829 20.6344 22.164 21.6162 22.0942 21.8956H25.8324C25.9176 21.8996 26.0025 21.8835 26.0803 21.8485C26.1581 21.8135 26.2266 21.7607 26.2801 21.6943C29.2347 18.4455 33.3413 16.4792 37.7247 16.2144C40.2617 16.0526 42.8026 16.4616 45.1607 17.4114C47.5188 18.3612 49.6339 19.8275 51.3505 21.7025C51.3922 21.761 51.4469 21.8089 51.5104 21.8424C51.5739 21.8759 51.6443 21.8941 51.7161 21.8956L54.1603 21.8915H55.3721C55.4373 21.8841 55.5019 21.8718 55.5652 21.8545C54.6843 20.5581 53.6575 19.3673 52.5048 18.3053L52.5582 18.2519C53.7425 17.3153 54.745 16.1694 55.5159 14.8711C56.0705 13.9961 56.4895 13.039 56.7483 12.0367C56.8476 11.6479 56.8782 11.2447 56.8386 10.8454C56.7852 10.3031 56.4854 9.84716 55.7624 9.93342C55.6183 9.9494 55.4764 9.98108 55.3393 10.0279C54.843 10.2077 54.3836 10.4763 53.9837 10.8207C52.2632 12.244 50.9554 14.1022 50.1962 16.202L50.1387 16.3253L50.114 16.3705C49.8922 16.2472 49.6704 16.1158 49.4568 15.9884C48.9556 15.7009 48.4709 15.4133 47.9615 15.1586C47.2221 14.7889 46.4663 14.4603 45.6899 14.1728C44.3813 13.7045 43.0303 13.3647 41.6559 13.1581C41.4053 13.117 41.1548 13.076 40.9042 13.0267C41.4398 11.0387 41.4933 8.95159 41.0603 6.93878C40.9428 6.35076 40.7393 5.78326 40.4564 5.25455C40.3055 4.94017 40.0746 4.671 39.7868 4.47406C39.6504 4.3809 39.4886 4.33175 39.3234 4.33322C39.1582 4.33469 38.9974 4.3867 38.8626 4.48227C38.7263 4.57465 38.6033 4.68522 38.497 4.8109C38.2171 5.15757 38.004 5.55314 37.8685 5.97754C37.5891 6.78679 37.4166 7.62891 37.355 8.48334C37.2149 9.96128 37.3303 11.4523 37.6959 12.8911L37.7124 12.9856C34.4206 13.1674 31.2228 14.1487 28.3957 15.8447L28.3587 15.8159C28.3476 15.808 28.3378 15.7983 28.33 15.7872C27.7286 14.3283 26.8654 12.9918 25.7831 11.8436C25.2114 11.1811 24.5237 10.6285 23.7538 10.2128C23.5449 10.1035 23.3245 10.0181 23.0965 9.95807C22.3694 9.78143 21.8724 10.1594 21.8231 10.9029L21.819 10.9974V11.0631C21.7902 11.6382 21.934 12.1804 22.123 12.7145C22.8049 14.6205 23.9263 16.2308 25.3764 17.6275L25.5202 17.763ZM52.5048 47.0317C53.5277 46.0869 54.452 45.0393 55.2571 43.9097L55.2407 43.8398H54.033C53.2114 43.8398 52.3898 43.844 51.5682 43.8316C51.4395 43.8259 51.3111 43.8483 51.1919 43.8973C51.0728 43.9462 50.9657 44.0206 50.8781 44.1151C46.9756 47.9272 42.3091 49.5703 36.8908 49.0445C34.8954 48.8389 32.956 48.2621 31.1726 47.3439C29.4874 46.4968 27.9559 45.3735 26.6416 44.0206C26.589 43.9595 26.5232 43.9112 26.4492 43.8792C26.3752 43.8471 26.295 43.8323 26.2144 43.8357L23.684 43.8398H22.5872C22.4991 43.8393 22.4112 43.8462 22.3242 43.8604C23.2691 45.1872 24.3659 46.3949 25.5982 47.463C25.587 47.4889 25.5732 47.5137 25.5571 47.5369L25.4545 47.6314L25.3969 47.6889C24.092 48.9102 23.0541 50.3886 22.3489 52.031C22.1099 52.5538 21.9427 53.1065 21.8518 53.6741C21.7699 54.0767 21.7983 54.494 21.934 54.8818C21.9839 55.0131 22.0669 55.1294 22.1748 55.2193C22.2827 55.3093 22.412 55.3699 22.5502 55.3953C22.8049 55.4364 23.0637 55.4117 23.3019 55.3131C23.8082 55.1343 24.2774 54.8642 24.6863 54.5162C26.2308 53.2305 27.4509 51.5996 28.2396 49.7511L28.3218 49.5703L28.3669 49.4717C31.1908 51.1741 34.3875 52.1611 37.6795 52.3473L37.6918 52.3883C37.7 52.4089 37.7041 52.4212 37.7 52.4294C37.4868 53.2099 37.3614 54.0118 37.3262 54.8202C37.2605 55.839 37.3139 56.8618 37.4823 57.8641C37.6138 58.6036 37.7945 59.3265 38.1478 59.9879C38.271 60.2221 38.423 60.4398 38.5997 60.637C39.0433 61.1217 39.5897 61.1176 40.0497 60.6452C40.1547 60.5434 40.2446 60.4272 40.3168 60.3001C40.4975 59.9756 40.6577 59.6429 40.7974 59.2978C41.0849 58.4639 41.2575 57.593 41.3068 56.7098C41.4358 55.2488 41.3079 53.7765 40.9288 52.3596L40.9124 52.2692C42.0133 52.146 43.1019 51.9406 44.1699 51.653C45.2175 51.3573 46.2444 50.9834 47.2385 50.5316C48.2354 50.0663 49.1965 49.5281 50.114 48.9213L50.151 49.0117L50.1962 49.1349C50.9521 51.2381 52.2625 53.0949 53.9878 54.508C54.3164 54.7709 54.6656 54.9927 55.0435 55.1776C55.29 55.2967 55.5488 55.3748 55.824 55.4076C56.0234 55.4425 56.2287 55.4033 56.4012 55.2974C56.5737 55.1915 56.7015 55.0261 56.7606 54.8325C56.806 54.6942 56.8336 54.5506 56.8428 54.4053C56.8775 53.842 56.7921 53.2777 56.5922 52.7498C55.8359 50.5823 54.4953 48.666 52.7184 47.2124L52.5048 47.0317ZM50.2208 26.6361L50.5166 26.6402C50.7343 26.6443 50.9479 26.6525 51.1574 26.6319C51.5025 26.5991 51.749 26.7223 51.9996 26.9565C53.0923 27.9629 54.1932 28.9611 55.2941 29.9552L56.3786 30.9411C56.4237 30.9822 56.4771 31.0233 56.5306 31.0767L56.6209 31.1547L56.7031 31.0808L56.8674 30.937L61.3861 26.8209C61.4481 26.757 61.523 26.707 61.6059 26.6744C61.6888 26.6418 61.7777 26.6273 61.8667 26.6319C62.2444 26.6465 62.6226 26.6479 63.0005 26.6361V38.7543C61.9416 38.8174 60.8801 38.8201 59.821 38.7625V32.6253L59.7593 32.5966L56.625 35.4557L53.4661 32.6089L53.4045 32.6294V38.7872H50.2496C50.1921 38.5818 50.1674 27.3262 50.225 26.6361H50.2208ZM24.2467 26.6484H21.1124V30.9452C19.8121 31.0042 18.5097 30.9987 17.2099 30.9288V26.6566H14.0469V38.7625C14.3098 38.8241 16.9881 38.82 17.2264 38.7461V34.1781H21.1124V37.2303C21.1124 37.7479 21.1083 38.2696 21.1206 38.7913H24.2591C24.3248 38.4955 24.3125 26.8497 24.2467 26.6484ZM28.0054 38.7831V26.6895C28.1903 26.632 35.0833 26.6073 35.5352 26.6689V29.2446L35.4736 29.2528H35.4407C35.3697 29.2601 35.2984 29.2642 35.2271 29.2651H31.2014V31.2738H35.0381V33.944H31.2342C31.1654 34.6952 31.1558 35.4506 31.2055 36.2033L31.3 36.2074C31.3698 36.2156 31.4396 36.2197 31.5136 36.2197H35.5352V38.7872L28.0054 38.7831ZM39.1419 26.6484C39.0844 26.8743 39.0721 38.4626 39.1296 38.7872H46.6552V35.6159H42.609L42.3912 35.6036L42.268 35.5953V26.6525L39.1419 26.6484Z" fill="#196FF1" fill-opacity="0.3"/>
<path d="M25.5202 17.763L25.5859 17.8247L24.982 18.4285C24.5437 18.864 24.1137 19.3077 23.6922 19.7595C22.8829 20.6344 22.164 21.6162 22.0942 21.8956H25.8324C25.9176 21.8996 26.0025 21.8835 26.0803 21.8485C26.1581 21.8135 26.2266 21.7607 26.2801 21.6943C29.2347 18.4455 33.3413 16.4792 37.7247 16.2144C40.2617 16.0526 42.8026 16.4616 45.1607 17.4114C47.5188 18.3612 49.6339 19.8275 51.3505 21.7025C51.3922 21.761 51.4469 21.8089 51.5104 21.8424C51.5739 21.8759 51.6443 21.8941 51.7161 21.8956L54.1603 21.8915H55.3721C55.4373 21.8841 55.5019 21.8718 55.5652 21.8545C54.6843 20.5581 53.6575 19.3673 52.5048 18.3053L52.5582 18.2519C53.7425 17.3153 54.745 16.1694 55.5159 14.8711C56.0705 13.9961 56.4895 13.039 56.7483 12.0367C56.8476 11.6479 56.8782 11.2447 56.8386 10.8454C56.7852 10.3031 56.4854 9.84716 55.7624 9.93342C55.6183 9.9494 55.4764 9.98108 55.3393 10.0279C54.843 10.2077 54.3836 10.4763 53.9837 10.8207C52.2632 12.244 50.9554 14.1022 50.1962 16.202L50.1387 16.3253L50.114 16.3705C49.8922 16.2472 49.6704 16.1158 49.4568 15.9884C48.9556 15.7009 48.4709 15.4133 47.9615 15.1586C47.2221 14.7889 46.4663 14.4603 45.6899 14.1728C44.3813 13.7045 43.0303 13.3647 41.6559 13.1581C41.4053 13.117 41.1548 13.076 40.9042 13.0267C41.4398 11.0387 41.4933 8.95159 41.0603 6.93878C40.9428 6.35076 40.7393 5.78326 40.4564 5.25455C40.3055 4.94017 40.0746 4.671 39.7868 4.47406C39.6504 4.3809 39.4886 4.33175 39.3234 4.33322C39.1582 4.33469 38.9974 4.3867 38.8626 4.48227C38.7263 4.57465 38.6033 4.68522 38.497 4.8109C38.2171 5.15757 38.004 5.55314 37.8685 5.97754C37.5891 6.78679 37.4166 7.62891 37.355 8.48334C37.2149 9.96128 37.3303 11.4523 37.6959 12.8911L37.7124 12.9856C34.4206 13.1674 31.2228 14.1487 28.3957 15.8447L28.3587 15.8159C28.3476 15.808 28.3378 15.7983 28.33 15.7872C27.7286 14.3283 26.8654 12.9918 25.7831 11.8436C25.2114 11.1811 24.5237 10.6285 23.7538 10.2128C23.5449 10.1035 23.3245 10.0181 23.0965 9.95807C22.3694 9.78143 21.8724 10.1594 21.8231 10.9029L21.819 10.9974V11.0631C21.7902 11.6382 21.934 12.1804 22.123 12.7145C22.8049 14.6205 23.9263 16.2308 25.3764 17.6275L25.5202 17.763ZM52.5048 47.0317C53.5277 46.0869 54.452 45.0393 55.2571 43.9097L55.2407 43.8398H54.033C53.2114 43.8398 52.3898 43.844 51.5682 43.8316C51.4395 43.8259 51.3111 43.8483 51.1919 43.8973C51.0728 43.9462 50.9657 44.0206 50.8781 44.1151C46.9756 47.9272 42.3091 49.5703 36.8908 49.0445C34.8954 48.8389 32.956 48.2621 31.1726 47.3439C29.4874 46.4968 27.9559 45.3735 26.6416 44.0206C26.589 43.9595 26.5232 43.9112 26.4492 43.8792C26.3752 43.8471 26.295 43.8323 26.2144 43.8357L23.684 43.8398H22.5872C22.4991 43.8393 22.4112 43.8462 22.3242 43.8604C23.2691 45.1872 24.3659 46.3949 25.5982 47.463C25.587 47.4889 25.5732 47.5137 25.5571 47.5369L25.4545 47.6314L25.3969 47.6889C24.092 48.9102 23.0541 50.3886 22.3489 52.031C22.1099 52.5538 21.9427 53.1065 21.8518 53.6741C21.7699 54.0767 21.7983 54.494 21.934 54.8818C21.9839 55.0131 22.0669 55.1294 22.1748 55.2193C22.2827 55.3093 22.412 55.3699 22.5502 55.3953C22.8049 55.4364 23.0637 55.4117 23.3019 55.3131C23.8082 55.1343 24.2774 54.8642 24.6863 54.5162C26.2308 53.2305 27.4509 51.5996 28.2396 49.7511L28.3218 49.5703L28.3669 49.4717C31.1908 51.1741 34.3875 52.1611 37.6795 52.3473L37.6918 52.3883C37.7 52.4089 37.7041 52.4212 37.7 52.4294C37.4868 53.2099 37.3614 54.0118 37.3262 54.8202C37.2605 55.839 37.3139 56.8618 37.4823 57.8641C37.6138 58.6036 37.7945 59.3265 38.1478 59.9879C38.271 60.2221 38.423 60.4398 38.5997 60.637C39.0433 61.1217 39.5897 61.1176 40.0497 60.6452C40.1547 60.5434 40.2446 60.4272 40.3168 60.3001C40.4975 59.9756 40.6577 59.6429 40.7974 59.2978C41.0849 58.4639 41.2575 57.593 41.3068 56.7098C41.4358 55.2488 41.3079 53.7765 40.9288 52.3596L40.9124 52.2692C42.0133 52.146 43.1019 51.9406 44.1699 51.653C45.2175 51.3573 46.2444 50.9834 47.2385 50.5316C48.2354 50.0663 49.1965 49.5281 50.114 48.9213L50.151 49.0117L50.1962 49.1349C50.9521 51.2381 52.2625 53.0949 53.9878 54.508C54.3164 54.7709 54.6656 54.9927 55.0435 55.1776C55.29 55.2967 55.5488 55.3748 55.824 55.4076C56.0234 55.4425 56.2287 55.4033 56.4012 55.2974C56.5737 55.1915 56.7015 55.0261 56.7606 54.8325C56.806 54.6942 56.8336 54.5506 56.8428 54.4053C56.8775 53.842 56.7921 53.2777 56.5922 52.7498C55.8359 50.5823 54.4953 48.666 52.7184 47.2124L52.5048 47.0317ZM50.2208 26.6361L50.5166 26.6402C50.7343 26.6443 50.9479 26.6525 51.1574 26.6319C51.5025 26.5991 51.749 26.7223 51.9996 26.9565C53.0923 27.9629 54.1932 28.9611 55.2941 29.9552L56.3786 30.9411C56.4237 30.9822 56.4771 31.0233 56.5306 31.0767L56.6209 31.1547L56.7031 31.0808L56.8674 30.937L61.3861 26.8209C61.4481 26.757 61.523 26.707 61.6059 26.6744C61.6888 26.6418 61.7777 26.6273 61.8667 26.6319C62.2444 26.6465 62.6226 26.6479 63.0005 26.6361V38.7543C61.9416 38.8174 60.8801 38.8201 59.821 38.7625V32.6253L59.7593 32.5966L56.625 35.4557L53.4661 32.6089L53.4045 32.6294V38.7872H50.2496C50.1921 38.5818 50.1674 27.3262 50.225 26.6361H50.2208ZM24.2467 26.6484H21.1124V30.9452C19.8121 31.0042 18.5097 30.9987 17.2099 30.9288V26.6566H14.0469V38.7625C14.3098 38.8241 16.9881 38.82 17.2264 38.7461V34.1781H21.1124V37.2303C21.1124 37.7479 21.1083 38.2696 21.1206 38.7913H24.2591C24.3248 38.4955 24.3125 26.8497 24.2467 26.6484ZM28.0054 38.7831V26.6895C28.1903 26.632 35.0833 26.6073 35.5352 26.6689V29.2446L35.4736 29.2528H35.4407C35.3697 29.2601 35.2984 29.2642 35.2271 29.2651H31.2014V31.2738H35.0381V33.944H31.2342C31.1654 34.6952 31.1558 35.4506 31.2055 36.2033L31.3 36.2074C31.3698 36.2156 31.4396 36.2197 31.5136 36.2197H35.5352V38.7872L28.0054 38.7831ZM39.1419 26.6484C39.0844 26.8743 39.0721 38.4626 39.1296 38.7872H46.6552V35.6159H42.609L42.3912 35.6036L42.268 35.5953V26.6525L39.1419 26.6484Z" stroke="#7D7D7D" stroke-width="2" mask="url(#path-3-outside-1_431_6602)"/>
</svg>
