<svg width="70" height="67" viewBox="0 0 70 67" fill="none" xmlns="http://www.w3.org/2000/svg">
  <circle cx="27.7358" cy="38.3023" r="27.7358" fill="white" fill-opacity="0.07" />
  <circle cx="61.4169" cy="8.58491" r="8.58491" fill="white" fill-opacity="0.07" />
  <path
    d="M55.5514 9.09989V17.4796C55.5514 18.9152 54.387 20.0795 52.9516 20.0795H19.7323C18.297 20.0795 17.1328 18.9152 17.1328 17.4796V9.09989C17.1328 7.66431 18.2969 6.5 19.7323 6.5H52.9516C54.3869 6.5 55.5514 7.66439 55.5514 9.09989Z"
    fill="#52E0D7"
    fill-opacity="0.2"
    stroke="#7D7D7D"
  />
  <path
    d="M36.5217 57.5002C34.5706 57.5002 32.9883 55.9186 32.9883 53.9668V39.9414H40.3241V53.9668C40.3241 55.9186 38.7421 57.5002 36.791 57.5002H36.5217Z"
    fill="black"
    fill-opacity="0.3"
    stroke="#7D7D7D"
  />
  <path
    d="M57.3754 24.7819L57.3906 24.8082L39.5788 33.3694L39.5466 33.3826C39.546 33.3828 39.5455 33.383 39.545 33.3832C38.5047 33.8021 37.8235 34.8107 37.8235 35.9326V37.1175H35.6992V35.9326C35.6992 33.9754 36.8737 32.2168 38.6711 31.4532L39.1505 31.2495L39.1386 31.2243L56.9875 22.6449L57.0194 22.6323L57.0211 22.6315C58.0624 22.213 58.7451 21.2026 58.7451 20.0822V16.839V12.8217C60.0276 13.6988 60.8686 15.1693 60.8693 16.839C60.8693 16.8391 60.8693 16.8392 60.8693 16.8392V20.0822C60.8693 22.0386 59.6957 23.7973 57.8964 24.5608L57.3754 24.7819Z"
    fill="black"
    fill-opacity="0.3"
    stroke="#7D7D7D"
  />
</svg>