<svg width="557" height="412" viewBox="0 0 557 412" fill="none" xmlns="http://www.w3.org/2000/svg">
  <path d="M279 144L104.5 200L71 412H279V144Z" fill="#146262" />
  <path d="M452 160L278 144V412H486L452 160Z" fill="#5273E0" />
  <path
    d="M337.36 393.015C336.845 392.083 336.386 391.123 335.986 390.138C334.226 385.823 337.636 382.39 337.782 382.246L337.916 382.115L337.913 381.93C337.874 379.537 336.932 323.204 334.109 312.13C331.56 302.13 323.674 299.401 321.835 298.893L321.839 298.844L312.77 297.704C316.164 275.783 319.565 225.095 281.143 214.657C279.81 214.328 278.452 214.108 277.083 214L277 214.873C278.316 214.979 279.621 215.189 280.902 215.501C318.65 225.756 315.242 275.916 311.883 297.593L298.149 295.866C294.572 293.898 290.532 290.367 290.058 280.889C294.989 276.829 298.15 271.074 298.895 264.802C298.958 264.809 299.023 264.813 299.087 264.813C301.075 264.813 302.692 262.532 302.692 259.728C302.692 256.924 301.075 254.643 299.087 254.643C298.687 254.626 298.296 254.763 297.997 255.024C296.619 250.536 293.968 246.524 290.353 243.457C286.738 240.39 282.308 238.394 277.581 237.702L277.453 238.57C283.206 239.39 288.466 242.215 292.269 246.527C296.073 250.839 298.166 256.35 298.166 262.051C298.166 267.753 296.073 273.264 292.269 277.576C288.466 281.888 283.206 284.712 277.453 285.533L277.581 286.401C281.814 285.799 285.818 284.134 289.202 281.566C289.814 290.419 293.666 294.191 296.963 296.198C293.195 301.252 287.091 304.312 278.804 305.286C278.362 305.338 277.919 305.382 277.477 305.421L277.557 306.294C278.008 306.255 278.459 306.21 278.911 306.157C287.468 305.151 293.79 301.968 297.708 296.695L297.863 296.714C297.892 296.73 297.922 296.747 297.951 296.762L297.97 296.728L320.874 299.607L314.278 374.464L314.276 374.489L314.276 374.513C314.277 374.516 314.294 375.204 314.294 376.415V376.517L314.295 376.518C314.329 383.124 314 389.726 313.309 396.297C312.57 402.813 311.447 407.798 309.972 411.123H298.399C298.455 410.092 298.669 409.076 299.032 408.107L300.067 405.198L298.246 407.708C297.225 409.006 296.022 410.156 294.673 411.123H277.517V412H294.965L295.082 411.916C296.006 411.255 296.871 410.516 297.665 409.708C297.548 410.322 297.493 410.946 297.501 411.57L297.509 412H329.273L329.377 411.94C331.28 410.848 331.28 408.832 331.28 405.17C331.28 402.873 332.852 401.331 334.518 399.698C335.394 398.893 336.189 398.006 336.89 397.049C338.312 394.957 338.253 394.666 337.36 393.015ZM298.292 255.97C298.63 255.615 298.722 255.52 299.087 255.52C300.557 255.52 301.799 257.447 301.799 259.728C301.799 261.994 300.574 263.91 299.117 263.936C299.086 263.859 299.045 263.786 298.995 263.719C299.034 263.166 299.06 262.611 299.06 262.051C299.058 260.007 298.794 257.97 298.272 255.991L298.292 255.97ZM317.096 381.995L314.426 394.215C315.028 387.965 315.166 381.86 315.187 378.263L317.096 381.995ZM336.146 396.563C335.477 397.47 334.72 398.312 333.886 399.078C332.165 400.766 330.386 402.51 330.386 405.17C330.386 408.762 330.332 410.303 329.026 411.123H310.942C312.37 407.742 313.46 402.83 314.185 396.503L315.142 395.123L318.036 381.878L315.188 376.31C315.187 375.285 315.174 374.646 315.171 374.516L321.756 299.782C323.69 300.342 330.865 303.019 333.242 312.342C335.963 323.018 336.955 378.219 337.016 381.769C336.337 382.516 333.385 386.123 335.155 390.463C335.568 391.477 336.04 392.466 336.57 393.426C337.327 394.826 337.327 394.826 336.146 396.563Z"
    fill="#3F3D56"
  />
  <path
    d="M278 214.361V313.009L258.913 315.257L241.904 317.267L235.953 317.965V317.969L235.673 318C235.673 318 234.689 314.957 233.915 308.888C232.577 298.399 231.864 278.872 237.964 250.424C246.102 212.453 270.628 213.222 278 214.361Z"
    fill="#2F2E41"
  />
  <path
    d="M276.678 394.29L278 394.354V412H217L218.3 407.196L219.939 401.142L227.554 393.69L229.281 392L276.678 394.29Z"
    fill="#2F2E41"
  />
  <path
    d="M278 237.48V285.515C274.685 286.193 271.267 286.16 267.965 285.419C264.663 284.678 261.552 283.245 258.831 281.212C256.11 279.179 253.84 276.592 252.167 273.617C250.495 270.642 249.457 267.345 249.12 263.939C248.784 260.533 249.156 257.093 250.213 253.842C251.27 250.59 252.989 247.599 255.258 245.061C257.527 242.523 260.296 240.494 263.388 239.106C266.479 237.717 269.823 237 273.205 237C274.732 236.998 276.255 237.144 277.754 237.436C277.838 237.449 277.917 237.462 278 237.48Z"
    fill="#FFB9B9"
  />
  <path
    d="M278 278V330L258.451 315.125L247 306.413L256.15 302.288C256.562 302.106 256.991 301.911 257.444 301.707C264.265 298.634 265.415 290.335 265.393 284.953C265.394 283.315 265.276 281.678 265.039 280.056L278 278Z"
    fill="#FFB9B9"
  />
  <path
    d="M276.682 305.754C277.121 305.714 277.561 305.67 278 305.617V412H270.961C266.483 410.638 262.955 409.312 262.955 409.312C262.955 409.312 241.529 406.51 235.008 407.444C234.643 407.497 234.213 407.559 233.725 407.629C229.792 408.193 222.335 409.114 218.468 407.092C214.615 405.078 214.32 400.143 224.603 389.026C225.503 388.052 226.488 387.03 227.556 385.96C227.556 385.96 241.529 376.618 239.666 373.816C237.803 371.014 235.008 358.87 235.008 358.87L235.052 356.469L235.746 317.444V317.439L235.939 306.56L256.561 302L260.16 304.692C265.588 305.836 271.152 306.194 276.682 305.754Z"
    fill="#33BCB7"
  />
  <path
    d="M239.46 352.58C238.036 353.12 236.477 354.621 234.888 356.701C228.217 365.41 220.997 384.208 220.997 384.208C220.997 384.208 223.431 386.66 224.533 389.122C225.095 390.377 225.312 391.636 224.69 392.58C222.843 395.37 224.69 392.58 226.536 392.58C227.254 392.58 227.555 392.86 227.598 393.369C227.664 394.168 227.098 395.528 226.536 397.231C225.613 400.021 226.536 400.951 231.152 401.882C235.767 402.812 232.998 402.812 232.998 405.603C233.022 406.321 233.219 407.023 233.573 407.647C234.382 409.013 235.44 410.213 236.69 411.184C236.508 411.197 236.333 411.21 236.159 411.228C234.925 411.325 233.708 411.584 232.541 412H208.909C209.348 411.484 209.69 410.893 209.919 410.254C210.842 407.463 203.457 402.812 202.534 401.882C201.611 400.952 201.611 397.231 202.534 393.51C203.457 389.789 201.611 389.789 199.765 387.929C197.918 386.068 199.765 383.277 201.611 380.487C203.457 377.696 203.457 378.626 200.688 373.045C197.918 367.464 203.457 366.534 203.457 366.534C203.457 366.534 215.458 341.418 221.92 326.534C226.192 316.693 230.873 311.322 233.547 308.817C234.235 308.149 234.978 307.541 235.767 307L240.383 308.86C240.383 308.86 240.919 312.243 241.502 317.136C242.956 329.246 244.72 350.593 239.46 352.58Z"
    fill="#33BCB7"
  />
  <path
    d="M278 230V237.548C277.92 237.685 277.836 237.817 277.752 237.954C272.858 245.97 264.128 256.989 250.712 263L249.509 255.947L247 241.249L278 230Z"
    fill="#2F2E41"
  />
  <path
    d="M175 374.726C175.014 402.341 158.452 411.99 138.018 412C137.544 412 137.071 411.995 136.601 411.985C135.654 411.965 134.717 411.923 133.79 411.858C115.347 410.573 101.013 400.444 101 374.761C100.987 348.183 135.248 314.625 137.817 312.144C137.819 312.144 137.819 312.144 137.822 312.142C137.919 312.047 137.969 312 137.969 312C137.969 312 174.986 347.112 175 374.726Z"
    fill="#5273E0"
  />
  <path
    d="M136.886 407.791L150.402 389.044L136.853 409.848L136.818 412C135.872 411.98 134.935 411.938 134.008 411.873L135.452 384.241L135.44 384.027L135.465 383.987L135.603 381.376L122 360.533L135.642 379.42L135.677 379.974L136.767 359.097L125.121 337.558L136.908 355.428L138.033 312.144L138.038 312L138.038 312.142L137.864 346.276L149.439 332.738L137.816 349.215L137.518 367.908L148.329 349.964L137.477 370.657L137.311 381.051L153 356.073L137.252 384.677L136.886 407.791Z"
    fill="#3F3D56"
  />
  <path
    d="M426.362 331.552C420.69 324.025 414.478 316.919 407.775 310.291L407.471 310L407.007 310.44C403.218 314.128 369.987 347.245 370 373.967C370.014 403.074 387.748 410.647 402.818 411.822L402.818 411.825L403.252 411.855C404.183 411.921 405.137 411.965 406.089 411.985L406.091 411.985L406.534 411.994L406.534 411.99C406.841 411.994 407.147 412 407.455 412H407.518C418.737 411.994 427.65 409.143 434.01 403.525C441.309 397.079 445.006 387.122 445 373.93C444.993 359.409 434.861 342.87 426.362 331.552ZM414.524 368.424L406.092 383.849L405.702 408.705L409.177 403.85L405.694 409.237L405.664 411.086C405.561 411.083 405.458 411.079 405.356 411.075C404.909 411.06 404.465 411.04 404.024 411.014C403.932 411.009 403.84 411.004 403.748 410.999L405.172 383.548L405.173 383.525L405.168 383.423L405.331 380.513L401.816 375.09L404.487 378.813L404.513 379.245L405.398 379.241L406.49 358.169L406.496 358.046L399.57 345.143L406.535 355.78L406.332 368.686L410.31 362.036L406.318 369.702L406.125 381.892L414.524 368.424ZM370.886 373.966C370.88 362.852 376.728 349.238 388.267 333.501C393.93 325.844 400.139 318.605 406.847 311.843L405.783 353.015L394.747 336.164L393.986 336.615L405.6 358.247L404.603 377.457L391.609 359.339L390.877 359.836L404.431 380.753L404.307 383.134L404.269 383.196L404.287 383.526L402.864 410.939C388.173 409.785 370.899 402.381 370.886 373.966ZM412.92 339.089L406.803 347.823L406.844 346.247L412.92 339.089ZM407.518 411.115C407.193 411.115 406.871 411.11 406.549 411.105L406.575 409.505L420.083 388.613L419.351 388.115L406.632 405.884L406.975 384.081L422.704 355.306L421.94 354.861L407.061 378.719L407.2 369.925L418.027 349.133L417.254 348.702L407.27 365.394L407.539 348.315L419.109 331.796L418.409 331.256L407.596 343.993L407.76 311.516C412.512 316.224 444.102 348.494 444.114 373.93C444.129 404.65 424.221 411.107 407.518 411.115Z"
    fill="#3F3D56"
  />
  <path
    d="M399.182 231.628H136.818C134.48 231.625 132.239 230.694 130.586 229.038C128.933 227.383 128.003 225.138 128 222.797V8.83122C128.003 6.48987 128.933 4.24519 130.586 2.5896C132.239 0.934015 134.48 0.00271872 136.818 0H399.182C401.52 0.00271529 403.761 0.934014 405.414 2.5896C407.067 4.24519 407.997 6.48987 408 8.83122V222.797C407.997 225.138 407.067 227.383 405.414 229.038C403.761 230.694 401.52 231.625 399.182 231.628Z"
    fill="#272727"
    fill-opacity="0.5"
  />
  <path
    d="M142.766 6.28589C140.514 6.28851 138.355 7.18564 136.763 8.78045C135.171 10.3753 134.275 12.5375 134.272 14.7929V216.84C134.275 219.095 135.171 221.258 136.763 222.852C138.355 224.447 140.514 225.344 142.766 225.347H322.345C343.391 225.323 363.569 216.938 378.451 202.033C393.333 187.128 401.704 166.919 401.728 145.84V14.7929C401.725 12.5375 400.83 10.3753 399.238 8.78045C397.645 7.18564 395.486 6.28852 393.235 6.28591L142.766 6.28589Z"
    fill="#020202"
    fill-opacity="0.66"
  />
  <line x1="133.938" y1="29.3372" x2="400.962" y2="29.3371" stroke="#343434" />
  <line x1="157.798" y1="225.655" x2="157.798" y2="29.837" stroke="#343434" />
  <line x1="278.662" y1="225.655" x2="278.662" y2="29.837" stroke="#343434" />
  <rect x="138.623" y="36.3955" width="14.9908" height="14.9908" rx="4" fill="#272727" />
  <rect x="172.352" y="51.3865" width="91.8189" height="14.9908" rx="4" fill="#272727" />
  <rect x="293.216" y="51.3865" width="91.8189" height="14.9908" rx="4" fill="#272727" />
  <rect x="172.352" y="75.7466" width="211.746" height="14.9908" rx="4" fill="#423F33" />
  <rect x="172.352" y="71.062" width="77.7649" height="14.9908" rx="4" fill="#33BCB7" fill-opacity="0.67" />
  <rect x="293.216" y="71.062" width="27.1709" height="14.9908" rx="4" fill="#5273E0" fill-opacity="0.74" />
  <rect x="172.352" y="100.107" width="211.746" height="14.9908" rx="4" fill="#423F33" />
  <rect x="172.352" y="95.4219" width="45.9094" height="14.9908" rx="4" fill="#33BCB7" fill-opacity="0.67" />
  <rect x="293.216" y="95.4219" width="38.414" height="14.9908" rx="4" fill="#5273E0" fill-opacity="0.74" />
  <rect x="173.289" y="124.467" width="91.8189" height="14.9908" rx="4" fill="#272727" />
  <rect x="293.216" y="124.467" width="91.8189" height="14.9908" rx="4" fill="#272727" />
  <rect x="172.352" y="148.827" width="91.8189" height="14.9908" rx="4" fill="#272727" />
  <rect x="292.279" y="148.827" width="91.8189" height="14.9908" rx="4" fill="#272727" />
  <rect x="218.262" y="11.0986" width="129.296" height="12.1801" rx="4" fill="#272727" />
  <rect x="138.623" y="56.071" width="14.9908" height="14.9908" rx="4" fill="#272727" />
  <rect x="138.623" y="75.7466" width="14.9908" height="14.9908" rx="4" fill="#272727" />
  <path
    fill-rule="evenodd"
    clip-rule="evenodd"
    d="M146.587 23.2787C149.95 23.2787 152.677 20.5521 152.677 17.1887C152.677 13.8252 149.95 11.0986 146.587 11.0986C143.223 11.0986 140.497 13.8252 140.497 17.1887C140.497 20.5521 143.223 23.2787 146.587 23.2787ZM145.91 20.5718C148.152 20.5718 149.97 18.7541 149.97 16.5118C149.97 14.2695 148.152 12.4518 145.91 12.4518C143.668 12.4518 141.85 14.2695 141.85 16.5118C141.85 18.7541 143.668 20.5718 145.91 20.5718Z"
    fill="url(#paint0_linear_41315_2845)"
  />
  <path
    d="M193.261 118.548C197.823 118.548 201.522 114.843 201.522 110.274C201.522 105.704 197.823 102 193.261 102C188.699 102 185 105.704 185 110.274C185 114.843 188.699 118.548 193.261 118.548Z"
    fill="#D8BD14"
  />
  <path d="M193 114.392V174.392H118" stroke="#D8BD14" />
  <path
    d="M0 176.392C0 171.421 4.02944 167.392 9 167.392H122C126.971 167.392 131 171.421 131 176.392V176.392C131 181.362 126.971 185.392 122 185.392H9C4.02944 185.392 0 181.362 0 176.392V176.392Z"
    fill="#D8BD14"
  />
  <path
    d="M16.8441 175.138H15.4442C15.4187 174.957 15.3665 174.796 15.2876 174.655C15.2088 174.513 15.1076 174.391 14.984 174.291C14.8604 174.191 14.7177 174.114 14.5558 174.061C14.396 174.008 14.2223 173.981 14.0348 173.981C13.696 173.981 13.4009 174.065 13.1495 174.233C12.8981 174.4 12.7031 174.643 12.5646 174.962C12.4261 175.28 12.3569 175.665 12.3569 176.119C12.3569 176.586 12.4261 176.978 12.5646 177.295C12.7053 177.613 12.9013 177.852 13.1527 178.014C13.4041 178.176 13.695 178.257 14.0252 178.257C14.2106 178.257 14.3821 178.233 14.5398 178.184C14.6996 178.135 14.8413 178.063 14.9648 177.97C15.0884 177.874 15.1907 177.758 15.2717 177.621C15.3548 177.485 15.4123 177.329 15.4442 177.155L16.8441 177.161C16.8079 177.461 16.7173 177.751 16.5724 178.03C16.4297 178.307 16.2369 178.556 15.994 178.775C15.7532 178.992 15.4656 179.165 15.131 179.293C14.7987 179.418 14.4226 179.481 14.0028 179.481C13.419 179.481 12.897 179.349 12.4368 179.085C11.9787 178.821 11.6165 178.438 11.3501 177.938C11.0859 177.437 10.9538 176.831 10.9538 176.119C10.9538 175.405 11.0881 174.798 11.3565 174.297C11.625 173.797 11.9893 173.415 12.4496 173.153C12.9098 172.889 13.4276 172.757 14.0028 172.757C14.3821 172.757 14.7337 172.81 15.0575 172.917C15.3835 173.023 15.6722 173.179 15.9237 173.383C16.1751 173.586 16.3796 173.834 16.5373 174.128C16.6971 174.422 16.7994 174.759 16.8441 175.138ZM24.4814 176.119C24.4814 176.833 24.3461 177.44 24.0755 177.941C23.807 178.442 23.4405 178.824 22.9761 179.088C22.5137 179.35 21.9938 179.481 21.4164 179.481C20.8347 179.481 20.3127 179.349 19.8503 179.085C19.388 178.821 19.0226 178.438 18.7541 177.938C18.4856 177.437 18.3514 176.831 18.3514 176.119C18.3514 175.405 18.4856 174.798 18.7541 174.297C19.0226 173.797 19.388 173.415 19.8503 173.153C20.3127 172.889 20.8347 172.757 21.4164 172.757C21.9938 172.757 22.5137 172.889 22.9761 173.153C23.4405 173.415 23.807 173.797 24.0755 174.297C24.3461 174.798 24.4814 175.405 24.4814 176.119ZM23.0783 176.119C23.0783 175.657 23.0091 175.267 22.8706 174.949C22.7342 174.632 22.5414 174.391 22.2921 174.227C22.0428 174.063 21.7509 173.981 21.4164 173.981C21.0819 173.981 20.79 174.063 20.5407 174.227C20.2914 174.391 20.0975 174.632 19.959 174.949C19.8226 175.267 19.7545 175.657 19.7545 176.119C19.7545 176.581 19.8226 176.971 19.959 177.289C20.0975 177.606 20.2914 177.847 20.5407 178.011C20.79 178.175 21.0819 178.257 21.4164 178.257C21.7509 178.257 22.0428 178.175 22.2921 178.011C22.5414 177.847 22.7342 177.606 22.8706 177.289C23.0091 176.971 23.0783 176.581 23.0783 176.119ZM26.1365 172.846H27.8432L29.6457 177.244H29.7224L31.525 172.846H33.2317V179.392H31.8894V175.132H31.835L30.1411 179.36H29.2271L27.5332 175.116H27.4788V179.392H26.1365V172.846ZM35.0019 179.392V172.846H37.5842C38.0807 172.846 38.5036 172.941 38.8531 173.131C39.2025 173.318 39.4688 173.579 39.6521 173.914C39.8374 174.246 39.9301 174.63 39.9301 175.064C39.9301 175.499 39.8364 175.883 39.6489 176.215C39.4614 176.547 39.1897 176.806 38.8339 176.992C38.4802 177.177 38.0519 177.27 37.5491 177.27H35.9031V176.161H37.3254C37.5917 176.161 37.8112 176.115 37.9837 176.023C38.1585 175.929 38.2884 175.801 38.3737 175.637C38.461 175.47 38.5047 175.28 38.5047 175.064C38.5047 174.847 38.461 174.657 38.3737 174.496C38.2884 174.331 38.1585 174.205 37.9837 174.115C37.809 174.024 37.5874 173.978 37.319 173.978H36.3857V179.392H35.0019ZM41.8313 179.392H40.3484L42.608 172.846H44.3914L46.6478 179.392H45.1648L43.5252 174.342H43.4741L41.8313 179.392ZM41.7387 176.819H45.2415V177.899H41.7387V176.819ZM48.0656 179.392V172.846H50.648C51.1423 172.846 51.5642 172.935 51.9136 173.112C52.2651 173.286 52.5325 173.535 52.7158 173.856C52.9012 174.176 52.9938 174.552 52.9938 174.985C52.9938 175.419 52.9001 175.793 52.7126 176.106C52.5251 176.417 52.2534 176.656 51.8976 176.822C51.5439 176.988 51.1156 177.072 50.6128 177.072H48.8838V175.959H50.3891C50.6533 175.959 50.8727 175.923 51.0475 175.851C51.2222 175.778 51.3522 175.67 51.4374 175.525C51.5247 175.38 51.5684 175.2 51.5684 174.985C51.5684 174.767 51.5247 174.584 51.4374 174.435C51.3522 174.286 51.2211 174.173 51.0443 174.096C50.8696 174.017 50.649 173.978 50.3827 173.978H49.4495V179.392H48.0656ZM51.6004 176.413L53.2271 179.392H51.6995L50.1078 176.413H51.6004ZM54.6018 179.392V172.846H59.0123V173.987H55.9857V175.547H58.7854V176.688H55.9857V178.251H59.0251V179.392H54.6018ZM64.5838 179.392H63.1008L65.3604 172.846H67.1438L69.4002 179.392H67.9172L66.2777 174.342H66.2265L64.5838 179.392ZM64.4911 176.819H67.9939V177.899H64.4911V176.819ZM76.2928 172.846V179.392H75.0975L72.2498 175.272H72.2019V179.392H70.818V172.846H72.0325L74.8578 176.963H74.9153V172.846H76.2928ZM77.6826 172.846H79.2327L80.7253 175.665H80.7892L82.2817 172.846H83.8318L81.4444 177.078V179.392H80.0701V177.078L77.6826 172.846ZM85.3814 173.987V172.846H90.7571V173.987H88.7532V179.392H87.3853V173.987H85.3814ZM92.2724 179.392V172.846H93.6563V175.547H96.4656V172.846H97.8463V179.392H96.4656V176.688H93.6563V179.392H92.2724ZM101.001 172.846V179.392H99.6173V172.846H101.001ZM108.245 172.846V179.392H107.049L104.202 175.272H104.154V179.392H102.77V172.846H103.984L106.81 176.963H106.867V172.846H108.245ZM114.358 174.962C114.313 174.807 114.251 174.669 114.17 174.55C114.089 174.428 113.99 174.326 113.872 174.243C113.757 174.158 113.625 174.093 113.476 174.048C113.329 174.003 113.166 173.981 112.987 173.981C112.653 173.981 112.358 174.064 112.105 174.23C111.853 174.396 111.657 174.638 111.517 174.956C111.376 175.271 111.306 175.657 111.306 176.113C111.306 176.569 111.375 176.956 111.514 177.276C111.652 177.596 111.848 177.84 112.102 178.008C112.355 178.174 112.655 178.257 113 178.257C113.313 178.257 113.58 178.202 113.802 178.091C114.026 177.978 114.196 177.819 114.313 177.615C114.433 177.41 114.492 177.168 114.492 176.889L114.774 176.931H113.086V175.889H115.825V176.714C115.825 177.289 115.704 177.783 115.461 178.197C115.218 178.608 114.883 178.925 114.457 179.149C114.031 179.371 113.543 179.481 112.993 179.481C112.38 179.481 111.841 179.346 111.376 179.075C110.912 178.803 110.55 178.416 110.29 177.915C110.032 177.412 109.903 176.816 109.903 176.126C109.903 175.595 109.98 175.122 110.133 174.706C110.289 174.289 110.506 173.935 110.785 173.645C111.064 173.356 111.389 173.135 111.76 172.984C112.13 172.833 112.532 172.757 112.965 172.757C113.335 172.757 113.681 172.811 114 172.92C114.32 173.026 114.603 173.178 114.85 173.374C115.1 173.57 115.303 173.803 115.461 174.074C115.618 174.342 115.72 174.638 115.764 174.962H114.358ZM119.096 172.846L118.971 177.429H117.801L117.674 172.846H119.096ZM118.386 179.475C118.175 179.475 117.994 179.4 117.843 179.251C117.692 179.1 117.617 178.919 117.619 178.708C117.617 178.499 117.692 178.32 117.843 178.171C117.994 178.022 118.175 177.947 118.386 177.947C118.589 177.947 118.767 178.022 118.92 178.171C119.073 178.32 119.151 178.499 119.153 178.708C119.151 178.849 119.114 178.977 119.041 179.095C118.971 179.21 118.878 179.302 118.763 179.373C118.648 179.441 118.523 179.475 118.386 179.475Z"
    fill="#141414"
  />
  <path
    d="M400.261 290.548C404.823 290.548 408.522 286.843 408.522 282.274C408.522 277.704 404.823 274 400.261 274C395.699 274 392 277.704 392 282.274C392 286.843 395.699 290.548 400.261 290.548Z"
    fill="#D8BD14"
  />
  <path
    d="M484 242C484 237.029 488.029 233 493 233H548C552.971 233 557 237.029 557 242V242C557 246.971 552.971 251 548 251H493C488.029 251 484 246.971 484 242V242Z"
    fill="#D8BD14"
  />
  <path
    d="M493.697 245H492.214L494.474 238.455H496.257L498.513 245H497.031L495.391 239.95H495.34L493.697 245ZM493.604 242.427H497.107V243.507H493.604V242.427ZM505.406 238.455V245H504.211L501.363 240.88H501.315V245H499.931V238.455H501.146L503.971 242.571H504.029V238.455H505.406ZM509.5 245H507.179V238.455H509.519C510.177 238.455 510.744 238.586 511.219 238.848C511.694 239.108 512.06 239.482 512.315 239.969C512.573 240.457 512.702 241.041 512.702 241.721C512.702 242.403 512.573 242.989 512.315 243.479C512.06 243.969 511.692 244.345 511.213 244.607C510.736 244.869 510.165 245 509.5 245ZM508.563 243.814H509.442C509.851 243.814 510.195 243.742 510.475 243.597C510.756 243.45 510.967 243.223 511.107 242.916C511.25 242.607 511.322 242.209 511.322 241.721C511.322 241.237 511.25 240.842 511.107 240.535C510.967 240.228 510.757 240.002 510.478 239.858C510.199 239.713 509.855 239.64 509.445 239.64H508.563V243.814ZM517.07 238.455H518.777L520.58 242.852H520.656L522.459 238.455H524.166V245H522.823V240.74H522.769L521.075 244.968H520.161L518.467 240.724H518.413V245H517.07V238.455ZM531.951 241.727C531.951 242.441 531.815 243.048 531.545 243.549C531.276 244.05 530.91 244.432 530.445 244.696C529.983 244.958 529.463 245.089 528.886 245.089C528.304 245.089 527.782 244.957 527.32 244.693C526.857 244.429 526.492 244.047 526.223 243.546C525.955 243.045 525.821 242.439 525.821 241.727C525.821 241.013 525.955 240.406 526.223 239.906C526.492 239.405 526.857 239.023 527.32 238.761C527.782 238.497 528.304 238.365 528.886 238.365C529.463 238.365 529.983 238.497 530.445 238.761C530.91 239.023 531.276 239.405 531.545 239.906C531.815 240.406 531.951 241.013 531.951 241.727ZM530.548 241.727C530.548 241.265 530.478 240.875 530.34 240.558C530.203 240.24 530.011 239.999 529.761 239.835C529.512 239.671 529.22 239.589 528.886 239.589C528.551 239.589 528.259 239.671 528.01 239.835C527.761 239.999 527.567 240.24 527.428 240.558C527.292 240.875 527.224 241.265 527.224 241.727C527.224 242.19 527.292 242.58 527.428 242.897C527.567 243.214 527.761 243.455 528.01 243.619C528.259 243.783 528.551 243.865 528.886 243.865C529.22 243.865 529.512 243.783 529.761 243.619C530.011 243.455 530.203 243.214 530.34 242.897C530.478 242.58 530.548 242.19 530.548 241.727ZM533.606 245V238.455H536.188C536.682 238.455 537.104 238.543 537.454 238.72C537.805 238.895 538.073 239.143 538.256 239.464C538.441 239.784 538.534 240.16 538.534 240.593C538.534 241.027 538.44 241.401 538.253 241.714C538.065 242.026 537.794 242.264 537.438 242.43C537.084 242.597 536.656 242.68 536.153 242.68H534.424V241.567H535.929C536.193 241.567 536.413 241.531 536.588 241.459C536.762 241.386 536.892 241.278 536.978 241.133C537.065 240.988 537.109 240.808 537.109 240.593C537.109 240.375 537.065 240.192 536.978 240.043C536.892 239.894 536.761 239.781 536.584 239.704C536.41 239.625 536.189 239.586 535.923 239.586H534.99V245H533.606ZM537.141 242.021L538.767 245H537.24L535.648 242.021H537.141ZM540.142 245V238.455H544.552V239.596H541.526V241.155H544.326V242.296H541.526V243.859H544.565V245H540.142ZM547.884 238.455L547.759 243.038H546.59L546.462 238.455H547.884ZM547.174 245.083C546.963 245.083 546.782 245.009 546.631 244.859C546.48 244.708 546.405 244.527 546.407 244.316C546.405 244.107 546.48 243.928 546.631 243.779C546.782 243.63 546.963 243.555 547.174 243.555C547.377 243.555 547.555 243.63 547.708 243.779C547.862 243.928 547.939 244.107 547.941 244.316C547.939 244.457 547.902 244.586 547.83 244.703C547.759 244.818 547.667 244.911 547.552 244.981C547.436 245.049 547.311 245.083 547.174 245.083Z"
    fill="#141414"
  />
  <path d="M400 279L400 242L484 242" stroke="#D8BD14" />
  <path
    d="M429 142C429 137.029 433.029 133 438 133H506C510.971 133 515 137.029 515 142V142C515 146.971 510.971 151 506 151H438C433.029 151 429 146.971 429 142V142Z"
    fill="#D8BD14"
  />
  <path
    d="M440.069 145V138.455H441.453V141.341H441.539L443.895 138.455H445.553L443.124 141.385L445.582 145H443.926L442.134 142.309L441.453 143.14V145H440.069ZM449.307 145.089C448.815 145.089 448.377 145.01 447.994 144.85C447.612 144.688 447.313 144.467 447.096 144.188C446.878 143.909 446.77 143.593 446.77 143.239C446.77 142.966 446.832 142.716 446.955 142.488C447.081 142.258 447.251 142.067 447.466 141.916C447.682 141.762 447.922 141.664 448.189 141.622V141.577C447.839 141.507 447.556 141.337 447.339 141.069C447.121 140.798 447.013 140.484 447.013 140.126C447.013 139.787 447.112 139.486 447.31 139.222C447.508 138.955 447.78 138.746 448.125 138.595C448.472 138.442 448.866 138.365 449.307 138.365C449.748 138.365 450.142 138.442 450.487 138.595C450.834 138.749 451.107 138.958 451.305 139.225C451.503 139.489 451.603 139.789 451.605 140.126C451.603 140.486 451.492 140.8 451.273 141.069C451.053 141.337 450.772 141.507 450.429 141.577V141.622C450.691 141.664 450.929 141.762 451.142 141.916C451.357 142.067 451.528 142.258 451.653 142.488C451.781 142.716 451.846 142.966 451.848 143.239C451.846 143.593 451.736 143.909 451.519 144.188C451.302 144.467 451.001 144.688 450.618 144.85C450.236 145.01 449.8 145.089 449.307 145.089ZM449.307 144.073C449.527 144.073 449.719 144.034 449.883 143.955C450.047 143.874 450.175 143.763 450.266 143.623C450.36 143.48 450.407 143.316 450.407 143.13C450.407 142.941 450.359 142.773 450.263 142.629C450.167 142.482 450.037 142.366 449.873 142.283C449.709 142.198 449.52 142.156 449.307 142.156C449.096 142.156 448.908 142.198 448.742 142.283C448.575 142.366 448.444 142.482 448.349 142.629C448.255 142.773 448.208 142.941 448.208 143.13C448.208 143.316 448.254 143.48 448.345 143.623C448.437 143.763 448.566 143.874 448.732 143.955C448.898 144.034 449.09 144.073 449.307 144.073ZM449.307 141.149C449.491 141.149 449.654 141.112 449.796 141.037C449.939 140.962 450.051 140.859 450.132 140.727C450.213 140.595 450.253 140.442 450.253 140.27C450.253 140.099 450.213 139.95 450.132 139.822C450.051 139.692 449.94 139.591 449.8 139.519C449.659 139.444 449.495 139.407 449.307 139.407C449.122 139.407 448.958 139.444 448.815 139.519C448.672 139.591 448.561 139.692 448.48 139.822C448.401 139.95 448.361 140.099 448.361 140.27C448.361 140.442 448.402 140.595 448.483 140.727C448.564 140.859 448.676 140.962 448.818 141.037C448.961 141.112 449.124 141.149 449.307 141.149ZM457.035 140.337C457.009 140.079 456.9 139.879 456.706 139.736C456.512 139.593 456.249 139.522 455.916 139.522C455.69 139.522 455.5 139.554 455.344 139.618C455.189 139.68 455.069 139.766 454.986 139.877C454.905 139.988 454.865 140.113 454.865 140.254C454.861 140.371 454.885 140.473 454.938 140.561C454.994 140.648 455.069 140.724 455.165 140.788C455.261 140.849 455.372 140.904 455.498 140.951C455.623 140.995 455.758 141.034 455.9 141.066L456.488 141.206C456.774 141.27 457.036 141.355 457.275 141.462C457.513 141.569 457.72 141.7 457.895 141.855C458.069 142.011 458.205 142.194 458.301 142.405C458.399 142.616 458.449 142.858 458.451 143.13C458.449 143.531 458.346 143.878 458.144 144.172C457.944 144.464 457.654 144.691 457.275 144.853C456.898 145.013 456.443 145.093 455.91 145.093C455.382 145.093 454.921 145.012 454.529 144.85C454.139 144.688 453.835 144.448 453.615 144.131C453.398 143.811 453.284 143.416 453.273 142.945H454.612C454.627 143.164 454.69 143.348 454.801 143.495C454.914 143.64 455.064 143.749 455.252 143.824C455.441 143.896 455.655 143.933 455.894 143.933C456.128 143.933 456.332 143.898 456.504 143.83C456.679 143.762 456.814 143.667 456.91 143.546C457.006 143.424 457.054 143.285 457.054 143.127C457.054 142.98 457.01 142.857 456.923 142.756C456.838 142.656 456.712 142.571 456.546 142.501C456.382 142.43 456.181 142.366 455.942 142.309L455.229 142.13C454.677 141.996 454.242 141.786 453.922 141.5C453.602 141.215 453.444 140.83 453.446 140.347C453.444 139.95 453.549 139.604 453.762 139.308C453.977 139.012 454.273 138.781 454.648 138.614C455.023 138.448 455.449 138.365 455.926 138.365C456.412 138.365 456.836 138.448 457.198 138.614C457.562 138.781 457.846 139.012 458.048 139.308C458.251 139.604 458.355 139.947 458.361 140.337H457.035ZM464.109 138.455V145H462.725V138.455H464.109ZM465.877 138.455H467.584L469.386 142.852H469.463L471.266 138.455H472.972V145H471.63V140.74H471.576L469.882 144.968H468.968L467.274 140.724H467.219V145H465.877V138.455ZM475.871 145H474.388L476.647 138.455H478.431L480.687 145H479.204L477.565 139.95H477.513L475.871 145ZM475.778 142.427H479.281V143.507H475.778V142.427ZM486.137 140.57C486.093 140.415 486.03 140.277 485.949 140.158C485.868 140.037 485.769 139.934 485.652 139.851C485.537 139.766 485.404 139.701 485.255 139.656C485.108 139.612 484.945 139.589 484.766 139.589C484.432 139.589 484.138 139.672 483.884 139.838C483.633 140.005 483.437 140.246 483.296 140.564C483.156 140.879 483.085 141.265 483.085 141.721C483.085 142.177 483.154 142.565 483.293 142.884C483.431 143.204 483.628 143.448 483.881 143.616C484.135 143.782 484.434 143.865 484.779 143.865C485.092 143.865 485.36 143.81 485.581 143.699C485.805 143.586 485.976 143.428 486.093 143.223C486.212 143.018 486.272 142.777 486.272 142.498L486.553 142.539H484.865V141.497H487.604V142.322C487.604 142.897 487.483 143.391 487.24 143.805C486.997 144.216 486.663 144.533 486.237 144.757C485.81 144.979 485.322 145.089 484.773 145.089C484.159 145.089 483.62 144.954 483.156 144.684C482.691 144.411 482.329 144.024 482.069 143.523C481.811 143.021 481.682 142.424 481.682 141.734C481.682 141.203 481.759 140.73 481.912 140.315C482.068 139.897 482.285 139.543 482.564 139.254C482.843 138.964 483.168 138.743 483.539 138.592C483.91 138.441 484.311 138.365 484.744 138.365C485.115 138.365 485.46 138.419 485.779 138.528C486.099 138.635 486.382 138.786 486.63 138.982C486.879 139.178 487.082 139.411 487.24 139.682C487.398 139.95 487.499 140.246 487.544 140.57H486.137ZM489.274 145V138.455H493.684V139.596H490.658V141.155H493.458V142.296H490.658V143.859H493.697V145H489.274ZM498.965 140.337C498.94 140.079 498.83 139.879 498.636 139.736C498.442 139.593 498.179 139.522 497.847 139.522C497.621 139.522 497.43 139.554 497.275 139.618C497.119 139.68 497 139.766 496.917 139.877C496.836 139.988 496.795 140.113 496.795 140.254C496.791 140.371 496.816 140.473 496.869 140.561C496.924 140.648 497 140.724 497.096 140.788C497.192 140.849 497.302 140.904 497.428 140.951C497.554 140.995 497.688 141.034 497.831 141.066L498.419 141.206C498.704 141.27 498.967 141.355 499.205 141.462C499.444 141.569 499.65 141.7 499.825 141.855C500 142.011 500.135 142.194 500.231 142.405C500.329 142.616 500.379 142.858 500.381 143.13C500.379 143.531 500.277 143.878 500.074 144.172C499.874 144.464 499.584 144.691 499.205 144.853C498.828 145.013 498.373 145.093 497.84 145.093C497.312 145.093 496.852 145.012 496.46 144.85C496.07 144.688 495.765 144.448 495.546 144.131C495.328 143.811 495.214 143.416 495.204 142.945H496.543C496.558 143.164 496.621 143.348 496.731 143.495C496.844 143.64 496.995 143.749 497.182 143.824C497.372 143.896 497.586 143.933 497.824 143.933C498.059 143.933 498.262 143.898 498.435 143.83C498.61 143.762 498.745 143.667 498.841 143.546C498.937 143.424 498.985 143.285 498.985 143.127C498.985 142.98 498.941 142.857 498.854 142.756C498.768 142.656 498.643 142.571 498.476 142.501C498.312 142.43 498.111 142.366 497.872 142.309L497.16 142.13C496.608 141.996 496.172 141.786 495.853 141.5C495.533 141.215 495.374 140.83 495.376 140.347C495.374 139.95 495.48 139.604 495.693 139.308C495.908 139.012 496.203 138.781 496.578 138.614C496.953 138.448 497.379 138.365 497.856 138.365C498.342 138.365 498.766 138.448 499.128 138.614C499.493 138.781 499.776 139.012 499.979 139.308C500.181 139.604 500.285 139.947 500.292 140.337H498.965ZM503.543 138.455L503.419 143.038H502.249L502.121 138.455H503.543ZM502.834 145.083C502.623 145.083 502.442 145.009 502.29 144.859C502.139 144.708 502.065 144.527 502.067 144.316C502.065 144.107 502.139 143.928 502.29 143.779C502.442 143.63 502.623 143.555 502.834 143.555C503.036 143.555 503.214 143.63 503.368 143.779C503.521 143.928 503.599 144.107 503.601 144.316C503.599 144.457 503.561 144.586 503.489 144.703C503.419 144.818 503.326 144.911 503.211 144.981C503.096 145.049 502.97 145.083 502.834 145.083Z"
    fill="#141414"
  />
  <path d="M472 133L472 88.5L472 44L395 44" stroke="#D8BD14" />
  <path
    d="M396.261 51.5477C400.823 51.5477 404.522 47.8434 404.522 43.2738C404.522 38.7043 400.823 35 396.261 35C391.699 35 388 38.7043 388 43.2738C388 47.8434 391.699 51.5477 396.261 51.5477Z"
    fill="#D8BD14"
  />
  <defs>
    <linearGradient
      id="paint0_linear_41315_2845"
      x1="142.73"
      y1="12.479"
      x2="150.322"
      y2="21.5938"
      gradientUnits="userSpaceOnUse"
    >
      <stop stop-color="#3C9AE8" />
      <stop offset="1" stop-color="#84E2D8" />
    </linearGradient>
  </defs>
</svg>
