<svg width="552" height="424" viewBox="0 0 552 424" fill="none" xmlns="http://www.w3.org/2000/svg">
  <path
    d="M297.128 254.686H9.66115C7.09977 254.683 4.64413 253.663 2.83296 251.849C1.02179 250.035 0.00297047 247.576 0 245.01V10.5731C0.00297422 8.00777 1.02179 5.54833 2.83296 3.73434C4.64413 1.92035 7.09977 0.899951 9.66115 0.896973H297.128C299.69 0.899948 302.145 1.92035 303.957 3.73434C305.768 5.54833 306.787 8.00777 306.79 10.5731V245.01C306.787 247.576 305.768 250.035 303.957 251.849C302.145 253.663 299.69 254.683 297.128 254.686Z"
    fill="#272727"
    fill-opacity="0.5"
  />
  <path
    d="M16.1787 7.78418C13.7114 7.78705 11.3459 8.77001 9.60129 10.5174C7.85667 12.2648 6.87534 14.634 6.87256 17.1051V238.484C6.87548 240.955 7.85687 243.324 9.60149 245.071C11.3461 246.818 13.7115 247.801 16.1787 247.804H212.939C235.999 247.778 258.107 238.591 274.413 222.26C290.719 205.929 299.891 183.786 299.917 160.69V17.1051C299.915 14.634 298.933 12.2648 297.189 10.5174C295.444 8.77001 293.079 7.78707 290.611 7.7842L16.1787 7.78418Z"
    fill="#020202"
    fill-opacity="0.66"
  />
  <line x1="6.50635" y1="33.0884" x2="299.079" y2="33.0884" stroke="#343434" />
  <line x1="38.5" y1="248.143" x2="38.5" y2="33.5896" stroke="#343434" />
  <line x1="113.217" y1="248.143" x2="113.217" y2="33.5896" stroke="#343434" />
  <rect x="13.5732" y="41.7417" width="16.4251" height="16.4251" rx="4" fill="#272727" />
  <rect x="98.8975" y="13.0571" width="141.667" height="13.3454" rx="4" fill="#272727" />
  <rect x="13.5732" y="63.2998" width="16.4251" height="16.4251" rx="4" fill="#272727" />
  <rect x="13.5732" y="84.8579" width="16.4251" height="16.4251" rx="4" fill="#272727" />
  <path
    fill-rule="evenodd"
    clip-rule="evenodd"
    d="M20.3646 26.4025C24.0498 26.4025 27.0373 23.4151 27.0373 19.7298C27.0373 16.0446 24.0498 13.0571 20.3646 13.0571C16.6794 13.0571 13.6919 16.0446 13.6919 19.7298C13.6919 23.4151 16.6794 26.4025 20.3646 26.4025ZM19.6234 23.437C22.0802 23.437 24.0719 21.4454 24.0719 18.9885C24.0719 16.5317 22.0802 14.5401 19.6234 14.5401C17.1666 14.5401 15.1749 16.5317 15.1749 18.9885C15.1749 21.4454 17.1666 23.437 19.6234 23.437Z"
    fill="url(#paint0_linear_41610_2991)"
  />
  <path
    opacity="0.6"
    d="M90.142 66.6634H52.997C52.5362 66.6634 52.0942 66.2048 51.7683 65.3886C51.4424 64.5724 51.2593 63.4654 51.2593 62.3112C51.2593 61.1569 51.4424 60.0499 51.7683 59.2337C52.0942 58.4175 52.5362 57.959 52.997 57.959H90.142C90.6029 57.959 91.0449 58.4175 91.3708 59.2337C91.6967 60.0499 91.8797 61.1569 91.8797 62.3112C91.8797 63.4654 91.6967 64.5724 91.3708 65.3886C91.0449 66.2048 90.6029 66.6634 90.142 66.6634V66.6634Z"
    fill="#33BCB7"
  />
  <path
    opacity="0.6"
    d="M96.9242 82.138H52.9802C52.5236 82.1364 52.0859 81.6772 51.7632 80.8612C51.4405 80.0451 51.2593 78.939 51.2593 77.7858C51.2593 76.6325 51.4405 75.5264 51.7632 74.7104C52.0859 73.8944 52.5236 73.4352 52.9802 73.4336H96.9242C97.1507 73.4328 97.375 73.5448 97.5844 73.7632C97.7937 73.9816 97.984 74.302 98.1443 74.7062C98.3045 75.1105 98.4317 75.5905 98.5184 76.1189C98.6052 76.6473 98.6498 77.2137 98.6498 77.7858C98.6498 78.3578 98.6052 78.9242 98.5184 79.4526C98.4317 79.9811 98.3045 80.4611 98.1443 80.8653C97.984 81.2695 97.7937 81.59 97.5844 81.8084C97.375 82.0268 97.1507 82.1387 96.9242 82.138V82.138Z"
    fill="#33BCB7"
  />
  <path
    opacity="0.6"
    d="M80.8842 97.6126H52.5833C52.2321 97.6126 51.8954 97.1541 51.6471 96.3379C51.3988 95.5217 51.2593 94.4147 51.2593 93.2604C51.2593 92.1061 51.3988 90.9991 51.6471 90.1829C51.8954 89.3667 52.2321 88.9082 52.5833 88.9082H80.8842C81.2353 88.9082 81.5721 89.3667 81.8204 90.1829C82.0687 90.9991 82.2082 92.1061 82.2082 93.2604C82.2082 94.4147 82.0687 95.5217 81.8204 96.3379C81.5721 97.1541 81.2353 97.6126 80.8842 97.6126V97.6126Z"
    fill="#33BCB7"
  />
  <path
    opacity="0.6"
    d="M96.9242 128.561H52.9802C52.5236 128.56 52.0859 128.101 51.7632 127.285C51.4405 126.468 51.2593 125.362 51.2593 124.209C51.2593 123.056 51.4405 121.95 51.7632 121.134C52.0859 120.318 52.5236 119.858 52.9802 119.857H96.9242C97.1507 119.856 97.375 119.968 97.5844 120.187C97.7937 120.405 97.984 120.725 98.1443 121.13C98.3045 121.534 98.4317 122.014 98.5184 122.542C98.6052 123.071 98.6498 123.637 98.6498 124.209C98.6498 124.781 98.6052 125.348 98.5184 125.876C98.4317 126.404 98.3045 126.884 98.1443 127.289C97.984 127.693 97.7937 128.013 97.5844 128.232C97.375 128.45 97.1507 128.562 96.9242 128.561V128.561Z"
    fill="#33BCB7"
  />
  <path
    opacity="0.6"
    d="M80.8842 144.035H52.5833C52.2321 144.035 51.8954 143.577 51.6471 142.761C51.3988 141.945 51.2593 140.838 51.2593 139.683C51.2593 138.529 51.3988 137.422 51.6471 136.606C51.8954 135.79 52.2321 135.331 52.5833 135.331H80.8842C81.2353 135.331 81.5721 135.79 81.8204 136.606C82.0687 137.422 82.2082 138.529 82.2082 139.683C82.2082 140.838 82.0687 141.945 81.8204 142.761C81.5721 143.577 81.2353 144.035 80.8842 144.035V144.035Z"
    fill="#33BCB7"
  />
  <path
    opacity="0.6"
    d="M96.9242 113.087H52.9802C52.5236 113.085 52.0859 112.626 51.7632 111.81C51.4405 110.994 51.2593 109.888 51.2593 108.735C51.2593 107.581 51.4405 106.475 51.7632 105.659C52.0859 104.843 52.5236 104.384 52.9802 104.382H96.9242C97.1507 104.382 97.375 104.494 97.5844 104.712C97.7937 104.93 97.984 105.251 98.1443 105.655C98.3045 106.059 98.4317 106.539 98.5184 107.068C98.6052 107.596 98.6498 108.162 98.6498 108.735C98.6498 109.307 98.6052 109.873 98.5184 110.401C98.4317 110.93 98.3045 111.41 98.1443 111.814C97.984 112.218 97.7937 112.539 97.5844 112.757C97.375 112.975 97.1507 113.087 96.9242 113.087V113.087Z"
    fill="#33BCB7"
  />
  <path
    opacity="0.2"
    d="M428.584 424H270.351C270.13 424 269.919 423.912 269.762 423.756C269.606 423.599 269.519 423.388 269.519 423.167C269.519 422.946 269.606 422.734 269.762 422.578C269.919 422.422 270.13 422.334 270.351 422.334H428.584C428.805 422.334 429.016 422.422 429.173 422.578C429.329 422.734 429.417 422.946 429.417 423.167C429.417 423.388 429.329 423.599 429.173 423.756C429.016 423.912 428.805 424 428.584 424Z"
    fill="#ACACAC"
  />
  <circle cx="180" cy="115" r="95" fill="#D9D9D9" fill-opacity="0.6" />
  <circle cx="293" cy="177" r="41" fill="#D9D9D9" fill-opacity="0.3" />
  <path
    d="M315.734 174.896L295.104 154.266C294.822 153.983 294.487 153.758 294.117 153.605C293.748 153.451 293.352 153.373 292.953 153.373C292.553 153.373 292.157 153.451 291.788 153.605C291.419 153.758 291.083 153.983 290.801 154.266L286.516 158.551L291.95 163.984C292.591 163.766 293.28 163.733 293.939 163.887C294.598 164.042 295.2 164.378 295.677 164.858C296.154 165.338 296.487 165.943 296.637 166.603C296.787 167.263 296.749 167.952 296.527 168.591L301.758 173.822C302.54 173.554 303.39 173.561 304.167 173.843C304.945 174.126 305.601 174.666 306.029 175.374C306.456 176.081 306.628 176.914 306.516 177.733C306.403 178.553 306.014 179.309 305.412 179.875C304.81 180.442 304.032 180.786 303.208 180.848C302.383 180.911 301.562 180.69 300.881 180.221C300.2 179.752 299.701 179.063 299.466 178.271C299.231 177.478 299.274 176.629 299.59 175.864L294.704 170.979V183.833C295.444 184.199 296.036 184.808 296.382 185.559C296.727 186.309 296.805 187.155 296.603 187.955C296.401 188.756 295.93 189.463 295.27 189.959C294.609 190.455 293.799 190.71 292.973 190.681C292.148 190.652 291.357 190.341 290.733 189.8C290.109 189.259 289.69 188.52 289.544 187.707C289.398 186.894 289.535 186.056 289.933 185.332C290.33 184.608 290.963 184.042 291.727 183.728V170.756C291.285 170.575 290.884 170.308 290.545 169.971C290.207 169.633 289.939 169.232 289.756 168.791C289.573 168.35 289.48 167.877 289.481 167.399C289.482 166.921 289.577 166.448 289.762 166.008L284.412 160.655L270.266 174.806C269.982 175.088 269.757 175.424 269.604 175.793C269.451 176.163 269.372 176.559 269.372 176.959C269.372 177.359 269.451 177.755 269.604 178.124C269.757 178.493 269.982 178.829 270.266 179.111L290.896 199.734C291.178 200.017 291.513 200.242 291.882 200.395C292.251 200.548 292.647 200.627 293.047 200.627C293.447 200.627 293.843 200.548 294.212 200.395C294.581 200.242 294.916 200.017 295.199 199.734L315.734 179.194C316.017 178.911 316.242 178.576 316.396 178.207C316.549 177.837 316.628 177.441 316.628 177.041C316.628 176.641 316.549 176.245 316.396 175.876C316.242 175.507 316.017 175.171 315.734 174.889"
    fill="#DD4C35"
  />
  <path
    d="M286.516 158.551L291.95 163.985C292.591 163.766 293.28 163.733 293.939 163.887C294.598 164.042 295.2 164.378 295.677 164.859C296.154 165.339 296.487 165.943 296.637 166.603C296.787 167.263 296.749 167.952 296.527 168.591L301.758 173.823C302.54 173.554 303.39 173.561 304.167 173.844C304.945 174.126 305.601 174.666 306.029 175.374C306.456 176.082 306.628 176.915 306.516 177.734C306.403 178.553 306.014 179.309 305.412 179.876C304.81 180.442 304.032 180.786 303.208 180.849C302.383 180.911 301.562 180.69 300.881 180.221C300.2 179.752 299.701 179.064 299.466 178.271C299.231 177.478 299.274 176.629 299.589 175.865L294.704 170.979V183.833C295.444 184.2 296.036 184.809 296.382 185.559C296.727 186.309 296.805 187.155 296.603 187.956C296.401 188.756 295.93 189.464 295.27 189.959C294.609 190.455 293.799 190.71 292.973 190.681C292.148 190.652 291.357 190.341 290.733 189.8C290.109 189.259 289.69 188.52 289.544 187.708C289.398 186.895 289.535 186.056 289.933 185.332C290.33 184.608 290.963 184.042 291.727 183.728V170.756C291.285 170.575 290.884 170.308 290.545 169.971C290.207 169.634 289.939 169.233 289.756 168.791C289.573 168.35 289.48 167.877 289.481 167.399C289.482 166.921 289.577 166.449 289.761 166.008L284.412 160.655"
    fill="white"
  />
  <path
    d="M185.057 44C143.035 43.983 109 78.0014 109 119.989C109 153.192 130.291 181.416 159.943 191.781C163.936 192.784 163.324 189.946 163.324 188.009V174.84C140.266 177.542 139.331 162.283 137.785 159.734C134.658 154.398 127.267 153.039 129.476 150.49C134.726 147.788 140.079 151.17 146.281 160.329C150.767 166.972 159.518 165.851 163.953 164.746C164.921 160.753 166.994 157.185 169.849 154.415C145.958 150.133 136.001 135.554 136.001 118.222C136.001 109.811 138.77 102.079 144.208 95.8432C140.741 85.5629 144.531 76.7609 145.04 75.4525C154.913 74.5689 165.176 82.5213 165.975 83.15C171.582 81.6377 177.988 80.8391 185.159 80.8391C192.364 80.8391 198.787 81.6717 204.445 83.201C206.365 81.7397 215.881 74.9088 225.057 75.7414C225.549 77.0498 229.254 85.6479 225.991 95.7922C231.497 102.045 234.3 109.845 234.3 118.273C234.3 135.639 224.275 150.235 200.316 154.449C202.368 156.467 203.998 158.874 205.109 161.529C206.221 164.184 206.792 167.034 206.79 169.912V189.028C206.926 190.558 206.79 192.07 209.339 192.07C239.432 181.926 261.097 153.498 261.097 120.006C261.097 78.0014 227.045 44 185.057 44V44Z"
    fill="#854ECA"
    fill-opacity="0.5"
  />
  <path
    d="M179.932 38.9595C137.91 38.9425 103.875 72.9608 103.875 114.949C103.875 148.151 125.166 176.375 154.818 186.741C158.811 187.743 158.199 184.905 158.199 182.968V169.799C135.141 172.501 134.206 157.242 132.66 154.693C129.533 149.358 122.142 147.998 124.351 145.45C129.601 142.748 134.954 146.129 141.156 155.288C145.642 161.932 154.393 160.81 158.828 159.706C159.796 155.713 161.869 152.144 164.724 149.375C140.833 145.093 130.876 130.513 130.876 113.181C130.876 104.77 133.645 97.0388 139.083 90.8026C135.616 80.5224 139.406 71.7204 139.915 70.412C149.788 69.5284 160.051 77.4808 160.85 78.1095C166.457 76.5972 172.863 75.7985 180.034 75.7985C187.239 75.7985 193.662 76.6312 199.32 78.1605C201.24 76.6991 210.756 69.8683 219.932 70.7009C220.424 72.0093 224.129 80.6073 220.866 90.7517C226.372 97.0048 229.175 104.804 229.175 113.232C229.175 130.598 219.15 145.195 195.191 149.409C197.243 151.427 198.873 153.834 199.984 156.489C201.096 159.144 201.667 161.993 201.665 164.872V183.988C201.801 185.517 201.665 187.029 204.214 187.029C234.307 176.885 255.972 148.457 255.972 114.966C255.972 72.9608 221.92 38.9595 179.932 38.9595V38.9595Z"
    fill="#51258F"
  />
  <path
    d="M406.196 149.015C417.492 149.015 426.65 139.858 426.65 128.561C426.65 117.264 417.492 108.106 406.196 108.106C394.899 108.106 385.741 117.264 385.741 128.561C385.741 139.858 394.899 149.015 406.196 149.015Z"
    fill="#A0616A"
  />
  <path
    d="M404.874 243.23C404.479 242.001 404.349 240.703 404.491 239.42C404.634 238.137 405.046 236.898 405.7 235.786C406.354 234.673 407.237 233.711 408.289 232.963C409.341 232.215 410.539 231.698 411.805 231.445C412.206 231.367 412.612 231.317 413.02 231.296L434.566 196.715L414.885 178.004C414.133 177.289 413.53 176.433 413.111 175.484C412.692 174.534 412.465 173.512 412.444 172.474C412.422 171.437 412.606 170.406 412.985 169.44C413.365 168.474 413.932 167.593 414.653 166.847C415.375 166.102 416.237 165.507 417.19 165.097C418.143 164.686 419.168 164.469 420.205 164.457C421.243 164.445 422.273 164.638 423.235 165.026C424.197 165.414 425.073 165.989 425.812 166.718L452.986 193.512L453.04 193.579C453.881 194.858 454.287 196.374 454.198 197.902C454.108 199.43 453.529 200.888 452.545 202.06L422.356 237.765C422.446 238.051 422.521 238.342 422.581 238.636C422.833 239.902 422.816 241.207 422.529 242.466C422.241 243.724 421.692 244.908 420.915 245.939C420.139 246.971 419.153 247.826 418.023 248.45C416.893 249.074 415.644 249.452 414.357 249.559C414.097 249.582 413.838 249.594 413.581 249.594C411.644 249.585 409.76 248.966 408.196 247.823C406.632 246.681 405.47 245.073 404.874 243.23V243.23Z"
    fill="#A0616A"
  />
  <path d="M372.507 413.236L362.296 413.236L357.439 373.854L372.508 373.855L372.507 413.236Z" fill="#A0616A" />
  <path
    d="M375.111 423.133L342.19 423.131V422.715C342.19 421.032 342.521 419.366 343.165 417.811C343.809 416.257 344.753 414.844 345.943 413.654C347.133 412.464 348.545 411.521 350.1 410.877C351.655 410.233 353.321 409.901 355.004 409.901H355.005L375.112 409.902L375.111 423.133Z"
    fill="#E0529C"
  />
  <path d="M473.989 399.12L465.216 404.344L440.894 372.992L453.842 365.283L473.989 399.12Z" fill="#A0616A" />
  <path
    d="M481.289 406.291L453.002 423.133L452.789 422.776C451.928 421.33 451.361 419.729 451.119 418.063C450.877 416.398 450.965 414.702 451.378 413.07C451.792 411.439 452.523 409.906 453.529 408.557C454.536 407.208 455.798 406.071 457.244 405.21L457.244 405.21L474.521 394.923L481.289 406.291Z"
    fill="#E0529C"
  />
  <path
    d="M356.152 395.893C349.313 315.356 345.244 240.538 370.247 210.017L370.44 209.78L412.518 226.612L412.587 226.762C412.729 227.071 426.723 257.853 423.459 278.558L433.838 326.301L467.679 382.966C467.952 383.422 468.124 383.931 468.185 384.459C468.246 384.986 468.194 385.521 468.032 386.027C467.871 386.533 467.603 387 467.248 387.395C466.893 387.79 466.458 388.105 465.971 388.319L451.265 394.789C450.435 395.15 449.503 395.201 448.639 394.931C447.775 394.661 447.037 394.088 446.561 393.319L409.747 333.29L388.954 287.248C388.841 286.998 388.649 286.792 388.408 286.662C388.166 286.532 387.888 286.486 387.618 286.529C387.347 286.573 387.098 286.704 386.909 286.903C386.72 287.102 386.602 287.358 386.573 287.63L375.047 395.975C374.951 396.896 374.517 397.748 373.828 398.367C373.14 398.986 372.247 399.328 371.321 399.327H359.888C358.95 399.321 358.047 398.966 357.357 398.331C356.666 397.697 356.237 396.827 356.152 395.893V395.893Z"
    fill="#AB7AE0"
  />
  <path
    d="M370.388 210.655L370.188 210.559L370.157 210.339C368.585 199.338 370.445 187.114 375.686 174.008C378.27 167.593 383.071 162.32 389.217 159.15C395.362 155.979 402.442 155.121 409.167 156.733V156.733C413.04 157.688 416.673 159.436 419.836 161.868C422.998 164.3 425.621 167.362 427.539 170.861C429.431 174.323 430.584 178.141 430.925 182.073C431.265 186.004 430.785 189.964 429.515 193.7C422.907 213.021 414.336 231.099 414.251 231.279L414.071 231.657L370.388 210.655Z"
    fill="#ACACAC"
  />
  <path
    d="M324.48 183.253C325.493 182.453 326.664 181.877 327.915 181.561C329.167 181.245 330.471 181.197 331.742 181.42C333.014 181.643 334.224 182.133 335.293 182.856C336.362 183.58 337.266 184.521 337.946 185.618C338.16 185.967 338.349 186.329 338.512 186.704L378.448 194.776L389.081 169.789C389.488 168.834 390.079 167.969 390.821 167.244C391.564 166.519 392.442 165.949 393.406 165.565C394.371 165.182 395.401 164.993 396.439 165.01C397.476 165.027 398.5 165.25 399.451 165.665C400.402 166.08 401.261 166.679 401.979 167.428C402.697 168.177 403.26 169.061 403.635 170.028C404.009 170.996 404.188 172.028 404.162 173.065C404.135 174.102 403.904 175.124 403.48 176.071L387.898 210.908L387.855 210.982C386.951 212.217 385.673 213.128 384.211 213.58C382.749 214.031 381.18 213.999 379.737 213.489L335.721 197.715C335.485 197.899 335.238 198.071 334.984 198.23C333.887 198.91 332.658 199.35 331.378 199.522C330.099 199.694 328.798 199.594 327.56 199.228C326.322 198.861 325.175 198.238 324.195 197.398C323.215 196.558 322.424 195.52 321.872 194.352C321.76 194.117 321.659 193.878 321.569 193.637C320.898 191.82 320.818 189.838 321.341 187.973C321.864 186.109 322.962 184.457 324.48 183.253V183.253Z"
    fill="#A0616A"
  />
  <path
    d="M480.089 150.466C478.119 146.975 475.248 143.778 471.454 142.487C466.553 140.821 461.246 142.595 456.207 143.78C452.325 144.692 448.269 145.251 444.356 144.481C440.444 143.711 436.669 141.433 434.889 137.865C432.27 132.615 434.476 126.355 434.317 120.491C434.235 117.298 433.429 114.166 431.961 111.33C430.492 108.494 428.399 106.029 425.839 104.119C423.28 102.21 420.32 100.907 417.183 100.308C414.046 99.7087 410.814 99.8295 407.731 100.661C402.906 99.2687 398.537 99.1399 395.553 102.849C391.798 102.849 388.197 104.341 385.542 106.996C382.887 109.651 381.396 113.252 381.396 117.007H394.933C394.291 120.459 395.025 124.025 396.977 126.943C399.367 130.454 403.522 132.994 404.322 137.165C405.097 141.207 402.35 145.042 399.467 147.98C396.586 150.918 393.242 153.829 392.342 157.846C391.791 160.894 392.417 164.039 394.094 166.644C395.768 169.217 397.845 171.505 400.245 173.419C411.06 182.684 423.912 189.259 437.753 192.608C447.5 194.954 458.161 195.562 467.21 191.245C470.83 189.519 474.056 187.066 476.687 184.039C479.319 181.013 481.3 177.478 482.508 173.653C483.716 169.829 484.125 165.797 483.708 161.808C483.292 157.819 482.06 153.959 480.089 150.466V150.466Z"
    fill="#262626"
  />
  <path
    d="M284.261 90.5477C288.823 90.5477 292.522 86.8434 292.522 82.2738C292.522 77.7043 288.823 74 284.261 74C279.699 74 276 77.7043 276 82.2738C276 86.8434 279.699 90.5477 284.261 90.5477Z"
    fill="#D8BD14"
  />
  <rect x="441" y="33" width="111" height="18" rx="9" fill="#D8BD14" />
  <path
    d="M455.409 40.5703C455.364 40.4148 455.301 40.2773 455.221 40.158C455.14 40.0366 455.04 39.9343 454.923 39.8512C454.808 39.766 454.676 39.701 454.527 39.6562C454.38 39.6115 454.217 39.5891 454.038 39.5891C453.703 39.5891 453.409 39.6722 453.156 39.8384C452.904 40.0046 452.708 40.2464 452.568 40.5639C452.427 40.8793 452.357 41.2649 452.357 41.7209C452.357 42.1768 452.426 42.5646 452.565 42.8842C452.703 43.2038 452.899 43.4478 453.153 43.6161C453.406 43.7823 453.706 43.8654 454.051 43.8654C454.364 43.8654 454.631 43.81 454.853 43.6992C455.077 43.5863 455.247 43.4276 455.364 43.223C455.484 43.0185 455.543 42.7766 455.543 42.4975L455.825 42.5391H454.137V41.4972H456.876V42.3217C456.876 42.897 456.755 43.3913 456.512 43.8047C456.269 44.2159 455.934 44.5334 455.508 44.7571C455.082 44.9787 454.594 45.0895 454.044 45.0895C453.431 45.0895 452.892 44.9542 452.427 44.6836C451.963 44.4109 451.6 44.0241 451.341 43.5234C451.083 43.0206 450.954 42.424 450.954 41.7337C450.954 41.2031 451.031 40.7301 451.184 40.3146C451.339 39.897 451.557 39.5433 451.836 39.2536C452.115 38.9638 452.44 38.7433 452.811 38.592C453.181 38.4407 453.583 38.3651 454.016 38.3651C454.386 38.3651 454.732 38.4194 455.051 38.5281C455.371 38.6346 455.654 38.7859 455.901 38.9819C456.151 39.1779 456.354 39.4112 456.512 39.6818C456.669 39.9503 456.771 40.2464 456.815 40.5703H455.409ZM459.929 38.4545V45H458.546V38.4545H459.929ZM461.449 39.5955V38.4545H466.824V39.5955H464.821V45H463.453V39.5955H461.449ZM472.437 38.4545V45H471.053V38.4545H472.437ZM479.68 38.4545V45H478.485L475.637 40.8803H475.589V45H474.205V38.4545H475.42L478.245 42.571H478.303V38.4545H479.68ZM481.204 39.5955V38.4545H486.58V39.5955H484.576V45H483.208V39.5955H481.204ZM488.095 45V38.4545H492.506V39.5955H489.479V41.1552H492.279V42.2962H489.479V43.859H492.518V45H488.095ZM498.576 40.5703C498.531 40.4148 498.468 40.2773 498.387 40.158C498.307 40.0366 498.207 39.9343 498.09 39.8512C497.975 39.766 497.843 39.701 497.694 39.6562C497.547 39.6115 497.384 39.5891 497.205 39.5891C496.87 39.5891 496.576 39.6722 496.323 39.8384C496.071 40.0046 495.875 40.2464 495.735 40.5639C495.594 40.8793 495.524 41.2649 495.524 41.7209C495.524 42.1768 495.593 42.5646 495.732 42.8842C495.87 43.2038 496.066 43.4478 496.32 43.6161C496.573 43.7823 496.873 43.8654 497.218 43.8654C497.531 43.8654 497.798 43.81 498.02 43.6992C498.244 43.5863 498.414 43.4276 498.531 43.223C498.651 43.0185 498.71 42.7766 498.71 42.4975L498.992 42.5391H497.304V41.4972H500.043V42.3217C500.043 42.897 499.922 43.3913 499.679 43.8047C499.436 44.2159 499.101 44.5334 498.675 44.7571C498.249 44.9787 497.761 45.0895 497.211 45.0895C496.598 45.0895 496.059 44.9542 495.594 44.6836C495.13 44.4109 494.767 44.0241 494.508 43.5234C494.25 43.0206 494.121 42.424 494.121 41.7337C494.121 41.2031 494.197 40.7301 494.351 40.3146C494.506 39.897 494.724 39.5433 495.003 39.2536C495.282 38.9638 495.607 38.7433 495.978 38.592C496.348 38.4407 496.75 38.3651 497.183 38.3651C497.553 38.3651 497.898 38.4194 498.218 38.5281C498.538 38.6346 498.821 38.7859 499.068 38.9819C499.318 39.1779 499.521 39.4112 499.679 39.6818C499.836 39.9503 499.938 40.2464 499.982 40.5703H498.576ZM501.713 45V38.4545H504.295C504.789 38.4545 505.211 38.543 505.561 38.7198C505.912 38.8945 506.179 39.1428 506.363 39.4645C506.548 39.7841 506.641 40.1602 506.641 40.5927C506.641 41.0273 506.547 41.4013 506.36 41.7145C506.172 42.0256 505.9 42.2642 505.545 42.4304C505.191 42.5966 504.763 42.6797 504.26 42.6797H502.531V41.5675H504.036C504.3 41.5675 504.52 41.5312 504.694 41.4588C504.869 41.3864 504.999 41.2777 505.084 41.1328C505.172 40.9879 505.215 40.8079 505.215 40.5927C505.215 40.3754 505.172 40.1921 505.084 40.043C504.999 39.8938 504.868 39.7809 504.691 39.7042C504.517 39.6254 504.296 39.5859 504.03 39.5859H503.096V45H501.713ZM505.247 42.0213L506.874 45H505.346L503.755 42.0213H505.247ZM509.377 45H507.894L510.154 38.4545H511.937L514.193 45H512.71L511.071 39.9503H511.02L509.377 45ZM509.284 42.4272H512.787V43.5075H509.284V42.4272ZM514.562 39.5955V38.4545H519.938V39.5955H517.934V45H516.566V39.5955H514.562ZM522.837 38.4545V45H521.453V38.4545H522.837ZM530.62 41.7273C530.62 42.4411 530.485 43.0483 530.215 43.549C529.946 44.0497 529.58 44.4322 529.115 44.6964C528.653 44.9585 528.133 45.0895 527.556 45.0895C526.974 45.0895 526.452 44.9574 525.989 44.6932C525.527 44.429 525.162 44.0465 524.893 43.5458C524.625 43.0451 524.491 42.4389 524.491 41.7273C524.491 41.0135 524.625 40.4062 524.893 39.9055C525.162 39.4048 525.527 39.0234 525.989 38.7614C526.452 38.4972 526.974 38.3651 527.556 38.3651C528.133 38.3651 528.653 38.4972 529.115 38.7614C529.58 39.0234 529.946 39.4048 530.215 39.9055C530.485 40.4062 530.62 41.0135 530.62 41.7273ZM529.217 41.7273C529.217 41.2649 529.148 40.875 529.01 40.5575C528.873 40.2401 528.681 39.9993 528.431 39.8352C528.182 39.6712 527.89 39.5891 527.556 39.5891C527.221 39.5891 526.929 39.6712 526.68 39.8352C526.431 39.9993 526.237 40.2401 526.098 40.5575C525.962 40.875 525.894 41.2649 525.894 41.7273C525.894 42.1896 525.962 42.5795 526.098 42.897C526.237 43.2145 526.431 43.4553 526.68 43.6193C526.929 43.7834 527.221 43.8654 527.556 43.8654C527.89 43.8654 528.182 43.7834 528.431 43.6193C528.681 43.4553 528.873 43.2145 529.01 42.897C529.148 42.5795 529.217 42.1896 529.217 41.7273ZM537.75 38.4545V45H536.555L533.707 40.8803H533.659V45H532.276V38.4545H533.49L536.315 42.571H536.373V38.4545H537.75ZM541.125 38.4545L541 43.0376H539.831L539.703 38.4545H541.125ZM540.415 45.0831C540.205 45.0831 540.023 45.0085 539.872 44.8594C539.721 44.7081 539.646 44.527 539.648 44.3161C539.646 44.1072 539.721 43.9283 539.872 43.7791C540.023 43.63 540.205 43.5554 540.415 43.5554C540.618 43.5554 540.796 43.63 540.949 43.7791C541.103 43.9283 541.18 44.1072 541.183 44.3161C541.18 44.4567 541.143 44.5856 541.071 44.7028C541 44.8178 540.908 44.9105 540.793 44.9808C540.678 45.049 540.552 45.0831 540.415 45.0831Z"
    fill="#141414"
  />
  <path d="M284 79L284 42L441 42" stroke="#D8BD14" />
  <defs>
    <linearGradient
      id="paint0_linear_41610_2991"
      x1="16.1386"
      y1="14.5696"
      x2="24.4572"
      y2="24.5564"
      gradientUnits="userSpaceOnUse"
    >
      <stop stop-color="#3C9AE8" />
      <stop offset="1" stop-color="#84E2D8" />
    </linearGradient>
  </defs>
</svg>
