<svg width="520" height="385" viewBox="0 0 520 385" fill="none" xmlns="http://www.w3.org/2000/svg">
<g clip-path="url(#clip0_41113_5083)">
<path d="M369.1 282.375H89.0732C86.5781 282.372 84.186 281.378 82.4217 279.611C80.6575 277.844 79.665 275.448 79.6621 272.949V44.58C79.665 42.0811 80.6575 39.6853 82.4217 37.9182C84.186 36.1512 86.5781 35.1572 89.0732 35.1543H369.1C371.595 35.1572 373.987 36.1512 375.752 37.9182C377.516 39.6853 378.509 42.0811 378.511 44.58V272.949C378.509 275.448 377.516 277.844 375.752 279.611C373.987 281.378 371.595 282.372 369.1 282.375Z" fill="#272727"/>
<path d="M95.4222 41.8633C93.0187 41.8661 90.7145 42.8237 89.015 44.5258C87.3156 46.228 86.3596 48.5358 86.3569 50.943V266.592C86.3598 268.999 87.3158 271.307 89.0152 273.009C90.7147 274.711 93.0188 275.668 95.4222 275.671H287.09C309.553 275.646 331.089 266.697 346.973 250.788C362.857 234.879 371.792 213.31 371.817 190.812V50.943C371.815 48.5358 370.859 46.228 369.159 44.5258C367.46 42.8237 365.156 41.8662 362.752 41.8634L95.4222 41.8633Z" fill="#020202"/>
<path d="M493.835 354.176C493.052 353.179 491.988 352.439 490.782 352.053C489.575 351.667 488.281 351.651 487.065 352.009L486.799 352.088L484.415 361.41C484.058 360.02 483.294 356.884 482.812 353.814L482.771 353.56L482.534 353.664C480.042 354.768 477.699 356.182 475.561 357.874C471.773 360.917 468.692 364.75 466.533 369.106C464.373 373.462 463.187 378.236 463.056 383.098L463.052 383.277L463.047 383.389L463.363 383.277L470.137 380.852C473.136 381.117 476.156 380.707 478.977 379.654C481.798 378.6 484.348 376.929 486.442 374.762C489.179 371.871 491.056 368.153 492.871 364.554C493.403 363.506 493.947 362.425 494.503 361.385C495.124 360.254 495.392 358.963 495.273 357.678C495.154 356.393 494.653 355.173 493.835 354.176Z" fill="#272727"/>
<path d="M402.442 377.638H395.742L392.555 351.756H402.443L402.442 377.638Z" fill="#FFB6B6"/>
<path d="M402.263 375.446L395.11 372.532L394.905 372.448L390.956 375.446C388.726 375.447 386.587 376.334 385.011 377.914C383.434 379.493 382.548 381.635 382.547 383.868V384.142H404.149V375.446H402.263Z" fill="#2F2E41"/>
<path d="M450.235 377.638H443.536L440.349 351.756H450.237L450.235 377.638Z" fill="#FFB6B6"/>
<path d="M450.057 375.446L442.904 372.532L442.699 372.448L438.749 375.446C436.519 375.447 434.381 376.334 432.804 377.914C431.227 379.493 430.341 381.635 430.341 383.868V384.142H451.942V375.446H450.057Z" fill="#2F2E41"/>
<path d="M434.424 223.082C434.424 223.082 442.827 231.838 442.827 239.033C442.827 246.227 440.726 256.106 442.827 258.268C444.928 260.43 447.554 263.06 444.402 266.216C441.251 269.372 439.676 270.95 441.776 273.054C443.877 275.158 442.827 311.98 442.827 311.98L453.856 361.425H439.961L422.344 311.979L417.617 270.95L402.33 310.401L404.018 361.85L389.492 361.425L383.479 306.719C383.479 306.719 392.407 254.681 390.832 253.347C389.256 252.013 390.832 249.321 390.832 249.321L395.033 229.395L434.424 223.082Z" fill="#594214"/>
<path d="M392.352 232.082L390.776 243.521C390.776 243.521 393.927 246.911 395.503 246.487C397.078 246.063 402.856 243.597 402.856 243.597C402.856 243.597 409.683 247.334 413.36 247.758C417.036 248.182 436.468 245.64 436.994 244.369C437.519 243.098 443.623 238.122 443.623 238.122L441.195 223.608L392.352 232.082Z" fill="#E6E6E6"/>
<path d="M443.522 192.063C443.522 192.063 442.188 203.094 443.238 204.109C444.289 205.119 442.188 211.51 440.087 215.718C437.986 219.926 441.663 220.452 441.663 223.608C441.663 226.764 443.238 238.337 443.238 238.337C443.238 238.337 426.957 239.389 424.331 236.759C421.705 234.129 417.503 236.233 411.726 242.019C405.949 247.805 393.402 243.071 390.776 240.441C388.15 237.811 392.819 228.343 394.394 226.507C395.97 224.671 392.877 226.796 391.301 220.978C389.725 215.161 392.819 215.718 395.445 213.088C398.071 210.458 395.445 205.724 393.344 200.99C391.243 196.255 392.819 161.012 392.819 152.596C392.819 144.18 404.373 143.128 404.373 143.128L408.948 137.368L412.309 133.133L418.895 132.87L419.068 132.865L425.439 132.607L428.533 136.216L435.36 144.18L443.238 145.758C449.541 147.862 447.965 161.012 447.965 161.012L443.522 192.063Z" fill="#AA9514"/>
<path d="M418.57 130.588C426.026 130.588 432.071 124.535 432.071 117.067C432.071 109.599 426.026 103.545 418.57 103.545C411.114 103.545 405.07 109.599 405.07 117.067C405.07 124.535 411.114 130.588 418.57 130.588Z" fill="#FFB6B6"/>
<path d="M434.224 112.518C430.51 110.237 430.986 104.274 427.408 102.191C425.63 101.165 423.63 100.583 421.58 100.497C419.529 100.411 417.488 100.822 415.63 101.696C413.11 100.616 410.091 101.478 408.075 103.428C406.059 105.378 404.967 108.254 404.646 111.147C404.413 114.053 404.622 116.978 405.264 119.822C405.464 118.68 405.664 117.537 405.864 116.394L416.507 114.065C415.565 114.912 414.623 115.76 413.681 116.608C418.501 117.707 423.558 116.915 427.814 114.394C432.447 116.475 431.607 121.147 427.54 127.347C429.116 129.977 438.455 115.117 434.224 112.518Z" fill="#2F2E41"/>
<path d="M428.533 136.216C428.502 136.24 428.471 136.263 428.438 136.284C427.325 136.949 426.052 137.294 424.756 137.283C423.061 137.425 421.377 136.896 420.066 135.811C419.378 135.158 416.642 136.536 414.846 137.299C412.962 138.081 410.849 138.106 408.948 137.368L412.309 133.133L417.849 131.903H419.232L425.439 132.607L428.533 136.216Z" fill="#E6E6E6"/>
<path d="M519.181 384.787L331.256 385C331.148 385.001 331.041 384.98 330.941 384.939C330.841 384.898 330.75 384.838 330.673 384.761C330.596 384.685 330.535 384.595 330.493 384.495C330.451 384.395 330.429 384.288 330.429 384.18C330.428 384.071 330.449 383.964 330.49 383.864C330.531 383.763 330.591 383.672 330.667 383.595C330.743 383.518 330.833 383.457 330.933 383.415C331.033 383.373 331.14 383.351 331.248 383.351H331.256L519.181 383.138C519.399 383.139 519.607 383.226 519.761 383.381C519.914 383.535 520 383.744 520 383.962C520 384.18 519.914 384.39 519.761 384.544C519.607 384.699 519.399 384.786 519.181 384.787Z" fill="#272727"/>
<path d="M437.908 242.055C440.507 241.575 442.226 239.075 441.746 236.472C441.267 233.868 438.771 232.147 436.171 232.627C433.572 233.107 431.853 235.607 432.332 238.211C432.812 240.814 435.308 242.536 437.908 242.055Z" fill="#D1D3D4"/>
<path d="M445.383 239.86C446.002 239.495 446.533 239 446.94 238.408C447.346 237.815 447.618 237.141 447.737 236.432C447.855 235.724 447.817 234.997 447.624 234.305C447.432 233.613 447.091 232.971 446.624 232.425L462.049 205.428L452.999 205.921L439.404 232.082C438.541 232.928 438.017 234.062 437.932 235.269C437.847 236.476 438.208 237.672 438.945 238.631C439.682 239.589 440.744 240.244 441.931 240.471C443.118 240.697 444.346 240.48 445.384 239.86H445.383Z" fill="#FFB8B8"/>
<path d="M428.009 145.232C428.009 145.232 444.346 139.971 448.548 152.596C452.75 165.22 466.874 199.412 466.874 199.412L451.699 230.447L444.872 223.082L452.169 201.516L431.16 169.954L428.009 145.232Z" fill="#AA9514"/>
<path d="M452.22 227.277C451.728 226.444 451.104 225.696 450.373 225.063L445.16 220.039L444.87 220.686C444.336 221.529 443.986 222.475 443.842 223.463C443.698 224.451 443.765 225.458 444.037 226.419C444.309 227.379 444.781 228.271 445.421 229.036C446.061 229.801 446.856 230.422 447.753 230.858C448.518 231.261 449.381 231.439 450.244 231.374C450.673 231.336 451.087 231.198 451.453 230.969C451.818 230.74 452.124 230.428 452.346 230.058C452.549 229.618 452.644 229.136 452.622 228.652C452.6 228.168 452.462 227.697 452.22 227.277Z" fill="#E6E6E6"/>
<line x1="86" y1="66.5" x2="371" y2="66.5" stroke="#343434"/>
<line x1="111.5" y1="276" x2="111.5" y2="67" stroke="#343434"/>
<line x1="198.5" y1="276" x2="198.5" y2="67" stroke="#343434"/>
<line x1="288.5" y1="276" x2="288.5" y2="67" stroke="#343434"/>
<path fill-rule="evenodd" clip-rule="evenodd" d="M100.5 60C104.09 60 107 57.0899 107 53.5C107 49.9101 104.09 47 100.5 47C96.9102 47 94 49.9101 94 53.5C94 57.0899 96.9102 60 100.5 60ZM99.7777 57.1111C102.171 57.1111 104.111 55.171 104.111 52.7778C104.111 50.3845 102.171 48.4444 99.7777 48.4444C97.3845 48.4444 95.4444 50.3845 95.4444 52.7778C95.4444 55.171 97.3845 57.1111 99.7777 57.1111Z" fill="url(#paint0_linear_41113_5083)"/>
<rect x="91" y="74" width="16" height="16" rx="4" fill="#272727"/>
<rect x="120" y="74" width="70" height="34" rx="4" fill="#272727"/>
<rect x="120" y="114" width="70" height="34" rx="4" fill="#272727"/>
<rect x="298" y="74" width="65" height="126" rx="4" fill="#272727"/>
<rect x="176" y="47" width="138" height="13" rx="4" fill="#272727"/>
<rect x="120" y="154" width="70" height="34" rx="4" fill="#272727"/>
<rect x="91" y="95" width="16" height="16" rx="4" fill="#272727"/>
<rect x="91" y="116" width="16" height="16" rx="4" fill="#272727"/>
<path d="M165.6 180.156C170.162 180.156 173.861 176.452 173.861 171.882C173.861 167.312 170.162 163.608 165.6 163.608C161.037 163.608 157.339 167.312 157.339 171.882C157.339 176.452 161.037 180.156 165.6 180.156Z" fill="#13A8A8"/>
<path d="M247.261 58.5477C251.823 58.5477 255.522 54.8434 255.522 50.2738C255.522 45.7043 251.823 42 247.261 42C242.699 42 239 45.7043 239 50.2738C239 54.8434 242.699 58.5477 247.261 58.5477Z" fill="#13A8A8"/>
<path d="M331 9C331 4.02944 335.029 0 340 0H400C404.971 0 409 4.02944 409 9C409 13.9706 404.971 18 400 18H340C335.029 18 331 13.9706 331 9Z" fill="#13A8A8"/>
<path d="M341.769 12H343.096V10.0005H344.384C345.72 10.0005 346.612 9.13916 346.612 7.83398V7.8252C346.612 6.52002 345.72 5.65869 344.384 5.65869H341.769V12ZM344.059 6.70898C344.819 6.70898 345.267 7.10889 345.267 7.82959V7.83838C345.267 8.55908 344.819 8.96338 344.059 8.96338H343.096V6.70898H344.059ZM348.463 12H349.791V9.67969H350.876L352.058 12H353.561L352.225 9.48193C352.95 9.19629 353.372 8.49756 353.372 7.68457V7.67578C353.372 6.42773 352.546 5.65869 351.105 5.65869H348.463V12ZM349.791 8.71289V6.6958H350.942C351.606 6.6958 352.014 7.09131 352.014 7.70215V7.71094C352.014 8.33496 351.623 8.71289 350.96 8.71289H349.791ZM358.115 12.1626C359.988 12.1626 361.165 10.8794 361.165 8.83154V8.82275C361.165 6.7749 359.983 5.49609 358.115 5.49609C356.248 5.49609 355.061 6.77051 355.061 8.82275V8.83154C355.061 10.8794 356.23 12.1626 358.115 12.1626ZM358.115 11.0376C357.07 11.0376 356.415 10.1719 356.415 8.83154V8.82275C356.415 7.47803 357.083 6.62109 358.115 6.62109C359.144 6.62109 359.812 7.47803 359.812 8.82275V8.83154C359.812 10.1719 359.148 11.0376 358.115 11.0376ZM364.762 12.1626C366.133 12.1626 366.928 11.3848 366.928 10.0488V5.65869H365.601V10.04C365.601 10.6772 365.307 11.0156 364.744 11.0156C364.225 11.0156 363.935 10.6729 363.909 10.1851V10.1587H362.621V10.1938C362.657 11.3848 363.452 12.1626 364.762 12.1626ZM369.101 12H373.302V10.9058H370.428V9.30176H373.139V8.28223H370.428V6.75293H373.302V5.65869H369.101V12ZM378.023 12.1626C379.552 12.1626 380.638 11.2573 380.774 9.93018L380.778 9.88184H379.486L379.478 9.91699C379.337 10.5938 378.788 11.0376 378.027 11.0376C377.025 11.0376 376.406 10.1938 376.406 8.83154V8.82275C376.406 7.46045 377.025 6.62109 378.023 6.62109C378.779 6.62109 379.346 7.10449 379.482 7.81641V7.84717H380.774V7.79443C380.651 6.4541 379.526 5.49609 378.023 5.49609C376.182 5.49609 375.048 6.76611 375.048 8.82275V8.83154C375.048 10.8882 376.186 12.1626 378.023 12.1626ZM384.036 12H385.363V6.75293H387.266V5.65869H382.134V6.75293H384.036V12ZM391.337 12.1626C392.919 12.1626 393.895 11.3672 393.895 10.1104V10.106C393.895 9.11719 393.31 8.58105 391.97 8.3042L391.298 8.16797C390.551 8.01416 390.243 7.76807 390.243 7.35498V7.35059C390.243 6.87598 390.678 6.57715 391.333 6.57275C392.001 6.57275 392.44 6.88916 392.515 7.3418L392.524 7.39453H393.772L393.767 7.3374C393.684 6.27832 392.814 5.49609 391.333 5.49609C389.927 5.49609 388.916 6.27393 388.916 7.45166V7.45605C388.916 8.41846 389.483 9.03369 390.801 9.30176L391.469 9.43799C392.256 9.60059 392.568 9.8335 392.568 10.251V10.2554C392.568 10.7432 392.08 11.0815 391.372 11.0815C390.63 11.0815 390.116 10.7607 390.067 10.2861L390.063 10.2422H388.784L388.788 10.3125C388.863 11.4375 389.821 12.1626 391.337 12.1626ZM396.028 9.9082H397.201L397.32 5.6543H395.914L396.028 9.9082ZM396.617 12.1274C397.113 12.1274 397.416 11.8462 397.416 11.3936C397.416 10.9365 397.113 10.6553 396.617 10.6553C396.124 10.6553 395.817 10.9365 395.817 11.3936C395.817 11.8462 396.124 12.1274 396.617 12.1274Z" fill="#141414"/>
<path d="M184 322C184 317.029 188.029 313 193 313H267C271.971 313 276 317.029 276 322C276 326.971 271.971 331 267 331H193C188.029 331 184 326.971 184 322Z" fill="#13A8A8"/>
<path d="M193.769 325H195.096V322.504H197.676V321.454H195.096V319.753H197.922V318.659H193.769V325ZM202.551 325.163C204.423 325.163 205.601 323.879 205.601 321.832V321.823C205.601 319.775 204.419 318.496 202.551 318.496C200.683 318.496 199.497 319.771 199.497 321.823V321.832C199.497 323.879 200.666 325.163 202.551 325.163ZM202.551 324.038C201.505 324.038 200.85 323.172 200.85 321.832V321.823C200.85 320.478 201.518 319.621 202.551 319.621C203.579 319.621 204.247 320.478 204.247 321.823V321.832C204.247 323.172 203.584 324.038 202.551 324.038ZM207.492 325H208.819V322.68H209.905L211.087 325H212.59L211.254 322.482C211.979 322.196 212.401 321.498 212.401 320.685V320.676C212.401 319.428 211.574 318.659 210.133 318.659H207.492V325ZM208.819 321.713V319.696H209.97C210.634 319.696 211.043 320.091 211.043 320.702V320.711C211.043 321.335 210.652 321.713 209.988 321.713H208.819ZM214.371 325H215.553V320.685H215.641L217.267 325H218.098L219.723 320.685H219.811V325H220.994V318.659H219.473L217.724 323.299H217.645L215.891 318.659H214.371V325ZM226.116 325H230.317V323.906H227.443V322.302H230.155V321.282H227.443V319.753H230.317V318.659H226.116V325ZM232.345 325H234.841C236.739 325 237.816 323.84 237.816 321.792V321.783C237.816 319.797 236.726 318.659 234.841 318.659H232.345V325ZM233.672 323.906V319.753H234.63C235.781 319.753 236.463 320.5 236.463 321.805V321.814C236.463 323.167 235.803 323.906 234.63 323.906H233.672ZM239.707 325H241.035V318.659H239.707V325ZM244.741 325H246.068V319.753H247.971V318.659H242.838V319.753H244.741V325ZM252.327 325.163C254.199 325.163 255.377 323.879 255.377 321.832V321.823C255.377 319.775 254.195 318.496 252.327 318.496C250.46 318.496 249.273 319.771 249.273 321.823V321.832C249.273 323.879 250.442 325.163 252.327 325.163ZM252.327 324.038C251.281 324.038 250.627 323.172 250.627 321.832V321.823C250.627 320.478 251.295 319.621 252.327 319.621C253.356 319.621 254.024 320.478 254.024 321.823V321.832C254.024 323.172 253.36 324.038 252.327 324.038ZM257.268 325H258.595V322.68H259.681L260.863 325H262.366L261.03 322.482C261.755 322.196 262.177 321.498 262.177 320.685V320.676C262.177 319.428 261.351 318.659 259.909 318.659H257.268V325ZM258.595 321.713V319.696H259.747C260.41 319.696 260.819 320.091 260.819 320.702V320.711C260.819 321.335 260.428 321.713 259.764 321.713H258.595ZM264.393 322.908H265.567L265.685 318.654H264.279L264.393 322.908ZM264.982 325.127C265.479 325.127 265.782 324.846 265.782 324.394C265.782 323.937 265.479 323.655 264.982 323.655C264.49 323.655 264.182 323.937 264.182 324.394C264.182 324.846 264.49 325.127 264.982 325.127Z" fill="#141414"/>
<path d="M166 176V236H91" stroke="#13A8A8"/>
<path d="M231 313L231 185L326 185" stroke="#13A8A8"/>
<path d="M247 47L247 10L331 10" stroke="#13A8A8"/>
<path d="M14 237C14 232.029 18.0294 228 23 228H87C91.9706 228 96 232.029 96 237C96 241.971 91.9706 246 87 246H23C18.0294 246 14 241.971 14 237Z" fill="#13A8A8"/>
<path d="M25.3071 240H26.6343V234.753H28.5371V233.659H23.4043V234.753H25.3071V240ZM30.3404 240H34.5416V238.906H31.6676V237.302H34.379V236.282H31.6676V234.753H34.5416V233.659H30.3404V240ZM36.5691 240H37.7512V235.685H37.8391L39.4651 240H40.2956L41.9216 235.685H42.0095V240H43.1916V233.659H41.6711L39.9221 238.299H39.843L38.0896 233.659H36.5691V240ZM45.3641 240H46.6913V238H47.9789C49.3148 238 50.2069 237.139 50.2069 235.834V235.825C50.2069 234.52 49.3148 233.659 47.9789 233.659H45.3641V240ZM47.6537 234.709C48.4139 234.709 48.8622 235.109 48.8622 235.83V235.838C48.8622 236.559 48.4139 236.963 47.6537 236.963H46.6913V234.709H47.6537ZM52.0586 240H56.207V238.906H53.3857V233.659H52.0586V240ZM57.5885 240H58.9815L59.4518 238.462H61.6886L62.1588 240H63.5563L61.3502 233.659H59.7901L57.5885 240ZM60.5328 234.924H60.6119L61.3854 237.469H59.755L60.5328 234.924ZM66.1154 240H67.4426V234.753H69.3454V233.659H64.2126V234.753H66.1154V240ZM71.1488 240H75.3499V238.906H72.4759V237.302H75.1873V236.282H72.4759V234.753H75.3499V233.659H71.1488V240ZM79.645 240.163C81.227 240.163 82.2026 239.367 82.2026 238.11V238.106C82.2026 237.117 81.6181 236.581 80.2778 236.304L79.6054 236.168C78.8584 236.014 78.5507 235.768 78.5507 235.355V235.351C78.5507 234.876 78.9858 234.577 79.6406 234.573C80.3086 234.573 80.748 234.889 80.8227 235.342L80.8315 235.395H82.0796L82.0752 235.337C81.9917 234.278 81.1215 233.496 79.6406 233.496C78.2343 233.496 77.2236 234.274 77.2236 235.452V235.456C77.2236 236.418 77.7905 237.034 79.1088 237.302L79.7768 237.438C80.5634 237.601 80.8755 237.833 80.8755 238.251V238.255C80.8755 238.743 80.3877 239.082 79.6801 239.082C78.9375 239.082 78.4233 238.761 78.375 238.286L78.3706 238.242H77.0918L77.0962 238.312C77.1709 239.438 78.1289 240.163 79.645 240.163ZM84.3355 237.908H85.5089L85.6275 233.654H84.2213L84.3355 237.908ZM84.9244 240.127C85.421 240.127 85.7242 239.846 85.7242 239.394C85.7242 238.937 85.421 238.655 84.9244 238.655C84.4322 238.655 84.1246 238.937 84.1246 239.394C84.1246 239.846 84.4322 240.127 84.9244 240.127Z" fill="#141414"/>
<path d="M320.851 116.46C320.987 117.165 321.276 117.833 321.697 118.414C322.119 118.996 322.662 119.478 323.29 119.827C323.917 120.176 324.613 120.382 325.329 120.432C326.045 120.482 326.763 120.375 327.433 120.117L347.677 143.704L350.24 134.997L330.17 113.417C329.662 112.319 328.771 111.445 327.663 110.961C326.556 110.478 325.31 110.418 324.161 110.793C323.012 111.168 322.041 111.952 321.431 112.996C320.821 114.041 320.615 115.273 320.851 116.46L320.851 116.46Z" fill="#FFB8B8"/>
<path d="M417.971 161.002C417.971 161.002 420.828 149.725 407.664 146.492C394.5 143.259 356.871 139.105 356.871 139.105L337.855 118.894L331.411 128.267L352.729 154.8L403.241 165.191L417.971 161.002Z" fill="#AA9514"/>
<path d="M334.543 127.576C335.134 126.81 335.596 125.952 335.911 125.037L338.638 118.326L337.93 118.296C336.951 118.112 335.943 118.136 334.974 118.369C334.005 118.602 333.095 119.037 332.306 119.646C331.516 120.255 330.863 121.025 330.391 121.904C329.919 122.783 329.638 123.753 329.566 124.748C329.477 125.61 329.631 126.479 330.012 127.256C330.206 127.642 330.488 127.976 330.835 128.231C331.183 128.486 331.586 128.655 332.011 128.725C332.494 128.751 332.976 128.66 333.417 128.46C333.858 128.26 334.244 127.957 334.543 127.576Z" fill="#E6E6E6"/>
<path d="M331.261 192.548C335.823 192.548 339.522 188.843 339.522 184.274C339.522 179.704 335.823 176 331.261 176C326.699 176 323 179.704 323 184.274C323 188.843 326.699 192.548 331.261 192.548Z" fill="#13A8A8"/>
<path d="M143.688 83.5H142.375V81.8125C142.375 81.5008 142.124 81.25 141.812 81.25H127.938C127.626 81.25 127.375 81.5008 127.375 81.8125V88.1875C127.375 88.4992 127.626 88.75 127.938 88.75H141.812C142.124 88.75 142.375 88.4992 142.375 88.1875V85H143.125V89.6875H134.898C134.38 89.6875 133.961 90.107 133.961 90.625V93.8125H132.93C132.827 93.8125 132.742 93.8969 132.742 94V99.3438C132.742 99.3695 132.747 99.3953 132.756 99.4164C132.747 99.4539 132.742 99.4914 132.742 99.5312C132.742 100.619 133.623 101.5 134.711 101.5C135.798 101.5 136.68 100.619 136.68 99.5312C136.68 99.4914 136.675 99.4539 136.666 99.4164C136.675 99.393 136.68 99.3695 136.68 99.3438V94C136.68 93.8969 136.595 93.8125 136.492 93.8125H135.461V91.1875H143.688C144.205 91.1875 144.625 90.768 144.625 90.25V84.4375C144.625 83.9195 144.205 83.5 143.688 83.5Z" fill="#5A5A5A"/>
<path d="M143.688 163.5H142.375V161.812C142.375 161.501 142.124 161.25 141.812 161.25H127.938C127.626 161.25 127.375 161.501 127.375 161.812V168.188C127.375 168.499 127.626 168.75 127.938 168.75H141.812C142.124 168.75 142.375 168.499 142.375 168.188V165H143.125V169.688H134.898C134.38 169.688 133.961 170.107 133.961 170.625V173.812H132.93C132.827 173.812 132.742 173.897 132.742 174V179.344C132.742 179.37 132.747 179.395 132.756 179.416C132.747 179.454 132.742 179.491 132.742 179.531C132.742 180.619 133.623 181.5 134.711 181.5C135.798 181.5 136.68 180.619 136.68 179.531C136.68 179.491 136.675 179.454 136.666 179.416C136.675 179.393 136.68 179.37 136.68 179.344V174C136.68 173.897 136.595 173.812 136.492 173.812H135.461V171.188H143.688C144.205 171.188 144.625 170.768 144.625 170.25V164.438C144.625 163.92 144.205 163.5 143.688 163.5Z" fill="#5A5A5A"/>
<path d="M143.688 123.5H142.375V121.812C142.375 121.501 142.124 121.25 141.812 121.25H127.938C127.626 121.25 127.375 121.501 127.375 121.812V128.188C127.375 128.499 127.626 128.75 127.938 128.75H141.812C142.124 128.75 142.375 128.499 142.375 128.188V125H143.125V129.688H134.898C134.38 129.688 133.961 130.107 133.961 130.625V133.812H132.93C132.827 133.812 132.742 133.897 132.742 134V139.344C132.742 139.37 132.747 139.395 132.756 139.416C132.747 139.454 132.742 139.491 132.742 139.531C132.742 140.619 133.623 141.5 134.711 141.5C135.798 141.5 136.68 140.619 136.68 139.531C136.68 139.491 136.675 139.454 136.666 139.416C136.675 139.393 136.68 139.37 136.68 139.344V134C136.68 133.897 136.595 133.812 136.492 133.812H135.461V131.188H143.688C144.205 131.188 144.625 130.768 144.625 130.25V124.438C144.625 123.92 144.205 123.5 143.688 123.5Z" fill="#5A5A5A"/>
</g>
<defs>
<linearGradient id="paint0_linear_41113_5083" x1="96.3833" y1="48.4733" x2="104.487" y2="58.2017" gradientUnits="userSpaceOnUse">
<stop stop-color="#3C9AE8"/>
<stop offset="1" stop-color="#84E2D8"/>
</linearGradient>
<clipPath id="clip0_41113_5083">
<rect width="520" height="385" fill="white"/>
</clipPath>
</defs>
</svg>
