<svg width="35" height="33" viewBox="0 0 35 33" fill="none" xmlns="http://www.w3.org/2000/svg">
    <path d="M16.63 1.5238L4.09571 7.55999L1 21.1232L9.67398 32H23.586L32.2599 21.1232"
        stroke="white" stroke-width="1.5" />
    <path
        d="M27.1053 0H27.8947C27.9649 0 28 0.0592593 28 0.177778V15.8222C28 15.9407 27.9649 16 27.8947 16H27.1053C27.0351 16 27 15.9407 27 15.8222V0.177778C27 0.0592593 27.0351 0 27.1053 0Z"
        fill="white" />
    <path
        d="M20.1744 8H34.8256C34.9419 8 35 8.03509 35 8.10526V8.89474C35 8.96491 34.9419 9 34.8256 9H20.1744C20.0581 9 20 8.96491 20 8.89474V8.10526C20 8.03509 20.0581 8 20.1744 8Z"
        fill="white" />
</svg>