<svg width="37" height="33" viewBox="0 0 37 33" fill="none" xmlns="http://www.w3.org/2000/svg">
    <path d="M16.63 1.5238L4.09571 7.55999L1 21.1232L9.67398 32H23.586L32.2599 21.1232"
        stroke="#262626" stroke-width="1.5" />
    <path
        d="M36.1304 2H34.913V0.5C34.913 0.222917 34.6804 0 34.3913 0H21.5217C21.2326 0 21 0.222917 21 0.5V6.16667C21 6.44375 21.2326 6.66667 21.5217 6.66667H34.3913C34.6804 6.66667 34.913 6.44375 34.913 6.16667V3.33333H35.6087V7.5H27.9783C27.4978 7.5 27.1087 7.87292 27.1087 8.33333V11.1667H26.1522C26.0565 11.1667 25.9783 11.2417 25.9783 11.3333V16.0833C25.9783 16.0958 25.9804 16.1104 25.9826 16.1229C25.9804 16.1646 25.9783 16.2083 25.9783 16.25C25.9783 17.2167 26.7957 18 27.8043 18C28.813 18 29.6304 17.2167 29.6304 16.25C29.6304 16.2063 29.6283 16.1646 29.6261 16.1229C29.6283 16.1104 29.6304 16.0979 29.6304 16.0833V11.3333C29.6304 11.2417 29.5522 11.1667 29.4565 11.1667H28.5V8.83333H36.1304C36.6109 8.83333 37 8.46042 37 8V2.83333C37 2.37292 36.6109 2 36.1304 2ZM33.5217 5.33333H22.3913V1.33333H33.5217V5.33333ZM28.2391 16.25C28.2391 16.4792 28.0435 16.6667 27.8043 16.6667C27.5652 16.6667 27.3696 16.4792 27.3696 16.25V12.5H28.2391V16.25Z"
        fill="#7D7D7D" />
</svg>