<svg width="37" height="33" viewBox="0 0 37 33" fill="none" xmlns="http://www.w3.org/2000/svg">
    <path d="M16.63 1.5238L4.09571 7.55999L1 21.1232L9.67398 32H23.586L32.2599 21.1232"
        stroke="white" stroke-width="1.5" />
    <path fill-rule="evenodd" clip-rule="evenodd"
        d="M29.644 1.59307C29.644 2.18273 29.3237 2.69758 28.8475 2.97303V3.18615H34.4233C35.743 3.18615 36.8129 4.25602 36.8129 5.57576V15.1342C36.8129 16.454 35.743 17.5238 34.4233 17.5238H21.6787C20.3589 17.5238 19.2891 16.454 19.2891 15.1342V5.57576C19.2891 4.25602 20.3589 3.18615 21.6787 3.18615H27.2544V2.97303C26.7783 2.69758 26.4579 2.18273 26.4579 1.59307C26.4579 0.713244 27.1711 0 28.051 0C28.9308 0 29.644 0.713244 29.644 1.59307ZM21.6787 4.77922H27.2544H28.8475H34.4233C34.8632 4.77922 35.2198 5.13585 35.2198 5.57576V15.1342C35.2198 15.5741 34.8632 15.9307 34.4233 15.9307H21.6787C21.2388 15.9307 20.8821 15.5741 20.8821 15.1342V5.57576C20.8821 5.13585 21.2388 4.77922 21.6787 4.77922ZM30.4406 9.16017C30.4406 8.50032 30.9755 7.96537 31.6354 7.96537C32.2952 7.96537 32.8302 8.50032 32.8302 9.16017C32.8302 9.82002 32.2952 10.355 31.6354 10.355C30.9755 10.355 30.4406 9.82002 30.4406 9.16017ZM31.6354 6.37229C30.0957 6.37229 28.8475 7.62047 28.8475 9.16017C28.8475 10.6999 30.0957 11.9481 31.6354 11.9481C33.1751 11.9481 34.4233 10.6999 34.4233 9.16017C34.4233 7.62047 33.1751 6.37229 31.6354 6.37229ZM24.4666 7.96537C23.8067 7.96537 23.2717 8.50032 23.2717 9.16017C23.2717 9.82002 23.8067 10.355 24.4666 10.355C25.1264 10.355 25.6614 9.82002 25.6614 9.16017C25.6614 8.50032 25.1264 7.96537 24.4666 7.96537ZM21.6787 9.16017C21.6787 7.62047 22.9268 6.37229 24.4666 6.37229C26.0063 6.37229 27.2544 7.62047 27.2544 9.16017C27.2544 10.6999 26.0063 11.9481 24.4666 11.9481C22.9268 11.9481 21.6787 10.6999 21.6787 9.16017ZM27.1703 13.1849C26.9736 12.7914 26.4952 12.632 26.1017 12.8287C25.7082 13.0254 25.5487 13.5038 25.7454 13.8973C26.2034 14.8133 27.2403 15.1342 28.051 15.1342C28.8617 15.1342 29.8985 14.8133 30.3565 13.8973C30.5532 13.5038 30.3937 13.0254 30.0003 12.8287C29.6068 12.632 29.1284 12.7914 28.9316 13.1849C28.8586 13.331 28.5678 13.5411 28.051 13.5411C27.5342 13.5411 27.2434 13.331 27.1703 13.1849Z"
        fill="white" />
</svg>