<svg width="77" height="69" viewBox="0 0 77 69" fill="none" xmlns="http://www.w3.org/2000/svg">
  <path
    d="M34.7356 3.19147L8.4837 15.8337L2 44.2407L20.1669 67.0213H49.3044L67.4713 44.2407"
    stroke="#161D40"
    stroke-width="3"
  />
  <path
    fill-rule="evenodd"
    clip-rule="evenodd"
    d="M61.9845 3.33656C61.9845 4.57155 61.3135 5.64984 60.3162 6.22675V6.67311H71.9942C74.7583 6.67311 76.999 8.91386 76.999 11.6779V31.6973C76.999 34.4615 74.7583 36.7021 71.9942 36.7021H45.3017C42.5376 36.7021 40.2969 34.4615 40.2969 31.6973V11.6779C40.2969 8.91386 42.5376 6.67311 45.3017 6.67311H56.9797V6.22675C55.9824 5.64984 55.3114 4.57155 55.3114 3.33656C55.3114 1.49383 56.8052 0 58.6479 0C60.4907 0 61.9845 1.49383 61.9845 3.33656ZM45.3017 10.0097H56.9797H60.3162H71.9942C72.9156 10.0097 73.6624 10.7566 73.6624 11.6779V31.6973C73.6624 32.6187 72.9156 33.3656 71.9942 33.3656H45.3017C44.3804 33.3656 43.6334 32.6187 43.6334 31.6973V11.6779C43.6334 10.7566 44.3804 10.0097 45.3017 10.0097ZM63.6528 19.1852C63.6528 17.8032 64.7732 16.6828 66.1552 16.6828C67.5372 16.6828 68.6576 17.8032 68.6576 19.1852C68.6576 20.5672 67.5372 21.6876 66.1552 21.6876C64.7732 21.6876 63.6528 20.5672 63.6528 19.1852ZM66.1552 13.3462C62.9304 13.3462 60.3162 15.9604 60.3162 19.1852C60.3162 22.41 62.9304 25.0242 66.1552 25.0242C69.38 25.0242 71.9942 22.41 71.9942 19.1852C71.9942 15.9604 69.38 13.3462 66.1552 13.3462ZM51.1407 16.6828C49.7586 16.6828 48.6383 17.8032 48.6383 19.1852C48.6383 20.5672 49.7586 21.6876 51.1407 21.6876C52.5227 21.6876 53.6431 20.5672 53.6431 19.1852C53.6431 17.8032 52.5227 16.6828 51.1407 16.6828ZM45.3017 19.1852C45.3017 15.9604 47.9159 13.3462 51.1407 13.3462C54.3655 13.3462 56.9797 15.9604 56.9797 19.1852C56.9797 22.41 54.3655 25.0242 51.1407 25.0242C47.9159 25.0242 45.3017 22.41 45.3017 19.1852ZM56.8035 27.6147C56.3914 26.7906 55.3895 26.4566 54.5653 26.8686C53.7412 27.2807 53.4072 28.2827 53.8192 29.1068C54.7784 31.0251 56.95 31.6973 58.6479 31.6973C60.3459 31.6973 62.5175 31.0251 63.4766 29.1068C63.8887 28.2827 63.5547 27.2807 62.7306 26.8686C61.9064 26.4566 60.9045 26.7906 60.4924 27.6147C60.3394 27.9206 59.7303 28.3607 58.6479 28.3607C57.5656 28.3607 56.9565 27.9206 56.8035 27.6147Z"
    fill="#262626"
  />
</svg>
