<svg width="49" height="43" viewBox="0 0 49 43" fill="none" xmlns="http://www.w3.org/2000/svg">
  <path d="M22.5143 2L6.06312 9.92249L2 27.7242L13.3846 42H31.6441L43.0287 27.7242" stroke="#DBDBDB" stroke-width="2" />
  <path
    fill-rule="evenodd"
    clip-rule="evenodd"
    d="M39.5909 2.09091C39.5909 2.86484 39.1704 3.54057 38.5455 3.9021V4.18182H45.8636C47.5958 4.18182 49 5.58602 49 7.31818V19.8636C49 21.5958 47.5958 23 45.8636 23H29.1364C27.4042 23 26 21.5958 26 19.8636V7.31818C26 5.58602 27.4042 4.18182 29.1364 4.18182H36.4545V3.9021C35.8296 3.54057 35.4091 2.86484 35.4091 2.09091C35.4091 0.936132 36.3452 0 37.5 0C38.6548 0 39.5909 0.936132 39.5909 2.09091ZM29.1364 6.27273H36.4545H38.5455H45.8636C46.441 6.27273 46.9091 6.7408 46.9091 7.31818V19.8636C46.9091 20.441 46.441 20.9091 45.8636 20.9091H29.1364C28.559 20.9091 28.0909 20.441 28.0909 19.8636V7.31818C28.0909 6.7408 28.559 6.27273 29.1364 6.27273ZM40.6364 12.0227C40.6364 11.1567 41.3385 10.4545 42.2045 10.4545C43.0706 10.4545 43.7727 11.1567 43.7727 12.0227C43.7727 12.8888 43.0706 13.5909 42.2045 13.5909C41.3385 13.5909 40.6364 12.8888 40.6364 12.0227ZM42.2045 8.36364C40.1837 8.36364 38.5455 10.0019 38.5455 12.0227C38.5455 14.0436 40.1837 15.6818 42.2045 15.6818C44.2254 15.6818 45.8636 14.0436 45.8636 12.0227C45.8636 10.0019 44.2254 8.36364 42.2045 8.36364ZM32.7955 10.4545C31.9294 10.4545 31.2273 11.1567 31.2273 12.0227C31.2273 12.8888 31.9294 13.5909 32.7955 13.5909C33.6615 13.5909 34.3636 12.8888 34.3636 12.0227C34.3636 11.1567 33.6615 10.4545 32.7955 10.4545ZM29.1364 12.0227C29.1364 10.0019 30.7746 8.36364 32.7955 8.36364C34.8163 8.36364 36.4545 10.0019 36.4545 12.0227C36.4545 14.0436 34.8163 15.6818 32.7955 15.6818C30.7746 15.6818 29.1364 14.0436 29.1364 12.0227ZM36.3441 17.3052C36.0859 16.7887 35.458 16.5794 34.9416 16.8377C34.4251 17.0959 34.2158 17.7238 34.474 18.2403C35.0751 19.4424 36.4359 19.8636 37.5 19.8636C38.5641 19.8636 39.9249 19.4424 40.526 18.2403C40.7842 17.7238 40.5749 17.0959 40.0584 16.8377C39.542 16.5794 38.9141 16.7887 38.6559 17.3052C38.56 17.4969 38.1783 17.7727 37.5 17.7727C36.8217 17.7727 36.44 17.4969 36.3441 17.3052Z"
    fill="#DBDBDB"
  />
</svg>
