<svg width="20" height="20" viewBox="0 0 20 20" fill="none" xmlns="http://www.w3.org/2000/svg">
<path d="M2.5 6.5C2.5 5.09987 2.5 4.3998 2.77248 3.86502C3.01217 3.39462 3.39462 3.01217 3.86503 2.77248C4.3998 2.5 5.09987 2.5 6.5 2.5H13.5C14.9002 2.5 15.6002 2.5 16.135 2.77248C16.6054 3.01217 16.9878 3.39462 17.2275 3.86502C17.5 4.3998 17.5 5.09987 17.5 6.5V11.25C17.5 12.4148 17.5 12.9972 17.3097 13.4567C17.056 14.0692 16.5692 14.556 15.9567 14.8097C15.4972 15 14.9148 15 13.75 15C13.3428 15 13.1392 15 12.9504 15.0446C12.6986 15.104 12.4641 15.2213 12.2654 15.3871C12.1164 15.5114 11.9943 15.6742 11.75 16L10.5333 17.6222C10.3524 17.8635 10.2619 17.9841 10.151 18.0272C10.0539 18.065 9.94608 18.065 9.849 18.0272C9.73808 17.9841 9.64758 17.8635 9.46667 17.6222L8.25 16C8.00571 15.6742 7.88357 15.5114 7.73458 15.3871C7.53593 15.2213 7.30141 15.104 7.04959 15.0446C6.86072 15 6.65715 15 6.25 15C5.08515 15 4.50272 15 4.04329 14.8097C3.43073 14.556 2.94403 14.0692 2.6903 13.4567C2.5 12.9972 2.5 12.4148 2.5 11.25V6.5Z" stroke="#A8C1F8" stroke-width="1.3" stroke-linecap="round" stroke-linejoin="round"/>
<path fill-rule="evenodd" clip-rule="evenodd" d="M9.99514 6.94216C9.32864 6.18467 8.21731 5.9809 7.38229 6.67454C6.54728 7.36818 6.42972 8.52792 7.08546 9.34825C7.4754 9.83608 8.43048 10.7109 9.14064 11.3399C9.43381 11.5996 9.58039 11.7294 9.75689 11.7821C9.90781 11.8272 10.0824 11.8272 10.2334 11.7821C10.4098 11.7294 10.5564 11.5996 10.8496 11.3399C11.5597 10.7109 12.5148 9.83608 12.9047 9.34825C13.5605 8.52792 13.4573 7.36088 12.6079 6.67454C11.7586 5.9882 10.6616 6.18467 9.99514 6.94216Z" stroke="#A8C1F8" stroke-width="1.3" stroke-linecap="round" stroke-linejoin="round"/>
</svg>
