<svg width="32" height="32" viewBox="0 0 32 32" fill="none" xmlns="http://www.w3.org/2000/svg">
<g clip-path="url(#clip0_1913_8159)">
<path d="M31.3532 12.7867C30.7266 11.3077 29.6941 10.0543 28.3605 9.15206C27.6937 8.70069 26.9666 8.355 26.1995 8.11906C25.4176 7.86837 24.5902 7.74306 23.7432 7.74306C22.6701 7.74306 21.6224 7.94381 20.6397 8.34475C20.5898 8.36481 20.5394 8.38487 20.4944 8.40494C20.4645 8.42012 20.4342 8.42994 20.4092 8.44506C19.5568 8.82106 18.7749 9.34244 18.0729 9.999C17.8526 10.2095 17.642 10.4304 17.4462 10.6609C17.1354 11.0168 16.7946 11.4433 16.3736 12.0098L16.1527 12.3005C15.9574 12.5659 14.1376 15.2331 13.8116 15.7193C13.6862 15.9096 13.5409 16.1202 13.3857 16.341L13.115 16.7268C12.7992 17.1781 12.4232 17.6844 12.057 18.1558C11.8866 18.3713 11.7162 18.5769 11.5709 18.7473C11.4304 18.9128 11.3001 19.0429 11.2101 19.1282C10.8189 19.5042 10.3675 19.7901 9.8715 19.9908C9.35987 20.2013 8.81356 20.3066 8.25687 20.3066C7.87112 20.3066 7.49019 20.2562 7.11912 20.1509C7.04862 20.1362 6.9835 20.1161 6.9135 20.0912C6.80337 20.0559 6.69275 20.0109 6.58256 19.9659C5.81044 19.6398 5.15394 19.1033 4.68737 18.4065C4.45187 18.0555 4.26637 17.6746 4.14587 17.2834C4.01569 16.8472 3.95056 16.4262 3.95056 16.0002C3.95056 15.4234 4.06612 14.8619 4.28644 14.3259C4.6125 13.5587 5.154 12.9016 5.85062 12.4307C6.19137 12.2001 6.57281 12.0194 6.97862 11.8941C7.39969 11.759 7.831 11.6939 8.25206 11.6939C8.82337 11.6988 9.37025 11.804 9.87156 12.0042C10.3729 12.2147 10.8238 12.5056 11.2101 12.8669C11.3051 12.9569 11.4304 13.0975 11.5709 13.2526C11.8216 13.5484 12.1324 13.9346 12.4581 14.3708C12.5182 14.4511 12.5736 14.5261 12.6338 14.6063C13.1249 13.8793 14.6592 11.6282 14.8697 11.3428L14.9902 11.1773C14.8448 10.9966 14.6994 10.8214 14.5539 10.6608C14.3179 10.3901 14.1275 10.1844 13.9273 9.994C13.1753 9.28706 12.3127 8.73581 11.3653 8.34463C10.3778 7.94363 9.33019 7.74294 8.25694 7.74294C7.13919 7.74294 6.05631 7.96369 5.03844 8.39506C3.56969 9.01144 2.3115 10.0494 1.40869 11.383C0.9625 12.0396 0.616875 12.7666 0.36625 13.5436C0.125312 14.3406 0 15.1631 0 16.0003C0 17.118 0.215437 18.1961 0.64675 19.2139C1.26856 20.6875 2.301 21.9408 3.63469 22.8485C4.30637 23.2945 5.03344 23.6455 5.80056 23.8859C6.59269 24.1316 7.41469 24.2569 8.25681 24.2569C9.33 24.2569 10.3777 24.0513 11.3652 23.6553C12.2425 23.2944 13.0499 22.7931 13.7666 22.1464C13.8219 22.1013 13.8719 22.0509 13.9217 22.0059C14.1377 21.8106 14.333 21.5951 14.5538 21.3391C14.8696 20.9783 15.2054 20.5523 15.6314 19.9908L15.8473 19.7C15.9726 19.5296 16.9851 18.0458 17.8022 16.8521C18.2736 16.1603 18.6648 15.589 18.7397 15.4789L18.8851 15.2781C19.2362 14.7768 19.6122 14.2657 19.9431 13.8441C20.1135 13.6287 20.2839 13.4231 20.4292 13.2527C20.5697 13.0873 20.7 12.957 20.7901 12.8718C21.1763 12.5056 21.6272 12.2147 22.1237 12.0097C22.2491 11.9592 22.3744 11.9142 22.4899 11.8789C22.6099 11.8442 22.7254 11.8138 22.8507 11.7888C23.1416 11.7286 23.4372 11.6988 23.7379 11.6939C24.3346 11.6988 24.9011 11.8138 25.4176 12.0346C26.1897 12.3602 26.8462 12.8967 27.3128 13.5934C27.5532 13.9444 27.7338 14.3259 27.8538 14.7214C27.9845 15.1327 28.0496 15.564 28.0496 16.0002C28.0496 16.5818 27.9341 17.1429 27.7138 17.6746C27.3828 18.4466 26.8462 19.1032 26.1496 19.5697C25.7937 19.8101 25.4177 19.9908 25.0216 20.1107C24.6055 20.2414 24.1741 20.3066 23.7433 20.3066C23.1866 20.3066 22.6403 20.2013 22.1286 19.9908C21.6327 19.79 21.1813 19.5041 20.7901 19.1335C20.6952 19.0429 20.5698 18.9029 20.4244 18.7423C20.1938 18.4765 19.903 18.1108 19.5319 17.6192C19.4765 17.5492 19.4266 17.4738 19.3712 17.3989C19.266 17.5493 19.1607 17.7098 19.0457 17.8748C17.7973 19.6999 17.2558 20.4867 17.1407 20.6522L17.0101 20.8279C17.1609 21.0032 17.3009 21.1789 17.4414 21.3342C17.6671 21.6 17.8727 21.8203 18.0729 22.0059C18.8249 22.7129 19.6871 23.2641 20.6349 23.6553C21.6224 24.0514 22.6701 24.2569 23.7433 24.2569C24.861 24.2569 25.9391 24.0416 26.9564 23.6103C28.4306 22.9885 29.6887 21.951 30.591 20.6174C31.0473 19.9354 31.3984 19.2084 31.6289 18.4564C31.8747 17.6643 32.0001 16.8423 32.0001 16.0001C32 14.8869 31.7846 13.8044 31.3532 12.7867Z" fill="#ACACAC"/>
</g>
<defs>
<clipPath id="clip0_1913_8159">
<rect width="32" height="32" fill="white"/>
</clipPath>
</defs>
</svg>
