<svg width="18" height="17" viewBox="0 0 18 17" fill="none" xmlns="http://www.w3.org/2000/svg">
  <path
    fill-rule="evenodd"
    clip-rule="evenodd"
    d="M10.5 17C11.39 17 12.26 16.7349 13.0001 16.2381C13.7401 15.7413 14.3169 15.0353 14.6575 14.2092C14.9981 13.3831 15.0872 12.4742 14.9135 11.5972C14.7399 10.7203 14.3113 9.91473 13.682 9.28248C13.0526 8.65023 12.2508 8.21966 11.3779 8.04523C10.505 7.87079 9.60019 7.96032 8.77792 8.30249C7.95566 8.64466 7.25285 9.2241 6.75839 9.96755C6.26392 10.711 6 11.585 6 12.4792C6 13.6782 6.47411 14.8281 7.31802 15.6759C8.16193 16.5237 9.30652 17 10.5 17ZM9.9996 14.9903C10.5929 14.9903 11.173 14.8136 11.6663 14.4824C12.1597 14.1512 12.5442 13.6805 12.7712 13.1298C12.9983 12.5791 13.0577 11.9731 12.942 11.3885C12.8262 10.8038 12.5405 10.2668 12.1209 9.84533C11.7014 9.42383 11.1668 9.13679 10.5849 9.02049C10.0029 8.9042 9.39973 8.96389 8.85155 9.192C8.30337 9.42012 7.83483 9.80641 7.50519 10.302C7.17554 10.7977 6.9996 11.3804 6.9996 11.9765C7.00024 12.7754 7.31659 13.5413 7.87913 14.106C8.44167 14.6707 9.20437 14.9879 9.9996 14.9879V14.9903Z"
    fill="#177DDC"
  />
  <path
    d="M3.66667 12.8299C2.08617 12.0595 1 10.4597 1 8.61098C1 6.45578 2.6 4.46482 5 4.07984C5.75284 2.30794 7.53458 1 9.61271 1C12.2747 1 14.4504 3.0437 14.6 5.61976C16.0127 6.23122 17 7.73191 17 9.35683"
    stroke="#177DDC"
    stroke-linecap="round"
    stroke-linejoin="round"
  />
</svg>
