<svg width="282" height="413" viewBox="0 0 282 413" fill="none" xmlns="http://www.w3.org/2000/svg">
  <path
    d="M6.20072 400.74H8.66592L11.2696 407.092H11.3804L13.9841 400.74H16.4493V410.194H14.5104V404.041H14.4319L11.9852 410.148H10.6649L8.21812 404.017H8.13964V410.194H6.20072V400.74ZM21.2631 410.333C20.546 410.333 19.9259 410.18 19.4027 409.876C18.8826 409.568 18.4809 409.14 18.1978 408.592C17.9146 408.042 17.7731 407.403 17.7731 406.677C17.7731 405.944 17.9146 405.304 18.1978 404.756C18.4809 404.205 18.8826 403.777 19.4027 403.473C19.9259 403.165 20.546 403.011 21.2631 403.011C21.9802 403.011 22.5988 403.165 23.119 403.473C23.6422 403.777 24.0453 404.205 24.3285 404.756C24.6116 405.304 24.7532 405.944 24.7532 406.677C24.7532 407.403 24.6116 408.042 24.3285 408.592C24.0453 409.14 23.6422 409.568 23.119 409.876C22.5988 410.18 21.9802 410.333 21.2631 410.333ZM21.2724 408.809C21.5986 408.809 21.871 408.717 22.0895 408.532C22.308 408.345 22.4727 408.089 22.5834 407.766C22.6973 407.443 22.7543 407.075 22.7543 406.663C22.7543 406.25 22.6973 405.883 22.5834 405.559C22.4727 405.236 22.308 404.981 22.0895 404.793C21.871 404.605 21.5986 404.511 21.2724 404.511C20.9431 404.511 20.6661 404.605 20.4414 404.793C20.2198 404.981 20.0521 405.236 19.9382 405.559C19.8274 405.883 19.772 406.25 19.772 406.663C19.772 407.075 19.8274 407.443 19.9382 407.766C20.0521 408.089 20.2198 408.345 20.4414 408.532C20.6661 408.717 20.9431 408.809 21.2724 408.809ZM27.9986 406.095V410.194H26.032V403.103H27.9062V404.354H27.9893C28.1463 403.942 28.4094 403.616 28.7788 403.376C29.1481 403.133 29.5959 403.011 30.1222 403.011C30.6146 403.011 31.0439 403.119 31.4102 403.334C31.7764 403.55 32.0611 403.857 32.2642 404.258C32.4673 404.655 32.5689 405.129 32.5689 405.679V410.194H30.6023V406.03C30.6053 405.596 30.4946 405.258 30.2699 405.015C30.0452 404.768 29.7359 404.645 29.342 404.645C29.0773 404.645 28.8434 404.702 28.6403 404.816C28.4402 404.93 28.2833 405.096 28.1694 405.315C28.0586 405.53 28.0017 405.79 27.9986 406.095ZM37.3227 410.333C36.6056 410.333 35.9855 410.18 35.4623 409.876C34.9421 409.568 34.5405 409.14 34.2574 408.592C33.9742 408.042 33.8326 407.403 33.8326 406.677C33.8326 405.944 33.9742 405.304 34.2574 404.756C34.5405 404.205 34.9421 403.777 35.4623 403.473C35.9855 403.165 36.6056 403.011 37.3227 403.011C38.0398 403.011 38.6584 403.165 39.1785 403.473C39.7017 403.777 40.1049 404.205 40.388 404.756C40.6712 405.304 40.8128 405.944 40.8128 406.677C40.8128 407.403 40.6712 408.042 40.388 408.592C40.1049 409.14 39.7017 409.568 39.1785 409.876C38.6584 410.18 38.0398 410.333 37.3227 410.333ZM37.3319 408.809C37.6582 408.809 37.9305 408.717 38.1491 408.532C38.3676 408.345 38.5322 408.089 38.643 407.766C38.7569 407.443 38.8138 407.075 38.8138 406.663C38.8138 406.25 38.7569 405.883 38.643 405.559C38.5322 405.236 38.3676 404.981 38.1491 404.793C37.9305 404.605 37.6582 404.511 37.3319 404.511C37.0026 404.511 36.7256 404.605 36.501 404.793C36.2794 404.981 36.1116 405.236 35.9978 405.559C35.887 405.883 35.8316 406.25 35.8316 406.663C35.8316 407.075 35.887 407.443 35.9978 407.766C36.1116 408.089 36.2794 408.345 36.501 408.532C36.7256 408.717 37.0026 408.809 37.3319 408.809ZM43.8735 408.154L43.8781 405.795H44.1643L46.4356 403.103H48.6931L45.6416 406.667H45.1753L43.8735 408.154ZM42.0915 410.194V400.74H44.0581V410.194H42.0915ZM46.5233 410.194L44.4367 407.106L45.7478 405.716L48.827 410.194H46.5233ZM51.6246 400.74V410.194H49.6579V400.74H51.6246ZM56.4315 410.333C55.7021 410.333 55.0742 410.185 54.5479 409.89C54.0247 409.591 53.6216 409.169 53.3384 408.625C53.0553 408.077 52.9137 407.429 52.9137 406.681C52.9137 405.952 53.0553 405.312 53.3384 404.761C53.6216 404.21 54.0201 403.781 54.5341 403.473C55.0511 403.165 55.6574 403.011 56.353 403.011C56.8208 403.011 57.2563 403.086 57.6594 403.237C58.0657 403.385 58.4196 403.608 58.7212 403.907C59.0259 404.205 59.2629 404.581 59.4322 405.033C59.6014 405.482 59.6861 406.009 59.6861 406.612V407.152H53.6985V405.933H57.8349C57.8349 405.65 57.7733 405.399 57.6502 405.181C57.5271 404.962 57.3563 404.792 57.1378 404.668C56.9223 404.542 56.6715 404.479 56.3853 404.479C56.0868 404.479 55.8221 404.548 55.5913 404.687C55.3635 404.822 55.185 405.005 55.0557 405.236C54.9265 405.464 54.8603 405.718 54.8572 405.998V407.157C54.8572 407.508 54.9219 407.811 55.0511 408.066C55.1835 408.322 55.3697 408.519 55.6097 408.657C55.8498 408.796 56.1345 408.865 56.4638 408.865C56.6823 408.865 56.8823 408.834 57.0639 408.772C57.2455 408.711 57.4009 408.619 57.5302 408.495C57.6594 408.372 57.7579 408.222 57.8256 408.043L59.6445 408.163C59.5522 408.6 59.3629 408.982 59.0767 409.308C58.7936 409.631 58.4273 409.883 57.978 410.065C57.5317 410.244 57.0162 410.333 56.4315 410.333ZM67.3667 410.194H64.0152V400.74H67.3944C68.3454 400.74 69.1641 400.929 69.8504 401.308C70.5367 401.683 71.0645 402.223 71.4339 402.928C71.8063 403.633 71.9924 404.476 71.9924 405.458C71.9924 406.443 71.8063 407.289 71.4339 407.997C71.0645 408.705 70.5336 409.248 69.8412 409.627C69.1518 410.005 68.327 410.194 67.3667 410.194ZM66.0141 408.482H67.2836C67.8746 408.482 68.3716 408.377 68.7748 408.168C69.181 407.955 69.4857 407.628 69.6888 407.184C69.895 406.738 69.9981 406.163 69.9981 405.458C69.9981 404.759 69.895 404.188 69.6888 403.745C69.4857 403.302 69.1826 402.976 68.7794 402.766C68.3762 402.557 67.8792 402.453 67.2883 402.453H66.0141V408.482ZM76.6678 410.333C75.9384 410.333 75.3105 410.185 74.7843 409.89C74.2611 409.591 73.8579 409.169 73.5747 408.625C73.2916 408.077 73.15 407.429 73.15 406.681C73.15 405.952 73.2916 405.312 73.5747 404.761C73.8579 404.21 74.2564 403.781 74.7704 403.473C75.2875 403.165 75.8938 403.011 76.5893 403.011C77.0571 403.011 77.4926 403.086 77.8958 403.237C78.302 403.385 78.6559 403.608 78.9576 403.907C79.2622 404.205 79.4992 404.581 79.6685 405.033C79.8378 405.482 79.9224 406.009 79.9224 406.612V407.152H73.9348V405.933H78.0712C78.0712 405.65 78.0096 405.399 77.8865 405.181C77.7634 404.962 77.5926 404.792 77.3741 404.668C77.1587 404.542 76.9078 404.479 76.6216 404.479C76.3231 404.479 76.0584 404.548 75.8276 404.687C75.5998 404.822 75.4213 405.005 75.2921 405.236C75.1628 405.464 75.0966 405.718 75.0936 405.998V407.157C75.0936 407.508 75.1582 407.811 75.2875 408.066C75.4198 408.322 75.606 408.519 75.8461 408.657C76.0861 408.796 76.3708 408.865 76.7001 408.865C76.9186 408.865 77.1187 408.834 77.3002 408.772C77.4818 408.711 77.6372 408.619 77.7665 408.495C77.8958 408.372 77.9943 408.222 78.062 408.043L79.8809 408.163C79.7885 408.6 79.5992 408.982 79.313 409.308C79.0299 409.631 78.6636 409.883 78.2143 410.065C77.768 410.244 77.2525 410.333 76.6678 410.333ZM87.1056 405.125L85.3052 405.236C85.2744 405.082 85.2083 404.944 85.1067 404.821C85.0051 404.695 84.8713 404.595 84.7051 404.521C84.542 404.444 84.3465 404.405 84.1188 404.405C83.8141 404.405 83.5571 404.47 83.3478 404.599C83.1385 404.725 83.0339 404.895 83.0339 405.107C83.0339 405.276 83.1016 405.419 83.237 405.536C83.3725 405.653 83.6048 405.747 83.9341 405.818L85.2175 406.076C85.9069 406.218 86.4209 406.446 86.7594 406.76C87.0979 407.074 87.2672 407.486 87.2672 407.997C87.2672 408.462 87.1303 408.869 86.8564 409.22C86.5855 409.571 86.2131 409.845 85.7392 410.042C85.2683 410.236 84.7251 410.333 84.1095 410.333C83.1709 410.333 82.423 410.137 81.8659 409.747C81.312 409.353 80.9873 408.817 80.8919 408.14L82.8262 408.038C82.8846 408.325 83.0262 408.543 83.2509 408.694C83.4756 408.842 83.7633 408.916 84.1142 408.916C84.4589 408.916 84.7358 408.849 84.9451 408.717C85.1575 408.582 85.2652 408.408 85.2683 408.195C85.2652 408.017 85.1898 407.871 85.0421 407.757C84.8943 407.64 84.6666 407.551 84.3588 407.489L83.1309 407.244C82.4384 407.106 81.9229 406.866 81.5843 406.524C81.2489 406.183 81.0811 405.747 81.0811 405.218C81.0811 404.762 81.2042 404.37 81.4505 404.041C81.6997 403.711 82.0491 403.457 82.4984 403.279C82.9508 403.1 83.4802 403.011 84.0865 403.011C84.9821 403.011 85.6868 403.2 86.2008 403.579C86.7179 403.957 87.0195 404.473 87.1056 405.125ZM90.2875 408.154L90.2922 405.795H90.5784L92.8497 403.103H95.1072L92.0557 406.667H91.5894L90.2875 408.154ZM88.5056 410.194V400.74H90.4722V410.194H88.5056ZM92.9374 410.194L90.8508 407.106L92.1618 405.716L95.241 410.194H92.9374ZM99.8437 403.103V404.581H95.5734V403.103H99.8437ZM96.5429 401.405H98.5095V408.015C98.5095 408.197 98.5372 408.339 98.5926 408.44C98.648 408.539 98.7249 408.608 98.8234 408.648C98.925 408.688 99.0419 408.708 99.1743 408.708C99.2666 408.708 99.3589 408.7 99.4513 408.685C99.5436 408.666 99.6144 408.652 99.6636 408.643L99.9729 410.107C99.8744 410.137 99.7359 410.173 99.5574 410.213C99.3789 410.256 99.162 410.282 98.9065 410.291C98.4326 410.31 98.0171 410.247 97.6601 410.102C97.3061 409.957 97.0307 409.733 96.8337 409.428C96.6367 409.123 96.5398 408.739 96.5429 408.274V401.405ZM104.252 410.333C103.535 410.333 102.915 410.18 102.392 409.876C101.872 409.568 101.47 409.14 101.187 408.592C100.904 408.042 100.762 407.403 100.762 406.677C100.762 405.944 100.904 405.304 101.187 404.756C101.47 404.205 101.872 403.777 102.392 403.473C102.915 403.165 103.535 403.011 104.252 403.011C104.969 403.011 105.588 403.165 106.108 403.473C106.631 403.777 107.035 404.205 107.318 404.756C107.601 405.304 107.742 405.944 107.742 406.677C107.742 407.403 107.601 408.042 107.318 408.592C107.035 409.14 106.631 409.568 106.108 409.876C105.588 410.18 104.969 410.333 104.252 410.333ZM104.262 408.809C104.588 408.809 104.86 408.717 105.079 408.532C105.297 408.345 105.462 408.089 105.573 407.766C105.687 407.443 105.744 407.075 105.744 406.663C105.744 406.25 105.687 405.883 105.573 405.559C105.462 405.236 105.297 404.981 105.079 404.793C104.86 404.605 104.588 404.511 104.262 404.511C103.932 404.511 103.655 404.605 103.431 404.793C103.209 404.981 103.041 405.236 102.927 405.559C102.817 405.883 102.761 406.25 102.761 406.663C102.761 407.075 102.817 407.443 102.927 407.766C103.041 408.089 103.209 408.345 103.431 408.532C103.655 408.717 103.932 408.809 104.262 408.809ZM109.021 412.853V403.103H110.96V404.294H111.048C111.134 404.104 111.259 403.91 111.422 403.713C111.588 403.513 111.803 403.347 112.068 403.214C112.336 403.079 112.668 403.011 113.065 403.011C113.582 403.011 114.059 403.147 114.496 403.417C114.933 403.685 115.283 404.09 115.544 404.631C115.806 405.17 115.937 405.846 115.937 406.658C115.937 407.449 115.809 408.117 115.554 408.662C115.301 409.203 114.956 409.614 114.519 409.894C114.085 410.171 113.599 410.31 113.061 410.31C112.679 410.31 112.354 410.247 112.087 410.12C111.822 409.994 111.605 409.836 111.436 409.645C111.266 409.451 111.137 409.256 111.048 409.059H110.988V412.853H109.021ZM110.946 406.649C110.946 407.071 111.005 407.438 111.122 407.752C111.239 408.066 111.408 408.311 111.63 408.486C111.851 408.659 112.12 408.745 112.437 408.745C112.757 408.745 113.028 408.657 113.25 408.482C113.471 408.303 113.639 408.057 113.753 407.743C113.87 407.426 113.929 407.061 113.929 406.649C113.929 406.24 113.872 405.879 113.758 405.569C113.644 405.258 113.476 405.015 113.255 404.839C113.033 404.664 112.761 404.576 112.437 404.576C112.117 404.576 111.846 404.661 111.625 404.83C111.406 404.999 111.239 405.239 111.122 405.55C111.005 405.861 110.946 406.227 110.946 406.649Z"
    fill="#7D7D7D"
  />
  <circle cx="63.4806" cy="327.642" r="63.4806" fill="#17262D" />
  <path
    d="M96.5648 355.811H31.8676C31.4267 355.81 31.002 355.631 30.6872 355.311C30.3721 354.989 30.1932 354.552 30.1926 354.094V300.383C30.1932 299.925 30.3721 299.487 30.6872 299.166C31.0019 298.845 31.4265 298.666 31.8673 298.666H96.565C97.0059 298.666 97.4305 298.845 97.7452 299.166C98.0603 299.487 98.2392 299.925 98.2397 300.383V354.093C98.2392 354.552 98.0603 354.989 97.7452 355.311C97.4304 355.631 97.0057 355.81 96.5648 355.811Z"
    stroke="#434343"
  />
  <path
    d="M33.9083 302.387C34.1867 302.109 34.5639 301.952 34.9572 301.951L93.4703 301.951C93.4704 301.951 93.4705 301.951 93.4706 301.951C93.8639 301.952 94.2411 302.109 94.5194 302.387L94.8723 302.035L94.5194 302.387C94.7979 302.666 94.9546 303.045 94.9551 303.439V334.053C94.9497 338.845 93.0465 343.44 89.6633 346.828C86.2801 350.217 81.6933 352.122 76.9091 352.128H34.9575C34.5641 352.127 34.1867 351.971 33.9083 351.692C33.63 351.413 33.4732 351.035 33.4727 350.64V303.439C33.4732 303.044 33.6299 302.666 33.9083 302.387Z"
    stroke="#434343"
  />
  <line x1="32.8984" y1="306.453" x2="95.2801" y2="306.453" stroke="#434343" />
  <line x1="38.0879" y1="352.7" x2="38.0879" y2="306.953" stroke="#434343" />
  <line x1="57.72" y1="352.677" x2="57.72" y2="306.888" stroke="#434343" />
  <circle cx="89.2002" cy="309.522" r="17.716" fill="#434343" />
  <path
    d="M97.0847 315.207L95.9959 311.372V303.021C95.9959 302.702 95.7385 302.445 95.4199 302.445H82.7494C82.4308 302.445 82.1735 302.702 82.1735 303.021V311.372L81.0846 315.207C80.9496 315.583 81.2268 315.979 81.6263 315.979H96.543C96.9426 315.979 97.2197 315.583 97.0847 315.207ZM83.4693 303.741H94.7V310.85H83.4693V303.741ZM87.5782 314.684L87.724 314.018H90.4291L90.5749 314.684H87.5782ZM91.6098 314.684L91.266 313.123C91.2516 313.057 91.1922 313.01 91.1256 313.01H87.0293C86.9609 313.01 86.9033 313.057 86.8889 313.123L86.5452 314.684H82.5802L83.3415 312.002H94.8278L95.5891 314.684H91.6098Z"
    fill="#33BCB7"
  />
  <circle cx="141.296" cy="123.89" r="105.46" fill="#171F2D" />
  <path
    d="M115.738 93.647H118.204L120.807 99.9993H120.918L123.522 93.647H125.987V103.102H124.048V96.9478H123.97L121.523 103.055H120.203L117.756 96.9247H117.677V103.102H115.738V93.647ZM130.801 103.24C130.084 103.24 129.464 103.088 128.94 102.783C128.42 102.475 128.019 102.047 127.736 101.5C127.452 100.949 127.311 100.31 127.311 99.5838C127.311 98.8513 127.452 98.2112 127.736 97.6634C128.019 97.1125 128.42 96.6847 128.94 96.38C129.464 96.0722 130.084 95.9183 130.801 95.9183C131.518 95.9183 132.137 96.0722 132.657 96.38C133.18 96.6847 133.583 97.1125 133.866 97.6634C134.149 98.2112 134.291 98.8513 134.291 99.5838C134.291 100.31 134.149 100.949 133.866 101.5C133.583 102.047 133.18 102.475 132.657 102.783C132.137 103.088 131.518 103.24 130.801 103.24ZM130.81 101.717C131.136 101.717 131.409 101.624 131.627 101.44C131.846 101.252 132.01 100.996 132.121 100.673C132.235 100.35 132.292 99.9824 132.292 99.57C132.292 99.1576 132.235 98.7898 132.121 98.4666C132.01 98.1435 131.846 97.888 131.627 97.7003C131.409 97.5125 131.136 97.4187 130.81 97.4187C130.481 97.4187 130.204 97.5125 129.979 97.7003C129.758 97.888 129.59 98.1435 129.476 98.4666C129.365 98.7898 129.31 99.1576 129.31 99.57C129.31 99.9824 129.365 100.35 129.476 100.673C129.59 100.996 129.758 101.252 129.979 101.44C130.204 101.624 130.481 101.717 130.81 101.717ZM137.536 99.0021V103.102H135.57V96.0107H137.444V97.2617H137.527C137.684 96.8493 137.947 96.5231 138.317 96.283C138.686 96.0399 139.134 95.9183 139.66 95.9183C140.152 95.9183 140.582 96.026 140.948 96.2415C141.314 96.4569 141.599 96.7647 141.802 97.1648C142.005 97.5618 142.107 98.0357 142.107 98.5866V103.102H140.14V98.9375C140.143 98.5036 140.032 98.165 139.808 97.9219C139.583 97.6757 139.274 97.5526 138.88 97.5526C138.615 97.5526 138.381 97.6095 138.178 97.7234C137.978 97.8372 137.821 98.0034 137.707 98.2219C137.596 98.4374 137.539 98.6974 137.536 99.0021ZM146.86 103.24C146.143 103.24 145.523 103.088 145 102.783C144.48 102.475 144.078 102.047 143.795 101.5C143.512 100.949 143.37 100.31 143.37 99.5838C143.37 98.8513 143.512 98.2112 143.795 97.6634C144.078 97.1125 144.48 96.6847 145 96.38C145.523 96.0722 146.143 95.9183 146.86 95.9183C147.578 95.9183 148.196 96.0722 148.716 96.38C149.239 96.6847 149.643 97.1125 149.926 97.6634C150.209 98.2112 150.351 98.8513 150.351 99.5838C150.351 100.31 150.209 100.949 149.926 101.5C149.643 102.047 149.239 102.475 148.716 102.783C148.196 103.088 147.578 103.24 146.86 103.24ZM146.87 101.717C147.196 101.717 147.468 101.624 147.687 101.44C147.905 101.252 148.07 100.996 148.181 100.673C148.295 100.35 148.352 99.9824 148.352 99.57C148.352 99.1576 148.295 98.7898 148.181 98.4666C148.07 98.1435 147.905 97.888 147.687 97.7003C147.468 97.5125 147.196 97.4187 146.87 97.4187C146.54 97.4187 146.263 97.5125 146.039 97.7003C145.817 97.888 145.649 98.1435 145.536 98.4666C145.425 98.7898 145.369 99.1576 145.369 99.57C145.369 99.9824 145.425 100.35 145.536 100.673C145.649 100.996 145.817 101.252 146.039 101.44C146.263 101.624 146.54 101.717 146.87 101.717ZM153.411 101.061L153.416 98.7021H153.702L155.973 96.0107H158.231L155.179 99.5746H154.713L153.411 101.061ZM151.629 103.102V93.647H153.596V103.102H151.629ZM156.061 103.102L153.974 100.013L155.286 98.6236L158.365 103.102H156.061ZM161.162 93.647V103.102H159.196V93.647H161.162ZM165.969 103.24C165.24 103.24 164.612 103.092 164.086 102.797C163.562 102.498 163.159 102.077 162.876 101.532C162.593 100.984 162.451 100.336 162.451 99.5884C162.451 98.859 162.593 98.2189 162.876 97.668C163.159 97.1171 163.558 96.6877 164.072 96.38C164.589 96.0722 165.195 95.9183 165.891 95.9183C166.359 95.9183 166.794 95.9937 167.197 96.1445C167.603 96.2923 167.957 96.5154 168.259 96.8139C168.564 97.1125 168.801 97.4879 168.97 97.9403C169.139 98.3897 169.224 98.916 169.224 99.5192V100.059H163.236V98.8406H167.373C167.373 98.5574 167.311 98.3066 167.188 98.0881C167.065 97.8696 166.894 97.6987 166.676 97.5756C166.46 97.4495 166.209 97.3864 165.923 97.3864C165.625 97.3864 165.36 97.4556 165.129 97.5941C164.901 97.7295 164.723 97.9126 164.594 98.1435C164.464 98.3712 164.398 98.6251 164.395 98.9052V100.064C164.395 100.415 164.46 100.718 164.589 100.973C164.721 101.229 164.907 101.426 165.147 101.564C165.388 101.703 165.672 101.772 166.002 101.772C166.22 101.772 166.42 101.741 166.602 101.68C166.783 101.618 166.939 101.526 167.068 101.403C167.197 101.28 167.296 101.129 167.363 100.95L169.182 101.07C169.09 101.507 168.901 101.889 168.614 102.215C168.331 102.538 167.965 102.791 167.516 102.972C167.069 103.151 166.554 103.24 165.969 103.24ZM132.662 112.957H130.64C130.604 112.695 130.528 112.463 130.414 112.26C130.3 112.054 130.154 111.878 129.976 111.734C129.797 111.589 129.591 111.478 129.357 111.401C129.126 111.324 128.875 111.286 128.605 111.286C128.115 111.286 127.689 111.407 127.326 111.651C126.963 111.891 126.681 112.241 126.481 112.703C126.281 113.162 126.181 113.719 126.181 114.374C126.181 115.048 126.281 115.615 126.481 116.073C126.684 116.532 126.967 116.878 127.33 117.112C127.694 117.346 128.114 117.463 128.591 117.463C128.859 117.463 129.106 117.427 129.334 117.357C129.565 117.286 129.769 117.183 129.948 117.047C130.126 116.909 130.274 116.741 130.391 116.544C130.511 116.347 130.594 116.122 130.64 115.87L132.662 115.879C132.61 116.313 132.479 116.732 132.27 117.135C132.064 117.535 131.785 117.894 131.435 118.211C131.087 118.525 130.671 118.774 130.188 118.958C129.708 119.14 129.165 119.231 128.558 119.231C127.715 119.231 126.961 119.04 126.296 118.658C125.635 118.277 125.111 117.724 124.727 117.001C124.345 116.278 124.154 115.402 124.154 114.374C124.154 113.343 124.348 112.466 124.736 111.743C125.124 111.02 125.65 110.469 126.315 110.09C126.98 109.709 127.727 109.518 128.558 109.518C129.106 109.518 129.614 109.595 130.082 109.749C130.553 109.902 130.97 110.127 131.333 110.423C131.696 110.715 131.992 111.074 132.219 111.498C132.45 111.923 132.598 112.409 132.662 112.957ZM136.026 109.647V119.102H134.059V109.647H136.026ZM140.805 119.24C140.088 119.24 139.468 119.088 138.944 118.783C138.424 118.475 138.023 118.047 137.739 117.5C137.456 116.949 137.315 116.31 137.315 115.584C137.315 114.851 137.456 114.211 137.739 113.663C138.023 113.112 138.424 112.685 138.944 112.38C139.468 112.072 140.088 111.918 140.805 111.918C141.522 111.918 142.14 112.072 142.661 112.38C143.184 112.685 143.587 113.112 143.87 113.663C144.153 114.211 144.295 114.851 144.295 115.584C144.295 116.31 144.153 116.949 143.87 117.5C143.587 118.047 143.184 118.475 142.661 118.783C142.14 119.088 141.522 119.24 140.805 119.24ZM140.814 117.717C141.14 117.717 141.413 117.624 141.631 117.44C141.85 117.252 142.014 116.996 142.125 116.673C142.239 116.35 142.296 115.982 142.296 115.57C142.296 115.158 142.239 114.79 142.125 114.467C142.014 114.143 141.85 113.888 141.631 113.7C141.413 113.513 141.14 113.419 140.814 113.419C140.485 113.419 140.208 113.513 139.983 113.7C139.761 113.888 139.594 114.143 139.48 114.467C139.369 114.79 139.314 115.158 139.314 115.57C139.314 115.982 139.369 116.35 139.48 116.673C139.594 116.996 139.761 117.252 139.983 117.44C140.208 117.624 140.485 117.717 140.814 117.717ZM150.121 116.082V112.011H152.087V119.102H150.199V117.814H150.125C149.965 118.229 149.699 118.563 149.327 118.815C148.957 119.068 148.507 119.194 147.974 119.194C147.5 119.194 147.083 119.086 146.723 118.871C146.363 118.655 146.081 118.349 145.878 117.952C145.678 117.555 145.577 117.08 145.574 116.526V112.011H147.54V116.175C147.543 116.593 147.656 116.924 147.877 117.167C148.099 117.41 148.396 117.532 148.768 117.532C149.005 117.532 149.227 117.478 149.433 117.37C149.639 117.26 149.805 117.096 149.932 116.881C150.061 116.666 150.124 116.399 150.121 116.082ZM156.273 119.217C155.735 119.217 155.247 119.078 154.81 118.801C154.376 118.521 154.031 118.111 153.776 117.569C153.524 117.024 153.397 116.356 153.397 115.565C153.397 114.753 153.528 114.077 153.79 113.539C154.051 112.997 154.399 112.592 154.833 112.325C155.27 112.054 155.749 111.918 156.269 111.918C156.666 111.918 156.997 111.986 157.261 112.121C157.529 112.254 157.745 112.42 157.908 112.62C158.074 112.817 158.2 113.011 158.286 113.202H158.346V109.647H160.308V119.102H158.369V117.966H158.286C158.194 118.163 158.063 118.358 157.894 118.552C157.728 118.743 157.511 118.902 157.243 119.028C156.978 119.154 156.655 119.217 156.273 119.217ZM156.897 117.652C157.214 117.652 157.481 117.566 157.7 117.393C157.922 117.218 158.091 116.973 158.208 116.659C158.328 116.346 158.388 115.978 158.388 115.556C158.388 115.134 158.329 114.768 158.212 114.457C158.095 114.147 157.926 113.906 157.705 113.737C157.483 113.568 157.214 113.483 156.897 113.483C156.574 113.483 156.301 113.571 156.08 113.746C155.858 113.922 155.69 114.165 155.576 114.476C155.462 114.787 155.406 115.147 155.406 115.556C155.406 115.969 155.462 116.333 155.576 116.65C155.693 116.964 155.861 117.21 156.08 117.389C156.301 117.564 156.574 117.652 156.897 117.652ZM119.178 135.102V125.647H122.373C123.115 125.647 123.721 125.781 124.192 126.049C124.666 126.313 125.017 126.672 125.244 127.124C125.472 127.577 125.586 128.081 125.586 128.638C125.586 129.196 125.472 129.702 125.244 130.157C125.02 130.613 124.672 130.976 124.201 131.247C123.73 131.515 123.127 131.648 122.391 131.648H120.102V130.633H122.354C122.862 130.633 123.27 130.545 123.578 130.37C123.886 130.194 124.109 129.957 124.247 129.659C124.389 129.357 124.46 129.017 124.46 128.638C124.46 128.26 124.389 127.921 124.247 127.623C124.109 127.324 123.884 127.09 123.573 126.921C123.262 126.749 122.85 126.663 122.336 126.663H120.323V135.102H119.178ZM130.087 135.249C129.447 135.249 128.885 135.097 128.402 134.792C127.922 134.488 127.546 134.061 127.276 133.513C127.008 132.966 126.874 132.326 126.874 131.593C126.874 130.854 127.008 130.21 127.276 129.659C127.546 129.108 127.922 128.68 128.402 128.375C128.885 128.071 129.447 127.918 130.087 127.918C130.727 127.918 131.287 128.071 131.767 128.375C132.251 128.68 132.626 129.108 132.894 129.659C133.165 130.21 133.3 130.854 133.3 131.593C133.3 132.326 133.165 132.966 132.894 133.513C132.626 134.061 132.251 134.488 131.767 134.792C131.287 135.097 130.727 135.249 130.087 135.249ZM130.087 134.271C130.573 134.271 130.973 134.146 131.287 133.897C131.601 133.647 131.834 133.32 131.984 132.913C132.135 132.507 132.211 132.067 132.211 131.593C132.211 131.119 132.135 130.677 131.984 130.268C131.834 129.859 131.601 129.528 131.287 129.276C130.973 129.023 130.573 128.897 130.087 128.897C129.601 128.897 129.201 129.023 128.887 129.276C128.573 129.528 128.34 129.859 128.19 130.268C128.039 130.677 127.963 131.119 127.963 131.593C127.963 132.067 128.039 132.507 128.19 132.913C128.34 133.32 128.573 133.647 128.887 133.897C129.201 134.146 129.601 134.271 130.087 134.271ZM136.053 125.647V135.102H134.963V125.647H136.053ZM138.048 135.102V128.011H139.138V135.102H138.048ZM138.602 126.829C138.39 126.829 138.207 126.757 138.053 126.612C137.902 126.467 137.827 126.293 137.827 126.09C137.827 125.887 137.902 125.713 138.053 125.569C138.207 125.424 138.39 125.352 138.602 125.352C138.815 125.352 138.996 125.424 139.147 125.569C139.301 125.713 139.378 125.887 139.378 126.09C139.378 126.293 139.301 126.467 139.147 126.612C138.996 126.757 138.815 126.829 138.602 126.829ZM144.014 135.249C143.349 135.249 142.777 135.092 142.296 134.778C141.816 134.464 141.447 134.032 141.189 133.481C140.93 132.93 140.801 132.301 140.801 131.593C140.801 130.873 140.933 130.237 141.198 129.686C141.466 129.132 141.838 128.7 142.315 128.389C142.795 128.075 143.355 127.918 143.995 127.918C144.494 127.918 144.943 128.011 145.343 128.195C145.743 128.38 146.071 128.638 146.327 128.971C146.582 129.303 146.741 129.691 146.802 130.134H145.713C145.63 129.811 145.445 129.525 145.159 129.276C144.876 129.023 144.494 128.897 144.014 128.897C143.589 128.897 143.217 129.008 142.897 129.229C142.58 129.448 142.332 129.757 142.153 130.157C141.978 130.554 141.89 131.021 141.89 131.556C141.89 132.104 141.976 132.581 142.149 132.987C142.324 133.393 142.57 133.709 142.887 133.934C143.207 134.158 143.583 134.271 144.014 134.271C144.297 134.271 144.554 134.221 144.785 134.123C145.016 134.024 145.211 133.883 145.371 133.698C145.531 133.513 145.645 133.292 145.713 133.033H146.802C146.741 133.452 146.588 133.829 146.345 134.164C146.105 134.497 145.787 134.761 145.39 134.958C144.996 135.152 144.537 135.249 144.014 135.249ZM149.097 137.761C148.912 137.761 148.747 137.745 148.603 137.714C148.458 137.687 148.358 137.659 148.303 137.631L148.58 136.671C148.844 136.739 149.078 136.763 149.281 136.745C149.484 136.727 149.664 136.636 149.821 136.473C149.981 136.313 150.128 136.053 150.26 135.692L150.463 135.138L147.841 128.011H149.023L150.98 133.661H151.054L153.011 128.011H154.193L151.183 136.136C151.048 136.502 150.88 136.805 150.68 137.045C150.48 137.288 150.248 137.468 149.983 137.585C149.721 137.702 149.426 137.761 149.097 137.761ZM161.965 135.231C161.343 135.231 160.808 135.117 160.358 134.889C159.909 134.661 159.563 134.349 159.32 133.952C159.077 133.555 158.955 133.101 158.955 132.59C158.955 132.196 159.038 131.847 159.204 131.542C159.374 131.234 159.606 130.95 159.901 130.688C160.2 130.424 160.543 130.159 160.931 129.894L162.297 128.879C162.565 128.703 162.779 128.515 162.939 128.315C163.102 128.115 163.184 127.854 163.184 127.531C163.184 127.29 163.078 127.058 162.865 126.833C162.656 126.609 162.38 126.496 162.039 126.496C161.799 126.496 161.586 126.558 161.402 126.681C161.22 126.801 161.077 126.955 160.972 127.143C160.871 127.327 160.82 127.518 160.82 127.715C160.82 127.937 160.88 128.161 161 128.389C161.123 128.614 161.279 128.845 161.466 129.082C161.657 129.316 161.854 129.556 162.057 129.802L166.397 135.102H165.086L161.503 130.781C161.171 130.38 160.869 130.017 160.599 129.691C160.328 129.365 160.112 129.043 159.952 128.726C159.792 128.409 159.712 128.066 159.712 127.697C159.712 127.272 159.806 126.9 159.994 126.58C160.185 126.256 160.451 126.006 160.792 125.827C161.137 125.645 161.54 125.555 162.002 125.555C162.476 125.555 162.884 125.647 163.225 125.832C163.567 126.013 163.83 126.255 164.015 126.556C164.199 126.855 164.292 127.18 164.292 127.531C164.292 127.983 164.179 128.375 163.955 128.708C163.73 129.04 163.424 129.349 163.036 129.636L161.152 131.039C160.728 131.353 160.44 131.658 160.289 131.953C160.138 132.249 160.063 132.461 160.063 132.59C160.063 132.886 160.14 133.161 160.294 133.417C160.448 133.672 160.665 133.878 160.945 134.035C161.225 134.192 161.553 134.271 161.928 134.271C162.285 134.271 162.633 134.195 162.971 134.044C163.31 133.891 163.616 133.669 163.89 133.38C164.167 133.09 164.386 132.743 164.546 132.336C164.709 131.93 164.79 131.473 164.79 130.965H165.843C165.843 131.593 165.771 132.105 165.626 132.502C165.481 132.9 165.318 133.21 165.137 133.435C164.955 133.66 164.809 133.827 164.698 133.938C164.661 133.984 164.627 134.031 164.596 134.077C164.566 134.123 164.532 134.169 164.495 134.215C164.19 134.557 163.805 134.812 163.341 134.982C162.876 135.148 162.417 135.231 161.965 135.231ZM110.136 144.602H108.991C108.924 144.272 108.805 143.983 108.636 143.734C108.47 143.484 108.267 143.275 108.027 143.106C107.79 142.933 107.527 142.804 107.237 142.718C106.948 142.632 106.646 142.589 106.332 142.589C105.76 142.589 105.241 142.733 104.777 143.023C104.315 143.312 103.947 143.738 103.673 144.301C103.402 144.865 103.267 145.556 103.267 146.374C103.267 147.193 103.402 147.884 103.673 148.447C103.947 149.01 104.315 149.437 104.777 149.726C105.241 150.015 105.76 150.16 106.332 150.16C106.646 150.16 106.948 150.117 107.237 150.031C107.527 149.944 107.79 149.817 108.027 149.647C108.267 149.475 108.47 149.264 108.636 149.015C108.805 148.763 108.924 148.473 108.991 148.147H110.136C110.05 148.63 109.893 149.063 109.666 149.444C109.438 149.826 109.155 150.151 108.816 150.418C108.478 150.683 108.097 150.885 107.676 151.023C107.257 151.162 106.809 151.231 106.332 151.231C105.526 151.231 104.809 151.034 104.181 150.64C103.553 150.246 103.059 149.686 102.699 148.96C102.339 148.233 102.159 147.371 102.159 146.374C102.159 145.377 102.339 144.515 102.699 143.789C103.059 143.063 103.553 142.503 104.181 142.109C104.809 141.715 105.526 141.518 106.332 141.518C106.809 141.518 107.257 141.587 107.676 141.725C108.097 141.864 108.478 142.067 108.816 142.335C109.155 142.6 109.438 142.923 109.666 143.304C109.893 143.683 110.05 144.115 110.136 144.602ZM114.719 151.249C114.079 151.249 113.518 151.097 113.034 150.792C112.554 150.488 112.179 150.061 111.908 149.513C111.64 148.966 111.506 148.326 111.506 147.593C111.506 146.854 111.64 146.21 111.908 145.659C112.179 145.108 112.554 144.68 113.034 144.375C113.518 144.071 114.079 143.918 114.719 143.918C115.36 143.918 115.92 144.071 116.4 144.375C116.883 144.68 117.258 145.108 117.526 145.659C117.797 146.21 117.932 146.854 117.932 147.593C117.932 148.326 117.797 148.966 117.526 149.513C117.258 150.061 116.883 150.488 116.4 150.792C115.92 151.097 115.36 151.249 114.719 151.249ZM114.719 150.271C115.206 150.271 115.606 150.146 115.92 149.897C116.234 149.647 116.466 149.32 116.617 148.913C116.768 148.507 116.843 148.067 116.843 147.593C116.843 147.119 116.768 146.677 116.617 146.268C116.466 145.859 116.234 145.528 115.92 145.276C115.606 145.023 115.206 144.897 114.719 144.897C114.233 144.897 113.833 145.023 113.519 145.276C113.205 145.528 112.973 145.859 112.822 146.268C112.671 146.677 112.596 147.119 112.596 147.593C112.596 148.067 112.671 148.507 112.822 148.913C112.973 149.32 113.205 149.647 113.519 149.897C113.833 150.146 114.233 150.271 114.719 150.271ZM120.685 141.647V151.102H119.596V141.647H120.685ZM123.77 141.647V151.102H122.681V141.647H123.77ZM127.852 151.268C127.403 151.268 126.995 151.183 126.629 151.014C126.263 150.842 125.972 150.594 125.756 150.271C125.541 149.944 125.433 149.55 125.433 149.089C125.433 148.683 125.513 148.353 125.673 148.101C125.833 147.845 126.047 147.645 126.315 147.501C126.583 147.356 126.878 147.248 127.201 147.178C127.527 147.104 127.855 147.045 128.184 147.002C128.615 146.947 128.965 146.905 129.232 146.877C129.503 146.847 129.7 146.796 129.823 146.725C129.95 146.654 130.013 146.531 130.013 146.356V146.319C130.013 145.863 129.888 145.509 129.639 145.257C129.392 145.005 129.019 144.879 128.517 144.879C127.997 144.879 127.589 144.992 127.294 145.22C126.998 145.448 126.79 145.691 126.67 145.95L125.636 145.58C125.821 145.149 126.067 144.814 126.375 144.574C126.686 144.331 127.024 144.161 127.39 144.066C127.76 143.968 128.123 143.918 128.48 143.918C128.708 143.918 128.969 143.946 129.265 144.001C129.563 144.054 129.851 144.163 130.128 144.329C130.408 144.495 130.64 144.746 130.825 145.082C131.01 145.417 131.102 145.866 131.102 146.43V151.102H130.013V150.141H129.957C129.883 150.295 129.76 150.46 129.588 150.635C129.416 150.811 129.186 150.96 128.9 151.083C128.614 151.206 128.265 151.268 127.852 151.268ZM128.018 150.289C128.449 150.289 128.812 150.204 129.108 150.035C129.406 149.866 129.631 149.647 129.782 149.38C129.936 149.112 130.013 148.83 130.013 148.535V147.538C129.966 147.593 129.865 147.644 129.708 147.69C129.554 147.733 129.376 147.772 129.172 147.805C128.972 147.836 128.777 147.864 128.586 147.888C128.398 147.91 128.246 147.929 128.129 147.944C127.846 147.981 127.581 148.041 127.335 148.124C127.092 148.204 126.895 148.326 126.744 148.489C126.596 148.649 126.523 148.867 126.523 149.144C126.523 149.523 126.663 149.809 126.943 150.003C127.226 150.194 127.584 150.289 128.018 150.289ZM133.238 151.102V141.647H134.328V145.137H134.42C134.5 145.014 134.611 144.857 134.753 144.666C134.897 144.472 135.103 144.3 135.371 144.149C135.642 143.995 136.008 143.918 136.47 143.918C137.067 143.918 137.593 144.068 138.049 144.366C138.504 144.665 138.86 145.088 139.115 145.636C139.371 146.183 139.498 146.83 139.498 147.575C139.498 148.326 139.371 148.976 139.115 149.527C138.86 150.075 138.506 150.5 138.053 150.801C137.601 151.1 137.079 151.249 136.488 151.249C136.033 151.249 135.668 151.174 135.394 151.023C135.12 150.869 134.91 150.695 134.762 150.501C134.614 150.304 134.5 150.141 134.42 150.012H134.291V151.102H133.238ZM134.309 147.556C134.309 148.092 134.388 148.564 134.545 148.973C134.702 149.38 134.931 149.698 135.233 149.929C135.534 150.157 135.904 150.271 136.341 150.271C136.796 150.271 137.176 150.151 137.481 149.911C137.789 149.667 138.02 149.341 138.173 148.932C138.33 148.519 138.409 148.061 138.409 147.556C138.409 147.058 138.332 146.608 138.178 146.208C138.027 145.805 137.798 145.486 137.49 145.252C137.185 145.016 136.802 144.897 136.341 144.897C135.897 144.897 135.525 145.009 135.223 145.234C134.922 145.456 134.694 145.766 134.54 146.167C134.386 146.564 134.309 147.027 134.309 147.556ZM144.046 151.249C143.405 151.249 142.844 151.097 142.361 150.792C141.88 150.488 141.505 150.061 141.234 149.513C140.966 148.966 140.832 148.326 140.832 147.593C140.832 146.854 140.966 146.21 141.234 145.659C141.505 145.108 141.88 144.68 142.361 144.375C142.844 144.071 143.405 143.918 144.046 143.918C144.686 143.918 145.246 144.071 145.726 144.375C146.209 144.68 146.585 145.108 146.852 145.659C147.123 146.21 147.259 146.854 147.259 147.593C147.259 148.326 147.123 148.966 146.852 149.513C146.585 150.061 146.209 150.488 145.726 150.792C145.246 151.097 144.686 151.249 144.046 151.249ZM144.046 150.271C144.532 150.271 144.932 150.146 145.246 149.897C145.56 149.647 145.792 149.32 145.943 148.913C146.094 148.507 146.169 148.067 146.169 147.593C146.169 147.119 146.094 146.677 145.943 146.268C145.792 145.859 145.56 145.528 145.246 145.276C144.932 145.023 144.532 144.897 144.046 144.897C143.559 144.897 143.159 145.023 142.845 145.276C142.531 145.528 142.299 145.859 142.148 146.268C141.997 146.677 141.922 147.119 141.922 147.593C141.922 148.067 141.997 148.507 142.148 148.913C142.299 149.32 142.531 149.647 142.845 149.897C143.159 150.146 143.559 150.271 144.046 150.271ZM148.922 151.102V144.011H149.974V145.082H150.048C150.177 144.731 150.411 144.446 150.75 144.228C151.088 144.009 151.47 143.9 151.895 143.9C151.975 143.9 152.075 143.901 152.195 143.904C152.315 143.908 152.406 143.912 152.467 143.918V145.026C152.43 145.017 152.346 145.003 152.213 144.985C152.084 144.963 151.947 144.952 151.802 144.952C151.458 144.952 151.15 145.025 150.879 145.169C150.611 145.311 150.399 145.508 150.242 145.76C150.088 146.01 150.011 146.294 150.011 146.614V151.102H148.922ZM155.845 151.268C155.396 151.268 154.988 151.183 154.622 151.014C154.256 150.842 153.965 150.594 153.749 150.271C153.534 149.944 153.426 149.55 153.426 149.089C153.426 148.683 153.506 148.353 153.666 148.101C153.826 147.845 154.04 147.645 154.308 147.501C154.576 147.356 154.871 147.248 155.194 147.178C155.521 147.104 155.848 147.045 156.178 147.002C156.609 146.947 156.958 146.905 157.226 146.877C157.496 146.847 157.693 146.796 157.817 146.725C157.943 146.654 158.006 146.531 158.006 146.356V146.319C158.006 145.863 157.881 145.509 157.632 145.257C157.386 145.005 157.012 144.879 156.51 144.879C155.99 144.879 155.582 144.992 155.287 145.22C154.991 145.448 154.783 145.691 154.663 145.95L153.629 145.58C153.814 145.149 154.06 144.814 154.368 144.574C154.679 144.331 155.017 144.161 155.384 144.066C155.753 143.968 156.116 143.918 156.473 143.918C156.701 143.918 156.962 143.946 157.258 144.001C157.556 144.054 157.844 144.163 158.121 144.329C158.401 144.495 158.634 144.746 158.818 145.082C159.003 145.417 159.095 145.866 159.095 146.43V151.102H158.006V150.141H157.95C157.877 150.295 157.753 150.46 157.581 150.635C157.409 150.811 157.179 150.96 156.893 151.083C156.607 151.206 156.258 151.268 155.845 151.268ZM156.011 150.289C156.442 150.289 156.806 150.204 157.101 150.035C157.399 149.866 157.624 149.647 157.775 149.38C157.929 149.112 158.006 148.83 158.006 148.535V147.538C157.96 147.593 157.858 147.644 157.701 147.69C157.547 147.733 157.369 147.772 157.166 147.805C156.966 147.836 156.77 147.864 156.579 147.888C156.392 147.91 156.239 147.929 156.122 147.944C155.839 147.981 155.574 148.041 155.328 148.124C155.085 148.204 154.888 148.326 154.737 148.489C154.59 148.649 154.516 148.867 154.516 149.144C154.516 149.523 154.656 149.809 154.936 150.003C155.219 150.194 155.578 150.289 156.011 150.289ZM164.168 144.011V144.934H160.493V144.011H164.168ZM161.564 142.312H162.653V149.07C162.653 149.378 162.698 149.609 162.787 149.763C162.88 149.914 162.997 150.015 163.138 150.067C163.283 150.117 163.435 150.141 163.595 150.141C163.715 150.141 163.814 150.135 163.891 150.123C163.968 150.107 164.029 150.095 164.075 150.086L164.297 151.065C164.223 151.092 164.12 151.12 163.988 151.148C163.855 151.179 163.688 151.194 163.484 151.194C163.177 151.194 162.875 151.128 162.58 150.995C162.287 150.863 162.044 150.661 161.85 150.391C161.659 150.12 161.564 149.778 161.564 149.366V142.312ZM165.806 151.102V144.011H166.896V151.102H165.806ZM166.36 142.829C166.148 142.829 165.965 142.757 165.811 142.612C165.66 142.467 165.585 142.293 165.585 142.09C165.585 141.887 165.66 141.713 165.811 141.569C165.965 141.424 166.148 141.352 166.36 141.352C166.573 141.352 166.754 141.424 166.905 141.569C167.059 141.713 167.136 141.887 167.136 142.09C167.136 142.293 167.059 142.467 166.905 142.612C166.754 142.757 166.573 142.829 166.36 142.829ZM171.772 151.249C171.132 151.249 170.57 151.097 170.087 150.792C169.607 150.488 169.232 150.061 168.961 149.513C168.693 148.966 168.559 148.326 168.559 147.593C168.559 146.854 168.693 146.21 168.961 145.659C169.232 145.108 169.607 144.68 170.087 144.375C170.57 144.071 171.132 143.918 171.772 143.918C172.412 143.918 172.972 144.071 173.453 144.375C173.936 144.68 174.311 145.108 174.579 145.659C174.85 146.21 174.985 146.854 174.985 147.593C174.985 148.326 174.85 148.966 174.579 149.513C174.311 150.061 173.936 150.488 173.453 150.792C172.972 151.097 172.412 151.249 171.772 151.249ZM171.772 150.271C172.258 150.271 172.658 150.146 172.972 149.897C173.286 149.647 173.519 149.32 173.67 148.913C173.82 148.507 173.896 148.067 173.896 147.593C173.896 147.119 173.82 146.677 173.67 146.268C173.519 145.859 173.286 145.528 172.972 145.276C172.658 145.023 172.258 144.897 171.772 144.897C171.286 144.897 170.886 145.023 170.572 145.276C170.258 145.528 170.026 145.859 169.875 146.268C169.724 146.677 169.649 147.119 169.649 147.593C169.649 148.067 169.724 148.507 169.875 148.913C170.026 149.32 170.258 149.647 170.572 149.897C170.886 150.146 171.286 150.271 171.772 150.271ZM177.738 146.836V151.102H176.648V144.011H177.701V145.119H177.793C177.959 144.759 178.212 144.469 178.55 144.251C178.889 144.029 179.326 143.918 179.861 143.918C180.341 143.918 180.762 144.017 181.122 144.214C181.482 144.408 181.762 144.703 181.962 145.1C182.162 145.494 182.262 145.993 182.262 146.596V151.102H181.172V146.67C181.172 146.113 181.028 145.679 180.738 145.368C180.449 145.054 180.052 144.897 179.547 144.897C179.2 144.897 178.889 144.972 178.615 145.123C178.344 145.274 178.13 145.494 177.973 145.783C177.816 146.073 177.738 146.424 177.738 146.836Z"
    fill="#7D7D7D"
  />
  <path
    d="M188.714 64.0045H124.017C123.576 64.004 123.151 63.8253 122.836 63.5044C122.521 63.1832 122.342 62.7457 122.342 62.2874V8.5768C122.342 8.11847 122.521 7.68099 122.836 7.35979C123.151 7.03893 123.576 6.86022 124.016 6.85962H188.714C189.155 6.86022 189.58 7.03893 189.894 7.3598C190.209 7.68105 190.388 8.11864 190.389 8.57707V62.2871C190.388 62.7455 190.209 63.1831 189.894 63.5044C189.58 63.8253 189.155 64.004 188.714 64.0045Z"
    stroke="#434343"
  />
  <path
    d="M126.058 10.5812C126.336 10.3024 126.713 10.1457 127.107 10.1452L185.62 10.1452C185.62 10.1452 185.62 10.1452 185.62 10.1452C186.013 10.1457 186.391 10.3024 186.669 10.5812L187.022 10.2289L186.669 10.5812C186.947 10.8601 187.104 11.2384 187.104 11.6331V42.2469C187.099 47.0392 185.196 51.6335 181.813 55.022C178.43 58.4104 173.843 60.3163 169.059 60.3217H127.107C126.713 60.3212 126.336 60.1645 126.058 59.8857C125.779 59.6069 125.623 59.2288 125.622 58.8341V11.6329C125.623 11.2382 125.779 10.86 126.058 10.5812Z"
    stroke="#434343"
  />
  <line x1="125.048" y1="14.6472" x2="187.43" y2="14.6472" stroke="#434343" />
  <line x1="130.237" y1="60.8937" x2="130.237" y2="15.1471" stroke="#434343" />
  <line x1="149.869" y1="60.8705" x2="149.869" y2="15.0814" stroke="#434343" />
  <circle cx="181.35" cy="17.716" r="17.716" fill="#434343" />
  <path
    fill-rule="evenodd"
    clip-rule="evenodd"
    d="M182.907 26.3469C183.861 26.3469 184.794 26.0609 185.588 25.5249C186.381 24.989 187 24.2273 187.365 23.3361C187.73 22.4448 187.826 21.4642 187.64 20.5181C187.454 19.572 186.994 18.7029 186.319 18.0208C185.644 17.3387 184.784 16.8742 183.848 16.686C182.912 16.4978 181.942 16.5944 181.06 16.9635C180.178 17.3327 179.424 17.9578 178.894 18.7599C178.364 19.562 178.081 20.5049 178.081 21.4696C178.081 22.7631 178.589 24.0037 179.494 24.9184C180.399 25.8331 181.627 26.3469 182.907 26.3469ZM182.37 24.1788C183.006 24.1788 183.628 23.9881 184.157 23.6308C184.686 23.2735 185.099 22.7657 185.342 22.1715C185.586 21.5774 185.65 20.9236 185.525 20.2929C185.401 19.6621 185.095 19.0828 184.645 18.628C184.195 18.1733 183.622 17.8636 182.998 17.7382C182.373 17.6127 181.727 17.6771 181.139 17.9232C180.551 18.1693 180.048 18.586 179.695 19.1208C179.341 19.6555 179.153 20.2841 179.153 20.9272C179.153 21.7891 179.493 22.6155 180.096 23.2247C180.699 23.834 181.517 24.1762 182.37 24.1762V24.1788Z"
    fill="#7F9EF3"
  />
  <path
    d="M175.579 21.848C173.884 21.0168 172.719 19.2908 172.719 17.2963C172.719 14.9712 174.435 12.8232 177.009 12.4079C177.816 10.4962 179.727 9.08514 181.955 9.08514C184.81 9.08514 187.144 11.29 187.304 14.0692C188.819 14.7289 189.878 16.3479 189.878 18.101"
    stroke="#7F9EF3"
    stroke-linecap="round"
    stroke-linejoin="round"
  />
  <path
    d="M66.8721 164.345H2.17496C1.73405 164.344 1.30933 164.166 0.994554 163.845C0.679516 163.524 0.500591 163.086 0.5 162.628V108.917C0.500592 108.459 0.679517 108.021 0.994555 107.7C1.30927 107.379 1.73387 107.201 2.17468 107.2H66.8724C67.3132 107.201 67.7378 107.379 68.0525 107.7C68.3676 108.021 68.5466 108.459 68.5471 108.917V162.627C68.5466 163.086 68.3676 163.523 68.0525 163.845C67.7378 164.166 67.313 164.344 66.8721 164.345Z"
    stroke="#434343"
  />
  <path
    d="M4.21592 110.922C4.49428 110.643 4.8715 110.486 5.26482 110.485L63.7779 110.485C63.778 110.485 63.7781 110.485 63.7782 110.485C64.1715 110.486 64.5487 110.643 64.8271 110.922L65.18 110.569L64.8271 110.922C65.1055 111.2 65.2623 111.579 65.2627 111.973V142.587C65.2573 147.379 63.3541 151.974 59.9709 155.362C56.5877 158.751 52.0009 160.657 47.2167 160.662H5.26508C4.87167 160.662 4.49436 160.505 4.21595 160.226C3.93758 159.947 3.78081 159.569 3.78027 159.174V111.973C3.78079 111.579 3.93754 111.2 4.21592 110.922Z"
    stroke="#434343"
  />
  <line x1="3.20581" y1="114.987" x2="65.5875" y2="114.987" stroke="#434343" />
  <line x1="8.39539" y1="161.234" x2="8.39538" y2="115.487" stroke="#434343" />
  <line x1="28.0273" y1="161.211" x2="28.0273" y2="115.422" stroke="#434343" />
  <circle cx="59.5078" cy="118.056" r="17.716" fill="#434343" />
  <path
    fill-rule="evenodd"
    clip-rule="evenodd"
    d="M61.0648 126.687C62.0193 126.687 62.9523 126.401 63.7459 125.865C64.5396 125.329 65.1581 124.568 65.5234 123.676C65.8887 122.785 65.9842 121.805 65.798 120.858C65.6118 119.912 65.1522 119.043 64.4773 118.361C63.8023 117.679 62.9424 117.215 62.0063 117.026C61.0701 116.838 60.0998 116.935 59.2179 117.304C58.3361 117.673 57.5824 118.298 57.0521 119.1C56.5218 119.902 56.2388 120.845 56.2388 121.81C56.2388 123.104 56.7472 124.344 57.6523 125.259C58.5573 126.173 59.7848 126.687 61.0648 126.687ZM60.5281 124.519C61.1644 124.519 61.7865 124.328 62.3156 123.971C62.8447 123.614 63.257 123.106 63.5005 122.512C63.744 121.918 63.8078 121.264 63.6836 120.633C63.5595 120.003 63.2531 119.423 62.8031 118.968C62.3532 118.514 61.7799 118.204 61.1558 118.079C60.5317 117.953 59.8848 118.017 59.2969 118.264C58.709 118.51 58.2065 118.926 57.853 119.461C57.4995 119.996 57.3108 120.624 57.3108 121.268C57.3115 122.13 57.6507 122.956 58.254 123.565C58.8573 124.174 59.6753 124.517 60.5281 124.517V124.519Z"
    fill="#7F9EF3"
  />
  <path
    d="M53.7368 122.188C52.0418 121.357 50.877 119.631 50.877 117.637C50.877 115.312 52.5929 113.164 55.1667 112.748C55.9741 110.837 57.8849 109.425 60.1136 109.425C62.9684 109.425 65.3017 111.63 65.4622 114.41C66.9772 115.069 68.036 116.688 68.036 118.441"
    stroke="#7F9EF3"
    stroke-linecap="round"
    stroke-linejoin="round"
  />
  <path
    d="M271.648 206.324H206.951C206.51 206.323 206.086 206.145 205.771 205.824C205.456 205.503 205.277 205.065 205.276 204.607V150.896C205.277 150.438 205.456 150 205.771 149.679C206.086 149.358 206.51 149.18 206.951 149.179H271.649C272.09 149.18 272.514 149.358 272.829 149.679C273.144 150.001 273.323 150.438 273.323 150.897V204.607C273.323 205.065 273.144 205.503 272.829 205.824C272.514 206.145 272.089 206.323 271.648 206.324Z"
    stroke="#434343"
  />
  <path
    d="M208.992 152.901C209.27 152.622 209.648 152.465 210.041 152.465L268.554 152.465C268.554 152.465 268.554 152.465 268.554 152.465C268.948 152.465 269.325 152.622 269.603 152.901L269.956 152.548L269.603 152.901C269.882 153.18 270.038 153.558 270.039 153.953V184.566C270.033 189.359 268.13 193.953 264.747 197.341C261.364 200.73 256.777 202.636 251.993 202.641H210.041C209.648 202.641 209.27 202.484 208.992 202.205C208.714 201.926 208.557 201.548 208.556 201.154V153.952C208.557 153.558 208.714 153.18 208.992 152.901Z"
    stroke="#434343"
  />
  <line x1="207.982" y1="156.967" x2="270.364" y2="156.967" stroke="#434343" />
  <line x1="213.171" y1="203.213" x2="213.171" y2="157.467" stroke="#434343" />
  <line x1="232.804" y1="203.19" x2="232.804" y2="157.401" stroke="#434343" />
  <circle cx="264.284" cy="160.036" r="17.716" fill="#434343" />
  <path
    fill-rule="evenodd"
    clip-rule="evenodd"
    d="M265.841 168.666C266.795 168.666 267.728 168.38 268.522 167.844C269.316 167.309 269.934 166.547 270.3 165.656C270.665 164.764 270.76 163.784 270.574 162.838C270.388 161.891 269.928 161.022 269.253 160.34C268.578 159.658 267.719 159.194 266.782 159.005C265.846 158.817 264.876 158.914 263.994 159.283C263.112 159.652 262.359 160.277 261.828 161.079C261.298 161.881 261.015 162.824 261.015 163.789C261.015 165.083 261.523 166.323 262.428 167.238C263.333 168.153 264.561 168.666 265.841 168.666ZM265.304 166.498C265.941 166.498 266.563 166.308 267.092 165.95C267.621 165.593 268.033 165.085 268.277 164.491C268.52 163.897 268.584 163.243 268.46 162.612C268.336 161.982 268.029 161.402 267.579 160.948C267.129 160.493 266.556 160.183 265.932 160.058C265.308 159.932 264.661 159.997 264.073 160.243C263.485 160.489 262.983 160.906 262.629 161.44C262.276 161.975 262.087 162.604 262.087 163.247C262.088 164.109 262.427 164.935 263.03 165.544C263.633 166.153 264.451 166.496 265.304 166.496V166.498Z"
    fill="#7F9EF3"
  />
  <path
    d="M258.513 164.168C256.818 163.336 255.653 161.61 255.653 159.616C255.653 157.291 257.369 155.143 259.943 154.727C260.75 152.816 262.661 151.405 264.89 151.405C267.745 151.405 270.078 153.61 270.238 156.389C271.753 157.048 272.812 158.667 272.812 160.421"
    stroke="#7F9EF3"
    stroke-linecap="round"
    stroke-linejoin="round"
  />
  <line x1="85.5492" y1="268.054" x2="106.027" y2="221.979" stroke="#5A5A5A" stroke-dasharray="3 3" />
</svg>
