<svg width="338" height="117" viewBox="0 0 338 117" fill="none" xmlns="http://www.w3.org/2000/svg">
<path d="M240.207 88.4939L246.712 88.1239" stroke="#D89614" stroke-miterlimit="10" stroke-linecap="round" stroke-linejoin="round"/>
<path d="M250.981 87.6263L257.384 86.5505" stroke="#D89614" stroke-miterlimit="10" stroke-linecap="round" stroke-linejoin="round"/>
<path d="M260.891 85.7871L267.11 83.879" stroke="#D89614" stroke-miterlimit="10" stroke-linecap="round" stroke-linejoin="round"/>
<path d="M270.713 82.6421L276.762 80.2334" stroke="#D89614" stroke-miterlimit="10" stroke-linecap="round" stroke-linejoin="round"/>
<path d="M280.137 78.5115L285.907 75.4701" stroke="#D89614" stroke-miterlimit="10" stroke-linecap="round" stroke-linejoin="round"/>
<path d="M289.269 73.4165L294.462 69.4627" stroke="#D89614" stroke-miterlimit="10" stroke-linecap="round" stroke-linejoin="round"/>
<path d="M297.379 67.3183L302.157 62.8683" stroke="#D89614" stroke-miterlimit="10" stroke-linecap="round" stroke-linejoin="round"/>
<path d="M304.861 60.2967L309.113 55.3555" stroke="#D89614" stroke-miterlimit="10" stroke-linecap="round" stroke-linejoin="round"/>
<path d="M311.547 52.3726L315.355 47.0668" stroke="#D89614" stroke-miterlimit="10" stroke-linecap="round" stroke-linejoin="round"/>
<path d="M317.42 43.7616L320.597 38.0801" stroke="#D89614" stroke-miterlimit="10" stroke-linecap="round" stroke-linejoin="round"/>
<path d="M322.154 34.7261L324.668 28.6899" stroke="#D89614" stroke-miterlimit="10" stroke-linecap="round" stroke-linejoin="round"/>
<path d="M325.865 25.0976L327.668 18.8066" stroke="#D89614" stroke-miterlimit="10" stroke-linecap="round" stroke-linejoin="round"/>
<path d="M328.597 14.3925L329.904 8" stroke="#D89614" stroke-miterlimit="10" stroke-linecap="round" stroke-linejoin="round"/>
<path d="M338 7.84499C338 12.1777 334.509 15.69 330.203 15.69C325.896 15.69 322.405 12.1777 322.405 7.84499C322.405 3.51232 325.896 -1.53529e-07 330.203 -3.42915e-07C334.509 -5.32302e-07 338 3.51232 338 7.84499Z" fill="#D89614"/>
<circle cx="188.736" cy="88.7358" r="27.7358" fill="white" fill-opacity="0.07"/>
<path d="M172.546 81.359L185.273 74.0113L197.999 81.359V96.0544L185.273 103.402L172.546 96.0544V81.359Z" fill="#F3AC21" fill-opacity="0.2" stroke="#7D7D7D"/>
<path d="M208.247 74.8658L209.901 73.9112L210.151 74.3443L210.727 74.0113L211.304 74.3443L211.554 73.9112L213.207 74.8658L212.957 75.2988L214.611 76.2534L214.861 75.8203L216.514 76.7749L216.264 77.2079L217.917 78.1624L218.167 77.7294L219.821 78.684L219.571 79.117L221.224 80.0715L221.474 79.6385L223.127 80.5931L222.877 81.0261L223.454 81.359V82.0249H223.954V83.934H223.454V85.8431H223.954V87.7522H223.454V89.6612H223.954V91.5703H223.454V93.4794H223.954V95.3885H223.454V96.0544L222.877 96.3873L223.127 96.8203L221.474 97.7749L221.224 97.3419L219.571 98.2964L219.821 98.7294L218.167 99.684L217.917 99.251L216.264 100.206L216.514 100.639L214.861 101.593L214.611 101.16L212.957 102.115L213.207 102.548L211.554 103.502L211.304 103.069L210.727 103.402L210.151 103.069L209.901 103.502L208.247 102.548L208.497 102.115L206.844 101.16L206.594 101.593L204.941 100.639L205.191 100.206L203.537 99.251L203.287 99.684L201.634 98.7294L201.884 98.2964L200.231 97.3419L199.981 97.7749L198.327 96.8203L198.577 96.3873L198.001 96.0544V95.3885H197.501V93.4794H198.001V91.5703H197.501V89.6612H198.001V87.7522H197.501V85.8431H198.001V83.934H197.501V82.0249H198.001V81.359L198.577 81.0261L198.327 80.5931L199.981 79.6385L200.231 80.0715L201.884 79.117L201.634 78.684L203.287 77.7294L203.537 78.1624L205.191 77.2079L204.941 76.7749L206.594 75.8203L206.844 76.2534L208.497 75.2988L208.247 74.8658Z" fill="#F3AC21" fill-opacity="0.2" stroke="#7D7D7D" stroke-dasharray="2 2"/>
<path d="M8.94975 75.6172C8.90335 75.183 8.7078 74.8449 8.3631 74.603C8.02172 74.361 7.57759 74.2401 7.03072 74.2401C6.64625 74.2401 6.31647 74.2981 6.04137 74.4141C5.76628 74.5301 5.55581 74.6875 5.40998 74.8864C5.26415 75.0852 5.18957 75.3123 5.18626 75.5675C5.18626 75.7796 5.23432 75.9635 5.33043 76.1193C5.42987 76.2751 5.5641 76.4077 5.73313 76.517C5.90217 76.6231 6.08943 76.7126 6.29492 76.7855C6.50041 76.8584 6.70756 76.9197 6.91637 76.9695L7.87092 77.2081C8.25539 77.2976 8.62494 77.4186 8.97958 77.571C9.33754 77.7235 9.65737 77.9157 9.9391 78.1477C10.2241 78.3797 10.4495 78.6598 10.6152 78.9879C10.781 79.3161 10.8638 79.7005 10.8638 80.1413C10.8638 80.7379 10.7114 81.2633 10.4064 81.7173C10.1015 82.1681 9.66069 82.5211 9.08398 82.7763C8.51059 83.0282 7.81623 83.1541 7.00089 83.1541C6.20875 83.1541 5.52101 83.0315 4.93768 82.7862C4.35766 82.541 3.90359 82.183 3.57546 81.7124C3.25065 81.2417 3.07499 80.6683 3.04847 79.9922H4.8631C4.88962 80.3468 4.99899 80.6418 5.19123 80.8771C5.38346 81.1125 5.6337 81.2881 5.94194 81.4041C6.25349 81.5201 6.6015 81.5781 6.98597 81.5781C7.38701 81.5781 7.73834 81.5185 8.03995 81.3991C8.34487 81.2765 8.58351 81.1075 8.75586 80.892C8.92821 80.6733 9.01604 80.4181 9.01935 80.1264C9.01604 79.8613 8.93815 79.6425 8.78569 79.4702C8.63323 79.2945 8.41945 79.1487 8.14435 79.0327C7.87257 78.9134 7.55439 78.8073 7.18981 78.7145L6.03143 78.4162C5.19289 78.2008 4.53001 77.8743 4.04279 77.4368C3.55889 76.996 3.31694 76.411 3.31694 75.6818C3.31694 75.0819 3.47934 74.5566 3.80415 74.1058C4.13228 73.6551 4.57807 73.3054 5.14151 73.0568C5.70496 72.8049 6.34298 72.679 7.05558 72.679C7.77811 72.679 8.41116 72.8049 8.95472 73.0568C9.5016 73.3054 9.93081 73.6518 10.2424 74.0959C10.5539 74.5367 10.7147 75.0438 10.7246 75.6172H8.94975ZM16.2418 75.3636V76.7557H11.8519V75.3636H16.2418ZM12.9357 73.5341H14.7354V80.7031C14.7354 80.9451 14.7719 81.1307 14.8448 81.2599C14.921 81.3859 15.0205 81.4721 15.1431 81.5185C15.2657 81.5649 15.4016 81.5881 15.5508 81.5881C15.6635 81.5881 15.7662 81.5798 15.859 81.5632C15.9551 81.5466 16.0281 81.5317 16.0778 81.5185L16.381 82.9254C16.2849 82.9586 16.1474 82.995 15.9684 83.0348C15.7927 83.0746 15.5773 83.0978 15.3221 83.1044C14.8713 83.1177 14.4653 83.0497 14.104 82.9006C13.7428 82.7481 13.4561 82.5128 13.244 82.1946C13.0352 81.8764 12.9324 81.4787 12.9357 81.0014V73.5341ZM19.9444 83.1541C19.4605 83.1541 19.0247 83.0679 18.6369 82.8956C18.2524 82.7199 17.9475 82.4614 17.7221 82.12C17.5001 81.7786 17.389 81.3577 17.389 80.8572C17.389 80.4264 17.4686 80.0701 17.6277 79.7884C17.7868 79.5066 18.0038 79.2812 18.2789 79.1122C18.554 78.9432 18.8639 78.8156 19.2086 78.7294C19.5566 78.6399 19.9163 78.5753 20.2875 78.5355C20.7349 78.4891 21.0978 78.4477 21.3762 78.4112C21.6547 78.3714 21.8568 78.3118 21.9828 78.2322C22.112 78.1494 22.1767 78.0218 22.1767 77.8494V77.8196C22.1767 77.4451 22.0656 77.1551 21.8436 76.9496C21.6215 76.7441 21.3017 76.6413 20.8841 76.6413C20.4432 76.6413 20.0936 76.7375 19.835 76.9297C19.5798 77.1219 19.4075 77.349 19.318 77.6108L17.6376 77.3722C17.7702 76.9081 17.9889 76.5204 18.2939 76.2088C18.5988 75.8939 18.9717 75.6586 19.4125 75.5028C19.8533 75.3438 20.3405 75.2642 20.8741 75.2642C21.242 75.2642 21.6083 75.3073 21.9728 75.3935C22.3374 75.4796 22.6705 75.6222 22.9721 75.821C23.2737 76.0166 23.5157 76.2834 23.698 76.6214C23.8836 76.9595 23.9764 77.3821 23.9764 77.8892V83H22.2463V81.951H22.1866C22.0772 82.1631 21.9231 82.362 21.7243 82.5476C21.5287 82.7299 21.2818 82.8774 20.9835 82.9901C20.6885 83.0994 20.3422 83.1541 19.9444 83.1541ZM20.4118 81.8317C20.773 81.8317 21.0862 81.7604 21.3514 81.6179C21.6165 81.4721 21.8204 81.2798 21.9629 81.0412C22.1087 80.8026 22.1816 80.5424 22.1816 80.2607V79.3608C22.1253 79.4072 22.0292 79.4503 21.8933 79.4901C21.7607 79.5298 21.6116 79.5646 21.4458 79.5945C21.2801 79.6243 21.1161 79.6508 20.9537 79.674C20.7913 79.6972 20.6504 79.7171 20.5311 79.7337C20.2626 79.7701 20.0223 79.8298 19.8102 79.9126C19.5981 79.9955 19.4307 80.1115 19.3081 80.2607C19.1854 80.4065 19.1241 80.5954 19.1241 80.8274C19.1241 81.1589 19.2451 81.4091 19.487 81.5781C19.729 81.7472 20.0372 81.8317 20.4118 81.8317ZM25.786 83V75.3636H27.5311V76.6364H27.6106C27.7498 76.1955 27.9885 75.8558 28.3265 75.6172C28.6679 75.3752 29.0574 75.2543 29.4949 75.2543C29.5943 75.2543 29.7053 75.2592 29.8279 75.2692C29.9539 75.2758 30.0583 75.2874 30.1412 75.304V76.9595C30.0649 76.933 29.944 76.9098 29.7782 76.8899C29.6158 76.8667 29.4584 76.8551 29.3059 76.8551C28.9778 76.8551 28.6828 76.9264 28.421 77.0689C28.1625 77.2081 27.9586 77.402 27.8095 77.6506C27.6603 77.8991 27.5858 78.1858 27.5858 78.5107V83H25.786ZM35.5602 75.3636V76.7557H31.1703V75.3636H35.5602ZM32.2541 73.5341H34.0538V80.7031C34.0538 80.9451 34.0903 81.1307 34.1632 81.2599C34.2394 81.3859 34.3388 81.4721 34.4615 81.5185C34.5841 81.5649 34.72 81.5881 34.8691 81.5881C34.9818 81.5881 35.0846 81.5798 35.1774 81.5632C35.2735 81.5466 35.3464 81.5317 35.3961 81.5185L35.6994 82.9254C35.6033 82.9586 35.4657 82.995 35.2868 83.0348C35.1111 83.0746 34.8957 83.0978 34.6404 83.1044C34.1897 83.1177 33.7837 83.0497 33.4224 82.9006C33.0611 82.7481 32.7744 82.5128 32.5623 82.1946C32.3535 81.8764 32.2508 81.4787 32.2541 81.0014V73.5341ZM40.6175 83V72.8182H42.4173V76.6264H42.4918C42.5846 76.4408 42.7156 76.2436 42.8846 76.0348C43.0536 75.8227 43.2823 75.642 43.5707 75.4929C43.859 75.3404 44.2269 75.2642 44.6744 75.2642C45.2643 75.2642 45.7963 75.415 46.2702 75.7166C46.7475 76.0149 47.1254 76.4574 47.4038 77.044C47.6855 77.6274 47.8263 78.3433 47.8263 79.1918C47.8263 80.0303 47.6888 80.7429 47.4137 81.3295C47.1386 81.9162 46.7641 82.3636 46.2901 82.6719C45.8162 82.9801 45.2792 83.1342 44.6793 83.1342C44.2418 83.1342 43.8789 83.0613 43.5906 82.9155C43.3022 82.7696 43.0702 82.594 42.8945 82.3885C42.7222 82.1797 42.5879 81.9825 42.4918 81.7969H42.3874V83H40.6175ZM42.3825 79.1818C42.3825 79.6757 42.4521 80.1082 42.5913 80.4794C42.7338 80.8506 42.9376 81.1406 43.2028 81.3494C43.4712 81.5549 43.796 81.6577 44.1772 81.6577C44.5749 81.6577 44.908 81.5516 45.1765 81.3395C45.445 81.1241 45.6471 80.8307 45.783 80.4595C45.9222 80.085 45.9918 79.6591 45.9918 79.1818C45.9918 78.7079 45.9239 78.2869 45.788 77.919C45.6521 77.5511 45.4499 77.2628 45.1815 77.054C44.913 76.8452 44.5782 76.7408 44.1772 76.7408C43.7927 76.7408 43.4663 76.8419 43.1978 77.044C42.9293 77.2462 42.7255 77.5296 42.5863 77.8942C42.4504 78.2588 42.3825 78.688 42.3825 79.1818ZM50.2152 85.8636C49.9699 85.8636 49.7429 85.8438 49.5341 85.804C49.3286 85.7675 49.1645 85.7244 49.0419 85.6747L49.4595 84.2727C49.7214 84.349 49.955 84.3854 50.1605 84.3821C50.366 84.3788 50.5466 84.3142 50.7024 84.1882C50.8615 84.0656 50.9957 83.8601 51.1051 83.5717L51.2592 83.1591L48.4901 75.3636H50.3991L52.1591 81.1307H52.2386L54.0036 75.3636H55.9176L52.8601 83.9247C52.7176 84.3291 52.5286 84.6754 52.2933 84.9638C52.058 85.2554 51.7696 85.4775 51.4283 85.63C51.0902 85.7857 50.6858 85.8636 50.2152 85.8636ZM63.9666 83.1491C63.2043 83.1491 62.5497 82.9818 62.0028 82.647C61.4593 82.3123 61.04 81.8499 60.745 81.2599C60.4534 80.6667 60.3075 79.9839 60.3075 79.2116C60.3075 78.4361 60.4567 77.7517 60.755 77.1584C61.0533 76.5618 61.4742 76.0978 62.0178 75.7663C62.5646 75.4316 63.2109 75.2642 63.9567 75.2642C64.5765 75.2642 65.125 75.3786 65.6023 75.6072C66.0829 75.8326 66.4657 76.1525 66.7507 76.5668C67.0357 76.9777 67.1982 77.4583 67.2379 78.0085H65.5178C65.4482 77.6406 65.2824 77.334 65.0206 77.0888C64.7621 76.8402 64.4157 76.7159 63.9815 76.7159C63.6136 76.7159 63.2905 76.8153 63.0121 77.0142C62.7337 77.2098 62.5166 77.4915 62.3608 77.8594C62.2083 78.2273 62.1321 78.6681 62.1321 79.1818C62.1321 79.7022 62.2083 80.1496 62.3608 80.5241C62.5133 80.8954 62.727 81.1821 63.0021 81.3842C63.2805 81.5831 63.607 81.6825 63.9815 81.6825C64.2467 81.6825 64.4837 81.6328 64.6925 81.5334C64.9046 81.4306 65.0819 81.2831 65.2244 81.0909C65.367 80.8987 65.4647 80.665 65.5178 80.3899H67.2379C67.1948 80.9302 67.0357 81.4091 66.7607 81.8267C66.4856 82.241 66.111 82.5658 65.6371 82.8011C65.1631 83.0331 64.6063 83.1491 63.9666 83.1491ZM72.0467 83.1491C71.301 83.1491 70.6547 82.9851 70.1078 82.657C69.5609 82.3288 69.1367 81.8698 68.835 81.2798C68.5368 80.6899 68.3876 80.0005 68.3876 79.2116C68.3876 78.4228 68.5368 77.7318 68.835 77.1385C69.1367 76.5452 69.5609 76.0845 70.1078 75.7564C70.6547 75.4283 71.301 75.2642 72.0467 75.2642C72.7924 75.2642 73.4387 75.4283 73.9856 75.7564C74.5325 76.0845 74.9551 76.5452 75.2534 77.1385C75.555 77.7318 75.7058 78.4228 75.7058 79.2116C75.7058 80.0005 75.555 80.6899 75.2534 81.2798C74.9551 81.8698 74.5325 82.3288 73.9856 82.657C73.4387 82.9851 72.7924 83.1491 72.0467 83.1491ZM72.0566 81.7074C72.461 81.7074 72.7991 81.5964 73.0708 81.3743C73.3426 81.1489 73.5448 80.8473 73.6774 80.4695C73.8133 80.0916 73.8812 79.6707 73.8812 79.2067C73.8812 78.7393 73.8133 78.3168 73.6774 77.9389C73.5448 77.5578 73.3426 77.2545 73.0708 77.0291C72.7991 76.8037 72.461 76.6911 72.0566 76.6911C71.6423 76.6911 71.2976 76.8037 71.0225 77.0291C70.7508 77.2545 70.5469 77.5578 70.411 77.9389C70.2785 78.3168 70.2122 78.7393 70.2122 79.2067C70.2122 79.6707 70.2785 80.0916 70.411 80.4695C70.5469 80.8473 70.7508 81.1489 71.0225 81.3743C71.2976 81.5964 71.6423 81.7074 72.0566 81.7074ZM79.033 78.5256V83H77.2333V75.3636H78.9535V76.6612H79.043C79.2186 76.2337 79.4987 75.8939 79.8832 75.642C80.271 75.3902 80.7499 75.2642 81.32 75.2642C81.8469 75.2642 82.306 75.3769 82.6971 75.6023C83.0915 75.8277 83.3964 76.1541 83.6119 76.5817C83.8306 77.0092 83.9383 77.5279 83.935 78.1378V83H82.1353V78.4162C82.1353 77.9058 82.0027 77.5064 81.7376 77.218C81.4757 76.9297 81.1128 76.7855 80.6488 76.7855C80.3339 76.7855 80.0539 76.8551 79.8086 76.9943C79.5666 77.1302 79.3761 77.3274 79.2369 77.5859C79.101 77.8445 79.033 78.1577 79.033 78.5256ZM87.5643 78.5256V83H85.7646V75.3636H87.4847V76.6612H87.5742C87.7499 76.2337 88.0299 75.8939 88.4144 75.642C88.8022 75.3902 89.2811 75.2642 89.8512 75.2642C90.3782 75.2642 90.8372 75.3769 91.2283 75.6023C91.6228 75.8277 91.9277 76.1541 92.1431 76.5817C92.3619 77.0092 92.4696 77.5279 92.4663 78.1378V83H90.6665V78.4162C90.6665 77.9058 90.534 77.5064 90.2688 77.218C90.007 76.9297 89.6441 76.7855 89.18 76.7855C88.8652 76.7855 88.5851 76.8551 88.3398 76.9943C88.0979 77.1302 87.9073 77.3274 87.7681 77.5859C87.6322 77.8445 87.5643 78.1577 87.5643 78.5256ZM97.6765 83.1491C96.9109 83.1491 96.2496 82.9901 95.6928 82.6719C95.1393 82.3504 94.7134 81.8963 94.4151 81.3097C94.1168 80.7197 93.9677 80.0253 93.9677 79.2266C93.9677 78.4411 94.1168 77.7517 94.4151 77.1584C94.7167 76.5618 95.1377 76.0978 95.6779 75.7663C96.2182 75.4316 96.8529 75.2642 97.582 75.2642C98.0527 75.2642 98.4968 75.3404 98.9144 75.4929C99.3353 75.642 99.7066 75.8741 100.028 76.1889C100.353 76.5038 100.608 76.9048 100.794 77.392C100.979 77.8759 101.072 78.4527 101.072 79.1222V79.674H94.8129V78.4609H99.3469C99.3436 78.1162 99.2691 77.8097 99.1232 77.5412C98.9774 77.2694 98.7736 77.0556 98.5117 76.8999C98.2532 76.7441 97.9516 76.6662 97.6069 76.6662C97.239 76.6662 96.9158 76.7557 96.6374 76.9347C96.359 77.1103 96.1419 77.3423 95.9862 77.6307C95.8337 77.9157 95.7558 78.2289 95.7525 78.5703V79.6293C95.7525 80.0734 95.8337 80.4545 95.9961 80.7727C96.1585 81.0876 96.3855 81.3295 96.6772 81.4986C96.9689 81.6643 97.3103 81.7472 97.7013 81.7472C97.9632 81.7472 98.2002 81.7107 98.4123 81.6378C98.6244 81.5616 98.8084 81.4505 98.9641 81.3047C99.1199 81.1589 99.2376 80.9782 99.3171 80.7628L100.998 80.9517C100.891 81.3958 100.689 81.7836 100.391 82.1151C100.096 82.4432 99.7182 82.6984 99.2575 82.8807C98.7968 83.0597 98.2698 83.1491 97.6765 83.1491ZM105.926 83.1491C105.163 83.1491 104.509 82.9818 103.962 82.647C103.418 82.3123 102.999 81.8499 102.704 81.2599C102.412 80.6667 102.267 79.9839 102.267 79.2116C102.267 78.4361 102.416 77.7517 102.714 77.1584C103.012 76.5618 103.433 76.0978 103.977 75.7663C104.524 75.4316 105.17 75.2642 105.916 75.2642C106.535 75.2642 107.084 75.3786 107.561 75.6072C108.042 75.8326 108.425 76.1525 108.71 76.5668C108.995 76.9777 109.157 77.4583 109.197 78.0085H107.477C107.407 77.6406 107.241 77.334 106.98 77.0888C106.721 76.8402 106.375 76.7159 105.941 76.7159C105.573 76.7159 105.249 76.8153 104.971 77.0142C104.693 77.2098 104.476 77.4915 104.32 77.8594C104.167 78.2273 104.091 78.6681 104.091 79.1818C104.091 79.7022 104.167 80.1496 104.32 80.5241C104.472 80.8954 104.686 81.1821 104.961 81.3842C105.24 81.5831 105.566 81.6825 105.941 81.6825C106.206 81.6825 106.443 81.6328 106.651 81.5334C106.864 81.4306 107.041 81.2831 107.183 81.0909C107.326 80.8987 107.424 80.665 107.477 80.3899H109.197C109.154 80.9302 108.995 81.4091 108.72 81.8267C108.445 82.241 108.07 82.5658 107.596 82.8011C107.122 83.0331 106.565 83.1491 105.926 83.1491ZM114.488 75.3636V76.7557H110.098V75.3636H114.488ZM111.182 73.5341H112.982V80.7031C112.982 80.9451 113.018 81.1307 113.091 81.2599C113.167 81.3859 113.267 81.4721 113.389 81.5185C113.512 81.5649 113.648 81.5881 113.797 81.5881C113.91 81.5881 114.012 81.5798 114.105 81.5632C114.201 81.5466 114.274 81.5317 114.324 81.5185L114.627 82.9254C114.531 82.9586 114.393 82.995 114.214 83.0348C114.039 83.0746 113.823 83.0978 113.568 83.1044C113.117 83.1177 112.711 83.0497 112.35 82.9006C111.989 82.7481 111.702 82.5128 111.49 82.1946C111.281 81.8764 111.179 81.4787 111.182 81.0014V73.5341ZM115.993 83V75.3636H117.793V83H115.993ZM116.898 74.2798C116.613 74.2798 116.368 74.1854 116.162 73.9964C115.957 73.8042 115.854 73.5739 115.854 73.3054C115.854 73.0336 115.957 72.8033 116.162 72.6143C116.368 72.4221 116.613 72.326 116.898 72.326C117.186 72.326 117.432 72.4221 117.634 72.6143C117.839 72.8033 117.942 73.0336 117.942 73.3054C117.942 73.5739 117.839 73.8042 117.634 73.9964C117.432 74.1854 117.186 74.2798 116.898 74.2798ZM121.443 78.5256V83H119.643V75.3636H121.364V76.6612H121.453C121.629 76.2337 121.909 75.8939 122.293 75.642C122.681 75.3902 123.16 75.2642 123.73 75.2642C124.257 75.2642 124.716 75.3769 125.107 75.6023C125.502 75.8277 125.807 76.1541 126.022 76.5817C126.241 77.0092 126.348 77.5279 126.345 78.1378V83H124.545V78.4162C124.545 77.9058 124.413 77.5064 124.148 77.218C123.886 76.9297 123.523 76.7855 123.059 76.7855C122.744 76.7855 122.464 76.8551 122.219 76.9943C121.977 77.1302 121.786 77.3274 121.647 77.5859C121.511 77.8445 121.443 78.1577 121.443 78.5256ZM131.496 86.0227C130.849 86.0227 130.294 85.9349 129.83 85.7592C129.366 85.5869 128.993 85.3549 128.712 85.0632C128.43 84.7715 128.234 84.4484 128.125 84.0938L129.746 83.701C129.819 83.8501 129.925 83.9976 130.064 84.1435C130.203 84.2926 130.39 84.4152 130.626 84.5114C130.864 84.6108 131.164 84.6605 131.526 84.6605C132.036 84.6605 132.459 84.5362 132.793 84.2876C133.128 84.0424 133.295 83.638 133.295 83.0746V81.6278H133.206C133.113 81.8134 132.977 82.004 132.798 82.1996C132.623 82.3951 132.389 82.5592 132.097 82.6918C131.809 82.8243 131.446 82.8906 131.009 82.8906C130.422 82.8906 129.89 82.7531 129.413 82.478C128.939 82.1996 128.561 81.7853 128.279 81.2351C128.001 80.6816 127.862 79.9889 127.862 79.157C127.862 78.3184 128.001 77.6108 128.279 77.0341C128.561 76.4541 128.94 76.0149 129.418 75.7166C129.895 75.415 130.427 75.2642 131.013 75.2642C131.461 75.2642 131.829 75.3404 132.117 75.4929C132.409 75.642 132.641 75.8227 132.813 76.0348C132.986 76.2436 133.116 76.4408 133.206 76.6264H133.305V75.3636H135.08V83.1243C135.08 83.7772 134.924 84.3175 134.613 84.745C134.301 85.1726 133.875 85.4924 133.335 85.7045C132.795 85.9167 132.182 86.0227 131.496 86.0227ZM131.511 81.4787C131.892 81.4787 132.217 81.3859 132.485 81.2003C132.754 81.0147 132.957 80.7479 133.097 80.3999C133.236 80.0518 133.305 79.6342 133.305 79.147C133.305 78.6664 133.236 78.2455 133.097 77.8842C132.961 77.523 132.759 77.2429 132.49 77.044C132.225 76.8419 131.898 76.7408 131.511 76.7408C131.11 76.7408 130.775 76.8452 130.506 77.054C130.238 77.2628 130.036 77.5495 129.9 77.9141C129.764 78.2753 129.696 78.6863 129.696 79.147C129.696 79.6143 129.764 80.0237 129.9 80.375C130.039 80.723 130.243 80.9948 130.511 81.1903C130.783 81.3826 131.116 81.4787 131.511 81.4787ZM53.975 109.864C53.7297 109.864 53.5027 109.844 53.2939 109.804C53.0884 109.768 52.9243 109.724 52.8017 109.675L53.2193 108.273C53.4811 108.349 53.7148 108.385 53.9203 108.382C54.1258 108.379 54.3064 108.314 54.4622 108.188C54.6213 108.066 54.7555 107.86 54.8649 107.572L55.019 107.159L52.2498 99.3636H54.1589L55.9189 105.131H55.9984L57.7633 99.3636H59.6774L56.6199 107.925C56.4773 108.329 56.2884 108.675 56.0531 108.964C55.8178 109.255 55.5294 109.478 55.188 109.63C54.85 109.786 54.4456 109.864 53.975 109.864ZM63.994 107.149C63.2482 107.149 62.6019 106.985 62.055 106.657C61.5082 106.329 61.0839 105.87 60.7823 105.28C60.484 104.69 60.3349 104 60.3349 103.212C60.3349 102.423 60.484 101.732 60.7823 101.138C61.0839 100.545 61.5082 100.085 62.055 99.7564C62.6019 99.4283 63.2482 99.2642 63.994 99.2642C64.7397 99.2642 65.386 99.4283 65.9329 99.7564C66.4798 100.085 66.9023 100.545 67.2006 101.138C67.5022 101.732 67.6531 102.423 67.6531 103.212C67.6531 104 67.5022 104.69 67.2006 105.28C66.9023 105.87 66.4798 106.329 65.9329 106.657C65.386 106.985 64.7397 107.149 63.994 107.149ZM64.0039 105.707C64.4083 105.707 64.7463 105.596 65.0181 105.374C65.2899 105.149 65.4921 104.847 65.6246 104.469C65.7605 104.092 65.8285 103.671 65.8285 103.207C65.8285 102.739 65.7605 102.317 65.6246 101.939C65.4921 101.558 65.2899 101.254 65.0181 101.029C64.7463 100.804 64.4083 100.691 64.0039 100.691C63.5896 100.691 63.2449 100.804 62.9698 101.029C62.698 101.254 62.4942 101.558 62.3583 101.939C62.2257 102.317 62.1594 102.739 62.1594 103.207C62.1594 103.671 62.2257 104.092 62.3583 104.469C62.4942 104.847 62.698 105.149 62.9698 105.374C63.2449 105.596 63.5896 105.707 64.0039 105.707ZM74.0478 103.788V99.3636H75.8475V107H74.1025V105.643H74.0229C73.8506 106.07 73.5672 106.42 73.1728 106.692C72.7817 106.964 72.2994 107.099 71.726 107.099C71.2256 107.099 70.7831 106.988 70.3986 106.766C70.0175 106.541 69.7192 106.214 69.5037 105.787C69.2883 105.356 69.1806 104.836 69.1806 104.226V99.3636H70.9803V103.947C70.9803 104.431 71.1129 104.816 71.378 105.101C71.6432 105.386 71.9912 105.528 72.4221 105.528C72.6872 105.528 72.9441 105.464 73.1926 105.335C73.4412 105.205 73.6451 105.013 73.8042 104.758C73.9666 104.499 74.0478 104.176 74.0478 103.788ZM77.6982 107V99.3636H79.4432V100.636H79.5227C79.6619 100.196 79.9006 99.8558 80.2386 99.6172C80.58 99.3752 80.9695 99.2543 81.407 99.2543C81.5064 99.2543 81.6174 99.2592 81.7401 99.2692C81.866 99.2758 81.9704 99.2874 82.0533 99.304V100.96C81.977 100.933 81.8561 100.91 81.6903 100.89C81.5279 100.867 81.3705 100.855 81.218 100.855C80.8899 100.855 80.5949 100.926 80.3331 101.069C80.0746 101.208 79.8707 101.402 79.7216 101.651C79.5724 101.899 79.4979 102.186 79.4979 102.511V107H77.6982ZM90.0526 107.149C89.2902 107.149 88.6357 106.982 88.0888 106.647C87.5452 106.312 87.1259 105.85 86.831 105.26C86.5393 104.667 86.3935 103.984 86.3935 103.212C86.3935 102.436 86.5426 101.752 86.8409 101.158C87.1392 100.562 87.5601 100.098 88.1037 99.7663C88.6506 99.4316 89.2969 99.2642 90.0426 99.2642C90.6624 99.2642 91.2109 99.3786 91.6882 99.6072C92.1688 99.8326 92.5516 100.152 92.8366 100.567C93.1217 100.978 93.2841 101.458 93.3239 102.009H91.6037C91.5341 101.641 91.3684 101.334 91.1065 101.089C90.848 100.84 90.5017 100.716 90.0675 100.716C89.6996 100.716 89.3764 100.815 89.098 101.014C88.8196 101.21 88.6025 101.491 88.4467 101.859C88.2943 102.227 88.218 102.668 88.218 103.182C88.218 103.702 88.2943 104.15 88.4467 104.524C88.5992 104.895 88.813 105.182 89.0881 105.384C89.3665 105.583 89.6929 105.683 90.0675 105.683C90.3326 105.683 90.5696 105.633 90.7784 105.533C90.9905 105.431 91.1679 105.283 91.3104 105.091C91.4529 104.899 91.5507 104.665 91.6037 104.39H93.3239C93.2808 104.93 93.1217 105.409 92.8466 105.827C92.5715 106.241 92.197 106.566 91.723 106.801C91.2491 107.033 90.6922 107.149 90.0526 107.149ZM96.6014 96.8182V107H94.8017V96.8182H96.6014ZM103.319 103.788V99.3636H105.119V107H103.374V105.643H103.294C103.122 106.07 102.839 106.42 102.444 106.692C102.053 106.964 101.571 107.099 100.998 107.099C100.497 107.099 100.055 106.988 99.6701 106.766C99.2889 106.541 98.9906 106.214 98.7752 105.787C98.5598 105.356 98.4521 104.836 98.4521 104.226V99.3636H100.252V103.947C100.252 104.431 100.384 104.816 100.65 105.101C100.915 105.386 101.263 105.528 101.694 105.528C101.959 105.528 102.216 105.464 102.464 105.335C102.713 105.205 102.917 105.013 103.076 104.758C103.238 104.499 103.319 104.176 103.319 103.788ZM113.005 101.382L111.365 101.561C111.318 101.395 111.237 101.24 111.121 101.094C111.008 100.948 110.856 100.83 110.664 100.741C110.471 100.651 110.236 100.607 109.958 100.607C109.583 100.607 109.268 100.688 109.013 100.85C108.761 101.013 108.637 101.223 108.64 101.482C108.637 101.704 108.718 101.884 108.884 102.023C109.053 102.163 109.331 102.277 109.719 102.366L111.021 102.645C111.744 102.801 112.281 103.048 112.632 103.386C112.987 103.724 113.166 104.166 113.169 104.713C113.166 105.194 113.025 105.618 112.747 105.986C112.472 106.35 112.089 106.635 111.598 106.841C111.108 107.046 110.544 107.149 109.908 107.149C108.973 107.149 108.221 106.954 107.651 106.562C107.081 106.168 106.741 105.62 106.632 104.917L108.387 104.748C108.466 105.093 108.635 105.353 108.894 105.528C109.152 105.704 109.489 105.792 109.903 105.792C110.33 105.792 110.673 105.704 110.932 105.528C111.194 105.353 111.325 105.136 111.325 104.877C111.325 104.658 111.24 104.478 111.071 104.335C110.905 104.193 110.647 104.083 110.296 104.007L108.993 103.734C108.261 103.581 107.719 103.324 107.367 102.963C107.016 102.598 106.842 102.138 106.845 101.581C106.842 101.11 106.97 100.703 107.228 100.358C107.49 100.01 107.853 99.7415 108.317 99.5526C108.784 99.3603 109.323 99.2642 109.933 99.2642C110.828 99.2642 111.532 99.4548 112.046 99.8359C112.563 100.217 112.883 100.732 113.005 101.382ZM118.466 99.3636V100.756H114.077V99.3636H118.466ZM115.16 97.5341H116.96V104.703C116.96 104.945 116.997 105.131 117.069 105.26C117.146 105.386 117.245 105.472 117.368 105.518C117.49 105.565 117.626 105.588 117.775 105.588C117.888 105.588 117.991 105.58 118.084 105.563C118.18 105.547 118.253 105.532 118.302 105.518L118.606 106.925C118.51 106.959 118.372 106.995 118.193 107.035C118.017 107.075 117.802 107.098 117.547 107.104C117.096 107.118 116.69 107.05 116.329 106.901C115.967 106.748 115.681 106.513 115.469 106.195C115.26 105.876 115.157 105.479 115.16 105.001V97.5341ZM123.27 107.149C122.505 107.149 121.843 106.99 121.287 106.672C120.733 106.35 120.307 105.896 120.009 105.31C119.711 104.72 119.561 104.025 119.561 103.227C119.561 102.441 119.711 101.752 120.009 101.158C120.31 100.562 120.731 100.098 121.272 99.7663C121.812 99.4316 122.447 99.2642 123.176 99.2642C123.646 99.2642 124.091 99.3404 124.508 99.4929C124.929 99.642 125.3 99.8741 125.622 100.189C125.947 100.504 126.202 100.905 126.387 101.392C126.573 101.876 126.666 102.453 126.666 103.122V103.674H120.407V102.461H124.941C124.937 102.116 124.863 101.81 124.717 101.541C124.571 101.269 124.367 101.056 124.105 100.9C123.847 100.744 123.545 100.666 123.201 100.666C122.833 100.666 122.51 100.756 122.231 100.935C121.953 101.11 121.736 101.342 121.58 101.631C121.427 101.916 121.35 102.229 121.346 102.57V103.629C121.346 104.073 121.427 104.455 121.59 104.773C121.752 105.088 121.979 105.33 122.271 105.499C122.563 105.664 122.904 105.747 123.295 105.747C123.557 105.747 123.794 105.711 124.006 105.638C124.218 105.562 124.402 105.451 124.558 105.305C124.714 105.159 124.831 104.978 124.911 104.763L126.591 104.952C126.485 105.396 126.283 105.784 125.985 106.115C125.69 106.443 125.312 106.698 124.851 106.881C124.391 107.06 123.864 107.149 123.27 107.149ZM128.188 107V99.3636H129.933V100.636H130.013C130.152 100.196 130.391 99.8558 130.729 99.6172C131.07 99.3752 131.46 99.2543 131.897 99.2543C131.997 99.2543 132.108 99.2592 132.23 99.2692C132.356 99.2758 132.461 99.2874 132.544 99.304V100.96C132.467 100.933 132.346 100.91 132.181 100.89C132.018 100.867 131.861 100.855 131.708 100.855C131.38 100.855 131.085 100.926 130.823 101.069C130.565 101.208 130.361 101.402 130.212 101.651C130.063 101.899 129.988 102.186 129.988 102.511V107H128.188ZM133.973 107.109C133.671 107.109 133.413 107.003 133.197 106.791C132.982 106.579 132.876 106.321 132.879 106.016C132.876 105.717 132.982 105.462 133.197 105.25C133.413 105.038 133.671 104.932 133.973 104.932C134.265 104.932 134.518 105.038 134.733 105.25C134.952 105.462 135.063 105.717 135.067 106.016C135.063 106.218 135.01 106.402 134.907 106.567C134.808 106.733 134.675 106.866 134.51 106.965C134.347 107.061 134.168 107.109 133.973 107.109Z" fill="#DBDBDB"/>
</svg>
