<svg width="146" height="146" viewBox="0 0 146 146" fill="none" xmlns="http://www.w3.org/2000/svg">
<circle cx="73" cy="73" r="73" fill="#1F1F1F"/>
<path d="M38.3748 23.5398H40.4375C40.8664 23.5398 41.2344 23.4706 41.5415 23.3323C41.8514 23.1912 42.0894 22.9933 42.2554 22.7388C42.4242 22.4814 42.5086 22.1785 42.5086 21.8298V21.8215C42.5086 21.567 42.4491 21.3359 42.3301 21.1284C42.2139 20.9209 42.052 20.7521 41.8445 20.6221C41.6398 20.492 41.4046 20.4173 41.1389 20.3979V20.3232C41.3437 20.2928 41.5277 20.2167 41.6909 20.095C41.8542 19.9732 41.9829 19.821 42.0769 19.6384C42.1738 19.4558 42.2222 19.2594 42.2222 19.0491V19.0408C42.2222 18.7336 42.1475 18.4694 41.9981 18.248C41.8514 18.0239 41.6398 17.8524 41.3631 17.7334C41.0891 17.6117 40.7571 17.5508 40.367 17.5508H38.3748V18.4805H40.0474C40.3462 18.4805 40.5773 18.5496 40.7405 18.688C40.9065 18.8236 40.9895 19.0131 40.9895 19.2566V19.2649C40.9895 19.5111 40.8996 19.7021 40.7197 19.8376C40.5399 19.9732 40.2812 20.041 39.9436 20.041H38.3748V20.8669H40.0889C40.3351 20.8669 40.5427 20.9001 40.7114 20.9666C40.883 21.0302 41.0117 21.1257 41.0974 21.2529C41.186 21.3802 41.2302 21.5365 41.2302 21.7219V21.7302C41.2302 22.0152 41.1348 22.2324 40.9439 22.3818C40.7557 22.5312 40.4804 22.606 40.1179 22.606H38.3748V23.5398ZM37.7481 23.5398H39.0015V17.5508H37.7481V23.5398ZM43.8091 23.5398H45.1248L46.5899 18.7461H46.9551V17.5508H45.8885L43.8091 23.5398ZM44.9214 22.0872H48.304L47.9969 21.1492H45.2286L44.9214 22.0872ZM48.1255 23.5398H49.4454L47.3619 17.5508H46.6646V18.7461L48.1255 23.5398ZM53.1988 23.6934C53.6969 23.6934 54.1257 23.6145 54.4854 23.4568C54.8479 23.2963 55.126 23.0722 55.3197 22.7844C55.5161 22.4939 55.6143 22.1508 55.6143 21.7551V21.751C55.6143 21.2834 55.4691 20.9154 55.1786 20.647C54.8908 20.3786 54.4301 20.1794 53.7965 20.0493L53.1615 19.9207C52.8101 19.8487 52.5555 19.7519 52.3978 19.6301C52.2428 19.5056 52.1654 19.3465 52.1654 19.1528V19.1487C52.1654 18.9993 52.2083 18.8706 52.294 18.7627C52.3798 18.652 52.5002 18.5662 52.6551 18.5054C52.8101 18.4445 52.9899 18.4141 53.1947 18.4141C53.405 18.4141 53.589 18.4459 53.7467 18.5095C53.9071 18.5704 54.0344 18.6548 54.1285 18.7627C54.2253 18.8706 54.2862 18.9965 54.3111 19.1404L54.3194 19.1902H55.4981L55.494 19.1362C55.4691 18.8014 55.3626 18.504 55.1744 18.2439C54.9862 17.981 54.7248 17.7749 54.39 17.6255C54.0579 17.4733 53.6595 17.3972 53.1947 17.3972C52.752 17.3972 52.3591 17.4747 52.016 17.6296C51.6729 17.7818 51.4031 17.9963 51.2066 18.2729C51.0102 18.5496 50.9119 18.8734 50.9119 19.2441V19.2483C50.9119 19.7021 51.0531 20.0742 51.3353 20.3647C51.6175 20.6553 52.0699 20.8642 52.6925 20.9915L53.3233 21.1201C53.6969 21.1976 53.9625 21.2958 54.1202 21.4148C54.2807 21.5338 54.3609 21.6915 54.3609 21.8879V21.8921C54.3609 22.0443 54.3125 22.1799 54.2157 22.2988C54.1216 22.415 53.9902 22.5063 53.8214 22.5728C53.6526 22.6392 53.4561 22.6724 53.232 22.6724C52.9996 22.6724 52.7935 22.6405 52.6136 22.5769C52.4338 22.5133 52.2899 22.4261 52.182 22.3154C52.0768 22.202 52.016 22.0706 51.9994 21.9211L51.9952 21.8796H50.7874L50.7916 21.946C50.8165 22.3002 50.9286 22.6087 51.1278 22.8716C51.3298 23.1317 51.6064 23.3337 51.9578 23.4775C52.3092 23.6214 52.7229 23.6934 53.1988 23.6934ZM57.3964 23.5398H58.6498V17.5508H57.3964V23.5398ZM63.2416 23.6934C63.7258 23.6934 64.1547 23.6048 64.5282 23.4277C64.9018 23.2479 65.2033 23.0002 65.433 22.6848C65.6627 22.3694 65.7996 22.0028 65.8439 21.585V21.5352H64.6237L64.6154 21.5725C64.5739 21.7856 64.4895 21.9723 64.3622 22.1328C64.2377 22.2905 64.08 22.4137 63.8891 22.5022C63.7009 22.588 63.4865 22.6309 63.2457 22.6309C62.9303 22.6309 62.6578 22.5465 62.4281 22.3777C62.1985 22.2089 62.0214 21.9682 61.8969 21.6555C61.7751 21.3429 61.7143 20.9735 61.7143 20.5474V20.5391C61.7143 20.1102 61.7751 19.7408 61.8969 19.4309C62.0214 19.1182 62.1985 18.8789 62.4281 18.7129C62.6578 18.5441 62.9289 18.4597 63.2416 18.4597C63.4796 18.4597 63.694 18.5068 63.8849 18.6008C64.0786 18.6949 64.2391 18.8277 64.3664 18.9993C64.4936 19.1681 64.578 19.3645 64.6195 19.5886L64.6237 19.6177H65.8397V19.5637C65.801 19.1431 65.6654 18.7696 65.433 18.4431C65.2006 18.1166 64.8948 17.8607 64.5158 17.6753C64.1395 17.4899 63.7147 17.3972 63.2416 17.3972C62.6605 17.3972 62.1597 17.5245 61.7392 17.7791C61.3213 18.0308 60.999 18.3919 60.7721 18.8623C60.5452 19.3327 60.4318 19.8916 60.4318 20.5391V20.5474C60.4318 21.1948 60.5452 21.7537 60.7721 22.2241C60.999 22.6945 61.3227 23.057 61.7433 23.3115C62.1639 23.5661 62.6633 23.6934 63.2416 23.6934ZM71.0058 21.6514H72.8486C73.2692 21.6514 73.6372 21.567 73.9526 21.3982C74.268 21.2294 74.5129 20.9915 74.6872 20.6843C74.8643 20.3772 74.9528 20.0175 74.9528 19.6052V19.5969C74.9528 19.1874 74.8643 18.8291 74.6872 18.522C74.5129 18.2148 74.268 17.9769 73.9526 17.8081C73.6372 17.6366 73.2692 17.5508 72.8486 17.5508H71.0058V18.5427H72.5415C72.9012 18.5427 73.1806 18.634 73.3798 18.8167C73.5818 18.9993 73.6828 19.2607 73.6828 19.6011V19.6094C73.6828 19.9497 73.5818 20.2126 73.3798 20.3979C73.1806 20.5806 72.9012 20.6719 72.5415 20.6719H71.0058V21.6514ZM70.3791 23.5398H71.6325V17.5508H70.3791V23.5398ZM79.3205 23.6934C79.9099 23.6934 80.4204 23.5661 80.852 23.3115C81.2837 23.0542 81.6157 22.6903 81.8481 22.22C82.0833 21.7496 82.2009 21.1921 82.2009 20.5474V20.5391C82.2009 19.8944 82.0833 19.3368 81.8481 18.8665C81.6129 18.3961 81.2795 18.0336 80.8479 17.7791C80.419 17.5245 79.9099 17.3972 79.3205 17.3972C78.734 17.3972 78.2248 17.5245 77.7932 17.7791C77.3616 18.0336 77.0268 18.3961 76.7888 18.8665C76.5536 19.3341 76.436 19.8916 76.436 20.5391V20.5474C76.436 21.1921 76.5522 21.7496 76.7847 22.22C77.0198 22.6903 77.3533 23.0542 77.7849 23.3115C78.2165 23.5661 78.7284 23.6934 79.3205 23.6934ZM79.3205 22.6309C78.9913 22.6309 78.7063 22.5451 78.4656 22.3735C78.2276 22.202 78.0422 21.9599 77.9094 21.6472C77.7794 21.3346 77.7143 20.9679 77.7143 20.5474V20.5391C77.7143 20.1157 77.7807 19.7491 77.9136 19.4392C78.0464 19.1265 78.2331 18.8858 78.4739 18.717C78.7146 18.5455 78.9968 18.4597 79.3205 18.4597C79.6443 18.4597 79.9265 18.5455 80.1672 18.717C80.4079 18.8858 80.5933 19.1265 80.7234 19.4392C80.8562 19.7491 80.9226 20.1157 80.9226 20.5391V20.5474C80.9226 20.9679 80.8562 21.3346 80.7234 21.6472C80.5933 21.9599 80.4079 22.202 80.1672 22.3735C79.9265 22.5451 79.6443 22.6309 79.3205 22.6309ZM83.9871 23.5398H86.3445C86.9422 23.5398 87.4499 23.4222 87.8677 23.187C88.2855 22.9491 88.6037 22.6046 88.8223 22.1536C89.0436 21.7026 89.1543 21.1547 89.1543 20.51V20.5017C89.1543 19.8764 89.0436 19.3438 88.8223 18.9038C88.6009 18.4639 88.2813 18.1291 87.8635 17.8994C87.4457 17.667 86.9394 17.5508 86.3445 17.5508H83.9871V23.5398ZM85.2405 22.5063V18.5842H86.1453C86.5077 18.5842 86.8176 18.6603 87.075 18.8125C87.3351 18.9619 87.5329 19.1819 87.6685 19.4724C87.8068 19.7602 87.876 20.1102 87.876 20.5225V20.5308C87.876 20.9541 87.8082 21.3138 87.6726 21.6099C87.5398 21.9032 87.3447 22.1259 87.0874 22.2781C86.8301 22.4303 86.516 22.5063 86.1453 22.5063H85.2405Z" fill="#13A8A8"/>
<path d="M94.8619 29.3489H18.0663C12.5434 29.3489 8.06628 33.826 8.06628 39.3489V120.695C8.06628 126.218 12.5434 130.695 18.0663 130.695H94.8619C100.385 130.695 104.862 126.218 104.862 120.695V39.3489C104.862 33.826 100.385 29.3489 94.8619 29.3489Z" fill="#E4E4E4"/>
<path d="M72.4174 39.801H36.677C35.8749 39.801 35.2247 40.4513 35.2247 41.2534C35.2247 42.0554 35.8749 42.7057 36.677 42.7057H72.4174C73.2195 42.7057 73.8697 42.0554 73.8697 41.2534C73.8697 40.4513 73.2195 39.801 72.4174 39.801Z" fill="#CECECE"/>
<path d="M93.4487 48.3281H36.677C35.8749 48.3281 35.2247 48.9784 35.2247 49.7804C35.2247 50.5825 35.8749 51.2328 36.677 51.2328H93.4487C94.2508 51.2328 94.901 50.5825 94.901 49.7804C94.901 48.9784 94.2508 48.3281 93.4487 48.3281Z" fill="#13A8A8"/>
<path d="M83.0278 56.449H37.2975C36.4954 56.449 35.8452 57.0992 35.8452 57.9013C35.8452 58.7034 36.4954 59.3536 37.2975 59.3536H83.0278C83.8299 59.3536 84.4801 58.7034 84.4801 57.9013C84.4801 57.0992 83.8299 56.449 83.0278 56.449Z" fill="#CECECE"/>
<path d="M62.1647 65.3595H36.677C35.8749 65.3595 35.2247 66.0097 35.2247 66.8118C35.2247 67.6139 35.8749 68.2641 36.677 68.2641H62.1647C62.9667 68.2641 63.617 67.6139 63.617 66.8118C63.617 66.0097 62.9668 65.3595 62.1647 65.3595Z" fill="#CECECE"/>
<path d="M76.6237 74.0631H36.677C35.8749 74.0631 35.2247 74.7133 35.2247 75.5154C35.2247 76.3175 35.8749 76.9678 36.677 76.9678H76.6237C77.4258 76.9678 78.076 76.3175 78.076 75.5154C78.076 74.7133 77.4258 74.0631 76.6237 74.0631Z" fill="#8FD460"/>
<path d="M17.611 41.2534C17.611 42.5601 18.6703 43.6194 19.977 43.6194C21.2837 43.6194 22.343 42.5601 22.343 41.2534C22.343 39.9466 21.2837 38.8873 19.977 38.8873C18.6703 38.8873 17.611 39.9466 17.611 41.2534Z" fill="#CECECE"/>
<path d="M26.4585 14.5193H16.2928C13.5314 14.5193 11.2928 16.7579 11.2928 19.5193V29.685C11.2928 32.4465 13.5314 34.685 16.2928 34.685H26.4585C29.22 34.685 31.4585 32.4465 31.4585 29.685V19.5193C31.4585 16.7579 29.22 14.5193 26.4585 14.5193Z" fill="#13A8A8"/>
<path d="M17.611 49.7804C17.611 51.0872 18.6703 52.1465 19.977 52.1465C21.2837 52.1465 22.343 51.0872 22.343 49.7804C22.343 48.4737 21.2837 47.4144 19.977 47.4144C18.6703 47.4144 17.611 48.4737 17.611 49.7804Z" fill="#13A8A8"/>
<path d="M17.611 57.9014C17.611 59.2081 18.6703 60.2675 19.977 60.2675C21.2837 60.2675 22.343 59.2081 22.343 57.9014C22.343 56.5947 21.2837 55.5354 19.977 55.5354C18.6703 55.5354 17.611 56.5947 17.611 57.9014Z" fill="#CECECE"/>
<path d="M17.611 66.8118C17.611 68.1185 18.6703 69.1779 19.977 69.1779C21.2837 69.1779 22.343 68.1185 22.343 66.8118C22.343 65.5051 21.2837 64.4458 19.977 64.4458C18.6703 64.4458 17.611 65.5051 17.611 66.8118Z" fill="#CECECE"/>
<path d="M17.611 75.5154C17.611 76.8222 18.6703 77.8815 19.977 77.8815C21.2837 77.8815 22.343 76.8222 22.343 75.5154C22.343 74.2087 21.2837 73.1494 19.977 73.1494C18.6703 73.1494 17.611 74.2087 17.611 75.5154Z" fill="#8FD460"/>
<path d="M72.4174 82.8213H36.677C35.8749 82.8213 35.2247 83.4715 35.2247 84.2736C35.2247 85.0757 35.8749 85.7259 36.677 85.7259H72.4174C73.2195 85.7259 73.8697 85.0757 73.8697 84.2736C73.8697 83.4715 73.2195 82.8213 72.4174 82.8213Z" fill="#CECECE"/>
<path d="M93.4487 91.3484H36.677C35.8749 91.3484 35.2247 91.9986 35.2247 92.8007C35.2247 93.6028 35.8749 94.253 36.677 94.253H93.4487C94.2508 94.253 94.901 93.6028 94.901 92.8007C94.901 91.9986 94.2508 91.3484 93.4487 91.3484Z" fill="#C9E75D"/>
<path d="M83.0278 99.4692H37.2975C36.4954 99.4692 35.8452 100.119 35.8452 100.922C35.8452 101.724 36.4954 102.374 37.2975 102.374H83.0278C83.8299 102.374 84.4801 101.724 84.4801 100.922C84.4801 100.119 83.8299 99.4692 83.0278 99.4692Z" fill="#CECECE"/>
<path d="M62.1647 108.38H36.677C35.8749 108.38 35.2247 109.03 35.2247 109.832C35.2247 110.634 35.8749 111.284 36.677 111.284H62.1647C62.9667 111.284 63.617 110.634 63.617 109.832C63.617 109.03 62.9668 108.38 62.1647 108.38Z" fill="#CECECE"/>
<path d="M76.6237 117.083H36.677C35.8749 117.083 35.2247 117.734 35.2247 118.536C35.2247 119.338 35.8749 119.988 36.677 119.988H76.6237C77.4258 119.988 78.076 119.338 78.076 118.536C78.076 117.734 77.4258 117.083 76.6237 117.083Z" fill="#CECECE"/>
<path d="M17.611 84.2736C17.611 85.5803 18.6703 86.6396 19.977 86.6396C21.2837 86.6396 22.343 85.5803 22.343 84.2736C22.343 82.9669 21.2837 81.9076 19.977 81.9076C18.6703 81.9076 17.611 82.9669 17.611 84.2736Z" fill="#CECECE"/>
<path d="M17.611 92.8007C17.611 94.1074 18.6703 95.1667 19.977 95.1667C21.2837 95.1667 22.343 94.1074 22.343 92.8007C22.343 91.494 21.2837 90.4347 19.977 90.4347C18.6703 90.4347 17.611 91.494 17.611 92.8007Z" fill="#C9E75D"/>
<path d="M17.611 100.922C17.611 102.228 18.6703 103.288 19.977 103.288C21.2837 103.288 22.343 102.228 22.343 100.922C22.343 99.6148 21.2837 98.5555 19.977 98.5555C18.6703 98.5555 17.611 99.6148 17.611 100.922Z" fill="#CECECE"/>
<path d="M17.611 109.832C17.611 111.139 18.6703 112.198 19.977 112.198C21.2837 112.198 22.343 111.139 22.343 109.832C22.343 108.525 21.2837 107.466 19.977 107.466C18.6703 107.466 17.611 108.525 17.611 109.832Z" fill="#CECECE"/>
<path d="M17.611 118.536C17.611 119.842 18.6703 120.902 19.977 120.902C21.2837 120.902 22.343 119.842 22.343 118.536C22.343 117.229 21.2837 116.17 19.977 116.17C18.6703 116.17 17.611 117.229 17.611 118.536Z" fill="#CECECE"/>
<path d="M26.2848 19.8128H25.4466V18.7352C25.4466 18.5361 25.2865 18.376 25.0874 18.376H16.2271C16.0281 18.376 15.8679 18.5361 15.8679 18.7352V22.8061C15.8679 23.0052 16.0281 23.1653 16.2271 23.1653H25.0874C25.2865 23.1653 25.4466 23.0052 25.4466 22.8061V20.7707H25.9256V23.764H20.6723C20.3415 23.764 20.0736 24.0319 20.0736 24.3627V26.3982H19.415C19.3492 26.3982 19.2953 26.452 19.2953 26.5179V29.9303C19.2953 29.9468 19.2983 29.9632 19.3043 29.9767C19.2983 30.0007 19.2953 30.0246 19.2953 30.0501C19.2953 30.7445 19.8581 31.3073 20.5525 31.3073C21.247 31.3073 21.8097 30.7445 21.8097 30.0501C21.8097 30.0246 21.8067 30.0007 21.8007 29.9767C21.8067 29.9617 21.8097 29.9468 21.8097 29.9303V26.5179C21.8097 26.452 21.7558 26.3982 21.69 26.3982H21.0315V24.7219H26.2848C26.6156 24.7219 26.8835 24.454 26.8835 24.1232V20.4115C26.8835 20.0807 26.6156 19.8128 26.2848 19.8128Z" fill="white"/>
</svg>
