<svg width="201" height="146" viewBox="0 0 201 146" fill="none" xmlns="http://www.w3.org/2000/svg">
<circle cx="98.5856" cy="73" r="73" fill="#1F1F1F"/>
<path d="M134.711 41.3036H109.498V41.7839H134.711V41.3036Z" fill="#CCCCCC"/>
<path d="M89.8071 41.3036H9.84509V41.7839H89.8071V41.3036Z" fill="#CCCCCC"/>
<path d="M9.84507 51.3888C15.2824 51.3888 19.6901 46.981 19.6901 41.5437C19.6901 36.1064 15.2824 31.6986 9.84507 31.6986C4.40779 31.6986 0 36.1064 0 41.5437C0 46.981 4.40779 51.3888 9.84507 51.3888Z" fill="#51258F"/>
<path d="M54.7486 51.3888C60.1859 51.3888 64.5937 46.981 64.5937 41.5437C64.5937 36.1064 60.1859 31.6986 54.7486 31.6986C49.3114 31.6986 44.9036 36.1064 44.9036 41.5437C44.9036 46.981 49.3114 51.3888 54.7486 51.3888Z" fill="#CDA8F0"/>
<path d="M99.6511 51.6292C97.6564 51.6292 95.7065 51.0377 94.048 49.9295C92.3894 48.8213 91.0968 47.2462 90.3334 45.4034C89.5701 43.5605 89.3704 41.5327 89.7595 39.5763C90.1487 37.6199 91.1092 35.8229 92.5197 34.4124C93.9301 33.002 95.7272 32.0414 97.6835 31.6523C99.6399 31.2631 101.668 31.4629 103.511 32.2262C105.353 32.9895 106.929 34.2822 108.037 35.9407C109.145 37.5993 109.736 39.5492 109.736 41.5439C109.736 44.2187 108.674 46.7839 106.783 48.6753C104.891 50.5667 102.326 51.6292 99.6511 51.6292ZM99.6511 31.9388C97.7514 31.9388 95.8944 32.5021 94.3148 33.5576C92.7353 34.613 91.5042 36.1131 90.7772 37.8682C90.0502 39.6233 89.86 41.5545 90.2306 43.4177C90.6012 45.2809 91.516 46.9924 92.8593 48.3357C94.2026 49.6789 95.9141 50.5937 97.7772 50.9644C99.6404 51.335 101.572 51.1448 103.327 50.4178C105.082 49.6908 106.582 48.4597 107.637 46.8801C108.693 45.3006 109.256 43.4436 109.256 41.5439C109.256 38.9964 108.244 36.5534 106.443 34.7521C104.642 32.9508 102.199 31.9388 99.6511 31.9388Z" fill="#CCCCCC"/>
<path d="M144.555 51.6292C142.56 51.6292 140.61 51.0377 138.952 49.9295C137.293 48.8213 136 47.2462 135.237 45.4034C134.474 43.5605 134.274 41.5327 134.663 39.5763C135.052 37.6199 136.013 35.8229 137.423 34.4124C138.834 33.002 140.631 32.0414 142.587 31.6523C144.544 31.2631 146.571 31.4629 148.414 32.2262C150.257 32.9895 151.832 34.2822 152.94 35.9407C154.049 37.5993 154.64 39.5492 154.64 41.5439C154.64 44.2187 153.578 46.7839 151.686 48.6753C149.795 50.5667 147.23 51.6292 144.555 51.6292ZM144.555 31.9388C142.655 31.9388 140.798 32.5021 139.218 33.5576C137.639 34.613 136.408 36.1131 135.681 37.8682C134.954 39.6233 134.764 41.5545 135.134 43.4177C135.505 45.2809 136.42 46.9924 137.763 48.3357C139.106 49.6789 140.818 50.5937 142.681 50.9644C144.544 51.335 146.475 51.1448 148.23 50.4178C149.985 49.6908 151.486 48.4597 152.541 46.8801C153.596 45.3006 154.16 43.4436 154.16 41.5439C154.16 40.2825 153.911 39.0335 153.429 37.8682C152.946 36.7028 152.238 35.644 151.347 34.7521C150.455 33.8602 149.396 33.1527 148.23 32.67C147.065 32.1873 145.816 31.9388 144.555 31.9388Z" fill="#CCCCCC"/>
<path d="M9.08716 44.4791C8.91421 44.4793 8.74591 44.4232 8.60763 44.3193L8.59911 44.3129L6.79212 42.9308C6.62312 42.8012 6.51251 42.6098 6.48464 42.3987C6.45676 42.1876 6.51389 41.974 6.64347 41.805C6.77305 41.636 6.96446 41.5254 7.17559 41.4975C7.38671 41.4696 7.60027 41.5268 7.76928 41.6564L8.93957 42.5539L11.7051 38.9457C11.8346 38.7768 12.0259 38.6663 12.2369 38.6384C12.4479 38.6105 12.6614 38.6676 12.8303 38.7971L12.8133 38.8208L12.8309 38.7971C12.9996 38.9268 13.1101 39.1181 13.1379 39.3292C13.1657 39.5402 13.1087 39.7536 12.9793 39.9226L9.72624 44.1645C9.6509 44.2623 9.55402 44.3414 9.44314 44.3957C9.33225 44.45 9.21035 44.478 9.08689 44.4775L9.08716 44.4791Z" fill="white"/>
<path d="M46.558 74.3701C46.558 71.6087 48.7966 69.3701 51.558 69.3701H191.591C194.353 69.3701 196.591 71.6087 196.591 74.3701V104.702C196.591 107.463 194.353 109.702 191.591 109.702H51.558C48.7966 109.702 46.558 107.463 46.558 104.702V74.3701Z" fill="#E4E4E4"/>
<path d="M197.711 106.743H52.4741C51.761 106.742 51.0775 106.459 50.5733 105.955C50.0691 105.45 49.7854 104.767 49.7845 104.054V68.0266C49.7854 67.3135 50.0691 66.6299 50.5733 66.1257C51.0775 65.6215 51.761 65.3379 52.4741 65.337H197.711C198.424 65.3379 199.108 65.6215 199.612 66.1257C200.116 66.6299 200.4 67.3135 200.401 68.0266V104.054C200.4 104.767 200.116 105.45 199.612 105.955C199.108 106.459 198.424 106.742 197.711 106.743ZM52.4741 66.4131C52.0462 66.4136 51.636 66.5838 51.3334 66.8864C51.0309 67.1889 50.8607 67.5991 50.8602 68.027V104.054C50.8605 104.482 51.0307 104.892 51.3333 105.195C51.6359 105.498 52.0462 105.668 52.4741 105.668H197.711C198.139 105.668 198.549 105.498 198.852 105.195C199.155 104.892 199.325 104.482 199.325 104.054V68.0266C199.325 67.5986 199.155 67.1883 198.852 66.8858C198.549 66.5832 198.139 66.413 197.711 66.4126L52.4741 66.4131Z" fill="#BCBCBC"/>
<path d="M75.1442 97.1438C81.195 97.1438 86.1001 92.2387 86.1001 86.1879C86.1001 80.1371 81.195 75.2319 75.1442 75.2319C69.0934 75.2319 64.1882 80.1371 64.1882 86.1879C64.1882 92.2387 69.0934 97.1438 75.1442 97.1438Z" fill="#854ECA"/>
<path d="M73.4222 92.2769C73.0541 92.2774 72.6958 92.1583 72.4013 91.9374L72.3829 91.9236L68.5377 88.9819C68.1777 88.7062 67.9421 88.2987 67.8825 87.8492C67.823 87.3997 67.9445 86.9449 68.2202 86.585C68.496 86.225 68.9034 85.9894 69.353 85.9298C69.8025 85.8703 70.2572 85.9918 70.6172 86.2675L73.1079 88.1773L78.9936 80.4988C79.2692 80.1393 79.6763 79.9041 80.1253 79.8447C80.5744 79.7853 81.0286 79.9068 81.3882 80.1823L81.3518 80.2329L81.3896 80.1823C81.7487 80.4583 81.9836 80.8654 82.0429 81.3145C82.1021 81.7635 81.9809 82.2177 81.7056 82.5774L74.783 91.6103C74.6229 91.8182 74.417 91.9865 74.1813 92.102C73.9456 92.2175 73.6865 92.2772 73.424 92.2764L73.4222 92.2769Z" fill="white"/>
<path d="M97.6946 88.9569H99.7264C100.224 88.9569 100.657 88.861 101.025 88.6693C101.393 88.4745 101.678 88.2008 101.879 87.8483C102.083 87.4926 102.185 87.0767 102.185 86.6005V86.5912C102.185 86.1119 102.083 85.6959 101.879 85.3434C101.678 84.9878 101.393 84.7125 101.025 84.5177C100.657 84.3198 100.224 84.2208 99.7264 84.2208H97.6946V85.5289H99.3135C99.6753 85.5289 99.9568 85.6186 100.158 85.798C100.362 85.9773 100.464 86.2417 100.464 86.5912V86.6005C100.464 86.9468 100.362 87.2112 100.158 87.3937C99.9568 87.5761 99.6753 87.6674 99.3135 87.6674H97.6946V88.9569ZM96.8411 90.9144H98.5435V84.2208H96.8411V90.9144ZM104.102 90.9144H105.805V88.5765H106.607C106.62 88.5765 106.632 88.5765 106.644 88.5765C106.66 88.5765 106.674 88.5765 106.686 88.5765L107.832 90.9144H109.743L108.407 88.3214C108.772 88.1606 109.053 87.9086 109.251 87.5653C109.449 87.222 109.548 86.8463 109.548 86.4381V86.4288C109.548 85.9681 109.451 85.5738 109.256 85.246C109.061 84.9151 108.775 84.6615 108.398 84.4852C108.024 84.309 107.561 84.2208 107.011 84.2208H104.102V90.9144ZM105.805 87.4076V85.5057H106.811C107.117 85.5057 107.36 85.5939 107.54 85.7701C107.719 85.9433 107.809 86.1706 107.809 86.452V86.4613C107.809 86.752 107.72 86.9824 107.544 87.1525C107.368 87.3226 107.127 87.4076 106.821 87.4076H105.805ZM114.564 91.0953C115.235 91.0953 115.817 90.9531 116.308 90.6686C116.803 90.381 117.185 89.9743 117.454 89.4486C117.726 88.9229 117.862 88.2967 117.862 87.5699V87.5607C117.862 86.837 117.726 86.2124 117.454 85.6866C117.185 85.1578 116.803 84.7512 116.308 84.4667C115.817 84.1822 115.235 84.0399 114.564 84.0399C113.893 84.0399 113.31 84.1822 112.815 84.4667C112.324 84.7512 111.942 85.1578 111.67 85.6866C111.398 86.2124 111.261 86.837 111.261 87.5607V87.5699C111.261 88.2967 111.396 88.9229 111.665 89.4486C111.934 89.9743 112.316 90.381 112.811 90.6686C113.306 90.9531 113.89 91.0953 114.564 91.0953ZM114.564 89.6852C114.249 89.6852 113.974 89.5986 113.738 89.4254C113.503 89.2491 113.321 89.0033 113.191 88.6879C113.061 88.3693 112.996 87.9967 112.996 87.5699V87.5607C112.996 87.1308 113.061 86.7582 113.191 86.4427C113.324 86.1273 113.508 85.883 113.743 85.7098C113.978 85.5367 114.252 85.4501 114.564 85.4501C114.877 85.4501 115.15 85.5367 115.385 85.7098C115.62 85.883 115.803 86.1273 115.933 86.4427C116.062 86.7582 116.127 87.1308 116.127 87.5607V87.5699C116.127 87.9967 116.062 88.3693 115.933 88.6879C115.803 89.0033 115.62 89.2491 115.385 89.4254C115.15 89.5986 114.877 89.6852 114.564 89.6852ZM121.788 91.0953C122.568 91.0953 123.172 90.8897 123.602 90.4784C124.032 90.0671 124.247 89.4919 124.247 88.7528V84.2208H122.544V88.7389C122.544 89.0358 122.478 89.2631 122.345 89.4208C122.212 89.5754 122.019 89.6527 121.765 89.6527C121.601 89.6527 121.46 89.6187 121.343 89.5507C121.225 89.4795 121.134 89.3806 121.069 89.2538C121.007 89.1239 120.973 88.9724 120.967 88.7992V88.7806H119.33V88.8085C119.336 89.2785 119.438 89.6852 119.636 90.0284C119.837 90.3686 120.12 90.6315 120.485 90.817C120.853 91.0026 121.287 91.0953 121.788 91.0953ZM126.489 90.9144H131.077V89.546H128.191V88.1776H130.905V86.9252H128.191V85.5892H131.077V84.2208H126.489V90.9144ZM136.116 91.0953C136.691 91.0953 137.197 90.9871 137.633 90.7706C138.072 90.5542 138.421 90.2557 138.681 89.8754C138.944 89.495 139.094 89.0559 139.131 88.558L139.136 88.4791H137.494L137.484 88.5348C137.447 88.7636 137.367 88.9646 137.243 89.1378C137.122 89.311 136.966 89.4455 136.775 89.5414C136.586 89.6372 136.368 89.6852 136.12 89.6852C135.808 89.6852 135.539 89.6001 135.313 89.4301C135.091 89.2569 134.917 89.0126 134.794 88.6971C134.673 88.3786 134.613 88.0013 134.613 87.5653V87.556C134.613 87.12 134.673 86.7458 134.794 86.4335C134.917 86.118 135.091 85.8753 135.313 85.7052C135.539 85.5351 135.807 85.4501 136.116 85.4501C136.36 85.4501 136.58 85.5011 136.775 85.6031C136.969 85.7052 137.129 85.8459 137.252 86.0253C137.376 86.2046 137.453 86.4103 137.484 86.6422L137.489 86.684H139.131L139.126 86.6005C139.095 86.1057 138.947 85.6665 138.681 85.2831C138.415 84.8965 138.061 84.5935 137.619 84.3739C137.18 84.1512 136.679 84.0399 136.116 84.0399C135.445 84.0399 134.868 84.1822 134.386 84.4667C133.903 84.7512 133.531 85.1563 133.268 85.682C133.008 86.2077 132.878 86.8339 132.878 87.5607V87.5699C132.878 88.2967 133.008 88.9244 133.268 89.4532C133.531 89.979 133.903 90.3841 134.386 90.6686C134.871 90.9531 135.448 91.0953 136.116 91.0953ZM142.5 90.9144H144.203V85.5892H146.132V84.2208H140.571V85.5892H142.5V90.9144ZM146.667 92.8488H152.846V91.3783H146.667V92.8488ZM154.3 90.9144H155.914V87.12H156.758L155.552 86.5123L158.799 90.9144H160.149V84.2208H158.535V87.9828H157.691L158.897 88.5858L155.659 84.2208H154.3V90.9144ZM161.946 90.9144H163.737L165.193 85.6959H165.685V84.2208H164.196L161.946 90.9144ZM163.259 89.4486H167.164L166.779 88.2194H163.648L163.259 89.4486ZM166.742 90.9144H168.533L166.279 84.2208H165.281V85.6959L166.742 90.9144ZM170.316 90.9144H171.814V86.6561H172.654L171.109 84.4064L173.428 90.9144H174.402L176.722 84.4064L175.177 86.6561H176.017V90.9144H177.515V84.2208H175.571L173.962 88.7574H173.878L172.255 84.2208H170.316V90.9144ZM179.757 90.9144H184.345V89.546H181.46V88.1776H184.173V86.9252H181.46V85.5892H184.345V84.2208H179.757V90.9144Z" fill="#AB7AE0"/>
</svg>
