<svg width="27" height="34" viewBox="0 0 27 34" fill="none" xmlns="http://www.w3.org/2000/svg">
    <path d="M25.9591 7.03031L10.1855 0.610352L12.321 7.03031L10.1787 13.4434L25.9591 7.03031Z" fill="#5273E0" />
    <path d="M26.5799 7.03019C26.5799 6.98926 26.5731 6.95514 26.5663 6.92103C26.5663 6.90739 26.5595 6.90056 26.5595 6.88692C26.5527 6.85963 26.5458 6.83916 26.539 6.81187C26.5322 6.79823 26.5322 6.7914 26.5254 6.77776C26.5117 6.74365 26.4981 6.71636 26.4776 6.68224C26.4776 6.68224 26.4776 6.68224 26.4708 6.67542C26.4503 6.64813 26.4298 6.62084 26.4094 6.60038C26.4026 6.59355 26.3957 6.58673 26.3889 6.57991C26.3684 6.55944 26.348 6.5458 26.3275 6.53215C26.3207 6.52533 26.307 6.51851 26.3002 6.51168C26.2798 6.49804 26.2525 6.48439 26.2252 6.47075C26.2184 6.46393 26.2115 6.46392 26.2047 6.4571L10.4311 0.0439671C10.206 -0.0447252 9.95355 0.00303221 9.77616 0.166772C9.59878 0.330511 9.53738 0.582943 9.61242 0.814908L11.6796 7.03701L9.59878 13.2591C9.52373 13.4911 9.58513 13.7435 9.76252 13.9073C9.8785 14.0164 10.0286 14.0778 10.1855 14.0778C10.2606 14.0778 10.3424 14.0642 10.4175 14.0301L26.2047 7.61692C26.2047 7.61692 26.2047 7.61692 26.2115 7.61692C26.2184 7.61692 26.2252 7.6101 26.232 7.60328C26.2593 7.58964 26.2866 7.57599 26.307 7.56235C26.3139 7.55552 26.3275 7.5487 26.3343 7.54188C26.3548 7.52823 26.3753 7.50777 26.3957 7.49412C26.4026 7.4873 26.4094 7.48048 26.4162 7.47365C26.4435 7.44636 26.464 7.41907 26.4844 7.39178C26.5049 7.36449 26.5185 7.33038 26.5322 7.29627C26.539 7.28262 26.539 7.2758 26.5458 7.26216C26.5527 7.23487 26.5595 7.2144 26.5663 7.18711C26.5663 7.17346 26.5731 7.16664 26.5731 7.153C26.5731 7.10524 26.5799 7.0643 26.5799 7.03019ZM11.1952 1.68819L22.8003 6.40935H12.7644L11.1952 1.68819ZM12.7644 7.64421H22.7935L11.1884 12.3654L12.7644 7.64421Z" fill="#DBDBDB" />
    <path d="M7.04663 33.3581C7.21037 33.3581 7.36728 33.2899 7.48327 33.1739C7.59925 33.058 7.66747 32.901 7.66747 32.7373C7.66747 32.5736 7.59925 32.4166 7.48327 32.3007C7.36728 32.1847 7.21037 32.1165 7.04663 32.1165C6.88289 32.1165 6.72597 32.1847 6.60999 32.3007C6.49401 32.4166 6.42578 32.5736 6.42578 32.7373C6.42578 32.901 6.49401 33.058 6.60999 33.1739C6.72597 33.2967 6.88289 33.3581 7.04663 33.3581Z" fill="#DBDBDB" />
    <path d="M23.9875 31.5707C24.1444 31.5707 24.2945 31.5161 24.4173 31.4001C24.6629 31.1614 24.6697 30.7725 24.4309 30.5269C24.1921 30.2813 23.8032 30.2744 23.5576 30.5064C23.312 30.7452 23.3052 31.1341 23.5372 31.3797C23.66 31.5025 23.8237 31.5707 23.9875 31.5707Z" fill="#DBDBDB" />
    <path d="M24.9974 29.7629C25.0861 29.8106 25.1817 29.8311 25.2772 29.8311C25.5023 29.8311 25.7206 29.7083 25.8298 29.49C25.9867 29.183 25.8639 28.8146 25.5569 28.6577C25.2499 28.5007 24.8815 28.6235 24.7245 28.9306C24.5676 29.2376 24.6904 29.606 24.9974 29.7629Z" fill="#DBDBDB" />
    <path d="M25.3453 23.4928C25.6387 23.3155 25.7273 22.9334 25.55 22.6469C25.3726 22.3535 24.9905 22.2648 24.6972 22.4422C24.4038 22.6196 24.3151 23.0016 24.4925 23.295C24.6085 23.486 24.8131 23.5884 25.0178 23.5884C25.1338 23.5815 25.2429 23.5542 25.3453 23.4928Z" fill="#DBDBDB" />
    <path d="M25.2149 25.1031C25.2763 25.3965 25.5356 25.5944 25.8153 25.5944C25.8562 25.5944 25.904 25.5875 25.9449 25.5807C26.2792 25.5125 26.4907 25.185 26.4225 24.8507C26.3543 24.5164 26.0268 24.3049 25.6925 24.3731C25.3582 24.4414 25.1467 24.7688 25.2149 25.1031Z" fill="#DBDBDB" />
    <path d="M24.0761 21.726C24.2945 21.4599 24.2535 21.071 23.9875 20.8527C23.7214 20.6344 23.3325 20.6753 23.1142 20.9414C22.8959 21.2075 22.9368 21.5964 23.2029 21.8147C23.3189 21.9102 23.4553 21.9511 23.5918 21.9511C23.776 21.9511 23.9533 21.8761 24.0761 21.726Z" fill="#DBDBDB" />
    <path d="M0.00622575 14.4941C0.0539831 14.8011 0.32006 15.0263 0.620249 15.0263C0.647539 15.0263 0.681652 15.0263 0.708942 15.0194C1.05007 14.9717 1.28203 14.6578 1.23427 14.3167C1.18652 13.9756 0.872681 13.7436 0.531557 13.7914C0.190433 13.8391 -0.0415316 14.153 0.00622575 14.4941Z" fill="#DBDBDB" />
    <path d="M1.73898 9.67742C1.44561 9.50685 1.06355 9.60237 0.892992 9.89574C0.72243 10.1891 0.817945 10.5712 1.11131 10.7417C1.20683 10.7963 1.31599 10.8236 1.42515 10.8236C1.63664 10.8236 1.84132 10.7144 1.9573 10.5166C2.13468 10.23 2.03917 9.84798 1.73898 9.67742Z" fill="#DBDBDB" />
    <path d="M2.61237 18.7923C2.77611 18.7923 2.94668 18.7241 3.06266 18.5945C3.29462 18.342 3.28098 17.9532 3.02855 17.7212C2.77611 17.4892 2.38723 17.5029 2.15527 17.7553C1.9233 18.0077 1.93695 18.3966 2.18938 18.6286C2.31219 18.7377 2.46228 18.7923 2.61237 18.7923Z" fill="#DBDBDB" />
    <path d="M4.67308 18.7924C4.35924 18.6559 3.99765 18.7992 3.8612 19.113C3.72475 19.4268 3.86802 19.7884 4.18186 19.9249C4.26373 19.959 4.3456 19.9726 4.42747 19.9726C4.66625 19.9726 4.8914 19.8362 4.99373 19.5974C5.13018 19.2904 4.98691 18.9288 4.67308 18.7924Z" fill="#DBDBDB" />
    <path d="M3.29516 8.15602C3.07684 7.89676 2.68114 7.86265 2.42188 8.08779C2.16263 8.30611 2.12852 8.70181 2.35366 8.96107C2.47646 9.10434 2.65385 9.17939 2.82441 9.17939C2.96768 9.17939 3.10413 9.13163 3.22694 9.02929C3.47937 8.80415 3.51348 8.41527 3.29516 8.15602Z" fill="#DBDBDB" />
    <path d="M0.545501 12.8431C0.586435 12.85 0.62737 12.8568 0.661483 12.8568C0.948027 12.8568 1.2141 12.6521 1.26868 12.3519C1.33009 12.0176 1.11177 11.6901 0.777465 11.6287C0.443163 11.5673 0.115684 11.7857 0.0542819 12.12C-0.00712047 12.4543 0.211199 12.7817 0.545501 12.8431Z" fill="#DBDBDB" />
    <path d="M1.29543 17.0799C1.39094 17.0799 1.49328 17.0594 1.58197 17.0116C1.88216 16.8547 1.99814 16.4795 1.84123 16.1793C1.68431 15.8791 1.30907 15.7631 1.00888 15.92C0.708694 16.077 0.592712 16.4522 0.749629 16.7524C0.858789 16.9571 1.07029 17.0799 1.29543 17.0799Z" fill="#DBDBDB" />
    <path d="M26.5256 27.2181C26.5665 26.8769 26.3277 26.5699 25.9866 26.529C25.6455 26.488 25.3385 26.7268 25.2975 27.0611C25.2566 27.4023 25.4954 27.7093 25.8297 27.7502C25.857 27.757 25.8843 27.757 25.9116 27.757C26.2186 27.757 26.4846 27.5319 26.5256 27.2181Z" fill="#DBDBDB" />
    <path d="M10.8816 19.2698C10.5405 19.2698 10.2607 19.5427 10.2607 19.8906C10.2607 20.2317 10.5405 20.5115 10.8816 20.5115C11.2227 20.5115 11.5024 20.2317 11.5024 19.8906C11.4956 19.5427 11.2227 19.2698 10.8816 19.2698Z" fill="#DBDBDB" />
    <path d="M17.3076 32.7441C17.3076 33.0853 17.5805 33.365 17.9285 33.365C18.2696 33.365 18.5493 33.0853 18.5493 32.7441C18.5493 32.403 18.2696 32.1233 17.9285 32.1233C17.5873 32.1233 17.3076 32.403 17.3076 32.7441Z" fill="#DBDBDB" />
    <path d="M10.7793 32.7441C10.7793 33.0853 11.0522 33.365 11.4001 33.365C11.7413 33.365 12.021 33.0853 12.021 32.7441C12.021 32.403 11.7413 32.1233 11.4001 32.1233C11.059 32.1233 10.7793 32.403 10.7793 32.7441Z" fill="#DBDBDB" />
    <path d="M17.404 19.2698C17.0629 19.2698 16.7832 19.5427 16.7832 19.8906C16.7832 20.2317 17.0629 20.5115 17.404 20.5115C17.7452 20.5115 18.0249 20.2317 18.0249 19.8906C18.0249 19.5427 17.752 19.2698 17.404 19.2698Z" fill="#DBDBDB" />
    <path d="M13.0574 19.2698C12.7162 19.2698 12.4365 19.5427 12.4365 19.8906C12.4365 20.2317 12.7094 20.5115 13.0574 20.5115C13.3985 20.5115 13.6782 20.2317 13.6782 19.8906C13.6714 19.5427 13.3985 19.2698 13.0574 19.2698Z" fill="#DBDBDB" />
    <path d="M8.60938 32.7441C8.60938 33.0853 8.88227 33.365 9.23022 33.365C9.57135 33.365 9.85107 33.0853 9.85107 32.7441C9.85107 32.403 9.57135 32.1233 9.23022 32.1233C8.88227 32.1233 8.60938 32.403 8.60938 32.7441Z" fill="#DBDBDB" />
    <path d="M12.9551 32.7441C12.9551 33.0853 13.2348 33.365 13.5759 33.365C13.917 33.365 14.1968 33.0853 14.1968 32.7441C14.1968 32.403 13.9239 32.1233 13.5759 32.1233C13.2348 32.1233 12.9551 32.403 12.9551 32.7441Z" fill="#DBDBDB" />
    <path d="M15.1318 32.7441C15.1318 33.0853 15.4047 33.365 15.7527 33.365C16.0938 33.365 16.3667 33.0853 16.3667 32.7441C16.3667 32.403 16.0938 32.1233 15.7527 32.1233C15.4116 32.1233 15.1318 32.403 15.1318 32.7441Z" fill="#DBDBDB" />
    <path d="M15.2341 19.2698C14.893 19.2698 14.6133 19.5427 14.6133 19.8906C14.6133 20.2317 14.8862 20.5115 15.2341 20.5115C15.5753 20.5115 15.855 20.2317 15.855 19.8906C15.8482 19.5427 15.5753 19.2698 15.2341 19.2698Z" fill="#DBDBDB" />
    <path d="M8.08398 19.8838C8.08398 20.2249 8.36371 20.5046 8.70483 20.5046C9.04595 20.5046 9.32568 20.2249 9.32568 19.8838C9.32568 19.5427 9.05278 19.2629 8.70483 19.2629C8.36371 19.2698 8.08398 19.5427 8.08398 19.8838Z" fill="#DBDBDB" />
    <path d="M7.4225 7.01664C7.41568 6.67552 7.12913 6.40262 6.78801 6.41626C6.44688 6.42308 6.18081 6.70963 6.18763 7.05075C6.19445 7.39188 6.481 7.65795 6.82212 7.65113C7.16324 7.63749 7.43614 7.35776 7.4225 7.01664Z" fill="#DBDBDB" />
    <path d="M5.91425 19.8292C5.89378 20.1703 6.14621 20.4637 6.48734 20.491C6.50098 20.491 6.51463 20.491 6.52827 20.491C6.84893 20.491 7.12183 20.2454 7.14229 19.9179C7.16276 19.5768 6.91033 19.2834 6.56921 19.2561C6.22808 19.2288 5.93471 19.4881 5.91425 19.8292Z" fill="#DBDBDB" />
    <path d="M5.25921 7.22807C5.1364 6.90741 4.78163 6.75049 4.46098 6.8733C4.14032 6.9961 3.9834 7.35087 4.10621 7.67153C4.20172 7.91714 4.43369 8.06723 4.68612 8.06723C4.76117 8.06723 4.83621 8.05359 4.90444 8.0263C5.2251 7.90349 5.38201 7.54872 5.25921 7.22807Z" fill="#DBDBDB" />
    <path d="M22.2956 20.4773C22.4116 20.1567 22.2479 19.8019 21.9204 19.6859C21.5997 19.5699 21.245 19.7337 21.129 20.0543C21.013 20.375 21.1767 20.7298 21.5042 20.8457C21.5724 20.873 21.6475 20.8799 21.7157 20.8799C21.9681 20.8867 22.2069 20.7298 22.2956 20.4773Z" fill="#DBDBDB" />
    <path d="M19.5867 19.2698C19.2455 19.2698 18.9658 19.5427 18.9658 19.8838C18.9658 20.2249 19.2387 20.5046 19.5798 20.5046C19.5798 20.5046 19.5798 20.5046 19.5867 20.5046C19.9278 20.5046 20.2007 20.2317 20.2075 19.8906C20.2007 19.5495 19.9278 19.2698 19.5867 19.2698Z" fill="#DBDBDB" />
    <path d="M22.1935 32.7853C22.2822 32.7853 22.364 32.7648 22.4527 32.7307C22.7666 32.5874 22.903 32.219 22.7597 31.912C22.6165 31.5982 22.2549 31.4617 21.9411 31.605C21.6272 31.7483 21.4908 32.1167 21.634 32.4237C21.7364 32.6488 21.9615 32.7853 22.1935 32.7853Z" fill="#DBDBDB" />
    <path d="M19.4844 32.7716C19.5117 33.0922 19.7846 33.3378 20.0985 33.3378C20.1189 33.3378 20.1326 33.3378 20.153 33.3378C20.4942 33.3105 20.7466 33.0103 20.7125 32.6692C20.6852 32.3281 20.385 32.0757 20.0439 32.1098C19.7096 32.1302 19.4572 32.4304 19.4844 32.7716Z" fill="#DBDBDB" />
    <path d="M9.44811 7.46691C9.56409 7.35093 9.62549 7.19401 9.62549 7.03027C9.62549 6.86653 9.55727 6.70961 9.44811 6.59363C9.33213 6.47765 9.17521 6.40942 9.01147 6.40942C8.84773 6.40942 8.69081 6.47765 8.57483 6.59363C8.45885 6.70961 8.39062 6.86653 8.39062 7.03027C8.39062 7.19401 8.45885 7.35093 8.57483 7.46691C8.69081 7.58289 8.84773 7.65112 9.01147 7.65112C9.17521 7.64429 9.33213 7.58289 9.44811 7.46691Z" fill="#DBDBDB" />
</svg>