<svg width="88" height="56" viewBox="0 0 88 56" fill="none" xmlns="http://www.w3.org/2000/svg">
<rect x="0.550781" y="1" width="20.2121" height="54" rx="1.5" stroke="#DBDBDB" stroke-dasharray="2 2"/>
<rect x="0.550781" y="1" width="44.4545" height="54" rx="1.5" stroke="#DBDBDB"/>
<rect x="49.0352" y="1" width="38.3939" height="54" rx="1.5" stroke="#DBDBDB"/>
<path d="M6.76773 27.6464C6.57247 27.8417 6.57247 28.1583 6.76773 28.3536L9.94971 31.5355C10.145 31.7308 10.4616 31.7308 10.6568 31.5355C10.8521 31.3403 10.8521 31.0237 10.6568 30.8284L7.82839 28L10.6568 25.1716C10.8521 24.9763 10.8521 24.6597 10.6568 24.4645C10.4616 24.2692 10.145 24.2692 9.94971 24.4645L6.76773 27.6464ZM21.2627 27.5L7.12128 27.5L7.12128 28.5L21.2627 28.5L21.2627 27.5Z" fill="#DBDBDB"/>
</svg>
