<svg width="136" height="34" viewBox="0 0 136 34" fill="none" xmlns="http://www.w3.org/2000/svg">
  <path
    d="M15.3252 20.791L20.7252 17.1735"
    stroke="#D89614"
    stroke-miterlimit="10"
    stroke-linecap="round"
    stroke-linejoin="round"
  />
  <path
    d="M24.4216 15.0012L30.1686 12.0019"
    stroke="#D89614"
    stroke-miterlimit="10"
    stroke-linecap="round"
    stroke-linejoin="round"
  />
  <path
    d="M33.4234 10.4968L39.5281 8.26561"
    stroke="#D89614"
    stroke-miterlimit="10"
    stroke-linecap="round"
    stroke-linejoin="round"
  />
  <path
    d="M43.1424 7.07633L49.4149 5.34293"
    stroke="#D89614"
    stroke-miterlimit="10"
    stroke-linecap="round"
    stroke-linejoin="round"
  />
  <path
    d="M53.1457 4.67445L59.579 3.60869"
    stroke="#D89614"
    stroke-miterlimit="10"
    stroke-linecap="round"
    stroke-linejoin="round"
  />
  <path
    d="M63.4972 3.21017L70.0245 3.21167"
    stroke="#D89614"
    stroke-miterlimit="10"
    stroke-linecap="round"
    stroke-linejoin="round"
  />
  <path
    d="M73.6433 3.15224L80.1398 3.79584"
    stroke="#D89614"
    stroke-miterlimit="10"
    stroke-linecap="round"
    stroke-linejoin="round"
  />
  <path
    d="M83.8506 4.20182L90.2259 5.54973"
    stroke="#D89614"
    stroke-miterlimit="10"
    stroke-linecap="round"
    stroke-linejoin="round"
  />
  <path
    d="M93.9708 6.44233L100.214 8.34458"
    stroke="#D89614"
    stroke-miterlimit="10"
    stroke-linecap="round"
    stroke-linejoin="round"
  />
  <path
    d="M103.859 9.71419L109.828 12.2928"
    stroke="#D89614"
    stroke-miterlimit="10"
    stroke-linecap="round"
    stroke-linejoin="round"
  />
  <path
    d="M113.096 14.0073L118.752 17.2646"
    stroke="#D89614"
    stroke-miterlimit="10"
    stroke-linecap="round"
    stroke-linejoin="round"
  />
  <path
    d="M121.878 19.3827L127.123 23.2686"
    stroke="#D89614"
    stroke-miterlimit="10"
    stroke-linecap="round"
    stroke-linejoin="round"
  />
  <path
    d="M130.537 26.1972L135.447 30.4619"
    stroke="#D89614"
    stroke-miterlimit="10"
    stroke-linecap="round"
    stroke-linejoin="round"
  />
  <path
    d="M16 26C16 21.5817 12.4183 18 8.00001 18C3.58173 18 6.15974e-06 21.5817 3.96818e-06 26C1.77661e-06 30.4183 3.58172 34 8 34C12.4183 34 16 30.4183 16 26Z"
    fill="#D89614"
  />
</svg>