<svg width="16" height="12" viewBox="0 0 16 12" fill="none" xmlns="http://www.w3.org/2000/svg">
<path d="M14.4688 2.24531H8.1582L6.09629 0.273047C6.07005 0.248486 6.03555 0.234683 5.99961 0.234375H1.53125C1.22012 0.234375 0.96875 0.485742 0.96875 0.796875V11.2031C0.96875 11.5143 1.22012 11.7656 1.53125 11.7656H14.4688C14.7799 11.7656 15.0312 11.5143 15.0312 11.2031V2.80781C15.0312 2.49668 14.7799 2.24531 14.4688 2.24531ZM13.7656 10.5H2.23438V1.5H5.54785L7.6502 3.51094H13.7656V10.5Z" fill="white"/>
<path d="M7.50781 4.78887V6.28125H6.02246C5.95039 6.28125 5.89062 6.33574 5.89062 6.4043V7.14258C5.89062 7.20937 5.95039 7.26562 6.02246 7.26562H7.50781V8.75801C7.50781 8.82656 7.56406 8.88281 7.63086 8.88281H8.36914C8.4377 8.88281 8.49219 8.82656 8.49219 8.75801V7.26562H9.97754C10.0496 7.26562 10.1094 7.20937 10.1094 7.14258V6.4043C10.1094 6.33574 10.0496 6.28125 9.97754 6.28125H8.49219V4.78887C8.49219 4.72031 8.4377 4.66406 8.36914 4.66406H7.63086C7.56406 4.66406 7.50781 4.72031 7.50781 4.78887Z" fill="white"/>
</svg>
