<svg width="16" height="12" viewBox="0 0 16 12" fill="none" xmlns="http://www.w3.org/2000/svg">
<path d="M15.3125 4.80469H13.4141V2.80781C13.4141 2.49668 13.1627 2.24531 12.8516 2.24531H7.31445L5.25254 0.273047C5.2263 0.248486 5.1918 0.234683 5.15586 0.234375H0.6875C0.376367 0.234375 0.125 0.485742 0.125 0.796875V11.2031C0.125 11.5143 0.376367 11.7656 0.6875 11.7656H12.957C13.1855 11.7656 13.393 11.6268 13.4791 11.4141L15.8346 5.57812C15.8609 5.51133 15.875 5.43926 15.875 5.36719C15.875 5.05605 15.6236 4.80469 15.3125 4.80469ZM1.39062 1.5H4.7041L6.80645 3.51094H12.1484V4.80469H3.18359C2.95508 4.80469 2.74766 4.94355 2.66152 5.15625L1.39062 8.30625V1.5ZM12.558 10.5H1.79492L3.61074 6H14.3756L12.558 10.5Z" fill="white"/>
</svg>
