<svg width="70" height="67" viewBox="0 0 70 67" fill="none" xmlns="http://www.w3.org/2000/svg">
<circle cx="27.7358" cy="38.3019" r="27.7358" fill="white" fill-opacity="0.07"/>
<circle cx="61.415" cy="8.58491" r="8.58491" fill="white" fill-opacity="0.07"/>
<path d="M51.8333 29.9666H52.3333V29.4666V22.0833H59.2167V29.4666V60.5H36.5667L36.5667 53.0551L36.5667 45.2334V37.85H43.95H44.45V37.35V29.9666H51.8333Z" fill="#37ADB5" fill-opacity="0.2" stroke="#7D7D7D"/>
<path d="M29.1833 53.6166H29.6833V53.1166V45.7333H36.5667V60.5H29.1833H21.8V53.6166H29.1833Z" fill="#0CBCF4" fill-opacity="0.2" stroke="#7D7D7D"/>
<path d="M29.2097 22.6313L18.0647 33.7762L17.3859 33.0974L17.3859 33.0974L16.7071 32.4186L27.8521 21.2736L28.7056 20.4201H27.4985H20.6763V18.5H31.9833V29.8069H30.0633V22.9849V21.7778L29.2097 22.6313Z" fill="#FF8E00" fill-opacity="0.2" stroke="#7D7D7D"/>
</svg>
