<svg width="70" height="67" viewBox="0 0 70 67" fill="none" xmlns="http://www.w3.org/2000/svg">
<circle cx="27.7358" cy="38.3019" r="27.7358" fill="white" fill-opacity="0.07"/>
<circle cx="61.415" cy="8.58491" r="8.58491" fill="white" fill-opacity="0.07"/>
<mask id="path-3-inside-1_2_132" fill="white">
<path d="M60.1485 36.4961L40.5038 16.8508C40.2351 16.5811 39.9158 16.3671 39.5642 16.2211C39.2126 16.0752 38.8357 16 38.455 16C38.0743 16 37.6974 16.0752 37.3458 16.2211C36.9942 16.3671 36.6749 16.5811 36.4062 16.8508L32.3262 20.9309L37.5005 26.1054C38.1107 25.8977 38.7669 25.8656 39.3944 26.0128C40.0219 26.16 40.5954 26.4804 41.0497 26.9377C41.5039 27.395 41.8206 27.9706 41.9636 28.5991C42.1066 29.2276 42.0701 29.8836 41.8585 30.4924L46.8399 35.4741C47.5845 35.2182 48.3943 35.2253 49.1343 35.4941C49.8744 35.7629 50.4999 36.2772 50.9068 36.9512C51.3137 37.6253 51.4774 38.4184 51.3705 39.1984C51.2637 39.9785 50.8927 40.6984 50.3195 41.2382C49.7463 41.7779 49.0055 42.105 48.2204 42.1648C47.4354 42.2246 46.6535 42.0136 46.0052 41.5669C45.3568 41.1203 44.8811 40.4649 44.6572 39.7101C44.4334 38.9552 44.475 38.1464 44.775 37.4185L40.123 32.7663V45.0067C40.8277 45.3558 41.3915 45.9359 41.7205 46.6503C42.0495 47.3646 42.1238 48.1702 41.9311 48.9327C41.7384 49.6952 41.2902 50.3686 40.6613 50.8409C40.0324 51.3131 39.2607 51.5556 38.4747 51.528C37.6888 51.5003 36.936 51.2043 36.3418 50.689C35.7476 50.1738 35.3478 49.4705 35.2091 48.6964C35.0704 47.9222 35.2011 47.1239 35.5794 46.4344C35.9578 45.7449 36.5609 45.2059 37.2884 44.907V32.5542C36.8675 32.3815 36.485 32.1272 36.1628 31.8061C35.8406 31.4849 35.5852 31.1032 35.4111 30.6828C35.2371 30.2625 35.148 29.8119 35.1489 29.357C35.1498 28.902 35.2407 28.4518 35.4163 28.0321L30.3224 22.9348L16.8515 36.4109C16.5816 36.6797 16.3675 36.9991 16.2214 37.3508C16.0752 37.7026 16 38.0797 16 38.4606C16 38.8415 16.0752 39.2187 16.2214 39.5704C16.3675 39.9222 16.5816 40.2416 16.8515 40.5103L36.4962 60.1492C36.7649 60.4189 37.0842 60.6329 37.4358 60.7789C37.7874 60.9248 38.1643 61 38.545 61C38.9257 61 39.3026 60.9248 39.6542 60.7789C40.0058 60.6329 40.3251 60.4189 40.5938 60.1492L60.1485 40.5891C60.4184 40.3203 60.6325 40.0009 60.7786 39.6492C60.9248 39.2974 61 38.9203 61 38.5394C61 38.1585 60.9248 37.7813 60.7786 37.4296C60.6325 37.0778 60.4184 36.7584 60.1485 36.4897"/>
</mask>
<path d="M60.1485 36.4961L40.5038 16.8508C40.2351 16.5811 39.9158 16.3671 39.5642 16.2211C39.2126 16.0752 38.8357 16 38.455 16C38.0743 16 37.6974 16.0752 37.3458 16.2211C36.9942 16.3671 36.6749 16.5811 36.4062 16.8508L32.3262 20.9309L37.5005 26.1054C38.1107 25.8977 38.7669 25.8656 39.3944 26.0128C40.0219 26.16 40.5954 26.4804 41.0497 26.9377C41.5039 27.395 41.8206 27.9706 41.9636 28.5991C42.1066 29.2276 42.0701 29.8836 41.8585 30.4924L46.8399 35.4741C47.5845 35.2182 48.3943 35.2253 49.1343 35.4941C49.8744 35.7629 50.4999 36.2772 50.9068 36.9512C51.3137 37.6253 51.4774 38.4184 51.3705 39.1984C51.2637 39.9785 50.8927 40.6984 50.3195 41.2382C49.7463 41.7779 49.0055 42.105 48.2204 42.1648C47.4354 42.2246 46.6535 42.0136 46.0052 41.5669C45.3568 41.1203 44.8811 40.4649 44.6572 39.7101C44.4334 38.9552 44.475 38.1464 44.775 37.4185L40.123 32.7663V45.0067C40.8277 45.3558 41.3915 45.9359 41.7205 46.6503C42.0495 47.3646 42.1238 48.1702 41.9311 48.9327C41.7384 49.6952 41.2902 50.3686 40.6613 50.8409C40.0324 51.3131 39.2607 51.5556 38.4747 51.528C37.6888 51.5003 36.936 51.2043 36.3418 50.689C35.7476 50.1738 35.3478 49.4705 35.2091 48.6964C35.0704 47.9222 35.2011 47.1239 35.5794 46.4344C35.9578 45.7449 36.5609 45.2059 37.2884 44.907V32.5542C36.8675 32.3815 36.485 32.1272 36.1628 31.8061C35.8406 31.4849 35.5852 31.1032 35.4111 30.6828C35.2371 30.2625 35.148 29.8119 35.1489 29.357C35.1498 28.902 35.2407 28.4518 35.4163 28.0321L30.3224 22.9348L16.8515 36.4109C16.5816 36.6797 16.3675 36.9991 16.2214 37.3508C16.0752 37.7026 16 38.0797 16 38.4606C16 38.8415 16.0752 39.2187 16.2214 39.5704C16.3675 39.9222 16.5816 40.2416 16.8515 40.5103L36.4962 60.1492C36.7649 60.4189 37.0842 60.6329 37.4358 60.7789C37.7874 60.9248 38.1643 61 38.545 61C38.9257 61 39.3026 60.9248 39.6542 60.7789C40.0058 60.6329 40.3251 60.4189 40.5938 60.1492L60.1485 40.5891C60.4184 40.3203 60.6325 40.0009 60.7786 39.6492C60.9248 39.2974 61 38.9203 61 38.5394C61 38.1585 60.9248 37.7813 60.7786 37.4296C60.6325 37.0778 60.4184 36.7584 60.1485 36.4897" fill="#DD4C35" fill-opacity="0.2"/>
<path d="M40.5038 16.8508L39.7955 17.5566L39.7967 17.5579L40.5038 16.8508ZM36.4062 16.8508L37.1133 17.5579L37.1145 17.5566L36.4062 16.8508ZM32.3262 20.9309L31.6191 20.2238L30.912 20.9309L31.6191 21.638L32.3262 20.9309ZM37.5005 26.1054L36.7934 26.8125L37.2335 27.2526L37.8227 27.052L37.5005 26.1054ZM41.8585 30.4924L40.9139 30.164L40.708 30.7562L41.1513 31.1995L41.8585 30.4924ZM46.8399 35.4741L46.1328 36.1812L46.5743 36.6227L47.1648 36.4198L46.8399 35.4741ZM44.775 37.4185L45.6996 37.7996L45.9537 37.183L45.4822 36.7114L44.775 37.4185ZM40.123 32.7663L40.8301 32.0592L39.123 30.352V32.7663H40.123ZM40.123 45.0067H39.123V45.6272L39.679 45.9027L40.123 45.0067ZM37.2884 44.907L37.6683 45.832L38.2884 45.5773V44.907H37.2884ZM37.2884 32.5542H38.2884V31.8836L37.668 31.629L37.2884 32.5542ZM36.1628 31.8061L35.4568 32.5143L36.1628 31.8061ZM35.4163 28.0321L36.3388 28.4182L36.5977 27.7996L36.1237 27.3253L35.4163 28.0321ZM30.3224 22.9348L31.0297 22.2279L30.3225 21.5202L29.6151 22.2278L30.3224 22.9348ZM16.8515 36.4109L17.5572 37.1195L17.5588 37.1179L16.8515 36.4109ZM16 38.4606H15H16ZM16.8515 40.5103L17.5585 39.8031L17.5572 39.8017L16.8515 40.5103ZM36.4962 60.1492L37.2045 59.4434L37.2032 59.442L36.4962 60.1492ZM40.5938 60.1492L39.8866 59.4422L39.8855 59.4434L40.5938 60.1492ZM60.1485 40.5891L59.4428 39.8805L59.4413 39.8821L60.1485 40.5891ZM60.8556 35.789L41.211 16.1437L39.7967 17.5579L59.4413 37.2032L60.8556 35.789ZM41.2122 16.1449C40.8506 15.782 40.4209 15.4941 39.9477 15.2976L39.1807 17.1447C39.4108 17.2402 39.6197 17.3802 39.7955 17.5566L41.2122 16.1449ZM39.9477 15.2976C39.4746 15.1011 38.9673 15 38.455 15V17C38.7041 17 38.9507 17.0492 39.1807 17.1447L39.9477 15.2976ZM38.455 15C37.9427 15 37.4354 15.1011 36.9623 15.2976L37.7293 17.1447C37.9593 17.0492 38.2059 17 38.455 17V15ZM36.9623 15.2976C36.4892 15.4941 36.0595 15.782 35.6978 16.1449L37.1145 17.5566C37.2903 17.3802 37.4993 17.2402 37.7293 17.1447L36.9623 15.2976ZM35.6991 16.1437L31.6191 20.2238L33.0333 21.638L37.1133 17.5579L35.6991 16.1437ZM31.6191 21.638L36.7934 26.8125L38.2076 25.3983L33.0333 20.2238L31.6191 21.638ZM37.8227 27.052C38.2555 26.9047 38.7209 26.882 39.1661 26.9864L39.6227 25.0392C38.8128 24.8493 37.9658 24.8907 37.1783 25.1587L37.8227 27.052ZM39.1661 26.9864C39.6112 27.0908 40.018 27.3181 40.3402 27.6424L41.7591 26.2329C41.1729 25.6428 40.4326 25.2291 39.6227 25.0392L39.1661 26.9864ZM40.3402 27.6424C40.6624 27.9668 40.887 28.3752 40.9885 28.821L42.9386 28.3773C42.7541 27.5661 42.3454 26.8231 41.7591 26.2329L40.3402 27.6424ZM40.9885 28.821C41.0899 29.2668 41.0641 29.7322 40.9139 30.164L42.803 30.8208C43.0762 30.0351 43.1232 29.1884 42.9386 28.3773L40.9885 28.821ZM41.1513 31.1995L46.1328 36.1812L47.547 34.767L42.5656 29.7853L41.1513 31.1995ZM47.1648 36.4198C47.6932 36.2383 48.2678 36.2433 48.793 36.434L49.4757 34.5542C48.5208 34.2073 47.4759 34.1982 46.515 34.5283L47.1648 36.4198ZM48.793 36.434C49.3181 36.6248 49.762 36.9897 50.0507 37.468L51.763 36.4344C51.2379 35.5646 50.4307 34.901 49.4757 34.5542L48.793 36.434ZM50.0507 37.468C50.3395 37.9463 50.4556 38.5092 50.3798 39.0627L52.3613 39.3342C52.4992 38.3276 52.288 37.3042 51.763 36.4344L50.0507 37.468ZM50.3798 39.0627C50.3039 39.6163 50.0407 40.1271 49.634 40.5101L51.0051 41.9662C51.7447 41.2697 52.2234 40.3408 52.3613 39.3342L50.3798 39.0627ZM49.634 40.5101C49.2272 40.8932 48.7015 41.1252 48.1444 41.1677L48.2964 43.1619C49.3094 43.0847 50.2654 42.6627 51.0051 41.9662L49.634 40.5101ZM48.1444 41.1677C47.5874 41.2101 47.0326 41.0604 46.5725 40.7435L45.4379 42.3904C46.2745 42.9668 47.2834 43.2391 48.2964 43.1619L48.1444 41.1677ZM46.5725 40.7435C46.1124 40.4265 45.7748 39.9614 45.616 39.4258L43.6985 39.9944C43.9873 40.9684 44.6012 41.8141 45.4379 42.3904L46.5725 40.7435ZM45.616 39.4258C45.4571 38.8901 45.4866 38.3162 45.6996 37.7996L43.8505 37.0374C43.4633 37.9767 43.4097 39.0203 43.6985 39.9944L45.616 39.4258ZM45.4822 36.7114L40.8301 32.0592L39.4159 33.4734L44.0679 38.1256L45.4822 36.7114ZM39.123 32.7663V45.0067H41.123V32.7663H39.123ZM39.679 45.9027C40.1789 46.1504 40.5788 46.5618 40.8122 47.0686L42.6288 46.232C42.2042 45.31 41.4765 44.5613 40.567 44.1106L39.679 45.9027ZM40.8122 47.0686C41.0456 47.5753 41.0983 48.1467 40.9616 48.6876L42.9006 49.1777C43.1494 48.1936 43.0534 47.1539 42.6288 46.232L40.8122 47.0686ZM40.9616 48.6876C40.8249 49.2285 40.507 49.7062 40.0609 50.0412L41.2618 51.6405C42.0735 51.031 42.6519 50.1618 42.9006 49.1777L40.9616 48.6876ZM40.0609 50.0412C39.6148 50.3762 39.0674 50.5482 38.5099 50.5286L38.4396 52.5274C39.454 52.563 40.4501 52.25 41.2618 51.6405L40.0609 50.0412ZM38.5099 50.5286C37.9524 50.509 37.4184 50.299 36.9969 49.9335L35.6867 51.4446C36.4536 52.1096 37.4252 52.4917 38.4396 52.5274L38.5099 50.5286ZM36.9969 49.9335C36.5754 49.568 36.2918 49.0692 36.1934 48.52L34.2248 48.8728C34.4038 49.8719 34.9197 50.7796 35.6867 51.4446L36.9969 49.9335ZM36.1934 48.52C36.095 47.9709 36.1877 47.4046 36.4561 46.9155L34.7027 45.9534C34.2144 46.8433 34.0457 47.8736 34.2248 48.8728L36.1934 48.52ZM36.4561 46.9155C36.7245 46.4264 37.1523 46.044 37.6683 45.832L36.9084 43.982C35.9695 44.3677 35.191 45.0635 34.7027 45.9534L36.4561 46.9155ZM38.2884 44.907V32.5542H36.2884V44.907H38.2884ZM37.668 31.629C37.3692 31.5064 37.0975 31.3259 36.8688 31.0979L35.4568 32.5143C35.8724 32.9286 36.3659 33.2566 36.9088 33.4793L37.668 31.629ZM36.8688 31.0979C36.64 30.8698 36.4587 30.5988 36.3351 30.3003L34.4872 31.0653C34.7117 31.6075 35.0412 32.1 35.4568 32.5143L36.8688 31.0979ZM36.3351 30.3003C36.2115 30.0019 36.1483 29.6819 36.1489 29.3589L34.1489 29.355C34.1478 29.9419 34.2627 30.5231 34.4872 31.0653L36.3351 30.3003ZM36.1489 29.3589C36.1495 29.0359 36.2141 28.7162 36.3388 28.4182L34.4939 27.646C34.2673 28.1874 34.15 28.7682 34.1489 29.355L36.1489 29.3589ZM36.1237 27.3253L31.0297 22.2279L29.615 23.6417L34.709 28.739L36.1237 27.3253ZM29.6151 22.2278L16.1443 35.704L17.5588 37.1179L31.0296 23.6418L29.6151 22.2278ZM16.1459 35.7023C15.7827 36.064 15.4945 36.4938 15.2979 36.9672L17.1448 37.7345C17.2404 37.5044 17.3806 37.2954 17.5572 37.1195L16.1459 35.7023ZM15.2979 36.9672C15.1012 37.4405 15 37.9481 15 38.4606H17C17 38.2114 17.0492 37.9646 17.1448 37.7345L15.2979 36.9672ZM15 38.4606C15 38.9732 15.1012 39.4807 15.2979 39.9541L17.1448 39.1868C17.0492 38.9566 17 38.7098 17 38.4606H15ZM15.2979 39.9541C15.4945 40.4274 15.7827 40.8573 16.1459 41.2189L17.5572 39.8017C17.3806 39.6259 17.2404 39.4169 17.1448 39.1868L15.2979 39.9541ZM16.1445 41.2175L35.7892 60.8564L37.2032 59.442L17.5585 39.8031L16.1445 41.2175ZM35.7878 60.8551C36.1494 61.218 36.5791 61.5059 37.0523 61.7024L37.8193 59.8553C37.5892 59.7598 37.3803 59.6198 37.2045 59.4434L35.7878 60.8551ZM37.0523 61.7024C37.5254 61.8989 38.0327 62 38.545 62V60C38.2959 60 38.0493 59.9508 37.8193 59.8553L37.0523 61.7024ZM38.545 62C39.0573 62 39.5646 61.8989 40.0377 61.7024L39.2707 59.8553C39.0407 59.9508 38.7941 60 38.545 60V62ZM40.0377 61.7024C40.5108 61.5059 40.9405 61.218 41.3022 60.8551L39.8855 59.4434C39.7097 59.6198 39.5007 59.7598 39.2707 59.8553L40.0377 61.7024ZM41.301 60.8562L60.8557 41.2961L59.4413 39.8821L39.8866 59.4422L41.301 60.8562ZM60.8541 41.2977C61.2173 40.936 61.5055 40.5062 61.7021 40.0328L59.8552 39.2655C59.7596 39.4956 59.6194 39.7046 59.4428 39.8805L60.8541 41.2977ZM61.7021 40.0328C61.8988 39.5595 62 39.0519 62 38.5394H60C60 38.7886 59.9508 39.0354 59.8552 39.2655L61.7021 40.0328ZM62 38.5394C62 38.0268 61.8988 37.5193 61.7021 37.0459L59.8552 37.8132C59.9508 38.0434 60 38.2902 60 38.5394H62ZM61.7021 37.0459C61.5055 36.5726 61.2173 36.1427 60.8541 35.7811L59.4428 37.1983C59.6194 37.3741 59.7596 37.5831 59.8552 37.8132L61.7021 37.0459Z" fill="#7D7D7D" mask="url(#path-3-inside-1_2_132)"/>
</svg>
