<svg width="146" height="146" viewBox="0 0 146 146" fill="none" xmlns="http://www.w3.org/2000/svg">
  <circle cx="73" cy="73" r="73" fill="white" fill-opacity="0.05" />
  <path
    d="M38.2355 23.5398V17.358H40.7106C41.1654 17.358 41.5447 17.4254 41.8486 17.5602C42.1525 17.695 42.3809 17.8822 42.5338 18.1216C42.6867 18.3591 42.7632 18.6328 42.7632 18.9427C42.7632 19.1841 42.7149 19.3964 42.6183 19.5796C42.5217 19.7607 42.3889 19.9096 42.2199 20.0263C42.0528 20.141 41.8617 20.2225 41.6464 20.2708V20.3312C41.8818 20.3412 42.1021 20.4076 42.3074 20.5304C42.5147 20.6531 42.6827 20.8252 42.8115 21.0465C42.9403 21.2659 43.0047 21.5275 43.0047 21.8313C43.0047 22.1593 42.9232 22.4521 42.7602 22.7097C42.5992 22.9653 42.3607 23.1675 42.0448 23.3164C41.7289 23.4653 41.3395 23.5398 40.8766 23.5398H38.2355ZM39.5425 22.4713H40.608C40.9722 22.4713 41.2379 22.4018 41.4049 22.263C41.5719 22.1221 41.6554 21.935 41.6554 21.7015C41.6554 21.5305 41.6142 21.3796 41.5317 21.2488C41.4492 21.118 41.3314 21.0154 41.1785 20.9409C41.0276 20.8664 40.8475 20.8292 40.6382 20.8292H39.5425V22.4713ZM39.5425 19.9448H40.5114C40.6905 19.9448 40.8495 19.9136 40.9883 19.8512C41.1292 19.7868 41.2399 19.6963 41.3204 19.5796C41.4029 19.4629 41.4441 19.323 41.4441 19.16C41.4441 18.9366 41.3646 18.7565 41.2057 18.6197C41.0487 18.4829 40.8253 18.4144 40.5356 18.4144H39.5425V19.9448ZM45.5156 23.5398H44.1151L46.2491 17.358H47.9334L50.0645 23.5398H48.6639L47.1154 18.7706H47.0671L45.5156 23.5398ZM45.4281 21.1099H48.7363V22.1302H45.4281V21.1099ZM54.6159 19.1359C54.5918 18.8924 54.4881 18.7032 54.305 18.5684C54.1219 18.4336 53.8734 18.3661 53.5595 18.3661C53.3462 18.3661 53.1661 18.3963 53.0192 18.4567C52.8723 18.5151 52.7596 18.5966 52.6811 18.7012C52.6046 18.8058 52.5664 18.9246 52.5664 19.0574C52.5624 19.1681 52.5855 19.2646 52.6358 19.3471C52.6881 19.4297 52.7596 19.5011 52.8501 19.5615C52.9407 19.6198 53.0453 19.6711 53.164 19.7154C53.2828 19.7577 53.4095 19.7939 53.5444 19.8241L54.0998 19.9569C54.3694 20.0172 54.6169 20.0977 54.8423 20.1984C55.0677 20.299 55.2629 20.4227 55.4279 20.5696C55.5929 20.7165 55.7207 20.8896 55.8112 21.0888C55.9038 21.288 55.9511 21.5164 55.9531 21.774C55.9511 22.1523 55.8545 22.4803 55.6633 22.758C55.4742 23.0337 55.2005 23.248 54.8423 23.4009C54.4861 23.5519 54.0565 23.6273 53.5534 23.6273C53.0544 23.6273 52.6197 23.5509 52.2494 23.3979C51.8812 23.245 51.5934 23.0186 51.3862 22.7188C51.1809 22.4169 51.0733 22.0436 51.0632 21.5989H52.3279C52.342 21.8062 52.4014 21.9792 52.506 22.1181C52.6127 22.2549 52.7545 22.3586 52.9316 22.429C53.1107 22.4974 53.313 22.5316 53.5383 22.5316C53.7597 22.5316 53.9519 22.4994 54.1149 22.435C54.2799 22.3706 54.4076 22.2811 54.4982 22.1664C54.5888 22.0517 54.634 21.9199 54.634 21.771C54.634 21.6321 54.5928 21.5154 54.5103 21.4208C54.4298 21.3263 54.3111 21.2458 54.1541 21.1794C53.9991 21.1129 53.809 21.0526 53.5836 20.9982L52.9105 20.8292C52.3893 20.7024 51.9778 20.5042 51.6759 20.2346C51.3741 19.9649 51.2242 19.6017 51.2262 19.1449C51.2242 18.7706 51.3238 18.4436 51.525 18.1639C51.7283 17.8842 52.007 17.6659 52.3611 17.5089C52.7153 17.3519 53.1178 17.2735 53.5685 17.2735C54.0273 17.2735 54.4278 17.3519 54.7699 17.5089C55.114 17.6659 55.3816 17.8842 55.5728 18.1639C55.7639 18.4436 55.8625 18.7676 55.8686 19.1359H54.6159ZM58.7342 17.358V23.5398H57.4272V17.358H58.7342ZM65.8589 19.5222H64.5368C64.5127 19.3512 64.4634 19.1992 64.3889 19.0664C64.3145 18.9316 64.2189 18.8169 64.1022 18.7223C63.9855 18.6277 63.8506 18.5553 63.6977 18.505C63.5468 18.4547 63.3828 18.4295 63.2057 18.4295C62.8857 18.4295 62.607 18.509 62.3696 18.668C62.1321 18.825 61.948 19.0544 61.8172 19.3562C61.6864 19.656 61.621 20.0203 61.621 20.4489C61.621 20.8896 61.6864 21.2598 61.8172 21.5597C61.95 21.8595 62.1351 22.0859 62.3726 22.2388C62.61 22.3918 62.8847 22.4682 63.1966 22.4682C63.3717 22.4682 63.5337 22.4451 63.6826 22.3988C63.8335 22.3525 63.9674 22.2851 64.0841 22.1966C64.2008 22.106 64.2974 21.9964 64.3738 21.8676C64.4523 21.7388 64.5066 21.5919 64.5368 21.4269L65.8589 21.4329C65.8247 21.7166 65.7392 21.9903 65.6024 22.2539C65.4675 22.5155 65.2854 22.75 65.056 22.9572C64.8286 23.1625 64.557 23.3255 64.241 23.4462C63.9271 23.5649 63.5719 23.6243 63.1755 23.6243C62.6241 23.6243 62.1311 23.4995 61.6965 23.25C61.2638 23.0005 60.9217 22.6393 60.6702 22.1664C60.4207 21.6935 60.2959 21.121 60.2959 20.4489C60.2959 19.7748 60.4227 19.2013 60.6762 18.7284C60.9298 18.2555 61.2739 17.8953 61.7085 17.6477C62.1432 17.3982 62.6322 17.2735 63.1755 17.2735C63.5337 17.2735 63.8657 17.3238 64.1716 17.4244C64.4795 17.525 64.7522 17.6719 64.9896 17.8651C65.2271 18.0562 65.4202 18.2907 65.5691 18.5684C65.7201 18.8461 65.8167 19.164 65.8589 19.5222ZM69.9534 23.5398V17.358H72.3924C72.8612 17.358 73.2607 17.4475 73.5907 17.6266C73.9207 17.8037 74.1722 18.0502 74.3453 18.3661C74.5204 18.6801 74.6079 19.0423 74.6079 19.4528C74.6079 19.8633 74.5194 20.2255 74.3423 20.5394C74.1652 20.8534 73.9086 21.0979 73.5726 21.2729C73.2385 21.448 72.8341 21.5355 72.3592 21.5355H70.8046V20.4881H72.1479C72.3994 20.4881 72.6067 20.4449 72.7697 20.3583C72.9347 20.2698 73.0574 20.148 73.1379 19.9931C73.2204 19.8361 73.2617 19.656 73.2617 19.4528C73.2617 19.2475 73.2204 19.0684 73.1379 18.9155C73.0574 18.7606 72.9347 18.6408 72.7697 18.5563C72.6047 18.4698 72.3954 18.4265 72.1418 18.4265H71.2604V23.5398H69.9534ZM81.7326 20.4489C81.7326 21.123 81.6048 21.6965 81.3493 22.1694C81.0957 22.6423 80.7496 23.0035 80.3109 23.253C79.8742 23.5006 79.3832 23.6243 78.8379 23.6243C78.2885 23.6243 77.7955 23.4995 77.3589 23.25C76.9222 23.0005 76.5771 22.6393 76.3235 22.1664C76.07 21.6935 75.9432 21.121 75.9432 20.4489C75.9432 19.7748 76.07 19.2013 76.3235 18.7284C76.5771 18.2555 76.9222 17.8953 77.3589 17.6477C77.7955 17.3982 78.2885 17.2735 78.8379 17.2735C79.3832 17.2735 79.8742 17.3982 80.3109 17.6477C80.7496 17.8953 81.0957 18.2555 81.3493 18.7284C81.6048 19.2013 81.7326 19.7748 81.7326 20.4489ZM80.4075 20.4489C80.4075 20.0122 80.3421 19.644 80.2113 19.3441C80.0825 19.0443 79.9004 18.8169 79.665 18.662C79.4295 18.507 79.1538 18.4295 78.8379 18.4295C78.522 18.4295 78.2463 18.507 78.0108 18.662C77.7754 18.8169 77.5923 19.0443 77.4615 19.3441C77.3327 19.644 77.2683 20.0122 77.2683 20.4489C77.2683 20.8856 77.3327 21.2538 77.4615 21.5536C77.5923 21.8535 77.7754 22.0809 78.0108 22.2358C78.2463 22.3908 78.522 22.4682 78.8379 22.4682C79.1538 22.4682 79.4295 22.3908 79.665 22.2358C79.9004 22.0809 80.0825 21.8535 80.2113 21.5536C80.3421 21.2538 80.4075 20.8856 80.4075 20.4489ZM85.4872 23.5398H83.2958V17.358H85.5053C86.1271 17.358 86.6624 17.4817 87.1111 17.7292C87.5599 17.9747 87.905 18.3279 88.1465 18.7887C88.39 19.2495 88.5117 19.8009 88.5117 20.4428C88.5117 21.0868 88.39 21.6402 88.1465 22.103C87.905 22.5658 87.5579 22.921 87.1051 23.1685C86.6543 23.416 86.115 23.5398 85.4872 23.5398ZM84.6028 22.4199H85.4329C85.8192 22.4199 86.1442 22.3515 86.4078 22.2147C86.6734 22.0758 86.8727 21.8615 87.0055 21.5718C87.1403 21.28 87.2077 20.9037 87.2077 20.4428C87.2077 19.9861 87.1403 19.6128 87.0055 19.323C86.8727 19.0332 86.6745 18.8199 86.4108 18.6831C86.1472 18.5462 85.8222 18.4778 85.4359 18.4778H84.6028V22.4199Z"
    fill="#13A8A8"
  />
  <path
    d="M94.8619 29.3489H18.0663C12.5434 29.3489 8.06628 33.826 8.06628 39.3489V120.695C8.06628 126.218 12.5434 130.695 18.0663 130.695H94.8619C100.385 130.695 104.862 126.218 104.862 120.695V39.3489C104.862 33.826 100.385 29.3489 94.8619 29.3489Z"
    fill="#E4E4E4"
  />
  <path
    d="M72.4174 39.801H36.6771C35.875 39.801 35.2247 40.4513 35.2247 41.2534C35.2247 42.0554 35.875 42.7057 36.6771 42.7057H72.4174C73.2195 42.7057 73.8698 42.0554 73.8698 41.2534C73.8698 40.4513 73.2195 39.801 72.4174 39.801Z"
    fill="#CECECE"
  />
  <path
    d="M93.4488 48.3281H36.6771C35.875 48.3281 35.2247 48.9784 35.2247 49.7804C35.2247 50.5825 35.875 51.2328 36.677 51.2328H93.4488C94.2509 51.2328 94.9011 50.5825 94.9011 49.7804C94.9011 48.9784 94.2509 48.3281 93.4488 48.3281Z"
    fill="#13A8A8"
  />
  <path
    d="M83.0278 56.449H37.2975C36.4954 56.449 35.8452 57.0992 35.8452 57.9013C35.8452 58.7034 36.4954 59.3536 37.2975 59.3536H83.0278C83.8299 59.3536 84.4801 58.7034 84.4801 57.9013C84.4801 57.0992 83.8299 56.449 83.0278 56.449Z"
    fill="#CECECE"
  />
  <path
    d="M62.1647 65.3596H36.6771C35.875 65.3596 35.2247 66.0098 35.2247 66.8119C35.2247 67.614 35.875 68.2643 36.6771 68.2643H62.1647C62.9668 68.2643 63.617 67.614 63.617 66.8119C63.617 66.0098 62.9668 65.3596 62.1647 65.3596Z"
    fill="#CECECE"
  />
  <path
    d="M76.6237 74.0632H36.6771C35.875 74.0632 35.2247 74.7135 35.2247 75.5156C35.2247 76.3177 35.875 76.9679 36.6771 76.9679H76.6237C77.4258 76.9679 78.076 76.3177 78.076 75.5156C78.076 74.7135 77.4258 74.0632 76.6237 74.0632Z"
    fill="#8FD460"
  />
  <path
    d="M17.611 41.2532C17.611 42.5599 18.6703 43.6193 19.977 43.6193C21.2837 43.6193 22.343 42.5599 22.343 41.2532C22.343 39.9465 21.2837 38.8872 19.977 38.8872C18.6703 38.8872 17.611 39.9465 17.611 41.2532Z"
    fill="#CECECE"
  />
  <path
    d="M26.4586 14.5193H16.2928C13.5314 14.5193 11.2928 16.7579 11.2928 19.5193V29.685C11.2928 32.4465 13.5314 34.685 16.2928 34.685H26.4586C29.22 34.685 31.4586 32.4465 31.4586 29.685V19.5193C31.4586 16.7579 29.22 14.5193 26.4586 14.5193Z"
    fill="#13A8A8"
  />
  <path
    d="M17.611 49.7803C17.611 51.087 18.6703 52.1463 19.977 52.1463C21.2837 52.1463 22.343 51.087 22.343 49.7803C22.343 48.4736 21.2837 47.4143 19.977 47.4143C18.6703 47.4143 17.611 48.4736 17.611 49.7803Z"
    fill="#13A8A8"
  />
  <path
    d="M17.611 57.9014C17.611 59.2081 18.6703 60.2675 19.977 60.2675C21.2837 60.2675 22.343 59.2081 22.343 57.9014C22.343 56.5947 21.2837 55.5354 19.977 55.5354C18.6703 55.5354 17.611 56.5947 17.611 57.9014Z"
    fill="#CECECE"
  />
  <path
    d="M17.611 66.8118C17.611 68.1185 18.6703 69.1779 19.977 69.1779C21.2837 69.1779 22.343 68.1185 22.343 66.8118C22.343 65.5051 21.2837 64.4458 19.977 64.4458C18.6703 64.4458 17.611 65.5051 17.611 66.8118Z"
    fill="#CECECE"
  />
  <path
    d="M17.611 75.5154C17.611 76.8222 18.6703 77.8815 19.977 77.8815C21.2837 77.8815 22.343 76.8222 22.343 75.5154C22.343 74.2087 21.2837 73.1494 19.977 73.1494C18.6703 73.1494 17.611 74.2087 17.611 75.5154Z"
    fill="#8FD460"
  />
  <path
    d="M72.4174 82.8213H36.6771C35.875 82.8213 35.2247 83.4715 35.2247 84.2736C35.2247 85.0757 35.875 85.7259 36.6771 85.7259H72.4174C73.2195 85.7259 73.8698 85.0757 73.8698 84.2736C73.8698 83.4715 73.2195 82.8213 72.4174 82.8213Z"
    fill="#CECECE"
  />
  <path
    d="M93.4488 91.3484H36.6771C35.875 91.3484 35.2247 91.9986 35.2247 92.8007C35.2247 93.6028 35.875 94.253 36.6771 94.253H93.4488C94.2509 94.253 94.9011 93.6028 94.9011 92.8007C94.9011 91.9986 94.2509 91.3484 93.4488 91.3484Z"
    fill="#C9E75D"
  />
  <path
    d="M83.0278 99.4692H37.2975C36.4954 99.4692 35.8452 100.119 35.8452 100.922C35.8452 101.724 36.4954 102.374 37.2975 102.374H83.0278C83.8299 102.374 84.4801 101.724 84.4801 100.922C84.4801 100.119 83.8299 99.4692 83.0278 99.4692Z"
    fill="#CECECE"
  />
  <path
    d="M62.1647 108.38H36.6771C35.875 108.38 35.2247 109.03 35.2247 109.832C35.2247 110.634 35.875 111.285 36.6771 111.285H62.1647C62.9668 111.285 63.617 110.634 63.617 109.832C63.617 109.03 62.9668 108.38 62.1647 108.38Z"
    fill="#CECECE"
  />
  <path
    d="M76.6237 117.083H36.6771C35.875 117.083 35.2247 117.734 35.2247 118.536C35.2247 119.338 35.875 119.988 36.6771 119.988H76.6237C77.4258 119.988 78.076 119.338 78.076 118.536C78.076 117.734 77.4258 117.083 76.6237 117.083Z"
    fill="#CECECE"
  />
  <path
    d="M17.611 84.2735C17.611 85.5802 18.6703 86.6395 19.977 86.6395C21.2837 86.6395 22.343 85.5802 22.343 84.2735C22.343 82.9668 21.2837 81.9075 19.977 81.9075C18.6703 81.9075 17.611 82.9668 17.611 84.2735Z"
    fill="#CECECE"
  />
  <path
    d="M17.611 92.8006C17.611 94.1073 18.6703 95.1666 19.977 95.1666C21.2837 95.1666 22.343 94.1073 22.343 92.8006C22.343 91.4939 21.2837 90.4346 19.977 90.4346C18.6703 90.4346 17.611 91.4939 17.611 92.8006Z"
    fill="#C9E75D"
  />
  <path
    d="M17.611 100.922C17.611 102.228 18.6703 103.288 19.977 103.288C21.2837 103.288 22.343 102.228 22.343 100.922C22.343 99.615 21.2837 98.5557 19.977 98.5557C18.6703 98.5557 17.611 99.615 17.611 100.922Z"
    fill="#CECECE"
  />
  <path
    d="M17.611 109.832C17.611 111.139 18.6703 112.198 19.977 112.198C21.2837 112.198 22.343 111.139 22.343 109.832C22.343 108.525 21.2837 107.466 19.977 107.466C18.6703 107.466 17.611 108.525 17.611 109.832Z"
    fill="#CECECE"
  />
  <path
    d="M17.611 118.536C17.611 119.842 18.6703 120.902 19.977 120.902C21.2837 120.902 22.343 119.842 22.343 118.536C22.343 117.229 21.2837 116.17 19.977 116.17C18.6703 116.17 17.611 117.229 17.611 118.536Z"
    fill="#CECECE"
  />
  <path
    d="M26.2848 19.8128H25.4466V18.7352C25.4466 18.5361 25.2865 18.376 25.0874 18.376H16.2271C16.0281 18.376 15.8679 18.5361 15.8679 18.7352V22.8061C15.8679 23.0052 16.0281 23.1653 16.2271 23.1653H25.0874C25.2865 23.1653 25.4466 23.0052 25.4466 22.8061V20.7707H25.9256V23.764H20.6723C20.3415 23.764 20.0736 24.0319 20.0736 24.3627V26.3982H19.415C19.3492 26.3982 19.2953 26.452 19.2953 26.5179V29.9303C19.2953 29.9468 19.2983 29.9632 19.3043 29.9767C19.2983 30.0007 19.2953 30.0246 19.2953 30.0501C19.2953 30.7445 19.8581 31.3073 20.5525 31.3073C21.247 31.3073 21.8097 30.7445 21.8097 30.0501C21.8097 30.0246 21.8067 30.0007 21.8007 29.9767C21.8067 29.9617 21.8097 29.9468 21.8097 29.9303V26.5179C21.8097 26.452 21.7558 26.3982 21.69 26.3982H21.0315V24.7219H26.2848C26.6156 24.7219 26.8835 24.454 26.8835 24.1232V20.4115C26.8835 20.0807 26.6156 19.8128 26.2848 19.8128Z"
    fill="white"
  />
</svg>
