<svg width="100" height="75" viewBox="0 0 100 75" fill="none" xmlns="http://www.w3.org/2000/svg">
<ellipse cx="50.3953" cy="37.5" rx="37.3953" ry="37.5" fill="black"/>
<path d="M56.717 15.0765H27.1321C21.6092 15.0765 17.1321 19.5537 17.1321 25.0765V57.1377C17.1321 62.6606 21.6092 67.1377 27.1321 67.1377H56.717C62.2398 67.1377 66.717 62.6606 66.717 57.1377V25.0765C66.717 19.5537 62.2398 15.0765 56.717 15.0765Z" fill="#E4E4E4"/>
<path d="M50.0948 20.4458H31.7904C31.3784 20.4458 31.0444 20.7798 31.0444 21.1919C31.0444 21.6039 31.3784 21.9379 31.7904 21.9379H50.0948C50.5068 21.9379 50.8408 21.6039 50.8408 21.1919C50.8408 20.7798 50.5068 20.4458 50.0948 20.4458Z" fill="#CECECE"/>
<path d="M60.8684 24.8261H31.7904C31.3784 24.8261 31.0444 25.1602 31.0444 25.5722C31.0444 25.9842 31.3784 26.3183 31.7904 26.3183H60.8684C61.2804 26.3183 61.6144 25.9842 61.6144 25.5722C61.6144 25.1602 61.2804 24.8261 60.8684 24.8261Z" fill="#13A8A8"/>
<path d="M55.5301 28.9978H32.1083C31.6963 28.9978 31.3622 29.3318 31.3622 29.7439C31.3622 30.1559 31.6963 30.4899 32.1083 30.4899H55.5301C55.9422 30.4899 56.2762 30.1559 56.2762 29.7439C56.2762 29.3318 55.9422 28.9978 55.5301 28.9978Z" fill="#CECECE"/>
<path d="M44.8427 33.5751H31.7904C31.3784 33.5751 31.0444 33.9092 31.0444 34.3212C31.0444 34.7332 31.3784 35.0672 31.7904 35.0672H44.8427C45.2547 35.0672 45.5887 34.7332 45.5887 34.3212C45.5887 33.9092 45.2547 33.5751 44.8427 33.5751Z" fill="#CECECE"/>
<path d="M52.2495 38.0462H31.7904C31.3784 38.0462 31.0444 38.3802 31.0444 38.7923C31.0444 39.2043 31.3784 39.5383 31.7904 39.5383H52.2495C52.6615 39.5383 52.9956 39.2043 52.9956 38.7923C52.9956 38.3802 52.6615 38.0462 52.2495 38.0462Z" fill="#8FD460"/>
<path d="M22.0215 21.1918C22.0215 21.8612 22.5641 22.4073 23.2335 22.4073C23.9029 22.4073 24.4455 21.8612 24.4455 21.1918C24.4455 20.5224 23.9029 19.9764 23.2335 19.9764C22.5641 19.9764 22.0215 20.5224 22.0215 21.1918Z" fill="#CECECE"/>
<path d="M24.1151 7.45862H23.7849C21.0235 7.45862 18.7849 9.69719 18.7849 12.4586V12.8177C18.7849 15.5792 21.0235 17.8177 23.7849 17.8177H24.1151C26.8765 17.8177 29.1151 15.5792 29.1151 12.8177V12.4586C29.1151 9.69719 26.8765 7.45862 24.1151 7.45862Z" fill="#13A8A8"/>
<path d="M22.0215 25.5722C22.0215 26.2416 22.5641 26.7876 23.2335 26.7876C23.9029 26.7876 24.4455 26.2416 24.4455 25.5722C24.4455 24.9028 23.9029 24.3568 23.2335 24.3568C22.5641 24.3568 22.0215 24.9028 22.0215 25.5722Z" fill="#13A8A8"/>
<path d="M22.0215 29.744C22.0215 30.4133 22.5641 30.9594 23.2335 30.9594C23.9029 30.9594 24.4455 30.4133 24.4455 29.744C24.4455 29.0746 23.9029 28.5285 23.2335 28.5285C22.5641 28.5285 22.0215 29.0746 22.0215 29.744Z" fill="#CECECE"/>
<path d="M22.0215 34.3212C22.0215 34.9906 22.5641 35.5366 23.2335 35.5366C23.9029 35.5366 24.4455 34.9906 24.4455 34.3212C24.4455 33.6518 23.9029 33.1058 23.2335 33.1058C22.5641 33.1058 22.0215 33.6518 22.0215 34.3212Z" fill="#CECECE"/>
<path d="M22.0215 38.7922C22.0215 39.4616 22.5641 40.0076 23.2335 40.0076C23.9029 40.0076 24.4455 39.4616 24.4455 38.7922C24.4455 38.1228 23.9029 37.5768 23.2335 37.5768C22.5641 37.5768 22.0215 38.1228 22.0215 38.7922Z" fill="#8FD460"/>
<path d="M50.0948 42.5453H31.7904C31.3784 42.5453 31.0444 42.8793 31.0444 43.2913C31.0444 43.7034 31.3784 44.0374 31.7904 44.0374H50.0948C50.5068 44.0374 50.8408 43.7034 50.8408 43.2913C50.8408 42.8793 50.5068 42.5453 50.0948 42.5453Z" fill="#CECECE"/>
<path d="M60.8684 46.9256H31.7904C31.3784 46.9256 31.0444 47.2596 31.0444 47.6717C31.0444 48.0837 31.3784 48.4177 31.7904 48.4177H60.8684C61.2804 48.4177 61.6144 48.0837 61.6144 47.6717C61.6144 47.2596 61.2804 46.9256 60.8684 46.9256Z" fill="#C9E75D"/>
<path d="M55.5301 51.0973H32.1083C31.6963 51.0973 31.3622 51.4313 31.3622 51.8433C31.3622 52.2554 31.6963 52.5894 32.1083 52.5894H55.5301C55.9422 52.5894 56.2762 52.2554 56.2762 51.8433C56.2762 51.4313 55.9422 51.0973 55.5301 51.0973Z" fill="#CECECE"/>
<path d="M44.8427 55.6746H31.7904C31.3784 55.6746 31.0444 56.0086 31.0444 56.4206C31.0444 56.8327 31.3784 57.1667 31.7904 57.1667H44.8427C45.2547 57.1667 45.5887 56.8327 45.5887 56.4206C45.5887 56.0086 45.2547 55.6746 44.8427 55.6746Z" fill="#CECECE"/>
<path d="M52.2495 60.1456H31.7904C31.3784 60.1456 31.0444 60.4797 31.0444 60.8917C31.0444 61.3037 31.3784 61.6377 31.7904 61.6377H52.2495C52.6615 61.6377 52.9956 61.3037 52.9956 60.8917C52.9956 60.4797 52.6615 60.1456 52.2495 60.1456Z" fill="#CECECE"/>
<path d="M22.0215 43.2913C22.0215 43.9607 22.5641 44.5067 23.2335 44.5067C23.9029 44.5067 24.4455 43.9607 24.4455 43.2913C24.4455 42.6219 23.9029 42.0759 23.2335 42.0759C22.5641 42.0759 22.0215 42.6219 22.0215 43.2913Z" fill="#CECECE"/>
<path d="M22.0215 47.6716C22.0215 48.341 22.5641 48.887 23.2335 48.887C23.9029 48.887 24.4455 48.341 24.4455 47.6716C24.4455 47.0022 23.9029 46.4562 23.2335 46.4562C22.5641 46.4562 22.0215 47.0022 22.0215 47.6716Z" fill="#C9E75D"/>
<path d="M22.0215 51.8433C22.0215 52.5127 22.5641 53.0587 23.2335 53.0587C23.9029 53.0587 24.4455 52.5127 24.4455 51.8433C24.4455 51.1739 23.9029 50.6279 23.2335 50.6279C22.5641 50.6279 22.0215 51.1739 22.0215 51.8433Z" fill="#CECECE"/>
<path d="M22.0215 56.4207C22.0215 57.0901 22.5641 57.6361 23.2335 57.6361C23.9029 57.6361 24.4455 57.0901 24.4455 56.4207C24.4455 55.7513 23.9029 55.2053 23.2335 55.2053C22.5641 55.2053 22.0215 55.7513 22.0215 56.4207Z" fill="#CECECE"/>
<path d="M22.0215 60.8917C22.0215 61.5611 22.5641 62.1071 23.2335 62.1071C23.9029 62.1071 24.4455 61.5611 24.4455 60.8917C24.4455 60.2223 23.9029 59.6763 23.2335 59.6763C22.5641 59.6763 22.0215 60.2223 22.0215 60.8917Z" fill="#CECECE"/>
<g clip-path="url(#clip0_256_3225)">
<path d="M26.4648 10.1779H26.0354V9.62431C26.0354 9.52205 25.9534 9.43979 25.8514 9.43979H21.3126C21.2106 9.43979 21.1286 9.52205 21.1286 9.62431V11.7156C21.1286 11.8178 21.2106 11.9001 21.3126 11.9001H25.8514C25.9534 11.9001 26.0354 11.8178 26.0354 11.7156V10.6699H26.2808V12.2076H23.5897C23.4202 12.2076 23.283 12.3452 23.283 12.5152V13.5608H22.9457C22.9119 13.5608 22.8843 13.5885 22.8843 13.6223V15.3752C22.8843 15.3837 22.8859 15.3922 22.8889 15.3991C22.8859 15.4114 22.8843 15.4237 22.8843 15.4367C22.8843 15.7935 23.1726 16.0826 23.5284 16.0826C23.8841 16.0826 24.1724 15.7935 24.1724 15.4367C24.1724 15.4237 24.1708 15.4114 24.1678 15.3991C24.1708 15.3914 24.1724 15.3837 24.1724 15.3752V13.6223C24.1724 13.5885 24.1448 13.5608 24.111 13.5608H23.7737V12.6997H26.4648C26.6342 12.6997 26.7715 12.5621 26.7715 12.3921V10.4854C26.7715 10.3155 26.6342 10.1779 26.4648 10.1779Z" fill="white"/>
</g>
<defs>
<clipPath id="clip0_256_3225">
<rect width="7.85094" height="7.87293" fill="white" transform="translate(20.0245 8.70169)"/>
</clipPath>
</defs>
</svg>
