<svg width="201" height="146" viewBox="0 0 201 146" fill="none" xmlns="http://www.w3.org/2000/svg">
<circle cx="98.5857" cy="73" r="73" fill="white" fill-opacity="0.05"/>
<path d="M134.711 41.3037H109.498V41.784H134.711V41.3037Z" fill="#CCCCCC"/>
<path d="M89.807 41.3037H9.84497V41.784H89.807V41.3037Z" fill="#CCCCCC"/>
<path d="M9.84507 51.3886C15.2824 51.3886 19.6901 46.9808 19.6901 41.5436C19.6901 36.1063 15.2824 31.6985 9.84507 31.6985C4.40779 31.6985 0 36.1063 0 41.5436C0 46.9808 4.40779 51.3886 9.84507 51.3886Z" fill="#51258F"/>
<path d="M54.7486 51.3886C60.1859 51.3886 64.5937 46.9808 64.5937 41.5436C64.5937 36.1063 60.1859 31.6985 54.7486 31.6985C49.3114 31.6985 44.9036 36.1063 44.9036 41.5436C44.9036 46.9808 49.3114 51.3886 54.7486 51.3886Z" fill="#CDA8F0"/>
<path d="M99.651 51.6292C97.6563 51.6292 95.7064 51.0377 94.0479 49.9295C92.3894 48.8213 91.0967 47.2462 90.3334 45.4034C89.57 43.5605 89.3703 41.5327 89.7595 39.5763C90.1486 37.6199 91.1091 35.8229 92.5196 34.4124C93.9301 33.002 95.7271 32.0414 97.6835 31.6523C99.6399 31.2631 101.668 31.4629 103.511 32.2262C105.353 32.9895 106.929 34.2822 108.037 35.9407C109.145 37.5993 109.736 39.5492 109.736 41.5439C109.736 44.2187 108.674 46.7839 106.782 48.6753C104.891 50.5667 102.326 51.6292 99.651 51.6292ZM99.651 31.9388C97.7513 31.9388 95.8943 32.5021 94.3148 33.5576C92.7352 34.613 91.5041 36.1131 90.7771 37.8682C90.0502 39.6233 89.8599 41.5545 90.2305 43.4177C90.6012 45.2809 91.516 46.9924 92.8592 48.3357C94.2025 49.6789 95.914 50.5937 97.7772 50.9644C99.6404 51.335 101.572 51.1448 103.327 50.4178C105.082 49.6908 106.582 48.4597 107.637 46.8801C108.693 45.3006 109.256 43.4436 109.256 41.5439C109.256 38.9964 108.244 36.5534 106.443 34.7521C104.642 32.9508 102.198 31.9388 99.651 31.9388Z" fill="#CCCCCC"/>
<path d="M144.555 51.6292C142.56 51.6292 140.61 51.0377 138.951 49.9295C137.293 48.8213 136 47.2462 135.237 45.4034C134.474 43.5605 134.274 41.5327 134.663 39.5763C135.052 37.6199 136.013 35.8229 137.423 34.4124C138.834 33.002 140.631 32.0414 142.587 31.6523C144.543 31.2631 146.571 31.4629 148.414 32.2262C150.257 32.9895 151.832 34.2822 152.94 35.9407C154.048 37.5993 154.64 39.5492 154.64 41.5439C154.64 44.2187 153.577 46.7839 151.686 48.6753C149.795 50.5667 147.229 51.6292 144.555 51.6292ZM144.555 31.9388C142.655 31.9388 140.798 32.5021 139.218 33.5576C137.639 34.613 136.408 36.1131 135.681 37.8682C134.954 39.6233 134.764 41.5545 135.134 43.4177C135.505 45.2809 136.42 46.9924 137.763 48.3357C139.106 49.6789 140.818 50.5937 142.681 50.9644C144.544 51.335 146.475 51.1448 148.23 50.4178C149.985 49.6908 151.485 48.4597 152.541 46.8801C153.596 45.3006 154.16 43.4436 154.16 41.5439C154.16 40.2825 153.911 39.0335 153.428 37.8682C152.946 36.7028 152.238 35.644 151.346 34.7521C150.454 33.8602 149.396 33.1527 148.23 32.67C147.065 32.1873 145.816 31.9388 144.555 31.9388Z" fill="#CCCCCC"/>
<path d="M9.08722 44.479C8.91427 44.4791 8.74597 44.423 8.60769 44.3192L8.59917 44.3128L6.79218 42.9307C6.62318 42.8011 6.51257 42.6097 6.4847 42.3986C6.45682 42.1874 6.51395 41.9739 6.64353 41.8049C6.77311 41.6359 6.96452 41.5253 7.17565 41.4974C7.38678 41.4695 7.60034 41.5267 7.76934 41.6562L8.93963 42.5537L11.7051 38.9456C11.8346 38.7767 12.026 38.6661 12.237 38.6383C12.448 38.6104 12.6615 38.6675 12.8304 38.797L12.8134 38.8207L12.8309 38.797C12.9997 38.9267 13.1101 39.118 13.1379 39.329C13.1658 39.5401 13.1087 39.7535 12.9793 39.9225L9.72631 44.1644C9.65096 44.2622 9.55408 44.3413 9.4432 44.3956C9.33231 44.4499 9.21041 44.4779 9.08695 44.4774L9.08722 44.479Z" fill="white"/>
<path d="M46.5581 74.3701C46.5581 71.6087 48.7967 69.3701 51.5581 69.3701H191.591C194.353 69.3701 196.591 71.6087 196.591 74.3701V104.702C196.591 107.463 194.353 109.702 191.591 109.702H51.5581C48.7967 109.702 46.5581 107.463 46.5581 104.702V74.3701Z" fill="#E4E4E4"/>
<path d="M197.711 106.743H52.474C51.7609 106.742 51.0773 106.459 50.5731 105.954C50.0689 105.45 49.7853 104.767 49.7844 104.054V68.0264C49.7853 67.3134 50.0689 66.6298 50.5731 66.1256C51.0773 65.6214 51.7609 65.3378 52.474 65.3369H197.711C198.424 65.3378 199.108 65.6214 199.612 66.1256C200.116 66.6298 200.4 67.3134 200.401 68.0264V104.054C200.4 104.767 200.116 105.45 199.612 105.954C199.108 106.459 198.424 106.742 197.711 106.743ZM52.474 66.413C52.0461 66.4135 51.6359 66.5837 51.3333 66.8862C51.0307 67.1888 50.8605 67.599 50.8601 68.0269V104.054C50.8604 104.482 51.0306 104.892 51.3332 105.195C51.6358 105.497 52.046 105.668 52.474 105.668H197.711C198.139 105.668 198.549 105.497 198.852 105.195C199.154 104.892 199.325 104.482 199.325 104.054V68.0264C199.325 67.5985 199.154 67.1882 198.852 66.8856C198.549 66.5831 198.139 66.4129 197.711 66.4125L52.474 66.413Z" fill="#BCBCBC"/>
<path d="M75.1439 97.1436C81.1947 97.1436 86.0999 92.2384 86.0999 86.1876C86.0999 80.1368 81.1947 75.2317 75.1439 75.2317C69.0931 75.2317 64.188 80.1368 64.188 86.1876C64.188 92.2384 69.0931 97.1436 75.1439 97.1436Z" fill="#854ECA"/>
<path d="M73.4219 92.2765C73.0538 92.2771 72.6955 92.1579 72.401 91.937L72.3826 91.9232L68.5374 88.9815C68.1774 88.7058 67.9418 88.2983 67.8822 87.8488C67.8227 87.3993 67.9442 86.9446 68.2199 86.5846C68.4957 86.2247 68.9031 85.989 69.3527 85.9295C69.8022 85.8699 70.2569 85.9914 70.6169 86.2672L73.1076 88.1769L78.9932 80.4984C79.2689 80.139 79.676 79.9037 80.125 79.8443C80.5741 79.785 81.0283 79.9064 81.3879 80.1819L81.3515 80.2325L81.3892 80.1819C81.7484 80.4579 81.9833 80.8651 82.0426 81.3141C82.1018 81.7631 81.9805 82.2173 81.7053 82.577L74.7827 91.6099C74.6226 91.8178 74.4167 91.9861 74.181 92.1016C73.9453 92.2171 73.6862 92.2768 73.4237 92.2761L73.4219 92.2765Z" fill="white"/>
<path d="M97.922 90.9146V84.0055H100.904C101.417 84.0055 101.866 84.1067 102.25 84.3091C102.635 84.5115 102.934 84.796 103.148 85.1626C103.361 85.5292 103.468 85.9576 103.468 86.4479C103.468 86.9427 103.358 87.3712 103.138 87.7333C102.919 88.0954 102.612 88.3742 102.217 88.5699C101.823 88.7656 101.363 88.8634 100.837 88.8634H99.0556V87.406H100.459C100.679 87.406 100.867 87.3678 101.022 87.2913C101.18 87.2126 101.3 87.1013 101.383 86.9573C101.469 86.8134 101.512 86.6436 101.512 86.4479C101.512 86.25 101.469 86.0813 101.383 85.9419C101.3 85.8002 101.18 85.6922 101.022 85.618C100.867 85.5416 100.679 85.5033 100.459 85.5033H99.7978V90.9146H97.922ZM104.821 90.9146V84.0055H107.804C108.316 84.0055 108.765 84.0988 109.15 84.2855C109.534 84.4721 109.833 84.7409 110.047 85.0918C110.261 85.4426 110.368 85.8632 110.368 86.3535C110.368 86.8483 110.257 87.2655 110.037 87.6051C109.819 87.9447 109.512 88.2011 109.116 88.3742C108.722 88.5474 108.262 88.634 107.736 88.634H105.955V87.1766H107.358C107.579 87.1766 107.767 87.1496 107.922 87.0957C108.079 87.0394 108.2 86.9506 108.283 86.8291C108.368 86.7077 108.411 86.5491 108.411 86.3535C108.411 86.1556 108.368 85.9947 108.283 85.871C108.2 85.7451 108.079 85.6529 107.922 85.5944C107.767 85.5337 107.579 85.5033 107.358 85.5033H106.697V90.9146H104.821ZM108.87 87.7434L110.597 90.9146H108.559L106.873 87.7434H108.87ZM118.525 87.46C118.525 88.2292 118.376 88.878 118.077 89.4066C117.777 89.9328 117.374 90.332 116.866 90.6042C116.357 90.8741 115.79 91.009 115.165 91.009C114.535 91.009 113.966 90.8729 113.458 90.6008C112.952 90.3264 112.55 89.9261 112.25 89.3998C111.954 88.8713 111.805 88.2247 111.805 87.46C111.805 86.6908 111.954 86.0431 112.25 85.5168C112.55 84.9883 112.952 84.5891 113.458 84.3192C113.966 84.0471 114.535 83.911 115.165 83.911C115.79 83.911 116.357 84.0471 116.866 84.3192C117.374 84.5891 117.777 84.9883 118.077 85.5168C118.376 86.0431 118.525 86.6908 118.525 87.46ZM116.596 87.46C116.596 87.0462 116.541 86.6976 116.43 86.4142C116.322 86.1286 116.162 85.9127 115.948 85.7665C115.736 85.618 115.476 85.5438 115.165 85.5438C114.855 85.5438 114.593 85.618 114.379 85.7665C114.168 85.9127 114.007 86.1286 113.897 86.4142C113.789 86.6976 113.735 87.0462 113.735 87.46C113.735 87.8738 113.789 88.2236 113.897 88.5092C114.007 88.7926 114.168 89.0085 114.379 89.1569C114.593 89.3031 114.855 89.3762 115.165 89.3762C115.476 89.3762 115.736 89.3031 115.948 89.1569C116.162 89.0085 116.322 88.7926 116.43 88.5092C116.541 88.2236 116.596 87.8738 116.596 87.46ZM122.905 84.0055H124.754V88.742C124.752 89.1918 124.638 89.5876 124.413 89.9295C124.191 90.2691 123.883 90.5345 123.489 90.7256C123.098 90.9146 122.647 91.009 122.136 91.009C121.693 91.009 121.288 90.9325 120.922 90.7796C120.555 90.6244 120.263 90.3815 120.045 90.0509C119.827 89.7181 119.719 89.2862 119.721 88.7555H121.597C121.603 88.9286 121.632 89.0748 121.684 89.194C121.738 89.3132 121.812 89.4032 121.907 89.4639C122.004 89.5224 122.121 89.5516 122.258 89.5516C122.397 89.5516 122.514 89.5213 122.609 89.4605C122.705 89.3998 122.778 89.3099 122.828 89.1907C122.877 89.0692 122.903 88.9196 122.905 88.742V84.0055ZM126.308 90.9146V84.0055H131.288V85.5168H128.184V86.7043H131.031V88.2157H128.184V89.4032H131.274V90.9146H126.308ZM139.333 86.5964H137.43C137.417 86.4389 137.381 86.2961 137.322 86.1679C137.266 86.0397 137.187 85.9295 137.086 85.8373C136.987 85.7429 136.867 85.6709 136.725 85.6214C136.584 85.5697 136.423 85.5438 136.243 85.5438C135.928 85.5438 135.661 85.6203 135.443 85.7732C135.227 85.9262 135.063 86.1454 134.951 86.4311C134.841 86.7167 134.785 87.0597 134.785 87.46C134.785 87.8828 134.842 88.2371 134.954 88.5227C135.069 88.8061 135.234 89.0197 135.45 89.1637C135.666 89.3054 135.926 89.3762 136.229 89.3762C136.403 89.3762 136.558 89.3548 136.695 89.3121C136.832 89.2671 136.951 89.203 137.053 89.1198C137.154 89.0366 137.236 88.9365 137.299 88.8196C137.364 88.7004 137.408 88.5665 137.43 88.4181L139.333 88.4316C139.311 88.724 139.228 89.022 139.087 89.3256C138.945 89.627 138.744 89.9059 138.483 90.1622C138.224 90.4164 137.904 90.621 137.521 90.7762C137.139 90.9314 136.695 91.009 136.189 91.009C135.555 91.009 134.986 90.8729 134.482 90.6008C133.98 90.3287 133.583 89.9283 133.291 89.3998C133.001 88.8713 132.856 88.2247 132.856 87.46C132.856 86.6908 133.004 86.0431 133.301 85.5168C133.598 84.9883 133.998 84.5891 134.502 84.3192C135.006 84.0471 135.568 83.911 136.189 83.911C136.625 83.911 137.027 83.9706 137.393 84.0898C137.76 84.209 138.081 84.3833 138.358 84.6127C138.635 84.8399 138.857 85.1199 139.026 85.4527C139.195 85.7856 139.297 86.1668 139.333 86.5964ZM140.66 85.5168V84.0055H146.665V85.5168H144.587V90.9146H142.738V85.5168H140.66ZM151.735 90.9146V92.237H147.053V90.9146H151.735ZM158.826 84.0055V90.9146H157.261L154.764 87.2846H154.724V90.9146H152.848V84.0055H154.44L156.896 87.6219H156.95V84.0055H158.826ZM162.173 90.9146H160.149L162.429 84.0055H164.993L167.274 90.9146H165.25L163.738 85.9082H163.684L162.173 90.9146ZM161.795 88.1887H165.601V89.5921H161.795V88.1887ZM168.604 84.0055H170.939L172.545 87.9188H172.626L174.231 84.0055H176.566V90.9146H174.731V86.9202H174.677L173.138 90.8606H172.032L170.493 86.8932H170.44V90.9146H168.604V84.0055ZM178.12 90.9146V84.0055H183.099V85.5168H179.996V86.7043H182.843V88.2157H179.996V89.4032H183.086V90.9146H178.12Z" fill="#AB7AE0"/>
</svg>
