<svg width="100" height="75" viewBox="0 0 100 75" fill="none" xmlns="http://www.w3.org/2000/svg">
<ellipse cx="49.1943" cy="37.5" rx="36.427" ry="37.5" fill="black"/>
<path d="M67.2207 21.2176H54.6393V21.4637H67.2207V21.2176Z" fill="#CCCCCC"/>
<path d="M44.8138 21.2176H4.91272V21.4637H44.8138V21.2176Z" fill="#CCCCCC"/>
<path d="M4.9127 26.3984C7.6259 26.3984 9.82539 24.1341 9.82539 21.341C9.82539 18.5478 7.6259 16.2836 4.9127 16.2836C2.19949 16.2836 0 18.5478 0 21.341C0 24.1341 2.19949 26.3984 4.9127 26.3984Z" fill="#51258F"/>
<path d="M27.3196 26.3984C30.0328 26.3984 32.2323 24.1341 32.2323 21.341C32.2323 18.5478 30.0328 16.2836 27.3196 16.2836C24.6064 16.2836 22.4069 18.5478 22.4069 21.341C22.4069 24.1341 24.6064 26.3984 27.3196 26.3984Z" fill="#CDA8F0"/>
<path d="M49.726 26.5219C48.7306 26.5219 47.7576 26.218 46.93 25.6488C46.1024 25.0795 45.4573 24.2704 45.0764 23.3237C44.6955 22.377 44.5959 21.3353 44.7901 20.3303C44.9842 19.3253 45.4636 18.4022 46.1674 17.6777C46.8712 16.9531 47.7679 16.4597 48.7441 16.2598C49.7204 16.0599 50.7323 16.1625 51.6519 16.5546C52.5714 16.9467 53.3574 17.6108 53.9104 18.4627C54.4634 19.3147 54.7586 20.3164 54.7586 21.3411C54.7586 22.7151 54.2283 24.0329 53.2846 25.0045C52.3408 25.9761 51.0607 26.5219 49.726 26.5219ZM49.726 16.407C48.778 16.407 47.8514 16.6963 47.0632 17.2385C46.275 17.7807 45.6606 18.5513 45.2979 19.4529C44.9351 20.3544 44.8402 21.3465 45.0251 22.3037C45.2101 23.2608 45.6666 24.1399 46.3369 24.83C47.0072 25.52 47.8612 25.99 48.7909 26.1803C49.7206 26.3707 50.6843 26.273 51.5601 25.8996C52.4359 25.5261 53.1845 24.8937 53.7111 24.0823C54.2378 23.2709 54.5189 22.3169 54.5189 21.3411C54.5189 20.0325 54.0139 18.7774 53.1151 17.8521C52.2162 16.9268 50.9971 16.407 49.726 16.407V16.407Z" fill="#CCCCCC"/>
<path d="M72.1328 26.5219C71.1375 26.5219 70.1645 26.218 69.3368 25.6488C68.5092 25.0795 67.8642 24.2704 67.4833 23.3237C67.1024 22.377 67.0027 21.3353 67.1969 20.3303C67.3911 19.3253 67.8704 18.4022 68.5742 17.6777C69.2781 16.9531 70.1748 16.4597 71.151 16.2598C72.1272 16.0599 73.1391 16.1625 74.0587 16.5546C74.9783 16.9467 75.7643 17.6108 76.3173 18.4627C76.8703 19.3147 77.1654 20.3164 77.1654 21.3411C77.1654 22.7151 76.6352 24.0329 75.6914 25.0045C74.7476 25.9761 73.4676 26.5219 72.1328 26.5219ZM72.1328 16.407C71.1849 16.407 70.2582 16.6963 69.47 17.2385C68.6818 17.7807 68.0675 18.5513 67.7047 19.4529C67.342 20.3544 67.2471 21.3465 67.432 22.3037C67.6169 23.2608 68.0734 24.1399 68.7437 24.83C69.414 25.52 70.268 25.99 71.1978 26.1803C72.1275 26.3707 73.0912 26.273 73.967 25.8996C74.8428 25.5261 75.5913 24.8937 76.118 24.0823C76.6446 23.2709 76.9258 22.3169 76.9258 21.3411C76.9258 20.6931 76.8018 20.0515 76.5609 19.4529C76.32 18.8542 75.967 18.3103 75.5219 17.8521C75.0769 17.3939 74.5485 17.0305 73.967 16.7825C73.3855 16.5346 72.7622 16.407 72.1328 16.407Z" fill="#CCCCCC"/>
<path d="M4.53447 22.8489C4.44817 22.849 4.36419 22.8202 4.29519 22.7668L4.29093 22.7635L3.38925 22.0535C3.30491 21.987 3.24972 21.8886 3.23581 21.7802C3.2219 21.6717 3.25041 21.562 3.31507 21.4752C3.37973 21.3884 3.47524 21.3316 3.58059 21.3173C3.68595 21.3029 3.79251 21.3323 3.87685 21.3989L4.46082 21.8599L5.84081 20.0064C5.90544 19.9196 6.0009 19.8628 6.1062 19.8485C6.21151 19.8342 6.31802 19.8635 6.40232 19.93V19.93L6.39381 19.9422L6.40259 19.93C6.48681 19.9967 6.5419 20.095 6.55578 20.2034C6.56967 20.3118 6.5412 20.4214 6.47663 20.5082L4.85338 22.6873C4.81578 22.7375 4.76744 22.7782 4.7121 22.8061C4.65677 22.8339 4.59594 22.8483 4.53434 22.8481L4.53447 22.8489Z" fill="white"/>
<path d="M23.2324 40.6353C23.2324 37.8739 25.471 35.6353 28.2324 35.6353H93.099C95.8605 35.6353 98.099 37.8739 98.099 40.6353V51.3536C98.099 54.115 95.8605 56.3536 93.099 56.3536H28.2324C25.471 56.3536 23.2324 54.115 23.2324 51.3536V40.6353Z" fill="#E4E4E4"/>
<path d="M98.6579 54.8338H26.1845C25.8287 54.8334 25.4876 54.6877 25.236 54.4287C24.9844 54.1697 24.8429 53.8185 24.8425 53.4522V34.9451C24.8429 34.5789 24.9844 34.2277 25.236 33.9687C25.4876 33.7097 25.8287 33.564 26.1845 33.5635H98.6579C99.0137 33.564 99.3548 33.7097 99.6064 33.9687C99.858 34.2277 99.9995 34.5789 100 34.9451V53.4522C99.9995 53.8185 99.858 54.1697 99.6064 54.4287C99.3548 54.6877 99.0137 54.8334 98.6579 54.8338ZM26.1845 34.1163C25.971 34.1166 25.7663 34.204 25.6154 34.3594C25.4644 34.5148 25.3795 34.7256 25.3792 34.9454V53.4525C25.3794 53.6723 25.4643 53.883 25.6153 54.0385C25.7663 54.1939 25.971 54.2813 26.1845 54.2815H98.6579C98.8714 54.2813 99.0762 54.1939 99.2272 54.0385C99.3781 53.883 99.463 53.6723 99.4632 53.4525V34.9451C99.463 34.7253 99.3781 34.5146 99.2272 34.3591C99.0762 34.2037 98.8714 34.1163 98.6579 34.1161L26.1845 34.1163Z" fill="#BCBCBC"/>
<path d="M37.4969 49.9027C40.5163 49.9027 42.964 47.3829 42.964 44.2746C42.964 41.1663 40.5163 38.6466 37.4969 38.6466C34.4776 38.6466 32.0299 41.1663 32.0299 44.2746C32.0299 47.3829 34.4776 49.9027 37.4969 49.9027Z" fill="#854ECA"/>
<path d="M36.6377 47.4026C36.454 47.4029 36.2752 47.3416 36.1283 47.2282L36.1191 47.2211L34.2003 45.71C34.0207 45.5683 33.9031 45.359 33.8734 45.1281C33.8437 44.8972 33.9043 44.6636 34.0419 44.4787C34.1795 44.2938 34.3828 44.1727 34.6072 44.1421C34.8315 44.1115 35.0584 44.1739 35.238 44.3156L36.4809 45.2966L39.4178 41.3522C39.5553 41.1675 39.7585 41.0467 39.9826 41.0162C40.2066 40.9857 40.4333 41.0481 40.6127 41.1896L40.5946 41.2156L40.6134 41.1896C40.7926 41.3314 40.9099 41.5405 40.9394 41.7712C40.969 42.0019 40.9085 42.2352 40.7711 42.42L37.3168 47.0601C37.2368 47.167 37.1341 47.2534 37.0165 47.3127C36.8989 47.3721 36.7696 47.4027 36.6386 47.4023L36.6377 47.4026Z" fill="white"/>
</svg>
