<svg width="70" height="67" viewBox="0 0 70 67" fill="none" xmlns="http://www.w3.org/2000/svg">
<circle cx="27.7358" cy="38.3019" r="27.7358" fill="white" fill-opacity="0.07"/>
<circle cx="61.415" cy="8.58491" r="8.58491" fill="white" fill-opacity="0.07"/>
<path d="M59.5 31.7073V56.0366C59.5 57.0332 58.6918 57.8415 57.6951 57.8415H20.3049C19.3082 57.8415 18.5 57.0332 18.5 56.0366V51.7841V29.9146C18.5 28.9169 19.308 28.1098 20.3049 28.1098H38.7439C40.2928 28.1098 41.5488 26.8538 41.5488 25.3049C41.5488 24.3071 42.3568 23.5 43.3537 23.5H56.9268H57.6951C58.692 23.5 59.5 24.3071 59.5 25.3049V27.6098V31.7073Z" fill="#B6CCE0" fill-opacity="0.2" stroke="#7D7D7D"/>
<path d="M56.9507 23.5H57.7131C58.6963 23.5 59.5 24.3034 59.5 25.3049V27.6098V31.7073V56.0366C59.5 57.0369 58.6961 57.8415 57.7131 57.8415H29.6394L50.2544 23.5H56.9507Z" fill="#9FBDD3" fill-opacity="0.2" stroke="#7D7D7D"/>
</svg>
