<svg width="159" height="146" viewBox="0 0 159 146" fill="none" xmlns="http://www.w3.org/2000/svg">
<circle cx="73" cy="73" r="73" fill="white" fill-opacity="0.05"/>
<path d="M41.039 30.1753H36.8954C36.0714 30.1753 35.4034 30.8444 35.4034 31.6697C35.4034 32.495 34.7353 33.1641 33.9113 33.1641H20.097C19.273 33.1641 18.605 32.495 18.605 31.6697L18.3318 30.1548L15.8278 26.9575C15.6615 26.7418 15.404 26.6165 15.1319 26.6189H10.4359C9.94775 26.6195 9.55217 27.0157 9.55159 27.5046L9.45463 30.1548H7.67927C6.1111 30.1548 4.83984 31.4281 4.83984 32.9987V51.5206C4.83984 52.9144 5.96798 54.0443 7.3596 54.0443H41.039C42.4298 54.0426 43.5567 52.9136 43.5581 51.5206V32.6983C43.5581 31.3049 42.4303 30.1753 41.039 30.1753Z" fill="#E3E3E3" fill-opacity="0.11"/>
<path d="M80.1433 43.7391H74.2935C73.1301 43.7391 72.1871 44.6837 72.1871 45.8488C72.1871 47.014 71.244 47.9585 70.0806 47.9585H50.5781C49.4148 47.9585 48.4717 47.014 48.4717 45.8488L48.0861 43.7102L44.5509 39.1963C44.3162 38.8917 43.9527 38.7148 43.5686 38.7183H36.9389C36.2497 38.7191 35.6913 39.2785 35.6905 39.9687L35.5536 43.7102H33.0472C30.8333 43.7102 29.0386 45.5077 29.0386 47.725V73.8736C29.0386 75.8414 30.6312 77.4365 32.5959 77.4365H80.1433C82.1068 77.4341 83.6977 75.8402 83.6996 73.8737V47.301C83.6996 45.3338 82.1074 43.7391 80.1433 43.7391Z" fill="#D9D9D9" fill-opacity="0.22"/>
<path d="M92.8582 34.6851C91.7533 34.6863 90.8579 35.5818 90.8567 36.6867V71.7625C90.8579 72.8674 91.7533 73.7628 92.8582 73.7641H142.472C143.577 73.7628 144.472 72.8674 144.473 71.7625V36.6867C144.472 35.5818 143.577 34.6863 142.472 34.6851H92.8582Z" fill="#E6E6E6"/>
<path d="M124.629 72.0571H94.2602C93.071 72.0558 92.1073 71.092 92.106 69.9028V38.0894C92.1073 36.9002 93.071 35.9364 94.2602 35.9351H141.07C142.259 35.9364 143.223 36.9001 143.225 38.0894V53.4613C143.213 63.7267 134.894 72.0455 124.629 72.0571V72.0571Z" fill="white"/>
<path d="M112.733 44.7392H105.516C105.136 44.7392 104.827 44.4306 104.827 44.05C104.827 43.6694 105.136 43.3608 105.516 43.3608H112.733C113.114 43.3608 113.422 43.6694 113.422 44.05C113.422 44.4306 113.114 44.7392 112.733 44.7392Z" fill="#D32029"/>
<path d="M128.91 47.5578H105.516C105.136 47.5578 104.827 47.2492 104.827 46.8686C104.827 46.488 105.136 46.1794 105.516 46.1794H128.91C129.291 46.1794 129.599 46.488 129.599 46.8686C129.599 47.2492 129.291 47.5578 128.91 47.5578Z" fill="#E6E6E6"/>
<path d="M128.91 50.7934H105.516C105.136 50.7934 104.827 50.4848 104.827 50.1042C104.827 49.7236 105.136 49.415 105.516 49.415H128.91C129.291 49.415 129.599 49.7236 129.599 50.1042C129.599 50.4848 129.291 50.7934 128.91 50.7934Z" fill="#E6E6E6"/>
<path d="M128.91 54.0287H105.516C105.136 54.0287 104.827 53.7202 104.827 53.3395C104.827 52.9589 105.136 52.6504 105.516 52.6504H128.91C129.291 52.6504 129.599 52.9589 129.599 53.3395C129.599 53.7202 129.291 54.0287 128.91 54.0287Z" fill="#E6E6E6"/>
<path d="M128.91 57.2643H105.516C105.136 57.2643 104.827 56.9558 104.827 56.5751C104.827 56.1945 105.136 55.886 105.516 55.886H128.91C129.291 55.886 129.599 56.1945 129.599 56.5751C129.599 56.9558 129.291 57.2643 128.91 57.2643Z" fill="#E6E6E6"/>
<path d="M147.667 59.1741H137.874C135.926 59.1741 134.347 60.7529 134.347 62.7005C134.347 64.6481 132.769 66.227 130.821 66.227H98.1709C96.2233 66.227 94.6445 64.6482 94.6445 62.7006L93.9989 59.1257L88.0806 51.5805C87.6876 51.0714 87.079 50.7758 86.436 50.7816H75.3369C74.1831 50.783 73.2482 51.7179 73.2468 52.8716L73.0176 59.1257H68.8216C65.1152 59.1257 62.1106 62.1303 62.1106 65.8367V109.545C62.1106 112.834 64.7769 115.501 68.066 115.501H147.667C150.954 115.497 153.618 112.832 153.621 109.545V65.1279C153.621 61.8397 150.956 59.1741 147.667 59.1741Z" fill="#E4E4E4"/>
<path d="M94.0021 58.9643H73.2468V52.7103C73.2482 51.5565 74.1831 50.6216 75.3369 50.6202H86.436C87.079 50.6144 87.6877 50.91 88.0806 51.4191L94.0021 58.9643V58.9643Z" fill="#CCCCCC"/>
<path d="M98.772 111.315H69.6239C67.7028 111.313 66.146 109.715 66.1438 107.743V99.561C66.146 97.5892 67.7028 95.9912 69.6239 95.989H104.608C106.53 95.9912 108.086 97.5892 108.089 99.561V101.752C108.083 107.031 103.915 111.309 98.772 111.315Z" fill="#F8B692"/>
<path d="M150.391 120.732C145.693 120.732 141.885 116.923 141.885 112.226C141.885 107.528 145.693 103.72 150.391 103.72C155.088 103.72 158.897 107.528 158.897 112.226C158.897 116.923 155.088 120.732 150.391 120.732Z" fill="#E87040"/>
<path d="M153.747 111.387H151.23V108.87C151.23 108.406 150.854 108.031 150.391 108.031C149.927 108.031 149.552 108.406 149.552 108.87V111.387H147.034C146.571 111.387 146.195 111.762 146.195 112.226C146.195 112.689 146.571 113.065 147.034 113.065H149.552V115.582C149.552 116.045 149.927 116.421 150.391 116.421C150.854 116.421 151.23 116.045 151.23 115.582V113.065H153.747C154.21 113.065 154.586 112.689 154.586 112.226C154.586 111.762 154.21 111.387 153.747 111.387Z" fill="white"/>
<path d="M73.2559 100.205H75.1273L76.3347 102.716H76.383L77.5904 100.205H79.4618L77.1919 104.443V106.387H75.5257V104.443L73.2559 100.205ZM81.5789 106.387H79.7678L81.8083 100.205H84.1023L86.1428 106.387H84.3317L82.9794 101.907H82.9312L81.5789 106.387ZM81.2408 103.948H84.6456V105.203H81.2408V103.948ZM87.3332 100.205H89.422L90.8588 103.706H90.9312L92.368 100.205H94.4568V106.387H92.8147V102.813H92.7664L91.39 106.338H90.4L89.0235 102.789H88.9752V106.387H87.3332V100.205ZM95.8471 106.387V100.205H97.5254V105.034H100.025V106.387H95.8471Z" fill="white"/>
</svg>
