<svg width="100" height="75" viewBox="0 0 100 75" fill="none" xmlns="http://www.w3.org/2000/svg">
<ellipse cx="49.3953" cy="37.5" rx="37.3953" ry="37.5" fill="black"/>
<path d="M33.0228 15.501H30.9002C30.478 15.501 30.1358 15.8446 30.1358 16.2686C30.1358 16.6926 29.7936 17.0363 29.3715 17.0363H22.295C21.8728 17.0363 21.5306 16.6926 21.5306 16.2686L21.3907 15.4904L20.108 13.8479C20.0228 13.7371 19.8909 13.6728 19.7515 13.674H17.3459C17.0958 13.6743 16.8932 13.8779 16.8929 14.129L16.8432 15.4904H15.9338C15.1305 15.4904 14.4792 16.1445 14.4792 16.9513V26.466C14.4792 27.182 15.0572 27.7624 15.77 27.7624H33.0228C33.7352 27.7615 34.3125 27.1816 34.3132 26.466V16.797C34.3132 16.0812 33.7355 15.501 33.0228 15.501Z" fill="#313131"/>
<path d="M21.0906 15.7458H16.5453V14.1929C16.5456 13.9065 16.7503 13.6743 17.003 13.674H19.4336C19.5745 13.6725 19.7077 13.7459 19.7938 13.8723L21.0906 15.7458V15.7458Z" fill="#303030"/>
<path d="M53.0546 22.4687H50.058C49.462 22.4687 48.9789 22.954 48.9789 23.5525C48.9789 24.151 48.4958 24.6362 47.8999 24.6362H37.9094C37.3135 24.6362 36.8304 24.151 36.8304 23.5525L36.6328 22.4539L34.8219 20.1351C34.7017 19.9786 34.5155 19.8878 34.3187 19.8896H30.9225C30.5695 19.89 30.2834 20.1773 30.283 20.5319L30.2129 22.4539H28.929C27.7949 22.4539 26.8755 23.3772 26.8755 24.5163V37.9488C26.8755 38.9596 27.6914 39.779 28.6978 39.779H53.0546C54.0604 39.7778 54.8754 38.959 54.8764 37.9488V24.2985C54.8764 23.2879 54.0607 22.4687 53.0546 22.4687Z" fill="#535353"/>
<path d="M36.2091 22.8144H29.7922V20.6222C29.7927 20.2177 30.0817 19.89 30.4384 19.8895H33.8699C34.0687 19.8875 34.2569 19.9911 34.3784 20.1696L36.2091 22.8144Z" fill="#3A3A3A"/>
<path d="M59.5679 17.8177C59.0019 17.8184 58.5432 18.2783 58.5426 18.846V36.8643C58.5432 37.4319 59.0019 37.8919 59.5679 37.8926H84.9832C85.5492 37.8919 86.0079 37.4319 86.0085 36.8643V18.846C86.0079 18.2783 85.5492 17.8184 84.9832 17.8177H59.5679V17.8177Z" fill="#E6E6E6"/>
<path d="M75.8429 37.0157H60.2862C59.677 37.015 59.1833 36.5199 59.1826 35.909V19.5665C59.1833 18.9556 59.677 18.4605 60.2862 18.4598H84.2653C84.8745 18.4605 85.3682 18.9556 85.3688 19.5665V27.463C85.3629 32.7363 81.1015 37.0097 75.8429 37.0157V37.0157Z" fill="white"/>
<path d="M69.7491 22.9825H66.0523C65.8573 22.9825 65.6992 22.824 65.6992 22.6285C65.6992 22.4329 65.8573 22.2744 66.0523 22.2744H69.7491C69.944 22.2744 70.1021 22.4329 70.1021 22.6285C70.1021 22.824 69.944 22.9825 69.7491 22.9825Z" fill="#D32029"/>
<path d="M78.0361 24.4304H66.0523C65.8573 24.4304 65.6992 24.2719 65.6992 24.0764C65.6992 23.8809 65.8573 23.7224 66.0523 23.7224H78.0361C78.2311 23.7224 78.3891 23.8809 78.3891 24.0764C78.3891 24.2719 78.2311 24.4304 78.0361 24.4304Z" fill="#E6E6E6"/>
<path d="M78.0361 26.0925H66.0523C65.8573 26.0925 65.6992 25.934 65.6992 25.7385C65.6992 25.5429 65.8573 25.3844 66.0523 25.3844H78.0361C78.2311 25.3844 78.3891 25.5429 78.3891 25.7385C78.3891 25.934 78.2311 26.0925 78.0361 26.0925Z" fill="#E6E6E6"/>
<path d="M78.0361 27.7545H66.0523C65.8573 27.7545 65.6992 27.596 65.6992 27.4005C65.6992 27.205 65.8573 27.0465 66.0523 27.0465H78.0361C78.2311 27.0465 78.3891 27.205 78.3891 27.4005C78.3891 27.596 78.2311 27.7545 78.0361 27.7545Z" fill="#E6E6E6"/>
<path d="M78.0361 29.4166H66.0523C65.8573 29.4166 65.6992 29.2581 65.6992 29.0626C65.6992 28.8671 65.8573 28.7086 66.0523 28.7086H78.0361C78.2311 28.7086 78.3891 28.8671 78.3891 29.0626C78.3891 29.2581 78.2311 29.4166 78.0361 29.4166Z" fill="#E6E6E6"/>
<path d="M87.6447 30.3978H82.6278C81.6302 30.3978 80.8214 31.2088 80.8214 32.2093C80.8214 33.2098 80.0126 34.0208 79.0149 34.0208H62.2894C61.2917 34.0208 60.4829 33.2098 60.4829 32.2093L60.1522 30.3729L57.1205 26.4969C56.9192 26.2354 56.6074 26.0835 56.278 26.0865H50.5924C50.0013 26.0872 49.5224 26.5675 49.5217 27.1602L49.4043 30.3729H47.2548C45.3562 30.3729 43.817 31.9163 43.817 33.8203V56.2733C43.817 57.9629 45.1829 59.3326 46.8678 59.3326H87.6447C89.3285 59.3306 90.693 57.962 90.6946 56.2733V33.4562C90.6946 31.7671 89.3291 30.3978 87.6447 30.3978Z" fill="#E4E4E4"/>
<path d="M60.1539 30.29H49.5217V27.0773C49.5224 26.4846 50.0014 26.0044 50.5924 26.0036H56.2781C56.6075 26.0007 56.9192 26.1525 57.1205 26.414L60.1539 30.29V30.29Z" fill="#CCCCCC"/>
<path d="M62.5973 57.1823H47.6658C46.6817 57.1812 45.8842 56.3603 45.8831 55.3474V51.1443C45.8842 50.1314 46.6817 49.3105 47.6658 49.3094H65.5871C66.5712 49.3105 67.3687 50.1314 67.3698 51.1443V52.2701C67.3669 54.9817 65.2319 57.1792 62.5973 57.1823V57.1823Z" fill="#F8B692"/>
<path d="M89.0398 62.0198C86.6333 62.0198 84.6825 60.0635 84.6825 57.6503C84.6825 55.2371 86.6333 53.2808 89.0398 53.2808C91.4463 53.2808 93.3971 55.2371 93.3971 57.6503C93.3971 60.0635 91.4463 62.0198 89.0398 62.0198Z" fill="#E87040"/>
<path d="M90.759 57.2192H89.4696V55.9261C89.4696 55.6881 89.2771 55.4951 89.0397 55.4951C88.8023 55.4951 88.6099 55.6881 88.6099 55.9261V57.2192H87.3204C87.0831 57.2192 86.8906 57.4122 86.8906 57.6503C86.8906 57.8883 87.0831 58.0813 87.3204 58.0813H88.6099V59.3743C88.6099 59.6124 88.8023 59.8054 89.0397 59.8054C89.2771 59.8054 89.4696 59.6124 89.4696 59.3743V58.0813H90.759C90.9964 58.0813 91.1888 57.8883 91.1888 57.6503C91.1888 57.4122 90.9964 57.2192 90.759 57.2192Z" fill="white"/>
</svg>
