<svg width="296" height="293" viewBox="0 0 296 293" fill="none" xmlns="http://www.w3.org/2000/svg">
<circle cx="147.5" cy="150.5" r="90.5" fill="#121212"/>
<path d="M198.706 203.063H97.0527C96.2796 203.062 95.5383 202.754 94.9914 202.207C94.4445 201.659 94.1367 200.916 94.1357 200.141V117.24C94.1367 116.465 94.4445 115.723 94.9914 115.175C95.5382 114.627 96.2794 114.319 97.0524 114.318H198.706C199.479 114.319 200.22 114.627 200.767 115.175C201.314 115.723 201.622 116.465 201.623 117.241V200.141C201.622 200.916 201.314 201.659 200.767 202.207C200.22 202.754 199.479 203.062 198.706 203.063Z" stroke="#434343"/>
<path d="M97.3852 117.573C97.9085 117.049 98.6178 116.755 99.3575 116.754L196.402 116.754C196.402 116.754 196.402 116.754 196.402 116.754C197.142 116.755 197.851 117.049 198.374 117.573C198.898 118.098 199.192 118.809 199.193 119.55V170.324C199.184 178.359 195.993 186.062 190.32 191.743C184.648 197.425 176.957 200.62 168.935 200.63H99.3578C98.618 200.629 97.9086 200.334 97.3852 199.81C96.8619 199.286 96.5674 198.575 96.5664 197.833V119.55C96.5673 118.808 96.8618 118.098 97.3852 117.573Z" stroke="#434343"/>
<line x1="95.9365" y1="124.879" x2="199.396" y2="124.879" stroke="#434343"/>
<line x1="104.875" y1="201.249" x2="104.875" y2="125.379" stroke="#434343"/>
<line x1="136.457" y1="201.249" x2="136.457" y2="125.379" stroke="#434343"/>
<line x1="169.129" y1="201.249" x2="169.129" y2="125.379" stroke="#434343"/>
<rect x="98.252" y="128.42" width="4.80825" height="4.80825" rx="2.40413" stroke="#434343"/>
<rect x="108.779" y="128.42" width="24.4111" height="11.3425" rx="1.5" stroke="#434343"/>
<rect x="108.779" y="142.941" width="24.4111" height="11.3425" rx="1.5" stroke="#434343"/>
<rect x="173.396" y="128.42" width="22.596" height="33.8495" rx="1.5" stroke="#434343"/>
<rect x="129.298" y="119.052" width="49.0389" height="3.0572" rx="1.5" stroke="#434343"/>
<rect x="108.779" y="157.461" width="24.4111" height="11.3425" rx="1.5" stroke="#434343"/>
<rect x="98.252" y="136.043" width="4.80825" height="4.80825" rx="2.40413" stroke="#434343"/>
<rect x="98.252" y="143.667" width="4.80825" height="4.80825" rx="2.40413" stroke="#434343"/>
<rect x="131" y="129" width="31" height="70" rx="2" fill="#13A8A8" fill-opacity="0.6"/>
<rect x="140" y="138" width="31" height="70" rx="2" fill="#1346A8" fill-opacity="0.6"/>
<line x1="93.6367" y1="181.591" x2="0.000358582" y2="181.591" stroke="#434343"/>
<line x1="295.455" y1="181.591" x2="201.819" y2="181.591" stroke="#434343"/>
<line x1="149.878" y1="86" x2="149.878" y2="95.0616" stroke="#D89614" stroke-width="2"/>
<line x1="120.707" y1="94.7754" x2="127.115" y2="101.183" stroke="#D89614" stroke-width="2"/>
<line x1="177.346" y1="96.1897" x2="170.938" y2="102.597" stroke="#D89614" stroke-width="2"/>
<line x1="134.181" y1="88.4035" x2="137.911" y2="96.6617" stroke="#D89614" stroke-width="2"/>
<line x1="165.253" y1="88.8048" x2="161.43" y2="97.0206" stroke="#D89614" stroke-width="2"/>
<path d="M95.3191 52.1665L93.2751 48.1524" stroke="#D89614" stroke-miterlimit="10" stroke-linecap="round" stroke-linejoin="round"/>
<path d="M91.8739 45.9365L89.4118 42.155" stroke="#D89614" stroke-miterlimit="10" stroke-linecap="round" stroke-linejoin="round"/>
<path d="M87.7834 39.9698L84.7293 36.6433" stroke="#D89614" stroke-miterlimit="10" stroke-linecap="round" stroke-linejoin="round"/>
<path d="M83.0662 34.77L79.6968 31.7617" stroke="#D89614" stroke-miterlimit="10" stroke-linecap="round" stroke-linejoin="round"/>
<path d="M77.7535 30.062L74.0791 27.4474" stroke="#D89614" stroke-miterlimit="10" stroke-linecap="round" stroke-linejoin="round"/>
<path d="M71.8698 25.9598L67.9724 23.6736" stroke="#D89614" stroke-miterlimit="10" stroke-linecap="round" stroke-linejoin="round"/>
<path d="M65.5633 22.4615L61.4472 20.6342" stroke="#D89614" stroke-miterlimit="10" stroke-linecap="round" stroke-linejoin="round"/>
<path d="M59.0382 19.7747L54.7199 18.4267" stroke="#D89614" stroke-miterlimit="10" stroke-linecap="round" stroke-linejoin="round"/>
<path d="M52.1687 17.8303L47.72 16.9881" stroke="#D89614" stroke-miterlimit="10" stroke-linecap="round" stroke-linejoin="round"/>
<path d="M44.6198 16.6286L40.1328 16.1351" stroke="#D89614" stroke-miterlimit="10" stroke-linecap="round" stroke-linejoin="round"/>
<path d="M36.3276 9.10386C40.06 9.51436 42.755 12.8546 42.347 16.5644C41.939 20.2743 38.5825 22.9489 34.85 22.5384C31.1176 22.1279 28.4226 18.7877 28.8306 15.0779C29.2386 11.368 32.5951 8.69335 36.3276 9.10386Z" fill="#D89614"/>
<path d="M30.7552 271.364C30.6956 270.86 30.4536 270.469 30.0294 270.19C29.6051 269.912 29.0848 269.773 28.4683 269.773C28.0175 269.773 27.6231 269.846 27.2851 269.991C26.9503 270.137 26.6885 270.338 26.4996 270.593C26.314 270.848 26.2211 271.138 26.2211 271.463C26.2211 271.735 26.2858 271.969 26.415 272.164C26.5476 272.356 26.7166 272.517 26.9221 272.646C27.1276 272.772 27.3431 272.877 27.5684 272.96C27.7938 273.039 28.001 273.104 28.1899 273.153L29.224 273.432C29.4891 273.501 29.7841 273.598 30.1089 273.72C30.4371 273.843 30.7503 274.01 31.0486 274.222C31.3502 274.431 31.5988 274.7 31.7943 275.028C31.9899 275.356 32.0876 275.759 32.0876 276.236C32.0876 276.786 31.9434 277.283 31.6551 277.727C31.3701 278.171 30.9524 278.524 30.4023 278.786C29.8554 279.048 29.1908 279.179 28.4086 279.179C27.6795 279.179 27.0481 279.061 26.5145 278.826C25.9842 278.591 25.5666 278.263 25.2616 277.842C24.96 277.421 24.7893 276.932 24.7496 276.375H26.0223C26.0554 276.759 26.1847 277.078 26.4101 277.33C26.6388 277.578 26.9271 277.764 27.2751 277.886C27.6265 278.006 28.0043 278.065 28.4086 278.065C28.8793 278.065 29.3019 277.989 29.6764 277.837C30.0509 277.681 30.3476 277.465 30.5663 277.19C30.7851 276.912 30.8944 276.587 30.8944 276.216C30.8944 275.878 30.8 275.603 30.6111 275.391C30.4221 275.179 30.1736 275.006 29.8653 274.874C29.5571 274.741 29.224 274.625 28.866 274.526L27.6132 274.168C26.8177 273.939 26.188 273.612 25.724 273.188C25.26 272.764 25.028 272.209 25.028 271.523C25.028 270.953 25.1821 270.455 25.4903 270.031C25.8019 269.604 26.2195 269.272 26.7432 269.037C27.2702 268.798 27.8585 268.679 28.5081 268.679C29.1643 268.679 29.7477 268.797 30.2581 269.032C30.7685 269.264 31.1729 269.582 31.4711 269.987C31.7728 270.391 31.9318 270.85 31.9484 271.364H30.7552ZM37.1574 279.159C36.4216 279.159 35.7869 278.997 35.2533 278.672C34.723 278.344 34.3137 277.886 34.0253 277.3C33.7403 276.71 33.5977 276.024 33.5977 275.241C33.5977 274.459 33.7403 273.77 34.0253 273.173C34.3137 272.573 34.7147 272.106 35.2284 271.771C35.7455 271.433 36.3487 271.264 37.0381 271.264C37.4358 271.264 37.8286 271.33 38.2164 271.463C38.6041 271.596 38.9571 271.811 39.2753 272.109C39.5935 272.404 39.847 272.795 40.036 273.283C40.2249 273.77 40.3193 274.37 40.3193 275.082V275.58H34.433V274.565H39.1262C39.1262 274.134 39.04 273.75 38.8676 273.412C38.6986 273.074 38.4566 272.807 38.1418 272.612C37.8302 272.416 37.4623 272.318 37.0381 272.318C36.5708 272.318 36.1664 272.434 35.825 272.666C35.4869 272.895 35.2268 273.193 35.0445 273.561C34.8622 273.929 34.771 274.323 34.771 274.744V275.42C34.771 275.997 34.8705 276.486 35.0693 276.887C35.2715 277.285 35.5516 277.588 35.9095 277.797C36.2675 278.002 36.6834 278.105 37.1574 278.105C37.4656 278.105 37.7441 278.062 37.9926 277.976C38.2445 277.886 38.4616 277.754 38.6439 277.578C38.8262 277.399 38.9671 277.177 39.0665 276.912L40.2 277.23C40.0807 277.615 39.8802 277.953 39.5985 278.244C39.3167 278.533 38.9687 278.758 38.5544 278.92C38.1401 279.08 37.6744 279.159 37.1574 279.159ZM43.2774 268.818V279H42.1041V268.818H43.2774ZM48.6281 279.159C47.8923 279.159 47.2576 278.997 46.724 278.672C46.1937 278.344 45.7844 277.886 45.496 277.3C45.211 276.71 45.0684 276.024 45.0684 275.241C45.0684 274.459 45.211 273.77 45.496 273.173C45.7844 272.573 46.1854 272.106 46.6991 271.771C47.2162 271.433 47.8194 271.264 48.5088 271.264C48.9065 271.264 49.2993 271.33 49.6871 271.463C50.0748 271.596 50.4278 271.811 50.746 272.109C51.0642 272.404 51.3177 272.795 51.5067 273.283C51.6956 273.77 51.79 274.37 51.79 275.082V275.58H45.9037V274.565H50.5969C50.5969 274.134 50.5107 273.75 50.3383 273.412C50.1693 273.074 49.9273 272.807 49.6125 272.612C49.3009 272.416 48.933 272.318 48.5088 272.318C48.0415 272.318 47.6371 272.434 47.2957 272.666C46.9577 272.895 46.6975 273.193 46.5152 273.561C46.3329 273.929 46.2417 274.323 46.2417 274.744V275.42C46.2417 275.997 46.3412 276.486 46.54 276.887C46.7422 277.285 47.0223 277.588 47.3802 277.797C47.7382 278.002 48.1541 278.105 48.6281 278.105C48.9363 278.105 49.2148 278.062 49.4633 277.976C49.7152 277.886 49.9323 277.754 50.1146 277.578C50.2969 277.399 50.4378 277.177 50.5372 276.912L51.6707 277.23C51.5514 277.615 51.3509 277.953 51.0692 278.244C50.7874 278.533 50.4394 278.758 50.0251 278.92C49.6108 279.08 49.1452 279.159 48.6281 279.159ZM56.6771 279.159C55.9612 279.159 55.3447 278.99 54.8277 278.652C54.3106 278.314 53.9129 277.848 53.6345 277.255C53.3561 276.662 53.2169 275.984 53.2169 275.222C53.2169 274.446 53.3594 273.762 53.6444 273.168C53.9328 272.572 54.3338 272.106 54.8476 271.771C55.3646 271.433 55.9678 271.264 56.6572 271.264C57.1942 271.264 57.6781 271.364 58.1089 271.562C58.5398 271.761 58.8928 272.04 59.1679 272.398C59.443 272.756 59.6137 273.173 59.68 273.651H58.5067C58.4172 273.303 58.2183 272.994 57.9101 272.726C57.6051 272.454 57.1942 272.318 56.6771 272.318C56.2197 272.318 55.8187 272.437 55.474 272.676C55.1326 272.911 54.8658 273.245 54.6736 273.675C54.4846 274.103 54.3902 274.605 54.3902 275.182C54.3902 275.772 54.483 276.286 54.6686 276.723C54.8575 277.161 55.1227 277.5 55.464 277.742C55.8087 277.984 56.2131 278.105 56.6771 278.105C56.982 278.105 57.2588 278.052 57.5074 277.946C57.7559 277.84 57.9664 277.688 58.1388 277.489C58.3111 277.29 58.4337 277.051 58.5067 276.773H59.68C59.6137 277.223 59.4496 277.629 59.1878 277.991C58.9292 278.349 58.5862 278.634 58.1586 278.846C57.7344 279.055 57.2406 279.159 56.6771 279.159ZM64.7162 271.364V272.358H60.7588V271.364H64.7162ZM61.9122 269.534H63.0855V276.812C63.0855 277.144 63.1336 277.393 63.2297 277.558C63.3291 277.721 63.455 277.83 63.6075 277.886C63.7633 277.939 63.9273 277.966 64.0997 277.966C64.229 277.966 64.335 277.959 64.4179 277.946C64.5007 277.929 64.567 277.916 64.6167 277.906L64.8554 278.96C64.7758 278.99 64.6648 279.02 64.5223 279.05C64.3798 279.083 64.1991 279.099 63.9804 279.099C63.6489 279.099 63.3241 279.028 63.0059 278.886C62.6911 278.743 62.4292 278.526 62.2204 278.234C62.0149 277.943 61.9122 277.575 61.9122 277.131V269.534ZM72.6657 279.179C72.1818 279.179 71.7427 279.088 71.3483 278.906C70.9539 278.72 70.6407 278.453 70.4086 278.105C70.1766 277.754 70.0606 277.33 70.0606 276.832C70.0606 276.395 70.1468 276.04 70.3192 275.768C70.4915 275.493 70.7219 275.278 71.0102 275.122C71.2986 274.966 71.6167 274.85 71.9648 274.774C72.3161 274.695 72.6691 274.632 73.0237 274.585C73.4877 274.526 73.8639 274.481 74.1523 274.451C74.4439 274.418 74.656 274.363 74.7886 274.287C74.9245 274.211 74.9925 274.078 74.9925 273.889V273.849C74.9925 273.359 74.8582 272.978 74.5898 272.706C74.3246 272.434 73.9219 272.298 73.3817 272.298C72.8215 272.298 72.3824 272.421 72.0642 272.666C71.746 272.911 71.5223 273.173 71.393 273.452L70.2794 273.054C70.4782 272.59 70.7434 272.229 71.0748 271.97C71.4096 271.708 71.7742 271.526 72.1686 271.423C72.5663 271.317 72.9574 271.264 73.3419 271.264C73.5872 271.264 73.8689 271.294 74.1871 271.354C74.5086 271.41 74.8184 271.528 75.1167 271.707C75.4184 271.886 75.6686 272.156 75.8675 272.517C76.0663 272.878 76.1657 273.362 76.1657 273.969V279H74.9925V277.966H74.9328C74.8532 278.132 74.7207 278.309 74.5351 278.498C74.3495 278.687 74.1025 278.848 73.7943 278.98C73.4861 279.113 73.1099 279.179 72.6657 279.179ZM72.8447 278.125C73.3087 278.125 73.6998 278.034 74.018 277.852C74.3395 277.669 74.5815 277.434 74.7439 277.146C74.9096 276.857 74.9925 276.554 74.9925 276.236V275.162C74.9427 275.222 74.8334 275.276 74.6643 275.326C74.4986 275.372 74.3064 275.414 74.0876 275.45C73.8722 275.483 73.6617 275.513 73.4562 275.54C73.2541 275.563 73.09 275.583 72.964 275.599C72.6591 275.639 72.3741 275.704 72.1089 275.793C71.8471 275.879 71.635 276.01 71.4726 276.186C71.3135 276.358 71.2339 276.594 71.2339 276.892C71.2339 277.3 71.3847 277.608 71.6863 277.817C71.9913 278.022 72.3774 278.125 72.8447 278.125ZM85.6453 271.364V272.358H81.5289V271.364H85.6453ZM82.7618 279V270.31C82.7618 269.872 82.8646 269.508 83.07 269.216C83.2755 268.924 83.5423 268.705 83.8705 268.56C84.1986 268.414 84.545 268.341 84.9095 268.341C85.1979 268.341 85.4332 268.364 85.6155 268.411C85.7978 268.457 85.9337 268.5 86.0232 268.54L85.6851 269.554C85.6254 269.534 85.5426 269.509 85.4365 269.479C85.3338 269.45 85.1979 269.435 85.0289 269.435C84.6411 269.435 84.361 269.532 84.1887 269.728C84.0196 269.924 83.9351 270.21 83.9351 270.588V279H82.7618ZM87.2897 279V271.364H88.463V279H87.2897ZM87.8863 270.091C87.6576 270.091 87.4604 270.013 87.2947 269.857C87.1323 269.701 87.051 269.514 87.051 269.295C87.051 269.077 87.1323 268.889 87.2947 268.734C87.4604 268.578 87.6576 268.5 87.8863 268.5C88.115 268.5 88.3105 268.578 88.4729 268.734C88.6386 268.889 88.7215 269.077 88.7215 269.295C88.7215 269.514 88.6386 269.701 88.4729 269.857C88.3105 270.013 88.115 270.091 87.8863 270.091ZM91.7852 268.818V279H90.6119V268.818H91.7852ZM97.1359 279.159C96.4001 279.159 95.7654 278.997 95.2318 278.672C94.7015 278.344 94.2922 277.886 94.0038 277.3C93.7188 276.71 93.5763 276.024 93.5763 275.241C93.5763 274.459 93.7188 273.77 94.0038 273.173C94.2922 272.573 94.6932 272.106 95.2069 271.771C95.724 271.433 96.3272 271.264 97.0166 271.264C97.4143 271.264 97.8071 271.33 98.1949 271.463C98.5827 271.596 98.9356 271.811 99.2538 272.109C99.572 272.404 99.8256 272.795 100.014 273.283C100.203 273.77 100.298 274.37 100.298 275.082V275.58H94.4115V274.565H99.1047C99.1047 274.134 99.0185 273.75 98.8461 273.412C98.6771 273.074 98.4352 272.807 98.1203 272.612C97.8087 272.416 97.4408 272.318 97.0166 272.318C96.5493 272.318 96.1449 272.434 95.8035 272.666C95.4655 272.895 95.2053 273.193 95.023 273.561C94.8407 273.929 94.7496 274.323 94.7496 274.744V275.42C94.7496 275.997 94.849 276.486 95.0479 276.887C95.25 277.285 95.5301 277.588 95.8881 277.797C96.246 278.002 96.662 278.105 97.1359 278.105C97.4442 278.105 97.7226 278.062 97.9711 277.976C98.223 277.886 98.4401 277.754 98.6224 277.578C98.8047 277.399 98.9456 277.177 99.045 276.912L100.179 277.23C100.059 277.615 99.8587 277.953 99.577 278.244C99.2952 278.533 98.9472 278.758 98.5329 278.92C98.1186 279.08 97.653 279.159 97.1359 279.159ZM106.02 279V271.364H107.193V279H106.02ZM106.617 270.091C106.388 270.091 106.191 270.013 106.025 269.857C105.863 269.701 105.782 269.514 105.782 269.295C105.782 269.077 105.863 268.889 106.025 268.734C106.191 268.578 106.388 268.5 106.617 268.5C106.845 268.5 107.041 268.578 107.203 268.734C107.369 268.889 107.452 269.077 107.452 269.295C107.452 269.514 107.369 269.701 107.203 269.857C107.041 270.013 106.845 270.091 106.617 270.091ZM110.516 274.406V279H109.342V271.364H110.476V272.557H110.575C110.754 272.169 111.026 271.857 111.391 271.622C111.755 271.384 112.226 271.264 112.803 271.264C113.32 271.264 113.772 271.37 114.16 271.582C114.548 271.791 114.849 272.109 115.065 272.537C115.28 272.961 115.388 273.498 115.388 274.148V279H114.215V274.227C114.215 273.627 114.059 273.16 113.747 272.825C113.436 272.487 113.008 272.318 112.465 272.318C112.09 272.318 111.755 272.399 111.46 272.562C111.169 272.724 110.938 272.961 110.769 273.273C110.6 273.584 110.516 273.962 110.516 274.406ZM124.79 271.364V272.358H120.833V271.364H124.79ZM121.986 269.534H123.16V276.812C123.16 277.144 123.208 277.393 123.304 277.558C123.403 277.721 123.529 277.83 123.682 277.886C123.838 277.939 124.002 277.966 124.174 277.966C124.303 277.966 124.409 277.959 124.492 277.946C124.575 277.929 124.641 277.916 124.691 277.906L124.93 278.96C124.85 278.99 124.739 279.02 124.597 279.05C124.454 279.083 124.273 279.099 124.055 279.099C123.723 279.099 123.398 279.028 123.08 278.886C122.765 278.743 122.503 278.526 122.295 278.234C122.089 277.943 121.986 277.575 121.986 277.131V269.534ZM127.893 274.406V279H126.719V268.818H127.893V272.557H127.992C128.171 272.162 128.44 271.849 128.797 271.617C129.159 271.382 129.639 271.264 130.239 271.264C130.76 271.264 131.215 271.369 131.606 271.577C131.998 271.783 132.301 272.099 132.516 272.527C132.735 272.951 132.844 273.491 132.844 274.148V279H131.671V274.227C131.671 273.621 131.514 273.152 131.199 272.82C130.887 272.486 130.455 272.318 129.901 272.318C129.517 272.318 129.172 272.399 128.867 272.562C128.565 272.724 128.327 272.961 128.151 273.273C127.979 273.584 127.893 273.962 127.893 274.406ZM138.193 279.159C137.457 279.159 136.822 278.997 136.288 278.672C135.758 278.344 135.349 277.886 135.06 277.3C134.775 276.71 134.633 276.024 134.633 275.241C134.633 274.459 134.775 273.77 135.06 273.173C135.349 272.573 135.75 272.106 136.264 271.771C136.781 271.433 137.384 271.264 138.073 271.264C138.471 271.264 138.864 271.33 139.252 271.463C139.639 271.596 139.992 271.811 140.31 272.109C140.629 272.404 140.882 272.795 141.071 273.283C141.26 273.77 141.354 274.37 141.354 275.082V275.58H135.468V274.565H140.161C140.161 274.134 140.075 273.75 139.903 273.412C139.734 273.074 139.492 272.807 139.177 272.612C138.865 272.416 138.497 272.318 138.073 272.318C137.606 272.318 137.202 272.434 136.86 272.666C136.522 272.895 136.262 273.193 136.08 273.561C135.897 273.929 135.806 274.323 135.806 274.744V275.42C135.806 275.997 135.906 276.486 136.104 276.887C136.307 277.285 136.587 277.588 136.945 277.797C137.303 278.002 137.719 278.105 138.193 278.105C138.501 278.105 138.779 278.062 139.028 277.976C139.28 277.886 139.497 277.754 139.679 277.578C139.861 277.399 140.002 277.177 140.102 276.912L141.235 277.23C141.116 277.615 140.915 277.953 140.634 278.244C140.352 278.533 140.004 278.758 139.59 278.92C139.175 279.08 138.71 279.159 138.193 279.159ZM148.25 268.818V279H147.077V268.818H148.25ZM153.601 279.159C152.865 279.159 152.23 278.997 151.697 278.672C151.166 278.344 150.757 277.886 150.469 277.3C150.184 276.71 150.041 276.024 150.041 275.241C150.041 274.459 150.184 273.77 150.469 273.173C150.757 272.573 151.158 272.106 151.672 271.771C152.189 271.433 152.792 271.264 153.481 271.264C153.879 271.264 154.272 271.33 154.66 271.463C155.047 271.596 155.4 271.811 155.719 272.109C156.037 272.404 156.29 272.795 156.479 273.283C156.668 273.77 156.763 274.37 156.763 275.082V275.58H150.876V274.565H155.57C155.57 274.134 155.483 273.75 155.311 273.412C155.142 273.074 154.9 272.807 154.585 272.612C154.274 272.416 153.906 272.318 153.481 272.318C153.014 272.318 152.61 272.434 152.268 272.666C151.93 272.895 151.67 273.193 151.488 273.561C151.306 273.929 151.214 274.323 151.214 274.744V275.42C151.214 275.997 151.314 276.486 151.513 276.887C151.715 277.285 151.995 277.588 152.353 277.797C152.711 278.002 153.127 278.105 153.601 278.105C153.909 278.105 154.187 278.062 154.436 277.976C154.688 277.886 154.905 277.754 155.087 277.578C155.27 277.399 155.41 277.177 155.51 276.912L156.643 277.23C156.524 277.615 156.324 277.953 156.042 278.244C155.76 278.533 155.412 278.758 154.998 278.92C154.583 279.08 154.118 279.159 153.601 279.159ZM161.948 271.364V272.358H157.832V271.364H161.948ZM159.065 279V270.31C159.065 269.872 159.167 269.508 159.373 269.216C159.578 268.924 159.845 268.705 160.173 268.56C160.501 268.414 160.848 268.341 161.212 268.341C161.501 268.341 161.736 268.364 161.918 268.411C162.101 268.457 162.236 268.5 162.326 268.54L161.988 269.554C161.928 269.534 161.845 269.509 161.739 269.479C161.637 269.45 161.501 269.435 161.332 269.435C160.944 269.435 160.664 269.532 160.491 269.728C160.322 269.924 160.238 270.21 160.238 270.588V279H159.065ZM166.913 271.364V272.358H162.956V271.364H166.913ZM164.109 269.534H165.283V276.812C165.283 277.144 165.331 277.393 165.427 277.558C165.526 277.721 165.652 277.83 165.805 277.886C165.961 277.939 166.125 277.966 166.297 277.966C166.426 277.966 166.532 277.959 166.615 277.946C166.698 277.929 166.764 277.916 166.814 277.906L167.053 278.96C166.973 278.99 166.862 279.02 166.72 279.05C166.577 279.083 166.396 279.099 166.178 279.099C165.846 279.099 165.521 279.028 165.203 278.886C164.888 278.743 164.627 278.526 164.418 278.234C164.212 277.943 164.109 277.575 164.109 277.131V269.534ZM175.937 271.364V272.358H171.979V271.364H175.937ZM173.133 269.534H174.306V276.812C174.306 277.144 174.354 277.393 174.45 277.558C174.55 277.721 174.676 277.83 174.828 277.886C174.984 277.939 175.148 277.966 175.32 277.966C175.45 277.966 175.556 277.959 175.639 277.946C175.721 277.929 175.788 277.916 175.837 277.906L176.076 278.96C175.997 278.99 175.886 279.02 175.743 279.05C175.6 279.083 175.42 279.099 175.201 279.099C174.87 279.099 174.545 279.028 174.227 278.886C173.912 278.743 173.65 278.526 173.441 278.234C173.236 277.943 173.133 277.575 173.133 277.131V269.534ZM180.722 279.159C180.033 279.159 179.428 278.995 178.907 278.667C178.39 278.339 177.986 277.88 177.694 277.29C177.406 276.7 177.262 276.01 177.262 275.222C177.262 274.426 177.406 273.732 177.694 273.138C177.986 272.545 178.39 272.085 178.907 271.756C179.428 271.428 180.033 271.264 180.722 271.264C181.411 271.264 182.015 271.428 182.532 271.756C183.052 272.085 183.456 272.545 183.745 273.138C184.036 273.732 184.182 274.426 184.182 275.222C184.182 276.01 184.036 276.7 183.745 277.29C183.456 277.88 183.052 278.339 182.532 278.667C182.015 278.995 181.411 279.159 180.722 279.159ZM180.722 278.105C181.246 278.105 181.677 277.971 182.015 277.702C182.353 277.434 182.603 277.081 182.765 276.643C182.928 276.206 183.009 275.732 183.009 275.222C183.009 274.711 182.928 274.236 182.765 273.795C182.603 273.354 182.353 272.998 182.015 272.726C181.677 272.454 181.246 272.318 180.722 272.318C180.198 272.318 179.767 272.454 179.429 272.726C179.091 272.998 178.841 273.354 178.679 273.795C178.516 274.236 178.435 274.711 178.435 275.222C178.435 275.732 178.516 276.206 178.679 276.643C178.841 277.081 179.091 277.434 179.429 277.702C179.767 277.971 180.198 278.105 180.722 278.105ZM192.794 279.159C192.158 279.159 191.596 278.998 191.109 278.677C190.622 278.352 190.241 277.895 189.965 277.305C189.69 276.711 189.553 276.01 189.553 275.202C189.553 274.4 189.69 273.704 189.965 273.114C190.241 272.524 190.623 272.068 191.114 271.746C191.604 271.425 192.171 271.264 192.814 271.264C193.311 271.264 193.704 271.347 193.992 271.513C194.284 271.675 194.506 271.861 194.659 272.07C194.814 272.275 194.935 272.444 195.022 272.577H195.121V268.818H196.294V279H195.161V277.827H195.022C194.935 277.966 194.813 278.142 194.654 278.354C194.495 278.562 194.268 278.75 193.973 278.915C193.678 279.078 193.285 279.159 192.794 279.159ZM192.953 278.105C193.424 278.105 193.822 277.982 194.147 277.737C194.471 277.489 194.718 277.146 194.887 276.708C195.056 276.267 195.141 275.759 195.141 275.182C195.141 274.612 195.058 274.113 194.892 273.685C194.727 273.254 194.481 272.92 194.157 272.681C193.832 272.439 193.431 272.318 192.953 272.318C192.456 272.318 192.042 272.446 191.71 272.701C191.382 272.953 191.135 273.296 190.97 273.73C190.807 274.161 190.726 274.645 190.726 275.182C190.726 275.725 190.809 276.219 190.975 276.663C191.144 277.104 191.392 277.455 191.72 277.717C192.052 277.976 192.463 278.105 192.953 278.105ZM198.606 279V271.364H199.779V279H198.606ZM199.203 270.091C198.974 270.091 198.777 270.013 198.611 269.857C198.449 269.701 198.367 269.514 198.367 269.295C198.367 269.077 198.449 268.889 198.611 268.734C198.777 268.578 198.974 268.5 199.203 268.5C199.431 268.5 199.627 268.578 199.789 268.734C199.955 268.889 200.038 269.077 200.038 269.295C200.038 269.514 199.955 269.701 199.789 269.857C199.627 270.013 199.431 270.091 199.203 270.091ZM205.329 271.364V272.358H201.212V271.364H205.329ZM202.445 279V270.31C202.445 269.872 202.548 269.508 202.754 269.216C202.959 268.924 203.226 268.705 203.554 268.56C203.882 268.414 204.229 268.341 204.593 268.341C204.881 268.341 205.117 268.364 205.299 268.411C205.481 268.457 205.617 268.5 205.707 268.54L205.369 269.554C205.309 269.534 205.226 269.509 205.12 269.479C205.017 269.45 204.881 269.435 204.712 269.435C204.325 269.435 204.045 269.532 203.872 269.728C203.703 269.924 203.619 270.21 203.619 270.588V279H202.445ZM210.374 271.364V272.358H206.257V271.364H210.374ZM207.49 279V270.31C207.49 269.872 207.593 269.508 207.799 269.216C208.004 268.924 208.271 268.705 208.599 268.56C208.927 268.414 209.273 268.341 209.638 268.341C209.926 268.341 210.162 268.364 210.344 268.411C210.526 268.457 210.662 268.5 210.752 268.54L210.414 269.554C210.354 269.534 210.271 269.509 210.165 269.479C210.062 269.45 209.926 269.435 209.757 269.435C209.37 269.435 209.09 269.532 208.917 269.728C208.748 269.924 208.664 270.21 208.664 270.588V279H207.49ZM219.058 279.159C218.342 279.159 217.726 278.99 217.209 278.652C216.691 278.314 216.294 277.848 216.015 277.255C215.737 276.662 215.598 275.984 215.598 275.222C215.598 274.446 215.74 273.762 216.025 273.168C216.314 272.572 216.715 272.106 217.228 271.771C217.745 271.433 218.349 271.264 219.038 271.264C219.575 271.264 220.059 271.364 220.49 271.562C220.921 271.761 221.274 272.04 221.549 272.398C221.824 272.756 221.995 273.173 222.061 273.651H220.888C220.798 273.303 220.599 272.994 220.291 272.726C219.986 272.454 219.575 272.318 219.058 272.318C218.601 272.318 218.2 272.437 217.855 272.676C217.513 272.911 217.247 273.245 217.054 273.675C216.866 274.103 216.771 274.605 216.771 275.182C216.771 275.772 216.864 276.286 217.049 276.723C217.238 277.161 217.504 277.5 217.845 277.742C218.19 277.984 218.594 278.105 219.058 278.105C219.363 278.105 219.64 278.052 219.888 277.946C220.137 277.84 220.347 277.688 220.52 277.489C220.692 277.29 220.815 277.051 220.888 276.773H222.061C221.995 277.223 221.83 277.629 221.569 277.991C221.31 278.349 220.967 278.634 220.54 278.846C220.115 279.055 219.621 279.159 219.058 279.159ZM224.949 274.406V279H223.776V268.818H224.949V272.557H225.049C225.228 272.162 225.496 271.849 225.854 271.617C226.215 271.382 226.696 271.264 227.296 271.264C227.816 271.264 228.272 271.369 228.663 271.577C229.054 271.783 229.357 272.099 229.573 272.527C229.792 272.951 229.901 273.491 229.901 274.148V279H228.728V274.227C228.728 273.621 228.57 273.152 228.255 272.82C227.944 272.486 227.511 272.318 226.958 272.318C226.573 272.318 226.229 272.399 225.924 272.562C225.622 272.724 225.383 272.961 225.208 273.273C225.035 273.584 224.949 273.962 224.949 274.406ZM234.295 279.179C233.811 279.179 233.372 279.088 232.977 278.906C232.583 278.72 232.27 278.453 232.038 278.105C231.806 277.754 231.69 277.33 231.69 276.832C231.69 276.395 231.776 276.04 231.948 275.768C232.12 275.493 232.351 275.278 232.639 275.122C232.927 274.966 233.246 274.85 233.594 274.774C233.945 274.695 234.298 274.632 234.653 274.585C235.117 274.526 235.493 274.481 235.781 274.451C236.073 274.418 236.285 274.363 236.418 274.287C236.553 274.211 236.621 274.078 236.621 273.889V273.849C236.621 273.359 236.487 272.978 236.219 272.706C235.954 272.434 235.551 272.298 235.011 272.298C234.45 272.298 234.011 272.421 233.693 272.666C233.375 272.911 233.151 273.173 233.022 273.452L231.908 273.054C232.107 272.59 232.372 272.229 232.704 271.97C233.039 271.708 233.403 271.526 233.797 271.423C234.195 271.317 234.586 271.264 234.971 271.264C235.216 271.264 235.498 271.294 235.816 271.354C236.137 271.41 236.447 271.528 236.746 271.707C237.047 271.886 237.297 272.156 237.496 272.517C237.695 272.878 237.795 273.362 237.795 273.969V279H236.621V277.966H236.562C236.482 278.132 236.35 278.309 236.164 278.498C235.978 278.687 235.731 278.848 235.423 278.98C235.115 279.113 234.739 279.179 234.295 279.179ZM234.474 278.125C234.938 278.125 235.329 278.034 235.647 277.852C235.968 277.669 236.21 277.434 236.373 277.146C236.539 276.857 236.621 276.554 236.621 276.236V275.162C236.572 275.222 236.462 275.276 236.293 275.326C236.128 275.372 235.935 275.414 235.717 275.45C235.501 275.483 235.291 275.513 235.085 275.54C234.883 275.563 234.719 275.583 234.593 275.599C234.288 275.639 234.003 275.704 233.738 275.793C233.476 275.879 233.264 276.01 233.101 276.186C232.942 276.358 232.863 276.594 232.863 276.892C232.863 277.3 233.014 277.608 233.315 277.817C233.62 278.022 234.006 278.125 234.474 278.125ZM241.109 274.406V279H239.936V271.364H241.07V272.557H241.169C241.348 272.169 241.62 271.857 241.984 271.622C242.349 271.384 242.82 271.264 243.396 271.264C243.913 271.264 244.366 271.37 244.754 271.582C245.141 271.791 245.443 272.109 245.658 272.537C245.874 272.961 245.982 273.498 245.982 274.148V279H244.808V274.227C244.808 273.627 244.653 273.16 244.341 272.825C244.029 272.487 243.602 272.318 243.058 272.318C242.684 272.318 242.349 272.399 242.054 272.562C241.762 272.724 241.532 272.961 241.363 273.273C241.194 273.584 241.109 273.962 241.109 274.406ZM251.208 282.023C250.641 282.023 250.154 281.95 249.746 281.804C249.339 281.661 248.999 281.473 248.727 281.237C248.459 281.005 248.245 280.757 248.086 280.491L249.021 279.835C249.127 279.974 249.261 280.134 249.423 280.312C249.586 280.495 249.808 280.652 250.089 280.785C250.374 280.921 250.747 280.989 251.208 280.989C251.824 280.989 252.333 280.839 252.734 280.541C253.135 280.243 253.336 279.776 253.336 279.139V277.588H253.236C253.15 277.727 253.028 277.9 252.869 278.105C252.713 278.307 252.487 278.488 252.192 278.647C251.901 278.803 251.506 278.881 251.009 278.881C250.393 278.881 249.839 278.735 249.349 278.443C248.861 278.152 248.475 277.727 248.19 277.17C247.909 276.614 247.768 275.937 247.768 275.142C247.768 274.36 247.905 273.679 248.18 273.099C248.455 272.515 248.838 272.065 249.329 271.746C249.819 271.425 250.386 271.264 251.029 271.264C251.526 271.264 251.921 271.347 252.212 271.513C252.507 271.675 252.733 271.861 252.888 272.07C253.047 272.275 253.17 272.444 253.256 272.577H253.376V271.364H254.509V279.219C254.509 279.875 254.36 280.409 254.062 280.82C253.767 281.234 253.369 281.537 252.869 281.729C252.371 281.925 251.818 282.023 251.208 282.023ZM251.168 277.827C251.639 277.827 252.037 277.719 252.361 277.504C252.686 277.288 252.933 276.978 253.102 276.574C253.271 276.17 253.356 275.686 253.356 275.122C253.356 274.572 253.273 274.086 253.107 273.665C252.941 273.245 252.696 272.915 252.371 272.676C252.047 272.437 251.646 272.318 251.168 272.318C250.671 272.318 250.257 272.444 249.925 272.696C249.597 272.948 249.35 273.286 249.185 273.71C249.022 274.134 248.941 274.605 248.941 275.122C248.941 275.652 249.024 276.121 249.19 276.529C249.359 276.933 249.607 277.252 249.935 277.484C250.267 277.712 250.678 277.827 251.168 277.827ZM259.859 279.159C259.123 279.159 258.488 278.997 257.954 278.672C257.424 278.344 257.015 277.886 256.726 277.3C256.441 276.71 256.299 276.024 256.299 275.241C256.299 274.459 256.441 273.77 256.726 273.173C257.015 272.573 257.416 272.106 257.93 271.771C258.447 271.433 259.05 271.264 259.739 271.264C260.137 271.264 260.53 271.33 260.918 271.463C261.305 271.596 261.658 271.811 261.976 272.109C262.295 272.404 262.548 272.795 262.737 273.283C262.926 273.77 263.021 274.37 263.021 275.082V275.58H257.134V274.565H261.827C261.827 274.134 261.741 273.75 261.569 273.412C261.4 273.074 261.158 272.807 260.843 272.612C260.531 272.416 260.164 272.318 259.739 272.318C259.272 272.318 258.868 272.434 258.526 272.666C258.188 272.895 257.928 273.193 257.746 273.561C257.563 273.929 257.472 274.323 257.472 274.744V275.42C257.472 275.997 257.572 276.486 257.771 276.887C257.973 277.285 258.253 277.588 258.611 277.797C258.969 278.002 259.385 278.105 259.859 278.105C260.167 278.105 260.445 278.062 260.694 277.976C260.946 277.886 261.163 277.754 261.345 277.578C261.527 277.399 261.668 277.177 261.768 276.912L262.901 277.23C262.782 277.615 262.581 277.953 262.3 278.244C262.018 278.533 261.67 278.758 261.256 278.92C260.841 279.08 260.376 279.159 259.859 279.159ZM270.214 273.074L269.16 273.372C269.094 273.196 268.996 273.026 268.867 272.86C268.741 272.691 268.569 272.552 268.35 272.442C268.131 272.333 267.851 272.278 267.51 272.278C267.043 272.278 266.653 272.386 266.342 272.602C266.033 272.814 265.879 273.084 265.879 273.412C265.879 273.704 265.985 273.934 266.197 274.103C266.409 274.272 266.741 274.413 267.192 274.526L268.325 274.804C269.008 274.97 269.517 275.223 269.851 275.565C270.186 275.903 270.354 276.339 270.354 276.872C270.354 277.31 270.228 277.701 269.976 278.045C269.727 278.39 269.379 278.662 268.932 278.861C268.484 279.06 267.964 279.159 267.371 279.159C266.592 279.159 265.947 278.99 265.437 278.652C264.926 278.314 264.603 277.82 264.467 277.17L265.581 276.892C265.687 277.303 265.887 277.611 266.182 277.817C266.481 278.022 266.87 278.125 267.351 278.125C267.898 278.125 268.332 278.009 268.653 277.777C268.978 277.542 269.141 277.26 269.141 276.932C269.141 276.667 269.048 276.445 268.862 276.266C268.677 276.083 268.391 275.947 268.007 275.858L266.734 275.56C266.035 275.394 265.521 275.137 265.193 274.789C264.868 274.438 264.706 273.999 264.706 273.472C264.706 273.041 264.827 272.66 265.069 272.328C265.314 271.997 265.647 271.737 266.068 271.548C266.492 271.359 266.973 271.264 267.51 271.264C268.266 271.264 268.859 271.43 269.29 271.761C269.724 272.093 270.032 272.53 270.214 273.074Z" fill="#ACACAC"/>
</svg>
