<svg width="17" height="17" viewBox="0 0 17 17" fill="none" xmlns="http://www.w3.org/2000/svg">
    <path
        d="M13.9517 6.71487C13.6299 7.00996 13.4349 7.39694 13.3726 7.80171L9.50497 8.22833C9.34999 7.97406 9.15104 7.75032 8.91772 7.56789L9.72876 3.70378C10.1316 3.68197 10.5305 3.52431 10.8523 3.22922C11.5997 2.54378 11.6586 1.36986 10.9836 0.610817C10.3087 -0.14823 9.15278 -0.208048 8.40537 0.477392C7.65796 1.16283 7.59905 2.33675 8.27399 3.0958C8.39226 3.2288 8.52349 3.33951 8.66656 3.42895L7.89749 7.10053C7.17325 6.95914 6.39348 7.15177 5.803 7.69329C4.80495 8.60859 4.72656 10.1709 5.62783 11.1845C6.5291 12.1981 8.06747 12.2777 9.06553 11.3624C9.656 10.8209 9.92397 10.0527 9.85908 9.30658L13.5338 8.9028C13.6069 9.05643 13.703 9.20142 13.8203 9.33328C14.4952 10.0923 15.6511 10.1521 16.3985 9.4667C17.146 8.78126 17.2049 7.60734 16.5299 6.8483C15.855 6.08925 14.6991 6.02943 13.9517 6.71487ZM9.09865 1.25708C9.42268 0.959915 9.9233 0.985821 10.2159 1.31489C10.5085 1.64397 10.483 2.15237 10.159 2.44954C9.83494 2.7467 9.33433 2.72079 9.04172 2.39172C8.74912 2.06265 8.77463 1.55424 9.09865 1.25708ZM8.33146 10.5368C7.78388 11.039 6.9352 10.9951 6.44073 10.439C5.94625 9.8829 5.9895 9.02101 6.53707 8.51884C7.08465 8.01667 7.93333 8.06058 8.4278 8.61668C8.92228 9.17278 8.87903 10.0347 8.33146 10.5368ZM15.7053 8.68702C15.3812 8.98418 14.8806 8.95827 14.588 8.6292C14.2954 8.30013 14.3209 7.79172 14.6449 7.49456C14.969 7.19739 15.4696 7.2233 15.7622 7.55237C16.0548 7.88145 16.0293 8.38985 15.7053 8.68702Z"
        fill="#177DDC" />
    <path d="M1 0V16" stroke="#177DDC" />
    <path d="M1 16L17 16" stroke="#177DDC" />
</svg>