<svg width="100" height="100" viewBox="0 0 100 100" fill="none" xmlns="http://www.w3.org/2000/svg">
<rect width="100" height="100" rx="4" fill="#293235"/>
<path d="M40.0221 38.6781L40.0721 38.725L39.6127 39.1844C39.2793 39.5157 38.9521 39.8532 38.6314 40.1969C38.0158 40.8625 37.4689 41.6094 37.4158 41.8219H40.2596C40.3244 41.825 40.389 41.8127 40.4482 41.7861C40.5074 41.7595 40.5595 41.7193 40.6002 41.6688C42.8478 39.1973 45.9719 37.7015 49.3064 37.5C51.2364 37.377 53.1694 37.6881 54.9633 38.4106C56.7571 39.1332 58.3662 40.2486 59.6721 41.675C59.7038 41.7195 59.7454 41.756 59.7937 41.7815C59.842 41.807 59.8956 41.8208 59.9502 41.8219L61.8096 41.8188H62.7314C62.7811 41.8132 62.8302 41.8038 62.8783 41.7906C62.2082 40.8045 61.4271 39.8985 60.5502 39.0906L60.5908 39.05C61.4918 38.3375 62.2544 37.4658 62.8408 36.4781C63.2627 35.8125 63.5814 35.0844 63.7783 34.3219C63.8539 34.0261 63.8771 33.7194 63.8471 33.4156C63.8064 33.0031 63.5783 32.6563 63.0283 32.7219C62.9187 32.734 62.8108 32.7581 62.7064 32.7938C62.3289 32.9305 61.9795 33.1349 61.6752 33.3969C60.3664 34.4797 59.3715 35.8932 58.7939 37.4906L58.7502 37.5844L58.7314 37.6188C58.5627 37.525 58.3939 37.425 58.2314 37.3281C57.8502 37.1094 57.4814 36.8906 57.0939 36.6969C56.5314 36.4156 55.9564 36.1656 55.3658 35.9469C54.3704 35.5907 53.3426 35.3322 52.2971 35.175C52.1064 35.1438 51.9158 35.1125 51.7252 35.075C52.1327 33.5627 52.1734 31.975 51.8439 30.4438C51.7546 29.9964 51.5998 29.5647 51.3846 29.1625C51.2698 28.9234 51.0941 28.7186 50.8752 28.5688C50.7714 28.4979 50.6484 28.4605 50.5227 28.4616C50.397 28.4628 50.2746 28.5023 50.1721 28.575C50.0684 28.6453 49.9748 28.7294 49.8939 28.825C49.6811 29.0887 49.5189 29.3897 49.4158 29.7125C49.2033 30.3281 49.0721 30.9688 49.0252 31.6188C48.9187 32.7431 49.0064 33.8773 49.2846 34.9719L49.2971 35.0438C46.7929 35.1821 44.3602 35.9286 42.2096 37.2188L42.1814 37.1969C42.173 37.1909 42.1656 37.1835 42.1596 37.175C41.7021 36.0653 41.0454 35.0485 40.2221 34.175C39.7872 33.6711 39.264 33.2507 38.6783 32.9344C38.5194 32.8513 38.3517 32.7863 38.1783 32.7406C37.6252 32.6063 37.2471 32.8938 37.2096 33.4594L37.2064 33.5313V33.5813C37.1846 34.0188 37.2939 34.4313 37.4377 34.8375C37.9564 36.2875 38.8096 37.5125 39.9127 38.575L40.0221 38.6781ZM60.5502 60.9438C61.3283 60.225 62.0314 59.4281 62.6439 58.5688L62.6314 58.5156H61.7127C61.0877 58.5156 60.4627 58.5188 59.8377 58.5094C59.7398 58.5051 59.6421 58.5221 59.5514 58.5593C59.4608 58.5966 59.3793 58.6531 59.3127 58.725C56.3439 61.625 52.7939 62.875 48.6721 62.475C47.1541 62.3186 45.6788 61.8798 44.3221 61.1813C43.0401 60.5369 41.875 59.6823 40.8752 58.6531C40.8352 58.6067 40.7851 58.5699 40.7288 58.5456C40.6725 58.5212 40.6115 58.5099 40.5502 58.5125L38.6252 58.5156H37.7908C37.7238 58.5152 37.6569 58.5205 37.5908 58.5313C38.3096 59.5406 39.1439 60.4594 40.0814 61.2719C40.0729 61.2916 40.0624 61.3105 40.0502 61.3281L39.9721 61.4L39.9283 61.4438C38.9356 62.3729 38.1461 63.4975 37.6096 64.7469C37.4278 65.1446 37.3006 65.5651 37.2314 65.9969C37.1691 66.3032 37.1907 66.6206 37.2939 66.9156C37.3319 67.0155 37.395 67.104 37.4771 67.1724C37.5592 67.2408 37.6576 67.2869 37.7627 67.3063C37.9564 67.3375 38.1533 67.3188 38.3346 67.2438C38.7197 67.1077 39.0766 66.9022 39.3877 66.6375C40.5627 65.6594 41.4908 64.4188 42.0908 63.0125L42.1533 62.875L42.1877 62.8C44.3359 64.095 46.7677 64.8459 49.2721 64.9875L49.2814 65.0188C49.2877 65.0344 49.2908 65.0438 49.2877 65.05C49.1255 65.6438 49.0301 66.2538 49.0033 66.8688C48.9533 67.6438 48.9939 68.4219 49.1221 69.1844C49.2221 69.7469 49.3596 70.2969 49.6283 70.8C49.7221 70.9781 49.8377 71.1438 49.9721 71.2938C50.3096 71.6625 50.7252 71.6594 51.0752 71.3C51.155 71.2226 51.2234 71.1342 51.2783 71.0375C51.4158 70.7906 51.5377 70.5375 51.6439 70.275C51.8627 69.6406 51.9939 68.9781 52.0314 68.3063C52.1296 67.1948 52.0323 66.0748 51.7439 64.9969L51.7314 64.9281C52.5689 64.8344 53.3971 64.6781 54.2096 64.4594C55.0064 64.2344 55.7877 63.95 56.5439 63.6063C57.3023 63.2523 58.0334 62.8429 58.7314 62.3813L58.7596 62.45L58.7939 62.5438C59.3689 64.1438 60.3658 65.5563 61.6783 66.6313C61.9283 66.8313 62.1939 67 62.4814 67.1406C62.6689 67.2313 62.8658 67.2906 63.0752 67.3156C63.2269 67.3422 63.383 67.3123 63.5143 67.2318C63.6455 67.1512 63.7427 67.0254 63.7877 66.8781C63.8222 66.7729 63.8432 66.6637 63.8502 66.5531C63.8767 66.1246 63.8117 65.6953 63.6596 65.2938C63.0843 63.6449 62.0644 62.187 60.7127 61.0813L60.5502 60.9438ZM58.8127 45.4281L59.0377 45.4313C59.2033 45.4344 59.3658 45.4406 59.5252 45.425C59.7877 45.4 59.9752 45.4938 60.1658 45.6719C60.9971 46.4375 61.8346 47.1969 62.6721 47.9531L63.4971 48.7031C63.5314 48.7344 63.5721 48.7656 63.6127 48.8063L63.6814 48.8656L63.7439 48.8094L63.8689 48.7L67.3064 45.5688C67.3536 45.5201 67.4106 45.4821 67.4737 45.4573C67.5368 45.4325 67.6044 45.4215 67.6721 45.425C67.9594 45.4361 68.2471 45.4372 68.5346 45.4281V54.6469C67.7291 54.6949 66.9215 54.697 66.1158 54.6531V49.9844L66.0689 49.9625L63.6846 52.1375L61.2814 49.9719L61.2346 49.9875V54.6719H58.8346C58.7908 54.5156 58.7721 45.9531 58.8158 45.4281H58.8127ZM39.0533 45.4375H36.6689V48.7063C35.6798 48.7511 34.689 48.747 33.7002 48.6938V45.4438H31.2939V54.6531C31.4939 54.7 33.5314 54.6969 33.7127 54.6406V51.1656H36.6689V53.4875C36.6689 53.8813 36.6658 54.2781 36.6752 54.675H39.0627C39.1127 54.45 39.1033 45.5906 39.0533 45.4375ZM41.9127 54.6688V45.4688C42.0533 45.425 47.2971 45.4063 47.6408 45.4531V47.4125L47.5939 47.4188H47.5689C47.5149 47.4243 47.4607 47.4275 47.4064 47.4281H44.3439V48.9563H47.2627V50.9875H44.3689C44.3166 51.559 44.3093 52.1337 44.3471 52.7063L44.4189 52.7094C44.4721 52.7156 44.5252 52.7188 44.5814 52.7188H47.6408V54.6719L41.9127 54.6688ZM50.3846 45.4375C50.3408 45.6094 50.3314 54.425 50.3752 54.6719H56.1002V52.2594H53.0221L52.8564 52.25L52.7627 52.2438V45.4406L50.3846 45.4375Z" fill="#5E6F75"/>
</svg>
