<svg width="344" height="78" viewBox="0 0 344 78" fill="none" xmlns="http://www.w3.org/2000/svg">
<path d="M91.3199 78H2.96927C2.18205 77.9991 1.42733 77.6855 0.870686 77.128C0.314038 76.5704 0.000912947 75.8146 0 75.0261V2.97389C0.0009141 2.18544 0.314038 1.42955 0.870686 0.87204C1.42733 0.314527 2.18205 0.000915521 2.96927 0H91.3199C92.1071 0.000914367 92.8618 0.314526 93.4185 0.87204C93.9751 1.42955 94.2882 2.18544 94.2891 2.97389V75.0261C94.2882 75.8146 93.9751 76.5704 93.4185 77.128C92.8618 77.6855 92.1071 77.9991 91.3199 78Z" fill="#272727"/>
<path d="M4.97256 2.11676C4.21426 2.11764 3.48726 2.41974 2.95106 2.95679C2.41487 3.49384 2.11326 4.22198 2.11241 4.98147V73.0203C2.11331 73.7797 2.41493 74.5078 2.95112 75.0448C3.48732 75.5818 4.21429 75.8839 4.97256 75.8848H65.4451C72.5324 75.8767 79.3272 73.0534 84.3387 68.0341C89.3502 63.0148 92.1692 56.2094 92.1772 49.1111V4.98147C92.1764 4.22198 91.8748 3.49384 91.3386 2.95679C90.8024 2.41974 90.0754 2.11764 89.3171 2.11676L4.97256 2.11676Z" fill="#020202"/>
<line x1="1.99973" y1="9.54756" x2="91.9193" y2="9.54755" stroke="#343434"/>
<line x1="9.70291" y1="75.9886" x2="9.70291" y2="10.0475" stroke="#343434"/>
<line x1="37.152" y1="75.9886" x2="37.152" y2="10.0475" stroke="#343434"/>
<line x1="65.5477" y1="75.9886" x2="65.5477" y2="10.0475" stroke="#343434"/>
<path fill-rule="evenodd" clip-rule="evenodd" d="M6.57459 7.83901C7.70721 7.83901 8.62538 6.92084 8.62538 5.78822C8.62538 4.65559 7.70721 3.73742 6.57459 3.73742C5.44196 3.73742 4.52379 4.65559 4.52379 5.78822C4.52379 6.92084 5.44196 7.83901 6.57459 7.83901ZM6.34669 6.92753C7.10177 6.92753 7.71389 6.31542 7.71389 5.56034C7.71389 4.80525 7.10177 4.19314 6.34669 4.19314C5.59161 4.19314 4.97949 4.80525 4.97949 5.56034C4.97949 6.31542 5.59161 6.92753 6.34669 6.92753Z" fill="url(#paint0_linear_29_1913)"/>
<rect x="3.57726" y="12.2561" width="5.04812" height="5.04812" rx="2.52406" fill="#272727"/>
<rect x="12.727" y="12.2561" width="22.0855" height="10.7272" rx="4" fill="#272727"/>
<rect x="40.1761" y="12.2561" width="23.032" height="61.2084" rx="4" fill="#272727"/>
<rect x="12.727" y="24.8764" width="22.0855" height="10.7272" rx="4" fill="#272727"/>
<rect x="68.8873" y="12.2561" width="20.508" height="30.2887" rx="4" fill="#272727"/>
<rect x="30.3954" y="3.73742" width="43.54" height="4.10159" rx="2.0508" fill="#272727"/>
<rect x="12.727" y="37.4967" width="22.0855" height="10.7272" rx="4" fill="#272727"/>
<rect x="3.57726" y="18.8818" width="5.04812" height="5.04812" rx="2.52406" fill="#272727"/>
<rect x="3.57726" y="25.5074" width="5.04812" height="5.04812" rx="2.52406" fill="#272727"/>
<path d="M111.28 61.0076V7.95467L53 52L111.28 61.0076Z" fill="#585858" fill-opacity="0.7"/>
<rect x="206.127" y="29.6" width="39.8" height="39.8" rx="2.5" stroke="#444444"/>
<rect x="252.027" y="29.6" width="39.8" height="39.8" rx="2.5" stroke="#444444"/>
<rect x="297.927" y="29.6" width="39.8" height="39.8" rx="2.5" stroke="#444444"/>
<path d="M223.902 45.25H228.152V43.6562C228.152 42.9208 228.37 42.2018 228.779 41.5902C229.187 40.9787 229.768 40.502 230.448 40.2206C231.127 39.9391 231.875 39.8655 232.596 40.009C233.318 40.1524 233.98 40.5066 234.5 41.0267C235.02 41.5468 235.374 42.2094 235.518 42.9308C235.661 43.6521 235.588 44.3998 235.306 45.0794C235.025 45.7589 234.548 46.3397 233.937 46.7483C233.325 47.1569 232.606 47.375 231.871 47.375H230.277V51.625H231.871C232.606 51.625 233.325 51.8431 233.937 52.2517C234.548 52.6603 235.025 53.2411 235.306 53.9206C235.588 54.6002 235.661 55.3479 235.518 56.0692C235.374 56.7906 235.02 57.4532 234.5 57.9733C233.98 58.4934 233.318 58.8476 232.596 58.991C231.875 59.1345 231.127 59.0609 230.448 58.7794C229.768 58.498 229.187 58.0213 228.779 57.4098C228.37 56.7982 228.152 56.0792 228.152 55.3437V53.75H223.902V55.3437C223.902 56.0792 223.684 56.7982 223.275 57.4098C222.867 58.0213 222.286 58.498 221.606 58.7794C220.927 59.0609 220.179 59.1345 219.458 58.991C218.736 58.8476 218.074 58.4934 217.554 57.9733C217.034 57.4532 216.679 56.7906 216.536 56.0692C216.392 55.3479 216.466 54.6002 216.748 53.9206C217.029 53.2411 217.506 52.6603 218.117 52.2517C218.729 51.8431 219.448 51.625 220.183 51.625H221.777V47.375H220.183C219.448 47.375 218.729 47.1569 218.117 46.7483C217.506 46.3397 217.029 45.7589 216.748 45.0794C216.466 44.3998 216.392 43.6521 216.536 42.9308C216.679 42.2094 217.034 41.5468 217.554 41.0267C218.074 40.5066 218.736 40.1524 219.458 40.009C220.179 39.8655 220.927 39.9391 221.606 40.2206C222.286 40.502 222.867 40.9787 223.275 41.5902C223.684 42.2018 223.902 42.9208 223.902 43.6562V45.25ZM221.777 45.25V43.6562C221.777 43.341 221.683 43.0329 221.508 42.7708C221.333 42.5087 221.084 42.3044 220.793 42.1838C220.502 42.0632 220.181 42.0316 219.872 42.0931C219.563 42.1546 219.279 42.3064 219.056 42.5293C218.833 42.7522 218.682 43.0362 218.62 43.3453C218.559 43.6545 218.59 43.9749 218.711 44.2662C218.831 44.5574 219.036 44.8063 219.298 44.9814C219.56 45.1565 219.868 45.25 220.183 45.25H221.777ZM221.777 53.75H220.183C219.868 53.75 219.56 53.8435 219.298 54.0186C219.036 54.1937 218.831 54.4426 218.711 54.7338C218.59 55.0251 218.559 55.3455 218.62 55.6547C218.682 55.9638 218.833 56.2478 219.056 56.4707C219.279 56.6936 219.563 56.8454 219.872 56.9069C220.181 56.9684 220.502 56.9368 220.793 56.8162C221.084 56.6956 221.333 56.4913 221.508 56.2292C221.683 55.9671 221.777 55.659 221.777 55.3437V53.75ZM230.277 45.25H231.871C232.186 45.25 232.494 45.1565 232.756 44.9814C233.018 44.8063 233.222 44.5574 233.343 44.2662C233.464 43.9749 233.495 43.6545 233.434 43.3453C233.372 43.0362 233.221 42.7522 232.998 42.5293C232.775 42.3064 232.491 42.1546 232.182 42.0931C231.872 42.0316 231.552 42.0632 231.261 42.1838C230.97 42.3044 230.721 42.5087 230.546 42.7708C230.37 43.0329 230.277 43.341 230.277 43.6562V45.25ZM230.277 53.75V55.3437C230.277 55.659 230.37 55.9671 230.546 56.2292C230.721 56.4913 230.97 56.6956 231.261 56.8162C231.552 56.9368 231.872 56.9684 232.182 56.9069C232.491 56.8454 232.775 56.6936 232.998 56.4707C233.221 56.2478 233.372 55.9638 233.434 55.6547C233.495 55.3455 233.464 55.0251 233.343 54.7338C233.222 54.4426 233.018 54.1937 232.756 54.0186C232.494 53.8435 232.186 53.75 231.871 53.75H230.277ZM223.902 47.375V51.625H228.152V47.375H223.902Z" fill="#444444"/>
<path d="M270.996 40.6349C271.115 40.5075 271.26 40.406 271.42 40.3366C271.58 40.2671 271.752 40.2313 271.927 40.2313C272.101 40.2313 272.274 40.2671 272.434 40.3366C272.594 40.406 272.738 40.5075 272.858 40.6349L280.948 49.2667C281.713 50.0801 281.134 51.4125 280.017 51.4125H276.389V55.2375C276.389 55.5757 276.255 55.9 276.016 56.1391C275.777 56.3782 275.453 56.5125 275.114 56.5125H268.739C268.401 56.5125 268.077 56.3782 267.838 56.1391C267.599 55.9 267.464 55.5757 267.464 55.2375V51.4125H263.836C262.721 51.4125 262.143 50.0801 262.905 49.2654L270.996 40.6349Z" fill="#444444"/>
<path d="M312.316 55.475H314.97V50.1313H320.683V55.475H323.338V42.7924H320.683V47.9428H314.97V42.7924H312.316V55.475Z" fill="#444444"/>
<rect x="105.876" y="7.95467" width="151.327" height="54.0453" rx="5" fill="url(#paint1_linear_29_1913)"/>
<rect x="111.78" y="13.8592" width="42.2363" height="42.2363" rx="2.5" fill="white" fill-opacity="0.4" stroke="white"/>
<rect x="160.421" y="13.8592" width="42.2363" height="42.2363" rx="2.5" fill="white" fill-opacity="0.4" stroke="white"/>
<rect x="209.062" y="13.8592" width="42.2363" height="42.2363" rx="2.5" fill="white" fill-opacity="0.4" stroke="white"/>
<path d="M130.646 30.4736H135.15V28.7846C135.15 28.0052 135.381 27.2433 135.814 26.5952C136.247 25.9472 136.863 25.4421 137.583 25.1438C138.303 24.8455 139.095 24.7675 139.86 24.9196C140.624 25.0716 141.326 25.4469 141.877 25.9981C142.429 26.5492 142.804 27.2514 142.956 28.0158C143.108 28.7803 143.03 29.5726 142.732 30.2927C142.433 31.0128 141.928 31.6283 141.28 32.0613C140.632 32.4943 139.87 32.7254 139.091 32.7254H137.402V37.2292H139.091C139.87 37.2292 140.632 37.4603 141.28 37.8934C141.928 38.3264 142.433 38.9419 142.732 39.6619C143.03 40.382 143.108 41.1744 142.956 41.9388C142.804 42.7033 142.429 43.4055 141.877 43.9566C141.326 44.5077 140.624 44.8831 139.86 45.0351C139.095 45.1872 138.303 45.1091 137.583 44.8109C136.863 44.5126 136.247 44.0075 135.814 43.3594C135.381 42.7114 135.15 41.9494 135.15 41.17V39.4811H130.646V41.17C130.646 41.9494 130.415 42.7114 129.982 43.3594C129.549 44.0075 128.934 44.5126 128.214 44.8109C127.493 45.1091 126.701 45.1872 125.937 45.0351C125.172 44.8831 124.47 44.5077 123.919 43.9566C123.368 43.4055 122.992 42.7033 122.84 41.9388C122.688 41.1744 122.766 40.382 123.065 39.6619C123.363 38.9419 123.868 38.3264 124.516 37.8934C125.164 37.4603 125.926 37.2292 126.705 37.2292H128.394V32.7254H126.705C125.926 32.7254 125.164 32.4943 124.516 32.0613C123.868 31.6283 123.363 31.0128 123.065 30.2927C122.766 29.5726 122.688 28.7803 122.84 28.0158C122.992 27.2514 123.368 26.5492 123.919 25.9981C124.47 25.4469 125.172 25.0716 125.937 24.9196C126.701 24.7675 127.493 24.8455 128.214 25.1438C128.934 25.4421 129.549 25.9472 129.982 26.5952C130.415 27.2433 130.646 28.0052 130.646 28.7846V30.4736ZM128.394 30.4736V28.7846C128.394 28.4506 128.295 28.1241 128.11 27.8463C127.924 27.5686 127.66 27.3521 127.352 27.2243C127.043 27.0965 126.704 27.063 126.376 27.1282C126.048 27.1933 125.747 27.3542 125.511 27.5904C125.275 27.8266 125.114 28.1275 125.049 28.4551C124.984 28.7828 125.017 29.1223 125.145 29.431C125.273 29.7396 125.489 30.0033 125.767 30.1889C126.045 30.3745 126.371 30.4736 126.705 30.4736H128.394ZM128.394 39.4811H126.705C126.371 39.4811 126.045 39.5802 125.767 39.7657C125.489 39.9513 125.273 40.2151 125.145 40.5237C125.017 40.8323 124.984 41.1719 125.049 41.4995C125.114 41.8271 125.275 42.1281 125.511 42.3643C125.747 42.6005 126.048 42.7613 126.376 42.8265C126.704 42.8917 127.043 42.8582 127.352 42.7304C127.66 42.6026 127.924 42.3861 128.11 42.1083C128.295 41.8306 128.394 41.5041 128.394 41.17V39.4811ZM137.402 30.4736H139.091C139.425 30.4736 139.751 30.3745 140.029 30.1889C140.307 30.0033 140.523 29.7396 140.651 29.431C140.779 29.1223 140.813 28.7828 140.747 28.4551C140.682 28.1275 140.521 27.8266 140.285 27.5904C140.049 27.3542 139.748 27.1933 139.42 27.1282C139.093 27.063 138.753 27.0965 138.445 27.2243C138.136 27.3521 137.872 27.5686 137.687 27.8463C137.501 28.1241 137.402 28.4506 137.402 28.7846V30.4736ZM137.402 39.4811V41.17C137.402 41.5041 137.501 41.8306 137.687 42.1083C137.872 42.3861 138.136 42.6026 138.445 42.7304C138.753 42.8582 139.093 42.8917 139.42 42.8265C139.748 42.7613 140.049 42.6005 140.285 42.3643C140.521 42.1281 140.682 41.8271 140.747 41.4995C140.813 41.1719 140.779 40.8323 140.651 40.5237C140.523 40.2151 140.307 39.9513 140.029 39.7657C139.751 39.5802 139.425 39.4811 139.091 39.4811H137.402ZM130.646 32.7254V37.2292H135.15V32.7254H130.646Z" fill="white"/>
<path d="M180.553 25.5829C180.679 25.4479 180.832 25.3403 181.001 25.2667C181.171 25.1932 181.354 25.1552 181.539 25.1552C181.724 25.1552 181.907 25.1932 182.077 25.2667C182.246 25.3403 182.399 25.4479 182.525 25.5829L191.098 34.7301C191.909 35.5921 191.296 37.004 190.112 37.004H186.268V41.0574C186.268 41.4158 186.126 41.7594 185.872 42.0128C185.619 42.2662 185.275 42.4086 184.917 42.4086H178.161C177.803 42.4086 177.459 42.2662 177.206 42.0128C176.952 41.7594 176.81 41.4158 176.81 41.0574V37.004H172.965C171.784 37.004 171.17 35.5921 171.978 34.7287L180.553 25.5829Z" fill="white"/>
<path d="M223.799 43.1149H229.804C231.358 43.1149 232.679 42.8105 233.768 42.2018C234.856 41.5859 235.691 40.6943 236.271 39.527C236.851 38.3525 237.141 36.9417 237.141 35.2946V35.2731C237.141 33.6403 236.851 32.2545 236.271 31.1158C235.691 29.9772 234.853 29.1106 233.757 28.5162C232.668 27.9147 231.351 27.6139 229.804 27.6139H223.799V43.1149ZM227.043 40.4401V30.2887H229.353C230.298 30.2887 231.104 30.4821 231.77 30.8688C232.436 31.2555 232.944 31.8248 233.295 32.5768C233.653 33.3216 233.832 34.2275 233.832 35.2946V35.316C233.832 36.4261 233.657 37.3642 233.306 38.1305C232.962 38.8896 232.457 39.4661 231.791 39.86C231.132 40.2467 230.319 40.4401 229.353 40.4401H227.043Z" fill="white"/>
<defs>
<linearGradient id="paint0_linear_29_1913" x1="5.27575" y1="4.20227" x2="7.83241" y2="7.27163" gradientUnits="userSpaceOnUse">
<stop stop-color="#3C9AE8"/>
<stop offset="1" stop-color="#84E2D8"/>
</linearGradient>
<linearGradient id="paint1_linear_29_1913" x1="130.871" y1="9.98137" x2="226.802" y2="62" gradientUnits="userSpaceOnUse">
<stop stop-color="#1990AA"/>
<stop offset="1" stop-color="#19AA5C"/>
</linearGradient>
</defs>
</svg>
