<svg width="32" height="32" viewBox="0 0 32 32" fill="none" xmlns="http://www.w3.org/2000/svg">
<path fill-rule="evenodd" clip-rule="evenodd" d="M9.99787 32C9.23207 32 8.48913 31.6503 7.99994 31.0149L0.561409 21.4789C0.316624 21.1672 0.145475 20.8043 0.0607609 20.4172C-0.0239527 20.0301 -0.0200381 19.6288 0.072212 19.2434L2.73536 7.34171C2.90452 6.55314 3.41658 5.91771 4.11837 5.568L14.8967 0.265143C15.2396 0.0868573 15.6213 0 16.0054 0C16.3894 0 16.7712 0.0868572 17.1141 0.262857L27.8878 5.54514C28.5919 5.89486 29.104 6.53257 29.2731 7.32114L31.9363 19.2229C32.1054 20.0114 31.9363 20.8229 31.4471 21.4583L24.0017 31.008C23.5125 31.6206 22.7673 32 22.0015 32H9.99787ZM27.6409 18.6629L27.7118 18.6811C27.8083 18.6941 27.901 18.7268 27.9841 18.7774C28.0673 18.828 28.139 18.8952 28.1949 18.9749C28.2507 19.0546 28.2895 19.145 28.3086 19.2404C28.3278 19.3357 28.3269 19.4341 28.3062 19.5291C28.2847 19.6247 28.2434 19.7147 28.185 19.7932C28.1265 19.8718 28.0522 19.9372 27.9669 19.9853C27.8816 20.0333 27.7871 20.0629 27.6896 20.0722C27.5921 20.0814 27.4938 20.07 27.4009 20.0389H27.3918L27.3849 20.0366L27.3781 20.0343L27.3095 20.0183L27.1952 19.9954C26.9819 19.9268 26.7728 19.8459 26.5688 19.7531C26.1752 19.5952 25.7671 19.4758 25.3504 19.3966C25.2063 19.3918 25.0661 19.4435 24.9595 19.5406C24.8599 19.5217 24.7601 19.5041 24.66 19.488C23.9821 21.6111 22.5468 23.4107 20.6276 24.544C20.6619 24.64 20.7008 24.7337 20.7442 24.8251C20.6733 24.95 20.6544 25.0979 20.6916 25.2366C20.8608 25.6251 21.0688 25.9954 21.3111 26.3429C21.4483 26.5211 21.5717 26.7086 21.686 26.9006L21.75 27.0309L21.7774 27.088C21.8538 27.2145 21.8881 27.3618 21.8755 27.509C21.8629 27.6561 21.804 27.7955 21.7073 27.9072C21.6106 28.0188 21.4811 28.097 21.3372 28.1305C21.1934 28.164 21.0426 28.1512 20.9065 28.0937C20.8159 28.0564 20.734 28.0005 20.6663 27.9296C20.5986 27.8588 20.5465 27.7745 20.5133 27.6823C20.5058 27.667 20.4981 27.6518 20.4904 27.6366L20.4264 27.504C20.3464 27.2948 20.2784 27.0811 20.223 26.864C20.1015 26.4592 19.9407 26.0672 19.7429 25.6937C19.657 25.5775 19.529 25.4996 19.3863 25.4766C19.3633 25.4363 19.3404 25.3959 19.3177 25.3554L19.2377 25.2091C17.1567 25.9951 14.8593 25.9894 12.7822 25.1931L12.6244 25.4789C12.5115 25.4962 12.4063 25.5472 12.3227 25.6251C12.085 26.0137 11.9021 26.4366 11.7809 26.8777C11.7263 27.0948 11.6592 27.3085 11.5798 27.5177L11.5226 27.632L11.4929 27.6937C11.4594 27.7853 11.4072 27.8711 11.3396 27.9414C11.272 28.0116 11.1905 28.0671 11.1003 28.1041C11.0102 28.1411 10.9132 28.1589 10.8158 28.1564C10.7183 28.1539 10.6224 28.1311 10.5343 28.0895C10.4461 28.0479 10.3676 27.9884 10.3037 27.9148C10.2398 27.8411 10.192 27.755 10.1632 27.6618C10.1345 27.5687 10.1255 27.4706 10.1367 27.3737C10.148 27.2769 10.1794 27.1835 10.2288 27.0994L10.2608 27.0309L10.3202 26.912C10.4345 26.7177 10.5579 26.5326 10.6951 26.3543C10.942 25.9977 11.1523 25.6183 11.3283 25.2206C11.3465 25.0853 11.3243 24.9477 11.2643 24.8251L11.3923 24.5211C9.48005 23.3967 8.04564 21.6112 7.35987 19.5017L7.05355 19.5543C6.93528 19.4705 6.79592 19.4214 6.65122 19.4126C6.23451 19.4918 5.82647 19.6112 5.4328 19.7691C5.22706 19.8606 5.01904 19.9406 4.80645 20.0091L4.69215 20.0343L4.62357 20.0503H4.61671L4.61214 20.0549H4.60071C4.4848 20.092 4.36123 20.0985 4.24206 20.0737C4.1229 20.0489 4.0122 19.9936 3.92078 19.9132C3.82935 19.8329 3.76033 19.7302 3.72044 19.6152C3.68055 19.5002 3.67116 19.3768 3.69318 19.2571C3.72124 19.113 3.79397 18.9813 3.90106 18.8808C4.00815 18.7803 4.14416 18.716 4.28982 18.6971L4.29896 18.6949H4.30582L4.31953 18.6903C4.3744 18.6766 4.44298 18.6583 4.49327 18.6491C4.71501 18.6194 4.93903 18.6011 5.16306 18.5966C5.58825 18.5669 6.00886 18.4983 6.41805 18.3909C6.53932 18.3131 6.64164 18.2093 6.71751 18.0869L7.01012 18.0023C6.69215 15.8013 7.20028 13.5606 8.43656 11.712L8.21482 11.5131C8.20626 11.3684 8.15715 11.229 8.07309 11.1109C7.75093 10.8346 7.40257 10.5904 7.03298 10.3817C6.8331 10.2802 6.63924 10.1672 6.45234 10.0434C6.40299 10.0071 6.35496 9.96894 6.30832 9.92914L6.29918 9.92C6.13988 9.80653 6.03211 9.63449 5.99954 9.44165C5.96697 9.24881 6.01225 9.05092 6.12545 8.89143C6.19271 8.80977 6.27825 8.74508 6.37515 8.70259C6.47204 8.66011 6.57758 8.64101 6.68322 8.64686C6.86087 8.65438 7.03146 8.71845 7.17013 8.82971L7.22042 8.86857C7.257 8.89829 7.29815 8.928 7.32558 8.95314C7.48788 9.10629 7.64333 9.27086 7.78734 9.44C8.07309 9.75314 8.38855 10.0389 8.72916 10.2903C8.85717 10.3589 9.00576 10.3726 9.14521 10.3314L9.39666 10.5097C10.9273 8.88648 13.0063 7.88946 15.2304 7.712L15.2464 7.41714C15.3553 7.32177 15.4346 7.19725 15.475 7.05829C15.4905 6.63467 15.4645 6.21055 15.3973 5.792C15.3527 5.57307 15.3206 5.35175 15.3013 5.12914V5.008V4.95086V4.94171V4.93257C15.291 4.83477 15.3015 4.73589 15.332 4.6424C15.3625 4.54891 15.4124 4.46291 15.4784 4.39C15.5444 4.3171 15.6251 4.25893 15.7151 4.2193C15.8051 4.17967 15.9025 4.15946 16.0008 4.16C16.0987 4.1602 16.1956 4.18083 16.2851 4.22056C16.3746 4.26029 16.4548 4.31825 16.5206 4.39075C16.5865 4.46324 16.6364 4.54866 16.6674 4.64157C16.6983 4.73447 16.7095 4.8328 16.7003 4.93029V5.12914C16.6819 5.35172 16.6506 5.57304 16.6066 5.792C16.5389 6.20973 16.5121 6.63307 16.5266 7.056C16.5541 7.19797 16.6362 7.3235 16.7552 7.40571V7.42172L16.7712 7.71886C18.9817 7.91771 21.0459 8.912 22.5775 10.5143L22.8427 10.3246C22.9859 10.3494 23.1332 10.3335 23.2679 10.2789C23.6085 10.0274 23.924 9.74171 24.2097 9.42629C24.3541 9.2552 24.5083 9.09264 24.6715 8.93943L24.7881 8.848L24.8269 8.816C24.9516 8.69862 25.1148 8.6307 25.2859 8.62494C25.457 8.61918 25.6244 8.67598 25.7567 8.7847C25.889 8.89343 25.9771 9.04663 26.0046 9.21563C26.032 9.38463 25.9969 9.55785 25.9059 9.70286C25.8524 9.78505 25.7824 9.85512 25.7002 9.90857C25.6819 9.92 25.6613 9.936 25.643 9.95429L25.5447 10.0297C25.3578 10.1536 25.164 10.2665 24.9641 10.368C24.5945 10.5775 24.2461 10.8225 23.924 11.0994C23.83 11.2081 23.7824 11.3492 23.7914 11.4926C23.7535 11.5264 23.7154 11.5599 23.6771 11.5931L23.5445 11.7143C24.7835 13.5566 25.3024 15.7897 25.0007 17.9886L25.2818 18.0709C25.3527 18.1989 25.4578 18.3017 25.5836 18.3726C25.9951 18.4823 26.4157 18.5509 26.8409 18.5783C27.0626 18.5851 27.2866 18.6011 27.5084 18.6331L27.6409 18.6629ZM21.0688 11.5771L18.0788 13.6914L18.0696 13.6869C17.9796 13.7532 17.8733 13.7939 17.762 13.8046C17.6507 13.8152 17.5385 13.7954 17.4376 13.7473C17.3367 13.6992 17.2507 13.6245 17.1889 13.5314C17.1271 13.4382 17.0917 13.33 17.0866 13.2183L16.8786 9.56343C18.4583 9.75907 19.9302 10.465 21.0688 11.5771ZM15.4385 15.584H16.5632L17.2627 16.4549L17.0112 17.5429L16.0008 18.0251L14.9881 17.5383L14.7367 16.4526L15.4385 15.584ZM14.3778 9.69143C14.6224 9.63657 14.8715 9.59314 15.123 9.56343L14.9173 13.2206L14.899 13.2297C14.8956 13.3129 14.8754 13.3945 14.8394 13.4695C14.8035 13.5446 14.7526 13.6115 14.6899 13.6663C14.6273 13.7211 14.5541 13.7625 14.4749 13.788C14.3956 13.8136 14.3121 13.8227 14.2292 13.8149C14.1179 13.8054 14.0112 13.7659 13.9206 13.7006L13.916 13.7029L10.9077 11.5771C11.8655 10.64 13.0679 9.98629 14.3778 9.69143ZM9.81957 12.944L12.565 15.392L12.5627 15.408C12.6464 15.4811 12.7087 15.5756 12.743 15.6813C12.7773 15.7871 12.7823 15.9001 12.7574 16.0085C12.7326 16.1168 12.6788 16.2164 12.6018 16.2966C12.5249 16.3768 12.4276 16.4347 12.3204 16.464L12.3181 16.4754L8.79774 17.488C8.62264 15.9018 8.98227 14.3026 9.81957 12.944ZM13.4954 19.4491L12.0964 22.8183C10.7559 21.9624 9.73543 20.6881 9.19321 19.1931L12.8005 18.5829L12.8073 18.5897C12.948 18.5625 13.0938 18.5859 13.2188 18.656C13.3516 18.7301 13.4523 18.8507 13.5017 18.9945C13.551 19.1384 13.5455 19.2954 13.4863 19.4354L13.4954 19.4491ZM17.6238 23.7829C16.3163 24.08 14.9493 24.0114 13.6783 23.5817L15.4545 20.3817C15.5072 20.2837 15.5877 20.2018 15.6831 20.1447C15.7786 20.0875 15.8877 20.0572 15.999 20.057C16.1103 20.0567 16.2195 20.0866 16.3152 20.1433C16.4109 20.2001 16.4895 20.2817 16.5426 20.3794H16.5563L18.3371 23.584C18.1027 23.662 17.8647 23.7283 17.6238 23.7829ZM19.919 22.832L18.5062 19.4286L18.5085 19.4217C18.465 19.3195 18.45 19.2074 18.465 19.0974C18.4801 18.9873 18.5247 18.8834 18.5941 18.7967C18.6635 18.7099 18.7551 18.6436 18.8592 18.6048C18.9632 18.5659 19.0759 18.556 19.1852 18.576L19.192 18.5669L22.8336 19.1817C22.2952 20.6888 21.2695 21.9733 19.919 22.832ZM23.2153 17.4766L19.6812 16.4594L19.6766 16.4457C19.5964 16.4235 19.5216 16.3853 19.4565 16.3335C19.3914 16.2816 19.3375 16.2171 19.298 16.1439C19.2585 16.0706 19.2342 15.9902 19.2266 15.9073C19.219 15.8245 19.2282 15.7409 19.2537 15.6617C19.2887 15.5554 19.3519 15.4606 19.4366 15.3874L19.4298 15.3829L22.1615 12.944C22.9981 14.3017 23.3662 15.8926 23.213 17.4766H23.2153Z" fill="#ACACAC"/>
</svg>
