<svg width="359" height="117" viewBox="0 0 359 117" fill="none" xmlns="http://www.w3.org/2000/svg">
<path d="M261.208 88.4939L267.712 88.1239" stroke="#D89614" stroke-miterlimit="10" stroke-linecap="round" stroke-linejoin="round"/>
<path d="M271.981 87.6263L278.384 86.5505" stroke="#D89614" stroke-miterlimit="10" stroke-linecap="round" stroke-linejoin="round"/>
<path d="M281.891 85.7871L288.11 83.879" stroke="#D89614" stroke-miterlimit="10" stroke-linecap="round" stroke-linejoin="round"/>
<path d="M291.713 82.6421L297.762 80.2334" stroke="#D89614" stroke-miterlimit="10" stroke-linecap="round" stroke-linejoin="round"/>
<path d="M301.138 78.5115L306.907 75.4701" stroke="#D89614" stroke-miterlimit="10" stroke-linecap="round" stroke-linejoin="round"/>
<path d="M310.269 73.4165L315.462 69.4627" stroke="#D89614" stroke-miterlimit="10" stroke-linecap="round" stroke-linejoin="round"/>
<path d="M318.379 67.3183L323.157 62.8683" stroke="#D89614" stroke-miterlimit="10" stroke-linecap="round" stroke-linejoin="round"/>
<path d="M325.861 60.2967L330.113 55.3555" stroke="#D89614" stroke-miterlimit="10" stroke-linecap="round" stroke-linejoin="round"/>
<path d="M332.547 52.3726L336.356 47.0668" stroke="#D89614" stroke-miterlimit="10" stroke-linecap="round" stroke-linejoin="round"/>
<path d="M338.42 43.7616L341.597 38.0801" stroke="#D89614" stroke-miterlimit="10" stroke-linecap="round" stroke-linejoin="round"/>
<path d="M343.154 34.7261L345.668 28.6899" stroke="#D89614" stroke-miterlimit="10" stroke-linecap="round" stroke-linejoin="round"/>
<path d="M346.865 25.0976L348.668 18.8066" stroke="#D89614" stroke-miterlimit="10" stroke-linecap="round" stroke-linejoin="round"/>
<path d="M349.597 14.3925L350.904 8" stroke="#D89614" stroke-miterlimit="10" stroke-linecap="round" stroke-linejoin="round"/>
<path d="M359 7.84499C359 12.1777 355.509 15.69 351.203 15.69C346.896 15.69 343.405 12.1777 343.405 7.84499C343.405 3.51232 346.896 -1.53529e-07 351.203 -3.42915e-07C355.509 -5.32302e-07 359 3.51232 359 7.84499Z" fill="#D89614"/>
<circle cx="209.736" cy="88.7358" r="27.7358" fill="white" fill-opacity="0.07"/>
<path d="M193.546 81.359L206.273 74.0113L218.999 81.359V96.0544L206.273 103.402L193.546 96.0544V81.359Z" fill="#F3AC21" fill-opacity="0.2" stroke="#7D7D7D"/>
<path d="M229.247 74.8658L230.901 73.9112L231.151 74.3443L231.727 74.0113L232.304 74.3443L232.554 73.9112L234.207 74.8658L233.957 75.2988L235.611 76.2534L235.861 75.8203L237.514 76.7749L237.264 77.2079L238.917 78.1624L239.167 77.7294L240.821 78.684L240.571 79.117L242.224 80.0715L242.474 79.6385L244.127 80.5931L243.877 81.0261L244.454 81.359V82.0249H244.954V83.934H244.454V85.8431H244.954V87.7522H244.454V89.6612H244.954V91.5703H244.454V93.4794H244.954V95.3885H244.454V96.0544L243.877 96.3873L244.127 96.8203L242.474 97.7749L242.224 97.3419L240.571 98.2964L240.821 98.7294L239.167 99.684L238.917 99.251L237.264 100.206L237.514 100.639L235.861 101.593L235.611 101.16L233.957 102.115L234.207 102.548L232.554 103.502L232.304 103.069L231.727 103.402L231.151 103.069L230.901 103.502L229.247 102.548L229.497 102.115L227.844 101.16L227.594 101.593L225.941 100.639L226.191 100.206L224.537 99.251L224.287 99.684L222.634 98.7294L222.884 98.2964L221.231 97.3419L220.981 97.7749L219.327 96.8203L219.577 96.3873L219.001 96.0544V95.3885H218.501V93.4794H219.001V91.5703H218.501V89.6612H219.001V87.7522H218.501V85.8431H219.001V83.934H218.501V82.0249H219.001V81.359L219.577 81.0261L219.327 80.5931L220.981 79.6385L221.231 80.0715L222.884 79.117L222.634 78.684L224.287 77.7294L224.537 78.1624L226.191 77.2079L225.941 76.7749L227.594 75.8203L227.844 76.2534L229.497 75.2988L229.247 74.8658Z" fill="#F3AC21" fill-opacity="0.2" stroke="#7D7D7D" stroke-dasharray="2 2"/>
<path d="M58.4382 76.2536H56.5788C56.5258 75.9486 56.428 75.6785 56.2855 75.4432C56.143 75.2045 55.9657 75.0024 55.7536 74.8366C55.5414 74.6709 55.2995 74.5466 55.0277 74.4638C54.7592 74.3776 54.4692 74.3345 54.1577 74.3345C53.6042 74.3345 53.1136 74.4737 52.6861 74.7521C52.2585 75.0272 51.9238 75.4316 51.6818 75.9652C51.4399 76.4955 51.3189 77.1435 51.3189 77.9091C51.3189 78.688 51.4399 79.3442 51.6818 79.8778C51.9271 80.4081 52.2618 80.8092 52.6861 81.081C53.1136 81.3494 53.6025 81.4837 54.1527 81.4837C54.4576 81.4837 54.7427 81.4439 55.0078 81.3643C55.2763 81.2815 55.5166 81.1605 55.7287 81.0014C55.9441 80.8423 56.1248 80.6468 56.2706 80.4148C56.4197 80.1828 56.5225 79.9176 56.5788 79.6193L58.4382 79.6293C58.3686 80.1132 58.2178 80.5672 57.9858 80.9915C57.7571 81.4157 57.4571 81.7902 57.0859 82.1151C56.7147 82.4366 56.2805 82.6884 55.7834 82.8707C55.2862 83.0497 54.7344 83.1392 54.1278 83.1392C53.233 83.1392 52.4342 82.9321 51.7315 82.5178C51.0289 82.1035 50.4754 81.5052 50.071 80.723C49.6667 79.9408 49.4645 79.0028 49.4645 77.9091C49.4645 76.812 49.6683 75.8741 50.076 75.0952C50.4837 74.313 51.0388 73.7147 51.7415 73.3004C52.4441 72.8861 53.2396 72.679 54.1278 72.679C54.6946 72.679 55.2216 72.7585 55.7088 72.9176C56.196 73.0767 56.6302 73.3104 57.0114 73.6186C57.3925 73.9235 57.7057 74.2981 57.951 74.7422C58.1996 75.183 58.362 75.6868 58.4382 76.2536ZM61.8475 72.8182V83H60.0478V72.8182H61.8475ZM63.6982 83V75.3636H65.4979V83H63.6982ZM64.603 74.2798C64.3179 74.2798 64.0727 74.1854 63.8672 73.9964C63.6617 73.8042 63.5589 73.5739 63.5589 73.3054C63.5589 73.0336 63.6617 72.8033 63.8672 72.6143C64.0727 72.4221 64.3179 72.326 64.603 72.326C64.8913 72.326 65.1366 72.4221 65.3388 72.6143C65.5443 72.8033 65.647 73.0336 65.647 73.3054C65.647 73.5739 65.5443 73.8042 65.3388 73.9964C65.1366 74.1854 64.8913 74.2798 64.603 74.2798ZM70.6795 83.1491C69.9172 83.1491 69.2626 82.9818 68.7157 82.647C68.1722 82.3123 67.7529 81.8499 67.4579 81.2599C67.1663 80.6667 67.0204 79.9839 67.0204 79.2116C67.0204 78.4361 67.1696 77.7517 67.4679 77.1584C67.7662 76.5618 68.1871 76.0978 68.7306 75.7663C69.2775 75.4316 69.9238 75.2642 70.6696 75.2642C71.2894 75.2642 71.8379 75.3786 72.3152 75.6072C72.7958 75.8326 73.1786 76.1525 73.4636 76.5668C73.7486 76.9777 73.911 77.4583 73.9508 78.0085H72.2306C72.161 77.6406 71.9953 77.334 71.7335 77.0888C71.475 76.8402 71.1286 76.7159 70.6944 76.7159C70.3265 76.7159 70.0034 76.8153 69.725 77.0142C69.4466 77.2098 69.2295 77.4915 69.0737 77.8594C68.9212 78.2273 68.845 78.6681 68.845 79.1818C68.845 79.7022 68.9212 80.1496 69.0737 80.5241C69.2261 80.8954 69.4399 81.1821 69.715 81.3842C69.9934 81.5831 70.3199 81.6825 70.6944 81.6825C70.9596 81.6825 71.1966 81.6328 71.4054 81.5334C71.6175 81.4306 71.7948 81.2831 71.9373 81.0909C72.0798 80.8987 72.1776 80.665 72.2306 80.3899H73.9508C73.9077 80.9302 73.7486 81.4091 73.4735 81.8267C73.1984 82.241 72.8239 82.5658 72.35 82.8011C71.876 83.0331 71.3192 83.1491 70.6795 83.1491ZM77.0692 80.6037L77.0643 78.4311H77.3526L80.0969 75.3636H82.1999L78.8242 79.1222H78.4513L77.0692 80.6037ZM75.4286 83V72.8182H77.2283V83H75.4286ZM80.2212 83L77.7354 79.5249L78.9485 78.2571L82.3739 83H80.2212ZM90.2029 83.1491C89.4572 83.1491 88.8109 82.9851 88.264 82.657C87.7172 82.3288 87.2929 81.8698 86.9913 81.2798C86.693 80.6899 86.5439 80.0005 86.5439 79.2116C86.5439 78.4228 86.693 77.7318 86.9913 77.1385C87.2929 76.5452 87.7172 76.0845 88.264 75.7564C88.8109 75.4283 89.4572 75.2642 90.2029 75.2642C90.9487 75.2642 91.595 75.4283 92.1419 75.7564C92.6887 76.0845 93.1113 76.5452 93.4096 77.1385C93.7112 77.7318 93.862 78.4228 93.862 79.2116C93.862 80.0005 93.7112 80.6899 93.4096 81.2798C93.1113 81.8698 92.6887 82.3288 92.1419 82.657C91.595 82.9851 90.9487 83.1491 90.2029 83.1491ZM90.2129 81.7074C90.6172 81.7074 90.9553 81.5964 91.2271 81.3743C91.4989 81.1489 91.7011 80.8473 91.8336 80.4695C91.9695 80.0916 92.0375 79.6707 92.0375 79.2067C92.0375 78.7393 91.9695 78.3168 91.8336 77.9389C91.7011 77.5578 91.4989 77.2545 91.2271 77.0291C90.9553 76.8037 90.6172 76.6911 90.2129 76.6911C89.7986 76.6911 89.4539 76.8037 89.1788 77.0291C88.907 77.2545 88.7032 77.5578 88.5673 77.9389C88.4347 78.3168 88.3684 78.7393 88.3684 79.2067C88.3684 79.6707 88.4347 80.0916 88.5673 80.4695C88.7032 80.8473 88.907 81.1489 89.1788 81.3743C89.4539 81.5964 89.7986 81.7074 90.2129 81.7074ZM97.1893 78.5256V83H95.3896V75.3636H97.1097V76.6612H97.1992C97.3749 76.2337 97.6549 75.8939 98.0394 75.642C98.4272 75.3902 98.9061 75.2642 99.4762 75.2642C100.003 75.2642 100.462 75.3769 100.853 75.6023C101.248 75.8277 101.553 76.1541 101.768 76.5817C101.987 77.0092 102.095 77.5279 102.091 78.1378V83H100.292V78.4162C100.292 77.9058 100.159 77.5064 99.8938 77.218C99.632 76.9297 99.2691 76.7855 98.805 76.7855C98.4902 76.7855 98.2101 76.8551 97.9648 76.9943C97.7229 77.1302 97.5323 77.3274 97.3931 77.5859C97.2572 77.8445 97.1893 78.1577 97.1893 78.5256ZM147.984 75.3636V76.7557H143.594V75.3636H147.984ZM144.678 73.5341H146.478V80.7031C146.478 80.9451 146.514 81.1307 146.587 81.2599C146.663 81.3859 146.763 81.4721 146.885 81.5185C147.008 81.5649 147.144 81.5881 147.293 81.5881C147.406 81.5881 147.508 81.5798 147.601 81.5632C147.697 81.5466 147.77 81.5317 147.82 81.5185L148.123 82.9254C148.027 82.9586 147.89 82.995 147.711 83.0348C147.535 83.0746 147.319 83.0978 147.064 83.1044C146.614 83.1177 146.208 83.0497 145.846 82.9006C145.485 82.7481 145.198 82.5128 144.986 82.1946C144.777 81.8764 144.675 81.4787 144.678 81.0014V73.5341ZM152.738 83.1491C151.992 83.1491 151.346 82.9851 150.799 82.657C150.252 82.3288 149.828 81.8698 149.526 81.2798C149.228 80.6899 149.079 80.0005 149.079 79.2116C149.079 78.4228 149.228 77.7318 149.526 77.1385C149.828 76.5452 150.252 76.0845 150.799 75.7564C151.346 75.4283 151.992 75.2642 152.738 75.2642C153.484 75.2642 154.13 75.4283 154.677 75.7564C155.224 76.0845 155.646 76.5452 155.945 77.1385C156.246 77.7318 156.397 78.4228 156.397 79.2116C156.397 80.0005 156.246 80.6899 155.945 81.2798C155.646 81.8698 155.224 82.3288 154.677 82.657C154.13 82.9851 153.484 83.1491 152.738 83.1491ZM152.748 81.7074C153.152 81.7074 153.49 81.5964 153.762 81.3743C154.034 81.1489 154.236 80.8473 154.369 80.4695C154.505 80.0916 154.573 79.6707 154.573 79.2067C154.573 78.7393 154.505 78.3168 154.369 77.9389C154.236 77.5578 154.034 77.2545 153.762 77.0291C153.49 76.8037 153.152 76.6911 152.748 76.6911C152.334 76.6911 151.989 76.8037 151.714 77.0291C151.442 77.2545 151.238 77.5578 151.102 77.9389C150.97 78.3168 150.904 78.7393 150.904 79.2067C150.904 79.6707 150.97 80.0916 151.102 80.4695C151.238 80.8473 151.442 81.1489 151.714 81.3743C151.989 81.5964 152.334 81.7074 152.748 81.7074ZM16.6259 109.864V99.3636H18.3958V100.626H18.5002C18.593 100.441 18.7239 100.244 18.8929 100.035C19.062 99.8227 19.2907 99.642 19.579 99.4929C19.8674 99.3404 20.2353 99.2642 20.6827 99.2642C21.2727 99.2642 21.8046 99.415 22.2786 99.7166C22.7559 100.015 23.1337 100.457 23.4121 101.044C23.6938 101.627 23.8347 102.343 23.8347 103.192C23.8347 104.03 23.6971 104.743 23.4221 105.33C23.147 105.916 22.7724 106.364 22.2985 106.672C21.8245 106.98 21.2876 107.134 20.6877 107.134C20.2502 107.134 19.8873 107.061 19.5989 106.915C19.3105 106.77 19.0785 106.594 18.9029 106.388C18.7305 106.18 18.5963 105.982 18.5002 105.797H18.4256V109.864H16.6259ZM18.3908 103.182C18.3908 103.676 18.4604 104.108 18.5996 104.479C18.7421 104.851 18.946 105.141 19.2111 105.349C19.4796 105.555 19.8044 105.658 20.1855 105.658C20.5833 105.658 20.9164 105.552 21.1848 105.339C21.4533 105.124 21.6555 104.831 21.7914 104.46C21.9306 104.085 22.0002 103.659 22.0002 103.182C22.0002 102.708 21.9322 102.287 21.7963 101.919C21.6605 101.551 21.4583 101.263 21.1898 101.054C20.9213 100.845 20.5866 100.741 20.1855 100.741C19.8011 100.741 19.4746 100.842 19.2061 101.044C18.9377 101.246 18.7338 101.53 18.5946 101.894C18.4587 102.259 18.3908 102.688 18.3908 103.182ZM25.3759 107V99.3636H27.1209V100.636H27.2005C27.3397 100.196 27.5783 99.8558 27.9164 99.6172C28.2578 99.3752 28.6472 99.2543 29.0847 99.2543C29.1841 99.2543 29.2952 99.2592 29.4178 99.2692C29.5437 99.2758 29.6481 99.2874 29.731 99.304V100.96C29.6548 100.933 29.5338 100.91 29.3681 100.89C29.2057 100.867 29.0482 100.855 28.8958 100.855C28.5676 100.855 28.2727 100.926 28.0108 101.069C27.7523 101.208 27.5485 101.402 27.3993 101.651C27.2502 101.899 27.1756 102.186 27.1756 102.511V107H25.3759ZM33.9929 107.149C33.2273 107.149 32.5661 106.99 32.0092 106.672C31.4557 106.35 31.0298 105.896 30.7315 105.31C30.4332 104.72 30.2841 104.025 30.2841 103.227C30.2841 102.441 30.4332 101.752 30.7315 101.158C31.0331 100.562 31.4541 100.098 31.9943 99.7663C32.5346 99.4316 33.1693 99.2642 33.8984 99.2642C34.3691 99.2642 34.8132 99.3404 35.2308 99.4929C35.6518 99.642 36.023 99.8741 36.3445 100.189C36.6693 100.504 36.9245 100.905 37.1101 101.392C37.2957 101.876 37.3885 102.453 37.3885 103.122V103.674H31.1293V102.461H35.6634C35.66 102.116 35.5855 101.81 35.4396 101.541C35.2938 101.269 35.09 101.056 34.8281 100.9C34.5696 100.744 34.268 100.666 33.9233 100.666C33.5554 100.666 33.2322 100.756 32.9538 100.935C32.6754 101.11 32.4583 101.342 32.3026 101.631C32.1501 101.916 32.0722 102.229 32.0689 102.57V103.629C32.0689 104.073 32.1501 104.455 32.3125 104.773C32.4749 105.088 32.7019 105.33 32.9936 105.499C33.2853 105.664 33.6267 105.747 34.0178 105.747C34.2796 105.747 34.5166 105.711 34.7287 105.638C34.9408 105.562 35.1248 105.451 35.2805 105.305C35.4363 105.159 35.554 104.978 35.6335 104.763L37.3139 104.952C37.2079 105.396 37.0057 105.784 36.7074 106.115C36.4124 106.443 36.0346 106.698 35.5739 106.881C35.1132 107.06 34.5862 107.149 33.9929 107.149ZM45.5133 99.3636L42.7939 107H40.8052L38.0858 99.3636H40.0048L41.7598 105.036H41.8393L43.5993 99.3636H45.5133ZM46.7587 107V99.3636H48.5584V107H46.7587ZM47.6635 98.2798C47.3785 98.2798 47.1332 98.1854 46.9277 97.9964C46.7222 97.8042 46.6195 97.5739 46.6195 97.3054C46.6195 97.0336 46.7222 96.8033 46.9277 96.6143C47.1332 96.4221 47.3785 96.326 47.6635 96.326C47.9519 96.326 48.1971 96.4221 48.3993 96.6143C48.6048 96.8033 48.7076 97.0336 48.7076 97.3054C48.7076 97.5739 48.6048 97.8042 48.3993 97.9964C48.1971 98.1854 47.9519 98.2798 47.6635 98.2798ZM53.7898 107.149C53.0241 107.149 52.3629 106.99 51.8061 106.672C51.2526 106.35 50.8267 105.896 50.5284 105.31C50.2301 104.72 50.081 104.025 50.081 103.227C50.081 102.441 50.2301 101.752 50.5284 101.158C50.83 100.562 51.2509 100.098 51.7912 99.7663C52.3314 99.4316 52.9661 99.2642 53.6953 99.2642C54.166 99.2642 54.6101 99.3404 55.0277 99.4929C55.4486 99.642 55.8198 99.8741 56.1413 100.189C56.4661 100.504 56.7214 100.905 56.907 101.392C57.0926 101.876 57.1854 102.453 57.1854 103.122V103.674H50.9261V102.461H55.4602C55.4569 102.116 55.3823 101.81 55.2365 101.541C55.0907 101.269 54.8868 101.056 54.625 100.9C54.3665 100.744 54.0649 100.666 53.7202 100.666C53.3523 100.666 53.0291 100.756 52.7507 100.935C52.4723 101.11 52.2552 101.342 52.0994 101.631C51.947 101.916 51.8691 102.229 51.8658 102.57V103.629C51.8658 104.073 51.947 104.455 52.1094 104.773C52.2718 105.088 52.4988 105.33 52.7905 105.499C53.0821 105.664 53.4235 105.747 53.8146 105.747C54.0765 105.747 54.3134 105.711 54.5256 105.638C54.7377 105.562 54.9216 105.451 55.0774 105.305C55.2332 105.159 55.3509 104.978 55.4304 104.763L57.1108 104.952C57.0047 105.396 56.8026 105.784 56.5043 106.115C56.2093 106.443 55.8314 106.698 55.3707 106.881C54.91 107.06 54.383 107.149 53.7898 107.149ZM60.2429 107L58.0852 99.3636H59.9197L61.2621 104.733H61.3317L62.7038 99.3636H64.5185L65.8906 104.703H65.9652L67.2876 99.3636H69.1271L66.9645 107H65.0902L63.6584 101.839H63.554L62.1222 107H60.2429ZM74.975 109.864C74.7297 109.864 74.5027 109.844 74.2939 109.804C74.0884 109.768 73.9243 109.724 73.8017 109.675L74.2193 108.273C74.4811 108.349 74.7148 108.385 74.9203 108.382C75.1258 108.379 75.3064 108.314 75.4622 108.188C75.6213 108.066 75.7555 107.86 75.8649 107.572L76.019 107.159L73.2498 99.3636H75.1589L76.9189 105.131H76.9984L78.7633 99.3636H80.6774L77.6199 107.925C77.4773 108.329 77.2884 108.675 77.0531 108.964C76.8178 109.255 76.5294 109.478 76.188 109.63C75.85 109.786 75.4456 109.864 74.975 109.864ZM84.994 107.149C84.2482 107.149 83.6019 106.985 83.055 106.657C82.5082 106.329 82.0839 105.87 81.7823 105.28C81.484 104.69 81.3349 104 81.3349 103.212C81.3349 102.423 81.484 101.732 81.7823 101.138C82.0839 100.545 82.5082 100.085 83.055 99.7564C83.6019 99.4283 84.2482 99.2642 84.994 99.2642C85.7397 99.2642 86.386 99.4283 86.9329 99.7564C87.4798 100.085 87.9023 100.545 88.2006 101.138C88.5022 101.732 88.6531 102.423 88.6531 103.212C88.6531 104 88.5022 104.69 88.2006 105.28C87.9023 105.87 87.4798 106.329 86.9329 106.657C86.386 106.985 85.7397 107.149 84.994 107.149ZM85.0039 105.707C85.4083 105.707 85.7463 105.596 86.0181 105.374C86.2899 105.149 86.4921 104.847 86.6246 104.469C86.7605 104.092 86.8285 103.671 86.8285 103.207C86.8285 102.739 86.7605 102.317 86.6246 101.939C86.4921 101.558 86.2899 101.254 86.0181 101.029C85.7463 100.804 85.4083 100.691 85.0039 100.691C84.5896 100.691 84.2449 100.804 83.9698 101.029C83.698 101.254 83.4942 101.558 83.3583 101.939C83.2257 102.317 83.1594 102.739 83.1594 103.207C83.1594 103.671 83.2257 104.092 83.3583 104.469C83.4942 104.847 83.698 105.149 83.9698 105.374C84.2449 105.596 84.5896 105.707 85.0039 105.707ZM95.0478 103.788V99.3636H96.8475V107H95.1025V105.643H95.0229C94.8506 106.07 94.5672 106.42 94.1728 106.692C93.7817 106.964 93.2994 107.099 92.726 107.099C92.2256 107.099 91.7831 106.988 91.3986 106.766C91.0175 106.541 90.7192 106.214 90.5037 105.787C90.2883 105.356 90.1806 104.836 90.1806 104.226V99.3636H91.9803V103.947C91.9803 104.431 92.1129 104.816 92.378 105.101C92.6432 105.386 92.9912 105.528 93.4221 105.528C93.6872 105.528 93.9441 105.464 94.1926 105.335C94.4412 105.205 94.6451 105.013 94.8042 104.758C94.9666 104.499 95.0478 104.176 95.0478 103.788ZM98.6982 107V99.3636H100.443V100.636H100.523C100.662 100.196 100.901 99.8558 101.239 99.6172C101.58 99.3752 101.969 99.2543 102.407 99.2543C102.506 99.2543 102.617 99.2592 102.74 99.2692C102.866 99.2758 102.97 99.2874 103.053 99.304V100.96C102.977 100.933 102.856 100.91 102.69 100.89C102.528 100.867 102.371 100.855 102.218 100.855C101.89 100.855 101.595 100.926 101.333 101.069C101.075 101.208 100.871 101.402 100.722 101.651C100.572 101.899 100.498 102.186 100.498 102.511V107H98.6982ZM111.053 107.149C110.29 107.149 109.636 106.982 109.089 106.647C108.545 106.312 108.126 105.85 107.831 105.26C107.539 104.667 107.393 103.984 107.393 103.212C107.393 102.436 107.543 101.752 107.841 101.158C108.139 100.562 108.56 100.098 109.104 99.7663C109.651 99.4316 110.297 99.2642 111.043 99.2642C111.662 99.2642 112.211 99.3786 112.688 99.6072C113.169 99.8326 113.552 100.152 113.837 100.567C114.122 100.978 114.284 101.458 114.324 102.009H112.604C112.534 101.641 112.368 101.334 112.107 101.089C111.848 100.84 111.502 100.716 111.067 100.716C110.7 100.716 110.376 100.815 110.098 101.014C109.82 101.21 109.603 101.491 109.447 101.859C109.294 102.227 109.218 102.668 109.218 103.182C109.218 103.702 109.294 104.15 109.447 104.524C109.599 104.895 109.813 105.182 110.088 105.384C110.366 105.583 110.693 105.683 111.067 105.683C111.333 105.683 111.57 105.633 111.778 105.533C111.991 105.431 112.168 105.283 112.31 105.091C112.453 104.899 112.551 104.665 112.604 104.39H114.324C114.281 104.93 114.122 105.409 113.847 105.827C113.571 106.241 113.197 106.566 112.723 106.801C112.249 107.033 111.692 107.149 111.053 107.149ZM117.601 96.8182V107H115.802V96.8182H117.601ZM124.319 103.788V99.3636H126.119V107H124.374V105.643H124.294C124.122 106.07 123.839 106.42 123.444 106.692C123.053 106.964 122.571 107.099 121.998 107.099C121.497 107.099 121.055 106.988 120.67 106.766C120.289 106.541 119.991 106.214 119.775 105.787C119.56 105.356 119.452 104.836 119.452 104.226V99.3636H121.252V103.947C121.252 104.431 121.384 104.816 121.65 105.101C121.915 105.386 122.263 105.528 122.694 105.528C122.959 105.528 123.216 105.464 123.464 105.335C123.713 105.205 123.917 105.013 124.076 104.758C124.238 104.499 124.319 104.176 124.319 103.788ZM134.005 101.382L132.365 101.561C132.318 101.395 132.237 101.24 132.121 101.094C132.008 100.948 131.856 100.83 131.664 100.741C131.471 100.651 131.236 100.607 130.958 100.607C130.583 100.607 130.268 100.688 130.013 100.85C129.761 101.013 129.637 101.223 129.64 101.482C129.637 101.704 129.718 101.884 129.884 102.023C130.053 102.163 130.331 102.277 130.719 102.366L132.021 102.645C132.744 102.801 133.281 103.048 133.632 103.386C133.987 103.724 134.166 104.166 134.169 104.713C134.166 105.194 134.025 105.618 133.747 105.986C133.472 106.35 133.089 106.635 132.598 106.841C132.108 107.046 131.544 107.149 130.908 107.149C129.973 107.149 129.221 106.954 128.651 106.562C128.081 106.168 127.741 105.62 127.632 104.917L129.387 104.748C129.466 105.093 129.635 105.353 129.894 105.528C130.152 105.704 130.489 105.792 130.903 105.792C131.33 105.792 131.673 105.704 131.932 105.528C132.194 105.353 132.325 105.136 132.325 104.877C132.325 104.658 132.24 104.478 132.071 104.335C131.905 104.193 131.647 104.083 131.296 104.007L129.993 103.734C129.261 103.581 128.719 103.324 128.367 102.963C128.016 102.598 127.842 102.138 127.845 101.581C127.842 101.11 127.97 100.703 128.228 100.358C128.49 100.01 128.853 99.7415 129.317 99.5526C129.784 99.3603 130.323 99.2642 130.933 99.2642C131.828 99.2642 132.532 99.4548 133.046 99.8359C133.563 100.217 133.883 100.732 134.005 101.382ZM139.466 99.3636V100.756H135.077V99.3636H139.466ZM136.16 97.5341H137.96V104.703C137.96 104.945 137.997 105.131 138.069 105.26C138.146 105.386 138.245 105.472 138.368 105.518C138.49 105.565 138.626 105.588 138.775 105.588C138.888 105.588 138.991 105.58 139.084 105.563C139.18 105.547 139.253 105.532 139.302 105.518L139.606 106.925C139.51 106.959 139.372 106.995 139.193 107.035C139.017 107.075 138.802 107.098 138.547 107.104C138.096 107.118 137.69 107.05 137.329 106.901C136.967 106.748 136.681 106.513 136.469 106.195C136.26 105.876 136.157 105.479 136.16 105.001V97.5341ZM144.27 107.149C143.505 107.149 142.843 106.99 142.287 106.672C141.733 106.35 141.307 105.896 141.009 105.31C140.711 104.72 140.561 104.025 140.561 103.227C140.561 102.441 140.711 101.752 141.009 101.158C141.31 100.562 141.731 100.098 142.272 99.7663C142.812 99.4316 143.447 99.2642 144.176 99.2642C144.646 99.2642 145.091 99.3404 145.508 99.4929C145.929 99.642 146.3 99.8741 146.622 100.189C146.947 100.504 147.202 100.905 147.387 101.392C147.573 101.876 147.666 102.453 147.666 103.122V103.674H141.407V102.461H145.941C145.937 102.116 145.863 101.81 145.717 101.541C145.571 101.269 145.367 101.056 145.105 100.9C144.847 100.744 144.545 100.666 144.201 100.666C143.833 100.666 143.51 100.756 143.231 100.935C142.953 101.11 142.736 101.342 142.58 101.631C142.427 101.916 142.35 102.229 142.346 102.57V103.629C142.346 104.073 142.427 104.455 142.59 104.773C142.752 105.088 142.979 105.33 143.271 105.499C143.563 105.664 143.904 105.747 144.295 105.747C144.557 105.747 144.794 105.711 145.006 105.638C145.218 105.562 145.402 105.451 145.558 105.305C145.714 105.159 145.831 104.978 145.911 104.763L147.591 104.952C147.485 105.396 147.283 105.784 146.985 106.115C146.69 106.443 146.312 106.698 145.851 106.881C145.391 107.06 144.864 107.149 144.27 107.149ZM149.188 107V99.3636H150.933V100.636H151.013C151.152 100.196 151.391 99.8558 151.729 99.6172C152.07 99.3752 152.46 99.2543 152.897 99.2543C152.997 99.2543 153.108 99.2592 153.23 99.2692C153.356 99.2758 153.461 99.2874 153.544 99.304V100.96C153.467 100.933 153.346 100.91 153.181 100.89C153.018 100.867 152.861 100.855 152.708 100.855C152.38 100.855 152.085 100.926 151.823 101.069C151.565 101.208 151.361 101.402 151.212 101.651C151.063 101.899 150.988 102.186 150.988 102.511V107H149.188ZM154.973 107.109C154.671 107.109 154.413 107.003 154.197 106.791C153.982 106.579 153.876 106.321 153.879 106.016C153.876 105.717 153.982 105.462 154.197 105.25C154.413 105.038 154.671 104.932 154.973 104.932C155.265 104.932 155.518 105.038 155.733 105.25C155.952 105.462 156.063 105.717 156.067 106.016C156.063 106.218 156.01 106.402 155.907 106.567C155.808 106.733 155.675 106.866 155.51 106.965C155.347 107.061 155.168 107.109 154.973 107.109Z" fill="#DBDBDB"/>
<path d="M107.473 83V72.8182H109.317V81.4538H113.802V83H107.473ZM118.654 83.1491C117.908 83.1491 117.262 82.9851 116.715 82.657C116.168 82.3288 115.744 81.8698 115.442 81.2798C115.144 80.6899 114.995 80.0005 114.995 79.2116C114.995 78.4228 115.144 77.7318 115.442 77.1385C115.744 76.5452 116.168 76.0845 116.715 75.7564C117.262 75.4283 117.908 75.2642 118.654 75.2642C119.4 75.2642 120.046 75.4283 120.593 75.7564C121.14 76.0845 121.563 76.5452 121.861 77.1385C122.162 77.7318 122.313 78.4228 122.313 79.2116C122.313 80.0005 122.162 80.6899 121.861 81.2798C121.563 81.8698 121.14 82.3288 120.593 82.657C120.046 82.9851 119.4 83.1491 118.654 83.1491ZM118.664 81.7074C119.068 81.7074 119.406 81.5964 119.678 81.3743C119.95 81.1489 120.152 80.8473 120.285 80.4695C120.421 80.0916 120.489 79.6707 120.489 79.2067C120.489 78.7393 120.421 78.3168 120.285 77.9389C120.152 77.5578 119.95 77.2545 119.678 77.0291C119.406 76.8037 119.068 76.6911 118.664 76.6911C118.25 76.6911 117.905 76.8037 117.63 77.0291C117.358 77.2545 117.154 77.5578 117.018 77.9389C116.886 78.3168 116.82 78.7393 116.82 79.2067C116.82 79.6707 116.886 80.0916 117.018 80.4695C117.154 80.8473 117.358 81.1489 117.63 81.3743C117.905 81.5964 118.25 81.7074 118.664 81.7074ZM126.038 83.1541C125.554 83.1541 125.118 83.0679 124.731 82.8956C124.346 82.7199 124.041 82.4614 123.816 82.12C123.594 81.7786 123.483 81.3577 123.483 80.8572C123.483 80.4264 123.562 80.0701 123.721 79.7884C123.881 79.5066 124.098 79.2812 124.373 79.1122C124.648 78.9432 124.958 78.8156 125.302 78.7294C125.65 78.6399 126.01 78.5753 126.381 78.5355C126.829 78.4891 127.192 78.4477 127.47 78.4112C127.748 78.3714 127.951 78.3118 128.077 78.2322C128.206 78.1494 128.27 78.0218 128.27 77.8494V77.8196C128.27 77.4451 128.159 77.1551 127.937 76.9496C127.715 76.7441 127.395 76.6413 126.978 76.6413C126.537 76.6413 126.187 76.7375 125.929 76.9297C125.674 77.1219 125.501 77.349 125.412 77.6108L123.731 77.3722C123.864 76.9081 124.083 76.5204 124.388 76.2088C124.693 75.8939 125.065 75.6586 125.506 75.5028C125.947 75.3438 126.434 75.2642 126.968 75.2642C127.336 75.2642 127.702 75.3073 128.067 75.3935C128.431 75.4796 128.764 75.6222 129.066 75.821C129.367 76.0166 129.609 76.2834 129.792 76.6214C129.977 76.9595 130.07 77.3821 130.07 77.8892V83H128.34V81.951H128.28C128.171 82.1631 128.017 82.362 127.818 82.5476C127.622 82.7299 127.376 82.8774 127.077 82.9901C126.782 83.0994 126.436 83.1541 126.038 83.1541ZM126.506 81.8317C126.867 81.8317 127.18 81.7604 127.445 81.6179C127.71 81.4721 127.914 81.2798 128.057 81.0412C128.202 80.8026 128.275 80.5424 128.275 80.2607V79.3608C128.219 79.4072 128.123 79.4503 127.987 79.4901C127.854 79.5298 127.705 79.5646 127.54 79.5945C127.374 79.6243 127.21 79.6508 127.047 79.674C126.885 79.6972 126.744 79.7171 126.625 79.7337C126.356 79.7701 126.116 79.8298 125.904 79.9126C125.692 79.9955 125.524 80.1115 125.402 80.2607C125.279 80.4065 125.218 80.5954 125.218 80.8274C125.218 81.1589 125.339 81.4091 125.581 81.5781C125.823 81.7472 126.131 81.8317 126.506 81.8317ZM134.714 83.1342C134.114 83.1342 133.577 82.9801 133.103 82.6719C132.629 82.3636 132.254 81.9162 131.979 81.3295C131.704 80.7429 131.567 80.0303 131.567 79.1918C131.567 78.3433 131.706 77.6274 131.984 77.044C132.266 76.4574 132.645 76.0149 133.123 75.7166C133.6 75.415 134.132 75.2642 134.719 75.2642C135.166 75.2642 135.534 75.3404 135.822 75.4929C136.111 75.642 136.339 75.8227 136.508 76.0348C136.677 76.2436 136.808 76.4408 136.901 76.6264H136.976V72.8182H138.78V83H137.01V81.7969H136.901C136.808 81.9825 136.674 82.1797 136.498 82.3885C136.323 82.594 136.091 82.7696 135.802 82.9155C135.514 83.0613 135.151 83.1342 134.714 83.1342ZM135.216 81.6577C135.597 81.6577 135.922 81.5549 136.19 81.3494C136.459 81.1406 136.662 80.8506 136.802 80.4794C136.941 80.1082 137.01 79.6757 137.01 79.1818C137.01 78.688 136.941 78.2588 136.802 77.8942C136.666 77.5296 136.464 77.2462 136.195 77.044C135.93 76.8419 135.604 76.7408 135.216 76.7408C134.815 76.7408 134.48 76.8452 134.211 77.054C133.943 77.2628 133.741 77.5511 133.605 77.919C133.469 78.2869 133.401 78.7079 133.401 79.1818C133.401 79.6591 133.469 80.085 133.605 80.4595C133.744 80.8307 133.948 81.1241 134.216 81.3395C134.488 81.5516 134.821 81.6577 135.216 81.6577Z" fill="#13A8A8"/>
</svg>
