<svg width="556" height="363" viewBox="0 0 556 363" fill="none" xmlns="http://www.w3.org/2000/svg">
<path d="M470.663 362.5H133.337C130.475 362.496 127.724 361.279 125.69 359.103C123.654 356.926 122.503 353.968 122.5 350.875V57.1246C122.503 54.0322 123.654 51.0738 125.69 48.8967C127.724 46.7208 130.475 45.5036 133.337 45.5H470.663C473.525 45.5036 476.276 46.7208 478.31 48.8967C480.346 51.0739 481.497 54.0324 481.5 57.1248V350.875C481.497 353.968 480.346 356.926 478.31 359.103C476.276 361.279 473.525 362.496 470.663 362.5Z" stroke="#434343"/>
<path d="M133.569 56.7798C135.527 54.6784 138.173 53.5035 140.925 53.5L463.075 53.5C463.075 53.5 463.075 53.5 463.075 53.5C465.827 53.5035 468.473 54.6784 470.431 56.7798C472.39 58.8826 473.497 61.7406 473.5 64.7284V245.39C473.469 274.329 462.747 302.066 443.695 322.519C424.644 342.971 398.822 354.467 371.897 354.5H140.925C138.173 354.497 135.527 353.322 133.569 351.221C131.611 349.118 130.503 346.26 130.5 343.273V64.7282C130.503 61.7404 131.61 58.8825 133.569 56.7798Z" stroke="#434343"/>
<line x1="129.643" y1="82.8622" x2="472.96" y2="82.8621" stroke="#434343"/>
<line x1="159.5" y1="354.998" x2="160.456" y2="83.3601" stroke="#434343"/>
<line x1="267.5" y1="354.998" x2="268.5" y2="82.9982" stroke="#434343"/>
<rect x="136.163" y="92.2947" width="18.2739" height="18.2739" rx="3.5" stroke="#434343"/>
<rect x="170.5" y="92.5" width="85" height="252" rx="1.5" stroke="#434343"/>
<rect x="279.5" y="92.5" width="178" height="170" rx="1.5" stroke="#434343"/>
<rect x="142.5" y="61.5" width="96" height="12" rx="1.5" stroke="#434343"/>
<rect x="245.5" y="61.5" width="53" height="12" rx="1.5" stroke="#434343"/>
<rect x="404.5" y="61.5" width="53" height="12" rx="1.5" stroke="#434343"/>
<rect x="136.163" y="117.591" width="18.2739" height="18.2739" rx="3.5" stroke="#434343"/>
<rect x="136.163" y="142.888" width="18.2739" height="18.2739" rx="3.5" stroke="#434343"/>
<rect x="136.164" y="168.5" width="18.2739" height="18.2739" rx="3.5" stroke="#434343"/>
<rect x="136.164" y="193.797" width="18.2739" height="18.2739" rx="3.5" stroke="#434343"/>
<rect x="136.164" y="219.094" width="18.2739" height="18.2739" rx="3.5" stroke="#434343"/>
<rect x="136.5" y="244.5" width="18.2739" height="18.2739" rx="3.5" stroke="#434343"/>
<rect x="136.5" y="269.5" width="18.2739" height="18.2739" rx="3.5" stroke="#434343"/>
<rect x="136.164" y="331.094" width="18.2739" height="18.2739" rx="3.5" stroke="#434343"/>
<rect x="39" width="152" height="26" rx="12" fill="#1C2755"/>
<path d="M52.6953 17V9H58.0859V10.3945H54.3867V12.3008H57.8086V13.6953H54.3867V15.6055H58.1016V17H52.6953ZM61.7866 9L63.3999 11.7266H63.4624L65.0835 9H66.9936L64.5522 13L67.0483 17H65.103L63.4624 14.2695H63.3999L61.7593 17H59.8218L62.3257 13L59.8686 9H61.7866ZM68.8339 17V9H71.9902C72.597 9 73.1139 9.11589 73.541 9.34766C73.9681 9.57682 74.2936 9.89583 74.5175 10.3047C74.7441 10.7109 74.8574 11.1797 74.8574 11.7109C74.8574 12.2422 74.7428 12.7109 74.5136 13.1172C74.2845 13.5234 73.9524 13.8398 73.5175 14.0664C73.0852 14.293 72.5618 14.4062 71.9472 14.4062H69.9355V13.0508H71.6738C71.9993 13.0508 72.2675 12.9948 72.4785 12.8828C72.692 12.7682 72.8509 12.6107 72.955 12.4102C73.0618 12.207 73.1152 11.974 73.1152 11.7109C73.1152 11.4453 73.0618 11.2135 72.955 11.0156C72.8509 10.8151 72.692 10.6602 72.4785 10.5508C72.2649 10.4388 71.9941 10.3828 71.666 10.3828H70.5254V17H68.8339ZM76.726 17V9H78.4174V15.6055H81.8471V17H76.726ZM90.7773 13C90.7773 13.8724 90.6119 14.6146 90.2812 15.2266C89.953 15.8385 89.5051 16.306 88.9374 16.6289C88.3723 16.9492 87.7369 17.1094 87.0312 17.1094C86.3202 17.1094 85.6822 16.9479 85.1171 16.625C84.552 16.3021 84.1054 15.8346 83.7773 15.2227C83.4491 14.6107 83.2851 13.8698 83.2851 13C83.2851 12.1276 83.4491 11.3854 83.7773 10.7734C84.1054 10.1615 84.552 9.69531 85.1171 9.375C85.6822 9.05208 86.3202 8.89062 87.0312 8.89062C87.7369 8.89062 88.3723 9.05208 88.9374 9.375C89.5051 9.69531 89.953 10.1615 90.2812 10.7734C90.6119 11.3854 90.7773 12.1276 90.7773 13ZM89.0624 13C89.0624 12.4349 88.9778 11.9583 88.8085 11.5703C88.6418 11.1823 88.4062 10.888 88.1015 10.6875C87.7968 10.487 87.44 10.3867 87.0312 10.3867C86.6223 10.3867 86.2655 10.487 85.9609 10.6875C85.6562 10.888 85.4192 11.1823 85.2499 11.5703C85.0833 11.9583 84.9999 12.4349 84.9999 13C84.9999 13.5651 85.0833 14.0417 85.2499 14.4297C85.4192 14.8177 85.6562 15.112 85.9609 15.3125C86.2655 15.513 86.6223 15.6133 87.0312 15.6133C87.44 15.6133 87.7968 15.513 88.1015 15.3125C88.4062 15.112 88.6418 14.8177 88.8085 14.4297C88.9778 14.0417 89.0624 13.5651 89.0624 13ZM92.8002 17V9H95.9564C96.5606 9 97.0762 9.10807 97.5033 9.32422C97.933 9.53776 98.2598 9.84115 98.4838 10.2344C98.7104 10.625 98.8236 11.0846 98.8236 11.6133C98.8236 12.1445 98.709 12.6016 98.4799 12.9844C98.2507 13.3646 97.9187 13.6562 97.4838 13.8594C97.0515 14.0625 96.5281 14.1641 95.9135 14.1641H93.8002V12.8047H95.64C95.963 12.8047 96.2312 12.7604 96.4447 12.6719C96.6583 12.5833 96.8171 12.4505 96.9213 12.2734C97.0281 12.0964 97.0814 11.8763 97.0814 11.6133C97.0814 11.3477 97.0281 11.1237 96.9213 10.9414C96.8171 10.7591 96.657 10.6211 96.4408 10.5273C96.2273 10.431 95.9577 10.3828 95.6322 10.3828H94.4916V17H92.8002ZM97.1205 13.3594L99.1088 17H97.2416L95.2963 13.3594H97.1205ZM100.789 17V9H106.18V10.3945H102.48V12.3008H105.902V13.6953H102.48V15.6055H106.195V17H100.789ZM111.61 17V9H114.813C115.402 9 115.893 9.08724 116.286 9.26172C116.679 9.4362 116.975 9.67839 117.173 9.98828C117.371 10.2956 117.47 10.6497 117.47 11.0508C117.47 11.3633 117.407 11.638 117.282 11.875C117.157 12.1094 116.985 12.3021 116.766 12.4531C116.55 12.6016 116.303 12.707 116.024 12.7695V12.8477C116.329 12.8607 116.614 12.9466 116.88 13.1055C117.148 13.2643 117.365 13.487 117.532 13.7734C117.699 14.0573 117.782 14.3958 117.782 14.7891C117.782 15.2135 117.677 15.5924 117.466 15.9258C117.257 16.2565 116.949 16.5182 116.54 16.7109C116.131 16.9036 115.627 17 115.028 17H111.61ZM113.302 15.6172H114.681C115.152 15.6172 115.496 15.5273 115.712 15.3477C115.928 15.1654 116.036 14.9232 116.036 14.6211C116.036 14.3997 115.983 14.2044 115.876 14.0352C115.769 13.8659 115.617 13.7331 115.419 13.6367C115.223 13.5404 114.99 13.4922 114.72 13.4922H113.302V15.6172ZM113.302 12.3477H114.556C114.787 12.3477 114.993 12.3073 115.173 12.2266C115.355 12.1432 115.498 12.026 115.602 11.875C115.709 11.724 115.763 11.543 115.763 11.332C115.763 11.043 115.66 10.8099 115.454 10.6328C115.251 10.4557 114.962 10.3672 114.587 10.3672H113.302V12.3477ZM119.653 17V9H122.809C123.413 9 123.929 9.10807 124.356 9.32422C124.785 9.53776 125.112 9.84115 125.336 10.2344C125.563 10.625 125.676 11.0846 125.676 11.6133C125.676 12.1445 125.562 12.6016 125.332 12.9844C125.103 13.3646 124.771 13.6562 124.336 13.8594C123.904 14.0625 123.381 14.1641 122.766 14.1641H120.653V12.8047H122.493C122.815 12.8047 123.084 12.7604 123.297 12.6719C123.511 12.5833 123.67 12.4505 123.774 12.2734C123.881 12.0964 123.934 11.8763 123.934 11.6133C123.934 11.3477 123.881 11.1237 123.774 10.9414C123.67 10.7591 123.509 10.6211 123.293 10.5273C123.08 10.431 122.81 10.3828 122.485 10.3828H121.344V17H119.653ZM123.973 13.3594L125.961 17H124.094L122.149 13.3594H123.973ZM129.02 17H127.208L129.97 9H132.149L134.907 17H133.095L131.091 10.8281H131.028L129.02 17ZM128.907 13.8555H133.188V15.1758H128.907V13.8555ZM143.331 9V17H141.87L138.39 11.9648H138.331V17H136.64V9H138.124L141.577 14.0312H141.648V9H143.331ZM152.557 11.8008H150.846C150.815 11.5794 150.751 11.3828 150.655 11.2109C150.559 11.0365 150.435 10.888 150.284 10.7656C150.133 10.6432 149.958 10.5495 149.761 10.4844C149.565 10.4193 149.353 10.3867 149.124 10.3867C148.71 10.3867 148.349 10.4896 148.042 10.6953C147.734 10.8984 147.496 11.1953 147.327 11.5859C147.158 11.974 147.073 12.4453 147.073 13C147.073 13.5703 147.158 14.0495 147.327 14.4375C147.499 14.8255 147.738 15.1185 148.046 15.3164C148.353 15.5143 148.708 15.6133 149.112 15.6133C149.339 15.6133 149.548 15.5833 149.741 15.5234C149.936 15.4635 150.109 15.3763 150.261 15.2617C150.412 15.1445 150.537 15.0026 150.636 14.8359C150.737 14.6693 150.807 14.4792 150.846 14.2656L152.557 14.2734C152.513 14.6406 152.402 14.9948 152.225 15.3359C152.051 15.6745 151.815 15.9779 151.518 16.2461C151.224 16.5117 150.872 16.7227 150.464 16.8789C150.057 17.0326 149.598 17.1094 149.085 17.1094C148.371 17.1094 147.733 16.9479 147.171 16.625C146.611 16.3021 146.168 15.8346 145.843 15.2227C145.52 14.6107 145.358 13.8698 145.358 13C145.358 12.1276 145.522 11.3854 145.85 10.7734C146.178 10.1615 146.624 9.69531 147.186 9.375C147.749 9.05208 148.382 8.89062 149.085 8.89062C149.548 8.89062 149.978 8.95573 150.374 9.08594C150.772 9.21615 151.125 9.40625 151.432 9.65625C151.74 9.90365 151.99 10.207 152.182 10.5664C152.378 10.9258 152.503 11.3372 152.557 11.8008ZM154.54 17V9H156.232V12.3008H159.665V9H161.353V17H159.665V13.6953H156.232V17H154.54ZM163.517 17V9H168.908V10.3945H165.209V12.3008H168.631V13.6953H165.209V15.6055H168.924V17H163.517ZM175.363 11.3008C175.331 10.9857 175.197 10.7409 174.96 10.5664C174.723 10.3919 174.402 10.3047 173.995 10.3047C173.719 10.3047 173.486 10.3437 173.296 10.4219C173.106 10.4974 172.96 10.6029 172.859 10.7383C172.76 10.8737 172.71 11.0273 172.71 11.1992C172.705 11.3424 172.735 11.4674 172.8 11.5742C172.868 11.681 172.96 11.7734 173.077 11.8516C173.195 11.9271 173.33 11.9935 173.484 12.0508C173.637 12.1055 173.801 12.1523 173.976 12.1914L174.695 12.3633C175.043 12.4414 175.364 12.5456 175.655 12.6758C175.947 12.806 176.2 12.9661 176.413 13.1562C176.627 13.3464 176.792 13.5703 176.909 13.8281C177.029 14.0859 177.09 14.3815 177.093 14.7148C177.09 15.2044 176.965 15.6289 176.718 15.9883C176.473 16.3451 176.119 16.6224 175.655 16.8203C175.195 17.0156 174.639 17.1133 173.988 17.1133C173.342 17.1133 172.779 17.0143 172.3 16.8164C171.823 16.6185 171.451 16.3255 171.183 15.9375C170.917 15.5469 170.778 15.0638 170.765 14.4883H172.402C172.42 14.7565 172.497 14.9805 172.632 15.1602C172.77 15.3372 172.954 15.4714 173.183 15.5625C173.415 15.651 173.676 15.6953 173.968 15.6953C174.254 15.6953 174.503 15.6536 174.714 15.5703C174.928 15.487 175.093 15.3711 175.21 15.2227C175.327 15.0742 175.386 14.9036 175.386 14.7109C175.386 14.5312 175.333 14.3802 175.226 14.2578C175.122 14.1354 174.968 14.0312 174.765 13.9453C174.564 13.8594 174.318 13.7812 174.027 13.7109L173.155 13.4922C172.481 13.3281 171.948 13.0716 171.558 12.7227C171.167 12.3737 170.973 11.9036 170.976 11.3125C170.973 10.8281 171.102 10.4049 171.363 10.043C171.626 9.68099 171.986 9.39844 172.445 9.19531C172.903 8.99219 173.424 8.89062 174.007 8.89062C174.601 8.89062 175.119 8.99219 175.562 9.19531C176.007 9.39844 176.353 9.68099 176.601 10.043C176.848 10.4049 176.976 10.8242 176.984 11.3008H175.363Z" fill="#7F9EF3"/>
<path d="M276.784 70.3565C278.086 67.7141 276.999 64.517 274.357 63.2155C271.714 61.914 268.517 63.001 267.216 65.6434C265.914 68.2858 267.001 71.483 269.643 72.7844C272.286 74.0859 275.483 72.9989 276.784 70.3565ZM272.552 67.1664L271.332 66.3576L270.227 68.0247L271.448 68.8336L272.552 67.1664ZM268.891 64.7399L266.449 63.1223L265.345 64.7894L267.786 66.4071L268.891 64.7399ZM264.008 61.5046L261.567 59.887L260.462 61.5542L262.904 63.1718L264.008 61.5046ZM259.126 58.2693L256.685 56.6517L255.58 58.3189L258.021 59.9365L259.126 58.2693ZM254.244 55.034L251.802 53.4164L250.698 55.0836L253.139 56.7012L254.244 55.034ZM249.361 51.7987L246.92 50.1811L245.815 51.8483L248.256 53.4659L249.361 51.7987ZM244.479 48.5634L242.038 46.9458L240.933 48.613L243.374 50.2306L244.479 48.5634ZM239.597 45.3282L237.155 43.7105L236.051 45.3777L238.492 46.9953L239.597 45.3282ZM234.714 42.0929L232.273 40.4752L231.168 42.1424L233.609 43.7601L234.714 42.0929ZM229.832 38.8576L227.391 37.2399L226.286 38.9071L228.727 40.5248L229.832 38.8576ZM224.949 35.6223L222.508 34.0046L221.404 35.6718L223.845 37.2895L224.949 35.6223ZM220.067 32.387L217.626 30.7693L216.521 32.4365L218.962 34.0542L220.067 32.387ZM215.185 29.1517L212.744 27.534L211.639 29.2012L214.08 30.8189L215.185 29.1517ZM210.302 25.9164L207.861 24.2988L206.756 25.9659L209.198 27.5836L210.302 25.9164ZM205.42 22.6811L202.979 21.0635L201.874 22.7306L204.315 24.3483L205.42 22.6811ZM200.538 19.4458L198.096 17.8282L196.992 19.4953L199.433 21.113L200.538 19.4458ZM195.655 16.2105L193.214 14.5929L192.109 16.26L194.551 17.8777L195.655 16.2105ZM190.773 12.9752L189.552 12.1664L188.448 13.8336L189.668 14.6424L190.773 12.9752Z" fill="#1C2755"/>
<rect x="306" y="196.815" width="211" height="26" rx="12" fill="#1C2755"/>
<path d="M321.695 213.815V205.815H324.852C325.458 205.815 325.975 205.931 326.402 206.163C326.829 206.392 327.155 206.711 327.379 207.12C327.605 207.526 327.719 207.995 327.719 208.526C327.719 209.058 327.604 209.526 327.375 209.933C327.146 210.339 326.814 210.655 326.379 210.882C325.947 211.108 325.423 211.222 324.809 211.222H322.797V209.866H324.535C324.861 209.866 325.129 209.81 325.34 209.698C325.553 209.584 325.712 209.426 325.816 209.225C325.923 209.022 325.977 208.789 325.977 208.526C325.977 208.261 325.923 208.029 325.816 207.831C325.712 207.63 325.553 207.475 325.34 207.366C325.126 207.254 324.855 207.198 324.527 207.198H323.387V213.815H321.695ZM329.587 213.815V205.815H332.744C333.348 205.815 333.863 205.923 334.291 206.14C334.72 206.353 335.047 206.656 335.271 207.05C335.498 207.44 335.611 207.9 335.611 208.429C335.611 208.96 335.496 209.417 335.267 209.8C335.038 210.18 334.706 210.472 334.271 210.675C333.839 210.878 333.315 210.979 332.701 210.979H330.587V209.62H332.427C332.75 209.62 333.018 209.576 333.232 209.487C333.445 209.399 333.604 209.266 333.708 209.089C333.815 208.912 333.869 208.692 333.869 208.429C333.869 208.163 333.815 207.939 333.708 207.757C333.604 207.574 333.444 207.436 333.228 207.343C333.014 207.246 332.745 207.198 332.419 207.198H331.279V213.815H329.587ZM333.908 210.175L335.896 213.815H334.029L332.083 210.175H333.908ZM337.576 213.815V205.815H342.967V207.21H339.268V209.116H342.689V210.511H339.268V212.421H342.982V213.815H337.576ZM346.527 205.815L348.46 211.893H348.535L350.472 205.815H352.347L349.589 213.815H347.41L344.648 205.815H346.527ZM355.771 205.815V213.815H354.08V205.815H355.771ZM357.933 213.815V205.815H363.324V207.21H359.624V209.116H363.046V210.511H359.624V212.421H363.339V213.815H357.933ZM367.239 213.815L364.95 205.815H366.798L368.122 211.374H368.188L369.649 205.815H371.231L372.688 211.386H372.759L374.083 205.815H375.931L373.641 213.815H371.993L370.47 208.585H370.407L368.888 213.815H367.239ZM380.922 213.815V205.815H382.613V209.116H386.047V205.815H387.734V213.815H386.047V210.511H382.613V213.815H380.922ZM389.899 213.815V205.815H395.289V207.21H391.59V209.116H395.012V210.511H391.59V212.421H395.305V213.815H389.899ZM397.404 213.815V205.815H399.096V212.421H402.525V213.815H397.404ZM404.415 205.815H406.501L408.704 211.19H408.798L411.001 205.815H413.087V213.815H411.447V208.608H411.38L409.31 213.776H408.193L406.122 208.589H406.056V213.815H404.415V205.815ZM420.989 213.933C420.436 213.933 419.96 213.834 419.559 213.636C419.158 213.438 418.849 213.169 418.633 212.831C418.42 212.49 418.313 212.11 418.313 211.69C418.313 211.378 418.375 211.1 418.5 210.858C418.625 210.616 418.8 210.393 419.024 210.19C419.248 209.985 419.508 209.78 419.805 209.577L421.356 208.558C421.556 208.43 421.703 208.296 421.797 208.155C421.891 208.012 421.938 207.857 421.938 207.69C421.938 207.531 421.874 207.384 421.746 207.249C421.619 207.114 421.438 207.047 421.203 207.05C421.047 207.05 420.912 207.085 420.797 207.155C420.683 207.223 420.593 207.313 420.528 207.425C420.465 207.534 420.434 207.656 420.434 207.792C420.434 207.959 420.481 208.128 420.574 208.3C420.668 208.472 420.793 208.654 420.949 208.847C421.106 209.037 421.276 209.242 421.461 209.464L425.254 213.815H423.52L420.356 210.292C420.147 210.055 419.939 209.808 419.731 209.55C419.525 209.289 419.353 209.013 419.215 208.722C419.077 208.427 419.008 208.108 419.008 207.765C419.008 207.377 419.098 207.028 419.278 206.718C419.46 206.408 419.715 206.163 420.043 205.983C420.371 205.801 420.754 205.71 421.192 205.71C421.619 205.71 421.987 205.797 422.297 205.972C422.61 206.143 422.849 206.373 423.016 206.659C423.185 206.943 423.27 207.255 423.27 207.597C423.27 207.974 423.176 208.317 422.989 208.624C422.804 208.929 422.543 209.202 422.207 209.444L420.574 210.62C420.353 210.781 420.189 210.947 420.082 211.116C419.978 211.283 419.926 211.443 419.926 211.597C419.926 211.787 419.973 211.957 420.067 212.108C420.16 212.259 420.293 212.379 420.465 212.468C420.637 212.554 420.839 212.597 421.071 212.597C421.352 212.597 421.629 212.533 421.903 212.405C422.179 212.275 422.429 212.091 422.653 211.854C422.879 211.615 423.06 211.331 423.196 211.003C423.331 210.675 423.399 210.311 423.399 209.913H424.778C424.778 210.403 424.724 210.844 424.617 211.237C424.511 211.628 424.362 211.969 424.172 212.261C423.982 212.55 423.765 212.787 423.52 212.972C423.442 213.021 423.366 213.068 423.293 213.112C423.22 213.156 423.145 213.203 423.067 213.253C422.77 213.492 422.438 213.666 422.071 213.772C421.706 213.879 421.345 213.933 420.989 213.933ZM430.065 213.815V205.815H431.756V209.343H431.862L434.74 205.815H436.768L433.799 209.397L436.803 213.815H434.779L432.588 210.526L431.756 211.542V213.815H430.065ZM443.36 205.815H445.051V211.011C445.051 211.594 444.912 212.104 444.633 212.542C444.357 212.979 443.971 213.321 443.473 213.565C442.976 213.808 442.396 213.929 441.735 213.929C441.071 213.929 440.49 213.808 439.993 213.565C439.495 213.321 439.109 212.979 438.833 212.542C438.557 212.104 438.419 211.594 438.419 211.011V205.815H440.11V210.866C440.11 211.171 440.176 211.442 440.309 211.679C440.445 211.916 440.635 212.102 440.88 212.237C441.124 212.373 441.41 212.44 441.735 212.44C442.063 212.44 442.348 212.373 442.591 212.237C442.835 212.102 443.024 211.916 443.157 211.679C443.292 211.442 443.36 211.171 443.36 210.866V205.815ZM451.553 208.116C451.522 207.801 451.388 207.556 451.151 207.382C450.914 207.207 450.592 207.12 450.186 207.12C449.91 207.12 449.677 207.159 449.486 207.237C449.296 207.313 449.151 207.418 449.049 207.554C448.95 207.689 448.901 207.843 448.901 208.015C448.895 208.158 448.925 208.283 448.99 208.39C449.058 208.496 449.151 208.589 449.268 208.667C449.385 208.742 449.52 208.809 449.674 208.866C449.828 208.921 449.992 208.968 450.166 209.007L450.885 209.179C451.234 209.257 451.554 209.361 451.846 209.491C452.138 209.621 452.39 209.781 452.604 209.972C452.817 210.162 452.983 210.386 453.1 210.643C453.22 210.901 453.281 211.197 453.283 211.53C453.281 212.02 453.156 212.444 452.908 212.804C452.664 213.16 452.309 213.438 451.846 213.636C451.385 213.831 450.829 213.929 450.178 213.929C449.532 213.929 448.97 213.83 448.49 213.632C448.014 213.434 447.641 213.141 447.373 212.753C447.108 212.362 446.968 211.879 446.955 211.304H448.592C448.61 211.572 448.687 211.796 448.822 211.975C448.96 212.153 449.144 212.287 449.373 212.378C449.605 212.466 449.867 212.511 450.158 212.511C450.445 212.511 450.694 212.469 450.904 212.386C451.118 212.302 451.283 212.186 451.401 212.038C451.518 211.89 451.576 211.719 451.576 211.526C451.576 211.347 451.523 211.196 451.416 211.073C451.312 210.951 451.158 210.847 450.955 210.761C450.755 210.675 450.509 210.597 450.217 210.526L449.346 210.308C448.671 210.143 448.139 209.887 447.748 209.538C447.358 209.189 447.164 208.719 447.166 208.128C447.164 207.643 447.292 207.22 447.553 206.858C447.816 206.496 448.177 206.214 448.635 206.011C449.093 205.808 449.614 205.706 450.197 205.706C450.791 205.706 451.309 205.808 451.752 206.011C452.197 206.214 452.544 206.496 452.791 206.858C453.039 207.22 453.166 207.64 453.174 208.116H451.553ZM454.886 207.21V205.815H461.457V207.21H459.007V213.815H457.336V207.21H454.886ZM470.295 209.815C470.295 210.688 470.13 211.43 469.799 212.042C469.471 212.654 469.023 213.121 468.455 213.444C467.89 213.765 467.255 213.925 466.549 213.925C465.838 213.925 465.2 213.763 464.635 213.44C464.07 213.117 463.623 212.65 463.295 212.038C462.967 211.426 462.803 210.685 462.803 209.815C462.803 208.943 462.967 208.201 463.295 207.589C463.623 206.977 464.07 206.511 464.635 206.19C465.2 205.867 465.838 205.706 466.549 205.706C467.255 205.706 467.89 205.867 468.455 206.19C469.023 206.511 469.471 206.977 469.799 207.589C470.13 208.201 470.295 208.943 470.295 209.815ZM468.58 209.815C468.58 209.25 468.496 208.774 468.326 208.386C468.16 207.998 467.924 207.703 467.619 207.503C467.315 207.302 466.958 207.202 466.549 207.202C466.14 207.202 465.783 207.302 465.479 207.503C465.174 207.703 464.937 207.998 464.768 208.386C464.601 208.774 464.518 209.25 464.518 209.815C464.518 210.38 464.601 210.857 464.768 211.245C464.937 211.633 465.174 211.927 465.479 212.128C465.783 212.328 466.14 212.429 466.549 212.429C466.958 212.429 467.315 212.328 467.619 212.128C467.924 211.927 468.16 211.633 468.326 211.245C468.496 210.857 468.58 210.38 468.58 209.815ZM472.318 205.815H474.404L476.607 211.19H476.701L478.904 205.815H480.99V213.815H479.349V208.608H479.283L477.212 213.776H476.095L474.025 208.589H473.959V213.815H472.318V205.815ZM484.845 205.815V213.815H483.153V205.815H484.845ZM486.92 213.815V212.811L490.913 207.21H486.913V205.815H493.038V206.819L489.042 212.421H493.045V213.815H486.92ZM495.113 213.815V205.815H500.504V207.21H496.805V209.116H500.227V210.511H496.805V212.421H500.52V213.815H495.113Z" fill="#7F9EF3"/>
<path d="M150.018 153.623C151.016 150.852 149.579 147.796 146.808 146.798C144.036 145.799 140.981 147.237 139.982 150.008C138.984 152.779 140.421 155.835 143.192 156.833C145.964 157.831 149.019 156.394 150.018 153.623ZM306.339 208.875L304.951 208.375L304.273 210.256L305.661 210.756L306.339 208.875ZM302.175 207.375L299.399 206.375L298.721 208.256L301.497 209.256L302.175 207.375ZM296.623 205.375L293.848 204.375L293.17 206.256L295.946 207.256L296.623 205.375ZM291.072 203.375L288.296 202.375L287.618 204.256L290.394 205.256L291.072 203.375ZM285.52 201.375L282.744 200.375L282.066 202.256L284.842 203.256L285.52 201.375ZM279.968 199.375L277.192 198.375L276.515 200.256L279.29 201.256L279.968 199.375ZM274.417 197.375L271.641 196.375L270.963 198.256L273.739 199.256L274.417 197.375ZM268.865 195.375L266.089 194.375L265.411 196.256L268.187 197.256L268.865 195.375ZM263.313 193.375L260.537 192.375L259.859 194.256L262.635 195.256L263.313 193.375ZM257.761 191.375L254.985 190.375L254.308 192.256L257.083 193.256L257.761 191.375ZM252.21 189.375L249.434 188.375L248.756 190.256L251.532 191.256L252.21 189.375ZM246.658 187.375L243.882 186.375L243.204 188.256L245.98 189.256L246.658 187.375ZM241.106 185.375L238.33 184.375L237.652 186.256L240.428 187.256L241.106 185.375ZM235.554 183.375L232.779 182.375L232.101 184.256L234.877 185.256L235.554 183.375ZM230.003 181.375L227.227 180.375L226.549 182.256L229.325 183.256L230.003 181.375ZM224.451 179.375L221.675 178.375L220.997 180.256L223.773 181.256L224.451 179.375ZM218.899 177.375L216.123 176.375L215.446 178.256L218.221 179.256L218.899 177.375ZM213.348 175.375L210.572 174.375L209.894 176.256L212.67 177.256L213.348 175.375ZM207.796 173.375L205.02 172.375L204.342 174.256L207.118 175.256L207.796 173.375ZM202.244 171.375L199.468 170.375L198.79 172.256L201.566 173.256L202.244 171.375ZM196.692 169.375L193.917 168.375L193.239 170.256L196.015 171.256L196.692 169.375ZM191.141 167.375L188.365 166.375L187.687 168.256L190.463 169.256L191.141 167.375ZM185.589 165.375L182.813 164.375L182.135 166.256L184.911 167.256L185.589 165.375ZM180.037 163.375L177.261 162.375L176.583 164.256L179.359 165.256L180.037 163.375ZM174.485 161.375L171.71 160.375L171.032 162.256L173.808 163.256L174.485 161.375ZM168.934 159.375L166.158 158.374L165.48 160.256L168.256 161.256L168.934 159.375ZM163.382 157.374L160.606 156.374L159.928 158.256L162.704 159.256L163.382 157.374ZM157.83 155.374L155.054 154.374L154.377 156.256L157.152 157.256L157.83 155.374ZM152.279 153.374L149.503 152.374L148.825 154.256L151.601 155.256L152.279 153.374ZM146.727 151.374L145.339 150.875L144.661 152.756L146.049 153.256L146.727 151.374Z" fill="#1C2755"/>
<path d="M150.221 176.728C149.62 173.844 146.796 171.993 143.912 172.594C141.029 173.195 139.178 176.019 139.779 178.903C140.38 181.787 143.204 183.637 146.088 183.037C148.971 182.436 150.822 179.611 150.221 176.728ZM306.195 208.835L304.704 208.538L304.314 210.5L305.805 210.796L306.195 208.835ZM301.723 207.946L298.741 207.353L298.351 209.315L301.333 209.907L301.723 207.946ZM295.76 206.76L292.778 206.168L292.388 208.129L295.37 208.722L295.76 206.76ZM289.797 205.575L286.815 204.983L286.425 206.944L289.407 207.537L289.797 205.575ZM283.834 204.39L280.852 203.797L280.463 205.759L283.444 206.352L283.834 204.39ZM277.871 203.205L274.889 202.612L274.5 204.574L277.481 205.167L277.871 203.205ZM271.908 202.02L268.926 201.427L268.537 203.389L271.518 203.981L271.908 202.02ZM265.945 200.835L262.964 200.242L262.574 202.204L265.555 202.796L265.945 200.835ZM259.982 199.649L257.001 199.057L256.611 201.018L259.592 201.611L259.982 199.649ZM254.019 198.464L251.038 197.872L250.648 199.833L253.629 200.426L254.019 198.464ZM248.056 197.279L245.075 196.686L244.685 198.648L247.666 199.241L248.056 197.279ZM242.093 196.094L239.112 195.501L238.722 197.463L241.703 198.055L242.093 196.094ZM236.13 194.909L233.149 194.316L232.759 196.278L235.74 196.87L236.13 194.909ZM230.167 193.723L227.186 193.131L226.796 195.092L229.777 195.685L230.167 193.723ZM224.204 192.538L221.223 191.946L220.833 193.907L223.814 194.5L224.204 192.538ZM218.241 191.353L215.26 190.76L214.87 192.722L217.851 193.315L218.241 191.353ZM212.278 190.168L209.297 189.575L208.907 191.537L211.888 192.129L212.278 190.168ZM206.315 188.983L203.334 188.39L202.944 190.352L205.925 190.944L206.315 188.983ZM200.352 187.797L197.371 187.205L196.981 189.167L199.962 189.759L200.352 187.797ZM194.389 186.612L191.408 186.02L191.018 187.981L194 188.574L194.389 186.612ZM188.426 185.427L185.445 184.835L185.055 186.796L188.037 187.389L188.426 185.427ZM182.463 184.242L179.482 183.649L179.092 185.611L182.074 186.204L182.463 184.242ZM176.501 183.057L173.519 182.464L173.129 184.426L176.111 185.018L176.501 183.057ZM170.538 181.872L167.556 181.279L167.166 183.241L170.148 183.833L170.538 181.872ZM164.575 180.686L161.593 180.094L161.203 182.055L164.185 182.648L164.575 180.686ZM158.612 179.501L155.63 178.909L155.24 180.87L158.222 181.463L158.612 179.501ZM152.649 178.316L149.667 177.723L149.277 179.685L152.259 180.278L152.649 178.316ZM146.686 177.131L145.195 176.835L144.805 178.796L146.296 179.092L146.686 177.131Z" fill="#1C2755"/>
<rect x="276" y="113" width="162" height="26" rx="12" fill="#1C2755"/>
<path d="M295.754 124.801H294.043C294.012 124.579 293.948 124.383 293.852 124.211C293.755 124.036 293.632 123.888 293.48 123.766C293.329 123.643 293.155 123.549 292.957 123.484C292.762 123.419 292.55 123.387 292.32 123.387C291.906 123.387 291.546 123.49 291.238 123.695C290.931 123.898 290.693 124.195 290.523 124.586C290.354 124.974 290.27 125.445 290.27 126C290.27 126.57 290.354 127.049 290.523 127.438C290.695 127.826 290.935 128.119 291.242 128.316C291.55 128.514 291.905 128.613 292.309 128.613C292.535 128.613 292.745 128.583 292.938 128.523C293.133 128.464 293.306 128.376 293.457 128.262C293.608 128.145 293.733 128.003 293.832 127.836C293.934 127.669 294.004 127.479 294.043 127.266L295.754 127.273C295.71 127.641 295.599 127.995 295.422 128.336C295.247 128.674 295.012 128.978 294.715 129.246C294.421 129.512 294.069 129.723 293.66 129.879C293.254 130.033 292.794 130.109 292.281 130.109C291.568 130.109 290.93 129.948 290.367 129.625C289.807 129.302 289.365 128.835 289.039 128.223C288.716 127.611 288.555 126.87 288.555 126C288.555 125.128 288.719 124.385 289.047 123.773C289.375 123.161 289.82 122.695 290.383 122.375C290.945 122.052 291.578 121.891 292.281 121.891C292.745 121.891 293.175 121.956 293.57 122.086C293.969 122.216 294.322 122.406 294.629 122.656C294.936 122.904 295.186 123.207 295.379 123.566C295.574 123.926 295.699 124.337 295.754 124.801ZM305.088 126C305.088 126.872 304.923 127.615 304.592 128.227C304.264 128.839 303.816 129.306 303.249 129.629C302.683 129.949 302.048 130.109 301.342 130.109C300.631 130.109 299.993 129.948 299.428 129.625C298.863 129.302 298.417 128.835 298.088 128.223C297.76 127.611 297.596 126.87 297.596 126C297.596 125.128 297.76 124.385 298.088 123.773C298.417 123.161 298.863 122.695 299.428 122.375C299.993 122.052 300.631 121.891 301.342 121.891C302.048 121.891 302.683 122.052 303.249 122.375C303.816 122.695 304.264 123.161 304.592 123.773C304.923 124.385 305.088 125.128 305.088 126ZM303.374 126C303.374 125.435 303.289 124.958 303.12 124.57C302.953 124.182 302.717 123.888 302.413 123.688C302.108 123.487 301.751 123.387 301.342 123.387C300.933 123.387 300.577 123.487 300.272 123.688C299.967 123.888 299.73 124.182 299.561 124.57C299.394 124.958 299.311 125.435 299.311 126C299.311 126.565 299.394 127.042 299.561 127.43C299.73 127.818 299.967 128.112 300.272 128.313C300.577 128.513 300.933 128.613 301.342 128.613C301.751 128.613 302.108 128.513 302.413 128.313C302.717 128.112 302.953 127.818 303.12 127.43C303.289 127.042 303.374 126.565 303.374 126ZM307.111 122H309.197L311.4 127.375H311.494L313.697 122H315.783V130H314.143V124.793H314.076L312.006 129.961H310.889L308.818 124.773H308.752V130H307.111V122ZM317.947 130V122H321.103C321.71 122 322.227 122.116 322.654 122.348C323.081 122.577 323.406 122.896 323.63 123.305C323.857 123.711 323.97 124.18 323.97 124.711C323.97 125.242 323.856 125.711 323.626 126.117C323.397 126.523 323.065 126.84 322.63 127.066C322.198 127.293 321.675 127.406 321.06 127.406H319.048V126.051H320.787C321.112 126.051 321.38 125.995 321.591 125.883C321.805 125.768 321.964 125.611 322.068 125.41C322.175 125.207 322.228 124.974 322.228 124.711C322.228 124.445 322.175 124.214 322.068 124.016C321.964 123.815 321.805 123.66 321.591 123.551C321.378 123.439 321.107 123.383 320.779 123.383H319.638V130H317.947ZM326.294 130H324.481L327.243 122H329.423L332.181 130H330.368L328.364 123.828H328.302L326.294 130ZM326.181 126.855H330.462V128.176H326.181V126.855ZM333.914 130V122H337.07C337.674 122 338.19 122.108 338.617 122.324C339.046 122.538 339.373 122.841 339.597 123.234C339.824 123.625 339.937 124.085 339.937 124.613C339.937 125.145 339.822 125.602 339.593 125.984C339.364 126.365 339.032 126.656 338.597 126.859C338.165 127.063 337.641 127.164 337.027 127.164H334.914V125.805H336.753C337.076 125.805 337.344 125.76 337.558 125.672C337.772 125.583 337.93 125.451 338.035 125.273C338.141 125.096 338.195 124.876 338.195 124.613C338.195 124.348 338.141 124.124 338.035 123.941C337.93 123.759 337.77 123.621 337.554 123.527C337.341 123.431 337.071 123.383 336.746 123.383H335.605V130H333.914ZM338.234 126.359L340.222 130H338.355L336.41 126.359H338.234ZM341.902 130V122H347.293V123.395H343.594V125.301H347.016V126.695H343.594V128.605H347.309V130H341.902ZM352.724 130V122H355.88C356.484 122 357 122.108 357.427 122.324C357.856 122.538 358.183 122.841 358.407 123.234C358.634 123.625 358.747 124.085 358.747 124.613C358.747 125.145 358.632 125.602 358.403 125.984C358.174 126.365 357.842 126.656 357.407 126.859C356.975 127.063 356.451 127.164 355.837 127.164H353.724V125.805H355.563C355.886 125.805 356.155 125.76 356.368 125.672C356.582 125.583 356.74 125.451 356.845 125.273C356.951 125.096 357.005 124.876 357.005 124.613C357.005 124.348 356.951 124.124 356.845 123.941C356.74 123.759 356.58 123.621 356.364 123.527C356.151 123.431 355.881 123.383 355.556 123.383H354.415V130H352.724ZM357.044 126.359L359.032 130H357.165L355.22 126.359H357.044ZM360.712 130V122H366.103V123.395H362.404V125.301H365.826V126.695H362.404V128.605H366.119V130H360.712ZM372.557 124.301C372.526 123.986 372.392 123.741 372.155 123.566C371.918 123.392 371.597 123.305 371.19 123.305C370.914 123.305 370.681 123.344 370.491 123.422C370.301 123.497 370.155 123.603 370.054 123.738C369.955 123.874 369.905 124.027 369.905 124.199C369.9 124.342 369.93 124.467 369.995 124.574C370.063 124.681 370.155 124.773 370.272 124.852C370.389 124.927 370.525 124.994 370.679 125.051C370.832 125.105 370.996 125.152 371.171 125.191L371.889 125.363C372.238 125.441 372.559 125.546 372.85 125.676C373.142 125.806 373.395 125.966 373.608 126.156C373.822 126.346 373.987 126.57 374.104 126.828C374.224 127.086 374.285 127.382 374.288 127.715C374.285 128.204 374.16 128.629 373.913 128.988C373.668 129.345 373.314 129.622 372.85 129.82C372.389 130.016 371.833 130.113 371.182 130.113C370.537 130.113 369.974 130.014 369.495 129.816C369.018 129.619 368.646 129.326 368.378 128.938C368.112 128.547 367.973 128.064 367.96 127.488H369.597C369.615 127.757 369.692 127.98 369.827 128.16C369.965 128.337 370.149 128.471 370.378 128.563C370.61 128.651 370.871 128.695 371.163 128.695C371.449 128.695 371.698 128.654 371.909 128.57C372.123 128.487 372.288 128.371 372.405 128.223C372.522 128.074 372.581 127.904 372.581 127.711C372.581 127.531 372.528 127.38 372.421 127.258C372.317 127.135 372.163 127.031 371.96 126.945C371.759 126.859 371.513 126.781 371.222 126.711L370.35 126.492C369.676 126.328 369.143 126.072 368.753 125.723C368.362 125.374 368.168 124.904 368.171 124.313C368.168 123.828 368.297 123.405 368.557 123.043C368.82 122.681 369.181 122.398 369.639 122.195C370.098 121.992 370.619 121.891 371.202 121.891C371.796 121.891 372.314 121.992 372.757 122.195C373.202 122.398 373.548 122.681 373.796 123.043C374.043 123.405 374.171 123.824 374.179 124.301H372.557ZM383.547 126C383.547 126.872 383.382 127.615 383.051 128.227C382.723 128.839 382.275 129.306 381.707 129.629C381.142 129.949 380.507 130.109 379.801 130.109C379.09 130.109 378.452 129.948 377.887 129.625C377.322 129.302 376.875 128.835 376.547 128.223C376.219 127.611 376.055 126.87 376.055 126C376.055 125.128 376.219 124.385 376.547 123.773C376.875 123.161 377.322 122.695 377.887 122.375C378.452 122.052 379.09 121.891 379.801 121.891C380.507 121.891 381.142 122.052 381.707 122.375C382.275 122.695 382.723 123.161 383.051 123.773C383.382 124.385 383.547 125.128 383.547 126ZM381.832 126C381.832 125.435 381.748 124.958 381.578 124.57C381.412 124.182 381.176 123.888 380.871 123.688C380.567 123.487 380.21 123.387 379.801 123.387C379.392 123.387 379.035 123.487 378.731 123.688C378.426 123.888 378.189 124.182 378.02 124.57C377.853 124.958 377.77 125.435 377.77 126C377.77 126.565 377.853 127.042 378.02 127.43C378.189 127.818 378.426 128.112 378.731 128.313C379.035 128.513 379.392 128.613 379.801 128.613C380.21 128.613 380.567 128.513 380.871 128.313C381.176 128.112 381.412 127.818 381.578 127.43C381.748 127.042 381.832 126.565 381.832 126ZM390.512 122H392.203V127.195C392.203 127.779 392.064 128.289 391.785 128.727C391.509 129.164 391.122 129.505 390.625 129.75C390.127 129.992 389.548 130.113 388.887 130.113C388.222 130.113 387.642 129.992 387.144 129.75C386.647 129.505 386.26 129.164 385.984 128.727C385.708 128.289 385.57 127.779 385.57 127.195V122H387.262V127.051C387.262 127.355 387.328 127.626 387.461 127.863C387.596 128.1 387.786 128.286 388.031 128.422C388.276 128.557 388.561 128.625 388.887 128.625C389.215 128.625 389.5 128.557 389.742 128.422C389.987 128.286 390.176 128.1 390.308 127.863C390.444 127.626 390.512 127.355 390.512 127.051V122ZM394.365 130V122H397.521C398.125 122 398.641 122.108 399.068 122.324C399.497 122.538 399.824 122.841 400.048 123.234C400.275 123.625 400.388 124.085 400.388 124.613C400.388 125.145 400.273 125.602 400.044 125.984C399.815 126.365 399.483 126.656 399.048 126.859C398.616 127.063 398.092 127.164 397.478 127.164H395.365V125.805H397.204C397.527 125.805 397.796 125.76 398.009 125.672C398.223 125.583 398.381 125.451 398.486 125.273C398.592 125.096 398.646 124.876 398.646 124.613C398.646 124.348 398.592 124.124 398.486 123.941C398.381 123.759 398.221 123.621 398.005 123.527C397.792 123.431 397.522 123.383 397.197 123.383H396.056V130H394.365ZM398.685 126.359L400.673 130H398.806L396.861 126.359H398.685ZM409.412 124.801H407.701C407.67 124.579 407.606 124.383 407.51 124.211C407.413 124.036 407.289 123.888 407.138 123.766C406.987 123.643 406.813 123.549 406.615 123.484C406.42 123.419 406.207 123.387 405.978 123.387C405.564 123.387 405.204 123.49 404.896 123.695C404.589 123.898 404.351 124.195 404.181 124.586C404.012 124.974 403.927 125.445 403.927 126C403.927 126.57 404.012 127.049 404.181 127.438C404.353 127.826 404.593 128.119 404.9 128.316C405.207 128.514 405.563 128.613 405.967 128.613C406.193 128.613 406.403 128.583 406.595 128.523C406.791 128.464 406.964 128.376 407.115 128.262C407.266 128.145 407.391 128.003 407.49 127.836C407.592 127.669 407.662 127.479 407.701 127.266L409.412 127.273C409.368 127.641 409.257 127.995 409.08 128.336C408.905 128.674 408.67 128.978 408.373 129.246C408.079 129.512 407.727 129.723 407.318 129.879C406.912 130.033 406.452 130.109 405.939 130.109C405.226 130.109 404.588 129.948 404.025 129.625C403.465 129.302 403.023 128.835 402.697 128.223C402.374 127.611 402.213 126.87 402.213 126C402.213 125.128 402.377 124.385 402.705 123.773C403.033 123.161 403.478 122.695 404.041 122.375C404.603 122.052 405.236 121.891 405.939 121.891C406.403 121.891 406.832 121.956 407.228 122.086C407.627 122.216 407.98 122.406 408.287 122.656C408.594 122.904 408.844 123.207 409.037 123.566C409.232 123.926 409.357 124.337 409.412 124.801ZM411.395 130V122H416.785V123.395H413.086V125.301H416.508V126.695H413.086V128.605H416.801V130H411.395ZM423.24 124.301C423.209 123.986 423.075 123.741 422.838 123.566C422.601 123.392 422.279 123.305 421.873 123.305C421.597 123.305 421.364 123.344 421.174 123.422C420.983 123.497 420.838 123.603 420.736 123.738C420.637 123.874 420.588 124.027 420.588 124.199C420.582 124.342 420.612 124.467 420.677 124.574C420.745 124.681 420.838 124.773 420.955 124.852C421.072 124.927 421.207 124.994 421.361 125.051C421.515 125.105 421.679 125.152 421.853 125.191L422.572 125.363C422.921 125.441 423.241 125.546 423.533 125.676C423.825 125.806 424.077 125.966 424.291 126.156C424.504 126.346 424.67 126.57 424.787 126.828C424.907 127.086 424.968 127.382 424.97 127.715C424.968 128.204 424.843 128.629 424.595 128.988C424.351 129.345 423.996 129.622 423.533 129.82C423.072 130.016 422.516 130.113 421.865 130.113C421.219 130.113 420.657 130.014 420.177 129.816C419.701 129.619 419.329 129.326 419.06 128.938C418.795 128.547 418.655 128.064 418.642 127.488H420.279C420.297 127.757 420.374 127.98 420.509 128.16C420.648 128.337 420.831 128.471 421.06 128.563C421.292 128.651 421.554 128.695 421.845 128.695C422.132 128.695 422.381 128.654 422.592 128.57C422.805 128.487 422.97 128.371 423.088 128.223C423.205 128.074 423.263 127.904 423.263 127.711C423.263 127.531 423.21 127.38 423.103 127.258C422.999 127.135 422.845 127.031 422.642 126.945C422.442 126.859 422.196 126.781 421.904 126.711L421.033 126.492C420.358 126.328 419.826 126.072 419.435 125.723C419.045 125.374 418.851 124.904 418.853 124.313C418.851 123.828 418.98 123.405 419.24 123.043C419.503 122.681 419.864 122.398 420.322 122.195C420.78 121.992 421.301 121.891 421.884 121.891C422.478 121.891 422.996 121.992 423.439 122.195C423.884 122.398 424.231 122.681 424.478 123.043C424.726 123.405 424.853 123.824 424.861 124.301H423.24Z" fill="#7F9EF3"/>
<path d="M247.844 105.231C249.076 102.555 247.906 99.3878 245.231 98.1557C242.555 96.9236 239.388 98.0936 238.156 100.769C236.924 103.445 238.094 106.612 240.769 107.844C243.445 109.076 246.612 107.906 247.844 105.231ZM281.518 125.145L280.161 124.323L279.125 126.034L280.482 126.856L281.518 125.145ZM277.446 122.68L274.732 121.037L273.696 122.748L276.411 124.391L277.446 122.68ZM272.018 119.395L269.304 117.752L268.268 119.463L270.982 121.106L272.018 119.395ZM266.589 116.109L263.875 114.466L262.839 116.177L265.554 117.82L266.589 116.109ZM261.161 112.823L258.446 111.18L257.411 112.891L260.125 114.534L261.161 112.823ZM255.732 109.537L253.018 107.895L251.982 109.606L254.696 111.248L255.732 109.537ZM250.304 106.252L247.589 104.609L246.554 106.32L249.268 107.963L250.304 106.252ZM244.875 102.966L243.518 102.144L242.482 103.856L243.839 104.677L244.875 102.966Z" fill="#1C2755"/>
<rect x="404" y="4" width="152" height="26" rx="12" fill="#1C2755"/>
<path d="M420.695 21V13H423.898C424.487 13 424.978 13.0872 425.371 13.2617C425.764 13.4362 426.06 13.6784 426.258 13.9883C426.456 14.2956 426.555 14.6497 426.555 15.0508C426.555 15.3633 426.492 15.638 426.367 15.875C426.242 16.1094 426.07 16.3021 425.852 16.4531C425.635 16.6016 425.388 16.707 425.109 16.7695V16.8477C425.414 16.8607 425.699 16.9466 425.965 17.1055C426.233 17.2643 426.451 17.487 426.617 17.7734C426.784 18.0573 426.867 18.3958 426.867 18.7891C426.867 19.2135 426.762 19.5924 426.551 19.9258C426.342 20.2565 426.034 20.5182 425.625 20.7109C425.216 20.9036 424.712 21 424.113 21H420.695ZM422.387 19.6172H423.766C424.237 19.6172 424.581 19.5273 424.797 19.3477C425.013 19.1654 425.121 18.9232 425.121 18.6211C425.121 18.3997 425.068 18.2044 424.961 18.0352C424.854 17.8659 424.702 17.7331 424.504 17.6367C424.309 17.5404 424.076 17.4922 423.805 17.4922H422.387V19.6172ZM422.387 16.3477H423.641C423.872 16.3477 424.078 16.3073 424.258 16.2266C424.44 16.1432 424.583 16.026 424.688 15.875C424.794 15.724 424.848 15.543 424.848 15.332C424.848 15.043 424.745 14.8099 424.539 14.6328C424.336 14.4557 424.047 14.3672 423.672 14.3672H422.387V16.3477ZM428.738 21V13H431.894C432.498 13 433.014 13.1081 433.441 13.3242C433.871 13.5378 434.197 13.8411 434.421 14.2344C434.648 14.625 434.761 15.0846 434.761 15.6133C434.761 16.1445 434.647 16.6016 434.417 16.9844C434.188 17.3646 433.856 17.6562 433.421 17.8594C432.989 18.0625 432.466 18.1641 431.851 18.1641H429.738V16.8047H431.578C431.901 16.8047 432.169 16.7604 432.382 16.6719C432.596 16.5833 432.755 16.4505 432.859 16.2734C432.966 16.0964 433.019 15.8763 433.019 15.6133C433.019 15.3477 432.966 15.1237 432.859 14.9414C432.755 14.7591 432.595 14.6211 432.378 14.5273C432.165 14.431 431.895 14.3828 431.57 14.3828H430.429V21H428.738ZM433.058 17.3594L435.046 21H433.179L431.234 17.3594H433.058ZM444.078 17C444.078 17.8724 443.913 18.6146 443.582 19.2266C443.254 19.8385 442.806 20.306 442.238 20.6289C441.673 20.9492 441.038 21.1094 440.332 21.1094C439.621 21.1094 438.983 20.9479 438.418 20.625C437.853 20.3021 437.406 19.8346 437.078 19.2227C436.75 18.6107 436.586 17.8698 436.586 17C436.586 16.1276 436.75 15.3854 437.078 14.7734C437.406 14.1615 437.853 13.6953 438.418 13.375C438.983 13.0521 439.621 12.8906 440.332 12.8906C441.038 12.8906 441.673 13.0521 442.238 13.375C442.806 13.6953 443.254 14.1615 443.582 14.7734C443.913 15.3854 444.078 16.1276 444.078 17ZM442.363 17C442.363 16.4349 442.279 15.9583 442.109 15.5703C441.943 15.1823 441.707 14.888 441.402 14.6875C441.098 14.487 440.741 14.3867 440.332 14.3867C439.923 14.3867 439.566 14.487 439.262 14.6875C438.957 14.888 438.72 15.1823 438.551 15.5703C438.384 15.9583 438.301 16.4349 438.301 17C438.301 17.5651 438.384 18.0417 438.551 18.4297C438.72 18.8177 438.957 19.112 439.262 19.3125C439.566 19.513 439.923 19.6133 440.332 19.6133C440.741 19.6133 441.098 19.513 441.402 19.3125C441.707 19.112 441.943 18.8177 442.109 18.4297C442.279 18.0417 442.363 17.5651 442.363 17ZM447.601 21L445.312 13H447.16L448.484 18.5586H448.55L450.011 13H451.593L453.05 18.5703H453.121L454.445 13H456.292L454.003 21H452.355L450.831 15.7695H450.769L449.249 21H447.601ZM462.232 15.3008C462.201 14.9857 462.067 14.7409 461.83 14.5664C461.593 14.3919 461.271 14.3047 460.865 14.3047C460.589 14.3047 460.356 14.3437 460.166 14.4219C459.976 14.4974 459.83 14.6029 459.728 14.7383C459.629 14.8737 459.58 15.0273 459.58 15.1992C459.575 15.3424 459.605 15.4674 459.67 15.5742C459.738 15.681 459.83 15.7734 459.947 15.8516C460.064 15.9271 460.2 15.9935 460.353 16.0508C460.507 16.1055 460.671 16.1523 460.846 16.1914L461.564 16.3633C461.913 16.4414 462.234 16.5456 462.525 16.6758C462.817 16.806 463.07 16.9661 463.283 17.1562C463.497 17.3464 463.662 17.5703 463.779 17.8281C463.899 18.0859 463.96 18.3815 463.963 18.7148C463.96 19.2044 463.835 19.6289 463.588 19.9883C463.343 20.3451 462.989 20.6224 462.525 20.8203C462.064 21.0156 461.508 21.1133 460.857 21.1133C460.212 21.1133 459.649 21.0143 459.17 20.8164C458.693 20.6185 458.321 20.3255 458.053 19.9375C457.787 19.5469 457.648 19.0638 457.635 18.4883H459.271C459.29 18.7565 459.366 18.9805 459.502 19.1602C459.64 19.3372 459.823 19.4714 460.053 19.5625C460.284 19.651 460.546 19.6953 460.838 19.6953C461.124 19.6953 461.373 19.6536 461.584 19.5703C461.797 19.487 461.963 19.3711 462.08 19.2227C462.197 19.0742 462.256 18.9036 462.256 18.7109C462.256 18.5312 462.202 18.3802 462.096 18.2578C461.991 18.1354 461.838 18.0312 461.635 17.9453C461.434 17.8594 461.188 17.7812 460.896 17.7109L460.025 17.4922C459.351 17.3281 458.818 17.0716 458.428 16.7227C458.037 16.3737 457.843 15.9036 457.846 15.3125C457.843 14.8281 457.972 14.4049 458.232 14.043C458.495 13.681 458.856 13.3984 459.314 13.1953C459.773 12.9922 460.294 12.8906 460.877 12.8906C461.471 12.8906 461.989 12.9922 462.432 13.1953C462.877 13.3984 463.223 13.681 463.471 14.043C463.718 14.4049 463.846 14.8242 463.853 15.3008H462.232ZM465.871 21V13H471.261V14.3945H467.562V16.3008H470.984V17.6953H467.562V19.6055H471.277V21H465.871ZM483.75 15.8008H482.039C482.008 15.5794 481.944 15.3828 481.848 15.2109C481.752 15.0365 481.628 14.888 481.477 14.7656C481.326 14.6432 481.151 14.5495 480.953 14.4844C480.758 14.4193 480.546 14.3867 480.317 14.3867C479.903 14.3867 479.542 14.4896 479.235 14.6953C478.927 14.8984 478.689 15.1953 478.52 15.5859C478.351 15.974 478.266 16.4453 478.266 17C478.266 17.5703 478.351 18.0495 478.52 18.4375C478.692 18.8255 478.931 19.1185 479.239 19.3164C479.546 19.5143 479.901 19.6133 480.305 19.6133C480.532 19.6133 480.741 19.5833 480.934 19.5234C481.129 19.4635 481.302 19.3763 481.453 19.2617C481.605 19.1445 481.73 19.0026 481.828 18.8359C481.93 18.6693 482 18.4792 482.039 18.2656L483.75 18.2734C483.706 18.6406 483.595 18.9948 483.418 19.3359C483.244 19.6745 483.008 19.9779 482.711 20.2461C482.417 20.5117 482.065 20.7227 481.657 20.8789C481.25 21.0326 480.791 21.1094 480.278 21.1094C479.564 21.1094 478.926 20.9479 478.364 20.625C477.804 20.3021 477.361 19.8346 477.036 19.2227C476.713 18.6107 476.551 17.8698 476.551 17C476.551 16.1276 476.715 15.3854 477.043 14.7734C477.371 14.1615 477.817 13.6953 478.379 13.375C478.942 13.0521 479.575 12.8906 480.278 12.8906C480.741 12.8906 481.171 12.9557 481.567 13.0859C481.965 13.2161 482.318 13.4062 482.625 13.6562C482.933 13.9036 483.183 14.207 483.375 14.5664C483.571 14.9258 483.696 15.3372 483.75 15.8008ZM485.733 21V13H487.425V19.6055H490.854V21H485.733ZM497.686 13H499.377V18.1953C499.377 18.7786 499.238 19.2891 498.959 19.7266C498.683 20.1641 498.297 20.5052 497.799 20.75C497.302 20.9922 496.722 21.1133 496.061 21.1133C495.397 21.1133 494.816 20.9922 494.319 20.75C493.821 20.5052 493.435 20.1641 493.159 19.7266C492.882 19.2891 492.744 18.7786 492.744 18.1953V13H494.436V18.0508C494.436 18.3555 494.502 18.6263 494.635 18.8633C494.77 19.1003 494.961 19.2865 495.205 19.4219C495.45 19.5573 495.735 19.625 496.061 19.625C496.389 19.625 496.674 19.5573 496.916 19.4219C497.161 19.2865 497.35 19.1003 497.483 18.8633C497.618 18.6263 497.686 18.3555 497.686 18.0508V13ZM505.879 15.3008C505.847 14.9857 505.713 14.7409 505.476 14.5664C505.239 14.3919 504.918 14.3047 504.512 14.3047C504.235 14.3047 504.002 14.3437 503.812 14.4219C503.622 14.4974 503.476 14.6029 503.375 14.7383C503.276 14.8737 503.226 15.0273 503.226 15.1992C503.221 15.3424 503.251 15.4674 503.316 15.5742C503.384 15.681 503.476 15.7734 503.594 15.8516C503.711 15.9271 503.846 15.9935 504 16.0508C504.153 16.1055 504.318 16.1523 504.492 16.1914L505.211 16.3633C505.56 16.4414 505.88 16.5456 506.172 16.6758C506.463 16.806 506.716 16.9661 506.929 17.1562C507.143 17.3464 507.308 17.5703 507.426 17.8281C507.545 18.0859 507.607 18.3815 507.609 18.7148C507.607 19.2044 507.482 19.6289 507.234 19.9883C506.989 20.3451 506.635 20.6224 506.172 20.8203C505.711 21.0156 505.155 21.1133 504.504 21.1133C503.858 21.1133 503.295 21.0143 502.816 20.8164C502.34 20.6185 501.967 20.3255 501.699 19.9375C501.433 19.5469 501.294 19.0638 501.281 18.4883H502.918C502.936 18.7565 503.013 18.9805 503.148 19.1602C503.286 19.3372 503.47 19.4714 503.699 19.5625C503.931 19.651 504.193 19.6953 504.484 19.6953C504.771 19.6953 505.019 19.6536 505.23 19.5703C505.444 19.487 505.609 19.3711 505.726 19.2227C505.844 19.0742 505.902 18.9036 505.902 18.7109C505.902 18.5312 505.849 18.3802 505.742 18.2578C505.638 18.1354 505.484 18.0312 505.281 17.9453C505.081 17.8594 504.834 17.7812 504.543 17.7109L503.672 17.4922C502.997 17.3281 502.465 17.0716 502.074 16.7227C501.683 16.3737 501.489 15.9036 501.492 15.3125C501.489 14.8281 501.618 14.4049 501.879 14.043C502.142 13.681 502.502 13.3984 502.961 13.1953C503.419 12.9922 503.94 12.8906 504.523 12.8906C505.117 12.8906 505.635 12.9922 506.078 13.1953C506.523 13.3984 506.87 13.681 507.117 14.043C507.364 14.4049 507.492 14.8242 507.5 15.3008H505.879ZM509.212 14.3945V13H515.783V14.3945H513.333V21H511.661V14.3945H509.212ZM517.635 21V13H523.025V14.3945H519.326V16.3008H522.748V17.6953H519.326V19.6055H523.041V21H517.635ZM525.14 21V13H528.296C528.9 13 529.416 13.1081 529.843 13.3242C530.273 13.5378 530.6 13.8411 530.823 14.2344C531.05 14.625 531.163 15.0846 531.163 15.6133C531.163 16.1445 531.049 16.6016 530.82 16.9844C530.59 17.3646 530.258 17.6562 529.823 17.8594C529.391 18.0625 528.868 18.1641 528.253 18.1641H526.14V16.8047H527.98C528.303 16.8047 528.571 16.7604 528.784 16.6719C528.998 16.5833 529.157 16.4505 529.261 16.2734C529.368 16.0964 529.421 15.8763 529.421 15.6133C529.421 15.3477 529.368 15.1237 529.261 14.9414C529.157 14.7591 528.997 14.6211 528.781 14.5273C528.567 14.431 528.297 14.3828 527.972 14.3828H526.831V21H525.14ZM529.46 17.3594L531.448 21H529.581L527.636 17.3594H529.46ZM537.468 15.3008C537.437 14.9857 537.303 14.7409 537.066 14.5664C536.829 14.3919 536.508 14.3047 536.101 14.3047C535.825 14.3047 535.592 14.3437 535.402 14.4219C535.212 14.4974 535.066 14.6029 534.965 14.7383C534.866 14.8737 534.816 15.0273 534.816 15.1992C534.811 15.3424 534.841 15.4674 534.906 15.5742C534.974 15.681 535.066 15.7734 535.183 15.8516C535.301 15.9271 535.436 15.9935 535.59 16.0508C535.743 16.1055 535.907 16.1523 536.082 16.1914L536.801 16.3633C537.149 16.4414 537.47 16.5456 537.761 16.6758C538.053 16.806 538.306 16.9661 538.519 17.1562C538.733 17.3464 538.898 17.5703 539.015 17.8281C539.135 18.0859 539.196 18.3815 539.199 18.7148C539.196 19.2044 539.071 19.6289 538.824 19.9883C538.579 20.3451 538.225 20.6224 537.761 20.8203C537.301 21.0156 536.745 21.1133 536.093 21.1133C535.448 21.1133 534.885 21.0143 534.406 20.8164C533.929 20.6185 533.557 20.3255 533.289 19.9375C533.023 19.5469 532.884 19.0638 532.871 18.4883H534.508C534.526 18.7565 534.603 18.9805 534.738 19.1602C534.876 19.3372 535.06 19.4714 535.289 19.5625C535.521 19.651 535.782 19.6953 536.074 19.6953C536.36 19.6953 536.609 19.6536 536.82 19.5703C537.034 19.487 537.199 19.3711 537.316 19.2227C537.433 19.0742 537.492 18.9036 537.492 18.7109C537.492 18.5312 537.439 18.3802 537.332 18.2578C537.228 18.1354 537.074 18.0312 536.871 17.9453C536.67 17.8594 536.424 17.7812 536.133 17.7109L535.261 17.4922C534.587 17.3281 534.054 17.0716 533.664 16.7227C533.273 16.3737 533.079 15.9036 533.082 15.3125C533.079 14.8281 533.208 14.4049 533.468 14.043C533.731 13.681 534.092 13.3984 534.551 13.1953C535.009 12.9922 535.53 12.8906 536.113 12.8906C536.707 12.8906 537.225 12.9922 537.668 13.1953C538.113 13.3984 538.459 13.681 538.707 14.043C538.954 14.4049 539.082 14.8242 539.09 15.3008H537.468Z" fill="#7F9EF3"/>
<path d="M426.892 70.2122C428.451 72.7114 431.741 73.4735 434.24 71.9146C436.739 70.3556 437.501 67.0659 435.942 64.5667C434.383 62.0676 431.094 61.3054 428.595 62.8644C426.095 64.4233 425.333 67.7131 426.892 70.2122ZM432.004 68.1991L433.177 67.3494L432.003 65.73L430.83 66.5798L432.004 68.1991ZM435.521 65.6499L437.866 63.9503L436.692 62.331L434.347 64.0305L435.521 65.6499ZM440.211 62.2508L442.555 60.5513L441.381 58.932L439.037 60.6315L440.211 62.2508ZM444.9 58.8518L447.245 57.1523L446.071 55.5329L443.726 57.2324L444.9 58.8518ZM449.589 55.4527L451.934 53.7532L450.76 52.1339L448.415 53.8334L449.589 55.4527ZM454.279 52.0537L456.623 50.3542L455.449 48.7348L453.105 50.4344L454.279 52.0537ZM458.968 48.6546L461.313 46.9551L460.139 45.3358L457.794 47.0353L458.968 48.6546ZM463.657 45.2556L466.002 43.5561L464.828 41.9367L462.483 43.6363L463.657 45.2556ZM468.347 41.8566L470.691 40.157L469.517 38.5377L467.173 40.2372L468.347 41.8566ZM473.036 38.4575L475.381 36.758L474.207 35.1387L471.862 36.8382L473.036 38.4575ZM477.725 35.0585L480.07 33.359L478.896 31.7396L476.551 33.4391L477.725 35.0585ZM482.415 31.6594L483.587 30.8097L482.413 29.1903L481.241 30.0401L482.415 31.6594Z" fill="#1C2755"/>
<rect x="225" y="303.054" width="162" height="26" rx="12" fill="#1C2755"/>
<path d="M239.641 312.054L241.574 318.132H241.648L243.586 312.054H245.461L242.703 320.054H240.523L237.762 312.054H239.641ZM247.509 320.054H245.697L248.458 312.054H250.638L253.396 320.054H251.583L249.58 313.882H249.517L247.509 320.054ZM247.396 316.91H251.677V318.23H247.396V316.91ZM255.129 320.054V312.054H256.82V318.66H260.25V320.054H255.129ZM263.831 312.054V320.054H262.14V312.054H263.831ZM268.829 320.054H265.993V312.054H268.852C269.657 312.054 270.35 312.214 270.931 312.535C271.511 312.852 271.958 313.309 272.27 313.906C272.586 314.502 272.743 315.216 272.743 316.046C272.743 316.88 272.586 317.596 272.27 318.195C271.958 318.794 271.509 319.253 270.923 319.574C270.339 319.894 269.642 320.054 268.829 320.054ZM267.684 318.605H268.759C269.259 318.605 269.679 318.516 270.02 318.339C270.364 318.16 270.622 317.882 270.794 317.507C270.968 317.13 271.056 316.643 271.056 316.046C271.056 315.455 270.968 314.972 270.794 314.597C270.622 314.222 270.365 313.946 270.024 313.769C269.683 313.592 269.263 313.503 268.763 313.503H267.684V318.605ZM275.694 320.054H273.881L276.643 312.054H278.823L281.58 320.054H279.768L277.764 313.882H277.702L275.694 320.054ZM275.58 316.91H279.862V318.23H275.58V316.91ZM282.031 313.449V312.054H288.601V313.449H286.152V320.054H284.48V313.449H282.031ZM290.453 320.054V312.054H295.844V313.449H292.145V315.355H295.567V316.75H292.145V318.66H295.86V320.054H290.453ZM301.275 320.054V312.054H304.431C305.035 312.054 305.551 312.162 305.978 312.378C306.408 312.592 306.734 312.895 306.958 313.289C307.185 313.679 307.298 314.139 307.298 314.667C307.298 315.199 307.184 315.656 306.954 316.039C306.725 316.419 306.393 316.71 305.958 316.914C305.526 317.117 305.003 317.218 304.388 317.218H302.275V315.859H304.115C304.437 315.859 304.706 315.815 304.919 315.726C305.133 315.638 305.292 315.505 305.396 315.328C305.503 315.151 305.556 314.931 305.556 314.667C305.556 314.402 305.503 314.178 305.396 313.996C305.292 313.813 305.131 313.675 304.915 313.582C304.702 313.485 304.432 313.437 304.107 313.437H302.966V320.054H301.275ZM305.595 316.414L307.583 320.054H305.716L303.771 316.414H305.595ZM309.263 320.054V312.054H314.654V313.449H310.955V315.355H314.377V316.75H310.955V318.66H314.67V320.054H309.263ZM321.109 314.355C321.077 314.04 320.943 313.795 320.706 313.621C320.469 313.446 320.148 313.359 319.741 313.359C319.465 313.359 319.232 313.398 319.042 313.476C318.852 313.552 318.706 313.657 318.605 313.792C318.506 313.928 318.456 314.082 318.456 314.253C318.451 314.397 318.481 314.522 318.546 314.628C318.614 314.735 318.706 314.828 318.824 314.906C318.941 314.981 319.076 315.048 319.23 315.105C319.383 315.16 319.547 315.207 319.722 315.246L320.441 315.417C320.79 315.496 321.11 315.6 321.402 315.73C321.693 315.86 321.946 316.02 322.159 316.21C322.373 316.401 322.538 316.625 322.656 316.882C322.775 317.14 322.837 317.436 322.839 317.769C322.837 318.259 322.712 318.683 322.464 319.042C322.219 319.399 321.865 319.677 321.402 319.875C320.941 320.07 320.385 320.167 319.734 320.167C319.088 320.167 318.525 320.069 318.046 319.871C317.57 319.673 317.197 319.38 316.929 318.992C316.663 318.601 316.524 318.118 316.511 317.542H318.148C318.166 317.811 318.243 318.035 318.378 318.214C318.516 318.391 318.7 318.526 318.929 318.617C319.161 318.705 319.422 318.75 319.714 318.75C320.001 318.75 320.249 318.708 320.46 318.625C320.674 318.541 320.839 318.425 320.956 318.277C321.074 318.128 321.132 317.958 321.132 317.765C321.132 317.585 321.079 317.434 320.972 317.312C320.868 317.19 320.714 317.085 320.511 317C320.31 316.914 320.064 316.835 319.773 316.765L318.902 316.546C318.227 316.382 317.695 316.126 317.304 315.777C316.913 315.428 316.719 314.958 316.722 314.367C316.719 313.882 316.848 313.459 317.109 313.097C317.372 312.735 317.732 312.453 318.191 312.25C318.649 312.046 319.17 311.945 319.753 311.945C320.347 311.945 320.865 312.046 321.308 312.25C321.753 312.453 322.1 312.735 322.347 313.097C322.594 313.459 322.722 313.878 322.73 314.355H321.109ZM332.098 316.054C332.098 316.927 331.933 317.669 331.602 318.281C331.274 318.893 330.826 319.36 330.259 319.683C329.693 320.003 329.058 320.164 328.352 320.164C327.641 320.164 327.003 320.002 326.438 319.679C325.873 319.356 325.427 318.889 325.098 318.277C324.77 317.665 324.606 316.924 324.606 316.054C324.606 315.182 324.77 314.44 325.098 313.828C325.427 313.216 325.873 312.75 326.438 312.429C327.003 312.106 327.641 311.945 328.352 311.945C329.058 311.945 329.693 312.106 330.259 312.429C330.826 312.75 331.274 313.216 331.602 313.828C331.933 314.44 332.098 315.182 332.098 316.054ZM330.384 316.054C330.384 315.489 330.299 315.013 330.13 314.625C329.963 314.236 329.727 313.942 329.423 313.742C329.118 313.541 328.761 313.441 328.352 313.441C327.943 313.441 327.587 313.541 327.282 313.742C326.977 313.942 326.74 314.236 326.571 314.625C326.404 315.013 326.321 315.489 326.321 316.054C326.321 316.619 326.404 317.096 326.571 317.484C326.74 317.872 326.977 318.166 327.282 318.367C327.587 318.567 327.943 318.667 328.352 318.667C328.761 318.667 329.118 318.567 329.423 318.367C329.727 318.166 329.963 317.872 330.13 317.484C330.299 317.096 330.384 316.619 330.384 316.054ZM339.063 312.054H340.754V317.25C340.754 317.833 340.615 318.343 340.336 318.781C340.06 319.218 339.673 319.559 339.176 319.804C338.679 320.046 338.099 320.167 337.438 320.167C336.774 320.167 336.193 320.046 335.696 319.804C335.198 319.559 334.811 319.218 334.535 318.781C334.259 318.343 334.121 317.833 334.121 317.25V312.054H335.813V317.105C335.813 317.41 335.879 317.681 336.012 317.917C336.147 318.154 336.337 318.341 336.582 318.476C336.827 318.611 337.112 318.679 337.438 318.679C337.766 318.679 338.051 318.611 338.293 318.476C338.538 318.341 338.727 318.154 338.86 317.917C338.995 317.681 339.063 317.41 339.063 317.105V312.054ZM342.916 320.054V312.054H346.072C346.676 312.054 347.192 312.162 347.619 312.378C348.049 312.592 348.375 312.895 348.599 313.289C348.826 313.679 348.939 314.139 348.939 314.667C348.939 315.199 348.825 315.656 348.595 316.039C348.366 316.419 348.034 316.71 347.599 316.914C347.167 317.117 346.644 317.218 346.029 317.218H343.916V315.859H345.756C346.079 315.859 346.347 315.815 346.56 315.726C346.774 315.638 346.933 315.505 347.037 315.328C347.144 315.151 347.197 314.931 347.197 314.667C347.197 314.402 347.144 314.178 347.037 313.996C346.933 313.813 346.773 313.675 346.556 313.582C346.343 313.485 346.073 313.437 345.748 313.437H344.607V320.054H342.916ZM347.236 316.414L349.224 320.054H347.357L345.412 316.414H347.236ZM357.963 314.855H356.252C356.221 314.634 356.157 314.437 356.061 314.265C355.964 314.091 355.841 313.942 355.69 313.82C355.539 313.697 355.364 313.604 355.166 313.539C354.971 313.473 354.759 313.441 354.529 313.441C354.115 313.441 353.755 313.544 353.447 313.75C353.14 313.953 352.902 314.25 352.733 314.64C352.563 315.028 352.479 315.5 352.479 316.054C352.479 316.625 352.563 317.104 352.733 317.492C352.904 317.88 353.144 318.173 353.451 318.371C353.759 318.569 354.114 318.667 354.518 318.667C354.744 318.667 354.954 318.638 355.147 318.578C355.342 318.518 355.515 318.431 355.666 318.316C355.817 318.199 355.942 318.057 356.041 317.89C356.143 317.723 356.213 317.533 356.252 317.32L357.963 317.328C357.919 317.695 357.808 318.049 357.631 318.39C357.457 318.729 357.221 319.032 356.924 319.3C356.63 319.566 356.278 319.777 355.869 319.933C355.463 320.087 355.003 320.164 354.49 320.164C353.777 320.164 353.139 320.002 352.576 319.679C352.016 319.356 351.574 318.889 351.248 318.277C350.925 317.665 350.764 316.924 350.764 316.054C350.764 315.182 350.928 314.44 351.256 313.828C351.584 313.216 352.029 312.75 352.592 312.429C353.154 312.106 353.787 311.945 354.49 311.945C354.954 311.945 355.384 312.01 355.779 312.14C356.178 312.27 356.531 312.46 356.838 312.71C357.145 312.958 357.395 313.261 357.588 313.621C357.783 313.98 357.908 314.391 357.963 314.855ZM359.946 320.054V312.054H365.337V313.449H361.637V315.355H365.059V316.75H361.637V318.66H365.352V320.054H359.946ZM371.791 314.355C371.76 314.04 371.626 313.795 371.389 313.621C371.152 313.446 370.83 313.359 370.424 313.359C370.148 313.359 369.915 313.398 369.725 313.476C369.535 313.552 369.389 313.657 369.287 313.792C369.188 313.928 369.139 314.082 369.139 314.253C369.134 314.397 369.164 314.522 369.229 314.628C369.296 314.735 369.389 314.828 369.506 314.906C369.623 314.981 369.759 315.048 369.912 315.105C370.066 315.16 370.23 315.207 370.404 315.246L371.123 315.417C371.472 315.496 371.792 315.6 372.084 315.73C372.376 315.86 372.628 316.02 372.842 316.21C373.055 316.401 373.221 316.625 373.338 316.882C373.458 317.14 373.519 317.436 373.522 317.769C373.519 318.259 373.394 318.683 373.147 319.042C372.902 319.399 372.548 319.677 372.084 319.875C371.623 320.07 371.067 320.167 370.416 320.167C369.77 320.167 369.208 320.069 368.729 319.871C368.252 319.673 367.88 319.38 367.611 318.992C367.346 318.601 367.207 318.118 367.194 317.542H368.83C368.848 317.811 368.925 318.035 369.061 318.214C369.199 318.391 369.382 318.526 369.611 318.617C369.843 318.705 370.105 318.75 370.397 318.75C370.683 318.75 370.932 318.708 371.143 318.625C371.356 318.541 371.522 318.425 371.639 318.277C371.756 318.128 371.815 317.958 371.815 317.765C371.815 317.585 371.761 317.434 371.654 317.312C371.55 317.19 371.397 317.085 371.194 317C370.993 316.914 370.747 316.835 370.455 316.765L369.584 316.546C368.91 316.382 368.377 316.126 367.986 315.777C367.596 315.428 367.402 314.958 367.404 314.367C367.402 313.882 367.531 313.459 367.791 313.097C368.054 312.735 368.415 312.453 368.873 312.25C369.332 312.046 369.852 311.945 370.436 311.945C371.029 311.945 371.548 312.046 371.99 312.25C372.436 312.453 372.782 312.735 373.029 313.097C373.277 313.459 373.404 313.878 373.412 314.355H371.791Z" fill="#7F9EF3"/>
<path d="M150.292 252.388C149.924 249.466 147.256 247.395 144.334 247.763C141.411 248.13 139.341 250.798 139.708 253.72C140.076 256.643 142.744 258.714 145.666 258.346C148.589 257.978 150.659 255.311 150.292 252.388ZM226.614 315.265L225.423 314.338L224.195 315.917L225.386 316.844L226.614 315.265ZM223.04 312.485L220.658 310.632L219.43 312.211L221.813 314.064L223.04 312.485ZM218.276 308.78L215.893 306.927L214.665 308.505L217.048 310.358L218.276 308.78ZM213.511 305.074L211.129 303.221L209.901 304.799L212.283 306.652L213.511 305.074ZM208.746 301.368L206.364 299.515L205.136 301.094L207.518 302.946L208.746 301.368ZM203.982 297.662L201.599 295.809L200.371 297.388L202.754 299.241L203.982 297.662ZM199.217 293.956L196.835 292.103L195.607 293.682L197.989 295.535L199.217 293.956ZM194.452 290.25L192.07 288.397L190.842 289.976L193.224 291.829L194.452 290.25ZM189.687 286.544L187.305 284.691L186.077 286.27L188.46 288.123L189.687 286.544ZM184.923 282.838L182.54 280.985L181.313 282.564L183.695 284.417L184.923 282.838ZM180.158 279.132L177.776 277.28L176.548 278.858L178.93 280.711L180.158 279.132ZM175.393 275.427L173.011 273.574L171.783 275.152L174.165 277.005L175.393 275.427ZM170.629 271.721L168.246 269.868L167.018 271.446L169.401 273.299L170.629 271.721ZM165.864 268.015L163.482 266.162L162.254 267.741L164.636 269.594L165.864 268.015ZM161.099 264.309L158.717 262.456L157.489 264.035L159.871 265.888L161.099 264.309ZM156.335 260.603L153.952 258.75L152.724 260.329L155.107 262.182L156.335 260.603ZM151.57 256.897L149.187 255.044L147.96 256.623L150.342 258.476L151.57 256.897ZM146.805 253.191L145.614 252.265L144.386 253.844L145.577 254.77L146.805 253.191Z" fill="#1C2755"/>
<rect x="14" y="295" width="86" height="26" rx="12" fill="#1C2755"/>
<path d="M25.8906 305.395V304H32.4609V305.395H30.0117V312H28.3398V305.395H25.8906ZM34.313 312V304H39.7036V305.395H36.0044V307.301H39.4263V308.695H36.0044V310.605H39.7192V312H34.313ZM41.8183 312V304H44.9746C45.5787 304 46.0944 304.108 46.5214 304.324C46.9511 304.538 47.278 304.841 47.5019 305.234C47.7285 305.625 47.8418 306.085 47.8418 306.613C47.8418 307.145 47.7272 307.602 47.498 307.984C47.2688 308.365 46.9368 308.656 46.5019 308.859C46.0696 309.062 45.5462 309.164 44.9316 309.164H42.8183V307.805H44.6582C44.9811 307.805 45.2493 307.76 45.4629 307.672C45.6764 307.583 45.8352 307.451 45.9394 307.273C46.0462 307.096 46.0996 306.876 46.0996 306.613C46.0996 306.348 46.0462 306.124 45.9394 305.941C45.8352 305.759 45.6751 305.621 45.4589 305.527C45.2454 305.431 44.9759 305.383 44.6504 305.383H43.5097V312H41.8183ZM46.1386 308.359L48.1269 312H46.2597L44.3144 308.359H46.1386ZM49.8071 304H51.893L54.0961 309.375H54.1899L56.393 304H58.4789V312H56.8383V306.793H56.7719L54.7016 311.961H53.5844L51.5141 306.773H51.4477V312H49.8071V304ZM62.3339 304V312H60.6425V304H62.3339ZM71.1869 304V312H69.726L66.2455 306.965H66.1869V312H64.4955V304H65.9799L69.433 309.031H69.5033V304H71.1869ZM74.7333 312H72.9208L75.6825 304H77.8622L80.62 312H78.8075L76.8036 305.828H76.7411L74.7333 312ZM74.62 308.855H78.9012V310.176H74.62V308.855ZM82.3529 312V304H84.0443V310.605H87.474V312H82.3529Z" fill="#7F9EF3"/>
<path d="M149.784 342.356C151.086 339.714 149.999 336.517 147.357 335.215C144.714 333.914 141.517 335.001 140.216 337.643C138.914 340.286 140.001 343.483 142.643 344.784C145.286 346.086 148.483 344.999 149.784 342.356ZM145.58 339.185L144.33 338.296L143.17 339.926L144.42 340.815L145.58 339.185ZM141.83 336.518L139.33 334.741L138.17 336.37L140.67 338.148L141.83 336.518ZM136.83 332.963L134.33 331.185L133.17 332.815L135.67 334.593L136.83 332.963ZM131.83 329.407L129.33 327.629L128.17 329.259L130.67 331.037L131.83 329.407ZM126.83 325.852L124.33 324.074L123.17 325.704L125.67 327.482L126.83 325.852ZM121.83 322.296L119.33 320.518L118.17 322.148L120.67 323.926L121.83 322.296ZM116.83 318.741L114.33 316.963L113.17 318.593L115.67 320.37L116.83 318.741ZM111.83 315.185L109.33 313.407L108.17 315.037L110.67 316.815L111.83 315.185ZM106.83 311.629L104.33 309.852L103.17 311.482L105.67 313.259L106.83 311.629ZM101.83 308.074L100.58 307.185L99.4205 308.815L100.67 309.704L101.83 308.074Z" fill="#1C2755"/>
<rect x="200" y="122" width="50" height="26" rx="12" fill="#1C2755"/>
<path d="M220.5 133.586C220.445 133.396 220.368 133.228 220.27 133.082C220.171 132.934 220.049 132.809 219.906 132.707C219.766 132.603 219.604 132.523 219.422 132.469C219.242 132.414 219.043 132.387 218.824 132.387C218.415 132.387 218.056 132.488 217.746 132.691C217.439 132.895 217.199 133.19 217.027 133.578C216.855 133.964 216.77 134.435 216.77 134.992C216.77 135.549 216.854 136.023 217.023 136.414C217.193 136.805 217.432 137.103 217.742 137.309C218.052 137.512 218.418 137.613 218.84 137.613C219.223 137.613 219.549 137.546 219.82 137.41C220.094 137.272 220.302 137.078 220.445 136.828C220.591 136.578 220.664 136.283 220.664 135.941L221.008 135.992H218.945V134.719H222.293V135.727C222.293 136.43 222.145 137.034 221.848 137.539C221.551 138.042 221.142 138.43 220.621 138.703C220.1 138.974 219.504 139.109 218.832 139.109C218.082 139.109 217.423 138.944 216.855 138.613C216.288 138.28 215.845 137.807 215.527 137.195C215.212 136.581 215.055 135.852 215.055 135.008C215.055 134.359 215.148 133.781 215.336 133.273C215.526 132.763 215.792 132.331 216.133 131.977C216.474 131.622 216.871 131.353 217.324 131.168C217.777 130.983 218.268 130.891 218.797 130.891C219.25 130.891 219.672 130.957 220.062 131.09C220.453 131.22 220.799 131.405 221.102 131.645C221.406 131.884 221.655 132.169 221.848 132.5C222.04 132.828 222.164 133.19 222.219 133.586H220.5ZM226.025 131V139H224.333V131H226.025ZM227.882 132.395V131H234.452V132.395H232.003V139H230.331V132.395H227.882Z" fill="#7F9EF3"/>
<path d="M139.823 128.431C140.532 131.29 143.425 133.033 146.284 132.324C149.143 131.615 150.886 128.722 150.177 125.864C149.468 123.005 146.575 121.262 143.716 121.971C140.857 122.68 139.114 125.572 139.823 128.431ZM144.874 128.139L146.327 128.324L146.579 126.34L145.126 126.155L144.874 128.139ZM149.232 128.693L152.137 129.062L152.389 127.078L149.484 126.709L149.232 128.693ZM155.043 129.431L157.948 129.801L158.2 127.817L155.295 127.447L155.043 129.431ZM160.854 130.17L163.759 130.539L164.011 128.555L161.106 128.186L160.854 130.17ZM166.664 130.908L169.57 131.277L169.822 129.293L166.916 128.924L166.664 130.908ZM172.475 131.646L175.38 132.016L175.633 130.032L172.727 129.662L172.475 131.646ZM178.286 132.385L181.191 132.754L181.443 130.77L178.538 130.401L178.286 132.385ZM184.097 133.123L187.002 133.492L187.254 131.508L184.349 131.139L184.097 133.123ZM189.907 133.861L192.813 134.231L193.065 132.247L190.159 131.877L189.907 133.861ZM195.718 134.6L198.623 134.969L198.876 132.985L195.97 132.616L195.718 134.6ZM201.529 135.338L202.982 135.523L203.234 133.539L201.781 133.354L201.529 135.338Z" fill="#1C2755"/>
<rect y="183" width="100" height="26" rx="12" fill="#1C2755"/>
<path d="M13.8906 193.395V192H20.4609V193.395H18.0117V200H16.3398V193.395H13.8906ZM22.313 200V192H27.7036V193.395H24.0044V195.301H27.4263V196.695H24.0044V198.605H27.7192V200H22.313ZM29.8183 192H31.9043L34.1074 197.375H34.2011L36.4043 192H38.4902V200H36.8496V194.793H36.7832L34.7129 199.961H33.5957L31.5254 194.773H31.4589V200H29.8183V192ZM40.6537 200V192H43.81C44.4168 192 44.9337 192.116 45.3608 192.348C45.7879 192.577 46.1134 192.896 46.3373 193.305C46.5639 193.711 46.6772 194.18 46.6772 194.711C46.6772 195.242 46.5626 195.711 46.3334 196.117C46.1043 196.523 45.7722 196.84 45.3373 197.066C44.9051 197.293 44.3816 197.406 43.767 197.406H41.7553V196.051H43.4936C43.8191 196.051 44.0873 195.995 44.2983 195.883C44.5118 195.768 44.6707 195.611 44.7748 195.41C44.8816 195.207 44.935 194.974 44.935 194.711C44.935 194.445 44.8816 194.214 44.7748 194.016C44.6707 193.815 44.5118 193.66 44.2983 193.551C44.0847 193.439 43.8139 193.383 43.4858 193.383H42.3452V200H40.6537ZM48.5458 200V192H50.2372V198.605H53.6669V200H48.5458ZM57.14 200H55.3275L58.0893 192H60.2689L63.0268 200H61.2143L59.2104 193.828H59.1479L57.14 200ZM57.0268 196.855H61.308V198.176H57.0268V196.855ZM63.4774 193.395V192H70.0477V193.395H67.5985V200H65.9266V193.395H63.4774ZM71.8998 200V192H77.2904V193.395H73.5912V195.301H77.013V196.695H73.5912V198.605H77.306V200H71.8998ZM83.745 194.301C83.7137 193.986 83.5796 193.741 83.3426 193.566C83.1056 193.392 82.784 193.305 82.3778 193.305C82.1017 193.305 81.8687 193.344 81.6786 193.422C81.4885 193.497 81.3426 193.603 81.2411 193.738C81.1421 193.874 81.0926 194.027 81.0926 194.199C81.0874 194.342 81.1174 194.467 81.1825 194.574C81.2502 194.681 81.3426 194.773 81.4598 194.852C81.577 194.927 81.7124 194.993 81.8661 195.051C82.0197 195.105 82.1838 195.152 82.3582 195.191L83.077 195.363C83.426 195.441 83.7463 195.546 84.0379 195.676C84.3296 195.806 84.5822 195.966 84.7957 196.156C85.0093 196.346 85.1747 196.57 85.2918 196.828C85.4116 197.086 85.4728 197.382 85.4754 197.715C85.4728 198.204 85.3478 198.629 85.1004 198.988C84.8556 199.345 84.5015 199.622 84.0379 199.82C83.577 200.016 83.021 200.113 82.37 200.113C81.7241 200.113 81.1616 200.014 80.6825 199.816C80.2059 199.618 79.8335 199.326 79.5653 198.937C79.2997 198.547 79.1603 198.064 79.1473 197.488H80.784C80.8023 197.757 80.8791 197.98 81.0145 198.16C81.1525 198.337 81.3361 198.471 81.5653 198.562C81.797 198.651 82.0588 198.695 82.3504 198.695C82.6369 198.695 82.8856 198.654 83.0965 198.57C83.3101 198.487 83.4754 198.371 83.5926 198.223C83.7098 198.074 83.7684 197.904 83.7684 197.711C83.7684 197.531 83.715 197.38 83.6082 197.258C83.5041 197.135 83.3504 197.031 83.1473 196.945C82.9468 196.859 82.7007 196.781 82.409 196.711L81.5379 196.492C80.8635 196.328 80.3309 196.072 79.9403 195.723C79.5497 195.374 79.3556 194.904 79.3582 194.312C79.3556 193.828 79.4845 193.405 79.745 193.043C80.008 192.681 80.3687 192.398 80.827 192.195C81.2853 191.992 81.8062 191.891 82.3895 191.891C82.9832 191.891 83.5015 191.992 83.9442 192.195C84.3895 192.398 84.7359 192.681 84.9832 193.043C85.2306 193.405 85.3582 193.824 85.3661 194.301H83.745Z" fill="#7F9EF3"/>
<path d="M149.784 230.356C151.086 227.714 149.999 224.517 147.357 223.215C144.714 221.914 141.517 223.001 140.216 225.643C138.914 228.286 140.001 231.483 142.643 232.784C145.286 234.086 148.483 232.999 149.784 230.356ZM145.58 227.185L144.33 226.296L143.17 227.926L144.42 228.815L145.58 227.185ZM141.83 224.518L139.33 222.741L138.17 224.37L140.67 226.148L141.83 224.518ZM136.83 220.963L134.33 219.185L133.17 220.815L135.67 222.593L136.83 220.963ZM131.83 217.407L129.33 215.629L128.17 217.259L130.67 219.037L131.83 217.407ZM126.83 213.852L124.33 212.074L123.17 213.704L125.67 215.482L126.83 213.852ZM121.83 210.296L119.33 208.518L118.17 210.148L120.67 211.926L121.83 210.296ZM116.83 206.741L114.33 204.963L113.17 206.593L115.67 208.37L116.83 206.741ZM111.83 203.185L109.33 201.407L108.17 203.037L110.67 204.815L111.83 203.185ZM106.83 199.629L104.33 197.852L103.17 199.482L105.67 201.259L106.83 199.629ZM101.83 196.074L100.58 195.185L99.4205 196.815L100.67 197.704L101.83 196.074Z" fill="#1C2755"/>
</svg>
