<svg width="389" height="298" viewBox="0 0 389 298" fill="none" xmlns="http://www.w3.org/2000/svg">
    <path
        d="M348.663 297.307H11.3374C8.46441 297.304 5.70989 296.159 3.67815 294.125C1.64645 292.09 0.503406 289.331 0.5 286.453V11.3547C0.503411 8.47667 1.64645 5.71762 3.67815 3.68277C5.70982 1.64793 8.46423 0.503415 11.3371 0.5H348.663C351.536 0.503411 354.29 1.64793 356.322 3.68277C358.354 5.71769 359.497 8.47685 359.5 11.355V286.452C359.497 289.33 358.354 292.09 356.322 294.125C354.29 296.159 351.536 297.304 348.663 297.307Z"
        stroke="#434343" />
    <path
        d="M11.6105 11.6424C13.5641 9.68575 16.2127 8.58517 18.9752 8.58188L341.005 8.5819C341.005 8.5819 341.005 8.5819 341.006 8.5819C343.768 8.58518 346.417 9.68575 348.37 11.6424C350.324 13.5992 351.423 16.2524 351.426 19.02V187.508C351.396 214.477 340.685 240.333 321.644 259.404C302.604 278.474 276.788 289.201 249.861 289.231H18.9754C16.213 289.228 13.5644 288.128 11.6108 286.171C9.65716 284.215 8.55804 281.562 8.55469 278.794V19.0197C8.55787 16.2522 9.65693 13.5992 11.6105 11.6424Z"
        stroke="#434343" />
    <line x1="7.64062" y1="37.8622" x2="350.957" y2="37.8621" stroke="#434343" />
    <line x1="38.4531" y1="290.128" x2="38.4531" y2="38.3619" stroke="#434343" />
    <line x1="146.5" y1="290" x2="146.5" y2="38" stroke="#434343" />
    <rect x="14.1641" y="47.2947" width="18.2739" height="18.2739" rx="3.5" stroke="#434343" />
    <rect x="48.1641" y="47.56" width="85.2776" height="211.376" rx="1.5" stroke="#434343" />
    <rect x="157.664" y="47.56" width="178.192" height="145.008" rx="1.5" stroke="#434343" />
    <rect x="20.5" y="16.5" width="96" height="12" rx="1.5" stroke="#434343" />
    <rect x="123.5" y="16.5" width="53" height="12" rx="1.5" stroke="#434343" />
    <rect x="14.1641" y="72.5914" width="18.2739" height="18.2739" rx="3.5" stroke="#434343" />
    <rect x="14.1641" y="97.8884" width="18.2739" height="18.2739" rx="3.5" stroke="#434343" />
    <rect x="14.1641" y="123.5" width="18.2739" height="18.2739" rx="3.5" stroke="#434343" />
    <rect x="14.1641" y="148.797" width="18.2739" height="18.2739" rx="3.5" stroke="#434343" />
    <rect x="14.1641" y="174.094" width="18.2739" height="18.2739" rx="3.5" stroke="#434343" />
    <rect x="206" y="135" width="92" height="26" rx="12" fill="#1C2755" />
    <path
        d="M222.141 144L224.074 150.078H224.148L226.086 144H227.961L225.203 152H223.023L220.262 144H222.141ZM230.009 152H228.197L230.958 144H233.138L235.896 152H234.083L232.08 145.828H232.017L230.009 152ZM229.896 148.855H234.177V150.176H229.896V148.855ZM237.629 152V144H239.32V150.605H242.75V152H237.629ZM246.331 144V152H244.64V144H246.331ZM251.329 152H248.493V144H251.352C252.157 144 252.85 144.16 253.431 144.48C254.011 144.798 254.458 145.255 254.77 145.852C255.086 146.448 255.243 147.161 255.243 147.992C255.243 148.826 255.086 149.542 254.77 150.141C254.458 150.74 254.009 151.199 253.423 151.52C252.839 151.84 252.142 152 251.329 152ZM250.184 150.551H251.259C251.759 150.551 252.179 150.462 252.52 150.285C252.864 150.105 253.122 149.828 253.294 149.453C253.468 149.076 253.556 148.589 253.556 147.992C253.556 147.401 253.468 146.918 253.294 146.543C253.122 146.168 252.865 145.892 252.524 145.715C252.183 145.538 251.763 145.449 251.263 145.449H250.184V150.551ZM258.194 152H256.381L259.143 144H261.323L264.08 152H262.268L260.264 145.828H260.202L258.194 152ZM258.08 148.855H262.362V150.176H258.08V148.855ZM264.531 145.395V144H271.101V145.395H268.652V152H266.98V145.395H264.531ZM272.953 152V144H278.344V145.395H274.645V147.301H278.067V148.695H274.645V150.605H278.36V152H272.953ZM282.416 144L282.264 149.602H280.834L280.678 144H282.416ZM281.549 152.102C281.291 152.102 281.07 152.01 280.885 151.828C280.7 151.643 280.609 151.422 280.611 151.164C280.609 150.909 280.7 150.69 280.885 150.508C281.07 150.326 281.291 150.234 281.549 150.234C281.796 150.234 282.014 150.326 282.201 150.508C282.389 150.69 282.484 150.909 282.486 151.164C282.484 151.336 282.438 151.493 282.349 151.637C282.264 151.777 282.15 151.891 282.01 151.977C281.869 152.06 281.715 152.102 281.549 152.102Z"
        fill="#7F9EF3" />
    <path
        d="M28.2043 108.166C28.8483 105.292 27.0403 102.44 24.166 101.796C21.2917 101.152 18.4397 102.96 17.7957 105.834C17.1517 108.708 18.9597 111.56 21.834 112.204C24.7083 112.848 27.5604 111.04 28.2043 108.166ZM206.219 147.024L204.743 146.694L204.306 148.645L205.781 148.976L206.219 147.024ZM201.791 146.032L198.84 145.371L198.402 147.323L201.354 147.984L201.791 146.032ZM195.888 144.71L192.936 144.048L192.499 146L195.451 146.661L195.888 144.71ZM189.985 143.387L187.033 142.726L186.596 144.677L189.548 145.339L189.985 143.387ZM184.082 142.065L181.13 141.403L180.693 143.355L183.644 144.016L184.082 142.065ZM178.178 140.742L175.227 140.081L174.789 142.032L177.741 142.694L178.178 140.742ZM172.275 139.419L169.323 138.758L168.886 140.71L171.838 141.371L172.275 139.419ZM166.372 138.097L163.42 137.435L162.983 139.387L165.935 140.048L166.372 138.097ZM160.469 136.774L157.517 136.113L157.08 138.065L160.031 138.726L160.469 136.774ZM154.565 135.452L151.614 134.79L151.177 136.742L154.128 137.403L154.565 135.452ZM148.662 134.129L145.711 133.468L145.273 135.419L148.225 136.081L148.662 134.129ZM142.759 132.806L139.807 132.145L139.37 134.097L142.322 134.758L142.759 132.806ZM136.856 131.484L133.904 130.823L133.467 132.774L136.418 133.435L136.856 131.484ZM130.952 130.161L128.001 129.5L127.564 131.452L130.515 132.113L130.952 130.161ZM125.049 128.839L122.098 128.177L121.66 130.129L124.612 130.79L125.049 128.839ZM119.146 127.516L116.194 126.855L115.757 128.806L118.709 129.468L119.146 127.516ZM113.243 126.194L110.291 125.532L109.854 127.484L112.806 128.145L113.243 126.194ZM107.34 124.871L104.388 124.21L103.951 126.161L106.902 126.823L107.34 124.871ZM101.436 123.548L98.4847 122.887L98.0475 124.839L100.999 125.5L101.436 123.548ZM95.5331 122.226L92.5815 121.565L92.1442 123.516L95.0959 124.177L95.5331 122.226ZM89.6299 120.903L86.6783 120.242L86.241 122.194L89.1926 122.855L89.6299 120.903ZM83.7266 119.581L80.775 118.919L80.3378 120.871L83.2894 121.532L83.7266 119.581ZM77.8234 118.258L74.8718 117.597L74.4346 119.548L77.3862 120.21L77.8234 118.258ZM71.9202 116.935L68.9686 116.274L68.5314 118.226L71.483 118.887L71.9202 116.935ZM66.017 115.613L63.0654 114.952L62.6281 116.903L65.5797 117.565L66.017 115.613ZM60.1138 114.29L57.1622 113.629L56.7249 115.581L59.6765 116.242L60.1138 114.29ZM54.2106 112.968L51.259 112.306L50.8217 114.258L53.7733 114.919L54.2106 112.968ZM48.3073 111.645L45.3557 110.984L44.9185 112.935L47.8701 113.597L48.3073 111.645ZM42.4041 110.323L39.4525 109.661L39.0153 111.613L41.9669 112.274L42.4041 110.323ZM36.5009 109L33.5493 108.339L33.1121 110.29L36.0637 110.952L36.5009 109ZM30.5977 107.677L27.6461 107.016L27.2088 108.968L30.1604 109.629L30.5977 107.677ZM24.6945 106.355L23.2186 106.024L22.7814 107.976L24.2572 108.306L24.6945 106.355Z"
        fill="#1C2755" />
    <rect x="212" y="16" width="177" height="26" rx="12" fill="#1C2755" />
    <path
        d="M225.195 33V25H226.887V28.3008H230.32V25H232.008V33H230.32V29.6953H226.887V33H225.195ZM234.172 33V25H239.563V26.3945H235.864V28.3008H239.286V29.6953H235.864V31.6055H239.579V33H234.172ZM241.678 33V25H243.369V31.6055H246.799V33H241.678ZM248.689 25H250.775L252.978 30.375H253.072L255.275 25H257.361V33H255.72V27.793H255.654L253.583 32.9609H252.466L250.396 27.7734H250.33V33H248.689V25ZM265.262 33.1172C264.71 33.1172 264.233 33.0182 263.832 32.8203C263.431 32.6224 263.123 32.3542 262.907 32.0156C262.693 31.6745 262.586 31.2943 262.586 30.875C262.586 30.5625 262.649 30.2852 262.774 30.043C262.899 29.8008 263.073 29.5781 263.297 29.375C263.521 29.1693 263.782 28.9648 264.079 28.7617L265.629 27.7422C265.83 27.6146 265.977 27.4805 266.071 27.3398C266.164 27.1966 266.211 27.0417 266.211 26.875C266.211 26.7161 266.148 26.569 266.02 26.4336C265.892 26.2982 265.711 26.2318 265.477 26.2344C265.321 26.2344 265.185 26.2695 265.071 26.3398C264.956 26.4076 264.866 26.4974 264.801 26.6094C264.739 26.7187 264.707 26.8411 264.707 26.9766C264.707 27.1432 264.754 27.3125 264.848 27.4844C264.942 27.6562 265.067 27.8385 265.223 28.0312C265.379 28.2214 265.55 28.4271 265.735 28.6484L269.528 33H267.793L264.629 29.4766C264.421 29.2396 264.213 28.9922 264.004 28.7344C263.799 28.474 263.627 28.1979 263.489 27.9062C263.351 27.612 263.282 27.293 263.282 26.9492C263.282 26.5612 263.371 26.2122 263.551 25.9023C263.733 25.5924 263.989 25.3477 264.317 25.168C264.645 24.9857 265.028 24.8945 265.465 24.8945C265.892 24.8945 266.261 24.9818 266.571 25.1562C266.883 25.3281 267.123 25.5573 267.289 25.8437C267.459 26.1276 267.543 26.4401 267.543 26.7812C267.543 27.1589 267.45 27.5013 267.262 27.8086C267.077 28.1133 266.817 28.3867 266.481 28.6289L264.848 29.8047C264.627 29.9661 264.463 30.1315 264.356 30.3008C264.252 30.4674 264.2 30.6276 264.2 30.7812C264.2 30.9714 264.246 31.1419 264.34 31.293C264.434 31.444 264.567 31.5638 264.739 31.6523C264.911 31.7383 265.112 31.7812 265.344 31.7812C265.625 31.7812 265.903 31.7174 266.176 31.5898C266.452 31.4596 266.702 31.276 266.926 31.0391C267.153 30.7995 267.334 30.5156 267.469 30.1875C267.605 29.8594 267.672 29.4961 267.672 29.0977H269.051C269.051 29.5872 268.998 30.0286 268.891 30.4219C268.784 30.8125 268.636 31.1536 268.446 31.4453C268.256 31.7344 268.038 31.9714 267.793 32.1562C267.715 32.2057 267.64 32.2526 267.567 32.2969C267.494 32.3411 267.418 32.388 267.34 32.4375C267.043 32.6771 266.711 32.8503 266.344 32.957C265.98 33.0638 265.619 33.1172 265.262 33.1172ZM274.338 33V25H276.03V28.5273H276.135L279.014 25H281.041L278.073 28.582L281.077 33H279.053L276.862 29.7109L276.03 30.7266V33H274.338ZM287.634 25H289.325V30.1953C289.325 30.7786 289.186 31.2891 288.907 31.7266C288.631 32.1641 288.244 32.5052 287.747 32.75C287.25 32.9922 286.67 33.1133 286.009 33.1133C285.345 33.1133 284.764 32.9922 284.266 32.75C283.769 32.5052 283.382 32.1641 283.106 31.7266C282.83 31.2891 282.692 30.7786 282.692 30.1953V25H284.384V30.0508C284.384 30.3555 284.45 30.6263 284.583 30.8633C284.718 31.1003 284.908 31.2865 285.153 31.4219C285.398 31.5573 285.683 31.625 286.009 31.625C286.337 31.625 286.622 31.5573 286.864 31.4219C287.109 31.2865 287.298 31.1003 287.431 30.8633C287.566 30.6263 287.634 30.3555 287.634 30.0508V25ZM295.826 27.3008C295.795 26.9857 295.661 26.7409 295.424 26.5664C295.187 26.3919 294.866 26.3047 294.459 26.3047C294.183 26.3047 293.95 26.3437 293.76 26.4219C293.57 26.4974 293.424 26.6029 293.323 26.7383C293.224 26.8737 293.174 27.0273 293.174 27.1992C293.169 27.3424 293.199 27.4674 293.264 27.5742C293.332 27.681 293.424 27.7734 293.541 27.8516C293.659 27.9271 293.794 27.9935 293.948 28.0508C294.101 28.1055 294.265 28.1523 294.44 28.1914L295.159 28.3633C295.507 28.4414 295.828 28.5456 296.119 28.6758C296.411 28.806 296.664 28.9661 296.877 29.1562C297.091 29.3464 297.256 29.5703 297.373 29.8281C297.493 30.0859 297.554 30.3815 297.557 30.7148C297.554 31.2044 297.429 31.6289 297.182 31.9883C296.937 32.3451 296.583 32.6224 296.119 32.8203C295.659 33.0156 295.103 33.1133 294.451 33.1133C293.806 33.1133 293.243 33.0143 292.764 32.8164C292.287 32.6185 291.915 32.3255 291.647 31.9375C291.381 31.5469 291.242 31.0638 291.229 30.4883H292.866C292.884 30.7565 292.961 30.9805 293.096 31.1602C293.234 31.3372 293.418 31.4714 293.647 31.5625C293.879 31.651 294.14 31.6953 294.432 31.6953C294.718 31.6953 294.967 31.6536 295.178 31.5703C295.392 31.487 295.557 31.3711 295.674 31.2227C295.791 31.0742 295.85 30.9036 295.85 30.7109C295.85 30.5312 295.797 30.3802 295.69 30.2578C295.586 30.1354 295.432 30.0312 295.229 29.9453C295.028 29.8594 294.782 29.7812 294.491 29.7109L293.619 29.4922C292.945 29.3281 292.412 29.0716 292.022 28.7227C291.631 28.3737 291.437 27.9036 291.44 27.3125C291.437 26.8281 291.566 26.4049 291.826 26.043C292.09 25.681 292.45 25.3984 292.909 25.1953C293.367 24.9922 293.888 24.8906 294.471 24.8906C295.065 24.8906 295.583 24.9922 296.026 25.1953C296.471 25.3984 296.817 25.681 297.065 26.043C297.312 26.4049 297.44 26.8242 297.448 27.3008H295.826ZM299.16 26.3945V25H305.73V26.3945H303.281V33H301.609V26.3945H299.16ZM314.569 29C314.569 29.8724 314.403 30.6146 314.073 31.2266C313.744 31.8385 313.296 32.306 312.729 32.6289C312.164 32.9492 311.528 33.1094 310.823 33.1094C310.112 33.1094 309.474 32.9479 308.908 32.625C308.343 32.3021 307.897 31.8346 307.569 31.2227C307.241 30.6107 307.076 29.8698 307.076 29C307.076 28.1276 307.241 27.3854 307.569 26.7734C307.897 26.1615 308.343 25.6953 308.908 25.375C309.474 25.0521 310.112 24.8906 310.823 24.8906C311.528 24.8906 312.164 25.0521 312.729 25.375C313.296 25.6953 313.744 26.1615 314.073 26.7734C314.403 27.3854 314.569 28.1276 314.569 29ZM312.854 29C312.854 28.4349 312.769 27.9583 312.6 27.5703C312.433 27.1823 312.198 26.888 311.893 26.6875C311.588 26.487 311.231 26.3867 310.823 26.3867C310.414 26.3867 310.057 26.487 309.752 26.6875C309.448 26.888 309.211 27.1823 309.041 27.5703C308.875 27.9583 308.791 28.4349 308.791 29C308.791 29.5651 308.875 30.0417 309.041 30.4297C309.211 30.8177 309.448 31.112 309.752 31.3125C310.057 31.513 310.414 31.6133 310.823 31.6133C311.231 31.6133 311.588 31.513 311.893 31.3125C312.198 31.112 312.433 30.8177 312.6 30.4297C312.769 30.0417 312.854 29.5651 312.854 29ZM316.592 25H318.677L320.881 30.375H320.974L323.177 25H325.263V33H323.623V27.793H323.556L321.486 32.9609H320.369L318.299 27.7734H318.232V33H316.592V25ZM329.118 25V33H327.427V25H329.118ZM331.194 33V31.9961L335.186 26.3945H331.186V25H337.311V26.0039L333.315 31.6055H337.319V33H331.194ZM340.766 33H338.953L341.715 25H343.895L346.653 33H344.84L342.836 26.8281H342.774L340.766 33ZM340.653 29.8555H344.934V31.1758H340.653V29.8555ZM347.103 26.3945V25H353.674V26.3945H351.224V33H349.552V26.3945H347.103ZM362.512 29C362.512 29.8724 362.347 30.6146 362.016 31.2266C361.688 31.8385 361.24 32.306 360.672 32.6289C360.107 32.9492 359.472 33.1094 358.766 33.1094C358.055 33.1094 357.417 32.9479 356.852 32.625C356.287 32.3021 355.84 31.8346 355.512 31.2227C355.184 30.6107 355.02 29.8698 355.02 29C355.02 28.1276 355.184 27.3854 355.512 26.7734C355.84 26.1615 356.287 25.6953 356.852 25.375C357.417 25.0521 358.055 24.8906 358.766 24.8906C359.472 24.8906 360.107 25.0521 360.672 25.375C361.24 25.6953 361.688 26.1615 362.016 26.7734C362.347 27.3854 362.512 28.1276 362.512 29ZM360.797 29C360.797 28.4349 360.712 27.9583 360.543 27.5703C360.376 27.1823 360.141 26.888 359.836 26.6875C359.531 26.487 359.175 26.3867 358.766 26.3867C358.357 26.3867 358 26.487 357.695 26.6875C357.391 26.888 357.154 27.1823 356.985 27.5703C356.818 27.9583 356.735 28.4349 356.735 29C356.735 29.5651 356.818 30.0417 356.985 30.4297C357.154 30.8177 357.391 31.112 357.695 31.3125C358 31.513 358.357 31.6133 358.766 31.6133C359.175 31.6133 359.531 31.513 359.836 31.3125C360.141 31.112 360.376 30.8177 360.543 30.4297C360.712 30.0417 360.797 29.5651 360.797 29ZM371.226 25V33H369.765L366.285 27.9648H366.226V33H364.535V25H366.019L369.472 30.0312H369.543V25H371.226ZM375.351 25L375.198 30.6016H373.769L373.612 25H375.351ZM374.484 33.1016C374.226 33.1016 374.004 33.0104 373.819 32.8281C373.635 32.6432 373.543 32.4219 373.546 32.1641C373.543 31.9089 373.635 31.6901 373.819 31.5078C374.004 31.3255 374.226 31.2344 374.484 31.2344C374.731 31.2344 374.948 31.3255 375.136 31.5078C375.323 31.6901 375.418 31.9089 375.421 32.1641C375.418 32.3359 375.373 32.4935 375.284 32.6367C375.198 32.7773 375.085 32.8906 374.944 32.9766C374.804 33.0599 374.65 33.1016 374.484 33.1016Z"
        fill="#7F9EF3" />
    <path
        d="M98.0554 67.3007C97.1169 64.5087 94.0927 63.0061 91.3007 63.9446C88.5087 64.8831 87.0061 67.9073 87.9446 70.6993C88.8831 73.4913 91.9073 74.9939 94.6993 74.0554C97.4913 73.1169 98.9939 70.0927 98.0554 67.3007ZM211.681 28.0521L210.265 28.5283L210.902 30.4241L212.319 29.9479L211.681 28.0521ZM207.431 29.4807L204.598 30.4331L205.235 32.3288L208.069 31.3765L207.431 29.4807ZM201.765 31.3855L198.931 32.3378L199.569 34.2336L202.402 33.2812L201.765 31.3855ZM196.098 33.2902L193.265 34.2426L193.902 36.1384L196.735 35.186L196.098 33.2902ZM190.431 35.195L187.598 36.1474L188.235 38.0431L191.069 37.0907L190.431 35.195ZM184.765 37.0997L181.931 38.0521L182.569 39.9479L185.402 38.9955L184.765 37.0997ZM179.098 39.0045L176.265 39.9569L176.902 41.8526L179.735 40.9003L179.098 39.0045ZM173.431 40.9093L170.598 41.8616L171.235 43.7574L174.069 42.805L173.431 40.9093ZM167.765 42.814L164.931 43.7664L165.569 45.6622L168.402 44.7098L167.765 42.814ZM162.098 44.7188L159.265 45.6712L159.902 47.5669L162.735 46.6146L162.098 44.7188ZM156.431 46.6235L153.598 47.5759L154.235 49.4717L157.069 48.5193L156.431 46.6235ZM150.765 48.5283L147.931 49.4807L148.569 51.3765L151.402 50.4241L150.765 48.5283ZM145.098 50.4331L142.265 51.3855L142.902 53.2812L145.735 52.3288L145.098 50.4331ZM139.431 52.3378L136.598 53.2902L137.235 55.186L140.069 54.2336L139.431 52.3378ZM133.765 54.2426L130.931 55.195L131.569 57.0907L134.402 56.1384L133.765 54.2426ZM128.098 56.1474L125.265 57.0997L125.902 58.9955L128.735 58.0431L128.098 56.1474ZM122.431 58.0521L119.598 59.0045L120.235 60.9003L123.069 59.9479L122.431 58.0521ZM116.765 59.9569L113.931 60.9093L114.569 62.805L117.402 61.8526L116.765 59.9569ZM111.098 61.8616L108.265 62.814L108.902 64.7098L111.735 63.7574L111.098 61.8616ZM105.431 63.7664L102.598 64.7188L103.235 66.6145L106.069 65.6622L105.431 63.7664ZM99.7647 65.6712L96.9314 66.6235L97.5686 68.5193L100.402 67.5669L99.7647 65.6712ZM94.0981 67.5759L92.6814 68.0521L93.3186 69.9479L94.7353 69.4717L94.0981 67.5759Z"
        fill="#1C2755" />
    <rect x="139" y="187" width="84" height="26" rx="12" fill="#1C2755" />
    <path
        d="M158.254 198.801H156.543C156.512 198.579 156.448 198.383 156.352 198.211C156.255 198.036 156.132 197.888 155.98 197.766C155.829 197.643 155.655 197.549 155.457 197.484C155.262 197.419 155.049 197.387 154.82 197.387C154.406 197.387 154.046 197.49 153.738 197.695C153.431 197.898 153.193 198.195 153.023 198.586C152.854 198.974 152.77 199.445 152.77 200C152.77 200.57 152.854 201.049 153.023 201.438C153.195 201.826 153.435 202.118 153.742 202.316C154.049 202.514 154.405 202.613 154.809 202.613C155.035 202.613 155.245 202.583 155.438 202.523C155.633 202.464 155.806 202.376 155.957 202.262C156.108 202.145 156.233 202.003 156.332 201.836C156.434 201.669 156.504 201.479 156.543 201.266L158.254 201.273C158.21 201.641 158.099 201.995 157.922 202.336C157.747 202.674 157.512 202.978 157.215 203.246C156.921 203.512 156.569 203.723 156.16 203.879C155.754 204.033 155.294 204.109 154.781 204.109C154.068 204.109 153.43 203.948 152.867 203.625C152.307 203.302 151.865 202.835 151.539 202.223C151.216 201.611 151.055 200.87 151.055 200C151.055 199.128 151.219 198.385 151.547 197.773C151.875 197.161 152.32 196.695 152.883 196.375C153.445 196.052 154.078 195.891 154.781 195.891C155.245 195.891 155.674 195.956 156.07 196.086C156.469 196.216 156.822 196.406 157.129 196.656C157.436 196.904 157.686 197.207 157.879 197.566C158.074 197.926 158.199 198.337 158.254 198.801ZM160.237 204V196H161.928V202.605H165.358V204H160.237ZM172.189 196H173.881V201.195C173.881 201.779 173.741 202.289 173.463 202.727C173.187 203.164 172.8 203.505 172.303 203.75C171.805 203.992 171.226 204.113 170.564 204.113C169.9 204.113 169.32 203.992 168.822 203.75C168.325 203.505 167.938 203.164 167.662 202.727C167.386 202.289 167.248 201.779 167.248 201.195V196H168.939V201.051C168.939 201.355 169.006 201.626 169.139 201.863C169.274 202.1 169.464 202.286 169.709 202.422C169.954 202.557 170.239 202.625 170.564 202.625C170.893 202.625 171.178 202.557 171.42 202.422C171.665 202.286 171.853 202.1 171.986 201.863C172.122 201.626 172.189 201.355 172.189 201.051V196ZM180.382 198.301C180.351 197.986 180.217 197.741 179.98 197.566C179.743 197.392 179.421 197.305 179.015 197.305C178.739 197.305 178.506 197.344 178.316 197.422C178.126 197.497 177.98 197.603 177.878 197.738C177.779 197.874 177.73 198.027 177.73 198.199C177.725 198.342 177.755 198.467 177.82 198.574C177.887 198.681 177.98 198.773 178.097 198.852C178.214 198.927 178.35 198.993 178.503 199.051C178.657 199.105 178.821 199.152 178.996 199.191L179.714 199.363C180.063 199.441 180.384 199.546 180.675 199.676C180.967 199.806 181.22 199.966 181.433 200.156C181.647 200.346 181.812 200.57 181.929 200.828C182.049 201.086 182.11 201.382 182.113 201.715C182.11 202.204 181.985 202.629 181.738 202.988C181.493 203.345 181.139 203.622 180.675 203.82C180.214 204.016 179.658 204.113 179.007 204.113C178.361 204.113 177.799 204.014 177.32 203.816C176.843 203.618 176.471 203.326 176.203 202.938C175.937 202.547 175.798 202.064 175.785 201.488H177.421C177.44 201.757 177.516 201.98 177.652 202.16C177.79 202.337 177.973 202.471 178.203 202.563C178.434 202.651 178.696 202.695 178.988 202.695C179.274 202.695 179.523 202.654 179.734 202.57C179.947 202.487 180.113 202.371 180.23 202.223C180.347 202.074 180.406 201.904 180.406 201.711C180.406 201.531 180.352 201.38 180.246 201.258C180.141 201.135 179.988 201.031 179.785 200.945C179.584 200.859 179.338 200.781 179.046 200.711L178.175 200.492C177.501 200.328 176.968 200.072 176.578 199.723C176.187 199.374 175.993 198.904 175.996 198.313C175.993 197.828 176.122 197.405 176.382 197.043C176.645 196.681 177.006 196.398 177.464 196.195C177.923 195.992 178.443 195.891 179.027 195.891C179.621 195.891 180.139 195.992 180.581 196.195C181.027 196.398 181.373 196.681 181.621 197.043C181.868 197.405 181.996 197.824 182.003 198.301H180.382ZM183.716 197.395V196H190.286V197.395H187.837V204H186.165V197.395H183.716ZM192.138 204V196H197.529V197.395H193.829V199.301H197.251V200.695H193.829V202.605H197.544V204H192.138ZM199.643 204V196H202.8C203.404 196 203.919 196.108 204.347 196.324C204.776 196.538 205.103 196.841 205.327 197.234C205.554 197.625 205.667 198.085 205.667 198.613C205.667 199.145 205.552 199.602 205.323 199.984C205.094 200.365 204.762 200.656 204.327 200.859C203.895 201.063 203.371 201.164 202.757 201.164H200.643V199.805H202.483C202.806 199.805 203.074 199.76 203.288 199.672C203.502 199.583 203.66 199.451 203.765 199.273C203.871 199.096 203.925 198.876 203.925 198.613C203.925 198.348 203.871 198.124 203.765 197.941C203.66 197.759 203.5 197.621 203.284 197.527C203.071 197.431 202.801 197.383 202.475 197.383H201.335V204H199.643ZM203.964 200.359L205.952 204H204.085L202.14 200.359H203.964ZM209.589 196L209.437 201.602H208.007L207.851 196H209.589ZM208.722 204.102C208.464 204.102 208.243 204.01 208.058 203.828C207.873 203.643 207.782 203.422 207.785 203.164C207.782 202.909 207.873 202.69 208.058 202.508C208.243 202.326 208.464 202.234 208.722 202.234C208.969 202.234 209.187 202.326 209.374 202.508C209.562 202.69 209.657 202.909 209.66 203.164C209.657 203.336 209.611 203.493 209.523 203.637C209.437 203.777 209.324 203.891 209.183 203.977C209.042 204.06 208.889 204.102 208.722 204.102Z"
        fill="#7F9EF3" />
    <path
        d="M28.2916 132.334C27.9237 129.411 25.2564 127.341 22.3339 127.708C19.4115 128.076 17.3406 130.744 17.7084 133.666C18.0763 136.589 20.7436 138.659 23.6661 138.292C26.5885 137.924 28.6594 135.256 28.2916 132.334ZM139.5 199.134L138.182 198.373L137.182 200.105L138.5 200.866L139.5 199.134ZM135.546 196.85L132.909 195.327L131.909 197.059L134.545 198.582L135.546 196.85ZM130.273 193.805L127.637 192.282L126.636 194.014L129.273 195.536L130.273 193.805ZM125 190.759L122.364 189.236L121.363 190.968L124 192.491L125 190.759ZM119.727 187.714L117.091 186.191L116.091 187.923L118.727 189.445L119.727 187.714ZM114.455 184.668L111.818 183.145L110.818 184.877L113.454 186.4L114.455 184.668ZM109.182 181.623L106.546 180.1L105.545 181.832L108.182 183.355L109.182 181.623ZM103.909 178.577L101.273 177.055L100.273 178.786L102.909 180.309L103.909 178.577ZM98.6365 175.532L96.0002 174.009L94.9998 175.741L97.6362 177.264L98.6365 175.532ZM93.3638 172.486L90.7274 170.964L89.7271 172.695L92.3635 174.218L93.3638 172.486ZM88.0911 169.441L85.4547 167.918L84.4544 169.65L87.0908 171.173L88.0911 169.441ZM82.8183 166.395L80.182 164.873L79.1817 166.605L81.818 168.127L82.8183 166.395ZM77.5456 163.35L74.9092 161.827L73.9089 163.559L76.5453 165.082L77.5456 163.35ZM72.2729 160.305L69.6365 158.782L68.6362 160.514L71.2726 162.036L72.2729 160.305ZM67.0001 157.259L64.3638 155.736L63.3635 157.468L65.9998 158.991L67.0001 157.259ZM61.7274 154.214L59.091 152.691L58.0907 154.423L60.7271 155.945L61.7274 154.214ZM56.4547 151.168L53.8183 149.645L52.818 151.377L55.4544 152.9L56.4547 151.168ZM51.1819 148.123L48.5456 146.6L47.5453 148.332L50.1816 149.855L51.1819 148.123ZM45.9092 145.077L43.2728 143.554L42.2725 145.286L44.9089 146.809L45.9092 145.077ZM40.6365 142.032L38.0001 140.509L36.9998 142.241L39.6362 143.764L40.6365 142.032ZM35.3637 138.986L32.7274 137.464L31.7271 139.195L34.3634 140.718L35.3637 138.986ZM30.091 135.941L27.4546 134.418L26.4543 136.15L29.0907 137.673L30.091 135.941ZM24.8183 132.895L23.5002 132.134L22.4998 133.866L23.818 134.627L24.8183 132.895Z"
        fill="#1C2755" />
    <rect x="118" y="85" width="90" height="26" rx="12" fill="#1C2755" />
    <path
        d="M138.254 96.8008H136.543C136.512 96.5794 136.448 96.3828 136.352 96.2109C136.255 96.0365 136.132 95.888 135.98 95.7656C135.829 95.6432 135.655 95.5495 135.457 95.4844C135.262 95.4193 135.049 95.3867 134.82 95.3867C134.406 95.3867 134.046 95.4896 133.738 95.6953C133.431 95.8984 133.193 96.1953 133.023 96.5859C132.854 96.974 132.77 97.4453 132.77 98C132.77 98.5703 132.854 99.0495 133.023 99.4375C133.195 99.8255 133.435 100.118 133.742 100.316C134.049 100.514 134.405 100.613 134.809 100.613C135.035 100.613 135.245 100.583 135.438 100.523C135.633 100.464 135.806 100.376 135.957 100.262C136.108 100.145 136.233 100.003 136.332 99.8359C136.434 99.6693 136.504 99.4792 136.543 99.2656L138.254 99.2734C138.21 99.6406 138.099 99.9948 137.922 100.336C137.747 100.674 137.512 100.978 137.215 101.246C136.921 101.512 136.569 101.723 136.16 101.879C135.754 102.033 135.294 102.109 134.781 102.109C134.068 102.109 133.43 101.948 132.867 101.625C132.307 101.302 131.865 100.835 131.539 100.223C131.216 99.6107 131.055 98.8698 131.055 98C131.055 97.1276 131.219 96.3854 131.547 95.7734C131.875 95.1615 132.32 94.6953 132.883 94.375C133.445 94.0521 134.078 93.8906 134.781 93.8906C135.245 93.8906 135.674 93.9557 136.07 94.0859C136.469 94.2162 136.822 94.4063 137.129 94.6563C137.436 94.9037 137.686 95.207 137.879 95.5664C138.074 95.9258 138.199 96.3372 138.254 96.8008ZM147.588 98C147.588 98.8724 147.423 99.6146 147.092 100.227C146.764 100.839 146.316 101.306 145.749 101.629C145.183 101.949 144.548 102.109 143.842 102.109C143.131 102.109 142.493 101.948 141.928 101.625C141.363 101.302 140.916 100.835 140.588 100.223C140.26 99.6107 140.096 98.8698 140.096 98C140.096 97.1276 140.26 96.3854 140.588 95.7734C140.916 95.1615 141.363 94.6953 141.928 94.375C142.493 94.0521 143.131 93.8906 143.842 93.8906C144.548 93.8906 145.183 94.0521 145.749 94.375C146.316 94.6953 146.764 95.1615 147.092 95.7734C147.423 96.3854 147.588 97.1276 147.588 98ZM145.874 98C145.874 97.4349 145.789 96.9583 145.62 96.5703C145.453 96.1823 145.217 95.888 144.913 95.6875C144.608 95.487 144.251 95.3867 143.842 95.3867C143.433 95.3867 143.077 95.487 142.772 95.6875C142.467 95.888 142.23 96.1823 142.061 96.5703C141.894 96.9583 141.811 97.4349 141.811 98C141.811 98.5651 141.894 99.0417 142.061 99.4297C142.23 99.8177 142.467 100.112 142.772 100.313C143.077 100.513 143.433 100.613 143.842 100.613C144.251 100.613 144.608 100.513 144.913 100.313C145.217 100.112 145.453 99.8177 145.62 99.4297C145.789 99.0417 145.874 98.5651 145.874 98ZM149.611 94H151.697L153.9 99.375H153.994L156.197 94H158.283V102H156.643V96.793H156.576L154.506 101.961H153.389L151.318 96.7734H151.252V102H149.611V94ZM160.447 102V94H163.603C164.21 94 164.727 94.1159 165.154 94.3477C165.581 94.5768 165.906 94.8958 166.13 95.3047C166.357 95.7109 166.47 96.1797 166.47 96.7109C166.47 97.2422 166.356 97.7109 166.126 98.1172C165.897 98.5234 165.565 98.8399 165.13 99.0664C164.698 99.293 164.175 99.4063 163.56 99.4063H161.548V98.0508H163.287C163.612 98.0508 163.88 97.9948 164.091 97.8828C164.305 97.7682 164.464 97.6107 164.568 97.4102C164.675 97.207 164.728 96.974 164.728 96.7109C164.728 96.4453 164.675 96.2135 164.568 96.0156C164.464 95.8151 164.305 95.6602 164.091 95.5508C163.878 95.4388 163.607 95.3828 163.279 95.3828H162.138V102H160.447ZM168.794 102H166.981L169.743 94H171.923L174.681 102H172.868L170.864 95.8281H170.802L168.794 102ZM168.681 98.8555H172.962V100.176H168.681V98.8555ZM176.413 102V94H179.57C180.174 94 180.69 94.1081 181.117 94.3242C181.546 94.5378 181.873 94.8412 182.097 95.2344C182.324 95.625 182.437 96.0846 182.437 96.6133C182.437 97.1445 182.322 97.6016 182.093 97.9844C181.864 98.3646 181.532 98.6563 181.097 98.8594C180.665 99.0625 180.141 99.1641 179.527 99.1641H177.413V97.8047H179.253C179.576 97.8047 179.844 97.7604 180.058 97.6719C180.272 97.5833 180.43 97.4505 180.535 97.2734C180.641 97.0964 180.695 96.8763 180.695 96.6133C180.695 96.3477 180.641 96.1237 180.535 95.9414C180.43 95.7591 180.27 95.6211 180.054 95.5274C179.841 95.431 179.571 95.3828 179.246 95.3828H178.105V102H176.413ZM180.734 98.3594L182.722 102H180.855L178.91 98.3594H180.734ZM184.402 102V94H189.793V95.3945H186.094V97.3008H189.516V98.6953H186.094V100.605H189.808V102H184.402ZM193.865 94L193.712 99.6016H192.283L192.126 94H193.865ZM192.997 102.102C192.74 102.102 192.518 102.01 192.333 101.828C192.148 101.643 192.057 101.422 192.06 101.164C192.057 100.909 192.148 100.69 192.333 100.508C192.518 100.326 192.74 100.234 192.997 100.234C193.245 100.234 193.462 100.326 193.65 100.508C193.837 100.69 193.932 100.909 193.935 101.164C193.932 101.336 193.887 101.493 193.798 101.637C193.712 101.777 193.599 101.891 193.458 101.977C193.318 102.06 193.164 102.102 192.997 102.102Z"
        fill="#7F9EF3" />
    <path
        d="M28.2593 82.8858C28.7485 79.9812 26.7904 77.2299 23.8858 76.7407C20.9812 76.2515 18.2299 78.2096 17.7407 81.1142C17.2515 84.0188 19.2096 86.7701 22.1142 87.2593C25.0188 87.7485 27.7701 85.7904 28.2593 82.8858ZM118.166 97.0139L116.682 96.7639L116.35 98.7361L117.834 98.9861L118.166 97.0139ZM113.713 96.2639L110.744 95.7639L110.412 97.7361L113.381 98.2361L113.713 96.2639ZM107.775 95.2639L104.807 94.7639L104.475 96.7361L107.443 97.2361L107.775 95.2639ZM101.838 94.2639L98.8692 93.7639L98.537 95.7361L101.506 96.2361L101.838 94.2639ZM95.9005 93.2639L92.9317 92.7639L92.5995 94.7361L95.5683 95.2361L95.9005 93.2639ZM89.963 92.2639L86.9942 91.7639L86.662 93.7361L89.6308 94.2361L89.963 92.2639ZM84.0255 91.2639L81.0567 90.7639L80.7245 92.7361L83.6933 93.2361L84.0255 91.2639ZM78.088 90.2639L75.1192 89.7639L74.787 91.7361L77.7558 92.2361L78.088 90.2639ZM72.1505 89.2639L69.1817 88.7639L68.8495 90.7361L71.8183 91.2361L72.1505 89.2639ZM66.213 88.2639L63.2442 87.7639L62.9121 89.7361L65.8808 90.2361L66.213 88.2639ZM60.2755 87.2639L57.3067 86.7639L56.9746 88.7361L59.9433 89.2361L60.2755 87.2639ZM54.338 86.2639L51.3692 85.7639L51.0371 87.7361L54.0058 88.2361L54.338 86.2639ZM48.4005 85.2639L45.4317 84.7639L45.0996 86.7361L48.0683 87.2361L48.4005 85.2639ZM42.463 84.2639L39.4942 83.7639L39.1621 85.7361L42.1308 86.2361L42.463 84.2639ZM36.5255 83.2639L33.5567 82.7639L33.2246 84.7361L36.1933 85.2361L36.5255 83.2639ZM30.588 82.2639L27.6192 81.7639L27.2871 83.7361L30.2558 84.2361L30.588 82.2639ZM24.6505 81.2639L23.1661 81.0139L22.8339 82.9861L24.3183 83.2361L24.6505 81.2639Z"
        fill="#1C2755" />
    <rect x="272" y="220" width="94" height="26" rx="12" fill="#1C2755" />
    <path
        d="M286.195 237V229H291.586V230.395H287.887V232.301H291.309V233.695H287.887V235.605H291.602V237H286.195ZM296.537 237H293.701V229H296.56C297.365 229 298.057 229.16 298.638 229.48C299.219 229.798 299.666 230.255 299.978 230.852C300.293 231.448 300.451 232.161 300.451 232.992C300.451 233.826 300.293 234.542 299.978 235.141C299.666 235.74 299.216 236.199 298.63 236.52C298.047 236.84 297.349 237 296.537 237ZM295.392 235.551H296.466C296.966 235.551 297.387 235.462 297.728 235.285C298.072 235.105 298.33 234.828 298.501 234.453C298.676 234.076 298.763 233.589 298.763 232.992C298.763 232.401 298.676 231.918 298.501 231.543C298.33 231.168 298.073 230.892 297.732 230.715C297.391 230.538 296.97 230.449 296.47 230.449H295.392V235.551ZM304.165 229V237H302.474V229H304.165ZM306.022 230.395V229H312.592V230.395H310.143V237H308.471V230.395H306.022ZM320.182 237.117C319.63 237.117 319.153 237.018 318.752 236.82C318.351 236.622 318.043 236.354 317.827 236.016C317.613 235.674 317.506 235.294 317.506 234.875C317.506 234.562 317.569 234.285 317.694 234.043C317.819 233.801 317.993 233.578 318.217 233.375C318.441 233.169 318.702 232.965 318.998 232.762L320.549 231.742C320.75 231.615 320.897 231.48 320.991 231.34C321.084 231.197 321.131 231.042 321.131 230.875C321.131 230.716 321.067 230.569 320.94 230.434C320.812 230.298 320.631 230.232 320.397 230.234C320.241 230.234 320.105 230.27 319.991 230.34C319.876 230.408 319.786 230.497 319.721 230.609C319.659 230.719 319.627 230.841 319.627 230.977C319.627 231.143 319.674 231.312 319.768 231.484C319.862 231.656 319.987 231.839 320.143 232.031C320.299 232.221 320.47 232.427 320.655 232.648L324.448 237H322.713L319.549 233.477C319.341 233.24 319.133 232.992 318.924 232.734C318.718 232.474 318.547 232.198 318.409 231.906C318.271 231.612 318.202 231.293 318.202 230.949C318.202 230.561 318.291 230.212 318.471 229.902C318.653 229.592 318.909 229.348 319.237 229.168C319.565 228.986 319.948 228.895 320.385 228.895C320.812 228.895 321.181 228.982 321.491 229.156C321.803 229.328 322.043 229.557 322.209 229.844C322.379 230.128 322.463 230.44 322.463 230.781C322.463 231.159 322.37 231.501 322.182 231.809C321.997 232.113 321.737 232.387 321.401 232.629L319.768 233.805C319.547 233.966 319.383 234.132 319.276 234.301C319.172 234.467 319.12 234.628 319.12 234.781C319.12 234.971 319.166 235.142 319.26 235.293C319.354 235.444 319.487 235.564 319.659 235.652C319.83 235.738 320.032 235.781 320.264 235.781C320.545 235.781 320.823 235.717 321.096 235.59C321.372 235.46 321.622 235.276 321.846 235.039C322.073 234.799 322.254 234.516 322.389 234.188C322.524 233.859 322.592 233.496 322.592 233.098H323.971C323.971 233.587 323.918 234.029 323.811 234.422C323.704 234.813 323.556 235.154 323.366 235.445C323.176 235.734 322.958 235.971 322.713 236.156C322.635 236.206 322.56 236.253 322.487 236.297C322.414 236.341 322.338 236.388 322.26 236.437C321.963 236.677 321.631 236.85 321.264 236.957C320.899 237.064 320.539 237.117 320.182 237.117ZM329.258 237V229H334.555V230.395H330.95V232.301H334.203V233.695H330.95V237H329.258ZM338.154 229V237H336.463V229H338.154ZM341.902 229L343.515 231.727H343.577L345.199 229H347.109L344.667 233L347.163 237H345.218L343.577 234.27H343.515L341.874 237H339.937L342.441 233L339.984 229H341.902ZM350.906 229L350.754 234.602H349.324L349.168 229H350.906ZM350.039 237.102C349.781 237.102 349.56 237.01 349.375 236.828C349.19 236.643 349.099 236.422 349.101 236.164C349.099 235.909 349.19 235.69 349.375 235.508C349.56 235.326 349.781 235.234 350.039 235.234C350.286 235.234 350.504 235.326 350.691 235.508C350.879 235.69 350.974 235.909 350.976 236.164C350.974 236.336 350.928 236.493 350.84 236.637C350.754 236.777 350.64 236.891 350.5 236.977C350.359 237.06 350.206 237.102 350.039 237.102Z"
        fill="#7F9EF3" />
    <path
        d="M321 182.333C323.946 182.333 326.333 179.946 326.333 177C326.333 174.054 323.946 171.667 321 171.667C318.054 171.667 315.667 174.054 315.667 177C315.667 179.946 318.054 182.333 321 182.333ZM322 220L322 218.464L320 218.464L320 220L322 220ZM322 215.393L322 212.321L320 212.321L320 215.393L322 215.393ZM322 209.25L322 206.179L320 206.179L320 209.25L322 209.25ZM322 203.107L322 200.036L320 200.036L320 203.107L322 203.107ZM322 196.964L322 193.893L320 193.893L320 196.964L322 196.964ZM322 190.821L322 187.75L320 187.75L320 190.821L322 190.821ZM322 184.679L322 181.607L320 181.607L320 184.679L322 184.679ZM322 178.536L322 177L320 177L320 178.536L322 178.536Z"
        fill="#1C2755" />
    <rect x="69" y="244" width="48" height="26" rx="12" fill="#1C2755" />
    <path
        d="M86.5 255.586C86.4453 255.396 86.3685 255.228 86.2695 255.082C86.1706 254.934 86.0495 254.809 85.9063 254.707C85.7656 254.603 85.6042 254.523 85.4219 254.469C85.2422 254.414 85.043 254.387 84.8242 254.387C84.4154 254.387 84.056 254.488 83.7461 254.691C83.4388 254.895 83.1992 255.19 83.0273 255.578C82.8555 255.964 82.7695 256.435 82.7695 256.992C82.7695 257.549 82.8542 258.023 83.0234 258.414C83.1927 258.805 83.4323 259.103 83.7422 259.309C84.0521 259.512 84.418 259.613 84.8398 259.613C85.2227 259.613 85.5495 259.546 85.8203 259.41C86.0938 259.272 86.3021 259.078 86.4453 258.828C86.5911 258.578 86.6641 258.283 86.6641 257.941L87.0078 257.992H84.9453V256.719H88.293V257.727C88.293 258.43 88.1445 259.034 87.8477 259.539C87.5508 260.042 87.1419 260.43 86.6211 260.703C86.1003 260.974 85.5039 261.109 84.832 261.109C84.082 261.109 83.4232 260.944 82.8555 260.613C82.2878 260.28 81.8451 259.807 81.5273 259.195C81.2122 258.581 81.0547 257.852 81.0547 257.008C81.0547 256.359 81.1484 255.781 81.3359 255.273C81.526 254.763 81.7917 254.331 82.1328 253.977C82.474 253.622 82.8711 253.353 83.3242 253.168C83.7773 252.983 84.2682 252.891 84.7969 252.891C85.25 252.891 85.6719 252.957 86.0625 253.09C86.4531 253.22 86.7995 253.405 87.1016 253.645C87.4063 253.884 87.6549 254.169 87.8477 254.5C88.0404 254.828 88.1641 255.19 88.2188 255.586H86.5ZM92.0249 253V261H90.3335V253H92.0249ZM93.8818 254.395V253H100.452V254.395H98.0029V261H96.331V254.395H93.8818ZM104.261 253L104.109 258.602H102.679L102.523 253H104.261ZM103.394 261.102C103.136 261.102 102.915 261.01 102.73 260.828C102.545 260.643 102.454 260.422 102.456 260.164C102.454 259.909 102.545 259.69 102.73 259.508C102.915 259.326 103.136 259.234 103.394 259.234C103.641 259.234 103.859 259.326 104.046 259.508C104.234 259.69 104.329 259.909 104.331 260.164C104.329 260.336 104.283 260.493 104.195 260.637C104.109 260.777 103.996 260.891 103.855 260.977C103.714 261.06 103.561 261.102 103.394 261.102Z"
        fill="#7F9EF3" />
    <path
        d="M26.97 186.561C28.9369 184.369 28.7539 180.997 26.5613 179.03C24.3688 177.063 20.9968 177.246 19.03 179.439C17.0631 181.631 17.246 185.003 19.4386 186.97C21.6312 188.937 25.0031 188.754 26.97 186.561ZM91.6678 243.256L90.5344 242.239L89.1989 243.728L90.3322 244.744L91.6678 243.256ZM88.2678 240.206L86.0011 238.172L84.6656 239.661L86.9322 241.694L88.2678 240.206ZM83.7344 236.139L81.4678 234.106L80.1322 235.594L82.3989 237.628L83.7344 236.139ZM79.2011 232.072L76.9344 230.039L75.5989 231.528L77.8656 233.561L79.2011 232.072ZM74.6678 228.006L72.4011 225.972L71.0656 227.461L73.3322 229.494L74.6678 228.006ZM70.1344 223.939L67.8678 221.906L66.5322 223.394L68.7989 225.428L70.1344 223.939ZM65.6011 219.872L63.3344 217.839L61.9989 219.328L64.2656 221.361L65.6011 219.872ZM61.0677 215.806L58.8011 213.772L57.4656 215.261L59.7322 217.294L61.0677 215.806ZM56.5344 211.739L54.2677 209.706L52.9322 211.194L55.1989 213.228L56.5344 211.739ZM52.0011 207.672L49.7344 205.639L48.3989 207.128L50.6656 209.161L52.0011 207.672ZM47.4677 203.606L45.2011 201.572L43.8656 203.061L46.1322 205.094L47.4677 203.606ZM42.9344 199.539L40.6678 197.506L39.3322 198.994L41.5989 201.028L42.9344 199.539ZM38.4011 195.472L36.1344 193.439L34.7989 194.928L37.0656 196.961L38.4011 195.472ZM33.8678 191.406L31.6011 189.372L30.2656 190.861L32.5322 192.894L33.8678 191.406ZM29.3344 187.339L27.0678 185.306L25.7323 186.794L27.9989 188.828L29.3344 187.339ZM24.8011 183.272L23.6677 182.256L22.3322 183.744L23.4656 184.761L24.8011 183.272Z"
        fill="#1C2755" />
</svg>