<svg width="577" height="333" viewBox="0 0 577 333" fill="none" xmlns="http://www.w3.org/2000/svg">
<circle cx="505.5" cy="116.5" r="71.5" fill="#121212"/>
<path d="M153.419 6.54545H155.884L158.488 12.8977H158.599L161.202 6.54545H163.667V16H161.729V9.84624H161.65L159.203 15.9538H157.883L155.436 9.82315H155.358V16H153.419V6.54545ZM168.481 16.1385C167.764 16.1385 167.144 15.9862 166.621 15.6815C166.101 15.3737 165.699 14.9459 165.416 14.3981C165.133 13.8472 164.991 13.2086 164.991 12.4822C164.991 11.7498 165.133 11.1096 165.416 10.5618C165.699 10.0109 166.101 9.5831 166.621 9.27841C167.144 8.97064 167.764 8.81676 168.481 8.81676C169.198 8.81676 169.817 8.97064 170.337 9.27841C170.86 9.5831 171.264 10.0109 171.547 10.5618C171.83 11.1096 171.971 11.7498 171.971 12.4822C171.971 13.2086 171.83 13.8472 171.547 14.3981C171.264 14.9459 170.86 15.3737 170.337 15.6815C169.817 15.9862 169.198 16.1385 168.481 16.1385ZM168.491 14.6151C168.817 14.6151 169.089 14.5227 169.308 14.3381C169.526 14.1503 169.691 13.8949 169.802 13.5717C169.915 13.2486 169.972 12.8808 169.972 12.4684C169.972 12.056 169.915 11.6882 169.802 11.3651C169.691 11.0419 169.526 10.7865 169.308 10.5987C169.089 10.411 168.817 10.3171 168.491 10.3171C168.161 10.3171 167.884 10.411 167.66 10.5987C167.438 10.7865 167.27 11.0419 167.156 11.3651C167.046 11.6882 166.99 12.056 166.99 12.4684C166.99 12.8808 167.046 13.2486 167.156 13.5717C167.27 13.8949 167.438 14.1503 167.66 14.3381C167.884 14.5227 168.161 14.6151 168.491 14.6151ZM175.217 11.9006V16H173.25V8.90909H175.124V10.1602H175.208C175.364 9.74775 175.628 9.42152 175.997 9.18146C176.366 8.93833 176.814 8.81676 177.34 8.81676C177.833 8.81676 178.262 8.92448 178.628 9.13991C178.995 9.35535 179.279 9.66312 179.482 10.0632C179.686 10.4602 179.787 10.9342 179.787 11.4851V16H177.82V11.8359C177.824 11.402 177.713 11.0634 177.488 10.8203C177.263 10.5741 176.954 10.451 176.56 10.451C176.295 10.451 176.062 10.5079 175.858 10.6218C175.658 10.7357 175.501 10.9019 175.388 11.1204C175.277 11.3358 175.22 11.5959 175.217 11.9006ZM184.541 16.1385C183.824 16.1385 183.204 15.9862 182.68 15.6815C182.16 15.3737 181.759 14.9459 181.476 14.3981C181.192 13.8472 181.051 13.2086 181.051 12.4822C181.051 11.7498 181.192 11.1096 181.476 10.5618C181.759 10.0109 182.16 9.5831 182.68 9.27841C183.204 8.97064 183.824 8.81676 184.541 8.81676C185.258 8.81676 185.877 8.97064 186.397 9.27841C186.92 9.5831 187.323 10.0109 187.606 10.5618C187.889 11.1096 188.031 11.7498 188.031 12.4822C188.031 13.2086 187.889 13.8472 187.606 14.3981C187.323 14.9459 186.92 15.3737 186.397 15.6815C185.877 15.9862 185.258 16.1385 184.541 16.1385ZM184.55 14.6151C184.876 14.6151 185.149 14.5227 185.367 14.3381C185.586 14.1503 185.75 13.8949 185.861 13.5717C185.975 13.2486 186.032 12.8808 186.032 12.4684C186.032 12.056 185.975 11.6882 185.861 11.3651C185.75 11.0419 185.586 10.7865 185.367 10.5987C185.149 10.411 184.876 10.3171 184.55 10.3171C184.221 10.3171 183.944 10.411 183.719 10.5987C183.498 10.7865 183.33 11.0419 183.216 11.3651C183.105 11.6882 183.05 12.056 183.05 12.4684C183.05 12.8808 183.105 13.2486 183.216 13.5717C183.33 13.8949 183.498 14.1503 183.719 14.3381C183.944 14.5227 184.221 14.6151 184.55 14.6151ZM191.092 13.9595L191.096 11.6005H191.383L193.654 8.90909H195.911L192.86 12.473H192.394L191.092 13.9595ZM189.31 16V6.54545H191.276V16H189.31ZM193.742 16L191.655 12.9116L192.966 11.522L196.045 16H193.742ZM198.843 6.54545V16H196.876V6.54545H198.843ZM203.65 16.1385C202.92 16.1385 202.292 15.9908 201.766 15.6953C201.243 15.3968 200.84 14.9751 200.557 14.4304C200.273 13.8826 200.132 13.2347 200.132 12.4869C200.132 11.7575 200.273 11.1173 200.557 10.5664C200.84 10.0155 201.238 9.58617 201.752 9.27841C202.269 8.97064 202.876 8.81676 203.571 8.81676C204.039 8.81676 204.474 8.89216 204.878 9.04297C205.284 9.1907 205.638 9.41383 205.939 9.71236C206.244 10.0109 206.481 10.3864 206.65 10.8388C206.82 11.2881 206.904 11.8144 206.904 12.4176V12.9577H200.917V11.739H205.053C205.053 11.4558 204.991 11.205 204.868 10.9865C204.745 10.768 204.574 10.5972 204.356 10.4741C204.141 10.3479 203.89 10.2848 203.603 10.2848C203.305 10.2848 203.04 10.354 202.809 10.4925C202.582 10.628 202.403 10.8111 202.274 11.0419C202.145 11.2696 202.078 11.5236 202.075 11.8036V12.9624C202.075 13.3132 202.14 13.6164 202.269 13.8718C202.402 14.1272 202.588 14.3242 202.828 14.4627C203.068 14.6012 203.353 14.6705 203.682 14.6705C203.9 14.6705 204.101 14.6397 204.282 14.5781C204.464 14.5166 204.619 14.4242 204.748 14.3011C204.878 14.178 204.976 14.0272 205.044 13.8487L206.863 13.9688C206.77 14.4058 206.581 14.7874 206.295 15.1136C206.012 15.4368 205.645 15.6892 205.196 15.8707C204.75 16.0492 204.234 16.1385 203.65 16.1385Z" fill="#5A5A5A"/>
<path d="M456.341 6.85547H454.319C454.282 6.59387 454.207 6.36151 454.093 6.15838C453.979 5.95218 453.833 5.77675 453.655 5.6321C453.476 5.48745 453.27 5.37666 453.036 5.29972C452.805 5.22277 452.554 5.1843 452.284 5.1843C451.794 5.1843 451.368 5.30587 451.005 5.54901C450.642 5.78906 450.36 6.13991 450.16 6.60156C449.96 7.06013 449.86 7.61719 449.86 8.27273C449.86 8.94673 449.96 9.51302 450.16 9.97159C450.363 10.4302 450.646 10.7764 451.009 11.0103C451.373 11.2442 451.793 11.3612 452.27 11.3612C452.537 11.3612 452.785 11.3258 453.013 11.255C453.244 11.1842 453.448 11.0811 453.627 10.9457C453.805 10.8072 453.953 10.6394 454.07 10.4425C454.19 10.2455 454.273 10.0208 454.319 9.76847L456.341 9.7777C456.289 10.2116 456.158 10.6302 455.949 11.0334C455.743 11.4335 455.464 11.792 455.113 12.109C454.766 12.4229 454.35 12.6722 453.867 12.8569C453.387 13.0385 452.844 13.1293 452.237 13.1293C451.394 13.1293 450.64 12.9384 449.975 12.5568C449.314 12.1752 448.79 11.6228 448.406 10.8995C448.024 10.1763 447.833 9.30066 447.833 8.27273C447.833 7.24171 448.027 6.36458 448.415 5.64134C448.803 4.91809 449.329 4.36719 449.994 3.98864C450.659 3.60701 451.406 3.41619 452.237 3.41619C452.785 3.41619 453.293 3.49313 453.761 3.64702C454.232 3.8009 454.649 4.02557 455.012 4.32102C455.375 4.6134 455.671 4.97195 455.898 5.39666C456.129 5.82138 456.277 6.30765 456.341 6.85547ZM459.705 8.90057V13H457.738V3.54545H459.649V7.16016H459.732C459.892 6.7416 460.151 6.41383 460.508 6.17685C460.865 5.93679 461.313 5.81676 461.851 5.81676C462.344 5.81676 462.773 5.92448 463.139 6.13991C463.509 6.35227 463.795 6.6585 463.998 7.05859C464.204 7.45561 464.306 7.93111 464.303 8.48508V13H462.336V8.83594C462.339 8.39891 462.228 8.05883 462.004 7.8157C461.782 7.57256 461.471 7.45099 461.071 7.45099C460.803 7.45099 460.566 7.50793 460.36 7.6218C460.157 7.73568 459.997 7.90187 459.88 8.12038C459.766 8.33582 459.708 8.59588 459.705 8.90057ZM465.85 13V5.90909H467.757V7.14631H467.831C467.96 6.7062 468.177 6.37382 468.482 6.14915C468.786 5.9214 469.137 5.80753 469.534 5.80753C469.633 5.80753 469.739 5.81368 469.853 5.82599C469.967 5.8383 470.067 5.85523 470.153 5.87678V7.6218C470.06 7.5941 469.933 7.56948 469.77 7.54794C469.607 7.5264 469.457 7.51562 469.322 7.51562C469.033 7.51562 468.774 7.57872 468.546 7.7049C468.322 7.82801 468.143 8.00035 468.011 8.22195C467.881 8.44354 467.817 8.69898 467.817 8.98828V13H465.85ZM474.043 13.1385C473.326 13.1385 472.706 12.9862 472.183 12.6815C471.663 12.3737 471.261 11.9459 470.978 11.3981C470.695 10.8472 470.553 10.2086 470.553 9.48224C470.553 8.74976 470.695 8.10961 470.978 7.56179C471.261 7.01089 471.663 6.5831 472.183 6.27841C472.706 5.97064 473.326 5.81676 474.043 5.81676C474.76 5.81676 475.379 5.97064 475.899 6.27841C476.422 6.5831 476.826 7.01089 477.109 7.56179C477.392 8.10961 477.533 8.74976 477.533 9.48224C477.533 10.2086 477.392 10.8472 477.109 11.3981C476.826 11.9459 476.422 12.3737 475.899 12.6815C475.379 12.9862 474.76 13.1385 474.043 13.1385ZM474.053 11.6151C474.379 11.6151 474.651 11.5227 474.87 11.3381C475.088 11.1503 475.253 10.8949 475.364 10.5717C475.478 10.2486 475.534 9.8808 475.534 9.46839C475.534 9.05599 475.478 8.68821 475.364 8.36506C475.253 8.0419 475.088 7.78646 474.87 7.59872C474.651 7.41098 474.379 7.31712 474.053 7.31712C473.723 7.31712 473.446 7.41098 473.222 7.59872C473 7.78646 472.832 8.0419 472.718 8.36506C472.608 8.68821 472.552 9.05599 472.552 9.46839C472.552 9.8808 472.608 10.2486 472.718 10.5717C472.832 10.8949 473 11.1503 473.222 11.3381C473.446 11.5227 473.723 11.6151 474.053 11.6151ZM478.812 13V5.90909H480.686V7.16016H480.77C480.917 6.74467 481.163 6.4169 481.508 6.17685C481.853 5.93679 482.265 5.81676 482.745 5.81676C483.232 5.81676 483.646 5.93833 483.987 6.18146C484.329 6.42152 484.557 6.74775 484.67 7.16016H484.744C484.889 6.75391 485.151 6.42921 485.529 6.18608C485.911 5.93987 486.362 5.81676 486.882 5.81676C487.543 5.81676 488.08 6.02758 488.493 6.44922C488.908 6.86778 489.116 7.46177 489.116 8.23118V13H487.154V8.61896C487.154 8.22502 487.049 7.92957 486.84 7.7326C486.631 7.53563 486.369 7.43714 486.055 7.43714C485.698 7.43714 485.42 7.55102 485.22 7.77876C485.02 8.00343 484.92 8.30043 484.92 8.66974V13H483.013V8.57741C483.013 8.22964 482.913 7.95265 482.713 7.74645C482.516 7.54025 482.256 7.43714 481.933 7.43714C481.714 7.43714 481.517 7.49254 481.342 7.60334C481.17 7.71106 481.033 7.8634 480.931 8.06037C480.83 8.25426 480.779 8.48201 480.779 8.74361V13H478.812ZM493.901 13.1385C493.172 13.1385 492.544 12.9908 492.018 12.6953C491.494 12.3968 491.091 11.9751 490.808 11.4304C490.525 10.8826 490.383 10.2347 490.383 9.48686C490.383 8.75746 490.525 8.11731 490.808 7.56641C491.091 7.01551 491.49 6.58617 492.004 6.27841C492.521 5.97064 493.127 5.81676 493.823 5.81676C494.29 5.81676 494.726 5.89216 495.129 6.04297C495.535 6.1907 495.889 6.41383 496.191 6.71236C496.496 7.01089 496.733 7.38636 496.902 7.83878C497.071 8.28812 497.156 8.81439 497.156 9.41761V9.95774H491.168V8.73899H495.305C495.305 8.45585 495.243 8.20502 495.12 7.98651C494.997 7.76799 494.826 7.59718 494.607 7.47408C494.392 7.34789 494.141 7.2848 493.855 7.2848C493.556 7.2848 493.292 7.35405 493.061 7.49254C492.833 7.62796 492.655 7.81108 492.525 8.0419C492.396 8.26965 492.33 8.52356 492.327 8.80362V9.96236C492.327 10.3132 492.392 10.6164 492.521 10.8718C492.653 11.1272 492.839 11.3242 493.079 11.4627C493.319 11.6012 493.604 11.6705 493.933 11.6705C494.152 11.6705 494.352 11.6397 494.534 11.5781C494.715 11.5166 494.871 11.4242 495 11.3011C495.129 11.178 495.228 11.0272 495.295 10.8487L497.114 10.9688C497.022 11.4058 496.833 11.7874 496.546 12.1136C496.263 12.4368 495.897 12.6892 495.448 12.8707C495.001 13.0492 494.486 13.1385 493.901 13.1385ZM501.485 13V3.54545H507.856V5.19354H503.484V7.44638H507.528V9.09446H503.484V11.3519H507.874V13H501.485ZM511.051 5.90909L512.353 8.38814L513.687 5.90909H515.705L513.65 9.45455L515.76 13H513.752L512.353 10.5487L510.977 13H508.946L511.051 9.45455L509.02 5.90909H511.051ZM520.644 5.90909V7.38636H516.374V5.90909H520.644ZM517.344 4.21023H519.31V10.821C519.31 11.0026 519.338 11.1442 519.393 11.2457C519.449 11.3442 519.526 11.4135 519.624 11.4535C519.726 11.4935 519.843 11.5135 519.975 11.5135C520.067 11.5135 520.16 11.5058 520.252 11.4904C520.344 11.4719 520.415 11.4581 520.464 11.4489L520.774 12.9123C520.675 12.9431 520.537 12.9785 520.358 13.0185C520.18 13.0616 519.963 13.0877 519.707 13.0969C519.233 13.1154 518.818 13.0523 518.461 12.9077C518.107 12.763 517.831 12.5384 517.634 12.2337C517.437 11.929 517.34 11.5443 517.344 11.0795V4.21023ZM525.081 13.1385C524.351 13.1385 523.724 12.9908 523.197 12.6953C522.674 12.3968 522.271 11.9751 521.988 11.4304C521.705 10.8826 521.563 10.2347 521.563 9.48686C521.563 8.75746 521.705 8.11731 521.988 7.56641C522.271 7.01551 522.669 6.58617 523.183 6.27841C523.7 5.97064 524.307 5.81676 525.002 5.81676C525.47 5.81676 525.906 5.89216 526.309 6.04297C526.715 6.1907 527.069 6.41383 527.371 6.71236C527.675 7.01089 527.912 7.38636 528.081 7.83878C528.251 8.28812 528.335 8.81439 528.335 9.41761V9.95774H522.348V8.73899H526.484C526.484 8.45585 526.423 8.20502 526.3 7.98651C526.176 7.76799 526.006 7.59718 525.787 7.47408C525.572 7.34789 525.321 7.2848 525.035 7.2848C524.736 7.2848 524.471 7.35405 524.241 7.49254C524.013 7.62796 523.834 7.81108 523.705 8.0419C523.576 8.26965 523.51 8.52356 523.507 8.80362V9.96236C523.507 10.3132 523.571 10.6164 523.7 10.8718C523.833 11.1272 524.019 11.3242 524.259 11.4627C524.499 11.6012 524.784 11.6705 525.113 11.6705C525.332 11.6705 525.532 11.6397 525.713 11.5781C525.895 11.5166 526.05 11.4242 526.18 11.3011C526.309 11.178 526.407 11.0272 526.475 10.8487L528.294 10.9688C528.202 11.4058 528.012 11.7874 527.726 12.1136C527.443 12.4368 527.077 12.6892 526.627 12.8707C526.181 13.0492 525.666 13.1385 525.081 13.1385ZM531.585 8.90057V13H529.619V5.90909H531.493V7.16016H531.576C531.733 6.74775 531.996 6.42152 532.366 6.18146C532.735 5.93833 533.183 5.81676 533.709 5.81676C534.201 5.81676 534.631 5.92448 534.997 6.13991C535.363 6.35535 535.648 6.66312 535.851 7.06321C536.054 7.46023 536.156 7.93419 536.156 8.48508V13H534.189V8.83594C534.192 8.40199 534.081 8.06345 533.857 7.82031C533.632 7.5741 533.323 7.45099 532.929 7.45099C532.664 7.45099 532.43 7.50793 532.227 7.6218C532.027 7.73568 531.87 7.90187 531.756 8.12038C531.645 8.33582 531.588 8.59588 531.585 8.90057ZM543.606 7.93111L541.805 8.0419C541.774 7.88802 541.708 7.74953 541.607 7.62642C541.505 7.50024 541.371 7.40021 541.205 7.32635C541.042 7.24941 540.846 7.21094 540.619 7.21094C540.314 7.21094 540.057 7.27557 539.848 7.40483C539.638 7.53101 539.534 7.70028 539.534 7.91264C539.534 8.08191 539.602 8.22502 539.737 8.34197C539.872 8.45893 540.105 8.55279 540.434 8.62358L541.717 8.8821C542.407 9.02367 542.921 9.25142 543.259 9.56534C543.598 9.87926 543.767 10.2917 543.767 10.8026C543.767 11.2673 543.63 11.6751 543.356 12.0259C543.085 12.3768 542.713 12.6507 542.239 12.8477C541.768 13.0415 541.225 13.1385 540.609 13.1385C539.671 13.1385 538.923 12.9431 538.366 12.5522C537.812 12.1583 537.487 11.6228 537.392 10.9457L539.326 10.8441C539.385 11.1303 539.526 11.3488 539.751 11.4996C539.975 11.6474 540.263 11.7212 540.614 11.7212C540.959 11.7212 541.236 11.6551 541.445 11.5227C541.657 11.3873 541.765 11.2134 541.768 11.0011C541.765 10.8226 541.69 10.6764 541.542 10.5625C541.394 10.4455 541.167 10.3563 540.859 10.2947L539.631 10.0501C538.938 9.91158 538.423 9.67152 538.084 9.3299C537.749 8.98828 537.581 8.55279 537.581 8.02344C537.581 7.56794 537.704 7.17554 537.95 6.84624C538.2 6.51693 538.549 6.26302 538.998 6.08452C539.451 5.90601 539.98 5.81676 540.586 5.81676C541.482 5.81676 542.187 6.00604 542.701 6.38459C543.218 6.76314 543.519 7.27865 543.606 7.93111ZM545.006 13V5.90909H546.972V13H545.006ZM545.993 4.99503C545.701 4.99503 545.45 4.89808 545.241 4.70419C545.035 4.50722 544.932 4.27178 544.932 3.99787C544.932 3.72704 545.035 3.49467 545.241 3.30078C545.45 3.10381 545.701 3.00533 545.993 3.00533C546.286 3.00533 546.535 3.10381 546.741 3.30078C546.951 3.49467 547.055 3.72704 547.055 3.99787C547.055 4.27178 546.951 4.50722 546.741 4.70419C546.535 4.89808 546.286 4.99503 545.993 4.99503ZM551.751 13.1385C551.034 13.1385 550.414 12.9862 549.891 12.6815C549.371 12.3737 548.969 11.9459 548.686 11.3981C548.403 10.8472 548.261 10.2086 548.261 9.48224C548.261 8.74976 548.403 8.10961 548.686 7.56179C548.969 7.01089 549.371 6.5831 549.891 6.27841C550.414 5.97064 551.034 5.81676 551.751 5.81676C552.468 5.81676 553.087 5.97064 553.607 6.27841C554.13 6.5831 554.534 7.01089 554.817 7.56179C555.1 8.10961 555.241 8.74976 555.241 9.48224C555.241 10.2086 555.1 10.8472 554.817 11.3981C554.534 11.9459 554.13 12.3737 553.607 12.6815C553.087 12.9862 552.468 13.1385 551.751 13.1385ZM551.761 11.6151C552.087 11.6151 552.359 11.5227 552.578 11.3381C552.796 11.1503 552.961 10.8949 553.072 10.5717C553.186 10.2486 553.242 9.8808 553.242 9.46839C553.242 9.05599 553.186 8.68821 553.072 8.36506C552.961 8.0419 552.796 7.78646 552.578 7.59872C552.359 7.41098 552.087 7.31712 551.761 7.31712C551.431 7.31712 551.154 7.41098 550.93 7.59872C550.708 7.78646 550.54 8.0419 550.426 8.36506C550.316 8.68821 550.26 9.05599 550.26 9.46839C550.26 9.8808 550.316 10.2486 550.426 10.5717C550.54 10.8949 550.708 11.1503 550.93 11.3381C551.154 11.5227 551.431 11.6151 551.761 11.6151ZM558.487 8.90057V13H556.52V5.90909H558.394V7.16016H558.478C558.634 6.74775 558.898 6.42152 559.267 6.18146C559.636 5.93833 560.084 5.81676 560.61 5.81676C561.103 5.81676 561.532 5.92448 561.898 6.13991C562.265 6.35535 562.549 6.66312 562.752 7.06321C562.956 7.46023 563.057 7.93419 563.057 8.48508V13H561.09V8.83594C561.094 8.40199 560.983 8.06345 560.758 7.82031C560.533 7.5741 560.224 7.45099 559.83 7.45099C559.565 7.45099 559.332 7.50793 559.128 7.6218C558.928 7.73568 558.771 7.90187 558.658 8.12038C558.547 8.33582 558.49 8.59588 558.487 8.90057ZM477.001 21.9091V23.3864H472.625V21.9091H477.001ZM473.627 29V21.3967C473.627 20.8827 473.727 20.4564 473.927 20.1179C474.13 19.7794 474.407 19.5254 474.758 19.3562C475.109 19.1869 475.507 19.1023 475.953 19.1023C476.255 19.1023 476.53 19.1254 476.78 19.1715C477.032 19.2177 477.22 19.2592 477.343 19.2962L476.992 20.7734C476.915 20.7488 476.82 20.7257 476.706 20.7042C476.595 20.6826 476.481 20.6719 476.364 20.6719C476.075 20.6719 475.873 20.7396 475.759 20.875C475.646 21.0073 475.589 21.1935 475.589 21.4336V29H473.627ZM481.153 29.1385C480.436 29.1385 479.815 28.9862 479.292 28.6815C478.772 28.3737 478.371 27.9459 478.087 27.3981C477.804 26.8472 477.663 26.2086 477.663 25.4822C477.663 24.7498 477.804 24.1096 478.087 23.5618C478.371 23.0109 478.772 22.5831 479.292 22.2784C479.815 21.9706 480.436 21.8168 481.153 21.8168C481.87 21.8168 482.488 21.9706 483.009 22.2784C483.532 22.5831 483.935 23.0109 484.218 23.5618C484.501 24.1096 484.643 24.7498 484.643 25.4822C484.643 26.2086 484.501 26.8472 484.218 27.3981C483.935 27.9459 483.532 28.3737 483.009 28.6815C482.488 28.9862 481.87 29.1385 481.153 29.1385ZM481.162 27.6151C481.488 27.6151 481.761 27.5227 481.979 27.3381C482.198 27.1503 482.362 26.8949 482.473 26.5717C482.587 26.2486 482.644 25.8808 482.644 25.4684C482.644 25.056 482.587 24.6882 482.473 24.3651C482.362 24.0419 482.198 23.7865 481.979 23.5987C481.761 23.411 481.488 23.3171 481.162 23.3171C480.833 23.3171 480.556 23.411 480.331 23.5987C480.109 23.7865 479.942 24.0419 479.828 24.3651C479.717 24.6882 479.662 25.056 479.662 25.4684C479.662 25.8808 479.717 26.2486 479.828 26.5717C479.942 26.8949 480.109 27.1503 480.331 27.3381C480.556 27.5227 480.833 27.6151 481.162 27.6151ZM485.922 29V21.9091H487.828V23.1463H487.902C488.031 22.7062 488.248 22.3738 488.553 22.1491C488.858 21.9214 489.208 21.8075 489.605 21.8075C489.704 21.8075 489.81 21.8137 489.924 21.826C490.038 21.8383 490.138 21.8552 490.224 21.8768V23.6218C490.132 23.5941 490.004 23.5695 489.841 23.5479C489.678 23.5264 489.529 23.5156 489.393 23.5156C489.104 23.5156 488.845 23.5787 488.618 23.7049C488.393 23.828 488.214 24.0004 488.082 24.2219C487.953 24.4435 487.888 24.699 487.888 24.9883V29H485.922ZM500.556 22.6016C500.491 22.3769 500.4 22.1784 500.283 22.006C500.166 21.8306 500.023 21.6829 499.854 21.5629C499.688 21.4397 499.497 21.3459 499.282 21.2812C499.069 21.2166 498.834 21.1843 498.575 21.1843C498.092 21.1843 497.667 21.3043 497.301 21.5444C496.938 21.7844 496.655 22.1338 496.452 22.5923C496.249 23.0478 496.147 23.6049 496.147 24.2635C496.147 24.9221 496.247 25.4822 496.447 25.9439C496.647 26.4055 496.93 26.7579 497.297 27.0011C497.663 27.2411 498.095 27.3612 498.594 27.3612C499.046 27.3612 499.432 27.2811 499.752 27.1211C500.076 26.958 500.322 26.7287 500.491 26.4332C500.663 26.1378 500.75 25.7885 500.75 25.3853L501.156 25.4453H498.718V23.9403H502.675V25.1314C502.675 25.9624 502.499 26.6764 502.148 27.2734C501.798 27.8674 501.314 28.326 500.699 28.6491C500.083 28.9692 499.379 29.1293 498.585 29.1293C497.698 29.1293 496.92 28.9338 496.249 28.543C495.578 28.149 495.054 27.5904 494.679 26.8672C494.307 26.1409 494.12 25.2791 494.12 24.282C494.12 23.5156 494.231 22.8324 494.453 22.2322C494.677 21.629 494.991 21.1181 495.395 20.6996C495.798 20.281 496.267 19.9625 496.803 19.744C497.338 19.5254 497.918 19.4162 498.543 19.4162C499.078 19.4162 499.577 19.4947 500.039 19.6516C500.5 19.8055 500.91 20.024 501.267 20.3072C501.627 20.5903 501.921 20.9273 502.148 21.3182C502.376 21.706 502.522 22.1338 502.587 22.6016H500.556ZM504.584 29V21.9091H506.55V29H504.584ZM505.572 20.995C505.279 20.995 505.028 20.8981 504.819 20.7042C504.613 20.5072 504.51 20.2718 504.51 19.9979C504.51 19.727 504.613 19.4947 504.819 19.3008C505.028 19.1038 505.279 19.0053 505.572 19.0053C505.864 19.0053 506.113 19.1038 506.319 19.3008C506.529 19.4947 506.633 19.727 506.633 19.9979C506.633 20.2718 506.529 20.5072 506.319 20.7042C506.113 20.8981 505.864 20.995 505.572 20.995ZM511.897 21.9091V23.3864H507.627V21.9091H511.897ZM508.597 20.2102H510.563V26.821C510.563 27.0026 510.591 27.1442 510.646 27.2457C510.702 27.3442 510.779 27.4135 510.877 27.4535C510.979 27.4935 511.096 27.5135 511.228 27.5135C511.32 27.5135 511.413 27.5058 511.505 27.4904C511.597 27.4719 511.668 27.4581 511.717 27.4489L512.027 28.9123C511.928 28.9431 511.79 28.9785 511.611 29.0185C511.433 29.0616 511.216 29.0877 510.96 29.0969C510.486 29.1154 510.071 29.0523 509.714 28.9077C509.36 28.763 509.084 28.5384 508.887 28.2337C508.69 27.929 508.593 27.5443 508.597 27.0795V20.2102ZM513.368 29V19.5455H515.367V23.4464H519.424V19.5455H521.419V29H519.424V25.0945H515.367V29H513.368ZM527.577 25.9808V21.9091H529.544V29H527.656V27.712H527.582C527.422 28.1275 527.156 28.4614 526.783 28.7138C526.414 28.9661 525.963 29.0923 525.43 29.0923C524.957 29.0923 524.54 28.9846 524.179 28.7692C523.819 28.5537 523.538 28.2475 523.335 27.8505C523.135 27.4535 523.033 26.978 523.03 26.424V21.9091H524.997V26.0732C525 26.4917 525.112 26.8226 525.334 27.0657C525.555 27.3088 525.852 27.4304 526.225 27.4304C526.461 27.4304 526.683 27.3765 526.889 27.2688C527.095 27.158 527.262 26.9949 527.388 26.7795C527.517 26.564 527.58 26.2978 527.577 25.9808ZM531.154 29V19.5455H533.12V23.1001H533.18C533.267 22.9093 533.391 22.7154 533.554 22.5185C533.721 22.3184 533.936 22.1522 534.201 22.0199C534.468 21.8845 534.801 21.8168 535.198 21.8168C535.715 21.8168 536.192 21.9522 536.629 22.223C537.066 22.4908 537.415 22.8955 537.677 23.4371C537.938 23.9757 538.069 24.6513 538.069 25.4638C538.069 26.2547 537.942 26.9226 537.686 27.4673C537.434 28.009 537.089 28.4199 536.652 28.6999C536.218 28.9769 535.732 29.1154 535.193 29.1154C534.812 29.1154 534.487 29.0523 534.219 28.9261C533.954 28.8 533.737 28.6415 533.568 28.4506C533.399 28.2567 533.27 28.0613 533.18 27.8643H533.093V29H531.154ZM533.079 25.4545C533.079 25.8762 533.137 26.244 533.254 26.5579C533.371 26.8718 533.54 27.1165 533.762 27.2919C533.984 27.4643 534.253 27.5504 534.57 27.5504C534.89 27.5504 535.161 27.4627 535.382 27.2873C535.604 27.1088 535.772 26.8626 535.886 26.5487C536.003 26.2317 536.061 25.867 536.061 25.4545C536.061 25.0452 536.004 24.6851 535.89 24.3743C535.776 24.0634 535.609 23.8203 535.387 23.6449C535.165 23.4695 534.893 23.3817 534.57 23.3817C534.25 23.3817 533.979 23.4664 533.757 23.6357C533.539 23.8049 533.371 24.045 533.254 24.3558C533.137 24.6667 533.079 25.0329 533.079 25.4545Z" fill="#5A5A5A"/>
<path d="M348.663 332.307H11.3374C8.46441 332.304 5.70989 331.159 3.67815 329.125C1.64645 327.09 0.503406 324.331 0.5 321.453V46.3547C0.503411 43.4767 1.64645 40.7176 3.67815 38.6828C5.70982 36.6479 8.46423 35.5034 11.3371 35.5H348.663C351.536 35.5034 354.29 36.6479 356.322 38.6828C358.354 40.7177 359.497 43.4768 359.5 46.355V321.452C359.497 324.33 358.354 327.09 356.322 329.125C354.29 331.159 351.536 332.304 348.663 332.307Z" stroke="#434343"/>
<path d="M11.6105 46.6424C13.5641 44.6858 16.2127 43.5852 18.9752 43.5819L341.005 43.5819C341.005 43.5819 341.005 43.5819 341.006 43.5819C343.768 43.5852 346.417 44.6857 348.37 46.6424C350.324 48.5992 351.423 51.2524 351.426 54.02V222.508C351.396 249.477 340.685 275.333 321.644 294.404C302.604 313.474 276.788 324.201 249.861 324.231H18.9754C16.213 324.228 13.5644 323.128 11.6108 321.171C9.65716 319.215 8.55804 316.562 8.55469 313.794V54.0197C8.55787 51.2522 9.65693 48.5992 11.6105 46.6424Z" stroke="#434343"/>
<line x1="7.64062" y1="72.8622" x2="350.957" y2="72.8621" stroke="#434343"/>
<line x1="38.4531" y1="325.128" x2="38.4531" y2="73.3619" stroke="#434343"/>
<line x1="146.5" y1="325" x2="146.5" y2="73" stroke="#434343"/>
<rect x="14.1641" y="82.2947" width="18.2739" height="18.2739" rx="3.5" stroke="#434343"/>
<rect x="48.1641" y="82.56" width="85.2776" height="211.376" rx="1.5" stroke="#434343"/>
<rect x="157.664" y="82.56" width="178.192" height="145.008" rx="1.5" stroke="#434343"/>
<rect x="20.5" y="51.5" width="96" height="12" rx="1.5" stroke="#434343"/>
<rect x="123.5" y="51.5" width="53" height="12" rx="1.5" stroke="#434343"/>
<rect x="14.1641" y="107.591" width="18.2739" height="18.2739" rx="3.5" stroke="#434343"/>
<rect x="14.1641" y="132.888" width="18.2739" height="18.2739" rx="3.5" stroke="#434343"/>
<rect x="14.1641" y="158.5" width="18.2739" height="18.2739" rx="3.5" stroke="#434343"/>
<rect x="14.1641" y="183.797" width="18.2739" height="18.2739" rx="3.5" stroke="#434343"/>
<rect x="14.1641" y="209.094" width="18.2739" height="18.2739" rx="3.5" stroke="#434343"/>
<path d="M551.347 154.849H461.036C460.364 154.848 459.719 154.581 459.244 154.105C458.768 153.628 458.501 152.983 458.5 152.309V78.6579C458.501 77.9842 458.768 77.3385 459.244 76.8623C459.719 76.3862 460.364 76.1185 461.036 76.1176H551.347C552.019 76.1185 552.663 76.3862 553.139 76.8623C553.614 77.3385 553.882 77.9843 553.882 78.6581V152.309C553.882 152.983 553.614 153.628 553.139 154.105C552.663 154.581 552.019 154.848 551.347 154.849Z" stroke="#434343"/>
<path d="M461.367 78.9934C461.822 78.5382 462.438 78.2822 463.08 78.2814L549.296 78.2814C549.296 78.2814 549.296 78.2814 549.297 78.2814C549.939 78.2822 550.555 78.5382 551.009 78.9934C551.464 79.4486 551.72 80.0661 551.721 80.7103V125.818C551.712 132.942 548.883 139.772 543.854 144.809C538.825 149.846 532.006 152.679 524.894 152.687H463.08C462.438 152.686 461.822 152.43 461.367 151.975C460.913 151.52 460.657 150.903 460.656 150.259V80.71C460.657 80.0659 460.913 79.4486 461.367 78.9934Z" stroke="#434343"/>
<rect x="464.656" y="82.5431" width="83.0668" height="24.702" rx="1.5" stroke="#434343"/>
<path d="M478.208 86.8995C473.746 86.8977 470.133 90.5094 470.133 94.9671C470.133 98.4922 472.393 101.489 475.541 102.589C475.965 102.696 475.9 102.394 475.9 102.189V100.791C473.452 101.077 473.353 99.4573 473.189 99.1867C472.857 98.6203 472.072 98.476 472.307 98.2053C472.864 97.9185 473.432 98.2775 474.091 99.2499C474.567 99.9553 475.496 99.8362 475.967 99.7189C476.07 99.295 476.29 98.9161 476.593 98.6221C474.057 98.1675 472.999 96.6196 472.999 94.7795C472.999 93.8865 473.293 93.0657 473.871 92.4036C473.503 91.3121 473.905 90.3777 473.959 90.2387C475.007 90.1449 476.097 90.9892 476.182 91.056C476.777 90.8954 477.457 90.8106 478.218 90.8106C478.983 90.8106 479.665 90.899 480.266 91.0614C480.47 90.9062 481.48 90.181 482.454 90.2694C482.507 90.4083 482.9 91.3212 482.554 92.3982C483.138 93.0621 483.436 93.8901 483.436 94.7849C483.436 96.6286 482.371 98.1783 479.828 98.6257C480.046 98.84 480.219 99.0955 480.337 99.3774C480.455 99.6592 480.515 99.9618 480.515 100.267V102.297C480.529 102.459 480.515 102.62 480.786 102.62C483.981 101.543 486.281 98.5247 486.281 94.9689C486.281 90.5094 482.665 86.8995 478.208 86.8995Z" fill="#434343"/>
<path d="M546.887 76.4995C546.887 79.6025 549.397 82.113 552.5 82.113C555.603 82.113 558.113 79.6025 558.113 76.4995C558.113 73.3965 555.603 70.886 552.5 70.886C549.397 70.886 546.887 73.3924 546.887 76.4995ZM568.035 70.5096L558.654 70.9941C561.201 73.969 561.241 78.2612 559.098 81.5524L551.571 93.1317C554.694 93.2999 557.913 92.6152 560.828 90.9216C568.035 86.7575 570.958 78.025 568.035 70.5096ZM544.825 79.6986L538.558 67.3746C536.784 70.0867 535.84 73.2583 535.844 76.4995C535.844 84.8276 541.942 91.7263 549.913 92.9475L554.194 84.5633C550.326 85.2921 546.59 83.17 544.825 79.6986ZM553.573 68.2674L567.363 68.9922C565.953 66.1974 563.735 63.7671 560.82 62.0734C558.182 60.5479 555.283 59.8232 552.44 59.8432C547.535 59.8632 542.742 62.0534 539.543 66.0293L544.676 73.913C545.958 70.2334 549.673 68.0392 553.573 68.2674Z" fill="#5A5A5A"/>
<rect x="414" y="168" width="77" height="26" rx="12" fill="#1C2755"/>
<path d="M433 179.586C432.945 179.396 432.868 179.228 432.77 179.082C432.671 178.934 432.549 178.809 432.406 178.707C432.266 178.603 432.104 178.523 431.922 178.469C431.742 178.414 431.543 178.387 431.324 178.387C430.915 178.387 430.556 178.488 430.246 178.691C429.939 178.895 429.699 179.19 429.527 179.578C429.355 179.964 429.27 180.435 429.27 180.992C429.27 181.549 429.354 182.023 429.523 182.414C429.693 182.805 429.932 183.103 430.242 183.309C430.552 183.512 430.918 183.613 431.34 183.613C431.723 183.613 432.049 183.546 432.32 183.41C432.594 183.272 432.802 183.078 432.945 182.828C433.091 182.578 433.164 182.283 433.164 181.941L433.508 181.992H431.445V180.719H434.793V181.727C434.793 182.43 434.645 183.034 434.348 183.539C434.051 184.042 433.642 184.43 433.121 184.703C432.6 184.974 432.004 185.109 431.332 185.109C430.582 185.109 429.923 184.944 429.355 184.613C428.788 184.28 428.345 183.807 428.027 183.195C427.712 182.581 427.555 181.852 427.555 181.008C427.555 180.359 427.648 179.781 427.836 179.273C428.026 178.763 428.292 178.331 428.633 177.977C428.974 177.622 429.371 177.353 429.824 177.168C430.277 176.983 430.768 176.891 431.297 176.891C431.75 176.891 432.172 176.957 432.562 177.09C432.953 177.22 433.299 177.405 433.602 177.645C433.906 177.884 434.155 178.169 434.348 178.5C434.54 178.828 434.664 179.19 434.719 179.586H433ZM438.525 177V185H436.833V177H438.525ZM440.382 178.395V177H446.952V178.395H444.503V185H442.831V178.395H440.382ZM448.804 185V177H450.496V180.301H453.929V177H455.617V185H453.929V181.695H450.496V185H448.804ZM462.723 177H464.414V182.195C464.414 182.779 464.275 183.289 463.996 183.727C463.72 184.164 463.333 184.505 462.836 184.75C462.338 184.992 461.759 185.113 461.098 185.113C460.434 185.113 459.853 184.992 459.355 184.75C458.858 184.505 458.471 184.164 458.195 183.727C457.919 183.289 457.781 182.779 457.781 182.195V177H459.473V182.051C459.473 182.355 459.539 182.626 459.672 182.863C459.807 183.1 459.997 183.286 460.242 183.422C460.487 183.557 460.772 183.625 461.098 183.625C461.426 183.625 461.711 183.557 461.953 183.422C462.198 183.286 462.387 183.1 462.519 182.863C462.655 182.626 462.723 182.355 462.723 182.051V177ZM466.576 185V177H469.779C470.367 177 470.858 177.087 471.251 177.262C471.645 177.436 471.94 177.678 472.138 177.988C472.336 178.296 472.435 178.65 472.435 179.051C472.435 179.363 472.372 179.638 472.247 179.875C472.122 180.109 471.951 180.302 471.732 180.453C471.516 180.602 471.268 180.707 470.99 180.77V180.848C471.294 180.861 471.579 180.947 471.845 181.105C472.113 181.264 472.331 181.487 472.497 181.773C472.664 182.057 472.747 182.396 472.747 182.789C472.747 183.214 472.642 183.592 472.431 183.926C472.223 184.257 471.914 184.518 471.505 184.711C471.096 184.904 470.593 185 469.994 185H466.576ZM468.267 183.617H469.646C470.117 183.617 470.461 183.527 470.677 183.348C470.893 183.165 471.001 182.923 471.001 182.621C471.001 182.4 470.948 182.204 470.841 182.035C470.734 181.866 470.582 181.733 470.384 181.637C470.189 181.54 469.956 181.492 469.685 181.492H468.267V183.617ZM468.267 180.348H469.521C469.753 180.348 469.958 180.307 470.138 180.227C470.32 180.143 470.464 180.026 470.568 179.875C470.675 179.724 470.728 179.543 470.728 179.332C470.728 179.043 470.625 178.81 470.419 178.633C470.216 178.456 469.927 178.367 469.552 178.367H468.267V180.348ZM476.575 177L476.423 182.602H474.993L474.837 177H476.575ZM475.708 185.102C475.45 185.102 475.229 185.01 475.044 184.828C474.859 184.643 474.768 184.422 474.77 184.164C474.768 183.909 474.859 183.69 475.044 183.508C475.229 183.326 475.45 183.234 475.708 183.234C475.955 183.234 476.173 183.326 476.36 183.508C476.548 183.69 476.643 183.909 476.645 184.164C476.643 184.336 476.597 184.493 476.509 184.637C476.423 184.777 476.309 184.891 476.169 184.977C476.028 185.06 475.875 185.102 475.708 185.102Z" fill="#7F9EF3"/>
<path d="M500.588 134.997C502.243 137.433 505.56 138.067 507.997 136.412C510.433 134.757 511.067 131.44 509.412 129.003C507.757 126.567 504.44 125.933 502.003 127.588C499.567 129.243 498.933 132.56 500.588 134.997ZM452.562 168.827L453.766 168.009L452.643 166.355L451.438 167.173L452.562 168.827ZM456.176 166.373L458.585 164.736L457.461 163.082L455.052 164.718L456.176 166.373ZM460.994 163.1L463.403 161.464L462.279 159.809L459.87 161.446L460.994 163.1ZM465.812 159.827L468.221 158.191L467.097 156.536L464.688 158.173L465.812 159.827ZM470.63 156.554L473.039 154.918L471.915 153.264L469.506 154.9L470.63 156.554ZM475.448 153.282L477.857 151.645L476.734 149.991L474.324 151.627L475.448 153.282ZM480.266 150.009L482.676 148.373L481.552 146.718L479.143 148.355L480.266 150.009ZM485.085 146.736L487.494 145.1L486.37 143.446L483.961 145.082L485.085 146.736ZM489.903 143.464L492.312 141.827L491.188 140.173L488.779 141.809L489.903 143.464ZM494.721 140.191L497.13 138.554L496.006 136.9L493.597 138.536L494.721 140.191ZM499.539 136.918L501.948 135.282L500.824 133.627L498.415 135.264L499.539 136.918ZM504.357 133.645L505.562 132.827L504.438 131.173L503.234 131.991L504.357 133.645Z" fill="#1C2755"/>
<rect x="220" y="71" width="86" height="26" rx="12" fill="#1C2755"/>
<path d="M233.695 88V80H239.086V81.3945H235.387V83.3008H238.809V84.6953H235.387V86.6055H239.102V88H233.695ZM242.787 80L244.4 82.7266H244.462L246.083 80H247.994L245.552 84L248.048 88H246.103L244.462 85.2695H244.4L242.759 88H240.822L243.326 84L240.869 80H242.787ZM249.834 88V80H252.99C253.597 80 254.114 80.1159 254.541 80.3477C254.968 80.5768 255.294 80.8958 255.518 81.3047C255.744 81.7109 255.857 82.1797 255.857 82.7109C255.857 83.2422 255.743 83.7109 255.514 84.1172C255.284 84.5234 254.952 84.8398 254.518 85.0664C254.085 85.293 253.562 85.4062 252.947 85.4062H250.936V84.0508H252.674C252.999 84.0508 253.268 83.9948 253.478 83.8828C253.692 83.7682 253.851 83.6107 253.955 83.4102C254.062 83.207 254.115 82.974 254.115 82.7109C254.115 82.4453 254.062 82.2135 253.955 82.0156C253.851 81.8151 253.692 81.6602 253.478 81.5508C253.265 81.4388 252.994 81.3828 252.666 81.3828H251.525V88H249.834ZM257.726 88V80H259.417V86.6055H262.847V88H257.726ZM271.777 84C271.777 84.8724 271.612 85.6146 271.281 86.2266C270.953 86.8385 270.505 87.306 269.937 87.6289C269.372 87.9492 268.737 88.1094 268.031 88.1094C267.32 88.1094 266.682 87.9479 266.117 87.625C265.552 87.3021 265.105 86.8346 264.777 86.2227C264.449 85.6107 264.285 84.8698 264.285 84C264.285 83.1276 264.449 82.3854 264.777 81.7734C265.105 81.1615 265.552 80.6953 266.117 80.375C266.682 80.0521 267.32 79.8906 268.031 79.8906C268.737 79.8906 269.372 80.0521 269.937 80.375C270.505 80.6953 270.953 81.1615 271.281 81.7734C271.612 82.3854 271.777 83.1276 271.777 84ZM270.062 84C270.062 83.4349 269.978 82.9583 269.809 82.5703C269.642 82.1823 269.406 81.888 269.101 81.6875C268.797 81.487 268.44 81.3867 268.031 81.3867C267.622 81.3867 267.266 81.487 266.961 81.6875C266.656 81.888 266.419 82.1823 266.25 82.5703C266.083 82.9583 266 83.4349 266 84C266 84.5651 266.083 85.0417 266.25 85.4297C266.419 85.8177 266.656 86.112 266.961 86.3125C267.266 86.513 267.622 86.6133 268.031 86.6133C268.44 86.6133 268.797 86.513 269.101 86.3125C269.406 86.112 269.642 85.8177 269.809 85.4297C269.978 85.0417 270.062 84.5651 270.062 84ZM273.8 88V80H276.956C277.561 80 278.076 80.1081 278.503 80.3242C278.933 80.5378 279.26 80.8411 279.484 81.2344C279.71 81.625 279.824 82.0846 279.824 82.6133C279.824 83.1445 279.709 83.6016 279.48 83.9844C279.251 84.3646 278.919 84.6562 278.484 84.8594C278.051 85.0625 277.528 85.1641 276.913 85.1641H274.8V83.8047H276.64C276.963 83.8047 277.231 83.7604 277.445 83.6719C277.658 83.5833 277.817 83.4505 277.921 83.2734C278.028 83.0964 278.081 82.8763 278.081 82.6133C278.081 82.3477 278.028 82.1237 277.921 81.9414C277.817 81.7591 277.657 81.6211 277.441 81.5273C277.227 81.431 276.958 81.3828 276.632 81.3828H275.492V88H273.8ZM278.121 84.3594L280.109 88H278.242L276.296 84.3594H278.121ZM281.789 88V80H287.18V81.3945H283.48V83.3008H286.902V84.6953H283.48V86.6055H287.195V88H281.789ZM291.251 80L291.099 85.6016H289.669L289.513 80H291.251ZM290.384 88.1016C290.126 88.1016 289.905 88.0104 289.72 87.8281C289.535 87.6432 289.444 87.4219 289.447 87.1641C289.444 86.9089 289.535 86.6901 289.72 86.5078C289.905 86.3255 290.126 86.2344 290.384 86.2344C290.632 86.2344 290.849 86.3255 291.036 86.5078C291.224 86.6901 291.319 86.9089 291.322 87.1641C291.319 87.3359 291.273 87.4935 291.185 87.6367C291.099 87.7773 290.986 87.8906 290.845 87.9766C290.704 88.0599 290.551 88.1016 290.384 88.1016Z" fill="#7F9EF3"/>
<path d="M155 59.857C156.025 57.0958 154.618 54.026 151.857 53.0004C149.096 51.9748 146.026 53.3818 145 56.143C143.975 58.9042 145.382 61.974 148.143 62.9996C150.904 64.0252 153.974 62.6182 155 59.857ZM220.348 83.0626L218.89 82.5209L218.193 84.3958L219.652 84.9374L220.348 83.0626ZM215.973 81.4376L213.057 80.3542L212.36 82.2291L215.277 83.3124L215.973 81.4376ZM210.14 79.2709L207.223 78.1876L206.527 80.0624L209.443 81.1458L210.14 79.2709ZM204.307 77.1042L201.39 76.0209L200.693 77.8958L203.61 78.9791L204.307 77.1042ZM198.473 74.9376L195.557 73.8542L194.86 75.7291L197.777 76.8124L198.473 74.9376ZM192.64 72.7709L189.723 71.6876L189.027 73.5624L191.943 74.6458L192.64 72.7709ZM186.807 70.6042L183.89 69.5209L183.193 71.3958L186.11 72.4791L186.807 70.6042ZM180.973 68.4376L178.057 67.3542L177.36 69.2291L180.277 70.3124L180.973 68.4376ZM175.14 66.2709L172.223 65.1876L171.527 67.0624L174.443 68.1458L175.14 66.2709ZM169.307 64.1042L166.39 63.0209L165.693 64.8958L168.61 65.9791L169.307 64.1042ZM163.473 61.9376L160.557 60.8542L159.86 62.7291L162.777 63.8124L163.473 61.9376ZM157.64 59.7709L154.723 58.6876L154.027 60.5624L156.943 61.6458L157.64 59.7709ZM151.807 57.6042L150.348 57.0626L149.652 58.9374L151.11 59.4791L151.807 57.6042Z" fill="#1C2755"/>
<rect x="194" y="168" width="177" height="26" rx="12" fill="#1C2755"/>
<path d="M207.195 185V177H208.887V180.301H212.32V177H214.008V185H212.32V181.695H208.887V185H207.195ZM216.172 185V177H221.563V178.395H217.864V180.301H221.286V181.695H217.864V183.605H221.579V185H216.172ZM223.678 185V177H225.369V183.605H228.799V185H223.678ZM230.689 177H232.775L234.978 182.375H235.072L237.275 177H239.361V185H237.72V179.793H237.654L235.583 184.961H234.466L232.396 179.773H232.33V185H230.689V177ZM247.262 185.117C246.71 185.117 246.233 185.018 245.832 184.82C245.431 184.622 245.123 184.354 244.907 184.016C244.693 183.674 244.586 183.294 244.586 182.875C244.586 182.562 244.649 182.285 244.774 182.043C244.899 181.801 245.073 181.578 245.297 181.375C245.521 181.169 245.782 180.965 246.079 180.762L247.629 179.742C247.83 179.615 247.977 179.48 248.071 179.34C248.164 179.197 248.211 179.042 248.211 178.875C248.211 178.716 248.148 178.569 248.02 178.434C247.892 178.298 247.711 178.232 247.477 178.234C247.321 178.234 247.185 178.27 247.071 178.34C246.956 178.408 246.866 178.497 246.801 178.609C246.739 178.719 246.707 178.841 246.707 178.977C246.707 179.143 246.754 179.312 246.848 179.484C246.942 179.656 247.067 179.839 247.223 180.031C247.379 180.221 247.55 180.427 247.735 180.648L251.528 185H249.793L246.629 181.477C246.421 181.24 246.213 180.992 246.004 180.734C245.799 180.474 245.627 180.198 245.489 179.906C245.351 179.612 245.282 179.293 245.282 178.949C245.282 178.561 245.371 178.212 245.551 177.902C245.733 177.592 245.989 177.348 246.317 177.168C246.645 176.986 247.028 176.895 247.465 176.895C247.892 176.895 248.261 176.982 248.571 177.156C248.883 177.328 249.123 177.557 249.289 177.844C249.459 178.128 249.543 178.44 249.543 178.781C249.543 179.159 249.45 179.501 249.262 179.809C249.077 180.113 248.817 180.387 248.481 180.629L246.848 181.805C246.627 181.966 246.463 182.132 246.356 182.301C246.252 182.467 246.2 182.628 246.2 182.781C246.2 182.971 246.246 183.142 246.34 183.293C246.434 183.444 246.567 183.564 246.739 183.652C246.911 183.738 247.112 183.781 247.344 183.781C247.625 183.781 247.903 183.717 248.176 183.59C248.452 183.46 248.702 183.276 248.926 183.039C249.153 182.799 249.334 182.516 249.469 182.187C249.605 181.859 249.672 181.496 249.672 181.098H251.051C251.051 181.587 250.998 182.029 250.891 182.422C250.784 182.812 250.636 183.154 250.446 183.445C250.256 183.734 250.038 183.971 249.793 184.156C249.715 184.206 249.64 184.253 249.567 184.297C249.494 184.341 249.418 184.388 249.34 184.437C249.043 184.677 248.711 184.85 248.344 184.957C247.98 185.064 247.619 185.117 247.262 185.117ZM256.338 185V177H258.03V180.527H258.135L261.014 177H263.041L260.073 180.582L263.077 185H261.053L258.862 181.711L258.03 182.727V185H256.338ZM269.634 177H271.325V182.195C271.325 182.779 271.186 183.289 270.907 183.727C270.631 184.164 270.244 184.505 269.747 184.75C269.25 184.992 268.67 185.113 268.009 185.113C267.345 185.113 266.764 184.992 266.266 184.75C265.769 184.505 265.382 184.164 265.106 183.727C264.83 183.289 264.692 182.779 264.692 182.195V177H266.384V182.051C266.384 182.355 266.45 182.626 266.583 182.863C266.718 183.1 266.908 183.286 267.153 183.422C267.398 183.557 267.683 183.625 268.009 183.625C268.337 183.625 268.622 183.557 268.864 183.422C269.109 183.286 269.298 183.1 269.431 182.863C269.566 182.626 269.634 182.355 269.634 182.051V177ZM277.826 179.301C277.795 178.986 277.661 178.741 277.424 178.566C277.187 178.392 276.866 178.305 276.459 178.305C276.183 178.305 275.95 178.344 275.76 178.422C275.57 178.497 275.424 178.603 275.323 178.738C275.224 178.874 275.174 179.027 275.174 179.199C275.169 179.342 275.199 179.467 275.264 179.574C275.332 179.681 275.424 179.773 275.541 179.852C275.659 179.927 275.794 179.993 275.948 180.051C276.101 180.105 276.265 180.152 276.44 180.191L277.159 180.363C277.507 180.441 277.828 180.546 278.119 180.676C278.411 180.806 278.664 180.966 278.877 181.156C279.091 181.346 279.256 181.57 279.373 181.828C279.493 182.086 279.554 182.382 279.557 182.715C279.554 183.204 279.429 183.629 279.182 183.988C278.937 184.345 278.583 184.622 278.119 184.82C277.659 185.016 277.103 185.113 276.451 185.113C275.806 185.113 275.243 185.014 274.764 184.816C274.287 184.618 273.915 184.326 273.647 183.937C273.381 183.547 273.242 183.064 273.229 182.488H274.866C274.884 182.757 274.961 182.98 275.096 183.16C275.234 183.337 275.418 183.471 275.647 183.562C275.879 183.651 276.14 183.695 276.432 183.695C276.718 183.695 276.967 183.654 277.178 183.57C277.392 183.487 277.557 183.371 277.674 183.223C277.791 183.074 277.85 182.904 277.85 182.711C277.85 182.531 277.797 182.38 277.69 182.258C277.586 182.135 277.432 182.031 277.229 181.945C277.028 181.859 276.782 181.781 276.491 181.711L275.619 181.492C274.945 181.328 274.412 181.072 274.022 180.723C273.631 180.374 273.437 179.904 273.44 179.312C273.437 178.828 273.566 178.405 273.826 178.043C274.09 177.681 274.45 177.398 274.909 177.195C275.367 176.992 275.888 176.891 276.471 176.891C277.065 176.891 277.583 176.992 278.026 177.195C278.471 177.398 278.817 177.681 279.065 178.043C279.312 178.405 279.44 178.824 279.448 179.301H277.826ZM281.16 178.395V177H287.73V178.395H285.281V185H283.609V178.395H281.16ZM296.569 181C296.569 181.872 296.403 182.615 296.073 183.227C295.744 183.839 295.296 184.306 294.729 184.629C294.164 184.949 293.528 185.109 292.823 185.109C292.112 185.109 291.474 184.948 290.908 184.625C290.343 184.302 289.897 183.835 289.569 183.223C289.241 182.611 289.076 181.87 289.076 181C289.076 180.128 289.241 179.385 289.569 178.773C289.897 178.161 290.343 177.695 290.908 177.375C291.474 177.052 292.112 176.891 292.823 176.891C293.528 176.891 294.164 177.052 294.729 177.375C295.296 177.695 295.744 178.161 296.073 178.773C296.403 179.385 296.569 180.128 296.569 181ZM294.854 181C294.854 180.435 294.769 179.958 294.6 179.57C294.433 179.182 294.198 178.888 293.893 178.687C293.588 178.487 293.231 178.387 292.823 178.387C292.414 178.387 292.057 178.487 291.752 178.687C291.448 178.888 291.211 179.182 291.041 179.57C290.875 179.958 290.791 180.435 290.791 181C290.791 181.565 290.875 182.042 291.041 182.43C291.211 182.818 291.448 183.112 291.752 183.312C292.057 183.513 292.414 183.613 292.823 183.613C293.231 183.613 293.588 183.513 293.893 183.312C294.198 183.112 294.433 182.818 294.6 182.43C294.769 182.042 294.854 181.565 294.854 181ZM298.592 177H300.677L302.881 182.375H302.974L305.177 177H307.263V185H305.623V179.793H305.556L303.486 184.961H302.369L300.299 179.773H300.232V185H298.592V177ZM311.118 177V185H309.427V177H311.118ZM313.194 185V183.996L317.186 178.395H313.186V177H319.311V178.004L315.315 183.605H319.319V185H313.194ZM322.766 185H320.953L323.715 177H325.895L328.653 185H326.84L324.836 178.828H324.774L322.766 185ZM322.653 181.855H326.934V183.176H322.653V181.855ZM329.103 178.395V177H335.674V178.395H333.224V185H331.552V178.395H329.103ZM344.512 181C344.512 181.872 344.347 182.615 344.016 183.227C343.688 183.839 343.24 184.306 342.672 184.629C342.107 184.949 341.472 185.109 340.766 185.109C340.055 185.109 339.417 184.948 338.852 184.625C338.287 184.302 337.84 183.835 337.512 183.223C337.184 182.611 337.02 181.87 337.02 181C337.02 180.128 337.184 179.385 337.512 178.773C337.84 178.161 338.287 177.695 338.852 177.375C339.417 177.052 340.055 176.891 340.766 176.891C341.472 176.891 342.107 177.052 342.672 177.375C343.24 177.695 343.688 178.161 344.016 178.773C344.347 179.385 344.512 180.128 344.512 181ZM342.797 181C342.797 180.435 342.712 179.958 342.543 179.57C342.376 179.182 342.141 178.888 341.836 178.687C341.531 178.487 341.175 178.387 340.766 178.387C340.357 178.387 340 178.487 339.695 178.687C339.391 178.888 339.154 179.182 338.985 179.57C338.818 179.958 338.735 180.435 338.735 181C338.735 181.565 338.818 182.042 338.985 182.43C339.154 182.818 339.391 183.112 339.695 183.312C340 183.513 340.357 183.613 340.766 183.613C341.175 183.613 341.531 183.513 341.836 183.312C342.141 183.112 342.376 182.818 342.543 182.43C342.712 182.042 342.797 181.565 342.797 181ZM353.226 177V185H351.765L348.285 179.965H348.226V185H346.535V177H348.019L351.472 182.031H351.543V177H353.226ZM357.351 177L357.198 182.602H355.769L355.612 177H357.351ZM356.484 185.102C356.226 185.102 356.004 185.01 355.819 184.828C355.635 184.643 355.543 184.422 355.546 184.164C355.543 183.909 355.635 183.69 355.819 183.508C356.004 183.326 356.226 183.234 356.484 183.234C356.731 183.234 356.948 183.326 357.136 183.508C357.323 183.69 357.418 183.909 357.421 184.164C357.418 184.336 357.373 184.493 357.284 184.637C357.198 184.777 357.085 184.891 356.944 184.977C356.804 185.06 356.65 185.102 356.484 185.102Z" fill="#7F9EF3"/>
<path d="M27.995 118.869C29.0274 116.111 27.6281 113.038 24.8695 112.005C22.1108 110.973 19.0375 112.372 18.0051 115.131C16.9726 117.889 18.3719 120.962 21.1305 121.995C23.8892 123.027 26.9625 121.628 27.995 118.869ZM194.351 180.063L192.926 179.53L192.224 181.403L193.649 181.937L194.351 180.063ZM190.076 178.463L187.226 177.397L186.524 179.27L189.374 180.337L190.076 178.463ZM184.376 176.33L181.526 175.263L180.824 177.137L183.674 178.203L184.376 176.33ZM178.676 174.197L175.826 173.13L175.124 175.003L177.974 176.07L178.676 174.197ZM172.976 172.063L170.126 170.997L169.424 172.87L172.274 173.937L172.976 172.063ZM167.276 169.93L164.426 168.863L163.724 170.737L166.574 171.803L167.276 169.93ZM161.576 167.797L158.726 166.73L158.024 168.603L160.874 169.67L161.576 167.797ZM155.876 165.663L153.026 164.597L152.324 166.47L155.174 167.537L155.876 165.663ZM150.176 163.53L147.326 162.463L146.624 164.337L149.474 165.403L150.176 163.53ZM144.476 161.397L141.626 160.33L140.924 162.203L143.774 163.27L144.476 161.397ZM138.776 159.263L135.926 158.197L135.224 160.07L138.074 161.137L138.776 159.263ZM133.076 157.13L130.226 156.063L129.524 157.937L132.374 159.003L133.076 157.13ZM127.376 154.997L124.526 153.93L123.824 155.803L126.674 156.87L127.376 154.997ZM121.676 152.863L118.826 151.797L118.124 153.67L120.974 154.737L121.676 152.863ZM115.976 150.73L113.126 149.663L112.424 151.537L115.274 152.603L115.976 150.73ZM110.276 148.597L107.426 147.53L106.724 149.403L109.574 150.47L110.276 148.597ZM104.576 146.463L101.726 145.397L101.024 147.27L103.874 148.337L104.576 146.463ZM98.8755 144.33L96.0255 143.263L95.3245 145.137L98.1745 146.203L98.8755 144.33ZM93.1756 142.197L90.3256 141.13L89.6245 143.003L92.4745 144.07L93.1756 142.197ZM87.4756 140.063L84.6256 138.997L83.9245 140.87L86.7745 141.937L87.4756 140.063ZM81.7756 137.93L78.9256 136.863L78.2245 138.737L81.0745 139.803L81.7756 137.93ZM76.0756 135.797L73.2256 134.73L72.5245 136.603L75.3745 137.67L76.0756 135.797ZM70.3756 133.663L67.5256 132.597L66.8245 134.47L69.6745 135.537L70.3756 133.663ZM64.6756 131.53L61.8256 130.463L61.1245 132.337L63.9745 133.403L64.6756 131.53ZM58.9755 129.397L56.1255 128.33L55.4245 130.203L58.2745 131.27L58.9755 129.397ZM53.2755 127.263L50.4255 126.197L49.7245 128.07L52.5745 129.137L53.2755 127.263ZM47.5755 125.13L44.7255 124.063L44.0245 125.937L46.8745 127.003L47.5755 125.13ZM41.8755 122.997L39.0255 121.93L38.3245 123.803L41.1745 124.87L41.8755 122.997ZM36.1755 120.863L33.3255 119.797L32.6245 121.67L35.4745 122.737L36.1755 120.863ZM30.4755 118.73L27.6255 117.663L26.9245 119.537L29.7745 120.603L30.4755 118.73ZM24.7755 116.597L23.3505 116.063L22.6495 117.937L24.0744 118.47L24.7755 116.597Z" fill="#1C2755"/>
<rect x="117" y="218" width="90" height="26" rx="12" fill="#1C2755"/>
<path d="M132.141 227L134.074 233.078H134.148L136.086 227H137.961L135.203 235H133.023L130.262 227H132.141ZM140.009 235H138.197L140.958 227H143.138L145.896 235H144.083L142.08 228.828H142.017L140.009 235ZM139.896 231.855H144.177V233.176H139.896V231.855ZM147.629 235V227H149.32V233.605H152.75V235H147.629ZM156.331 227V235H154.64V227H156.331ZM161.329 235H158.493V227H161.352C162.157 227 162.85 227.16 163.431 227.48C164.011 227.798 164.458 228.255 164.77 228.852C165.086 229.448 165.243 230.161 165.243 230.992C165.243 231.825 165.086 232.542 164.77 233.141C164.458 233.74 164.009 234.199 163.423 234.519C162.839 234.84 162.142 235 161.329 235ZM160.184 233.551H161.259C161.759 233.551 162.179 233.462 162.52 233.285C162.864 233.105 163.122 232.828 163.294 232.453C163.468 232.075 163.556 231.588 163.556 230.992C163.556 230.401 163.468 229.918 163.294 229.543C163.122 229.168 162.865 228.892 162.524 228.715C162.183 228.538 161.763 228.449 161.263 228.449H160.184V233.551ZM168.194 235H166.381L169.143 227H171.323L174.08 235H172.268L170.264 228.828H170.202L168.194 235ZM168.08 231.855H172.362V233.176H168.08V231.855ZM174.531 228.394V227H181.101V228.394H178.652V235H176.98V228.394H174.531ZM182.953 235V227H188.344V228.394H184.645V230.301H188.067V231.695H184.645V233.605H188.36V235H182.953ZM192.416 227L192.264 232.602H190.834L190.678 227H192.416ZM191.549 235.102C191.291 235.102 191.07 235.01 190.885 234.828C190.7 234.643 190.609 234.422 190.611 234.164C190.609 233.909 190.7 233.69 190.885 233.508C191.07 233.325 191.291 233.234 191.549 233.234C191.796 233.234 192.014 233.325 192.201 233.508C192.389 233.69 192.484 233.909 192.486 234.164C192.484 234.336 192.438 234.493 192.349 234.637C192.264 234.777 192.15 234.891 192.01 234.977C191.869 235.06 191.715 235.102 191.549 235.102Z" fill="#7F9EF3"/>
<path d="M28.2916 167.334C27.9237 164.411 25.2564 162.341 22.3339 162.708C19.4115 163.076 17.3406 165.744 17.7084 168.666C18.0763 171.589 20.7436 173.659 23.6661 173.292C26.5885 172.924 28.6595 170.256 28.2916 167.334ZM121.541 230.159L120.251 229.33L119.17 231.012L120.459 231.841L121.541 230.159ZM117.672 227.672L115.093 226.014L114.012 227.696L116.591 229.354L117.672 227.672ZM112.514 224.356L109.935 222.698L108.854 224.381L111.433 226.039L112.514 224.356ZM107.357 221.04L104.778 219.382L103.696 221.065L106.275 222.723L107.357 221.04ZM102.199 217.725L99.6197 216.067L98.5382 217.749L101.117 219.407L102.199 217.725ZM97.0408 214.409L94.4618 212.751L93.3803 214.433L95.9592 216.091L97.0408 214.409ZM91.8829 211.093L89.3039 209.435L88.2224 211.117L90.8014 212.775L91.8829 211.093ZM86.725 207.777L84.146 206.119L83.0645 207.802L85.6435 209.46L86.725 207.777ZM81.5671 204.461L78.9881 202.804L77.9066 204.486L80.4856 206.144L81.5671 204.461ZM76.4092 201.146L73.8302 199.488L72.7487 201.17L75.3277 202.828L76.4092 201.146ZM71.2513 197.83L68.6724 196.172L67.5908 197.854L70.1698 199.512L71.2513 197.83ZM66.0934 194.514L63.5145 192.856L62.433 194.539L65.0119 196.196L66.0934 194.514ZM60.9355 191.198L58.3566 189.54L57.2751 191.223L59.854 192.881L60.9355 191.198ZM55.7776 187.883L53.1987 186.225L52.1172 187.907L54.6961 189.565L55.7776 187.883ZM50.6197 184.567L48.0408 182.909L46.9593 184.591L49.5382 186.249L50.6197 184.567ZM45.4619 181.251L42.8829 179.593L41.8014 181.275L44.3803 182.933L45.4619 181.251ZM40.304 177.935L37.725 176.277L36.6435 177.96L39.2224 179.617L40.304 177.935ZM35.1461 174.619L32.5671 172.961L31.4856 174.644L34.0646 176.302L35.1461 174.619ZM29.9882 171.304L27.4092 169.646L26.3277 171.328L28.9067 172.986L29.9882 171.304ZM24.8303 167.988L23.5408 167.159L22.4593 168.841L23.7488 169.67L24.8303 167.988Z" fill="#1C2755"/>
<rect x="137" y="118" width="90" height="26" rx="12" fill="#1C2755"/>
<path d="M157.254 129.801H155.543C155.512 129.579 155.448 129.383 155.352 129.211C155.255 129.036 155.132 128.888 154.98 128.766C154.829 128.643 154.655 128.549 154.457 128.484C154.262 128.419 154.049 128.387 153.82 128.387C153.406 128.387 153.046 128.49 152.738 128.695C152.431 128.898 152.193 129.195 152.023 129.586C151.854 129.974 151.77 130.445 151.77 131C151.77 131.57 151.854 132.049 152.023 132.437C152.195 132.826 152.435 133.118 152.742 133.316C153.049 133.514 153.405 133.613 153.809 133.613C154.035 133.613 154.245 133.583 154.438 133.523C154.633 133.464 154.806 133.376 154.957 133.262C155.108 133.145 155.233 133.003 155.332 132.836C155.434 132.669 155.504 132.479 155.543 132.266L157.254 132.273C157.21 132.641 157.099 132.995 156.922 133.336C156.747 133.674 156.512 133.978 156.215 134.246C155.921 134.512 155.569 134.723 155.16 134.879C154.754 135.033 154.294 135.109 153.781 135.109C153.068 135.109 152.43 134.948 151.867 134.625C151.307 134.302 150.865 133.835 150.539 133.223C150.216 132.611 150.055 131.87 150.055 131C150.055 130.128 150.219 129.385 150.547 128.773C150.875 128.161 151.32 127.695 151.883 127.375C152.445 127.052 153.078 126.891 153.781 126.891C154.245 126.891 154.674 126.956 155.07 127.086C155.469 127.216 155.822 127.406 156.129 127.656C156.436 127.904 156.686 128.207 156.879 128.566C157.074 128.926 157.199 129.337 157.254 129.801ZM166.588 131C166.588 131.872 166.423 132.615 166.092 133.227C165.764 133.839 165.316 134.306 164.749 134.629C164.183 134.949 163.548 135.109 162.842 135.109C162.131 135.109 161.493 134.948 160.928 134.625C160.363 134.302 159.916 133.835 159.588 133.223C159.26 132.611 159.096 131.87 159.096 131C159.096 130.128 159.26 129.385 159.588 128.773C159.916 128.161 160.363 127.695 160.928 127.375C161.493 127.052 162.131 126.891 162.842 126.891C163.548 126.891 164.183 127.052 164.749 127.375C165.316 127.695 165.764 128.161 166.092 128.773C166.423 129.385 166.588 130.128 166.588 131ZM164.874 131C164.874 130.435 164.789 129.958 164.62 129.57C164.453 129.182 164.217 128.888 163.913 128.688C163.608 128.487 163.251 128.387 162.842 128.387C162.433 128.387 162.077 128.487 161.772 128.688C161.467 128.888 161.23 129.182 161.061 129.57C160.894 129.958 160.811 130.435 160.811 131C160.811 131.565 160.894 132.042 161.061 132.43C161.23 132.818 161.467 133.112 161.772 133.312C162.077 133.513 162.433 133.613 162.842 133.613C163.251 133.613 163.608 133.513 163.913 133.312C164.217 133.112 164.453 132.818 164.62 132.43C164.789 132.042 164.874 131.565 164.874 131ZM168.611 127H170.697L172.9 132.375H172.994L175.197 127H177.283V135H175.643V129.793H175.576L173.506 134.961H172.389L170.318 129.773H170.252V135H168.611V127ZM179.447 135V127H182.603C183.21 127 183.727 127.116 184.154 127.348C184.581 127.577 184.906 127.896 185.13 128.305C185.357 128.711 185.47 129.18 185.47 129.711C185.47 130.242 185.356 130.711 185.126 131.117C184.897 131.523 184.565 131.84 184.13 132.066C183.698 132.293 183.175 132.406 182.56 132.406H180.548V131.051H182.287C182.612 131.051 182.88 130.995 183.091 130.883C183.305 130.768 183.464 130.611 183.568 130.41C183.675 130.207 183.728 129.974 183.728 129.711C183.728 129.445 183.675 129.214 183.568 129.016C183.464 128.815 183.305 128.66 183.091 128.551C182.878 128.439 182.607 128.383 182.279 128.383H181.138V135H179.447ZM187.794 135H185.981L188.743 127H190.923L193.681 135H191.868L189.864 128.828H189.802L187.794 135ZM187.681 131.855H191.962V133.176H187.681V131.855ZM195.413 135V127H198.57C199.174 127 199.69 127.108 200.117 127.324C200.546 127.538 200.873 127.841 201.097 128.234C201.324 128.625 201.437 129.085 201.437 129.613C201.437 130.145 201.322 130.602 201.093 130.984C200.864 131.365 200.532 131.656 200.097 131.859C199.665 132.062 199.141 132.164 198.527 132.164H196.413V130.805H198.253C198.576 130.805 198.844 130.76 199.058 130.672C199.272 130.583 199.43 130.451 199.535 130.273C199.641 130.096 199.695 129.876 199.695 129.613C199.695 129.348 199.641 129.124 199.535 128.941C199.43 128.759 199.27 128.621 199.054 128.527C198.841 128.431 198.571 128.383 198.246 128.383H197.105V135H195.413ZM199.734 131.359L201.722 135H199.855L197.91 131.359H199.734ZM203.402 135V127H208.793V128.395H205.094V130.301H208.516V131.695H205.094V133.605H208.808V135H203.402ZM212.865 127L212.712 132.602H211.283L211.126 127H212.865ZM211.997 135.102C211.74 135.102 211.518 135.01 211.333 134.828C211.148 134.643 211.057 134.422 211.06 134.164C211.057 133.909 211.148 133.69 211.333 133.508C211.518 133.326 211.74 133.234 211.997 133.234C212.245 133.234 212.462 133.326 212.65 133.508C212.837 133.69 212.932 133.909 212.935 134.164C212.932 134.336 212.887 134.493 212.798 134.637C212.712 134.777 212.599 134.891 212.458 134.977C212.318 135.06 212.164 135.102 211.997 135.102Z" fill="#7F9EF3"/>
<path d="M123.898 95.1111C125.064 92.4062 123.816 89.2682 121.111 88.1023C118.406 86.9364 115.268 88.184 114.102 90.8889C112.936 93.5939 114.184 96.7318 116.889 97.8977C119.594 99.0637 122.732 97.816 123.898 95.1111ZM177.396 117.082L176.078 116.513L175.286 118.35L176.604 118.918L177.396 117.082ZM173.441 115.377L170.805 114.241L170.013 116.077L172.65 117.214L173.441 115.377ZM168.169 113.104L165.532 111.968L164.741 113.805L167.377 114.941L168.169 113.104ZM162.896 110.832L160.259 109.695L159.468 111.532L162.104 112.668L162.896 110.832ZM157.623 108.559L154.987 107.423L154.195 109.259L156.831 110.396L157.623 108.559ZM152.35 106.286L149.714 105.15L148.922 106.987L151.559 108.123L152.35 106.286ZM147.078 104.013L144.441 102.877L143.65 104.714L146.286 105.85L147.078 104.013ZM141.805 101.741L139.169 100.604L138.377 102.441L141.013 103.577L141.805 101.741ZM136.532 99.468L133.896 98.3317L133.104 100.168L135.741 101.305L136.532 99.468ZM131.259 97.1953L128.623 96.059L127.831 97.8956L130.468 99.032L131.259 97.1953ZM125.987 94.9226L123.35 93.7862L122.559 95.6229L125.195 96.7592L125.987 94.9226ZM120.714 92.6499L119.396 92.0817L118.604 93.9183L119.922 94.4865L120.714 92.6499Z" fill="#1C2755"/>
<rect x="279" y="255" width="71" height="26" rx="12" fill="#1C2755"/>
<path d="M296.535 266.301C296.504 265.986 296.37 265.741 296.133 265.566C295.896 265.392 295.574 265.305 295.168 265.305C294.892 265.305 294.659 265.344 294.469 265.422C294.279 265.497 294.133 265.603 294.031 265.738C293.932 265.874 293.883 266.027 293.883 266.199C293.878 266.342 293.908 266.467 293.973 266.574C294.04 266.681 294.133 266.773 294.25 266.852C294.367 266.927 294.503 266.993 294.656 267.051C294.81 267.105 294.974 267.152 295.148 267.191L295.867 267.363C296.216 267.441 296.536 267.546 296.828 267.676C297.12 267.806 297.372 267.966 297.586 268.156C297.799 268.346 297.965 268.57 298.082 268.828C298.202 269.086 298.263 269.382 298.266 269.715C298.263 270.204 298.138 270.629 297.891 270.988C297.646 271.345 297.292 271.622 296.828 271.82C296.367 272.016 295.811 272.113 295.16 272.113C294.514 272.113 293.952 272.014 293.473 271.816C292.996 271.618 292.624 271.326 292.355 270.937C292.09 270.547 291.951 270.064 291.937 269.488H293.574C293.592 269.757 293.669 269.98 293.805 270.16C293.943 270.337 294.126 270.471 294.355 270.562C294.587 270.651 294.849 270.695 295.141 270.695C295.427 270.695 295.676 270.654 295.887 270.57C296.1 270.487 296.266 270.371 296.383 270.223C296.5 270.074 296.559 269.904 296.559 269.711C296.559 269.531 296.505 269.38 296.398 269.258C296.294 269.135 296.141 269.031 295.938 268.945C295.737 268.859 295.491 268.781 295.199 268.711L294.328 268.492C293.654 268.328 293.121 268.072 292.73 267.723C292.34 267.374 292.146 266.904 292.148 266.312C292.146 265.828 292.275 265.405 292.535 265.043C292.798 264.681 293.159 264.398 293.617 264.195C294.076 263.992 294.596 263.891 295.18 263.891C295.773 263.891 296.292 263.992 296.734 264.195C297.18 264.398 297.526 264.681 297.773 265.043C298.021 265.405 298.148 265.824 298.156 266.301H296.535ZM300.173 272V264H301.865V267.301H305.298V264H306.986V272H305.298V268.695H301.865V272H300.173ZM310.529 272H308.717L311.478 264H313.658L316.416 272H314.603L312.6 265.828H312.537L310.529 272ZM310.416 268.855H314.697V270.176H310.416V268.855ZM318.149 272V264H321.305C321.909 264 322.425 264.108 322.852 264.324C323.282 264.538 323.609 264.841 323.832 265.234C324.059 265.625 324.172 266.085 324.172 266.613C324.172 267.145 324.058 267.602 323.829 267.984C323.599 268.365 323.267 268.656 322.832 268.859C322.4 269.062 321.877 269.164 321.262 269.164H319.149V267.805H320.989C321.312 267.805 321.58 267.76 321.793 267.672C322.007 267.583 322.166 267.451 322.27 267.273C322.377 267.096 322.43 266.876 322.43 266.613C322.43 266.348 322.377 266.124 322.27 265.941C322.166 265.759 322.006 265.621 321.789 265.527C321.576 265.431 321.306 265.383 320.981 265.383H319.84V272H318.149ZM322.469 268.359L324.457 272H322.59L320.645 268.359H322.469ZM326.138 272V264H331.528V265.395H327.829V267.301H331.251V268.695H327.829V270.605H331.544V272H326.138ZM335.6 264L335.448 269.602H334.018L333.862 264H335.6ZM334.733 272.102C334.475 272.102 334.254 272.01 334.069 271.828C333.884 271.643 333.793 271.422 333.795 271.164C333.793 270.909 333.884 270.69 334.069 270.508C334.254 270.326 334.475 270.234 334.733 270.234C334.98 270.234 335.198 270.326 335.385 270.508C335.573 270.69 335.668 270.909 335.67 271.164C335.668 271.336 335.622 271.493 335.534 271.637C335.448 271.777 335.334 271.891 335.194 271.977C335.053 272.06 334.899 272.102 334.733 272.102Z" fill="#7F9EF3"/>
<path d="M315 217.333C317.946 217.333 320.333 214.946 320.333 212C320.333 209.054 317.946 206.667 315 206.667C312.054 206.667 309.667 209.054 309.667 212C309.667 214.946 312.054 217.333 315 217.333ZM316 255L316 253.464L314 253.464L314 255L316 255ZM316 250.393L316 247.321L314 247.321L314 250.393L316 250.393ZM316 244.25L316 241.179L314 241.179L314 244.25L316 244.25ZM316 238.107L316 235.036L314 235.036L314 238.107L316 238.107ZM316 231.964L316 228.893L314 228.893L314 231.964L316 231.964ZM316 225.821L316 222.75L314 222.75L314 225.821L316 225.821ZM316 219.679L316 216.607L314 216.607L314 219.679L316 219.679ZM316 213.536L316 212L314 212L314 213.536L316 213.536Z" fill="#1C2755"/>
<line x1="359.87" y1="134.517" x2="433.87" y2="114.517" stroke="#434343" stroke-dasharray="3 3"/>
<path d="M532 273C532 292.882 515.211 309 494.5 309C473.789 309 457 292.882 457 273C457 253.118 473.789 237 494.5 237C515.211 237 532 253.118 532 273Z" fill="#121212"/>
<line x1="359.145" y1="243.521" x2="458.145" y2="273.521" stroke="#434343" stroke-dasharray="3 3"/>
<rect x="517" y="206" width="50" height="26" rx="12" fill="#1C2755"/>
<path d="M537.754 217.801H536.043C536.012 217.579 535.948 217.383 535.852 217.211C535.755 217.036 535.632 216.888 535.48 216.766C535.329 216.643 535.155 216.549 534.957 216.484C534.762 216.419 534.549 216.387 534.32 216.387C533.906 216.387 533.546 216.49 533.238 216.695C532.931 216.898 532.693 217.195 532.523 217.586C532.354 217.974 532.27 218.445 532.27 219C532.27 219.57 532.354 220.049 532.523 220.437C532.695 220.826 532.935 221.118 533.242 221.316C533.549 221.514 533.905 221.613 534.309 221.613C534.535 221.613 534.745 221.583 534.938 221.523C535.133 221.464 535.306 221.376 535.457 221.262C535.608 221.145 535.733 221.003 535.832 220.836C535.934 220.669 536.004 220.479 536.043 220.266L537.754 220.273C537.71 220.641 537.599 220.995 537.422 221.336C537.247 221.674 537.012 221.978 536.715 222.246C536.421 222.512 536.069 222.723 535.66 222.879C535.254 223.033 534.794 223.109 534.281 223.109C533.568 223.109 532.93 222.948 532.367 222.625C531.807 222.302 531.365 221.835 531.039 221.223C530.716 220.611 530.555 219.87 530.555 219C530.555 218.128 530.719 217.385 531.047 216.773C531.375 216.161 531.82 215.695 532.383 215.375C532.945 215.052 533.578 214.891 534.281 214.891C534.745 214.891 535.174 214.956 535.57 215.086C535.969 215.216 536.322 215.406 536.629 215.656C536.936 215.904 537.186 216.207 537.379 216.566C537.574 216.926 537.699 217.337 537.754 217.801ZM539.737 223V215H541.428V221.605H544.858V223H539.737ZM548.439 215V223H546.748V215H548.439ZM552.558 215L552.406 220.602H550.976L550.82 215H552.558ZM551.691 223.102C551.433 223.102 551.212 223.01 551.027 222.828C550.842 222.643 550.751 222.422 550.753 222.164C550.751 221.909 550.842 221.69 551.027 221.508C551.212 221.326 551.433 221.234 551.691 221.234C551.938 221.234 552.156 221.326 552.343 221.508C552.531 221.69 552.626 221.909 552.628 222.164C552.626 222.336 552.58 222.493 552.492 222.637C552.406 222.777 552.292 222.891 552.152 222.977C552.011 223.06 551.858 223.102 551.691 223.102Z" fill="#7F9EF3"/>
<path d="M525.943 248.412C523.961 246.233 520.588 246.072 518.409 248.054C516.229 250.035 516.069 253.408 518.05 255.588C520.031 257.767 523.405 257.928 525.584 255.946C527.764 253.965 527.924 250.592 525.943 248.412ZM543.337 231.752L542.237 232.727L543.563 234.223L544.663 233.248L543.337 231.752ZM540.036 234.677L537.836 236.627L539.162 238.123L541.363 236.173L540.036 234.677ZM535.636 238.577L533.435 240.527L534.762 242.023L536.962 240.073L535.636 238.577ZM531.235 242.477L529.034 244.427L530.361 245.923L532.561 243.973L531.235 242.477ZM526.834 246.377L524.634 248.327L525.96 249.823L528.161 247.873L526.834 246.377ZM522.433 250.277L521.333 251.252L522.66 252.748L523.76 251.773L522.433 250.277Z" fill="#1C2755"/>
<rect x="69" y="279" width="48" height="26" rx="12" fill="#1C2755"/>
<path d="M86.5 290.586C86.4453 290.396 86.3685 290.228 86.2695 290.082C86.1706 289.934 86.0495 289.809 85.9063 289.707C85.7656 289.603 85.6042 289.523 85.4219 289.469C85.2422 289.414 85.043 289.387 84.8242 289.387C84.4154 289.387 84.056 289.488 83.7461 289.691C83.4388 289.895 83.1992 290.19 83.0273 290.578C82.8555 290.964 82.7695 291.435 82.7695 291.992C82.7695 292.549 82.8542 293.023 83.0234 293.414C83.1927 293.805 83.4323 294.103 83.7422 294.309C84.0521 294.512 84.418 294.613 84.8398 294.613C85.2227 294.613 85.5495 294.546 85.8203 294.41C86.0938 294.272 86.3021 294.078 86.4453 293.828C86.5911 293.578 86.6641 293.283 86.6641 292.941L87.0078 292.992H84.9453V291.719H88.293V292.727C88.293 293.43 88.1445 294.034 87.8477 294.539C87.5508 295.042 87.1419 295.43 86.6211 295.703C86.1003 295.974 85.5039 296.109 84.832 296.109C84.082 296.109 83.4232 295.944 82.8555 295.613C82.2878 295.28 81.8451 294.807 81.5273 294.195C81.2122 293.581 81.0547 292.852 81.0547 292.008C81.0547 291.359 81.1484 290.781 81.3359 290.273C81.526 289.763 81.7917 289.331 82.1328 288.977C82.474 288.622 82.8711 288.353 83.3242 288.168C83.7773 287.983 84.2682 287.891 84.7969 287.891C85.25 287.891 85.6719 287.957 86.0625 288.09C86.4531 288.22 86.7995 288.405 87.1016 288.645C87.4063 288.884 87.6549 289.169 87.8477 289.5C88.0404 289.828 88.1641 290.19 88.2188 290.586H86.5ZM92.0249 288V296H90.3335V288H92.0249ZM93.8818 289.395V288H100.452V289.395H98.0029V296H96.331V289.395H93.8818ZM104.261 288L104.109 293.602H102.679L102.523 288H104.261ZM103.394 296.102C103.136 296.102 102.915 296.01 102.73 295.828C102.545 295.643 102.454 295.422 102.456 295.164C102.454 294.909 102.545 294.69 102.73 294.508C102.915 294.326 103.136 294.234 103.394 294.234C103.641 294.234 103.859 294.326 104.046 294.508C104.234 294.69 104.329 294.909 104.331 295.164C104.329 295.336 104.283 295.493 104.195 295.637C104.109 295.777 103.996 295.891 103.855 295.977C103.714 296.06 103.561 296.102 103.394 296.102Z" fill="#7F9EF3"/>
<path d="M26.97 221.561C28.9369 219.369 28.7539 215.997 26.5613 214.03C24.3688 212.063 20.9968 212.246 19.03 214.439C17.0631 216.631 17.246 220.003 19.4386 221.97C21.6312 223.937 25.0031 223.754 26.97 221.561ZM91.6678 278.256L90.5344 277.239L89.1989 278.728L90.3322 279.744L91.6678 278.256ZM88.2678 275.206L86.0011 273.172L84.6656 274.661L86.9322 276.694L88.2678 275.206ZM83.7344 271.139L81.4678 269.106L80.1322 270.594L82.3989 272.628L83.7344 271.139ZM79.2011 267.072L76.9344 265.039L75.5989 266.528L77.8656 268.561L79.2011 267.072ZM74.6678 263.006L72.4011 260.972L71.0656 262.461L73.3322 264.494L74.6678 263.006ZM70.1344 258.939L67.8678 256.906L66.5322 258.394L68.7989 260.428L70.1344 258.939ZM65.6011 254.872L63.3344 252.839L61.9989 254.328L64.2656 256.361L65.6011 254.872ZM61.0677 250.806L58.8011 248.772L57.4656 250.261L59.7322 252.294L61.0677 250.806ZM56.5344 246.739L54.2677 244.706L52.9322 246.194L55.1989 248.228L56.5344 246.739ZM52.0011 242.672L49.7344 240.639L48.3989 242.128L50.6656 244.161L52.0011 242.672ZM47.4677 238.606L45.2011 236.572L43.8656 238.061L46.1322 240.094L47.4677 238.606ZM42.9344 234.539L40.6678 232.506L39.3322 233.994L41.5989 236.028L42.9344 234.539ZM38.4011 230.472L36.1344 228.439L34.7989 229.928L37.0656 231.961L38.4011 230.472ZM33.8678 226.406L31.6011 224.372L30.2656 225.861L32.5322 227.894L33.8678 226.406ZM29.3344 222.339L27.0678 220.306L25.7323 221.794L27.9989 223.828L29.3344 222.339ZM24.8011 218.272L23.6677 217.256L22.3322 218.744L23.4656 219.761L24.8011 218.272Z" fill="#1C2755"/>
<path d="M507.078 259.828H481.922C481.317 259.828 480.828 260.317 480.828 260.922V286.078C480.828 286.683 481.317 287.172 481.922 287.172H507.078C507.683 287.172 508.172 286.683 508.172 286.078V260.922C508.172 260.317 507.683 259.828 507.078 259.828ZM494.538 273.708L487.975 279.211C487.797 279.362 487.527 279.235 487.527 279.003V276.86C487.527 276.781 487.565 276.703 487.626 276.651L491.379 273.5L487.626 270.349C487.595 270.324 487.57 270.292 487.553 270.256C487.535 270.22 487.527 270.18 487.527 270.14V267.997C487.527 267.765 487.797 267.638 487.975 267.789L494.538 273.288C494.671 273.397 494.671 273.599 494.538 273.708ZM501.473 279.003C501.473 279.153 501.356 279.276 501.216 279.276H494.893C494.753 279.276 494.637 279.153 494.637 279.003V277.362C494.637 277.212 494.753 277.089 494.893 277.089H501.216C501.356 277.089 501.473 277.212 501.473 277.362V279.003Z" fill="#5A5A5A"/>
</svg>
