<svg width="323" height="202" viewBox="0 0 323 202" fill="none" xmlns="http://www.w3.org/2000/svg">
<path d="M314.656 202H85.8505C83.8118 201.998 81.8572 201.185 80.4157 199.742C78.9741 198.298 78.1632 196.34 78.1608 194.298V7.7016C78.1632 5.65974 78.9741 3.70218 80.4157 2.25836C81.8572 0.814543 83.8118 0.00237096 85.8505 0H314.656C316.695 0.00236798 318.649 0.814542 320.091 2.25836C321.532 3.70218 322.343 5.65974 322.346 7.7016V194.298C322.343 196.34 321.532 198.298 320.091 199.742C318.649 201.185 316.695 201.998 314.656 202Z" fill="#272727"/>
<path d="M91.0384 5.48186C89.0746 5.48414 87.1919 6.26652 85.8033 7.65734C84.4147 9.04816 83.6336 10.9338 83.6314 12.9007V189.104C83.6337 191.071 84.4148 192.956 85.8034 194.347C87.192 195.738 89.0747 196.52 91.0384 196.522H247.647C266.001 196.501 283.598 189.189 296.576 176.191C309.555 163.192 316.855 145.568 316.876 127.185V12.9007C316.874 10.9338 316.093 9.04816 314.704 7.65734C313.316 6.26652 311.433 5.48415 309.469 5.48187L91.0384 5.48186Z" fill="#020202"/>
<line x1="83.3396" y1="25.5206" x2="316.208" y2="25.5206" stroke="#343434"/>
<line x1="104.084" y1="196.791" x2="104.084" y2="26.0206" stroke="#343434"/>
<line x1="175.17" y1="196.791" x2="175.17" y2="26.0206" stroke="#343434"/>
<line x1="248.707" y1="196.791" x2="248.707" y2="26.0206" stroke="#343434"/>
<path fill-rule="evenodd" clip-rule="evenodd" d="M95.1873 20.301C98.1205 20.301 100.498 17.9232 100.498 14.99C100.498 12.0568 98.1205 9.67896 95.1873 9.67896C92.2541 9.67896 89.8762 12.0568 89.8762 14.99C89.8762 17.9232 92.2541 20.301 95.1873 20.301ZM94.5971 17.9406C96.5525 17.9406 98.1378 16.3553 98.1378 14.3999C98.1378 12.4444 96.5525 10.8592 94.5971 10.8592C92.6416 10.8592 91.0564 12.4444 91.0564 14.3999C91.0564 16.3553 92.6416 17.9406 94.5971 17.9406Z" fill="url(#paint0_linear_7_1322)"/>
<rect x="87.425" y="31.7402" width="13.0733" height="13.0733" rx="4" fill="#272727"/>
<rect x="111.12" y="31.7402" width="57.1958" height="27.7808" rx="4" fill="#272727"/>
<rect x="182.207" y="31.7402" width="59.6471" height="158.514" rx="4" fill="#272727"/>
<rect x="111.12" y="64.4235" width="57.1958" height="27.7808" rx="4" fill="#272727"/>
<rect x="256.561" y="31.7402" width="53.1104" height="78.44" rx="4" fill="#272727"/>
<rect x="156.877" y="9.67896" width="112.757" height="10.6221" rx="4" fill="#272727"/>
<rect x="111.12" y="97.1068" width="57.1958" height="27.7808" rx="4" fill="#272727"/>
<rect x="87.425" y="48.8989" width="13.0733" height="13.0733" rx="4" fill="#272727"/>
<rect x="87.425" y="66.0576" width="13.0733" height="13.0733" rx="4" fill="#272727"/>
<circle cx="63.9713" cy="107.34" r="63.0621" fill="#D8BD14"/>
<path d="M86.8305 33.889C88.459 32.7993 90.6779 33.5377 91.3286 35.3859L99.371 58.2264C100.2 60.5796 97.9611 62.8571 95.594 62.0693L67.4264 52.6953C65.0593 51.9076 64.632 48.7429 66.7054 47.3555L86.8305 33.889Z" fill="#D8BD14"/>
<path d="M33.7088 88.2466V77.3375H36.0152V86.3449H40.6921V88.2466H33.7088ZM45.9056 88.4064C45.064 88.4064 44.3395 88.2359 43.7323 87.895C43.1286 87.5506 42.6634 87.0641 42.3367 86.4355C42.01 85.8034 41.8466 85.0559 41.8466 84.193C41.8466 83.3513 42.01 82.6127 42.3367 81.9771C42.6634 81.3414 43.1233 80.846 43.7163 80.4909C44.3129 80.1358 45.0125 79.9582 45.815 79.9582C46.3548 79.9582 46.8573 80.0452 47.3225 80.2192C47.7912 80.3897 48.1996 80.6472 48.5476 80.9916C48.8992 81.3361 49.1726 81.7693 49.368 82.2913C49.5633 82.8098 49.6609 83.417 49.6609 84.1131V84.7363H42.7522V83.33H47.5249C47.5249 83.0033 47.4539 82.7139 47.3118 82.4618C47.1698 82.2097 46.9727 82.0126 46.7206 81.8705C46.472 81.7249 46.1826 81.6521 45.8523 81.6521C45.5079 81.6521 45.2025 81.732 44.9361 81.8918C44.6734 82.0481 44.4674 82.2594 44.3182 82.5257C44.1691 82.7885 44.0927 83.0815 44.0892 83.4046V84.7416C44.0892 85.1464 44.1638 85.4962 44.3129 85.791C44.4656 86.0857 44.6805 86.313 44.9574 86.4728C45.2344 86.6326 45.5629 86.7125 45.9429 86.7125C46.195 86.7125 46.4258 86.677 46.6354 86.606C46.8449 86.5349 47.0242 86.4284 47.1734 86.2864C47.3225 86.1443 47.4361 85.9703 47.5143 85.7643L49.613 85.9028C49.5064 86.4071 49.2881 86.8474 48.9578 87.2239C48.6311 87.5967 48.2085 87.8879 47.69 88.0974C47.1751 88.3034 46.5803 88.4064 45.9056 88.4064ZM55.4937 80.0648V81.7693H50.5665V80.0648H55.4937ZM51.6851 78.1045H53.9542V85.7324C53.9542 85.9419 53.9862 86.1052 54.0501 86.2224C54.114 86.3361 54.2028 86.416 54.3165 86.4621C54.4336 86.5083 54.5686 86.5314 54.7213 86.5314C54.8278 86.5314 54.9344 86.5225 55.0409 86.5047C55.1474 86.4834 55.2291 86.4675 55.2859 86.4568L55.6428 88.1454C55.5292 88.1809 55.3694 88.2217 55.1634 88.2679C54.9574 88.3176 54.7071 88.3478 54.4123 88.3584C53.8655 88.3797 53.3861 88.307 52.9741 88.14C52.5658 87.9731 52.2479 87.7139 52.0207 87.3623C51.7934 87.0108 51.6815 86.5669 51.6851 86.0307V78.1045ZM59.2397 77.3375V78.4881C59.2397 78.8148 59.1757 79.1486 59.0479 79.4895C58.9236 79.8268 58.7567 80.1464 58.5472 80.4483C58.3377 80.7466 58.1086 81.0005 57.8601 81.21L56.8586 80.6187C57.0362 80.3382 57.1924 80.0275 57.3274 79.6866C57.4659 79.3457 57.5351 78.9497 57.5351 78.4987V77.3375H59.2397ZM66.5333 82.3979L64.4558 82.5257C64.4203 82.3481 64.344 82.1883 64.2268 82.0463C64.1096 81.9007 63.9551 81.7853 63.7634 81.7001C63.5752 81.6113 63.3497 81.5669 63.0869 81.5669C62.7353 81.5669 62.4388 81.6415 62.1973 81.7906C61.9558 81.9362 61.8351 82.1315 61.8351 82.3766C61.8351 82.5719 61.9132 82.737 62.0695 82.8719C62.2257 83.0069 62.4938 83.1152 62.8738 83.1969L64.3546 83.4952C65.1501 83.6585 65.7431 83.9213 66.1338 84.2835C66.5244 84.6457 66.7197 85.1216 66.7197 85.7111C66.7197 86.2473 66.5617 86.7178 66.2456 87.1226C65.9331 87.5275 65.5034 87.8435 64.9566 88.0708C64.4132 88.2945 63.7865 88.4064 63.0762 88.4064C61.9931 88.4064 61.1302 88.1809 60.4874 87.7299C59.8482 87.2753 59.4736 86.6574 59.3635 85.8762L61.5954 85.759C61.6629 86.0893 61.8262 86.3414 62.0855 86.5154C62.3447 86.6859 62.6767 86.7711 63.0816 86.7711C63.4793 86.7711 63.7989 86.6947 64.0404 86.542C64.2854 86.3858 64.4097 86.1851 64.4132 85.9401C64.4097 85.7342 64.3227 85.5655 64.1522 85.4341C63.9818 85.2991 63.719 85.1962 63.3639 85.1251L61.947 84.8428C61.148 84.683 60.5531 84.406 60.1625 84.0119C59.7754 83.6177 59.5819 83.1152 59.5819 82.5044C59.5819 81.9788 59.724 81.5261 60.008 81.1461C60.2957 80.7661 60.6987 80.4731 61.2172 80.2672C61.7392 80.0612 62.35 79.9582 63.0496 79.9582C64.083 79.9582 64.8962 80.1766 65.4892 80.6134C66.0858 81.0502 66.4338 81.645 66.5333 82.3979ZM75.9722 80.0648V81.7693H71.045V80.0648H75.9722ZM72.1636 78.1045H74.4328V85.7324C74.4328 85.9419 74.4647 86.1052 74.5286 86.2224C74.5926 86.3361 74.6813 86.416 74.795 86.4621C74.9122 86.5083 75.0471 86.5314 75.1998 86.5314C75.3063 86.5314 75.4129 86.5225 75.5194 86.5047C75.6259 86.4834 75.7076 86.4675 75.7644 86.4568L76.1213 88.1454C76.0077 88.1809 75.8479 88.2217 75.6419 88.2679C75.436 88.3176 75.1856 88.3478 74.8909 88.3584C74.344 88.3797 73.8646 88.307 73.4526 88.14C73.0443 87.9731 72.7264 87.7139 72.4992 87.3623C72.2719 87.0108 72.16 86.5669 72.1636 86.0307V78.1045ZM79.7834 88.4011C79.2614 88.4011 78.7962 88.3105 78.3878 88.1294C77.9795 87.9447 77.6563 87.6731 77.4184 87.3144C77.184 86.9522 77.0668 86.5012 77.0668 85.9614C77.0668 85.5069 77.1503 85.1251 77.3172 84.8162C77.4841 84.5072 77.7113 84.2587 77.999 84.0704C78.2866 83.8822 78.6133 83.7402 78.9791 83.6443C79.3484 83.5484 79.7355 83.481 80.1403 83.4419C80.6162 83.3922 80.9997 83.346 81.2909 83.3034C81.5821 83.2572 81.7934 83.1898 81.9248 83.101C82.0562 83.0122 82.1219 82.8808 82.1219 82.7068V82.6748C82.1219 82.3375 82.0153 82.0765 81.8023 81.8918C81.5927 81.7072 81.2944 81.6148 80.9074 81.6148C80.499 81.6148 80.1741 81.7054 79.9326 81.8865C79.6911 82.0641 79.5313 82.2878 79.4532 82.5577L77.3545 82.3872C77.461 81.89 77.6705 81.4604 77.983 81.0981C78.2955 80.7324 78.6986 80.4518 79.1922 80.2565C79.6893 80.0577 80.2646 79.9582 80.918 79.9582C81.3726 79.9582 81.8076 80.0115 82.2231 80.118C82.6421 80.2246 83.0132 80.3897 83.3363 80.6134C83.6631 80.8371 83.9205 81.1248 84.1087 81.4763C84.2969 81.8244 84.391 82.2416 84.391 82.7281V88.2466H82.239V87.112H82.1751C82.0437 87.3677 81.868 87.5932 81.6478 87.7885C81.4276 87.9802 81.1631 88.1312 80.8541 88.2413C80.5452 88.3478 80.1883 88.4011 79.7834 88.4011ZM80.4333 86.835C80.7671 86.835 81.0618 86.7693 81.3175 86.6379C81.5732 86.503 81.7738 86.3219 81.9194 86.0946C82.065 85.8673 82.1378 85.6099 82.1378 85.3222V84.454C82.0668 84.5001 81.9692 84.5427 81.8449 84.5818C81.7241 84.6173 81.5874 84.6511 81.4347 84.683C81.282 84.7114 81.1293 84.7381 80.9766 84.7629C80.8239 84.7842 80.6854 84.8038 80.5611 84.8215C80.2948 84.8606 80.0622 84.9227 79.8633 85.0079C79.6645 85.0932 79.51 85.2086 79.3999 85.3542C79.2898 85.4962 79.2348 85.6738 79.2348 85.8869C79.2348 86.1958 79.3466 86.432 79.5704 86.5953C79.7976 86.7551 80.0853 86.835 80.4333 86.835ZM88.4207 77.3375V88.2466H86.1515V77.3375H88.4207ZM92.2945 85.8922L92.2999 83.1702H92.6301L95.2509 80.0648H97.8556L94.3347 84.177H93.7967L92.2945 85.8922ZM90.2384 88.2466V77.3375H92.5076V88.2466H90.2384ZM95.3521 88.2466L92.9444 84.683L94.4572 83.0797L98.0101 88.2466H95.3521ZM35.9993 104.401C35.4772 104.401 35.012 104.311 34.6037 104.129C34.1953 103.945 33.8721 103.673 33.6342 103.314C33.3998 102.952 33.2826 102.501 33.2826 101.961C33.2826 101.507 33.3661 101.125 33.533 100.816C33.6999 100.507 33.9272 100.259 34.2148 100.07C34.5025 99.8822 34.8292 99.7402 35.1949 99.6443C35.5642 99.5484 35.9513 99.481 36.3561 99.4419C36.832 99.3922 37.2155 99.346 37.5067 99.3034C37.7979 99.2572 38.0092 99.1898 38.1406 99.101C38.272 99.0122 38.3377 98.8808 38.3377 98.7068V98.6748C38.3377 98.3375 38.2311 98.0765 38.0181 97.8918C37.8086 97.7072 37.5103 97.6148 37.1232 97.6148C36.7148 97.6148 36.3899 97.7054 36.1484 97.8865C35.9069 98.0641 35.7471 98.2878 35.669 98.5577L33.5703 98.3872C33.6768 97.89 33.8863 97.4604 34.1988 97.0981C34.5113 96.7324 34.9144 96.4518 35.408 96.2565C35.9052 96.0577 36.4804 95.9582 37.1338 95.9582C37.5884 95.9582 38.0234 96.0115 38.4389 96.118C38.8579 96.2246 39.229 96.3897 39.5522 96.6134C39.8789 96.8371 40.1363 97.1248 40.3245 97.4763C40.5128 97.8244 40.6069 98.2416 40.6069 98.7281V104.247H38.4549V103.112H38.3909C38.2596 103.368 38.0838 103.593 37.8636 103.788C37.6434 103.98 37.3789 104.131 37.0699 104.241C36.761 104.348 36.4041 104.401 35.9993 104.401ZM36.6491 102.835C36.9829 102.835 37.2777 102.769 37.5333 102.638C37.789 102.503 37.9897 102.322 38.1353 102.095C38.2809 101.867 38.3537 101.61 38.3537 101.322V100.454C38.2826 100.5 38.185 100.543 38.0607 100.582C37.94 100.617 37.8032 100.651 37.6505 100.683C37.4978 100.711 37.3451 100.738 37.1924 100.763C37.0397 100.784 36.9012 100.804 36.777 100.822C36.5106 100.861 36.278 100.923 36.0792 101.008C35.8803 101.093 35.7258 101.209 35.6157 101.354C35.5056 101.496 35.4506 101.674 35.4506 101.887C35.4506 102.196 35.5625 102.432 35.7862 102.595C36.0135 102.755 36.3011 102.835 36.6491 102.835ZM42.4099 104.247V93.3375H44.6791V97.4391H44.7484C44.8478 97.2189 44.9916 96.9952 45.1798 96.7679C45.3716 96.5371 45.6202 96.3453 45.9256 96.1926C46.2345 96.0364 46.618 95.9582 47.0761 95.9582C47.6727 95.9582 48.2232 96.1145 48.7274 96.427C49.2317 96.7359 49.6347 97.2029 49.9366 97.8279C50.2384 98.4494 50.3893 99.2288 50.3893 100.166C50.3893 101.079 50.242 101.85 49.9472 102.478C49.656 103.103 49.2583 103.577 48.7541 103.9C48.2533 104.22 47.6923 104.38 47.0708 104.38C46.6305 104.38 46.2558 104.307 45.9469 104.161C45.6415 104.016 45.3911 103.833 45.1958 103.613C45.0005 103.389 44.8514 103.163 44.7484 102.936H44.6472V104.247H42.4099ZM44.6312 100.156C44.6312 100.642 44.6987 101.067 44.8336 101.429C44.9685 101.791 45.1639 102.073 45.4195 102.276C45.6752 102.475 45.9859 102.574 46.3517 102.574C46.721 102.574 47.0335 102.473 47.2892 102.27C47.5449 102.064 47.7384 101.78 47.8698 101.418C48.0048 101.052 48.0722 100.632 48.0722 100.156C48.0722 99.6834 48.0065 99.2679 47.8751 98.9092C47.7438 98.5506 47.5502 98.27 47.2945 98.0676C47.0389 97.8652 46.7246 97.764 46.3517 97.764C45.9824 97.764 45.6699 97.8616 45.4142 98.057C45.1621 98.2523 44.9685 98.5293 44.8336 98.8879C44.6987 99.2466 44.6312 99.6692 44.6312 100.156ZM55.6002 104.406C54.7728 104.406 54.0572 104.231 53.4535 103.879C52.8534 103.524 52.39 103.03 52.0633 102.398C51.7366 101.763 51.5732 101.026 51.5732 100.188C51.5732 99.3425 51.7366 98.6038 52.0633 97.9717C52.39 97.3361 52.8534 96.8425 53.4535 96.4909C54.0572 96.1358 54.7728 95.9582 55.6002 95.9582C56.4276 95.9582 57.1414 96.1358 57.7415 96.4909C58.3452 96.8425 58.8104 97.3361 59.1371 97.9717C59.4638 98.6038 59.6272 99.3425 59.6272 100.188C59.6272 101.026 59.4638 101.763 59.1371 102.398C58.8104 103.03 58.3452 103.524 57.7415 103.879C57.1414 104.231 56.4276 104.406 55.6002 104.406ZM55.6109 102.649C55.9873 102.649 56.3015 102.542 56.5537 102.329C56.8058 102.112 56.9958 101.818 57.1236 101.445C57.255 101.072 57.3207 100.648 57.3207 100.172C57.3207 99.6958 57.255 99.2714 57.1236 98.8986C56.9958 98.5257 56.8058 98.231 56.5537 98.0143C56.3015 97.7977 55.9873 97.6894 55.6109 97.6894C55.2309 97.6894 54.9113 97.7977 54.652 98.0143C54.3964 98.231 54.2028 98.5257 54.0714 98.8986C53.9436 99.2714 53.8797 99.6958 53.8797 100.172C53.8797 100.648 53.9436 101.072 54.0714 101.445C54.2028 101.818 54.3964 102.112 54.652 102.329C54.9113 102.542 55.2309 102.649 55.6109 102.649ZM66.3495 100.763V96.0648H68.6187V104.247H66.44V102.76H66.3548C66.1702 103.24 65.863 103.625 65.4333 103.916C65.0072 104.208 64.4869 104.353 63.8726 104.353C63.3257 104.353 62.8445 104.229 62.429 103.98C62.0135 103.732 61.6886 103.378 61.4542 102.92C61.2234 102.462 61.1062 101.913 61.1027 101.274V96.0648H63.3719V100.869C63.3754 101.352 63.505 101.734 63.7607 102.015C64.0164 102.295 64.3591 102.436 64.7888 102.436C65.0622 102.436 65.3179 102.373 65.5558 102.249C65.7937 102.121 65.9855 101.933 66.1311 101.684C66.2802 101.436 66.353 101.129 66.3495 100.763ZM74.7857 96.0648V97.7693H69.8585V96.0648H74.7857ZM70.9771 94.1045H73.2462V101.732C73.2462 101.942 73.2782 102.105 73.3421 102.222C73.406 102.336 73.4948 102.416 73.6085 102.462C73.7256 102.508 73.8606 102.531 74.0133 102.531C74.1198 102.531 74.2264 102.523 74.3329 102.505C74.4394 102.483 74.5211 102.467 74.5779 102.457L74.9348 104.145C74.8212 104.181 74.6614 104.222 74.4554 104.268C74.2494 104.318 73.9991 104.348 73.7043 104.358C73.1575 104.38 72.6781 104.307 72.2661 104.14C71.8577 103.973 71.5399 103.714 71.3126 103.362C71.0854 103.011 70.9735 102.567 70.9771 102.031V94.1045Z" fill="black"/>
<path d="M33.377 110.474H39.6348L46.2442 126.599H46.5255L53.1348 110.474H59.3927V134.474H54.4708V118.853H54.2716L48.0606 134.357H44.7091L38.4981 118.794H38.2989V134.474H33.377V110.474ZM63.5733 134.474V110.474H79.7452V114.658H68.6475V120.377H78.9132V124.56H68.6475V130.291H79.7921V134.474H63.5733ZM89.6505 110.474L89.1934 127.279H84.9044L84.4356 110.474H89.6505ZM87.0489 134.779C86.2755 134.779 85.6114 134.505 85.0567 133.959C84.502 133.404 84.2286 132.74 84.2364 131.966C84.2286 131.201 84.502 130.544 85.0567 129.998C85.6114 129.451 86.2755 129.177 87.0489 129.177C87.7911 129.177 88.4434 129.451 89.0059 129.998C89.5684 130.544 89.8536 131.201 89.8614 131.966C89.8536 132.482 89.7169 132.955 89.4512 133.384C89.1934 133.806 88.8536 134.146 88.4317 134.404C88.0098 134.654 87.5489 134.779 87.0489 134.779Z" fill="black"/>
<defs>
<linearGradient id="paint0_linear_7_1322" x1="91.8236" y1="10.8828" x2="98.4447" y2="18.8316" gradientUnits="userSpaceOnUse">
<stop stop-color="#3C9AE8"/>
<stop offset="1" stop-color="#84E2D8"/>
</linearGradient>
</defs>
</svg>
