<svg width="336" height="72" viewBox="0 0 336 72" fill="none" xmlns="http://www.w3.org/2000/svg">
<path fill-rule="evenodd" clip-rule="evenodd" d="M36 72C55.8823 72 72 55.8823 72 36C72 16.1177 55.8823 0 36 0C16.1177 0 0 16.1177 0 36C0 55.8823 16.1177 72 36 72ZM32 56C45.2548 56 56 45.2548 56 32C56 18.7452 45.2548 8 32 8C18.7452 8 8 18.7452 8 32C8 45.2548 18.7452 56 32 56Z" fill="url(#paint0_linear)"/>
<path d="M96 51.3739C96 52.4785 96.8954 53.3739 98 53.3739H102.79C103.895 53.3739 104.79 52.4785 104.79 51.3739V33.3412C104.79 33.2869 104.834 33.2428 104.889 33.2428C104.93 33.2428 104.966 33.2681 104.981 33.3063L112.117 52.0844C112.412 52.8607 113.156 53.3739 113.986 53.3739H116.62C117.451 53.3739 118.195 52.8607 118.49 52.0844L125.625 33.3063C125.64 33.2681 125.677 33.2428 125.717 33.2428C125.772 33.2428 125.816 33.2869 125.816 33.3412V51.3739C125.816 52.4785 126.711 53.3739 127.816 53.3739H132.606C133.711 53.3739 134.606 52.4785 134.606 51.3739V20.6261C134.606 19.5215 133.711 18.6261 132.606 18.6261H124.362C123.523 18.6261 122.773 19.15 122.484 19.938L115.415 39.233C115.398 39.2799 115.353 39.311 115.303 39.311C115.253 39.311 115.209 39.2799 115.191 39.233L108.122 19.938C107.833 19.15 107.083 18.6261 106.244 18.6261H98C96.8954 18.6261 96 19.5215 96 20.6261V51.3739Z" fill="#262626"/>
<path d="M155.798 54C166.465 54 173.094 47.089 173.094 36.012V35.9639C173.094 24.911 166.441 18 155.798 18C145.226 18 138.55 24.887 138.55 35.9639V36.012C138.55 47.113 145.178 54 155.798 54ZM155.798 45.6682C151.569 45.6682 148.813 42.008 148.813 36.012V35.9639C148.813 29.9679 151.593 26.3318 155.798 26.3318C160.074 26.3318 162.83 29.992 162.83 35.9639V36.012C162.83 41.9358 160.146 45.6682 155.798 45.6682Z" fill="#262626"/>
<path d="M177.014 51.3739C177.014 52.4785 177.909 53.3739 179.014 53.3739H185.087C186.191 53.3739 187.087 52.4785 187.087 51.3739V35.4223C187.087 35.3623 187.136 35.3137 187.196 35.3137C187.232 35.3137 187.265 35.3316 187.286 35.3615L198.87 52.4942C199.242 53.0443 199.863 53.3739 200.527 53.3739H205.756C206.861 53.3739 207.756 52.4785 207.756 51.3739V20.6261C207.756 19.5215 206.861 18.6261 205.756 18.6261H199.683C198.578 18.6261 197.683 19.5215 197.683 20.6261V36.2885C197.683 36.3486 197.634 36.3973 197.574 36.3973C197.538 36.3973 197.504 36.3795 197.484 36.3498L185.996 19.4994C185.623 18.953 185.004 18.6261 184.343 18.6261H179.014C177.909 18.6261 177.014 19.5215 177.014 20.6261V51.3739Z" fill="#262626"/>
<path d="M228.924 54C239.591 54 246.22 47.089 246.22 36.012V35.9639C246.22 24.911 239.568 18 228.924 18C218.352 18 211.676 24.887 211.676 35.9639V36.012C211.676 47.113 218.304 54 228.924 54ZM228.924 45.6682C224.695 45.6682 221.939 42.008 221.939 36.012V35.9639C221.939 29.9679 224.719 26.3318 228.924 26.3318C233.201 26.3318 235.956 29.992 235.956 35.9639V36.012C235.956 41.9358 233.272 45.6682 228.924 45.6682Z" fill="#262626"/>
<path d="M250.14 51.3739C250.14 52.4785 251.035 53.3739 252.14 53.3739H258.213C259.318 53.3739 260.213 52.4785 260.213 51.3739V44.9229C260.213 44.4996 260.347 44.0872 260.597 43.7451L261.098 43.0565C261.947 41.8914 263.713 41.9799 264.441 43.2241L269.802 52.3842C270.161 52.9972 270.818 53.3739 271.528 53.3739H278.529C280.091 53.3739 281.05 51.6643 280.236 50.3316L270.984 35.1806C270.562 34.4889 270.599 33.6107 271.078 32.9567L279.241 21.8077C280.209 20.4865 279.265 18.6261 277.628 18.6261H272.024C271.381 18.6261 270.776 18.9359 270.4 19.4586L260.441 33.3109C260.417 33.3437 260.379 33.3632 260.339 33.3632C260.269 33.3632 260.213 33.307 260.213 33.2376V20.6261C260.213 19.5215 259.318 18.6261 258.213 18.6261H252.14C251.035 18.6261 250.14 19.5215 250.14 20.6261V51.3739Z" fill="#262626"/>
<path d="M284.493 51.3739C284.493 52.4785 285.389 53.3739 286.493 53.3739H306.013C307.118 53.3739 308.013 52.4785 308.013 51.3739V47.2829C308.013 46.1784 307.118 45.2829 306.013 45.2829H296.567C295.462 45.2829 294.567 44.3875 294.567 43.2829V20.6261C294.567 19.5215 293.671 18.6261 292.567 18.6261H286.493C285.389 18.6261 284.493 19.5215 284.493 20.6261V51.3739Z" fill="#262626"/>
<path d="M311.815 51.3739C311.815 52.4785 312.71 53.3739 313.815 53.3739H334C335.105 53.3739 336 52.4785 336 51.3739V47.2829C336 46.1784 335.105 45.2829 334 45.2829H323.888C322.783 45.2829 321.888 44.3875 321.888 43.2829V41.7686C321.888 40.664 322.783 39.7686 323.888 39.7686H333.121C334.226 39.7686 335.121 38.8731 335.121 37.7686V34.2555C335.121 33.1509 334.226 32.2555 333.121 32.2555H323.888C322.783 32.2555 321.888 31.3601 321.888 30.2555V28.7171C321.888 27.6125 322.783 26.7171 323.888 26.7171H334C335.105 26.7171 336 25.8216 336 24.7171V20.6261C336 19.5215 335.105 18.6261 334 18.6261H313.815C312.71 18.6261 311.815 19.5215 311.815 20.6261V51.3739Z" fill="#262626"/>
<defs>
<linearGradient id="paint0_linear" x1="13.2" y1="8.16" x2="58.08" y2="62.04" gradientUnits="userSpaceOnUse">
<stop stop-color="#1890FF"/>
<stop offset="1" stop-color="#5CDBD3"/>
</linearGradient>
</defs>
</svg>
