<svg width="197" height="24" viewBox="0 0 197 24" fill="none" xmlns="http://www.w3.org/2000/svg">
<path d="M32.8227 17.1246C32.8227 17.4928 33.1212 17.7913 33.4894 17.7913H35.0861C35.4543 17.7913 35.7528 17.4928 35.7528 17.1246V11.1137C35.7528 11.0956 35.7675 11.0809 35.7856 11.0809C35.7992 11.0809 35.8114 11.0894 35.8163 11.1021L38.1949 17.3615C38.2932 17.6202 38.5412 17.7913 38.8181 17.7913H39.6961C39.9729 17.7913 40.2209 17.6202 40.3192 17.3615L42.6978 11.1021C42.7027 11.0894 42.7149 11.0809 42.7285 11.0809C42.7466 11.0809 42.7613 11.0956 42.7613 11.1137V17.1246C42.7613 17.4928 43.0598 17.7913 43.428 17.7913H45.0248C45.393 17.7913 45.6914 17.4928 45.6914 17.1246V6.87536C45.6914 6.50717 45.393 6.2087 45.0248 6.2087H42.2768C41.997 6.2087 41.747 6.38334 41.6508 6.64601L39.2943 13.0777C39.2886 13.0933 39.2737 13.1037 39.2571 13.1037C39.2404 13.1037 39.2255 13.0933 39.2198 13.0777L36.8633 6.64601C36.7671 6.38334 36.5171 6.2087 36.2374 6.2087H33.4894C33.1212 6.2087 32.8227 6.50717 32.8227 6.87536V17.1246Z" fill="#DBDBDB"/>
<path d="M52.7554 18C56.3111 18 58.5206 15.6963 58.5206 12.004V11.988C58.5206 8.30368 56.3032 6 52.7554 6C49.2313 6 47.006 8.29565 47.006 11.988V12.004C47.006 15.7043 49.2155 18 52.7554 18ZM52.7554 15.2227C51.3458 15.2227 50.4271 14.0027 50.4271 12.004V11.988C50.4271 9.9893 51.3537 8.77726 52.7554 8.77726C54.1808 8.77726 55.0995 9.99732 55.0995 11.988V12.004C55.0995 13.9786 54.2046 15.2227 52.7554 15.2227Z" fill="#DBDBDB"/>
<path d="M59.8273 17.1246C59.8273 17.4928 60.1257 17.7913 60.4939 17.7913H62.5183C62.8865 17.7913 63.185 17.4928 63.185 17.1246V11.8074C63.185 11.7874 63.2012 11.7712 63.2212 11.7712C63.2332 11.7712 63.2445 11.7772 63.2512 11.7872L67.1126 17.4981C67.2366 17.6814 67.4436 17.7913 67.6649 17.7913H69.4081C69.7762 17.7913 70.0747 17.4928 70.0747 17.1246V6.87536C70.0747 6.50717 69.7762 6.2087 69.4081 6.2087H67.3836C67.0155 6.2087 66.717 6.50717 66.717 6.87536V12.0962C66.717 12.1162 66.7007 12.1324 66.6807 12.1324C66.6687 12.1324 66.6575 12.1265 66.6507 12.1166L62.8212 6.49981C62.697 6.31767 62.4908 6.2087 62.2704 6.2087H60.4939C60.1257 6.2087 59.8273 6.50717 59.8273 6.87536V17.1246Z" fill="#DBDBDB"/>
<path d="M77.1308 18C80.6865 18 82.896 15.6963 82.896 12.004V11.988C82.896 8.30368 80.6786 6 77.1308 6C73.6067 6 71.3814 8.29565 71.3814 11.988V12.004C71.3814 15.7043 73.5909 18 77.1308 18ZM77.1308 15.2227C75.7211 15.2227 74.8025 14.0027 74.8025 12.004V11.988C74.8025 9.9893 75.7291 8.77726 77.1308 8.77726C78.5562 8.77726 79.4748 9.99732 79.4748 11.988V12.004C79.4748 13.9786 78.58 15.2227 77.1308 15.2227Z" fill="#DBDBDB"/>
<path d="M84.2026 17.1246C84.2026 17.4928 84.5011 17.7913 84.8693 17.7913H86.8937C87.2619 17.7913 87.5604 17.4928 87.5604 17.1246V14.9743C87.5604 14.8332 87.6051 14.6957 87.6882 14.5817L87.8555 14.3522C88.1385 13.9638 88.7269 13.9933 88.9697 14.408L90.7567 17.4614C90.8763 17.6657 91.0953 17.7913 91.3321 17.7913H93.6658C94.1863 17.7913 94.506 17.2214 94.2347 16.7772L91.1508 11.7269C91.01 11.4963 91.0223 11.2036 91.1819 10.9856L93.9032 7.26923C94.2257 6.82882 93.9112 6.2087 93.3653 6.2087H91.4975C91.2829 6.2087 91.0814 6.31197 90.9562 6.48618L87.6363 11.1036C87.6284 11.1146 87.6157 11.1211 87.6023 11.1211C87.5791 11.1211 87.5604 11.1023 87.5604 11.0792V6.87536C87.5604 6.50717 87.2619 6.2087 86.8937 6.2087H84.8693C84.5011 6.2087 84.2026 6.50717 84.2026 6.87536V17.1246Z" fill="#DBDBDB"/>
<path d="M95.6538 17.1246C95.6538 17.4928 95.9523 17.7913 96.3205 17.7913H102.827C103.195 17.7913 103.494 17.4928 103.494 17.1246V15.761C103.494 15.3928 103.195 15.0943 102.827 15.0943H99.6782C99.3101 15.0943 99.0116 14.7958 99.0116 14.4276V6.87536C99.0116 6.50717 98.7131 6.2087 98.3449 6.2087H96.3205C95.9523 6.2087 95.6538 6.50717 95.6538 6.87536V17.1246Z" fill="#DBDBDB"/>
<path d="M104.761 17.1246C104.761 17.4928 105.059 17.7913 105.428 17.7913H112.156C112.524 17.7913 112.823 17.4928 112.823 17.1246V15.761C112.823 15.3928 112.524 15.0943 112.156 15.0943H108.785C108.417 15.0943 108.119 14.7958 108.119 14.4276V13.9229C108.119 13.5547 108.417 13.2562 108.785 13.2562H111.863C112.231 13.2562 112.53 12.9577 112.53 12.5895V11.4185C112.53 11.0503 112.231 10.7518 111.863 10.7518H108.785C108.417 10.7518 108.119 10.4534 108.119 10.0852V9.57235C108.119 9.20416 108.417 8.90569 108.785 8.90569H112.156C112.524 8.90569 112.823 8.60721 112.823 8.23902V6.87536C112.823 6.50717 112.524 6.2087 112.156 6.2087H105.428C105.059 6.2087 104.761 6.50717 104.761 6.87536V17.1246Z" fill="#DBDBDB"/>
<path fill-rule="evenodd" clip-rule="evenodd" d="M12.8227 24C19.4501 24 24.8227 18.6274 24.8227 12C24.8227 5.37258 19.4501 0 12.8227 0C6.19528 0 0.822693 5.37258 0.822693 12C0.822693 18.6274 6.19528 24 12.8227 24ZM11.4894 18.6667C15.9076 18.6667 19.4894 15.0849 19.4894 10.6667C19.4894 6.24839 15.9076 2.66667 11.4894 2.66667C7.07108 2.66667 3.48936 6.24839 3.48936 10.6667C3.48936 15.0849 7.07108 18.6667 11.4894 18.6667Z" fill="url(#paint0_linear)"/>
<path fill-rule="evenodd" clip-rule="evenodd" d="M20.0519 10.6667C20.0519 15.3956 16.2183 19.2292 11.4894 19.2292C6.76044 19.2292 2.92688 15.3956 2.92688 10.6667C2.92688 5.93775 6.76044 2.10419 11.4894 2.10419C16.2183 2.10419 20.0519 5.93775 20.0519 10.6667ZM19.4894 10.6667C19.4894 15.085 15.9077 18.6667 11.4894 18.6667C7.0711 18.6667 3.48938 15.085 3.48938 10.6667C3.48938 6.24841 7.0711 2.66669 11.4894 2.66669C15.9077 2.66669 19.4894 6.24841 19.4894 10.6667Z" fill="url(#paint1_angular)"/>
<path fill-rule="evenodd" clip-rule="evenodd" d="M24.8227 12C24.8227 18.6274 19.4501 24 12.8227 24C6.19528 24 0.822693 18.6274 0.822693 12C0.822693 5.37258 6.19528 0 12.8227 0C19.4501 0 24.8227 5.37258 24.8227 12ZM24.2487 12C24.2487 18.192 19.0147 23.426 12.8227 23.426C6.63065 23.426 1.39673 18.192 1.39673 12C1.39673 5.80796 6.63065 0.574035 12.8227 0.574035C19.0147 0.574035 24.2487 5.80796 24.2487 12Z" fill="url(#paint2_angular)"/>
<path d="M123.181 18.6388C123.677 18.6388 124.12 18.5226 124.51 18.2901C124.899 18.0513 125.207 17.7309 125.433 17.3288C125.659 16.9204 125.773 16.4649 125.773 15.9623C125.773 15.4597 125.659 15.0073 125.433 14.6052C125.207 14.1968 124.899 13.8764 124.51 13.6439C124.12 13.4052 123.68 13.2858 123.19 13.2858C122.524 13.2858 122 13.4963 121.616 13.9172V11.3915H120.382V18.5257H121.541V17.9508C121.73 18.1707 121.965 18.3404 122.248 18.4597C122.537 18.5791 122.848 18.6388 123.181 18.6388ZM123.039 17.5079C122.769 17.5079 122.524 17.4419 122.304 17.31C122.091 17.178 121.921 16.9958 121.795 16.7634C121.676 16.5309 121.616 16.2639 121.616 15.9623C121.616 15.6607 121.676 15.3937 121.795 15.1612C121.921 14.9288 122.091 14.7466 122.304 14.6146C122.524 14.4827 122.769 14.4167 123.039 14.4167C123.322 14.4167 123.57 14.4858 123.784 14.6241C124.004 14.756 124.177 14.9382 124.302 15.1707C124.428 15.4031 124.491 15.667 124.491 15.9623C124.491 16.2576 124.428 16.5246 124.302 16.7634C124.177 16.9958 124.004 17.178 123.784 17.31C123.57 17.4419 123.322 17.5079 123.039 17.5079Z" fill="#939393"/>
<path d="M127.149 20.6085C127.633 20.6085 128.035 20.4702 128.356 20.1938C128.682 19.9236 128.943 19.5404 129.138 19.044L131.372 13.3989H130.033L128.714 16.933L127.385 13.3989H126.056L128.082 18.5257L127.969 18.799C127.869 19.0126 127.753 19.1854 127.621 19.3173C127.495 19.4493 127.291 19.5153 127.008 19.5153C126.908 19.5153 126.801 19.5058 126.688 19.487C126.575 19.4744 126.474 19.4556 126.386 19.4304V20.4671C126.493 20.5174 126.612 20.5519 126.744 20.5708C126.876 20.5959 127.011 20.6085 127.149 20.6085Z" fill="#939393"/>
<path d="M133.64 18.5257H134.921V16.556L135.864 15.4345L137.749 18.5257H139.257L136.74 14.3885L139.172 11.5046H137.56L134.921 14.6241V11.5046H133.64V18.5257Z" fill="#939393"/>
<path d="M141.666 18.6388C141.987 18.6388 142.27 18.5791 142.515 18.4597C142.766 18.3341 142.964 18.1519 143.108 17.9131V18.5257H144.277V13.3989H143.042V16.4052C143.042 16.7445 142.945 17.0147 142.75 17.2157C142.555 17.4105 142.307 17.5079 142.006 17.5079C141.698 17.5079 141.447 17.4105 141.252 17.2157C141.063 17.021 140.969 16.7602 140.969 16.4335V13.3989H139.734V16.5372C139.734 17.1655 139.904 17.6744 140.243 18.0639C140.589 18.4472 141.063 18.6388 141.666 18.6388Z" fill="#939393"/>
<path d="M148.129 18.6388C148.626 18.6388 149.069 18.5226 149.458 18.2901C149.848 18.0513 150.156 17.7309 150.382 17.3288C150.608 16.9204 150.721 16.4649 150.721 15.9623C150.721 15.4597 150.608 15.0073 150.382 14.6052C150.156 14.1968 149.848 13.8764 149.458 13.6439C149.069 13.4052 148.629 13.2858 148.139 13.2858C147.473 13.2858 146.948 13.4963 146.565 13.9172V11.3915H145.33V18.5257H146.49V17.9508C146.678 18.1707 146.914 18.3404 147.196 18.4597C147.485 18.5791 147.796 18.6388 148.129 18.6388ZM147.988 17.5079C147.718 17.5079 147.473 17.4419 147.253 17.31C147.039 17.178 146.87 16.9958 146.744 16.7634C146.625 16.5309 146.565 16.2639 146.565 15.9623C146.565 15.6607 146.625 15.3937 146.744 15.1612C146.87 14.9288 147.039 14.7466 147.253 14.6146C147.473 14.4827 147.718 14.4167 147.988 14.4167C148.271 14.4167 148.519 14.4858 148.733 14.6241C148.952 14.756 149.125 14.9382 149.251 15.1707C149.376 15.4031 149.439 15.667 149.439 15.9623C149.439 16.2576 149.376 16.5246 149.251 16.7634C149.125 16.9958 148.952 17.178 148.733 17.31C148.519 17.4419 148.271 17.5079 147.988 17.5079Z" fill="#939393"/>
<path d="M153.999 18.6388C154.521 18.6388 154.976 18.5226 155.366 18.2901C155.762 18.0513 156.038 17.7498 156.195 17.3854L155.196 16.8953C155.083 17.0901 154.926 17.2503 154.725 17.3759C154.53 17.4953 154.292 17.555 154.009 17.555C153.638 17.555 153.327 17.4419 153.076 17.2157C152.825 16.9895 152.68 16.688 152.642 16.311H156.337C156.362 16.2419 156.378 16.1634 156.384 16.0754C156.396 15.9812 156.403 15.8869 156.403 15.7927C156.403 15.334 156.305 14.9162 156.111 14.5392C155.916 14.1623 155.633 13.8607 155.262 13.6345C154.892 13.402 154.439 13.2858 153.905 13.2858C153.428 13.2858 152.994 13.402 152.605 13.6345C152.221 13.867 151.917 14.1843 151.691 14.5864C151.471 14.9822 151.361 15.4377 151.361 15.9529C151.361 16.4492 151.471 16.9016 151.691 17.31C151.91 17.7184 152.218 18.0419 152.614 18.2807C153.01 18.5194 153.472 18.6388 153.999 18.6388ZM153.905 14.3036C154.232 14.3036 154.502 14.4042 154.716 14.6052C154.936 14.8 155.058 15.0544 155.083 15.3686H152.671C152.74 15.0293 152.884 14.7686 153.104 14.5864C153.33 14.3979 153.597 14.3036 153.905 14.3036Z" fill="#939393"/>
<path d="M159.195 18.6388C159.585 18.6388 159.924 18.5728 160.213 18.4409C160.502 18.3089 160.728 18.1267 160.891 17.8943C161.055 17.6555 161.137 17.3822 161.137 17.0744C161.137 16.7162 161.023 16.4084 160.797 16.1508C160.571 15.8932 160.244 15.7047 159.817 15.5853L158.997 15.3403C158.821 15.29 158.677 15.2241 158.564 15.1424C158.451 15.0607 158.394 14.9476 158.394 14.8031C158.394 14.6523 158.454 14.5298 158.573 14.4356C158.692 14.3413 158.856 14.2942 159.063 14.2942C159.321 14.2942 159.553 14.3633 159.761 14.5015C159.974 14.6398 160.122 14.8251 160.204 15.0576L161.146 14.6146C160.989 14.2 160.725 13.8764 160.354 13.6439C159.984 13.4052 159.556 13.2858 159.073 13.2858C158.702 13.2858 158.372 13.3518 158.083 13.4837C157.8 13.6157 157.577 13.801 157.414 14.0398C157.257 14.2722 157.178 14.5455 157.178 14.8597C157.178 15.2115 157.288 15.5162 157.508 15.7738C157.734 16.0314 158.064 16.223 158.498 16.3487L159.336 16.5843C159.5 16.6283 159.638 16.6943 159.751 16.7822C159.871 16.8639 159.93 16.977 159.93 17.1215C159.93 17.2911 159.861 17.4262 159.723 17.5267C159.591 17.621 159.415 17.6681 159.195 17.6681C158.906 17.6681 158.645 17.5864 158.413 17.4231C158.18 17.2597 157.995 17.0335 157.857 16.7445L156.933 17.1875C157.084 17.6273 157.361 17.9791 157.763 18.243C158.171 18.5069 158.649 18.6388 159.195 18.6388Z" fill="#939393"/>
<path d="M161.991 18.5257H163.226V15.5194C163.226 15.1864 163.323 14.9194 163.518 14.7183C163.713 14.5173 163.961 14.4167 164.262 14.4167C164.564 14.4167 164.812 14.5173 165.007 14.7183C165.202 14.9131 165.299 15.1801 165.299 15.5194V18.5257H166.534V15.2272C166.534 14.844 166.452 14.5078 166.288 14.2188C166.125 13.9235 165.896 13.6942 165.601 13.5308C165.312 13.3675 164.979 13.2858 164.602 13.2858C164.306 13.2858 164.039 13.3392 163.8 13.446C163.562 13.5466 163.37 13.7005 163.226 13.9078V11.3915H161.991V18.5257Z" fill="#939393"/>
<path d="M169.99 18.6388C170.486 18.6388 170.939 18.5257 171.347 18.2995C171.756 18.0671 172.082 17.7498 172.327 17.3477C172.572 16.9393 172.695 16.4775 172.695 15.9623C172.695 15.4471 172.572 14.9885 172.327 14.5864C172.089 14.1843 171.765 13.867 171.357 13.6345C170.948 13.402 170.493 13.2858 169.99 13.2858C169.481 13.2858 169.023 13.402 168.614 13.6345C168.206 13.867 167.879 14.1843 167.634 14.5864C167.395 14.9885 167.276 15.4471 167.276 15.9623C167.276 16.4775 167.395 16.9361 167.634 17.3382C167.879 17.7403 168.206 18.0576 168.614 18.2901C169.029 18.5226 169.487 18.6388 169.99 18.6388ZM169.99 17.5079C169.714 17.5079 169.465 17.4419 169.246 17.31C169.032 17.178 168.862 16.9958 168.737 16.7634C168.617 16.5246 168.558 16.2576 168.558 15.9623C168.558 15.667 168.617 15.4031 168.737 15.1707C168.862 14.9382 169.032 14.756 169.246 14.6241C169.465 14.4858 169.714 14.4167 169.99 14.4167C170.267 14.4167 170.508 14.4858 170.716 14.6241C170.929 14.756 171.096 14.9382 171.215 15.1707C171.341 15.4031 171.404 15.667 171.404 15.9623C171.404 16.2576 171.341 16.5246 171.215 16.7634C171.096 16.9958 170.929 17.178 170.716 17.31C170.508 17.4419 170.267 17.5079 169.99 17.5079Z" fill="#939393"/>
<path d="M173.537 20.4106H174.771V18.0356C174.96 18.2304 175.189 18.3812 175.459 18.488C175.73 18.5885 176.022 18.6388 176.336 18.6388C176.832 18.6388 177.275 18.5226 177.665 18.2901C178.054 18.0513 178.362 17.7309 178.588 17.3288C178.814 16.9204 178.928 16.4649 178.928 15.9623C178.928 15.4597 178.814 15.0073 178.588 14.6052C178.362 14.1968 178.054 13.8764 177.665 13.6439C177.275 13.4052 176.835 13.2858 176.345 13.2858C175.993 13.2858 175.676 13.3486 175.393 13.4743C175.111 13.6 174.878 13.7759 174.696 14.0021V13.3989H173.537V20.4106ZM176.194 17.5079C175.924 17.5079 175.679 17.4419 175.459 17.31C175.246 17.178 175.076 16.9958 174.95 16.7634C174.831 16.5309 174.771 16.2639 174.771 15.9623C174.771 15.6607 174.831 15.3937 174.95 15.1612C175.076 14.9288 175.246 14.7466 175.459 14.6146C175.679 14.4827 175.924 14.4167 176.194 14.4167C176.477 14.4167 176.725 14.4858 176.939 14.6241C177.159 14.756 177.332 14.9382 177.457 15.1707C177.583 15.4031 177.646 15.667 177.646 15.9623C177.646 16.2576 177.583 16.5246 177.457 16.7634C177.332 16.9958 177.159 17.178 176.939 17.31C176.725 17.4419 176.477 17.5079 176.194 17.5079Z" fill="#939393"/>
<path d="M193.956 11.1121L196.068 14.8963L192.148 12.9201L190.172 9L193.956 11.1121Z" fill="#5A5A5A"/>
<path d="M192.148 12.9201L195.029 18.5553L189.121 15.9466L186.513 10.0396L192.148 12.9201Z" fill="#5A5A5A"/>
<path d="M186.515 10.0374L189.121 15.9466L184.015 21.0527L182.089 14.7356L186.515 10.0374Z" fill="white"/>
<path d="M190.172 9L192.146 12.9216L188.334 10.9711L190.172 9Z" fill="white"/>
<path d="M196.068 14.8963L192.146 12.9216L195.06 15.8354L196.068 14.8963Z" fill="#303030"/>
<path d="M195.06 15.8354L192.146 12.9216L194.096 16.729L195.06 15.8354Z" fill="#1F1F1F"/>
<path d="M189.121 15.9466L195.031 18.5532L190.312 23L183.995 21.0732L189.121 15.9466Z" fill="#303030"/>
<defs>
<linearGradient id="paint0_linear" x1="5.22269" y1="2.72" x2="20.1827" y2="20.68" gradientUnits="userSpaceOnUse">
<stop stop-color="#1890FF"/>
<stop offset="1" stop-color="#5CDBD3"/>
</linearGradient>
<radialGradient id="paint1_angular" cx="0" cy="0" r="1" gradientUnits="userSpaceOnUse" gradientTransform="translate(11.537 10.7143) rotate(-134.021) scale(8.86538)">
<stop offset="0.000991449" stop-color="#2470B0"/>
<stop offset="0.171248" stop-color="#3387CC"/>
<stop offset="0.394109" stop-color="#6BE3E1"/>
<stop offset="0.495883" stop-color="#DBFDFF"/>
<stop offset="0.596365" stop-color="#75E8E6"/>
<stop offset="0.861933" stop-color="#3588D1"/>
</radialGradient>
<radialGradient id="paint2_angular" cx="0" cy="0" r="1" gradientUnits="userSpaceOnUse" gradientTransform="translate(12.8227 12) rotate(-143.381) scale(12.2144 12.0617)">
<stop offset="0.0260417" stop-color="#CDE8FF"/>
<stop offset="0.0824362" stop-color="#55B0FF"/>
<stop offset="0.205491" stop-color="#30ABF0"/>
<stop offset="0.421099" stop-color="#3DB0BE"/>
<stop offset="0.510897" stop-color="#46AEAB"/>
<stop offset="0.611677" stop-color="#3CAFBC"/>
<stop offset="0.968736" stop-color="#52AEFF"/>
</radialGradient>
</defs>
</svg>
