<svg id="TESTKUBE_logos" data-name="TESTKUBE logos" xmlns="http://www.w3.org/2000/svg" xmlns:xlink="http://www.w3.org/1999/xlink" width="450" height="140" viewBox="0 0 450 140"><defs><style>.cls-1{fill:none;}.cls-2{fill:#fff;}.cls-3,.cls-4,.cls-5{fill-rule:evenodd;}.cls-3{fill:url(#linear-gradient);}.cls-4{fill:url(#radial-gradient);}.cls-5{fill:url(#radial-gradient-2);}</style><linearGradient id="linear-gradient" x1="-3061.56" y1="-444.25" x2="-3018.63" y2="-495.41" gradientTransform="matrix(0, 1, 1, 0, 555.39, 3115.61)" gradientUnits="userSpaceOnUse"><stop offset="0" stop-color="#3085d4"/><stop offset="1" stop-color="#69c5c3"/></linearGradient><radialGradient id="radial-gradient" cx="-1323.12" cy="170.49" r="0.96" gradientTransform="matrix(19.12, -18.48, -18.48, -19.12, 28541.26, -21118.57)" gradientUnits="userSpaceOnUse"><stop offset="0" stop-color="#3085d4"/><stop offset="0.17" stop-color="#3085d4"/><stop offset="0.39" stop-color="#69c5c3"/><stop offset="0.5" stop-color="#6aa2d6"/><stop offset="0.6" stop-color="#69c5c3"/><stop offset="0.86" stop-color="#3085d4"/></radialGradient><radialGradient id="radial-gradient-2" cx="-1324.54" cy="150.15" r="0.96" gradientTransform="matrix(21.86, -29.41, -29.04, -21.58, 33399.25, -35637.14)" gradientUnits="userSpaceOnUse"><stop offset="0.03" stop-color="#6aa2d6"/><stop offset="0.08" stop-color="#6aa2d6"/><stop offset="0.21" stop-color="#6aa2d6"/><stop offset="0.42" stop-color="#69c5c3"/><stop offset="0.51" stop-color="#69c5c3"/><stop offset="0.61" stop-color="#69c5c3"/><stop offset="0.97" stop-color="#6aa2d6"/></radialGradient></defs><rect class="cls-1" width="450" height="140"/><path class="cls-2" d="M185.6,62.3h0a12.64,12.64,0,0,0-6.2-1.5,14.5,14.5,0,0,0-7,1.7,10.11,10.11,0,0,0-2.8,2.2,10.44,10.44,0,0,0-2.8-2.3,12.64,12.64,0,0,0-6.2-1.5,12.22,12.22,0,0,0-6.4,1.7l-.9.6a5.5,5.5,0,0,0-.7-.9,3.93,3.93,0,0,0-2.8-1.1,3.69,3.69,0,0,0-2.7,1.1,3.93,3.93,0,0,0-1.1,2.8V90.3a4.11,4.11,0,0,0,1.1,2.8,4.11,4.11,0,0,0,5.6,0,3.86,3.86,0,0,0,1.1-2.7V74.2a5.88,5.88,0,0,1,1.7-4.5,5.3,5.3,0,0,1,4.1-1.7,5.64,5.64,0,0,1,3.9,1.4A6.21,6.21,0,0,1,165,74V90.2a4.11,4.11,0,0,0,1.1,2.8,4.11,4.11,0,0,0,5.6,0,3.86,3.86,0,0,0,1.1-2.7V74.2a6.05,6.05,0,0,1,1.6-4.5,5.16,5.16,0,0,1,4.1-1.7,5.64,5.64,0,0,1,3.9,1.4,6.21,6.21,0,0,1,1.5,4.6V90.2A4.11,4.11,0,0,0,185,93a4.11,4.11,0,0,0,5.6,0,3.86,3.86,0,0,0,1.1-2.7V74a15.8,15.8,0,0,0-1.5-7.1A13.49,13.49,0,0,0,185.6,62.3Z"/><path class="cls-2" d="M223.7,63h0a17,17,0,0,0-8.5-2.1,17.39,17.39,0,0,0-8.6,2.1,15.21,15.21,0,0,0-5.9,5.9,18.86,18.86,0,0,0,0,17.3,15.21,15.21,0,0,0,5.9,5.9,18.66,18.66,0,0,0,17.2,0,15.21,15.21,0,0,0,5.9-5.9,17.39,17.39,0,0,0,2.1-8.6,17.78,17.78,0,0,0-2.1-8.7A16.17,16.17,0,0,0,223.7,63Zm-3.8,22.9a8.88,8.88,0,0,1-4.7,1.2,9.13,9.13,0,0,1-4.7-1.2,8.76,8.76,0,0,1-3.2-3.4,11,11,0,0,1,0-10,9.52,9.52,0,0,1,3.2-3.4,8.88,8.88,0,0,1,4.7-1.2,9.13,9.13,0,0,1,4.7,1.2,8.76,8.76,0,0,1,3.2,3.4,10.67,10.67,0,0,1,1.2,5.1,10,10,0,0,1-1.2,5h0A8.46,8.46,0,0,1,219.9,85.9Z"/><path class="cls-2" d="M263.4,62.6h0a15.29,15.29,0,0,0-7.4-1.8,14.52,14.52,0,0,0-7.2,1.8c-.6.3-1.1.7-1.6,1a4.19,4.19,0,0,0-.9-1.4,3.93,3.93,0,0,0-2.8-1.1,3.69,3.69,0,0,0-2.7,1.1,3.93,3.93,0,0,0-1.1,2.8V90.2a4.11,4.11,0,0,0,1.1,2.8,4.11,4.11,0,0,0,5.6,0,3.86,3.86,0,0,0,1.1-2.7V74.2a4.8,4.8,0,0,1,1-3.1,8.68,8.68,0,0,1,2.7-2.3,8,8,0,0,1,3.9-.9,9.28,9.28,0,0,1,4.2.9,6.39,6.39,0,0,1,2.8,2.6,9.47,9.47,0,0,1,1.1,4.8V90.1a4.11,4.11,0,0,0,1.1,2.8,3.93,3.93,0,0,0,2.8,1.1,4.11,4.11,0,0,0,2.8-1.1,3.93,3.93,0,0,0,1.1-2.8V76.3a16.83,16.83,0,0,0-1.9-8.4A17.81,17.81,0,0,0,263.4,62.6Z"/><path class="cls-2" d="M302.9,63h0a17,17,0,0,0-8.5-2.1,17.39,17.39,0,0,0-8.6,2.1,15.21,15.21,0,0,0-5.9,5.9,18.86,18.86,0,0,0,0,17.3,15.21,15.21,0,0,0,5.9,5.9,18.66,18.66,0,0,0,17.2,0,15.21,15.21,0,0,0,5.9-5.9,17.39,17.39,0,0,0,2.1-8.6,17.78,17.78,0,0,0-2.1-8.7A16.17,16.17,0,0,0,302.9,63Zm-3.8,22.9a8.88,8.88,0,0,1-4.7,1.2,9.13,9.13,0,0,1-4.7-1.2,8.76,8.76,0,0,1-3.2-3.4,11,11,0,0,1,0-10,9.52,9.52,0,0,1,3.2-3.4,8.88,8.88,0,0,1,4.7-1.2,9.13,9.13,0,0,1,4.7,1.2,8.76,8.76,0,0,1,3.2,3.4,10.67,10.67,0,0,1,1.2,5.1,10,10,0,0,1-1.2,5h0A8.46,8.46,0,0,1,299.1,85.9Z"/><path class="cls-2" d="M333.6,75.6l9.7-8.6a3.17,3.17,0,0,0,1.2-2.5,3.31,3.31,0,0,0-1-2.6,3.51,3.51,0,0,0-5.1-.2L326.3,72.5V51.6a3.8,3.8,0,1,0-7.6,0V90.2a3.8,3.8,0,1,0,7.6,0V82l1.7-1.5L338.1,93a3.75,3.75,0,0,0,2.5,1.4h.3a3.58,3.58,0,0,0,2.4-.9,3.4,3.4,0,0,0,1.4-2.5,3.56,3.56,0,0,0-.9-2.7Z"/><path class="cls-2" d="M362,86.4h-1.4c-.3,0-.7-.1-1.2-.9a6,6,0,0,1-.7-3V51.7a3.8,3.8,0,1,0-7.6,0V82.6a13.36,13.36,0,0,0,1.2,5.8,10.35,10.35,0,0,0,3.3,4.1,8.45,8.45,0,0,0,5,1.5h.1a5.48,5.48,0,0,0,3.4-1,3.34,3.34,0,0,0,1.5-2.8,3.62,3.62,0,0,0-1-2.7A3.27,3.27,0,0,0,362,86.4Z"/><path class="cls-2" d="M398.4,79.5a3.32,3.32,0,0,0,1-2.5,18.42,18.42,0,0,0-1.8-8.3,13.88,13.88,0,0,0-5.2-5.8,15.27,15.27,0,0,0-8.1-2.1,16.63,16.63,0,0,0-8.4,2.1,15.65,15.65,0,0,0-5.8,5.9,17.39,17.39,0,0,0-2.1,8.6,16.44,16.44,0,0,0,2.2,8.6,15.73,15.73,0,0,0,6.1,5.9,18.17,18.17,0,0,0,8.8,2.1,17.7,17.7,0,0,0,5.8-1,20.28,20.28,0,0,0,5.1-2.6,3.23,3.23,0,0,0,1.3-2.6,4,4,0,0,0-1.4-2.6,3.07,3.07,0,0,0-2.4-.8,4.07,4.07,0,0,0-2.4.8,11.28,11.28,0,0,1-2.7,1.4,9.6,9.6,0,0,1-3.3.6,9.8,9.8,0,0,1-5.2-1.3,9.06,9.06,0,0,1-3.5-3.5,6.67,6.67,0,0,1-.9-2.1h20.3A2.7,2.7,0,0,0,398.4,79.5Zm-14-11.8a8.32,8.32,0,0,1,4.3,1.1,7.36,7.36,0,0,1,2.7,3.1,10.33,10.33,0,0,1,.7,2.1H375.7c.2-.6.4-1.1.6-1.6a8.08,8.08,0,0,1,3.1-3.5A9.49,9.49,0,0,1,384.4,67.7Z"/><g id="Ring"><path class="cls-3" d="M50.6,76.1A34.3,34.3,0,1,0,84.9,41.8,34.36,34.36,0,0,0,50.6,76.1Zm15.3-3.9A22.9,22.9,0,1,0,88.8,49.3h0A23,23,0,0,0,65.9,72.2Z"/><path class="cls-4" d="M88.7,96.7a24.5,24.5,0,1,1,24.5-24.5h0A24.48,24.48,0,0,1,88.7,96.7Zm0-1.6a22.9,22.9,0,1,1,22.9-22.9h0A22.9,22.9,0,0,1,88.7,95.1Z"/><path class="cls-5" d="M84.9,110.4a34.3,34.3,0,1,1,34.3-34.3h0a34.36,34.36,0,0,1-34.3,34.3Zm0-1.7c-17.7,0-32.7-15-32.7-32.7s15-32.6,32.7-32.6,32.7,15,32.7,32.6S102.6,108.7,84.9,108.7Z"/></g></svg>