<svg width="12" height="10" viewBox="0 0 12 10" fill="none" xmlns="http://www.w3.org/2000/svg">
<path d="M0.367187 1.71875C0.367187 2.56367 1.05352 3.25 1.89844 3.25C2.55059 3.25 3.1084 2.84121 3.32852 2.26562L3.70586 2.26562L7.22227 5L3.70586 7.73437L3.32852 7.73437C3.1084 7.15879 2.55059 6.75 1.89844 6.75C1.05352 6.75 0.367187 7.43633 0.367187 8.28125C0.367187 9.12617 1.05352 9.8125 1.89844 9.8125C2.59023 9.8125 3.17676 9.35039 3.36543 8.71875L3.83574 8.71875C3.96836 8.71875 4.09961 8.67363 4.20488 8.5916L8.1916 5.49219L8.65098 5.49219C8.85606 6.09648 9.42891 6.53125 10.1016 6.53125C10.9465 6.53125 11.6328 5.84492 11.6328 5C11.6328 4.15508 10.9465 3.46875 10.1016 3.46875C9.42891 3.46875 8.85742 3.90352 8.65098 4.50781L8.1916 4.50781L4.20488 1.4084C4.09961 1.32637 3.96836 1.28125 3.83574 1.28125L3.36543 1.28125C3.17676 0.649609 2.59023 0.1875 1.89844 0.1875C1.05352 0.1875 0.367187 0.873828 0.367187 1.71875ZM1.89844 8.9375C1.72671 8.93399 1.5632 8.86331 1.44299 8.74062C1.32278 8.61794 1.25545 8.45301 1.25545 8.28125C1.25545 8.10949 1.32278 7.94456 1.44299 7.82188C1.5632 7.69919 1.72671 7.62851 1.89844 7.625C2.07017 7.62851 2.23368 7.69919 2.35389 7.82188C2.4741 7.94456 2.54143 8.10949 2.54143 8.28125C2.54143 8.45301 2.4741 8.61794 2.35389 8.74062C2.23368 8.86331 2.07017 8.93399 1.89844 8.9375ZM10.1016 4.34375C10.2733 4.34726 10.4368 4.41794 10.557 4.54063C10.6772 4.66331 10.7446 4.82824 10.7446 5C10.7446 5.17176 10.6772 5.33669 10.557 5.45937C10.4368 5.58206 10.2733 5.65274 10.1016 5.65625C9.92983 5.65274 9.76632 5.58206 9.64611 5.45937C9.5259 5.33669 9.45857 5.17176 9.45857 5C9.45857 4.82824 9.5259 4.66331 9.64611 4.54063C9.76632 4.41794 9.92983 4.34726 10.1016 4.34375ZM2.55469 1.71875C2.55118 1.89048 2.4805 2.05399 2.35781 2.1742C2.23512 2.29441 2.0702 2.36174 1.89844 2.36174C1.72667 2.36174 1.56175 2.29441 1.43906 2.1742C1.31637 2.05399 1.24569 1.89048 1.24219 1.71875C1.24569 1.54702 1.31637 1.38351 1.43906 1.2633C1.56175 1.14309 1.72667 1.07576 1.89844 1.07576C2.0702 1.07576 2.23512 1.14309 2.35781 1.2633C2.4805 1.38351 2.55118 1.54702 2.55469 1.71875Z" fill="#B7E3FA"/>
</svg>
