<svg width="12" height="10" viewBox="0 0 12 10" fill="none" xmlns="http://www.w3.org/2000/svg">
<path d="M11.1996 9.03125L6.32463 0.59375C6.25198 0.468359 6.12658 0.40625 6.00002 0.40625C5.87346 0.40625 5.7469 0.468359 5.67541 0.59375L0.800413 9.03125C0.656272 9.28203 0.836741 9.59375 1.12502 9.59375H10.875C11.1633 9.59375 11.3438 9.28203 11.1996 9.03125ZM5.62502 3.875C5.62502 3.82344 5.66721 3.78125 5.71877 3.78125H6.28127C6.33283 3.78125 6.37502 3.82344 6.37502 3.875V6.03125C6.37502 6.08281 6.33283 6.125 6.28127 6.125H5.71877C5.66721 6.125 5.62502 6.08281 5.62502 6.03125V3.875ZM6.00002 8C5.85283 7.997 5.71267 7.93641 5.60963 7.83125C5.5066 7.72609 5.44889 7.58473 5.44889 7.4375C5.44889 7.29027 5.5066 7.14891 5.60963 7.04375C5.71267 6.93859 5.85283 6.878 6.00002 6.875C6.14722 6.878 6.28737 6.93859 6.39041 7.04375C6.49345 7.14891 6.55116 7.29027 6.55116 7.4375C6.55116 7.58473 6.49345 7.72609 6.39041 7.83125C6.28737 7.93641 6.14722 7.997 6.00002 8Z" fill="#E8D639"/>
</svg>
