<svg width="12" height="10" viewBox="0 0 12 10" fill="none" xmlns="http://www.w3.org/2000/svg">
<path d="M11.6328 8.28125C11.6328 7.43633 10.9465 6.75 10.1016 6.75C9.44941 6.75 8.8916 7.15879 8.67148 7.73437L8.29414 7.73437L4.77773 5L8.29414 2.26562L8.67148 2.26562C8.8916 2.84121 9.44941 3.25 10.1016 3.25C10.9465 3.25 11.6328 2.56367 11.6328 1.71875C11.6328 0.873828 10.9465 0.1875 10.1016 0.1875C9.40977 0.1875 8.82324 0.649609 8.63457 1.28125L8.16426 1.28125C8.03164 1.28125 7.90039 1.32637 7.79512 1.4084L3.8084 4.50781L3.34902 4.50781C3.14394 3.90352 2.57109 3.46875 1.89844 3.46875C1.05352 3.46875 0.367187 4.15508 0.367187 5C0.367187 5.84492 1.05352 6.53125 1.89844 6.53125C2.57109 6.53125 3.14258 6.09648 3.34902 5.49219L3.8084 5.49219L7.79512 8.5916C7.90039 8.67363 8.03164 8.71875 8.16426 8.71875L8.63457 8.71875C8.82324 9.35039 9.40977 9.8125 10.1016 9.8125C10.9465 9.8125 11.6328 9.12617 11.6328 8.28125ZM10.1016 1.0625C10.2733 1.06601 10.4368 1.13669 10.557 1.25938C10.6772 1.38206 10.7446 1.54699 10.7446 1.71875C10.7446 1.89051 10.6772 2.05544 10.557 2.17812C10.4368 2.30081 10.2733 2.37149 10.1016 2.375C9.92983 2.37149 9.76632 2.30081 9.64611 2.17812C9.5259 2.05544 9.45857 1.89051 9.45857 1.71875C9.45857 1.54699 9.5259 1.38206 9.64611 1.25938C9.76632 1.13669 9.92983 1.06601 10.1016 1.0625ZM1.89844 5.65625C1.72671 5.65274 1.5632 5.58206 1.44299 5.45937C1.32278 5.33669 1.25545 5.17176 1.25545 5C1.25545 4.82824 1.32278 4.66331 1.44299 4.54063C1.5632 4.41794 1.72671 4.34726 1.89844 4.34375C2.07017 4.34726 2.23368 4.41794 2.35389 4.54063C2.4741 4.66331 2.54143 4.82824 2.54143 5C2.54143 5.17176 2.4741 5.33669 2.35389 5.45937C2.23368 5.58206 2.07017 5.65274 1.89844 5.65625ZM9.44531 8.28125C9.44882 8.10952 9.5195 7.94601 9.64219 7.8258C9.76488 7.70559 9.9298 7.63826 10.1016 7.63826C10.2733 7.63826 10.4382 7.70559 10.5609 7.8258C10.6836 7.94601 10.7543 8.10952 10.7578 8.28125C10.7543 8.45298 10.6836 8.61649 10.5609 8.7367C10.4382 8.85691 10.2733 8.92424 10.1016 8.92424C9.9298 8.92424 9.76488 8.85691 9.64219 8.7367C9.5195 8.61649 9.44882 8.45298 9.44531 8.28125Z" fill="#B7E3FA"/>
</svg>
