<?xml version="1.0" encoding="utf-8"?>
<!-- Generator: Adobe Illustrator 23.0.5, SVG Export Plug-In . SVG Version: 6.00 Build 0)  -->
<svg version="1.1" id="TESTKUBE_logos" xmlns="http://www.w3.org/2000/svg" xmlns:xlink="http://www.w3.org/1999/xlink" x="0px"
	 y="0px" viewBox="0 0 450 120" style="enable-background:new 0 0 450 120;" xml:space="preserve">
<style type="text/css">
	.st0{fill-rule:evenodd;clip-rule:evenodd;fill:url(#SVGID_1_);}
	.st1{fill-rule:evenodd;clip-rule:evenodd;fill:url(#SVGID_2_);}
	.st2{fill-rule:evenodd;clip-rule:evenodd;fill:url(#SVGID_3_);}
</style>
<g>
	<g>
		<path d="M185.6,62.3L185.6,62.3c-1.8-1-3.9-1.5-6.2-1.5c-2.6,0-5,0.6-7,1.7c-1.1,0.6-2,1.3-2.8,2.2c-0.8-0.9-1.7-1.7-2.8-2.3
			c-1.8-1-3.9-1.5-6.2-1.5c-2.4,0-4.6,0.6-6.4,1.7c-0.3,0.2-0.6,0.4-0.9,0.6c-0.2-0.3-0.4-0.6-0.7-0.9c-0.7-0.7-1.7-1.1-2.8-1.1
			c-1.1,0-2,0.4-2.7,1.1c-0.7,0.7-1.1,1.7-1.1,2.8v25.2c0,1.1,0.4,2,1.1,2.8c0.7,0.7,1.7,1.1,2.8,1.1c1.1,0,2.1-0.4,2.8-1.1
			c0.7-0.7,1.1-1.7,1.1-2.7V74.2c0-1.9,0.5-3.3,1.7-4.5c1.1-1.2,2.5-1.7,4.1-1.7c1.6,0,2.9,0.5,3.9,1.4c1,1,1.5,2.5,1.5,4.6v16.2
			c0,1.1,0.4,2,1.1,2.8c0.7,0.7,1.7,1.1,2.8,1.1c1.1,0,2.1-0.4,2.8-1.1c0.7-0.7,1.1-1.7,1.1-2.7V74.2c0-1.9,0.5-3.4,1.6-4.5
			c1.1-1.2,2.4-1.7,4.1-1.7c1.6,0,2.9,0.5,3.9,1.4c1,1,1.5,2.5,1.5,4.6v16.2c0,1.1,0.4,2,1.1,2.8c0.7,0.7,1.7,1.1,2.8,1.1
			c1.1,0,2.1-0.4,2.8-1.1c0.7-0.7,1.1-1.7,1.1-2.7V74c0-2.7-0.5-5.1-1.5-7.1C188.9,64.9,187.5,63.4,185.6,62.3z"/>
		<path d="M223.7,63L223.7,63c-2.5-1.4-5.3-2.1-8.5-2.1c-3.2,0-6.1,0.7-8.6,2.1c-2.5,1.4-4.5,3.4-5.9,5.9c-1.4,2.5-2.1,5.4-2.1,8.7
			c0,3.2,0.7,6.1,2.1,8.6c1.4,2.5,3.4,4.5,5.9,5.9c2.5,1.4,5.4,2.1,8.6,2.1c3.2,0,6.1-0.7,8.6-2.1c2.5-1.4,4.5-3.4,5.9-5.9
			c1.4-2.5,2.1-5.4,2.1-8.6c0-3.2-0.7-6.2-2.1-8.7C228.2,66.4,226.2,64.4,223.7,63z M219.9,85.9c-1.3,0.8-2.9,1.2-4.7,1.2
			c-1.8,0-3.3-0.4-4.7-1.2c-1.3-0.8-2.4-1.9-3.2-3.4c-0.8-1.4-1.2-3.1-1.2-5c0-1.9,0.4-3.6,1.2-5c0.8-1.4,1.9-2.6,3.2-3.4
			c1.3-0.8,2.9-1.2,4.7-1.2c1.8,0,3.3,0.4,4.7,1.2c1.3,0.8,2.4,1.9,3.2,3.4c0.8,1.5,1.2,3.2,1.2,5.1c0,1.9-0.4,3.6-1.2,5v0
			C222.3,84,221.3,85.1,219.9,85.9z"/>
		<path d="M263.4,62.6L263.4,62.6c-2.2-1.2-4.7-1.8-7.4-1.8c-2.6,0-5.1,0.6-7.2,1.8c-0.6,0.3-1.1,0.7-1.6,1c-0.2-0.5-0.5-1-0.9-1.4
			c-0.7-0.7-1.7-1.1-2.8-1.1c-1.1,0-2,0.4-2.7,1.1c-0.7,0.7-1.1,1.7-1.1,2.8v25.2c0,1.1,0.4,2,1.1,2.8c0.7,0.7,1.7,1.1,2.8,1.1
			c1.1,0,2.1-0.4,2.8-1.1c0.7-0.7,1.1-1.7,1.1-2.7V74.2c0-1.2,0.3-2.2,1-3.1c0.7-0.9,1.6-1.7,2.7-2.3c1.1-0.6,2.4-0.9,3.9-0.9
			c1.6,0,3,0.3,4.2,0.9c1.2,0.6,2.1,1.4,2.8,2.6c0.7,1.2,1.1,2.8,1.1,4.8v13.9c0,1.1,0.4,2,1.1,2.8c0.7,0.7,1.7,1.1,2.8,1.1
			c1.1,0,2-0.4,2.8-1.1c0.7-0.7,1.1-1.7,1.1-2.8V76.3c0-3.3-0.6-6.1-1.9-8.4C267.4,65.6,265.6,63.8,263.4,62.6z"/>
		<path d="M302.9,63L302.9,63c-2.5-1.4-5.3-2.1-8.5-2.1c-3.2,0-6.1,0.7-8.6,2.1c-2.5,1.4-4.5,3.4-5.9,5.9c-1.4,2.5-2.1,5.4-2.1,8.7
			c0,3.2,0.7,6.1,2.1,8.6c1.4,2.5,3.4,4.5,5.9,5.9c2.5,1.4,5.4,2.1,8.6,2.1c3.2,0,6.1-0.7,8.6-2.1c2.5-1.4,4.5-3.4,5.9-5.9
			c1.4-2.5,2.1-5.4,2.1-8.6c0-3.2-0.7-6.2-2.1-8.7C307.4,66.4,305.4,64.4,302.9,63z M299.1,85.9c-1.3,0.8-2.9,1.2-4.7,1.2
			c-1.8,0-3.3-0.4-4.7-1.2c-1.3-0.8-2.4-1.9-3.2-3.4c-0.8-1.4-1.2-3.1-1.2-5c0-1.9,0.4-3.6,1.2-5c0.8-1.4,1.9-2.6,3.2-3.4
			c1.3-0.8,2.9-1.2,4.7-1.2s3.3,0.4,4.7,1.2c1.3,0.8,2.4,1.9,3.2,3.4c0.8,1.5,1.2,3.2,1.2,5.1c0,1.9-0.4,3.6-1.2,5v0
			C301.5,84,300.5,85.1,299.1,85.9z"/>
		<path d="M333.6,75.6l9.7-8.6c0.8-0.7,1.2-1.5,1.2-2.5c0.1-1-0.3-1.8-1-2.6c-0.7-0.8-1.5-1.2-2.5-1.2c-1-0.1-1.9,0.3-2.6,1
			l-12.1,10.8V51.6c0-1.1-0.4-2-1.1-2.7c-0.7-0.7-1.6-1.1-2.7-1.1c-1.1,0-2,0.4-2.7,1.1c-0.7,0.7-1.1,1.6-1.1,2.7v38.6
			c0,1.1,0.4,2,1.1,2.7c0.7,0.7,1.6,1.1,2.7,1.1c1.1,0,2-0.4,2.7-1.1c0.7-0.7,1.1-1.6,1.1-2.7V82l1.7-1.5L338.1,93
			c0.7,0.8,1.5,1.3,2.5,1.4c0.1,0,0.2,0,0.3,0c0.9,0,1.7-0.3,2.4-0.9c0.9-0.7,1.3-1.5,1.4-2.5c0.1-1-0.2-1.8-0.9-2.7L333.6,75.6z"/>
		<path d="M362,86.4h-1.4c-0.3,0-0.7-0.1-1.2-0.9c-0.4-0.7-0.7-1.7-0.7-3V51.7c0-1.1-0.4-2-1.1-2.7c-0.7-0.7-1.6-1.1-2.7-1.1
			s-2,0.4-2.7,1.1c-0.7,0.7-1.1,1.6-1.1,2.7v30.9c0,2.2,0.4,4.1,1.2,5.8c0.8,1.7,1.9,3.1,3.3,4.1c1.4,1,3.1,1.5,5,1.5h0.1
			c1.3,0,2.5-0.3,3.4-1c1-0.7,1.5-1.7,1.5-2.8c0-1.1-0.3-2-1-2.7C363.9,86.7,363,86.4,362,86.4z"/>
		<path d="M398.4,79.5c0.7-0.7,1-1.5,1-2.5c0-3.1-0.6-5.9-1.8-8.3c-1.2-2.4-2.9-4.4-5.2-5.8c-2.3-1.4-5-2.1-8.1-2.1
			c-3.1,0-6,0.7-8.4,2.1c-2.4,1.4-4.4,3.4-5.8,5.9c-1.4,2.5-2.1,5.4-2.1,8.6c0,3.2,0.7,6.1,2.2,8.6c1.5,2.5,3.5,4.5,6.1,5.9
			c2.6,1.4,5.5,2.1,8.8,2.1c1.8,0,3.8-0.3,5.8-1c2-0.7,3.7-1.6,5.1-2.6c1.1-0.9,1.3-1.9,1.3-2.6c-0.1-0.9-0.5-1.8-1.4-2.6
			c-0.7-0.6-1.5-0.9-2.4-0.8c-0.9,0-1.7,0.3-2.4,0.8c-0.7,0.5-1.6,1-2.7,1.4c-1.1,0.4-2.2,0.6-3.3,0.6c-2,0-3.7-0.4-5.2-1.3
			c-1.5-0.9-2.7-2-3.5-3.5c-0.4-0.6-0.7-1.3-0.9-2.1h20.3C396.9,80.5,397.7,80.2,398.4,79.5z M384.4,67.7c1.7,0,3.1,0.4,4.3,1.1
			c1.2,0.8,2.1,1.8,2.7,3.1c0.3,0.6,0.5,1.3,0.7,2.1h-16.4c0.2-0.6,0.4-1.1,0.6-1.6c0.7-1.5,1.7-2.6,3.1-3.5
			C380.7,68.1,382.4,67.7,384.4,67.7z"/>
	</g>
	<g id="Ring_2_">

			<linearGradient id="SVGID_1_" gradientUnits="userSpaceOnUse" x1="-3215.5981" y1="690.2527" x2="-3172.6685" y2="741.4192" gradientTransform="matrix(0 1 -1 0 801.3895 3269.6118)">
			<stop  offset="0" style="stop-color:#3085D4"/>
			<stop  offset="1" style="stop-color:#69C5C3"/>
		</linearGradient>
		<path class="st0" d="M50.6,76.1c0,18.9,15.4,34.3,34.3,34.3s34.3-15.4,34.3-34.3s-15.4-34.3-34.3-34.3
			C65.9,41.8,50.6,57.1,50.6,76.1L50.6,76.1z M65.9,72.2c0,12.6,10.2,22.9,22.9,22.9c12.6,0,22.9-10.2,22.9-22.9
			s-10.2-22.9-22.9-22.9c0,0,0,0,0,0C76.1,49.4,65.9,59.6,65.9,72.2z"/>

			<radialGradient id="SVGID_2_" cx="-1344.0764" cy="97.68" r="0.956" gradientTransform="matrix(19.12 -18.48 18.48 19.12 23986.1797 -26633.0879)" gradientUnits="userSpaceOnUse">
			<stop  offset="0" style="stop-color:#3085D4"/>
			<stop  offset="0.17" style="stop-color:#3085D4"/>
			<stop  offset="0.39" style="stop-color:#69C5C3"/>
			<stop  offset="0.5" style="stop-color:#6AA2D6"/>
			<stop  offset="0.6" style="stop-color:#69C5C3"/>
			<stop  offset="0.86" style="stop-color:#3085D4"/>
		</radialGradient>
		<path class="st1" d="M88.7,96.7c-13.5,0-24.5-11-24.5-24.5c0-13.5,11-24.5,24.5-24.5s24.5,11,24.5,24.5v0
			C113.2,85.8,102.2,96.7,88.7,96.7z M88.7,95.1c-12.6,0-22.9-10.2-22.9-22.9c0-12.6,10.2-22.9,22.9-22.9s22.9,10.2,22.9,22.9v0
			C111.6,84.9,101.3,95.1,88.7,95.1z"/>

			<radialGradient id="SVGID_3_" cx="-1346.3069" cy="119.276" r="0.956" gradientTransform="matrix(21.86 -29.41 29.04 21.58 26050.9102 -42091.5703)" gradientUnits="userSpaceOnUse">
			<stop  offset="3.000000e-02" style="stop-color:#6AA2D6"/>
			<stop  offset="8.000000e-02" style="stop-color:#6AA2D6"/>
			<stop  offset="0.21" style="stop-color:#6AA2D6"/>
			<stop  offset="0.42" style="stop-color:#69C5C3"/>
			<stop  offset="0.51" style="stop-color:#69C5C3"/>
			<stop  offset="0.61" style="stop-color:#69C5C3"/>
			<stop  offset="0.97" style="stop-color:#6AA2D6"/>
		</radialGradient>
		<path class="st2" d="M84.9,110.4C66,110.4,50.6,95,50.6,76.1c0-18.9,15.3-34.3,34.3-34.3s34.3,15.3,34.3,34.3c0,0,0,0,0,0
			C119.2,95,103.9,110.3,84.9,110.4C84.9,110.4,84.9,110.4,84.9,110.4z M84.9,108.7c-17.7,0-32.7-15-32.7-32.7s15-32.6,32.7-32.6
			s32.7,15,32.7,32.6S102.6,108.7,84.9,108.7z"/>
	</g>
</g>
</svg>
