<svg width="48" height="26" viewBox="0 0 48 26" fill="none" xmlns="http://www.w3.org/2000/svg">
  <path d="M6.13347 16.5641C5.91316 16.9062 5.73503 17.2742 5.60612 17.6562H7.59363V15.0945C7.01238 15.4742 6.5155 15.9734 6.13347 16.5641ZM16.4061 15.0945V17.6562H18.3936C18.2647 17.2742 18.0866 16.9062 17.8663 16.5641C17.4884 15.9769 16.9909 15.4761 16.4061 15.0945ZM14.9061 9.47187L11.9999 6.02655L9.09363 9.47187V17.6562H14.9061V9.47187ZM11.9999 12.5C11.7055 12.494 11.4252 12.3728 11.2191 12.1625C11.013 11.9522 10.8976 11.6694 10.8976 11.375C10.8976 11.0805 11.013 10.7978 11.2191 10.5875C11.4252 10.3772 11.7055 10.256 11.9999 10.25C12.2943 10.256 12.5746 10.3772 12.7807 10.5875C12.9867 10.7978 13.1021 11.0805 13.1021 11.375C13.1021 11.6694 12.9867 11.9522 12.7807 12.1625C12.5746 12.3728 12.2943 12.494 11.9999 12.5Z" fill="#E84749"/>
  <path d="M20.25 19.25C20.25 16.6344 18.7172 14.375 16.5 13.3227V9.43672C16.5 9.08281 16.3758 8.74063 16.1461 8.47109L12.5742 4.23594C12.4242 4.05781 12.2109 3.96875 12 3.96875C11.7891 3.96875 11.5758 4.05781 11.4258 4.23594L7.85391 8.47109C7.62578 8.74118 7.50043 9.08319 7.5 9.43672V13.3227C5.28281 14.375 3.75 16.6344 3.75 19.25H7.41797C7.36406 19.4187 7.33594 19.6016 7.33594 19.8078C7.33594 20.3258 7.51406 20.832 7.8375 21.2328C8.1015 21.5606 8.45115 21.8088 8.84766 21.95C9.38906 23.2156 10.6195 24.0312 12 24.0312C12.682 24.0312 13.343 23.8297 13.9078 23.45C14.4609 23.0797 14.8898 22.5617 15.15 21.95C15.5463 21.8097 15.896 21.5623 16.1602 21.2352C16.484 20.8307 16.6609 20.3283 16.6617 19.8102C16.6617 19.6133 16.6359 19.4258 16.5891 19.2523L20.25 19.25ZM7.59375 17.6562H5.60625C5.73516 17.2742 5.91328 16.9062 6.13359 16.5641C6.51563 15.9734 7.0125 15.4742 7.59375 15.0945V17.6562ZM9.09375 9.47188L12 6.02656L14.9062 9.47188V17.6562H9.09375V9.47188ZM14.7211 20.3797C14.5992 20.45 14.4586 20.4781 14.3203 20.4594L13.8633 20.4031L13.7977 20.8578C13.6711 21.7461 12.8977 22.4164 12 22.4164C11.1023 22.4164 10.3289 21.7461 10.2023 20.8578L10.1367 20.4008L9.67969 20.4594C9.54074 20.4759 9.40017 20.4472 9.27891 20.3773C9.075 20.2602 8.94844 20.0422 8.94844 19.8055C8.94844 19.557 9.08672 19.3508 9.29062 19.2477H14.7117C14.918 19.3531 15.0539 19.5594 15.0539 19.8055C15.0516 20.0445 14.925 20.2648 14.7211 20.3797ZM16.4062 17.6562V15.0945C16.991 15.4761 17.4886 15.9769 17.8664 16.5641C18.0867 16.9062 18.2648 17.2742 18.3937 17.6562H16.4062Z" fill="white"/>
  <path d="M10.875 11.375C10.875 11.6734 10.9935 11.9595 11.2045 12.1705C11.4155 12.3815 11.7016 12.5 12 12.5C12.2984 12.5 12.5845 12.3815 12.7955 12.1705C13.0065 11.9595 13.125 11.6734 13.125 11.375C13.125 11.0766 13.0065 10.7905 12.7955 10.5795C12.5845 10.3685 12.2984 10.25 12 10.25C11.7016 10.25 11.4155 10.3685 11.2045 10.5795C10.9935 10.7905 10.875 11.0766 10.875 11.375Z" fill="white"/>
  <path d="M47.8857 11.8459L44.681 6.4339L47.853 1.24263C47.9283 1.11893 47.9694 0.977433 47.9721 0.832628C47.9748 0.687824 47.9389 0.544907 47.8682 0.4185C47.7975 0.292093 47.6945 0.186734 47.5698 0.113201C47.445 0.0396687 47.3029 0.000602633 47.1581 0H21.635C21.2014 0 20.7855 0.172263 20.4789 0.478894C20.1723 0.785524 20 1.2014 20 1.63504V11.4453C20 11.879 20.1723 12.2948 20.4789 12.6015C20.7855 12.9081 21.2014 13.0804 21.635 13.0804H47.1826C47.3269 13.0803 47.4686 13.0421 47.5934 12.9696C47.7181 12.8971 47.8215 12.7928 47.8929 12.6674C47.9643 12.542 48.0012 12.4 48 12.2557C47.9987 12.1114 47.9593 11.97 47.8857 11.8459ZM28.5922 9.1399H27.6765L25.0114 5.59185V9.14808H24.0876V4.08761H25.0114L27.6847 7.64384V4.08761H28.6003L28.5922 9.1399ZM33.7671 4.90513H30.8812V6.12324H33.4973V6.94077H30.8812V8.25698H33.7671V9.0745H29.9574V4.08761H33.7589L33.7671 4.90513ZM40.5443 9.12355H39.6205L38.3534 5.37112L37.0862 9.1399H36.1706L34.5356 4.08761H35.5329L36.6121 7.70924L37.8547 4.08761H38.8521L40.0457 7.70924L41.133 4.08761H42.1385L40.5443 9.12355Z" fill="white"/>
</svg>
