<svg width="73" height="62" viewBox="0 0 73 62" fill="none" xmlns="http://www.w3.org/2000/svg">
  <circle cx="36.2285" cy="30.6074" r="30.6074" fill="white" fill-opacity="0.1" />
  <path
    d="M56.4078 47.7834H1.43648C1.19363 47.7831 0.96081 47.6866 0.789093 47.5148L0.436059 47.8679L0.789091 47.5148C0.617435 47.3432 0.52085 47.1105 0.520508 46.8677V12.9712C0.520726 12.8288 0.577399 12.6923 0.678112 12.5915C0.778823 12.4908 0.91535 12.4341 1.05777 12.4339H56.7686C56.9158 12.4341 57.0569 12.4927 57.1609 12.5968C57.2651 12.7009 57.3236 12.8421 57.3238 12.9894V46.8674C57.3235 47.1103 57.2269 47.3431 57.0552 47.5148L57.4088 47.8684L57.0552 47.5148C56.8835 47.6866 56.6507 47.7831 56.4078 47.7834Z"
    fill="#364063"
    stroke="#8C8C8C"
  />
  <path
    d="M54.6311 45.9963H3.39815C2.89183 45.9963 2.53613 45.6176 2.53613 45.2209V15.7029C2.53613 15.4875 2.734 15.257 3.04542 15.257H54.9671C55.2878 15.257 55.4931 15.4945 55.4931 15.7184V45.2209C55.4931 45.6176 55.1374 45.9963 54.6311 45.9963Z"
    fill="#374871"
    stroke="#8C8C8C"
  />
  <path
    d="M57.3034 12.6473H0.5V12.427C0.50044 12.1831 0.597592 11.9492 0.770169 11.7767C0.942778 11.6042 1.17675 11.5072 1.42077 11.507H56.3827C56.6267 11.5072 56.8607 11.6042 57.0333 11.7767L57.3867 11.4231L57.0333 11.7767C57.2059 11.9493 57.3031 12.1833 57.3034 12.4274V12.6473Z"
    fill="#3F3D56"
    stroke="#8C8C8C"
  />
  <path
    d="M2.44972 12.0792C2.44972 12.006 2.50907 11.9467 2.58228 11.9467C2.6555 11.9467 2.71484 12.006 2.71484 12.0792C2.71484 12.1525 2.6555 12.2118 2.58228 12.2118C2.50907 12.2118 2.44972 12.1525 2.44972 12.0792Z"
    fill="white"
    fill-opacity="0.2"
    stroke="#8C8C8C"
  />
  <path
    d="M3.84328 12.0792C3.84328 12.006 3.90263 11.9467 3.97584 11.9467C4.04905 11.9467 4.1084 12.006 4.1084 12.0792C4.1084 12.1525 4.04905 12.2118 3.97584 12.2118C3.90263 12.2118 3.84328 12.1525 3.84328 12.0792Z"
    fill="white"
    fill-opacity="0.2"
    stroke="#8C8C8C"
  />
  <path
    d="M5.23781 12.0792C5.23781 12.006 5.29716 11.9467 5.37037 11.9467C5.44358 11.9467 5.50293 12.006 5.50293 12.0792C5.50293 12.1525 5.44358 12.2118 5.37037 12.2118C5.29716 12.2118 5.23781 12.1525 5.23781 12.0792Z"
    fill="white"
    fill-opacity="0.2"
    stroke="#8C8C8C"
  />
  <path
    d="M36.0599 21.2112H26.0398C25.8904 21.2112 25.7472 21.1518 25.6415 21.0462C25.5359 20.9405 25.4766 20.7973 25.4766 20.6479C25.4766 20.4985 25.5359 20.3552 25.6415 20.2496C25.7472 20.144 25.8904 20.0846 26.0398 20.0846H36.0599C36.2093 20.0846 36.3525 20.144 36.4581 20.2496C36.5638 20.3552 36.6231 20.4985 36.6231 20.6479C36.6231 20.7973 36.5638 20.9405 36.4581 21.0462C36.3525 21.1518 36.2093 21.2112 36.0599 21.2112Z"
    fill="#CCCCCC"
    fill-opacity="0.2"
  />
  <path
    d="M48.5101 21.2112H38.49C38.3406 21.2112 38.1974 21.1518 38.0917 21.0462C37.9861 20.9405 37.9268 20.7973 37.9268 20.6479C37.9268 20.4985 37.9861 20.3552 38.0917 20.2496C38.1974 20.144 38.3406 20.0846 38.49 20.0846H48.5101C48.6594 20.0846 48.8027 20.144 48.9083 20.2496C49.014 20.3552 49.0733 20.4985 49.0733 20.6479C49.0733 20.7973 49.014 20.9405 48.9083 21.0462C48.8027 21.1518 48.6594 21.2112 48.5101 21.2112Z"
    fill="#CCCCCC"
    fill-opacity="0.2"
  />
  <path
    d="M48.5112 23.3456H31.0799C30.9305 23.3456 30.7872 23.2863 30.6816 23.1806C30.5759 23.075 30.5166 22.9317 30.5166 22.7824C30.5166 22.633 30.5759 22.4897 30.6816 22.3841C30.7872 22.2784 30.9305 22.2191 31.0799 22.2191H48.5112C48.6606 22.2191 48.8038 22.2784 48.9095 22.3841C49.0151 22.4897 49.0744 22.633 49.0744 22.7824C49.0744 22.9317 49.0151 23.075 48.9095 23.1806C48.8038 23.2863 48.6606 23.3456 48.5112 23.3456Z"
    fill="#CCCCCC"
    fill-opacity="0.2"
  />
  <path
    d="M36.0602 19.0471H26.0401C25.8908 19.0469 25.7478 18.9875 25.6423 18.8818C25.5368 18.7762 25.4775 18.6331 25.4775 18.4838C25.4775 18.3345 25.5368 18.1914 25.6423 18.0858C25.7478 17.9802 25.8908 17.9207 26.0401 17.9205H36.0602C36.1342 17.9205 36.2075 17.935 36.2759 17.9632C36.3443 17.9915 36.4065 18.033 36.4589 18.0853C36.5113 18.1376 36.5528 18.1997 36.5812 18.2681C36.6095 18.3365 36.6241 18.4098 36.6241 18.4838C36.6241 18.5578 36.6095 18.6311 36.5812 18.6995C36.5528 18.7679 36.5113 18.83 36.4589 18.8823C36.4065 18.9346 36.3443 18.9761 36.2759 19.0044C36.2075 19.0327 36.1342 19.0472 36.0602 19.0471Z"
    fill="#CCCCCC"
    fill-opacity="0.2"
  />
  <path
    d="M41.5723 19.0767H38.7263C38.577 19.0767 38.4337 19.0174 38.3281 18.9117C38.2224 18.8061 38.1631 18.6628 38.1631 18.5134C38.1631 18.3641 38.2224 18.2208 38.3281 18.1152C38.4337 18.0095 38.577 17.9502 38.7263 17.9502H41.5723C41.7217 17.9502 41.8649 18.0095 41.9706 18.1152C42.0762 18.2208 42.1355 18.3641 42.1355 18.5134C42.1355 18.6628 42.0762 18.8061 41.9706 18.9117C41.8649 19.0174 41.7217 19.0767 41.5723 19.0767Z"
    fill="#CCCCCC"
    fill-opacity="0.2"
  />
  <path
    d="M28.886 23.3456H26.0401C25.8908 23.3454 25.7478 23.286 25.6423 23.1804C25.5368 23.0748 25.4775 22.9316 25.4775 22.7824C25.4775 22.6331 25.5368 22.4899 25.6423 22.3843C25.7478 22.2787 25.8908 22.2193 26.0401 22.2191H28.886C28.9601 22.219 29.0334 22.2335 29.1018 22.2618C29.1702 22.29 29.2324 22.3315 29.2848 22.3838C29.3371 22.4361 29.3787 22.4983 29.407 22.5666C29.4354 22.635 29.45 22.7083 29.45 22.7824C29.45 22.8564 29.4354 22.9297 29.407 22.9981C29.3787 23.0665 29.3371 23.1286 29.2848 23.1809C29.2324 23.2332 29.1702 23.2747 29.1018 23.3029C29.0334 23.3312 28.9601 23.3457 28.886 23.3456Z"
    fill="#CCCCCC"
    fill-opacity="0.2"
  />
  <path
    d="M36.0599 41.1984H26.0398C25.8904 41.1984 25.7472 41.1391 25.6415 41.0334C25.5359 40.9278 25.4766 40.7845 25.4766 40.6351C25.4766 40.4858 25.5359 40.3425 25.6415 40.2369C25.7472 40.1312 25.8904 40.0719 26.0398 40.0719H36.0599C36.1338 40.0719 36.2071 40.0865 36.2754 40.1148C36.3438 40.1431 36.4058 40.1846 36.4581 40.2369C36.5105 40.2892 36.5519 40.3513 36.5802 40.4196C36.6086 40.4879 36.6231 40.5612 36.6231 40.6351C36.6231 40.7091 36.6086 40.7824 36.5802 40.8507C36.5519 40.919 36.5105 40.9811 36.4581 41.0334C36.4058 41.0857 36.3438 41.1272 36.2754 41.1555C36.2071 41.1838 36.1338 41.1984 36.0599 41.1984Z"
    fill="#CCCCCC"
    fill-opacity="0.2"
  />
  <path
    d="M48.5101 41.1984H38.49C38.3406 41.1984 38.1974 41.1391 38.0917 41.0334C37.9861 40.9278 37.9268 40.7845 37.9268 40.6351C37.9268 40.4858 37.9861 40.3425 38.0917 40.2369C38.1974 40.1312 38.3406 40.0719 38.49 40.0719H48.5101C48.584 40.0719 48.6573 40.0865 48.7256 40.1148C48.794 40.1431 48.856 40.1846 48.9083 40.2369C48.9606 40.2892 49.0021 40.3513 49.0304 40.4196C49.0588 40.4879 49.0733 40.5612 49.0733 40.6351C49.0733 40.7091 49.0588 40.7824 49.0304 40.8507C49.0021 40.919 48.9606 40.9811 48.9083 41.0334C48.856 41.0857 48.794 41.1272 48.7256 41.1555C48.6573 41.1838 48.584 41.1984 48.5101 41.1984Z"
    fill="#CCCCCC"
    fill-opacity="0.2"
  />
  <path
    d="M48.5112 43.3329H31.0799C30.9305 43.3329 30.7872 43.2735 30.6816 43.1679C30.5759 43.0623 30.5166 42.919 30.5166 42.7696C30.5166 42.6202 30.5759 42.477 30.6816 42.3713C30.7872 42.2657 30.9305 42.2064 31.0799 42.2064H48.5112C48.5852 42.2063 48.6585 42.2208 48.7269 42.249C48.7954 42.2773 48.8575 42.3188 48.9099 42.3711C48.9623 42.4234 49.0038 42.4855 49.0322 42.5539C49.0605 42.6223 49.0751 42.6956 49.0751 42.7696C49.0751 42.8436 49.0605 42.9169 49.0322 42.9853C49.0038 43.0537 48.9623 43.1158 48.9099 43.1681C48.8575 43.2205 48.7954 43.2619 48.7269 43.2902C48.6585 43.3185 48.5852 43.333 48.5112 43.3329Z"
    fill="#CCCCCC"
    fill-opacity="0.2"
  />
  <path
    d="M36.0599 39.0343H26.0398C25.8904 39.0343 25.7472 38.975 25.6415 38.8693C25.5359 38.7637 25.4766 38.6204 25.4766 38.4711C25.4766 38.3217 25.5359 38.1784 25.6415 38.0728C25.7472 37.9672 25.8904 37.9078 26.0398 37.9078H36.0599C36.2093 37.9078 36.3525 37.9672 36.4581 38.0728C36.5638 38.1784 36.6231 38.3217 36.6231 38.4711C36.6231 38.6204 36.5638 38.7637 36.4581 38.8693C36.3525 38.975 36.2093 39.0343 36.0599 39.0343Z"
    fill="#CCCCCC"
    fill-opacity="0.2"
  />
  <path
    d="M41.5723 39.064H38.7263C38.577 39.064 38.4337 39.0046 38.3281 38.899C38.2224 38.7933 38.1631 38.6501 38.1631 38.5007C38.1631 38.3513 38.2224 38.208 38.3281 38.1024C38.4337 37.9968 38.577 37.9374 38.7263 37.9374H41.5723C41.7217 37.9374 41.8649 37.9968 41.9706 38.1024C42.0762 38.208 42.1355 38.3513 42.1355 38.5007C42.1355 38.6501 42.0762 38.7933 41.9706 38.899C41.8649 39.0046 41.7217 39.064 41.5723 39.064Z"
    fill="#CCCCCC"
    fill-opacity="0.2"
  />
  <path
    d="M28.8857 43.3329H26.0398C25.8904 43.3329 25.7472 43.2735 25.6415 43.1679C25.5359 43.0623 25.4766 42.919 25.4766 42.7696C25.4766 42.6202 25.5359 42.477 25.6415 42.3713C25.7472 42.2657 25.8904 42.2064 26.0398 42.2064H28.8857C28.9598 42.2063 29.0331 42.2208 29.1015 42.249C29.1699 42.2773 29.2321 42.3188 29.2845 42.3711C29.3369 42.4234 29.3784 42.4855 29.4068 42.5539C29.4351 42.6223 29.4497 42.6956 29.4497 42.7696C29.4497 42.8436 29.4351 42.9169 29.4068 42.9853C29.3784 43.0537 29.3369 43.1158 29.2845 43.1681C29.2321 43.2205 29.1699 43.2619 29.1015 43.2902C29.0331 43.3185 28.9598 43.333 28.8857 43.3329Z"
    fill="#CCCCCC"
    fill-opacity="0.2"
  />
  <path
    d="M33.4432 35.1514C33.2305 35.1519 33.0263 35.0683 32.875 34.9189L29.1084 31.1995C29.0345 31.1264 28.9758 31.0395 28.9357 30.9436C28.8956 30.8477 28.875 30.7448 28.875 30.6409C28.875 30.537 28.8956 30.4341 28.9357 30.3382C28.9758 30.2423 29.0345 30.1553 29.1084 30.0823L32.8598 26.3778C33.0161 26.2243 33.2266 26.1385 33.4457 26.1392C33.6648 26.1399 33.8748 26.227 34.0302 26.3815C34.1856 26.5374 34.2729 26.7485 34.2729 26.9686C34.2729 27.1887 34.1856 27.3998 34.0302 27.5556L31.2426 30.3432C31.1557 30.4303 31.107 30.5482 31.107 30.6712C31.107 30.7942 31.1557 30.9121 31.2426 30.9992L34.0151 33.7717C34.1283 33.8847 34.2054 34.0287 34.2367 34.1856C34.2679 34.3425 34.2519 34.5051 34.1907 34.6528C34.1294 34.8006 34.0257 34.9269 33.8926 35.0156C33.7596 35.1044 33.6031 35.1516 33.4432 35.1514V35.1514Z"
    fill="#6C63FF"
  />
  <path
    d="M39.4444 35.1514C39.2844 35.1516 39.128 35.1044 38.995 35.0156C38.8619 34.9269 38.7582 34.8006 38.6969 34.6528C38.6357 34.5051 38.6197 34.3425 38.6509 34.1856C38.6822 34.0287 38.7593 33.8847 38.8725 33.7717L41.645 30.9992C41.7318 30.9121 41.7806 30.7942 41.7806 30.6712C41.7806 30.5482 41.7318 30.4303 41.645 30.3432L38.8574 27.5556C38.7803 27.4785 38.7192 27.387 38.6774 27.2863C38.6357 27.1856 38.6143 27.0776 38.6143 26.9686C38.6143 26.8595 38.6357 26.7516 38.6775 26.6509C38.7192 26.5501 38.7803 26.4586 38.8574 26.3815C39.0127 26.227 39.2227 26.1399 39.4419 26.1392C39.661 26.1385 39.8715 26.2243 40.0278 26.3779L43.7792 30.0823C43.8531 30.1553 43.9118 30.2423 43.9519 30.3382C43.992 30.4341 44.0126 30.537 44.0126 30.6409C44.0126 30.7448 43.992 30.8477 43.9519 30.9436C43.9118 31.0395 43.8531 31.1264 43.7792 31.1995L40.0126 34.9189C39.8613 35.0683 39.657 35.1519 39.4444 35.1514Z"
    fill="#6C63FF"
  />
  <path
    d="M62.2308 3.84485C57.0265 3.84485 52.8066 8.06467 52.8066 13.269C52.8066 18.4733 57.0265 22.6931 62.2308 22.6931C67.4351 22.6931 71.6549 18.4733 71.6549 13.269C71.6549 8.06467 67.4351 3.84485 62.2308 3.84485ZM66.3012 10.1914L61.8711 16.3339C61.8091 16.4203 61.7275 16.4908 61.6329 16.5393C61.5384 16.5879 61.4336 16.6133 61.3273 16.6133C61.221 16.6133 61.1162 16.5879 61.0216 16.5393C60.927 16.4908 60.8454 16.4203 60.7835 16.3339L58.1603 12.6989C58.0804 12.5874 58.1603 12.4317 58.297 12.4317H59.2836C59.4982 12.4317 59.7022 12.5348 59.8285 12.7115L61.3262 14.7899L64.6331 10.204C64.7593 10.0294 64.9612 9.92425 65.1779 9.92425H66.1645C66.3012 9.92425 66.3812 10.0799 66.3012 10.1914Z"
    fill="#8FD460"
  />
</svg>
