<svg width="150" height="150" viewBox="0 0 150 150" fill="none" xmlns="http://www.w3.org/2000/svg">
    <circle cx="75" cy="75" r="75" fill="#1B1E1F" />
    <line x1="75.9844" y1="12.9081" x2="75.9844" y2="22.1653" stroke="#E84749" stroke-width="2" />
    <line x1="47.1055" y1="21.8884" x2="53.6514" y2="28.4342" stroke="#E84749" stroke-width="2" />
    <line x1="104.043" y1="23.3026" x2="97.4972" y2="29.8484" stroke="#E84749" stroke-width="2" />
    <line x1="60.8645" y1="15.3725" x2="64.6753" y2="23.809" stroke="#E84749" stroke-width="2" />
    <line x1="91.6879" y1="15.7643" x2="87.7824" y2="24.1574" stroke="#E84749" stroke-width="2" />
    <path
        d="M128.222 136.33H20.2315C19.4019 136.329 18.6065 135.999 18.0196 135.411C17.4328 134.823 17.1026 134.026 17.1016 133.195V45.1253C17.1026 44.2938 17.4328 43.4969 18.0196 42.9092C18.6064 42.3215 19.4018 41.991 20.2312 41.99H128.222C129.052 41.991 129.847 42.3215 130.434 42.9092C131.021 43.4969 131.351 44.294 131.352 45.1256V133.195C131.351 134.026 131.021 134.823 130.434 135.411C129.847 135.999 129.052 136.329 128.222 136.33Z"
        stroke="#42454D" />
    <path
        d="M20.5586 45.4576C21.1204 44.8949 21.8819 44.5785 22.676 44.5775L125.77 44.5775C125.77 44.5775 125.77 44.5775 125.77 44.5775C126.565 44.5785 127.326 44.8949 127.888 45.4576C128.45 46.0203 128.766 46.7835 128.767 47.5796V101.519C128.757 110.063 125.364 118.254 119.332 124.296C113.3 130.337 105.122 133.735 96.5912 133.745H22.6763C21.8821 133.744 21.1205 133.428 20.5587 132.865C19.9969 132.302 19.6807 131.539 19.6797 130.743V47.5794C19.6807 46.7833 19.9968 46.0203 20.5586 45.4576Z"
        stroke="#42454D" />
    <line x1="19.0469" y1="53.271" x2="128.956" y2="53.271" stroke="#42454D" />
    <line x1="51.5156" y1="134.372" x2="51.5156" y2="53.7712" stroke="#42454D" />
    <rect x="21.4766" y="56.9707" width="5.17036" height="5.17036" rx="2.58518" stroke="#42454D" />
    <rect x="24.3281" y="47.0182" width="52.1584" height="3.31014" rx="1.5" stroke="#42454D" />
    <rect x="21.4766" y="65.0691" width="5.17036" height="5.17036" rx="2.58518" stroke="#42454D" />
    <rect x="21.4766" y="73.1681" width="5.17036" height="5.17036" rx="2.58518" stroke="#42454D" />
    <path
        d="M51.7138 108.195C51.5055 107.355 51.1406 106.308 50.4997 105.372L50.5878 105.314L50.1462 104.882C49.8021 104.546 49.0989 103.576 48.4402 102.327C47.7847 101.084 47.2136 99.641 47.0803 98.3727L47.0802 98.3716C47.0065 97.6851 47.3339 97.2579 47.5881 97.181C47.6529 97.1634 47.7344 97.1638 47.812 97.1968C47.8806 97.226 47.9781 97.2941 48.0648 97.4664C48.7649 99.3139 50.1391 101.373 50.7387 102.148L51.0391 102.536L51.4327 102.243C51.5616 102.147 51.6934 102.113 51.7912 102.105L51.7912 102.105L51.7947 102.105C52.06 102.082 52.3756 102.194 52.7145 102.418C53.0429 102.636 53.3358 102.921 53.5398 103.146C54.3991 104.141 55.3646 105.04 56.4192 105.825L56.4392 105.84L56.4606 105.853C56.5964 105.935 57.2732 106.387 57.2508 107.475L57.2508 107.475C57.2499 107.523 57.2228 107.68 57.1514 107.958C57.0852 108.216 56.9936 108.531 56.8917 108.863C56.6927 109.513 56.4597 110.211 56.3143 110.638L51.9959 109.916C51.9842 109.72 51.9247 109.045 51.7138 108.195ZM51.9978 109.949L51.9977 109.949C51.9976 109.948 51.9975 109.947 51.9975 109.945C51.9977 109.947 51.9978 109.948 51.9978 109.949Z"
        fill="#1B1E1F" stroke="#42454C" />
    <path
        d="M97.7278 105.322L97.8044 105.373C97.044 106.404 96.6713 107.459 96.4899 108.29C96.3862 108.766 96.3445 109.171 96.3288 109.461C96.3148 109.721 96.3219 109.909 96.3232 109.921L92.0074 110.643C91.8622 110.218 91.6291 109.52 91.43 108.87C91.3281 108.537 91.2366 108.221 91.1703 107.963C91.0989 107.685 91.0718 107.528 91.0709 107.48L91.0709 107.48C91.0485 106.382 91.7253 105.935 91.8611 105.853L91.8823 105.84L91.9021 105.826C92.955 105.043 93.9191 104.148 94.7771 103.155C94.9836 102.928 95.2777 102.641 95.6068 102.423C95.9455 102.199 96.2604 102.087 96.5252 102.109C96.6576 102.122 96.7841 102.17 96.8913 102.249L97.2843 102.538L97.583 102.152C98.1818 101.379 99.5562 99.3242 100.243 97.5126C100.344 97.3117 100.454 97.2339 100.527 97.2021C100.608 97.1668 100.688 97.169 100.747 97.1873L100.747 97.1873L100.753 97.189C101.013 97.2663 101.336 97.6979 101.243 98.3708L101.243 98.3714C101.075 99.6125 100.499 101.062 99.8497 102.316C99.1957 103.58 98.5109 104.561 98.1719 104.89L97.7278 105.322ZM96.3234 109.921L96.3234 109.921C96.3234 109.921 96.3234 109.921 96.3234 109.92V109.921Z"
        fill="#1B1E1F" stroke="#42454C" />
    <path
        d="M97.9678 127.884C98.0323 131.158 95.3949 133.851 92.1165 133.851C91.4709 133.851 90.8623 133.717 90.3182 133.464C90.2998 133.454 90.2813 133.45 90.2675 133.44C89.997 133.322 89.7415 133.172 89.5067 132.993C89.1787 132.748 88.8855 132.46 88.6352 132.136C88.1578 131.521 87.8537 130.791 87.7545 130.019L87.7453 130.024L87.7407 130.028V133.851H60.5453V129.973L60.5269 129.964C60.5269 129.973 60.5269 129.978 60.5223 129.982V129.987C60.324 131.476 59.3696 132.753 58.037 133.381H58.0324C57.4652 133.648 56.8381 133.796 56.1649 133.796C52.8912 133.796 50.2491 131.107 50.3137 127.829L50.3644 109.132C50.3736 108.763 50.6641 108.463 51.033 108.44L56.9396 108.094H56.9903C57.35 108.094 57.6589 108.366 57.7004 108.73L58.9361 117.477C60.8635 115.827 63.524 114.614 67.1805 114.614C68.3886 114.614 79.9021 114.669 81.1055 114.669C84.762 114.669 87.4225 115.882 89.3499 117.528L90.581 108.781C90.6271 108.417 90.9361 108.145 91.2957 108.145C91.3142 108.145 91.328 108.149 91.3464 108.149L97.2531 108.495C97.6219 108.518 97.9078 108.818 97.9217 109.187L97.9678 127.884V127.884Z"
        fill="#E84749" />
    <path
        d="M69.9219 112.793V117.394C69.9219 119.474 71.591 121.162 74.1086 121.162C76.6262 121.162 78.2954 119.474 78.2954 117.394V112.793H69.9219Z"
        fill="#42454C" />
    <path
        d="M59.7678 102.436L59.7678 102.436C58.4166 91.3486 64.1563 83.0821 71.076 82.2389C77.9912 81.4004 85.5461 88.0483 86.8973 99.1356C87.5645 104.618 86.3506 108.872 84.1478 111.852C81.943 114.834 78.7218 116.575 75.3033 116.99C71.8849 117.406 68.3407 116.486 65.4857 114.12C62.6331 111.755 60.435 107.916 59.7678 102.436Z"
        fill="#1B1E1F" stroke="#42454C" />
    <path
        d="M75.5432 105.452C75.4971 105.438 75.451 105.434 75.4049 105.434L72.4355 105.793C72.3894 105.802 72.3479 105.821 72.3064 105.844C72.0482 105.987 71.9375 106.282 72.0989 106.563C72.2603 106.845 72.9519 107.605 74.1461 107.462C75.3358 107.319 75.8245 106.411 75.9167 106.102C76.0043 105.789 75.8245 105.53 75.5432 105.452Z"
        fill="#42454C" />
    <path
        d="M76.7825 110.144C76.7083 110.121 76.6331 110.109 76.5574 110.102L71.6456 110.041C71.569 110.044 71.4989 110.058 71.4283 110.078C70.9893 110.197 70.7761 110.511 71.011 110.852C71.2458 111.192 72.2996 112.154 74.2749 112.18C76.2425 112.206 77.1417 111.263 77.326 110.931C77.5033 110.594 77.2357 110.276 76.7825 110.144Z"
        fill="#42454C" />
    <path
        d="M66.7858 104.832C67.921 104.696 68.7268 103.632 68.5856 102.457C68.4443 101.281 67.4095 100.438 66.2743 100.575C65.139 100.711 64.3333 101.775 64.4745 102.951C64.6158 104.126 65.6506 104.969 66.7858 104.832Z"
        fill="#42454C" />
    <path
        d="M80.5124 103.182C81.6476 103.045 82.4534 101.982 82.3121 100.806C82.1709 99.6304 81.1361 98.7879 80.0008 98.9243C78.8656 99.0607 78.0598 100.124 78.2011 101.3C78.3423 102.476 79.3771 103.318 80.5124 103.182Z"
        fill="#42454C" />
    <path
        d="M69.1154 98.508C68.6636 98.0377 67.663 97.3921 65.9062 97.5996C64.1494 97.8117 63.3333 98.674 63.0013 99.2411C62.8538 99.4901 62.9322 99.7483 63.0705 99.8959C63.1996 100.03 63.5454 100.131 63.8912 99.965C64.237 99.7991 64.9056 99.3472 66.0953 99.195C67.2849 99.0613 68.0411 99.3426 68.4146 99.421C68.7927 99.4993 69.1062 99.3241 69.1984 99.1627C69.3045 98.9875 69.3183 98.7155 69.1154 98.508V98.508Z"
        fill="#42454C" />
    <path
        d="M82.8452 96.8572C82.3933 96.3869 81.3927 95.7414 79.636 95.9489C77.8792 96.161 77.0631 97.0232 76.7357 97.5904C76.5881 97.8394 76.6665 98.0976 76.8049 98.2451C76.934 98.3788 77.2798 98.4803 77.6302 98.3143C77.9806 98.1483 78.6446 97.6964 79.8342 97.5443C81.0239 97.4105 81.7801 97.6918 82.1535 97.7702C82.5316 97.8486 82.8452 97.6734 82.9374 97.512C83.0342 97.3368 83.0435 97.0647 82.8452 96.8572V96.8572Z"
        fill="#42454C" />
    <path
        d="M88.592 85.5835C87.3793 84.1587 84.8341 82.365 82.7592 82.4803C82.1874 80.5437 79.8635 79.1235 77.7378 78.727C71.9788 77.648 68.6082 80.055 66.8007 81.3506C66.4226 81.6181 63.9972 83.3794 62.0514 82.5679C60.8341 82.0607 60.6405 80.2993 60.6405 80.2993C60.6405 80.2993 57.233 82.0976 58.916 85.7402C57.6941 85.9385 56.1494 86.6532 55.5039 88.4838C54.7385 90.6601 55.3102 92.3339 55.7021 93.1178C54.7523 94.1414 53.6595 96.2163 54.8722 98.5817C55.7851 100.362 58.6301 100.887 58.6301 100.887C58.8468 104.267 59.7275 106.259 60.1609 107.057C60.2347 107.195 60.4422 107.158 60.4606 107.001C60.6727 105.291 61.3782 99.3195 61.1154 98.3235C61.1154 98.3235 65.754 96.7973 69.8854 92.9057C70.7246 92.1126 71.656 91.4117 72.6658 90.8584C78.0837 87.8936 79.7482 91.6192 79.7482 91.6192C79.7482 91.6192 83.603 90.3789 85.4658 95.7183C86.162 97.7195 86.8721 100.97 87.4024 103.243C87.4393 103.405 87.6652 103.409 87.7113 103.253C87.9972 102.294 88.5736 100.38 88.5367 98.5126C88.5228 97.8532 90.1736 96.7788 90.5839 93.897C91.1419 90.0376 89.4681 86.6117 88.592 85.5835Z"
        fill="#42454C" />
    <path
        d="M88.5384 98.5171C88.5245 97.8578 90.1752 96.7834 90.5856 93.9016C90.6317 93.5927 90.6594 93.2837 90.6871 92.9748C90.8853 89.5074 89.4052 86.5287 88.5983 85.5834C87.4778 84.2693 85.2185 82.6371 83.245 82.4895C83.0744 82.4895 82.9084 82.4895 82.7516 82.4987C82.7516 82.4987 83.0006 83.3794 82.724 84.1448C82.3689 85.1316 81.4375 85.4728 81.4375 85.4728C87.0675 89.8762 87.2196 94.1183 88.5384 98.5171Z"
        fill="#42454C" />
    <path
        d="M67.9342 80.5668C67.5008 80.8434 67.1227 81.1155 66.7999 81.346C66.4218 81.6134 63.9964 83.3748 62.0506 82.5633C60.8518 82.0607 60.6443 80.3593 60.6397 80.2993C60.2062 81.0186 59.2195 85.9108 63.8166 85.6665C65.7993 85.5604 66.7999 83.7022 67.344 82.1575C67.533 81.6042 67.8466 80.7835 67.9342 80.5668V80.5668Z"
        fill="#42454C" />
    <path
        d="M77.1438 78.6209C80.3115 79.0774 81.9991 80.4561 82.7553 82.4803C82.9766 83.0751 83.8481 88.7604 72.1594 83.6053C67.8112 81.6872 68.7334 80.0411 69.1853 79.8105C70.9559 78.916 73.5934 78.1137 77.1438 78.6209V78.6209Z"
        fill="#42454C" />
    <path
        d="M60.6281 80.3039C60.6235 80.3085 60.6143 80.3131 60.6051 80.3177C60.2362 80.5298 57.3405 82.3235 58.9221 85.7356L62.2512 85.8647C59.0097 83.2872 60.6465 80.2947 60.6465 80.2947C60.6465 80.2947 60.6327 80.2993 60.6281 80.3039V80.3039Z"
        fill="#42454C" />
    <path
        d="M60.9685 85.814L58.9121 85.7356C58.8337 85.7448 58.5662 85.8048 58.4233 85.8416C57.3074 86.1367 56.0394 86.8883 55.5 88.4791C54.919 90.1898 55.108 91.5777 55.4308 92.4768C55.5276 92.7811 55.6982 93.1131 55.6982 93.1131C55.6982 93.1131 56.5835 92.0434 58.9489 91.6929L60.9685 85.814Z"
        fill="#42454C" />
    <path
        d="M55.6217 93.21C54.7364 94.2106 53.639 96.3409 54.9208 98.6602C55.8891 100.408 58.6372 100.883 58.6372 100.883C58.6372 100.892 59.1859 100.984 59.458 100.952L58.96 91.6976C57.692 91.8544 56.5162 92.3801 55.7969 93.0256C55.8015 93.0394 55.6124 93.1962 55.6217 93.21V93.21Z"
        fill="#42454C" />
</svg>