<svg width="18" height="22" viewBox="0 0 18 22" fill="none" xmlns="http://www.w3.org/2000/svg">
    <path
        d="M17.25 16.25C17.25 13.6344 15.7172 11.375 13.5 10.3227V6.43672C13.5 6.08281 13.3758 5.74063 13.1461 5.47109L9.57422 1.23594C9.42422 1.05781 9.21094 0.96875 9 0.96875C8.78906 0.96875 8.57578 1.05781 8.42578 1.23594L4.85391 5.47109C4.62578 5.74118 4.50043 6.08318 4.5 6.43672V10.3227C2.28281 11.375 0.75 13.6344 0.75 16.25H4.41797C4.36406 16.4187 4.33594 16.6016 4.33594 16.8078C4.33594 17.3258 4.51406 17.832 4.8375 18.2328C5.1015 18.5606 5.45115 18.8088 5.84766 18.95C6.38906 20.2156 7.61953 21.0312 9 21.0312C9.68203 21.0312 10.343 20.8297 10.9078 20.45C11.4609 20.0797 11.8898 19.5617 12.15 18.95C12.5463 18.8097 12.896 18.5623 13.1602 18.2352C13.484 17.8307 13.6609 17.3283 13.6617 16.8102C13.6617 16.6133 13.6359 16.4258 13.5891 16.2523H17.25V16.25ZM14.8664 13.5641C15.0867 13.9063 15.2648 14.2742 15.3937 14.6562H13.4062V12.0945C13.991 12.4761 14.4886 12.9769 14.8664 13.5641V13.5641ZM6.09375 10.3227V6.47187L9 3.02656L11.9062 6.47187V14.6562H6.09375V10.3227ZM2.60625 14.6562C2.73516 14.2742 2.91328 13.9063 3.13359 13.5641C3.51563 12.9734 4.0125 12.4742 4.59375 12.0945V14.6562H2.60625ZM11.7211 17.3797C11.5992 17.45 11.4586 17.4781 11.3203 17.4594L10.8633 17.4031L10.7977 17.8578C10.6711 18.7461 9.89766 19.4164 9 19.4164C8.10234 19.4164 7.32891 18.7461 7.20234 17.8578L7.13672 17.4008L6.67969 17.4594C6.54074 17.4759 6.40017 17.4472 6.27891 17.3773C6.075 17.2602 5.94844 17.0422 5.94844 16.8055C5.94844 16.557 6.08672 16.3508 6.29062 16.2477H11.7117C11.918 16.3531 12.0539 16.5594 12.0539 16.8055C12.0516 17.0445 11.925 17.2648 11.7211 17.3797ZM7.875 8.375C7.875 8.67337 7.99353 8.95952 8.2045 9.1705C8.41548 9.38147 8.70163 9.5 9 9.5C9.29837 9.5 9.58452 9.38147 9.79549 9.1705C10.0065 8.95952 10.125 8.67337 10.125 8.375C10.125 8.07663 10.0065 7.79048 9.79549 7.5795C9.58452 7.36853 9.29837 7.25 9 7.25C8.70163 7.25 8.41548 7.36853 8.2045 7.5795C7.99353 7.79048 7.875 8.07663 7.875 8.375V8.375Z"
        fill="#DBDBDB" />
</svg>