<svg width="32" height="32" viewBox="0 0 32 32" fill="none" xmlns="http://www.w3.org/2000/svg">
  <path d="M12.235 13.4988L17.3227 8.41092L18.7901 9.87828L13.7024 14.9661L12.235 13.4988Z" fill="#DFF0FE" />
  <path
    d="M17.3216 8.97678L18.2232 9.87838L13.7016 14.4L12.8 13.4984L17.3216 8.97678ZM17.3216 7.84558L16.756 8.41118L12.2344 12.9328L11.6688 13.4984L12.2344 14.064L13.136 14.9656L13.7016 15.5312L14.2672 14.9656L18.7888 10.444L19.3544 9.87838L18.7888 9.31278L17.8872 8.41118L17.3216 7.84558Z"
    fill="#4788C7"
  />
  <path d="M17.035 18.2988L22.1227 13.211L23.5901 14.6783L18.5024 19.7662L17.035 18.2988Z" fill="#DFF0FE" />
  <path
    d="M22.1216 13.7768L23.0232 14.6784L18.5016 19.2L17.6 18.2984L22.1216 13.7768ZM22.1216 12.6456L21.556 13.2112L17.0344 17.7328L16.4688 18.2984L17.0344 18.864L17.936 19.7656L18.5016 20.3312L19.0672 19.7656L23.5888 15.244L24.1544 14.6784L23.5888 14.1128L22.6872 13.2112L22.1216 12.6456Z"
    fill="#4788C7"
  />
  <path
    d="M16.3504 6.28964L20.208 2.43204C20.928 1.71284 21.8848 1.31604 22.9024 1.31604C23.92 1.31604 24.8768 1.71284 25.5968 2.43204L26.664 3.50004L28.8 1.36564L30.6344 3.20004L28.5 5.33444L29.568 6.40164C31.0536 7.88724 31.0536 10.3048 29.568 11.7912L25.7104 15.6488L16.3504 6.28964Z"
    fill="#98CCFD"
  />
  <path
    d="M22.9032 1.71605C23.8144 1.71605 24.6704 2.07045 25.3152 2.71525L26.1 3.50005L26.6656 4.06565L27.2312 3.50005L28.8 1.93125L30.0688 3.20005L28.5 4.76885L27.9344 5.33445L28.5 5.90005L29.2848 6.68485C29.9288 7.32885 30.284 8.18565 30.284 9.09685C30.284 10.008 29.9296 10.864 29.2848 11.5088L25.7104 15.0832L16.9168 6.28965L20.4912 2.71525C21.1352 2.07125 21.992 1.71605 22.9032 1.71605ZM28.8 0.800049L26.6656 2.93445L25.88 2.14965C25.0576 1.32725 23.98 0.916049 22.9024 0.916049C21.8248 0.916049 20.7472 1.32725 19.9248 2.14965L15.7848 6.28965L25.7096 16.2144L29.8496 12.0744C31.4944 10.4304 31.4944 7.76405 29.8496 6.11925L29.0648 5.33445L31.2 3.20005L28.8 0.800049Z"
    fill="#4788C7"
  />
  <path
    d="M13.072 7.87684L14.7248 6.22324C15.24 5.70804 15.8992 5.41284 16.5336 5.41284C16.9832 5.41284 17.3688 5.56244 17.6512 5.84404L26.1552 14.348C26.8568 15.0504 26.6872 16.3632 25.7752 17.2744L24.1216 18.9272L13.072 7.87684Z"
    fill="#98CCFD"
  />
  <path
    d="M16.5344 5.81282C16.772 5.81282 17.1104 5.86722 17.3696 6.12642L25.8736 14.6304C26.4104 15.1672 26.2368 16.2488 25.4936 16.9912L24.1232 18.3616L13.6376 7.87682L15.008 6.50642C15.4424 6.07202 16.0128 5.81282 16.5344 5.81282ZM16.5344 5.01282C15.8248 5.01282 15.0528 5.33042 14.4424 5.94082L12.5064 7.87682L24.1232 19.4936L26.0592 17.5576C27.1288 16.488 27.2984 14.9248 26.4392 14.0656L17.9352 5.56162C17.5664 5.19202 17.0672 5.01282 16.5344 5.01282Z"
    fill="#4788C7"
  />
  <path
    d="M8.9424 30.8384C7.9248 30.8384 6.968 30.4416 6.248 29.7224L5.1808 28.6544L3.2 30.6344L1.3656 28.8L3.3456 26.82L2.2776 25.752C0.791999 24.2664 0.791999 21.8488 2.2776 20.3624L6.1352 16.5048L15.4944 25.864L11.6368 29.7216C10.9168 30.4416 9.96 30.8384 8.9424 30.8384Z"
    fill="#98CCFD"
  />
  <path
    d="M6.1352 17.0711L14.9288 25.8647L11.3544 29.4391C10.7104 30.0831 9.8536 30.4383 8.9424 30.4383C8.0312 30.4383 7.1752 30.0839 6.5304 29.4391L5.7456 28.6543L5.18 28.0887L4.6144 28.6543L3.2 30.0687L1.9312 28.7999L3.3456 27.3855L3.9112 26.8199L3.3456 26.2543L2.5608 25.4695C1.2312 24.1399 1.2312 21.9759 2.5608 20.6455L6.1352 17.0711ZM6.1352 15.9399L1.9952 20.0799C0.350401 21.7247 0.350401 24.3903 1.9952 26.0351L2.78 26.8199L0.800001 28.7999L3.2 31.1999L5.18 29.2199L5.9648 30.0047C6.7872 30.8271 7.8648 31.2383 8.9424 31.2383C10.02 31.2383 11.0976 30.8271 11.92 30.0047L16.06 25.8647L6.1352 15.9399Z"
    fill="#4788C7"
  />
  <path
    d="M15.4224 26.808C14.9512 26.808 14.5144 26.6312 14.1936 26.3104L5.6896 17.8064C4.988 17.1048 5.0352 15.9144 5.796 15.1536L7.176 13.7736L18.2272 24.824L16.8472 26.204C16.4632 26.588 15.944 26.808 15.4224 26.808Z"
    fill="#98CCFD"
  />
  <path
    d="M7.1752 14.3392L17.6608 24.8248L16.564 25.9216C16.2544 26.2312 15.8384 26.408 15.4224 26.408C15.0576 26.408 14.7216 26.2728 14.476 26.0272L5.972 17.5232C5.7144 17.2656 5.58 16.912 5.592 16.528C5.6056 16.124 5.7776 15.736 6.0776 15.436L7.1752 14.3392ZM7.1752 13.208L5.5128 14.8704C4.5944 15.7888 4.5472 17.2296 5.4064 18.0896L13.9104 26.5936C14.3216 27.0048 14.8656 27.208 15.4224 27.208C16.0296 27.208 16.6504 26.9656 17.1296 26.4872L18.792 24.8248L7.1752 13.208Z"
    fill="#4788C7"
  />
</svg>
