<svg width="16" height="16" viewBox="0 0 16 16" fill="none" xmlns="http://www.w3.org/2000/svg">
<path d="M8 0.125C3.65117 0.125 0.125 3.65117 0.125 8C0.125 12.3488 3.65117 15.875 8 15.875C12.3488 15.875 15.875 12.3488 15.875 8C15.875 3.65117 12.3488 0.125 8 0.125ZM11.375 8.42188C11.375 8.49922 11.3117 8.5625 11.2344 8.5625H8.5625V11.2344C8.5625 11.3117 8.49922 11.375 8.42188 11.375H7.57812C7.50078 11.375 7.4375 11.3117 7.4375 11.2344V8.5625H4.76562C4.68828 8.5625 4.625 8.49922 4.625 8.42188V7.57812C4.625 7.50078 4.68828 7.4375 4.76562 7.4375H7.4375V4.76562C7.4375 4.68828 7.50078 4.625 7.57812 4.625H8.42188C8.49922 4.625 8.5625 4.68828 8.5625 4.76562V7.4375H11.2344C11.3117 7.4375 11.375 7.50078 11.375 7.57812V8.42188Z" fill="#177DDC"/>
</svg>
