<svg width="70" height="67" viewBox="0 0 70 67" fill="none" xmlns="http://www.w3.org/2000/svg">
  <circle cx="27.7358" cy="38.3019" r="27.7358" fill="white" fill-opacity="0.07" />
  <circle cx="61.415" cy="8.58491" r="8.58491" fill="white" fill-opacity="0.07" />
  <path
    d="M11.5462 30.925L24.2727 23.5774L36.9993 30.925V45.6204L24.2727 52.9681L11.5462 45.6204V30.925Z"
    fill="#F3AC21"
    fill-opacity="0.2"
    stroke="#7D7D7D"
  />
  <path
    d="M47.2478 24.4318L48.9011 23.4773L49.1511 23.9103L49.7278 23.5774L50.3045 23.9103L50.5545 23.4773L52.2078 24.4318L51.9578 24.8648L53.6111 25.8194L53.8611 25.3864L55.5144 26.3409L55.2644 26.7739L56.9177 27.7285L57.1677 27.2955L58.8211 28.25L58.5711 28.683L60.2244 29.6376L60.4744 29.2045L62.1277 30.1591L61.8777 30.5921L62.4544 30.925V31.5909H62.9544V33.5H62.4544V35.4091H62.9544V37.3182H62.4544V39.2273H62.9544V41.1364H62.4544V43.0455H62.9544V44.9545H62.4544V45.6204L61.8777 45.9534L62.1277 46.3864L60.4744 47.3409L60.2244 46.9079L58.5711 47.8624L58.8211 48.2955L57.1677 49.25L56.9177 48.817L55.2644 49.7715L55.5144 50.2045L53.8611 51.1591L53.6111 50.7261L51.9578 51.6806L52.2078 52.1136L50.5545 53.0682L50.3045 52.6352L49.7278 52.9681L49.1511 52.6352L48.9011 53.0682L47.2478 52.1136L47.4978 51.6806L45.8445 50.7261L45.5945 51.1591L43.9412 50.2045L44.1912 49.7715L42.5379 48.817L42.2879 49.25L40.6345 48.2955L40.8845 47.8624L39.2312 46.9079L38.9812 47.3409L37.3279 46.3864L37.5779 45.9534L37.0012 45.6204V44.9545H36.5012V43.0455H37.0012V41.1364H36.5012V39.2273H37.0012V37.3182H36.5012V35.4091H37.0012V33.5H36.5012V31.5909H37.0012V30.925L37.5779 30.5921L37.3279 30.1591L38.9812 29.2045L39.2312 29.6376L40.8845 28.683L40.6345 28.25L42.2879 27.2955L42.5379 27.7285L44.1912 26.7739L43.9412 26.3409L45.5945 25.3864L45.8445 25.8194L47.4978 24.8648L47.2478 24.4318Z"
    fill="#F3AC21"
    fill-opacity="0.2"
    stroke="#7D7D7D"
    stroke-dasharray="2 2"
  />
</svg>
