<svg width="22" height="22" viewBox="0 0 22 22" fill="none" xmlns="http://www.w3.org/2000/svg">
<path d="M3.02764 9.08809C3.04567 8.30041 3.20789 7.53616 3.51251 6.81697C3.82434 6.07796 4.27135 5.41645 4.84094 4.84506C5.41052 4.27367 6.07383 3.82666 6.81285 3.51483C7.5771 3.19219 8.38821 3.02816 9.22637 3.02816C10.0645 3.02816 10.8756 3.19219 11.6381 3.51483C12.375 3.82602 13.0442 4.27785 13.6082 4.84506C13.7866 5.02351 13.9543 5.21277 14.1093 5.41104L13.0242 6.2582C13.0027 6.27481 12.9864 6.29714 12.977 6.32263C12.9677 6.34811 12.9657 6.37572 12.9714 6.40227C12.977 6.42882 12.9901 6.45323 13.009 6.47271C13.0279 6.49218 13.0519 6.50592 13.0783 6.51235L16.2452 7.28742C16.3353 7.30905 16.4237 7.24055 16.4237 7.14863L16.4381 3.88794C16.4381 3.76718 16.2993 3.69868 16.2056 3.77439L15.189 4.56928C13.8029 2.79564 11.6471 1.65828 9.22456 1.65828C5.09509 1.65828 1.73527 4.96763 1.65776 9.08088C1.65728 9.10012 1.66065 9.11926 1.66768 9.13717C1.67471 9.15509 1.68526 9.17141 1.6987 9.18519C1.71214 9.19896 1.7282 9.20991 1.74593 9.21738C1.76366 9.22485 1.78271 9.22869 1.80196 9.22869H2.88345C2.96275 9.22869 3.02584 9.1656 3.02764 9.08809ZM16.6544 9.22869H15.5729C15.4936 9.22869 15.4305 9.29177 15.4287 9.36928C15.4107 10.157 15.2484 10.9212 14.9438 11.6404C14.632 12.3794 14.185 13.0427 13.6154 13.6123C13.0405 14.1896 12.357 14.6473 11.6043 14.9592C10.8516 15.271 10.0447 15.4308 9.22997 15.4292C8.41553 15.4307 7.60885 15.271 6.85647 14.9591C6.10409 14.6473 5.42091 14.1895 4.84634 13.6123C4.6679 13.4339 4.50027 13.2446 4.34526 13.0463L5.43035 12.1992C5.45182 12.1826 5.46816 12.1602 5.4775 12.1347C5.48685 12.1093 5.48881 12.0817 5.48316 12.0551C5.47751 12.0286 5.46448 12.0041 5.44557 11.9847C5.42666 11.9652 5.40264 11.9515 5.37627 11.945L2.20932 11.17C2.11919 11.1483 2.03087 11.2168 2.03087 11.3087L2.01826 14.5712C2.01826 14.692 2.15705 14.7605 2.25078 14.6848L3.26737 13.8899C4.65348 15.6617 6.80924 16.7991 9.23177 16.7991C13.3631 16.7991 16.7211 13.4879 16.7986 9.37649C16.7991 9.35725 16.7957 9.33811 16.7887 9.3202C16.7816 9.30229 16.7711 9.28596 16.7576 9.27219C16.7442 9.25841 16.7281 9.24747 16.7104 9.24C16.6927 9.23253 16.6736 9.22868 16.6544 9.22869V9.22869Z" fill="#DBDBDB"/>
<rect x="13.8433" y="14.9305" width="1.53811" height="9.99774" transform="rotate(-45 13.8433 14.9305)" fill="#DBDBDB"/>
</svg>
