<svg width="64" height="64" viewBox="0 0 64 64" fill="none" xmlns="http://www.w3.org/2000/svg">
<path d="M10.3999 60V4H39.6687L53.5999 17.9312V60H10.3999Z" fill="white"/>
<path d="M39.3377 4.8L52.8001 18.2624V59.2H11.2001V4.8H39.3377ZM40.0001 3.2H9.6001V60.8H54.4001V17.6L40.0001 3.2Z" fill="#4788C7"/>
<path d="M39.2 18.4V4H39.6687L53.5999 17.9312V18.4H39.2Z" fill="#DFF0FE"/>
<path d="M39.9999 5.4624L52.1375 17.6H39.9999V5.4624ZM39.9999 3.2H38.3999V19.2H54.3999V17.6L39.9999 3.2Z" fill="#4788C7"/>
<path d="M33.6001 30.4H54.4001V60.8H33.6001V30.4Z" fill="white"/>
<path d="M53.6 28.8C54.04 28.8 54.4 29.16 54.4 29.6V31.2C54.4 31.64 54.04 32 53.6 32C53.16 32 52.8 31.64 52.8 31.2V29.6C52.8 29.16 53.16 28.8 53.6 28.8ZM32.8 60.8H34.4C34.84 60.8 35.2 60.44 35.2 60C35.2 59.56 34.84 59.2 34.4 59.2H32.8C32.36 59.2 32 59.56 32 60C32 60.44 32.36 60.8 32.8 60.8Z" fill="#4788C7"/>
<path d="M49.6 36C45.9931 36 42.5338 37.4329 39.9833 39.9833C37.4329 42.5338 36 45.9931 36 49.6C36 53.2069 37.4329 56.6662 39.9833 59.2167C42.5338 61.7671 45.9931 63.2 49.6 63.2C53.2069 63.2 56.6662 61.7671 59.2167 59.2167C61.7671 56.6662 63.2 53.2069 63.2 49.6C63.2 45.9931 61.7671 42.5338 59.2167 39.9833C56.6662 37.4329 53.2069 36 49.6 36Z" fill="#98CCFD"/>
<path d="M49.6 36.8C56.6575 36.8 62.4 42.5424 62.4 49.6C62.4 56.6576 56.6575 62.4 49.6 62.4C42.5424 62.4 36.8 56.6576 36.8 49.6C36.8 42.5424 42.5424 36.8 49.6 36.8ZM49.6 35.2C41.6464 35.2 35.2 41.6464 35.2 49.6C35.2 57.5536 41.6464 64 49.6 64C57.5536 64 64 57.5536 64 49.6C64 41.6464 57.5536 35.2 49.6 35.2Z" fill="#4788C7"/>
<path d="M41.6001 49.6H57.6001M49.6001 57.6V41.6V57.6Z" stroke="white" stroke-width="2" stroke-miterlimit="10"/>
</svg>
