<svg width="64" height="64" viewBox="0 0 64 64" fill="none" xmlns="http://www.w3.org/2000/svg">
<g clip-path="url(#clip0_9_2027)">
<path d="M2.3999 56.8V7.2H18.8687L23.6687 12H56.7999V56.8H2.3999Z" fill="#B6DCFE"/>
<path d="M18.5377 8L22.8689 12.3312L23.3377 12.8H24.0001H56.0001V56H3.2001V8H18.5377ZM19.2001 6.4H1.6001V57.6H57.6001V11.2H24.0001L19.2001 6.4Z" fill="#4788C7"/>
<path d="M2.55859 56.8L8.66739 23.2H25.8418L30.6418 20H63.0562L56.9234 56.8H2.55859Z" fill="#DFF0FE"/>
<path d="M62.1121 20.8L56.2449 56H3.5169L9.3345 24H25.6001H26.0849L26.4881 23.7312L30.8849 20.8H62.1121ZM64.0001 19.2H30.4001L25.6001 22.4H8.0001L1.6001 57.6H57.6001L64.0001 19.2Z" fill="#4788C7"/>
</g>
<defs>
<clipPath id="clip0_9_2027">
<rect width="64" height="64" fill="white"/>
</clipPath>
</defs>
</svg>
