<svg width="159" height="146" viewBox="0 0 159 146" fill="none" xmlns="http://www.w3.org/2000/svg">
<circle cx="73" cy="73" r="73" fill="#1F1F1F"/>
<path d="M41.0389 30.1752H36.8953C36.0712 30.1752 35.4032 30.8443 35.4032 31.6696C35.4032 32.4949 34.7352 33.164 33.9112 33.164H20.0969C19.2729 33.164 18.6048 32.4949 18.6048 31.6696L18.3317 30.1547L15.8276 26.9574C15.6614 26.7416 15.4039 26.6163 15.1318 26.6188H10.4358C9.94763 26.6194 9.55205 27.0156 9.55147 27.5045L9.4545 30.1547H7.67915C6.11098 30.1547 4.83972 31.4279 4.83972 32.9986V51.5205C4.83972 52.9143 5.96786 54.0442 7.35948 54.0442H41.0389C42.4297 54.0425 43.5566 52.9135 43.558 51.5205V32.6982C43.558 31.3048 42.4301 30.1752 41.0389 30.1752Z" fill="#313131"/>
<path d="M17.7459 30.6519H8.87292V27.629C8.87351 27.0714 9.2732 26.6195 9.76643 26.6188H14.5113C14.7862 26.616 15.0464 26.7589 15.2144 27.005L17.7459 30.6519V30.6519Z" fill="#303030"/>
<path d="M80.1434 43.7391H74.2936C73.1303 43.7391 72.1872 44.6837 72.1872 45.8488C72.1872 47.014 71.2441 47.9585 70.0808 47.9585H50.5782C49.4149 47.9585 48.4718 47.014 48.4718 45.8488L48.0862 43.7102L44.5511 39.1963C44.3164 38.8917 43.9528 38.7148 43.5687 38.7183H36.939C36.2499 38.7191 35.6914 39.2785 35.6906 39.9687L35.5537 43.7102H33.0473C30.8334 43.7102 29.0387 45.5077 29.0387 47.725V73.8736C29.0387 75.8414 30.6314 77.4365 32.596 77.4365H80.1434C82.1069 77.4341 83.6978 75.8402 83.6997 73.8737V47.301C83.6997 45.3338 82.1075 43.7391 80.1434 43.7391Z" fill="#535353"/>
<path d="M47.259 44.4121H34.7325V40.1445C34.7334 39.3572 35.2976 38.7193 35.994 38.7183H42.6926C43.0807 38.7144 43.448 38.9161 43.6852 39.2635L47.259 44.4121Z" fill="#3A3A3A"/>
<path d="M92.8582 34.6851C91.7533 34.6863 90.8579 35.5818 90.8567 36.6867V71.7625C90.8579 72.8674 91.7533 73.7628 92.8582 73.7641H142.472C143.577 73.7628 144.472 72.8674 144.473 71.7625V36.6867C144.472 35.5818 143.577 34.6863 142.472 34.6851H92.8582Z" fill="#E6E6E6"/>
<path d="M124.629 72.0571H94.2602C93.071 72.0558 92.1073 71.092 92.106 69.9028V38.0894C92.1073 36.9002 93.071 35.9364 94.2602 35.9351H141.07C142.259 35.9364 143.223 36.9001 143.225 38.0894V53.4613C143.213 63.7267 134.894 72.0455 124.629 72.0571V72.0571Z" fill="white"/>
<path d="M112.733 44.7392H105.516C105.136 44.7392 104.827 44.4306 104.827 44.05C104.827 43.6694 105.136 43.3608 105.516 43.3608H112.733C113.113 43.3608 113.422 43.6694 113.422 44.05C113.422 44.4306 113.113 44.7392 112.733 44.7392Z" fill="#D32029"/>
<path d="M128.91 47.5578H105.516C105.136 47.5578 104.827 47.2492 104.827 46.8686C104.827 46.488 105.136 46.1794 105.516 46.1794H128.91C129.291 46.1794 129.599 46.488 129.599 46.8686C129.599 47.2492 129.291 47.5578 128.91 47.5578Z" fill="#E6E6E6"/>
<path d="M128.91 50.7932H105.516C105.136 50.7932 104.827 50.4847 104.827 50.1041C104.827 49.7235 105.136 49.4149 105.516 49.4149H128.91C129.291 49.4149 129.599 49.7235 129.599 50.1041C129.599 50.4847 129.291 50.7932 128.91 50.7932Z" fill="#E6E6E6"/>
<path d="M128.91 54.0287H105.516C105.136 54.0287 104.827 53.7202 104.827 53.3395C104.827 52.9589 105.136 52.6504 105.516 52.6504H128.91C129.291 52.6504 129.599 52.9589 129.599 53.3395C129.599 53.7202 129.291 54.0287 128.91 54.0287Z" fill="#E6E6E6"/>
<path d="M128.91 57.2642H105.516C105.136 57.2642 104.827 56.9556 104.827 56.575C104.827 56.1944 105.136 55.8859 105.516 55.8859H128.91C129.291 55.8859 129.599 56.1944 129.599 56.575C129.599 56.9556 129.291 57.2642 128.91 57.2642Z" fill="#E6E6E6"/>
<path d="M147.667 59.1742H137.874C135.926 59.1742 134.347 60.7531 134.347 62.7007C134.347 64.6483 132.768 66.2271 130.821 66.2271H98.1708C96.2232 66.2271 94.6443 64.6483 94.6443 62.7007L93.9988 59.1258L88.0804 51.5806C87.6875 51.0715 87.0789 50.7759 86.4358 50.7817H75.3367C74.183 50.7831 73.2481 51.718 73.2467 52.8718L73.0175 59.1258H68.8215C65.1151 59.1258 62.1105 62.1304 62.1105 65.8368V109.545C62.1105 112.834 64.7768 115.501 68.0659 115.501H147.667C150.954 115.497 153.618 112.833 153.621 109.545V65.128C153.621 61.8398 150.955 59.1742 147.667 59.1742Z" fill="#E4E4E4"/>
<path d="M94.0019 58.9644H73.2466V52.7104C73.248 51.5566 74.1829 50.6217 75.3366 50.6203H86.4357C87.0788 50.6145 87.6874 50.9102 88.0803 51.4192L94.0019 58.9644V58.9644Z" fill="#CCCCCC"/>
<path d="M98.7717 111.315H69.6237C67.7026 111.313 66.1457 109.715 66.1436 107.743V99.5609C66.1457 97.5891 67.7026 95.9911 69.6237 95.9889H104.608C106.529 95.9911 108.086 97.5891 108.088 99.5609V101.752C108.082 107.031 103.915 111.309 98.7717 111.315Z" fill="#F8B692"/>
<path d="M150.391 120.732C145.693 120.732 141.885 116.923 141.885 112.226C141.885 107.528 145.693 103.72 150.391 103.72C155.088 103.72 158.897 107.528 158.897 112.226C158.897 116.923 155.088 120.732 150.391 120.732Z" fill="#E87040"/>
<path d="M153.747 111.387H151.23V108.869C151.23 108.406 150.854 108.03 150.391 108.03C149.927 108.03 149.552 108.406 149.552 108.869V111.387H147.034C146.571 111.387 146.195 111.762 146.195 112.226C146.195 112.689 146.571 113.065 147.034 113.065H149.552V115.582C149.552 116.045 149.927 116.421 150.391 116.421C150.854 116.421 151.23 116.045 151.23 115.582V113.065H153.747C154.21 113.065 154.586 112.689 154.586 112.226C154.586 111.762 154.21 111.387 153.747 111.387Z" fill="white"/>
<path d="M75.6469 106.387H77.17V104.332L79.2369 100.398H77.61L76.452 102.842H76.3732L75.2111 100.398H73.5841L75.6469 104.332V106.387ZM79.724 106.387H81.3261L82.6293 101.718H83.0692V100.398H81.737L79.724 106.387ZM80.8986 105.075H84.3932L84.0487 103.975H81.2472L80.8986 105.075ZM84.0155 106.387H85.6176L83.6005 100.398H82.7082V101.718L84.0155 106.387ZM87.2128 106.387H88.5534V102.577H89.3046L87.9226 100.564L89.9977 106.387H90.8693L92.9445 100.564L91.5624 102.577H92.3137V106.387H93.6542V100.398H91.9152L90.475 104.457H90.4003L88.9477 100.398H87.2128V106.387ZM95.6604 106.387H99.7278V105.162H97.1836V100.398H95.6604V106.387Z" fill="white"/>
</svg>
