<svg width="64" height="64" viewBox="0 0 64 64" fill="none" xmlns="http://www.w3.org/2000/svg">
<path d="M31.2 39.2368V36.3008C31.2 34.792 32.2544 33.488 33.7296 33.1712L59.0704 27.7408C60.5456 27.424 61.6 26.12 61.6 24.6112V15.2C61.6 13.432 60.168 12 58.4 12H4" stroke="#4788C7" stroke-miterlimit="10" stroke-linecap="round"/>
<path d="M5.6001 2.4H55.2001V21.6H5.6001V2.4Z" fill="#98CCFD"/>
<path d="M54.4001 3.2V20.8H6.40005V3.2H54.4001ZM56 1.6H4.80005V22.4H56V1.6Z" fill="#4788C7"/>
<path d="M28.8001 61.6C27.4769 61.6 26.4001 60.5232 26.4001 59.2V37.6H36.0001V59.2C36.0001 60.5232 34.9233 61.6 33.6001 61.6H28.8001Z" fill="#DFF0FE"/>
<path d="M35.2001 38.4V59.2C35.2001 60.0816 34.4817 60.8 33.6001 60.8H28.8001C27.9185 60.8 27.2001 60.0816 27.2001 59.2V38.4H35.2001ZM36.8001 36.8H25.6001V59.2C25.6001 60.968 27.0321 62.4 28.8001 62.4H33.6001C35.3681 62.4 36.8001 60.968 36.8001 59.2V36.8Z" fill="#4788C7"/>
</svg>
