<svg width="65" height="63" viewBox="0 0 65 63" fill="none" xmlns="http://www.w3.org/2000/svg">
  <circle cx="22" cy="41" r="22" fill="#1A2341" />
  <path
    d="M63.6229 10.8451C62.7351 8.72878 61.4436 6.80517 59.8203 5.1815C58.2018 3.555 56.2793 2.26184 54.1619 1.37544C51.9927 0.462975 49.6621 -0.00475205 47.3085 3.6398e-05H47.2293C44.8354 0.0118933 42.5206 0.486169 40.3403 1.41891C38.2411 2.3144 36.3366 3.60986 34.7334 5.23288C33.1258 6.8529 31.8491 8.76979 30.9743 10.8768C30.0662 13.0678 29.6061 15.4181 29.621 17.7893C29.6329 20.5322 30.2898 23.2554 31.5164 25.69V31.6975C31.5164 32.7014 32.3315 33.5155 33.3326 33.5155H39.3392C41.7881 34.7498 44.4904 35.3992 47.2333 35.4126H47.3164C49.6826 35.4126 51.9737 34.9542 54.1342 34.057C56.2409 33.1812 58.1562 31.9031 59.7728 30.2944C61.4031 28.6779 62.6851 26.7887 63.5833 24.6821C64.5132 22.5005 64.988 20.1805 64.9999 17.7854C65.0078 15.3784 64.5409 13.0426 63.6229 10.8451Z"
    fill="url(#paint0_linear_784_5083)"
  />
  <path
    d="M29.4091 33.9128H27.9279V32.0297C27.9279 31.6818 27.6449 31.4019 27.2931 31.4019H11.6348C11.283 31.4019 11 31.6818 11 32.0297V39.1439C11 39.4917 11.283 39.7716 11.6348 39.7716H27.2931C27.6449 39.7716 27.9279 39.4917 27.9279 39.1439V35.5868H28.7743V40.8178H19.4904C18.9059 40.8178 18.4324 41.286 18.4324 41.864V45.4211H17.2686C17.1522 45.4211 17.057 45.5153 17.057 45.6303V51.5937C17.057 51.6225 17.0623 51.6513 17.0729 51.6748C17.0623 51.7167 17.057 51.7585 17.057 51.803C17.057 53.0166 18.0515 54 19.2788 54C20.5061 54 21.5006 53.0166 21.5006 51.803C21.5006 51.7585 21.4953 51.7167 21.4847 51.6748C21.4953 51.6487 21.5006 51.6225 21.5006 51.5937V45.6303C21.5006 45.5153 21.4054 45.4211 21.289 45.4211H20.1252V42.4917H29.4091C29.9936 42.4917 30.4671 42.0235 30.4671 41.4455V34.959C30.4671 34.381 29.9936 33.9128 29.4091 33.9128Z"
    fill="#5273E0"
  />
  <path
    d="M54.875 13.9737L47.2813 10.125L39.6875 13.9737V23.2993L47.2813 27L54.875 23.2993V13.9737Z"
    fill="white" />
  <defs>
    <linearGradient
      id="paint0_linear_784_5083"
      x1="26.4612"
      y1="-2.21301e-08"
      x2="37.9535"
      y2="54.0099"
      gradientUnits="userSpaceOnUse"
    >
      <stop stop-color="#164C7E" />
      <stop offset="1" stop-color="#320E96" />
    </linearGradient>
  </defs>
</svg>