<svg width="14" height="16" viewBox="0 0 14 16" fill="none" xmlns="http://www.w3.org/2000/svg">
<path d="M12.7656 2.375H11.7812V1.10938C11.7812 0.875586 11.5932 0.6875 11.3594 0.6875H0.953125C0.719336 0.6875 0.53125 0.875586 0.53125 1.10938V5.89062C0.53125 6.12441 0.719336 6.3125 0.953125 6.3125H11.3594C11.5932 6.3125 11.7812 6.12441 11.7812 5.89062V3.5H12.3438V7.01562H6.17383C5.78535 7.01562 5.4707 7.33027 5.4707 7.71875V10.1094H4.69727C4.61992 10.1094 4.55664 10.1727 4.55664 10.25V14.2578C4.55664 14.2771 4.56016 14.2965 4.56719 14.3123C4.56016 14.3404 4.55664 14.3686 4.55664 14.3984C4.55664 15.2141 5.21758 15.875 6.0332 15.875C6.84883 15.875 7.50977 15.2141 7.50977 14.3984C7.50977 14.3686 7.50625 14.3404 7.49922 14.3123C7.50625 14.2947 7.50977 14.2771 7.50977 14.2578V10.25C7.50977 10.1727 7.44648 10.1094 7.36914 10.1094H6.5957V8.14062H12.7656C13.1541 8.14062 13.4688 7.82598 13.4688 7.4375V3.07812C13.4688 2.68965 13.1541 2.375 12.7656 2.375Z" fill="white"/>
</svg>
