<svg width="32" height="32" viewBox="0 0 32 32" fill="none" xmlns="http://www.w3.org/2000/svg">
<path d="M11.0264 5.3184L20 5.3136L22.4872 12.236L26 15.2V29.3136H7.59999C5.69599 29.3136 4.39999 27.6176 4.39999 25.7136C4.39999 23.8096 5.54399 22.2336 7.44799 22.2336C9.19759 22.2336 10.6736 23.5368 10.896 25.2264V5.5136" fill="white"/>
<path d="M10.8 24.9136C10.7352 22.9944 9.53199 22.1136 7.59999 22.1136C5.62239 22.1136 4.26959 23.7032 4.26959 25.6816V5.5784C4.26959 3.6008 5.86959 2 7.84799 2C9.82559 2 10.8 3.7352 10.8 5.7136C10.8 6.644 10.8 24.9136 10.8 24.9136Z" fill="#DFF0FE"/>
<path d="M26 14.8V29.3136H7.99999C6.09599 29.3136 4.39999 27.5856 4.39999 25.6816C4.39999 23.7776 5.69599 22.1136 7.59999 22.1136C9.34959 22.1136 10.8 23.7136 10.8 25.3136V5.3136" stroke="#4788C7" stroke-miterlimit="10"/>
<path d="M10.8 5.3136H19.6" stroke="#4788C7" stroke-miterlimit="10"/>
<path d="M10.8 5.31359C10.8 3.40959 9.50399 2.11359 7.59999 2.11359C5.69599 2.11359 4.39999 3.60879 4.39999 5.51359V25.7136" stroke="#4788C7" stroke-miterlimit="10"/>
<path d="M25.164 5.19998C23.62 5.19998 22.364 6.45598 22.364 7.99998C22.364 9.54398 23.62 10.8 25.164 10.8C26.708 10.8 27.964 9.54398 27.964 7.99998C27.964 6.45598 26.708 5.19998 25.164 5.19998ZM24.3032 14.8L24.0152 13.0728L23.7696 13.0048C22.9248 12.7704 22.1488 12.3232 21.524 11.7112L21.3424 11.5328L19.7056 12.1464L18.844 10.6552L20.196 9.54158L20.1328 9.29518C20.0208 8.85758 19.964 8.42158 19.964 7.99998C19.964 7.57838 20.0208 7.14238 20.1336 6.70558L20.1968 6.45918L18.8448 5.34558L19.7064 3.85438L21.3432 4.46798L21.524 4.28878C22.148 3.67758 22.924 3.23038 23.7696 2.99518L24.0152 2.92718L24.3032 1.19998H26.0248L26.3128 2.92718L26.5584 2.99518C27.404 3.23038 28.18 3.67758 28.804 4.28878L28.9856 4.46718L30.6224 3.85358L31.484 5.34478L30.132 6.45838L30.1952 6.70478C30.3072 7.14238 30.364 7.57838 30.364 7.99998C30.364 8.42158 30.3072 8.85758 30.1944 9.29438L30.1312 9.54078L31.4832 10.6544L30.6216 12.1456L28.9848 11.532L28.8032 11.7104C28.1792 12.3224 27.4024 12.7696 26.5576 13.004L26.312 13.072L26.024 14.7992L24.3032 14.8Z" fill="#DFF0FE"/>
<path d="M25.164 11.2C26.9288 11.2 28.364 9.76479 28.364 7.99999C28.364 6.23519 26.9288 4.79999 25.164 4.79999C23.3992 4.79999 21.964 6.23519 21.964 7.99999C21.964 9.76479 23.3992 11.2 25.164 11.2ZM25.164 10.4C23.8384 10.4 22.764 9.32559 22.764 7.99999C22.764 6.67439 23.8384 5.59999 25.164 5.59999C26.4896 5.59999 27.564 6.67439 27.564 7.99999C27.564 9.32559 26.4896 10.4 25.164 10.4ZM25.6864 1.59999L25.8768 2.74079L25.9608 3.24319L26.452 3.37999C27.232 3.59679 27.9488 4.00959 28.524 4.57439L28.888 4.93119L29.3648 4.75279L30.4464 4.34799L30.9688 5.25279L30.0744 5.98879L29.6808 6.31199L29.8072 6.80479C29.9112 7.21039 29.964 7.61279 29.964 7.99999C29.964 8.38719 29.9112 8.78959 29.8072 9.19519L29.6808 9.68799L30.0736 10.0112L30.968 10.7472L30.4456 11.652L29.364 11.2472L28.8872 11.0688L28.5232 11.4256C27.948 11.9896 27.2312 12.4032 26.4512 12.62L25.96 12.7568L25.876 13.2592L25.6864 14.4H24.6416L24.4512 13.2592L24.3672 12.7568L23.876 12.62C23.096 12.4032 22.3792 11.9904 21.804 11.4256L21.44 11.0688L20.964 11.2472L19.8824 11.652L19.36 10.7472L20.2544 10.0112L20.6472 9.68799L20.5208 9.19519C20.4168 8.78959 20.364 8.38719 20.364 7.99999C20.364 7.61279 20.4168 7.21039 20.5208 6.80479L20.6472 6.31199L20.2544 5.98879L19.36 5.25279L19.8824 4.34799L20.964 4.75279L21.4408 4.93119L21.8048 4.57439C22.38 4.01039 23.0968 3.59679 23.8768 3.37999L24.368 3.24319L24.452 2.74079L24.6416 1.59999H25.6864ZM26.364 0.799988H23.964L23.6624 2.60959C22.7384 2.86639 21.9104 3.35039 21.2448 4.00319L19.5288 3.36079L18.3288 5.43919L19.7464 6.60639C19.6312 7.05279 19.564 7.51759 19.564 7.99999C19.564 8.48239 19.6312 8.94719 19.7456 9.39359L18.328 10.56L19.528 12.6384L21.244 11.9952C21.9096 12.648 22.7376 13.132 23.6616 13.3888L23.964 15.2H26.364L26.6656 13.3904C27.5896 13.1336 28.4176 12.6496 29.0832 11.9968L30.7992 12.64L31.9992 10.5616L30.5816 9.39519C30.6968 8.94719 30.764 8.48239 30.764 7.99999C30.764 7.51759 30.6968 7.05279 30.5824 6.60639L32 5.43919L30.8 3.36079L29.084 4.00399C28.4184 3.35119 27.5904 2.86719 26.6664 2.61039L26.364 0.799988Z" fill="#4788C7"/>
</svg>
