<svg width="151" height="139" viewBox="0 0 151 139" fill="none" xmlns="http://www.w3.org/2000/svg">
<path d="M107.449 22.2542C107.921 15.5993 102.65 9.94055 95.978 9.94055H13.4343C6.73583 9.94055 1.45492 15.6428 1.96814 22.3217L8.90255 112.563C9.36298 118.555 14.3592 123.182 20.3688 123.182H89.577C95.6126 123.182 100.621 118.516 101.048 112.495L107.449 22.2542Z" fill="#6AA2D6" fill-opacity="0.14" stroke="#2B4ACB"/>
<path d="M21.6172 123.63H43.2447V130.583C43.2447 134.725 39.8868 138.083 35.7447 138.083H29.1172C24.975 138.083 21.6172 134.725 21.6172 130.583V123.63Z" fill="#6AA2D6" fill-opacity="0.14" stroke="#2B4ACB"/>
<path d="M65.4844 123.63H87.1119V130.583C87.1119 134.725 83.754 138.083 79.6119 138.083H72.9844C68.8422 138.083 65.4844 134.725 65.4844 130.583V123.63Z" fill="#6AA2D6" fill-opacity="0.14" stroke="#2B4ACB"/>
<path d="M48.1897 123.63C47.9329 127.388 44.8033 130.356 40.9803 130.356H37.1171C33.2941 130.356 30.1645 127.388 29.9077 123.63H48.1897Z" fill="#6AA2D6" fill-opacity="0.14" stroke="#2B4ACB"/>
<path d="M79.3694 123.63C79.1126 127.388 75.983 130.356 72.16 130.356H68.2968C64.4738 130.356 61.3441 127.388 61.0873 123.63H79.3694Z" fill="#6AA2D6" fill-opacity="0.14" stroke="#2B4ACB"/>
<circle cx="88.6599" cy="51.4568" r="51.4568" fill="white" fill-opacity="0.1"/>
<path d="M122.579 80.6735H30.1614C29.6629 80.673 29.185 80.4747 28.8325 80.1222C28.4801 79.7698 28.2819 79.292 28.2812 78.7937V21.8068C28.2817 21.4771 28.4128 21.161 28.646 20.9279C28.8791 20.6947 29.1951 20.5636 29.5248 20.5631H123.186C123.523 20.5636 123.847 20.6979 124.086 20.9367L124.44 20.5831L124.086 20.9367C124.325 21.1755 124.459 21.4994 124.46 21.8371V78.7934C124.459 79.2919 124.261 79.7698 123.908 80.1222C123.556 80.4747 123.078 80.673 122.579 80.6735Z" fill="#364063" stroke="#8C8C8C"/>
<path d="M119.594 77.669H33.4617C32.4438 77.669 31.6719 76.9005 31.6719 76.0248V26.3993C31.6719 25.8287 32.1782 25.3091 32.8687 25.3091H120.159C120.865 25.3091 121.384 25.8405 121.384 26.4255V76.0248C121.384 76.9005 120.612 77.669 119.594 77.669Z" fill="#374871" stroke="#8C8C8C"/>
<path d="M124.429 21.6029H28.25V20.8918C28.2508 20.3914 28.4501 19.9117 28.804 19.5579C29.1581 19.2041 29.6379 19.0052 30.1384 19.0047H122.54C123.041 19.0052 123.521 19.2041 123.875 19.5579C124.229 19.9118 124.428 20.3916 124.429 20.8922V21.6029Z" fill="#3F3D56" stroke="#8C8C8C"/>
<path d="M32.212 20.3073C32.212 20.3723 32.1593 20.4251 32.0943 20.4251C32.0293 20.4251 31.9766 20.3723 31.9766 20.3073C31.9766 20.2423 32.0293 20.1896 32.0943 20.1896C32.1593 20.1896 32.212 20.2423 32.212 20.3073Z" fill="white" fill-opacity="0.2" stroke="#8C8C8C"/>
<path d="M34.5558 20.3073C34.5558 20.3723 34.5031 20.4251 34.4381 20.4251C34.373 20.4251 34.3203 20.3723 34.3203 20.3073C34.3203 20.2423 34.373 20.1896 34.4381 20.1896C34.5031 20.1896 34.5558 20.2423 34.5558 20.3073Z" fill="white" fill-opacity="0.2" stroke="#8C8C8C"/>
<path d="M36.8995 20.3073C36.8995 20.3723 36.8468 20.4251 36.7818 20.4251C36.7168 20.4251 36.6641 20.3723 36.6641 20.3073C36.6641 20.2423 36.7168 20.1896 36.7818 20.1896C36.8468 20.1896 36.8995 20.2423 36.8995 20.3073Z" fill="white" fill-opacity="0.2" stroke="#8C8C8C"/>
<path d="M88.3707 35.6599H71.5251C71.2739 35.6599 71.0331 35.5601 70.8555 35.3825C70.6779 35.2049 70.5781 34.9641 70.5781 34.7129C70.5781 34.4618 70.6779 34.2209 70.8555 34.0433C71.0331 33.8658 71.2739 33.766 71.5251 33.766H88.3707C88.6218 33.766 88.8627 33.8658 89.0403 34.0433C89.2178 34.2209 89.3176 34.4618 89.3176 34.7129C89.3176 34.9641 89.2178 35.2049 89.0403 35.3825C88.8627 35.5601 88.6218 35.6599 88.3707 35.6599Z" fill="#CCCCCC" fill-opacity="0.2"/>
<path d="M109.3 35.6599H92.4548C92.2036 35.6599 91.9627 35.5601 91.7852 35.3825C91.6076 35.2049 91.5078 34.9641 91.5078 34.7129C91.5078 34.4618 91.6076 34.2209 91.7852 34.0433C91.9627 33.8658 92.2036 33.766 92.4548 33.766H109.3C109.552 33.766 109.792 33.8658 109.97 34.0433C110.148 34.2209 110.247 34.4618 110.247 34.7129C110.247 34.9641 110.148 35.2049 109.97 35.3825C109.792 35.5601 109.552 35.6599 109.3 35.6599Z" fill="#CCCCCC" fill-opacity="0.2"/>
<path d="M109.299 39.2484H79.9938C79.7427 39.2484 79.5018 39.1486 79.3242 38.971C79.1466 38.7934 79.0469 38.5526 79.0469 38.3014C79.0469 38.0503 79.1466 37.8094 79.3242 37.6318C79.5018 37.4543 79.7427 37.3545 79.9938 37.3545H109.299C109.55 37.3545 109.791 37.4543 109.969 37.6318C110.146 37.8094 110.246 38.0503 110.246 38.3014C110.246 38.5526 110.146 38.7934 109.969 38.971C109.791 39.1486 109.55 39.2484 109.299 39.2484Z" fill="#CCCCCC" fill-opacity="0.2"/>
<path d="M88.3695 32.0217H71.5239C71.273 32.0214 71.0324 31.9215 70.8551 31.7439C70.6777 31.5664 70.5781 31.3257 70.5781 31.0747C70.5781 30.8238 70.6777 30.5831 70.8551 30.4056C71.0324 30.228 71.273 30.1281 71.5239 30.1278H88.3695C88.494 30.1277 88.6172 30.152 88.7322 30.1996C88.8473 30.2471 88.9518 30.3168 89.0399 30.4047C89.1279 30.4927 89.1978 30.5971 89.2454 30.7121C89.2931 30.8271 89.3176 30.9503 89.3176 31.0747C89.3176 31.1992 89.2931 31.3224 89.2454 31.4374C89.1978 31.5524 89.1279 31.6568 89.0399 31.7448C88.9518 31.8327 88.8473 31.9024 88.7322 31.9499C88.6172 31.9975 88.494 32.0218 88.3695 32.0217Z" fill="#CCCCCC" fill-opacity="0.2"/>
<path d="M97.6377 32.0716H92.8532C92.602 32.0716 92.3612 31.9718 92.1836 31.7942C92.006 31.6166 91.9062 31.3758 91.9062 31.1246C91.9062 30.8735 92.006 30.6326 92.1836 30.455C92.3612 30.2774 92.602 30.1777 92.8532 30.1777H97.6377C97.8889 30.1777 98.1297 30.2774 98.3073 30.455C98.4849 30.6326 98.5847 30.8735 98.5847 31.1246C98.5847 31.3758 98.4849 31.6166 98.3073 31.7942C98.1297 31.9718 97.8889 32.0716 97.6377 32.0716Z" fill="#CCCCCC" fill-opacity="0.2"/>
<path d="M76.3085 39.2484H71.5239C71.273 39.2481 71.0324 39.1482 70.8551 38.9706C70.6777 38.7931 70.5781 38.5524 70.5781 38.3014C70.5781 38.0505 70.6777 37.8098 70.8551 37.6323C71.0324 37.4547 71.273 37.3548 71.5239 37.3545H76.3085C76.4329 37.3543 76.5562 37.3787 76.6712 37.4262C76.7862 37.4738 76.8907 37.5435 76.9788 37.6314C77.0669 37.7194 77.1367 37.8238 77.1844 37.9388C77.232 38.0538 77.2566 38.177 77.2566 38.3014C77.2566 38.4259 77.232 38.5491 77.1844 38.6641C77.1367 38.779 77.0669 38.8835 76.9788 38.9714C76.8907 39.0594 76.7862 39.1291 76.6712 39.1766C76.5562 39.2241 76.4329 39.2485 76.3085 39.2484Z" fill="#CCCCCC" fill-opacity="0.2"/>
<path d="M88.3707 69.2623H71.5251C71.2739 69.2623 71.0331 69.1625 70.8555 68.9849C70.6779 68.8074 70.5781 68.5665 70.5781 68.3153C70.5781 68.0642 70.6779 67.8233 70.8555 67.6458C71.0331 67.4682 71.2739 67.3684 71.5251 67.3684H88.3707C88.495 67.3684 88.6182 67.3929 88.7331 67.4405C88.8479 67.4881 88.9523 67.5578 89.0403 67.6458C89.1282 67.7337 89.1979 67.8381 89.2455 67.953C89.2931 68.0679 89.3176 68.191 89.3176 68.3153C89.3176 68.4397 89.2931 68.5628 89.2455 68.6777C89.1979 68.7926 89.1282 68.897 89.0403 68.9849C88.9523 69.0729 88.8479 69.1426 88.7331 69.1902C88.6182 69.2378 88.495 69.2623 88.3707 69.2623Z" fill="#CCCCCC" fill-opacity="0.2"/>
<path d="M109.3 69.2623H92.4548C92.2036 69.2623 91.9627 69.1625 91.7852 68.9849C91.6076 68.8074 91.5078 68.5665 91.5078 68.3153C91.5078 68.0642 91.6076 67.8233 91.7852 67.6458C91.9627 67.4682 92.2036 67.3684 92.4548 67.3684H109.3C109.425 67.3684 109.548 67.3929 109.663 67.4405C109.778 67.4881 109.882 67.5578 109.97 67.6458C110.058 67.7337 110.128 67.8381 110.175 67.953C110.223 68.0679 110.247 68.191 110.247 68.3153C110.247 68.4397 110.223 68.5628 110.175 68.6777C110.128 68.7926 110.058 68.897 109.97 68.9849C109.882 69.0729 109.778 69.1426 109.663 69.1902C109.548 69.2378 109.425 69.2623 109.3 69.2623Z" fill="#CCCCCC" fill-opacity="0.2"/>
<path d="M109.299 72.8507H79.9938C79.7427 72.8507 79.5018 72.7509 79.3242 72.5733C79.1466 72.3957 79.0469 72.1549 79.0469 71.9037C79.0469 71.6526 79.1466 71.4117 79.3242 71.2341C79.5018 71.0566 79.7427 70.9568 79.9938 70.9568H109.299C109.424 70.9566 109.547 70.981 109.662 71.0285C109.777 71.0761 109.881 71.1458 109.97 71.2337C110.058 71.3217 110.127 71.4261 110.175 71.5411C110.223 71.656 110.247 71.7793 110.247 71.9037C110.247 72.0282 110.223 72.1514 110.175 72.2664C110.127 72.3813 110.058 72.4858 109.97 72.5737C109.881 72.6617 109.777 72.7314 109.662 72.7789C109.547 72.8264 109.424 72.8508 109.299 72.8507Z" fill="#CCCCCC" fill-opacity="0.2"/>
<path d="M88.3707 65.6241H71.5251C71.2739 65.6241 71.0331 65.5243 70.8555 65.3468C70.6779 65.1692 70.5781 64.9283 70.5781 64.6772C70.5781 64.426 70.6779 64.1852 70.8555 64.0076C71.0331 63.83 71.2739 63.7302 71.5251 63.7302H88.3707C88.6218 63.7302 88.8627 63.83 89.0403 64.0076C89.2178 64.1852 89.3176 64.426 89.3176 64.6772C89.3176 64.9283 89.2178 65.1692 89.0403 65.3468C88.8627 65.5243 88.6218 65.6241 88.3707 65.6241Z" fill="#CCCCCC" fill-opacity="0.2"/>
<path d="M97.6377 65.6738H92.8532C92.602 65.6738 92.3612 65.574 92.1836 65.3964C92.006 65.2189 91.9062 64.978 91.9062 64.7269C91.9062 64.4757 92.006 64.2348 92.1836 64.0573C92.3612 63.8797 92.602 63.7799 92.8532 63.7799H97.6377C97.8889 63.7799 98.1297 63.8797 98.3073 64.0573C98.4849 64.2348 98.5847 64.4757 98.5847 64.7269C98.5847 64.978 98.4849 65.2189 98.3073 65.3964C98.1297 65.574 97.8889 65.6738 97.6377 65.6738Z" fill="#CCCCCC" fill-opacity="0.2"/>
<path d="M76.3096 72.8507H71.5251C71.2739 72.8507 71.0331 72.7509 70.8555 72.5733C70.6779 72.3957 70.5781 72.1549 70.5781 71.9037C70.5781 71.6526 70.6779 71.4117 70.8555 71.2341C71.0331 71.0566 71.2739 70.9568 71.5251 70.9568H76.3096C76.4341 70.9566 76.5573 70.981 76.6724 71.0285C76.7874 71.0761 76.8919 71.1458 76.98 71.2337C77.068 71.3217 77.1379 71.4261 77.1855 71.5411C77.2332 71.656 77.2577 71.7793 77.2577 71.9037C77.2577 72.0282 77.2332 72.1514 77.1855 72.2664C77.1379 72.3813 77.068 72.4858 76.98 72.5737C76.8919 72.6617 76.7874 72.7314 76.6724 72.7789C76.5573 72.8264 76.4341 72.8508 76.3096 72.8507Z" fill="#CCCCCC" fill-opacity="0.2"/>
<path d="M83.9691 59.096C83.6116 59.0968 83.2682 58.9564 83.0138 58.7052L76.6815 52.4521C76.5572 52.3293 76.4585 52.1831 76.3911 52.0219C76.3237 51.8607 76.2891 51.6877 76.2891 51.513C76.2891 51.3383 76.3237 51.1653 76.3911 51.0041C76.4585 50.8429 76.5572 50.6967 76.6815 50.5739L82.9883 44.346C83.251 44.0878 83.605 43.9437 83.9733 43.9448C84.3417 43.946 84.6948 44.0924 84.9559 44.3522C85.2172 44.6142 85.364 44.9691 85.364 45.3391C85.364 45.7092 85.2172 46.0641 84.9559 46.3261L80.2694 51.0126C80.1234 51.159 80.0414 51.3573 80.0414 51.564C80.0414 51.7707 80.1234 51.969 80.2694 52.1154L84.9305 56.7764C85.1208 56.9664 85.2505 57.2086 85.303 57.4723C85.3556 57.736 85.3287 58.0094 85.2257 58.2579C85.1228 58.5063 84.9484 58.7185 84.7247 58.8678C84.5009 59.017 84.238 59.0964 83.9691 59.096V59.096Z" fill="#6C63FF"/>
<path d="M94.0597 59.096C93.7908 59.0964 93.5278 59.017 93.3041 58.8678C93.0804 58.7185 92.906 58.5063 92.803 58.2579C92.7001 58.0094 92.6731 57.736 92.7257 57.4723C92.7783 57.2086 92.9079 56.9664 93.0983 56.7764L97.7593 52.1154C97.9053 51.969 97.9873 51.7707 97.9873 51.564C97.9873 51.3573 97.9053 51.159 97.7593 51.0126L93.0729 46.3261C92.9433 46.1965 92.8404 46.0426 92.7703 45.8733C92.7002 45.7039 92.6641 45.5224 92.6641 45.3391C92.6641 45.1559 92.7002 44.9744 92.7703 44.805C92.8405 44.6357 92.9433 44.4818 93.0729 44.3522C93.334 44.0924 93.687 43.946 94.0554 43.9448C94.4238 43.9437 94.7778 44.0878 95.0405 44.346L101.347 50.5739C101.472 50.6967 101.57 50.8429 101.638 51.0041C101.705 51.1653 101.74 51.3383 101.74 51.513C101.74 51.6877 101.705 51.8607 101.638 52.0219C101.57 52.1831 101.472 52.3293 101.347 52.4521L95.0149 58.7052C94.7605 58.9563 94.4172 59.0968 94.0597 59.096Z" fill="#6C63FF"/>
<path d="M132.375 6.46393C123.626 6.46393 116.531 13.5582 116.531 22.3077C116.531 31.0571 123.626 38.1514 132.375 38.1514C141.124 38.1514 148.219 31.0571 148.219 22.3077C148.219 13.5582 141.124 6.46393 132.375 6.46393ZM139.218 17.1337L131.77 27.4604C131.666 27.6057 131.529 27.7241 131.37 27.8058C131.211 27.8875 131.035 27.9301 130.856 27.9301C130.677 27.9301 130.501 27.8875 130.342 27.8058C130.183 27.7241 130.046 27.6057 129.942 27.4604L125.532 21.3493C125.397 21.1618 125.532 20.9001 125.762 20.9001H127.42C127.781 20.9001 128.124 21.0734 128.336 21.3705L130.854 24.8646L136.414 17.1549C136.626 16.8614 136.965 16.6846 137.33 16.6846H138.988C139.218 16.6846 139.353 16.9463 139.218 17.1337Z" fill="#8FD460"/>
</svg>
