<svg width="117" height="98" viewBox="0 0 117 98" fill="none" xmlns="http://www.w3.org/2000/svg">
<circle cx="58" cy="49" r="49" fill="#262B2D"/>
<path d="M90.3037 76.798H2.29826C1.82991 76.7974 1.3809 76.6111 1.04972 76.28C0.718616 75.9489 0.532339 75.5 0.531738 75.0317V20.7657C0.532145 20.458 0.654525 20.1631 0.872049 19.9456C1.08957 19.7281 1.38447 19.6057 1.69209 19.6053H90.8812C91.1964 19.6057 91.4986 19.7311 91.7215 19.954C91.9445 20.177 92.0699 20.4793 92.0703 20.7946V75.0314C92.0697 75.4998 91.8835 75.9488 91.5523 76.28C91.2211 76.6111 90.7721 76.7974 90.3037 76.798Z" fill="#282B2C" stroke="#8C8C8C"/>
<path d="M87.4588 73.937H5.4389C4.48127 73.937 3.75842 73.2145 3.75842 72.3952V25.1391C3.75842 24.6103 4.22836 24.1248 4.87421 24.1248H87.9967C88.6574 24.1248 89.1393 24.6215 89.1393 25.164V72.3952C89.1393 73.2145 88.4164 73.937 87.4588 73.937Z" fill="#31393B" stroke="#8C8C8C"/>
<path d="M92.0388 20.5477H0.5V19.8945C0.500772 19.4243 0.687982 18.9735 1.02059 18.6411C1.35323 18.3087 1.80413 18.1218 2.2744 18.1213H90.2644C90.7347 18.1217 91.1856 18.3087 91.5182 18.6411C91.8509 18.9736 92.0381 19.4245 92.0388 19.8948V20.5477Z" fill="#3F3D56" stroke="#8C8C8C"/>
<path d="M4.22116 19.3379C4.22116 19.3867 4.18166 19.4262 4.13292 19.4262C4.08419 19.4262 4.04468 19.3867 4.04468 19.3379C4.04468 19.2892 4.08419 19.2497 4.13292 19.2497C4.18166 19.2497 4.22116 19.2892 4.22116 19.3379Z" fill="white" fill-opacity="0.2" stroke="#8C8C8C"/>
<path d="M6.45407 19.3379C6.45407 19.3867 6.41457 19.4262 6.36583 19.4262C6.3171 19.4262 6.27759 19.3867 6.27759 19.3379C6.27759 19.2892 6.3171 19.2497 6.36583 19.2497C6.41457 19.2497 6.45407 19.2892 6.45407 19.3379Z" fill="white" fill-opacity="0.2" stroke="#8C8C8C"/>
<path d="M8.68686 19.3379C8.68686 19.3867 8.64735 19.4262 8.59862 19.4262C8.54988 19.4262 8.51038 19.3867 8.51038 19.3379C8.51038 19.2892 8.54988 19.2497 8.59862 19.2497C8.64735 19.2497 8.68686 19.2892 8.68686 19.3379Z" fill="white" fill-opacity="0.2" stroke="#8C8C8C"/>
<path d="M57.7302 33.9574H41.6888C41.4497 33.9574 41.2203 33.8624 41.0512 33.6933C40.8821 33.5242 40.7871 33.2948 40.7871 33.0557C40.7871 32.8165 40.8821 32.5872 41.0512 32.418C41.2203 32.2489 41.4497 32.1539 41.6888 32.1539H57.7302C57.9693 32.1539 58.1987 32.2489 58.3678 32.418C58.5369 32.5872 58.6319 32.8165 58.6319 33.0557C58.6319 33.2948 58.5369 33.5242 58.3678 33.6933C58.1987 33.8624 57.9693 33.9574 57.7302 33.9574Z" fill="#CCCCCC" fill-opacity="0.2"/>
<path d="M77.6631 33.9574H61.6218C61.3827 33.9574 61.1533 33.8624 60.9842 33.6933C60.8151 33.5242 60.7201 33.2948 60.7201 33.0557C60.7201 32.8165 60.8151 32.5872 60.9842 32.418C61.1533 32.2489 61.3827 32.1539 61.6218 32.1539H77.6631C77.9023 32.1539 78.1316 32.2489 78.3008 32.418C78.4699 32.5872 78.5649 32.8165 78.5649 33.0557C78.5649 33.2948 78.4699 33.5242 78.3008 33.6933C78.1316 33.8624 77.9023 33.9574 77.6631 33.9574Z" fill="#CCCCCC" fill-opacity="0.2"/>
<path d="M77.6633 37.3744H49.7571C49.5179 37.3744 49.2886 37.2794 49.1195 37.1103C48.9503 36.9412 48.8553 36.7119 48.8553 36.4727C48.8553 36.2336 48.9503 36.0042 49.1195 35.8351C49.2886 35.666 49.5179 35.571 49.7571 35.571H77.6633C77.9024 35.571 78.1318 35.666 78.3009 35.8351C78.47 36.0042 78.565 36.2336 78.565 36.4727C78.565 36.7119 78.47 36.9412 78.3009 37.1103C78.1318 37.2794 77.9024 37.3744 77.6633 37.3744Z" fill="#CCCCCC" fill-opacity="0.2"/>
<path d="M57.7303 30.4928H41.6889C41.45 30.4925 41.2209 30.3974 41.0521 30.2283C40.8832 30.0592 40.7883 29.8301 40.7883 29.5911C40.7883 29.3521 40.8832 29.1229 41.0521 28.9539C41.2209 28.7848 41.45 28.6897 41.6889 28.6894H57.7303C57.8488 28.6892 57.9661 28.7124 58.0757 28.7577C58.1852 28.8029 58.2848 28.8693 58.3686 28.9531C58.4525 29.0368 58.519 29.1363 58.5644 29.2458C58.6097 29.3552 58.6331 29.4726 58.6331 29.5911C58.6331 29.7096 58.6097 29.8269 58.5644 29.9364C58.519 30.0459 58.4525 30.1454 58.3686 30.2291C58.2848 30.3129 58.1852 30.3793 58.0757 30.4245C57.9661 30.4698 57.8488 30.493 57.7303 30.4928Z" fill="#CCCCCC" fill-opacity="0.2"/>
<path d="M66.5577 30.5403H62.0016C61.7624 30.5403 61.5331 30.4453 61.364 30.2762C61.1949 30.1071 61.0999 29.8777 61.0999 29.6385C61.0999 29.3994 61.1949 29.17 61.364 29.0009C61.5331 28.8318 61.7624 28.7368 62.0016 28.7368H66.5577C66.7968 28.7368 67.0262 28.8318 67.1953 29.0009C67.3644 29.17 67.4594 29.3994 67.4594 29.6385C67.4594 29.8777 67.3644 30.1071 67.1953 30.2762C67.0262 30.4453 66.7968 30.5403 66.5577 30.5403Z" fill="#CCCCCC" fill-opacity="0.2"/>
<path d="M46.2451 37.3744H41.6889C41.45 37.3741 41.2209 37.279 41.0521 37.1099C40.8832 36.9409 40.7883 36.7117 40.7883 36.4727C40.7883 36.2338 40.8832 36.0046 41.0521 35.8355C41.2209 35.6664 41.45 35.5713 41.6889 35.571H46.2451C46.3636 35.5708 46.481 35.5941 46.5905 35.6393C46.7 35.6846 46.7995 35.751 46.8834 35.8347C46.9673 35.9184 47.0338 36.0179 47.0792 36.1274C47.1245 36.2369 47.1479 36.3542 47.1479 36.4727C47.1479 36.5912 47.1245 36.7086 47.0792 36.818C47.0338 36.9275 46.9673 37.027 46.8834 37.1107C46.7995 37.1945 46.7 37.2609 46.5905 37.3061C46.481 37.3514 46.3636 37.3746 46.2451 37.3744Z" fill="#CCCCCC" fill-opacity="0.2"/>
<path d="M57.7302 65.9554H41.6888C41.4497 65.9554 41.2203 65.8604 41.0512 65.6913C40.8821 65.5222 40.7871 65.2928 40.7871 65.0536C40.7871 64.8145 40.8821 64.5851 41.0512 64.416C41.2203 64.2469 41.4497 64.1519 41.6888 64.1519H57.7302C57.8486 64.1519 57.9658 64.1752 58.0752 64.2206C58.1846 64.2659 58.284 64.3323 58.3678 64.416C58.4515 64.4998 58.5179 64.5992 58.5632 64.7086C58.6086 64.818 58.6319 64.9352 58.6319 65.0536C58.6319 65.1721 58.6086 65.2893 58.5632 65.3987C58.5179 65.5081 58.4515 65.6075 58.3678 65.6913C58.284 65.775 58.1846 65.8414 58.0752 65.8867C57.9658 65.9321 57.8486 65.9554 57.7302 65.9554Z" fill="#CCCCCC" fill-opacity="0.2"/>
<path d="M77.6631 65.9554H61.6218C61.3827 65.9554 61.1533 65.8604 60.9842 65.6913C60.8151 65.5222 60.7201 65.2928 60.7201 65.0536C60.7201 64.8145 60.8151 64.5851 60.9842 64.416C61.1533 64.2469 61.3827 64.1519 61.6218 64.1519H77.6631C77.7816 64.1519 77.8988 64.1752 78.0082 64.2206C78.1176 64.2659 78.217 64.3323 78.3008 64.416C78.3845 64.4998 78.4509 64.5992 78.4962 64.7086C78.5415 64.818 78.5649 64.9352 78.5649 65.0536C78.5649 65.1721 78.5415 65.2893 78.4962 65.3987C78.4509 65.5081 78.3845 65.6075 78.3008 65.6913C78.217 65.775 78.1176 65.8414 78.0082 65.8867C77.8988 65.9321 77.7816 65.9554 77.6631 65.9554Z" fill="#CCCCCC" fill-opacity="0.2"/>
<path d="M77.6633 69.3725H49.7571C49.5179 69.3725 49.2886 69.2775 49.1195 69.1084C48.9503 68.9392 48.8553 68.7099 48.8553 68.4707C48.8553 68.2316 48.9503 68.0022 49.1195 67.8331C49.2886 67.664 49.5179 67.569 49.7571 67.569H77.6633C77.7818 67.5689 77.8992 67.5921 78.0087 67.6373C78.1182 67.6826 78.2178 67.749 78.3016 67.8327C78.3855 67.9165 78.452 68.0159 78.4974 68.1254C78.5428 68.2349 78.5661 68.3522 78.5661 68.4707C78.5661 68.5892 78.5428 68.7066 78.4974 68.8161C78.452 68.9255 78.3855 69.025 78.3016 69.1087C78.2178 69.1925 78.1182 69.2589 78.0087 69.3041C77.8992 69.3494 77.7818 69.3726 77.6633 69.3725Z" fill="#CCCCCC" fill-opacity="0.2"/>
<path d="M57.7302 62.4908H41.6888C41.4497 62.4908 41.2203 62.3958 41.0512 62.2267C40.8821 62.0576 40.7871 61.8282 40.7871 61.5891C40.7871 61.3499 40.8821 61.1206 41.0512 60.9515C41.2203 60.7824 41.4497 60.6873 41.6888 60.6873H57.7302C57.9693 60.6873 58.1987 60.7824 58.3678 60.9515C58.5369 61.1206 58.6319 61.3499 58.6319 61.5891C58.6319 61.8282 58.5369 62.0576 58.3678 62.2267C58.1987 62.3958 57.9693 62.4908 57.7302 62.4908Z" fill="#CCCCCC" fill-opacity="0.2"/>
<path d="M66.5577 62.5383H62.0016C61.7624 62.5383 61.5331 62.4433 61.364 62.2742C61.1949 62.105 61.0999 61.8757 61.0999 61.6365C61.0999 61.3974 61.1949 61.168 61.364 60.9989C61.5331 60.8298 61.7624 60.7348 62.0016 60.7348H66.5577C66.7968 60.7348 67.0262 60.8298 67.1953 60.9989C67.3644 61.168 67.4594 61.3974 67.4594 61.6365C67.4594 61.8757 67.3644 62.105 67.1953 62.2742C67.0262 62.4433 66.7968 62.5383 66.5577 62.5383Z" fill="#CCCCCC" fill-opacity="0.2"/>
<path d="M46.2449 69.3725H41.6888C41.4497 69.3725 41.2203 69.2775 41.0512 69.1084C40.8821 68.9392 40.7871 68.7099 40.7871 68.4707C40.7871 68.2316 40.8821 68.0022 41.0512 67.8331C41.2203 67.664 41.4497 67.569 41.6888 67.569H46.2449C46.3635 67.5689 46.4808 67.5921 46.5904 67.6373C46.6999 67.6826 46.7994 67.749 46.8833 67.8327C46.9671 67.9165 47.0337 68.0159 47.079 68.1254C47.1244 68.2349 47.1478 68.3522 47.1478 68.4707C47.1478 68.5892 47.1244 68.7066 47.079 68.8161C47.0337 68.9255 46.9671 69.025 46.8833 69.1087C46.7994 69.1925 46.6999 69.2589 46.5904 69.3041C46.4808 69.3494 46.3635 69.3726 46.2449 69.3725Z" fill="#CCCCCC" fill-opacity="0.2"/>
<path d="M53.5407 56.2746C53.2003 56.2754 52.8734 56.1416 52.6311 55.9024L46.6011 49.9478C46.4827 49.8309 46.3887 49.6917 46.3246 49.5382C46.2604 49.3847 46.2274 49.22 46.2274 49.0536C46.2274 48.8872 46.2604 48.7225 46.3246 48.569C46.3887 48.4155 46.4827 48.2762 46.6011 48.1593L52.6068 42.2288C52.857 41.983 53.194 41.8457 53.5448 41.8468C53.8956 41.8479 54.2318 41.9873 54.4804 42.2347C54.7293 42.4842 54.8691 42.8221 54.8691 43.1745C54.8691 43.5269 54.7293 43.8649 54.4804 44.1143L50.0178 48.5771C49.8787 48.7165 49.8006 48.9053 49.8006 49.1022C49.8006 49.299 49.8787 49.4878 50.0178 49.6272L54.4562 54.0657C54.6375 54.2466 54.761 54.4773 54.811 54.7284C54.8611 54.9795 54.8355 55.2399 54.7374 55.4764C54.6394 55.713 54.4733 55.9151 54.2603 56.0572C54.0472 56.1993 53.7968 56.275 53.5407 56.2746V56.2746Z" fill="#6C63FF"/>
<path d="M63.1492 56.2746C62.8931 56.275 62.6427 56.1993 62.4297 56.0572C62.2166 55.9151 62.0506 55.713 61.9525 55.4764C61.8545 55.2399 61.8288 54.9795 61.8789 54.7284C61.929 54.4773 62.0524 54.2466 62.2337 54.0657L66.6722 49.6272C66.8112 49.4878 66.8893 49.299 66.8893 49.1022C66.8893 48.9053 66.8112 48.7165 66.6722 48.5771L62.2095 44.1143C62.086 43.9909 61.9881 43.8444 61.9214 43.6831C61.8546 43.5219 61.8202 43.3491 61.8202 43.1745C61.8202 43 61.8546 42.8272 61.9214 42.6659C61.9882 42.5047 62.0861 42.3581 62.2095 42.2347C62.4581 41.9873 62.7943 41.8479 63.1451 41.8468C63.4959 41.8457 63.833 41.983 64.0832 42.2288L70.0888 48.1593C70.2072 48.2762 70.3012 48.4155 70.3653 48.569C70.4295 48.7225 70.4625 48.8872 70.4625 49.0536C70.4625 49.22 70.4295 49.3847 70.3653 49.5382C70.3012 49.6917 70.2072 49.831 70.0888 49.9479L64.0588 55.9024C63.8165 56.1416 63.4896 56.2753 63.1492 56.2746Z" fill="#6C63FF"/>
<path d="M99.6239 6.15533C91.2922 6.15533 84.5366 12.9109 84.5366 21.2426C84.5366 29.5743 91.2922 36.3299 99.6239 36.3299C107.956 36.3299 114.711 29.5743 114.711 21.2426C114.711 12.9109 107.956 6.15533 99.6239 6.15533ZM106.14 16.3157L99.048 26.1494C98.9489 26.2877 98.8182 26.4005 98.6668 26.4782C98.5154 26.556 98.3477 26.5966 98.1775 26.5966C98.0073 26.5966 97.8395 26.556 97.6881 26.4782C97.5367 26.4005 97.4061 26.2877 97.3069 26.1494L93.1074 20.33C92.9794 20.1515 93.1074 19.9023 93.3263 19.9023H94.9058C95.2493 19.9023 95.5759 20.0673 95.778 20.3502L98.1758 23.6775L103.47 16.3359C103.672 16.0564 103.995 15.888 104.342 15.888H105.922C106.14 15.888 106.268 16.1372 106.14 16.3157Z" fill="#8FD460"/>
</svg>
