<svg width="285" height="201" viewBox="0 0 285 201" fill="none" xmlns="http://www.w3.org/2000/svg">
  <path
    d="M205.699 142.747H44.0093C42.5687 142.745 41.1875 142.171 40.1687 141.151C39.15 140.131 38.577 138.747 38.5753 137.304V5.44247C38.577 3.99955 39.15 2.61621 40.1687 1.59591C41.1875 0.575611 42.5687 0.00167548 44.0093 0H205.699C207.139 0.00167337 208.521 0.575611 209.539 1.59591C210.558 2.61621 211.131 3.99955 211.133 5.44247V137.304C211.131 138.747 210.558 140.131 209.539 141.151C208.521 142.171 207.139 142.745 205.699 142.747Z"
    fill="white"
    fill-opacity="0.5"
  />
  <path
    d="M47.6732 3.87305C46.2854 3.87466 44.955 4.42754 43.9737 5.41039C42.9924 6.39323 42.4404 7.72579 42.4389 9.11572V133.633C42.4405 135.023 42.9925 136.355 43.9738 137.338C44.9551 138.321 46.2855 138.873 47.6732 138.875H158.343C171.314 138.86 183.749 133.693 192.92 124.507C202.092 115.322 207.251 102.867 207.265 89.8767V9.11572C207.264 7.72579 206.712 6.39323 205.731 5.41039C204.749 4.42754 203.419 3.87467 202.031 3.87306L47.6732 3.87305Z"
    fill="#9CB6EA"
  />
  <line x1="42.236" y1="17.8867" x2="206.797" y2="17.8867" stroke="#DEDEDE" />
  <line x1="60.0121" y1="139.065" x2="60.0121" y2="18.3876" stroke="#DEDEDE" />
  <line x1="102.034" y1="139.065" x2="102.034" y2="18.3876" stroke="#DEDEDE" />
  <rect x="46.209" y="22.9736" width="9.23849" height="9.23849" rx="4" fill="#CBCBCB" />
  <rect x="94.1983" y="6.83887" width="79.682" height="7.50628" rx="3.75314" fill="#CBCBCB" />
  <rect x="46.209" y="35.0996" width="9.23849" height="9.23849" rx="4" fill="#CBCBCB" />
  <rect x="46.209" y="47.2256" width="9.23849" height="9.23849" rx="4" fill="#CBCBCB" />
  <path
    fill-rule="evenodd"
    clip-rule="evenodd"
    d="M50.0225 14.3451C52.0953 14.3451 53.7756 12.6648 53.7756 10.592C53.7756 8.5192 52.0953 6.83887 50.0225 6.83887C47.9497 6.83887 46.2693 8.5192 46.2693 10.592C46.2693 12.6648 47.9497 14.3451 50.0225 14.3451ZM49.6101 12.6772C50.9919 12.6772 52.1122 11.557 52.1122 10.1751C52.1122 8.79327 50.9919 7.67304 49.6101 7.67304C48.2282 7.67304 47.108 8.79327 47.108 10.1751C47.108 11.557 48.2282 12.6772 49.6101 12.6772Z"
    fill="url(#paint0_linear_2306_10368)"
  />
  <path
    opacity="0.6"
    d="M89.3188 37.0926H68.7624C68.5074 37.0926 68.2628 36.8558 68.0824 36.4342C67.9021 36.0126 67.8008 35.4409 67.8008 34.8447C67.8008 34.2485 67.9021 33.6767 68.0824 33.2551C68.2628 32.8335 68.5074 32.5967 68.7624 32.5967H89.3188C89.5739 32.5967 89.8185 32.8335 89.9989 33.2551C90.1792 33.6767 90.2805 34.2485 90.2805 34.8447C90.2805 35.4409 90.1792 36.0126 89.9989 36.4342C89.8185 36.8558 89.5739 37.0926 89.3188 37.0926Z"
    fill="#7F9EF3"
  />
  <path
    opacity="0.6"
    d="M92.7112 46.0819H68.7395C68.4904 46.0809 68.2517 45.7844 68.0756 45.2575C67.8996 44.7306 67.8008 44.0165 67.8008 43.2719C67.8008 42.5273 67.8996 41.8131 68.0756 41.2863C68.2517 40.7594 68.4904 40.4629 68.7395 40.4619H92.7112C92.8347 40.4614 92.9571 40.5337 93.0713 40.6747C93.1855 40.8157 93.2893 41.0226 93.3767 41.2836C93.4641 41.5446 93.5335 41.8545 93.5808 42.1957C93.6281 42.5368 93.6525 42.9025 93.6525 43.2719C93.6525 43.6412 93.6281 44.0069 93.5808 44.3481C93.5335 44.6893 93.4641 44.9992 93.3767 45.2602C93.2893 45.5212 93.1855 45.7281 93.0713 45.8691C92.9571 46.01 92.8347 46.0824 92.7112 46.0819Z"
    fill="#7F9EF3"
  />
  <path
    opacity="0.6"
    d="M83.9393 53.951H68.522C68.3307 53.951 68.1473 53.7142 68.012 53.2926C67.8767 52.871 67.8008 52.2993 67.8008 51.7031C67.8008 51.1068 67.8767 50.5351 68.012 50.1135C68.1473 49.6919 68.3307 49.4551 68.522 49.4551H83.9393C84.1306 49.4551 84.3141 49.6919 84.4493 50.1135C84.5846 50.5351 84.6606 51.1068 84.6606 51.7031C84.6606 52.2993 84.5846 52.871 84.4493 53.2926C84.3141 53.7142 84.1306 53.951 83.9393 53.951Z"
    fill="#7F9EF3"
  />
  <path
    opacity="0.6"
    d="M92.7112 71.9354H68.7395C68.4904 71.9346 68.2517 71.6974 68.0756 71.2759C67.8996 70.8544 67.8008 70.2831 67.8008 69.6874C67.8008 69.0917 67.8996 68.5204 68.0756 68.0989C68.2517 67.6774 68.4904 67.4403 68.7395 67.4395H92.7112C92.8347 67.4391 92.9571 67.4969 93.0713 67.6097C93.1855 67.7225 93.2893 67.888 93.3767 68.0968C93.4641 68.3056 93.5335 68.5535 93.5808 68.8265C93.6281 69.0994 93.6525 69.392 93.6525 69.6874C93.6525 69.9829 93.6281 70.2755 93.5808 70.5484C93.5335 70.8213 93.4641 71.0693 93.3767 71.2781C93.2893 71.4868 93.1855 71.6524 93.0713 71.7652C92.9571 71.878 92.8347 71.9358 92.7112 71.9354Z"
    fill="#7F9EF3"
  />
  <path
    opacity="0.6"
    d="M83.9393 80.9276H68.522C68.3307 80.9276 68.1473 80.6315 68.012 80.1045C67.8767 79.5776 67.8008 78.8628 67.8008 78.1176C67.8008 77.3723 67.8767 76.6576 68.012 76.1306C68.1473 75.6037 68.3307 75.3076 68.522 75.3076H83.9393C84.1306 75.3076 84.3141 75.6037 84.4493 76.1306C84.5846 76.6576 84.6606 77.3723 84.6606 78.1176C84.6606 78.8628 84.5846 79.5776 84.4493 80.1045C84.3141 80.6315 84.1306 80.9276 83.9393 80.9276Z"
    fill="#7F9EF3"
  />
  <path
    opacity="0.6"
    d="M92.7112 62.9422H68.7395C68.4904 62.9414 68.2517 62.7042 68.0756 62.2828C67.8996 61.8613 67.8008 61.2899 67.8008 60.6943C67.8008 60.0986 67.8996 59.5273 68.0756 59.1058C68.2517 58.6843 68.4904 58.4471 68.7395 58.4463H92.7112C92.8347 58.4459 92.9571 58.5037 93.0713 58.6165C93.1855 58.7293 93.2893 58.8949 93.3767 59.1036C93.4641 59.3124 93.5335 59.5604 93.5808 59.8333C93.6281 60.1062 93.6525 60.3988 93.6525 60.6943C93.6525 60.9897 93.6281 61.2823 93.5808 61.5552C93.5335 61.8282 93.4641 62.0761 93.3767 62.2849C93.2893 62.4937 93.1855 62.6592 93.0713 62.772C92.9571 62.8848 92.8347 62.9426 92.7112 62.9422Z"
    fill="#7F9EF3"
  />
  <path
    d="M10.4349 86.7925C9.31976 83.6015 11.0086 80.0984 14.1996 78.9833C14.7163 78.8027 14.9889 78.2373 14.8083 77.7206C14.6278 77.204 14.0623 76.9314 13.5456 77.1119C9.32284 78.5875 7.08782 83.2237 8.56346 87.4465C8.744 87.9631 9.30947 88.2357 9.82613 88.0552C10.3428 87.8746 10.6154 87.3092 10.4349 86.7925Z"
    fill="#8A65FF"
  />
  <path
    d="M12.6752 74.6208C13.1919 74.4403 13.4645 73.875 13.2839 73.3581C13.1034 72.8415 12.5379 72.5689 12.0212 72.7494C5.39274 75.0657 1.88447 82.3429 4.20077 88.9714C4.38132 89.4881 4.94679 89.7607 5.46345 89.5802C5.98011 89.3996 6.25271 88.8341 6.07217 88.3175C4.11642 82.7208 7.07846 76.5766 12.6752 74.6208Z"
    fill="#8A65FF"
  />
  <path
    d="M35.8725 69.3107C35.3557 69.4913 35.0833 70.0567 35.2638 70.5734C35.4444 71.0901 36.0097 71.3627 36.5265 71.1821C39.7175 70.067 43.2206 71.7558 44.3357 74.9469C44.5163 75.4635 45.0816 75.7362 45.5984 75.5556C46.1152 75.375 46.3876 74.8096 46.2071 74.2929C44.7315 70.0701 40.0953 67.8351 35.8725 69.3107Z"
    fill="#8A65FF"
  />
  <path
    d="M34.3479 64.9474C33.8311 65.128 33.5587 65.6935 33.7392 66.2101C33.9198 66.7269 34.4851 66.9994 35.0019 66.8188C40.5986 64.8631 46.7428 67.8251 48.6985 73.4219C48.8791 73.9385 49.4444 74.2112 49.9612 74.0306C50.4779 73.85 50.7505 73.2846 50.5699 72.7679C48.2536 66.1394 40.9764 62.6311 34.3479 64.9474Z"
    fill="#8A65FF"
  />
  <path
    d="M45.9246 88.0189L43.2556 80.3811C42.8545 79.2335 41.646 78.602 40.4982 79.0031C40.417 79.0315 40.3665 79.0544 40.2869 79.093C39.2678 79.5879 38.8493 80.792 39.2229 81.8612L41.533 88.4719C41.719 89.0042 41.4341 89.5795 40.9019 89.7655L40.8845 89.7716C40.3086 89.9728 39.6795 89.6773 39.4781 89.1011L35.752 78.438C35.3783 77.3687 34.2716 76.6976 33.1662 76.9451C33.0799 76.9644 32.9769 76.9951 32.8958 77.0235C31.7479 77.4244 31.1183 78.6983 31.5194 79.846L35.2811 90.6109C35.475 91.1658 35.1807 91.7733 34.626 91.9672C34.063 92.1639 33.4453 91.8674 33.2485 91.3044L28.464 77.6127C28.0904 76.5435 27.0038 75.8652 25.8983 76.1129C25.8119 76.1322 25.6989 76.1663 25.6176 76.1947C24.4698 76.5958 23.83 77.8731 24.2311 79.0209L29.0382 92.7771C29.2347 93.3395 28.9365 93.9554 28.3741 94.1519C27.8185 94.346 27.2093 94.0535 27.0152 93.4982L23.276 82.7977C22.9023 81.7284 21.8357 81.0432 20.7303 81.2907C20.644 81.3101 20.5209 81.3478 20.4398 81.3762C19.2919 81.7771 18.6421 83.058 19.0432 84.2058L24.4713 99.7392C24.6727 100.315 24.3949 100.845 23.901 101.017C23.6736 101.097 23.4427 101.086 23.1862 100.971L19.9086 99.4934C19.3664 99.232 18.7741 99.2136 18.2445 99.3987C17.7149 99.5837 17.2593 99.9684 16.9979 100.51C16.4754 101.595 16.9367 102.909 18.0207 103.431L30.8715 111.958C30.8729 111.959 30.8745 111.961 30.875 111.962L32.1244 114.83C32.3186 115.275 32.8288 115.511 33.2868 115.351C33.2873 115.351 33.2876 115.351 33.2881 115.351L48.6316 109.957C49.0706 109.803 49.3249 109.339 49.2299 108.884L48.5626 105.688C48.5341 105.551 48.4787 105.429 48.5111 105.293C49.5782 100.827 48.204 94.542 45.9246 88.0189Z"
    fill="#D9C8C1"
  />
  <path
    d="M39.8443 77.1316C39.6907 77.1853 39.5666 77.2388 39.4195 77.3101C38.7885 77.6166 38.2493 78.0727 37.9067 78.5946L37.6234 77.7838C36.9086 75.7384 34.8067 74.5458 32.7328 75.0105C32.5733 75.0461 32.4148 75.0914 32.2608 75.1452C31.4453 75.43 30.7532 75.9483 30.2557 76.6358C29.4459 74.7807 27.4548 73.736 25.4876 74.1767C25.3281 74.2125 25.1727 74.2627 25.019 74.3165L25.0182 74.3167L25.0176 74.3169C23.9626 74.6856 23.1111 75.4394 22.6239 76.4499C22.1751 77.3809 22.0834 78.4171 22.3605 79.4C21.7178 79.2187 21.0264 79.1891 20.3384 79.3432C20.1789 79.3789 20.0197 79.4236 19.8659 79.4774C18.8109 79.8459 17.902 80.6258 17.4148 81.6362C16.9278 82.6467 16.8028 83.8046 17.1715 84.8596L21.8603 98.2775L20.6949 97.7088C19.7009 97.2389 18.6109 97.1703 17.5679 97.5347C16.5146 97.9028 15.6837 98.6518 15.2008 99.6532C14.2249 101.677 15.0436 104.106 17.014 105.148L29.2871 113.289L30.2999 115.606C30.9051 116.994 32.4994 117.689 33.9285 117.19L49.2808 111.812C50.6533 111.33 51.4641 109.894 51.1674 108.471L50.549 105.505C51.0609 103.186 50.9916 100.373 50.4583 97.0974C49.9928 94.2374 49.058 90.9764 47.7959 87.3647L45.1269 79.7269C44.3643 77.5444 42.027 76.3689 39.8443 77.1316ZM49.2268 108.875C49.322 109.331 49.0705 109.803 48.6313 109.956L33.2878 115.35C33.2873 115.35 33.287 115.35 33.2866 115.35C32.8284 115.511 32.3185 115.274 32.1243 114.829L30.878 111.969C30.8773 111.968 30.8749 111.963 30.8734 111.962L18.0231 103.432C16.9388 102.91 16.479 101.594 17.0017 100.51C17.2631 99.9676 17.7223 99.5811 18.2517 99.396C18.7813 99.211 19.3811 99.2266 19.9232 99.488L23.2155 100.96C23.4721 101.075 23.6732 101.096 23.9006 101.017C24.3945 100.844 24.6722 100.315 24.4709 99.7387L19.0428 84.2055C18.6418 83.0578 19.312 81.7697 20.4598 81.3687C20.5411 81.3403 20.6138 81.3202 20.7003 81.3008C21.8057 81.0533 22.9019 81.728 23.2756 82.7974L27.0149 93.4979C27.209 94.0534 27.8181 94.3457 28.3737 94.1516C28.9361 93.955 29.2343 93.3391 29.0378 92.7768L24.2308 79.0208C23.8297 77.873 24.48 76.5919 25.6276 76.1909C25.7087 76.1626 25.7917 76.1388 25.8781 76.1196C26.9835 75.872 28.0899 76.5433 28.4635 77.6125L33.2481 91.3043C33.4448 91.8673 34.0625 92.1638 34.6255 91.9671C35.1804 91.7732 35.4745 91.1655 35.2806 90.6108L31.5188 79.8458C31.1178 78.6981 31.7479 77.424 32.8957 77.023C32.9768 76.9947 33.0697 76.9675 33.156 76.9482C34.2614 76.7007 35.3778 77.3684 35.7514 78.4378L39.4777 89.101C39.679 89.6771 40.3081 89.9727 40.8841 89.7715L40.9014 89.7654C41.4336 89.5794 41.7185 89.0041 41.5325 88.4718L39.2224 81.8611C38.8488 80.7919 39.2968 79.5775 40.3156 79.0827C40.3952 79.0441 40.4168 79.0313 40.498 79.0029C41.6457 78.6018 42.854 79.2332 43.2551 80.381L45.9241 88.0188C48.2035 94.5419 49.5771 100.825 48.5097 105.291C48.4773 105.427 48.5029 105.557 48.5314 105.694L49.2268 108.875Z"
    fill="#DBDBDB"
  />
  <path
    d="M169.864 164.022C170.729 164.669 171.34 165.56 172.056 166.346C174.008 168.491 175.909 170.682 177.834 172.851C178.369 173.454 179.65 172.884 180.24 173.429C181.056 174.183 182.547 174.849 183.713 175.03C184.816 175.201 185.808 175.867 186.901 176.158C190.059 176.998 191.914 177.688 195.247 177.214C196.376 177.053 197.499 178.068 198.652 178.244C198.316 180.515 198.017 182.79 197.633 185.053C197.283 187.116 195.723 188.481 193.616 188.632C190.713 188.841 187.808 189.037 184.902 189.201C183.471 189.282 182.256 188.777 181.337 187.643C180.503 186.616 179.73 185.532 178.825 184.573C177.369 183.03 177.1 181.256 177.424 179.248C177.667 177.744 177.589 177.682 176.054 177.823C174.301 177.985 172.966 177.362 171.929 175.964C171.254 175.054 170.528 174.181 169.812 173.302C169.087 172.413 168.808 171.381 168.951 170.272C169.22 168.184 169.556 166.105 169.864 164.022Z"
    fill="#5ECAE7"
  />
  <path
    d="M216.814 177.408C219.679 177.292 222.544 177.183 225.408 177.058C227.738 176.957 230.066 176.792 232.397 176.739C234.136 176.7 235.998 175.59 237.742 175.795C237.31 179.034 236.57 183.078 235.988 186.292C235.693 187.914 234.278 189.133 232.572 189.27C230.02 189.476 227.462 189.607 224.909 189.808C223.728 189.9 222.721 189.536 221.849 188.788C220.415 187.558 218.998 186.308 217.593 185.044C216.44 184.008 216.008 182.706 216.25 181.172C216.448 179.919 216.627 178.663 216.814 177.408Z"
    fill="#5ECAE7"
  />
  <path
    d="M269.049 103.713C268.441 105.036 268.152 106.461 267.787 107.854C267.293 109.748 266.742 111.625 266.198 113.503C265.587 115.613 264.94 117.711 264.309 119.815C263.662 121.97 263.428 124.186 262.79 126.343C262.189 128.373 261.612 130.409 261.009 132.438C260.146 135.339 259.258 138.233 258.401 141.135C257.566 143.961 256.765 146.797 255.931 149.624C255.196 152.115 254.009 154.533 253.269 157.023C252.665 159.052 252.072 161.084 251.495 163.12C251.324 163.728 250.996 164.247 250.699 164.789C250.53 165.098 250.195 165.387 250.485 165.809C250.57 165.934 250.517 166.094 250.385 166.158C249.334 166.672 249.109 167.835 248.428 168.642C246.658 170.745 244.522 172.01 241.689 172.019C239.203 172.747 236.633 172.993 234.168 173.068C230.338 173.184 226.588 172.761 222.803 172.58C219.481 172.686 216.16 172.811 212.838 172.917C208.739 173.047 204.513 174 200.415 174.126C198.272 174.191 196.103 173.813 193.989 173.599C192.011 173.399 190.06 172.852 188.726 171.005C188.182 170.252 187.132 169.273 187.067 168.382C187.031 167.884 186.816 167.522 186.821 167.292C186.826 167.047 187.347 166.67 187.359 166.216C187.398 164.795 187.432 163.362 187.65 161.963C187.921 160.229 188.027 158.481 188.224 156.743C188.598 153.46 189.288 150.227 189.655 146.941C189.89 144.832 190.083 142.716 190.295 140.604C190.623 137.341 190.934 134.077 191.288 130.816C191.511 128.76 191.704 126.699 191.908 124.64C192.243 121.269 192.576 117.899 192.947 114.532C193.171 112.503 193.343 110.467 193.551 108.436C193.89 105.147 194.203 101.856 194.559 98.5683C194.786 96.4583 194.979 94.343 195.196 92.2309C195.427 89.9848 195.662 87.739 195.89 85.4925C196.099 83.4343 196.308 81.3752 196.506 79.3158C196.815 76.1049 196.746 72.8757 197.069 69.6666C197.293 67.4467 197.194 65.0954 197.399 62.8748C197.789 58.6398 197.817 54.2421 199.629 50.3639C199.906 48.7676 200.393 47.2286 201.311 45.8682C202.036 44.7939 203.148 44.3007 204.359 44.0482C206.555 43.5909 208.711 43.7376 210.854 44.4675C212.093 44.89 213.402 45.1083 214.677 45.4274C216.783 45.9549 218.523 45.9162 220.631 46.4388C221.985 46.7746 223.348 47.075 224.701 47.4137C226.703 47.9151 228.698 48.4415 230.698 48.9478C231.973 49.2706 233.253 49.5713 234.528 49.8904C236.634 50.4174 238.737 50.9572 240.844 51.481C242.172 51.8111 243.507 52.1116 244.834 52.4438C246.862 52.9517 249.246 54.0607 251.274 54.5694C252.601 54.9024 253.936 55.2058 255.263 55.5384C257.317 56.0536 259.356 56.6345 261.423 57.0865C262.814 57.3904 264.187 57.7594 265.569 58.0947C267.6 58.5878 269.617 59.1397 271.649 59.6311C272.848 59.9212 274.058 60.1608 275.239 60.5279C277.187 61.133 278.808 63.0359 278.941 65.0458C279.055 66.7544 279.604 68.9792 279.278 70.6656C278.628 72.9448 278.511 74.7566 277.86 77.0362C276.545 81.647 274.476 86.4649 273.289 91.1118C272.573 92.9998 272.005 94.7028 271.549 96.6662C270.722 98.9843 269.597 101.314 269.049 103.713Z"
    fill="#5FCAE7"
  />
  <path
    d="M162.017 127.186C161.746 128.792 161.703 130.228 162.366 131.6C162.608 132.101 163.013 132.427 163.573 132.394C164.161 132.359 164.233 131.807 164.325 131.385C164.588 130.176 164.788 128.948 164.695 127.706C164.621 126.72 164.59 125.706 164.116 124.803C163.715 124.039 163.304 124.037 162.821 124.757C162.297 125.536 162.069 126.415 162.017 127.186ZM176.652 138.836C176.636 138.943 176.562 139.262 176.543 139.584C176.459 141.025 176.562 142.442 177.265 143.744C177.598 144.362 178.098 144.926 178.829 144.833C179.507 144.746 179.674 144.045 179.899 143.451C180.392 142.151 180.355 140.802 180.286 139.468C180.218 138.157 180.116 136.817 179.37 135.663C178.83 134.825 178.391 134.835 177.756 135.625C177.05 136.502 176.81 137.542 176.652 138.836ZM190.832 51.0652C190.434 52.6951 190.145 55.6665 189.923 57.8345C189.63 60.6927 189.091 63.715 188.818 66.5761C188.554 69.3295 188.291 72.0834 188.044 74.8379C187.794 77.6203 187.527 80.4005 187.269 83.1816C187 86.07 186.725 88.9576 186.444 91.845C186.265 93.6892 186.105 95.5354 185.93 97.3807C185.667 100.161 185.422 102.943 185.152 105.723C184.883 108.503 184.627 111.285 184.374 114.067C184.119 116.875 183.836 119.681 183.584 122.489C183.332 125.299 183.053 128.105 182.793 130.913C182.538 133.667 182.276 136.421 182.025 139.175C181.766 142.011 181.489 144.844 181.224 147.679C180.959 150.514 181.345 153.354 181.066 156.188C180.885 158.031 180.973 159.577 180.789 161.422C180.673 162.587 180.343 164.081 180.086 165.294C179.88 166.268 179.837 167.253 179.436 168.176C178.93 169.342 177.248 169.618 176.362 168.68C175.108 167.353 173.587 167.025 172.357 165.674C170.731 163.887 169.06 162.302 167.434 160.514C165.591 158.487 164.072 155.246 162.275 153.18C161.659 152.471 161.765 151.44 161.484 150.574C160.883 148.724 160.493 146.821 160.29 144.897C160.166 143.711 159.918 142.416 159.957 141.213C160.026 139.044 159.804 136.71 159.883 134.542C159.942 132.908 160.244 131.136 160.303 129.503C160.365 127.817 160.885 126.513 160.949 124.827C161.011 123.166 161.104 121.507 161.174 119.846C161.24 118.267 161.296 116.687 161.353 115.107C161.415 113.394 161.475 111.681 161.53 109.968C161.601 107.8 161.658 105.631 161.737 103.464C161.797 101.83 161.892 100.197 161.952 98.5636C162.029 96.4758 162.08 94.3873 162.153 92.2994C162.211 90.6392 162.294 88.9801 162.352 87.3195C162.429 85.1519 162.485 82.9834 162.564 80.8159C162.624 79.1819 162.711 77.549 162.776 75.9156C162.839 74.3627 162.891 72.8095 162.947 71.2561C163.009 69.5167 163.07 67.7766 163.134 66.0374C163.191 64.4573 163.255 62.8777 163.309 61.2975C163.379 59.237 163.312 54.7155 163.615 52.69C163.942 50.5021 164.28 50.7248 165.127 48.642C165.292 48.2372 165.587 48.0793 165.968 47.9733C171.571 45.0105 172.86 45.6211 178.567 44.0329C180.072 43.6142 185.929 41.8307 187.435 41.4178C188.874 41.0229 190.781 43.0257 190.967 44.7607C191.212 47.0416 191.259 48.3243 190.832 51.0652Z"
    fill="#5FCAE7"
  />
  <path
    d="M190.346 52.0044C192.307 45.4276 190.47 39.4113 183.087 43.2051C175.881 46.3824 163.119 44.5964 163.56 55.1207C162.55 78.3337 161.942 101.602 160.948 124.825C158.834 146.451 159.902 153.696 176.364 168.677C182.781 172.039 179.943 143.885 182.027 139.175C184.878 110.197 187.181 80.9022 190.346 52.0044ZM271.263 96.6543C272.244 85.7253 285.35 68.8867 275.242 60.5254C251.615 55.6125 228.14 46.7973 204.358 44.0443C194.057 52.0892 199.376 73.1885 195.886 85.4893C192.752 112.419 191.016 140.765 187.228 167.002C188.521 177.534 204.538 172.154 212.837 172.915C224.206 170.886 239.036 175.895 248.428 168.644C258.684 146.504 262.972 120.173 271.263 96.6543ZM216.813 177.407C200.891 177.661 181.664 182.704 172.056 166.345C154.927 153.244 160.108 131.803 160.254 112.922C163.551 94.2011 155.074 55.4213 168.63 43.0026C192.899 32.2418 207.98 34.1852 232.623 42.3766C251.512 50.3997 291.824 46.1738 278.241 77.2978C271.216 101.041 264.124 124.763 257.098 148.505C251.486 175.808 243.04 177.961 216.813 177.407Z"
    fill="#79D0E7"
  />
  <path
    d="M176.653 138.836C176.81 137.542 177.051 136.502 177.757 135.625C178.392 134.835 178.831 134.826 179.371 135.663C180.117 136.818 180.219 138.157 180.287 139.468C180.356 140.803 180.393 142.151 179.9 143.452C179.675 144.046 179.508 144.746 178.83 144.832C178.099 144.926 177.599 144.362 177.266 143.744C176.563 142.442 176.46 141.025 176.543 139.584C176.562 139.262 176.636 138.944 176.653 138.836Z"
    fill="#1A8DC5"
  />
  <path
    d="M162.017 127.186C162.069 126.415 162.297 125.536 162.821 124.757C163.304 124.037 163.715 124.039 164.116 124.803C164.59 125.706 164.621 126.72 164.695 127.706C164.788 128.948 164.588 130.176 164.325 131.385C164.233 131.807 164.16 132.36 163.573 132.394C163.013 132.427 162.608 132.101 162.366 131.6C161.703 130.228 161.746 128.792 162.017 127.186Z"
    fill="#1783BD"
  />
  <path
    fill-rule="evenodd"
    clip-rule="evenodd"
    d="M159.85 130.186C159.172 134.811 159.758 138.952 161.178 139.402C162.588 139.847 164.373 136.029 165.162 130.821C165.951 125.614 165.347 121.51 163.833 121.606C162.32 121.703 160.533 125.525 159.85 130.186ZM157.893 131.316C156.927 137.983 157.821 144.18 159.883 145.119C161.945 146.058 164.603 140.398 165.802 132.512C167.002 124.627 166.109 118.43 163.8 118.711C161.491 118.992 158.863 124.614 157.893 131.316Z"
    fill="#0B639E"
  />
  <path
    fill-rule="evenodd"
    clip-rule="evenodd"
    d="M161.185 139.362C159.775 138.918 159.172 134.81 159.856 130.149C160.534 125.525 162.321 121.702 163.834 121.606C165.348 121.509 165.952 125.613 165.163 130.821C164.369 135.985 162.595 139.807 161.185 139.362ZM161.092 139.984C159.586 139.487 158.942 135.098 159.665 130.164C160.388 125.229 162.301 121.108 163.927 120.984C165.553 120.86 166.197 125.246 165.349 130.843C164.506 136.399 162.599 140.481 161.092 139.984Z"
    fill="#0B639E"
  />
  <path
    fill-rule="evenodd"
    clip-rule="evenodd"
    d="M159.98 144.464C158.043 143.613 157.168 137.614 158.077 131.344C158.986 125.074 161.575 119.561 163.721 119.325C165.866 119.09 166.737 125.126 165.624 132.443C164.512 139.759 161.917 145.315 159.98 144.464ZM159.883 145.119C157.821 144.18 156.922 138.018 157.892 131.316C158.858 124.649 161.504 118.991 163.812 118.71C166.121 118.428 167.009 124.585 165.802 132.512C164.602 140.398 161.945 146.058 159.883 145.119Z"
    fill="#0B639E"
  />
  <defs>
    <linearGradient
      id="paint0_linear_2306_10368"
      x1="47.6455"
      y1="7.68958"
      x2="52.3244"
      y2="13.3068"
      gradientUnits="userSpaceOnUse"
    >
      <stop stop-color="#3C9AE8" />
      <stop offset="1" stop-color="#84E2D8" />
    </linearGradient>
  </defs>
</svg>
