<svg width="72" height="42" viewBox="0 0 72 42" fill="none" xmlns="http://www.w3.org/2000/svg">
<path d="M55.2129 11.0059L37.8881 21.0002L20.5563 10.99" stroke="#DBDBDB" stroke-width="2" stroke-linecap="round" stroke-linejoin="round"/>
<path d="M37.8883 21V39.5747" stroke="#DBDBDB" stroke-width="2" stroke-linecap="round" stroke-linejoin="round"/>
<path d="M35.8228 1.55302C37.101 0.815661 38.6758 0.815661 39.954 1.55302L53.7114 9.48917C54.9895 10.2265 55.7769 11.5892 55.7769 13.0639V28.9362C55.7769 30.4108 54.9895 31.7736 53.7114 32.511L39.954 40.4469C38.6758 41.1844 37.101 41.1844 35.8228 40.4469L22.0656 32.511C20.7874 31.7736 20 30.4108 20 28.9362V13.0639C20 11.5892 20.7874 10.2265 22.0656 9.48917L35.8228 1.55302Z" stroke="#DBDBDB" stroke-width="2" stroke-linecap="round" stroke-linejoin="round"/>
<path d="M1.54202 24.4706C0.555127 23.5294 0 22.2941 0 21C0 19.7059 0.555126 18.4706 1.54202 17.5294C2.52891 16.5882 3.82421 16.0588 5.18119 16.0588L9.86892 16.0588V18.4118H13.323V20.0588H9.86892V21.9412H13.323V23.5882H9.86892V25.9412L5.24287 26C3.88589 25.8824 2.52891 25.4118 1.54202 24.4706ZM8.14186 17.7059L5.30455 17.7059C4.31765 17.7059 3.45412 18.0588 2.83732 18.6471C2.22051 19.2353 1.85042 20.0588 1.85042 21C1.85042 22.7647 3.45412 24.2941 5.30455 24.2941L8.20354 24.2353L8.14186 17.7059ZM62.1881 25.9412V16.0588L66.8142 16C68.1712 16 69.5281 16.5882 70.4533 17.4706C71.3785 18.3529 71.9337 19.5882 71.9954 20.9412C72.057 22.2941 71.5019 23.5294 70.515 24.4706C69.5281 25.4118 68.2328 25.9412 66.8758 25.9412H62.1881ZM63.9769 17.7647V24.2353H66.8142C67.8011 24.2353 68.6029 23.9412 69.2814 23.2941C69.8982 22.7059 70.2683 21.8824 70.2683 20.9412C70.2683 19.1765 68.7263 17.7059 66.8142 17.6471L63.9769 17.7647Z" fill="#DBDBDB"/>
</svg>
